<svg xmlns="http://www.w3.org/2000/svg" xmlns:xlink="http://www.w3.org/1999/xlink" width="69" zoomAndPan="magnify" viewBox="0 0 51.75 45.749998" height="61" preserveAspectRatio="xMidYMid meet" version="1.0"><defs><clipPath id="c1ad3c662c"><path d="M 0.015625 0 L 23.886719 0 L 23.886719 3 L 0.015625 3 Z M 0.015625 0 " clip-rule="nonzero"/></clipPath><clipPath id="bcff226947"><path d="M 0.015625 43 L 23.886719 43 L 23.886719 45.5 L 0.015625 45.5 Z M 0.015625 43 " clip-rule="nonzero"/></clipPath><clipPath id="a45fd62cae"><path d="M 38.675781 27.125 L 50.957031 27.125 L 50.957031 39.40625 L 38.675781 39.40625 Z M 38.675781 27.125 " clip-rule="nonzero"/></clipPath><clipPath id="639c6505e6"><path d="M 39 27.125 L 50.957031 27.125 L 50.957031 39 L 39 39 Z M 39 27.125 " clip-rule="nonzero"/></clipPath><clipPath id="eb13a47120"><path d="M 24.949219 25.050781 L 37.230469 25.050781 L 37.230469 37.332031 L 24.949219 37.332031 Z M 24.949219 25.050781 " clip-rule="nonzero"/></clipPath><clipPath id="a4b998b68b"><path d="M 25 25.050781 L 37 25.050781 L 37 37 L 25 37 Z M 25 25.050781 " clip-rule="nonzero"/></clipPath><clipPath id="00115d75e5"><path d="M 11.222656 27.125 L 23.5 27.125 L 23.5 39.40625 L 11.222656 39.40625 Z M 11.222656 27.125 " clip-rule="nonzero"/></clipPath><clipPath id="fcc32457de"><path d="M 12 27.125 L 23.5 27.125 L 23.5 39 L 12 39 Z M 12 27.125 " clip-rule="nonzero"/></clipPath></defs><path fill="#ffffff" d="M 15.292969 19.699219 L 20.417969 12.859375 C 21.363281 11.597656 22.136719 9.277344 22.136719 7.703125 L 22.136719 1.726562 L 1.765625 1.726562 L 1.765625 7.703125 C 1.765625 9.277344 2.539062 11.597656 3.484375 12.859375 L 8.609375 19.699219 C 9.195312 20.480469 9.851562 21.171875 10.375 21.585938 L 10.375 23.917969 C 9.851562 24.332031 9.195312 25.023438 8.609375 25.800781 L 3.484375 32.644531 C 2.539062 33.90625 1.765625 36.226562 1.765625 37.800781 L 1.765625 43.777344 L 22.136719 43.777344 L 22.136719 37.800781 C 22.136719 36.226562 21.363281 33.90625 20.417969 32.644531 L 15.292969 25.800781 C 14.707031 25.023438 14.050781 24.332031 13.527344 23.917969 L 13.527344 21.585938 C 14.050781 21.171875 14.707031 20.480469 15.292969 19.699219 " fill-opacity="1" fill-rule="nonzero"/><path stroke-linecap="round" transform="matrix(0.00294023, 0, 0, -0.00293482, -14.89363, 49.563695)" fill="none" stroke-linejoin="round" d="M 10266.761479 10175.924754 L 12009.824785 12506.510938 C 12331.334937 12936.424894 12594.388698 13727.040652 12594.388698 14263.434845 L 12594.388698 16299.869375 L 5665.97777 16299.869375 L 5665.97777 14263.434845 C 5665.97777 13727.040652 5929.031531 12936.424894 6250.541683 12506.510938 L 7993.604989 10175.924754 C 8191.559587 9909.724162 8416.085272 9674.136638 8594.111554 9533.050324 L 8594.111554 8738.441557 C 8416.085272 8597.355243 8191.559587 8361.767719 7993.604989 8096.89813 L 6250.541683 5764.980943 C 5929.031531 5335.066987 5665.97777 4544.451228 5665.97777 4008.057035 L 5665.97777 1971.622506 L 12594.388698 1971.622506 L 12594.388698 4008.057035 C 12594.388698 4544.451228 12331.334937 5335.066987 12009.824785 5764.980943 L 10266.761479 8096.89813 C 10067.478327 8361.767719 9844.281196 8597.355243 9666.254914 8738.441557 L 9666.254914 9533.050324 C 9844.281196 9674.136638 10067.478327 9909.724162 10266.761479 10175.924754 Z M 10266.761479 10175.924754 " stroke="#000000" stroke-width="85.889999" stroke-opacity="1" stroke-miterlimit="10"/><g clip-path="url(#c1ad3c662c)"><path fill="#000000" d="M 23.886719 2.042969 C 23.886719 2.179688 23.773438 2.292969 23.632812 2.292969 L 0.269531 2.292969 C 0.128906 2.292969 0.015625 2.179688 0.015625 2.042969 L 0.015625 0.273438 C 0.015625 0.132812 0.128906 0.0195312 0.269531 0.0195312 L 23.632812 0.0195312 C 23.773438 0.0195312 23.886719 0.132812 23.886719 0.273438 L 23.886719 2.042969 " fill-opacity="1" fill-rule="nonzero"/></g><g clip-path="url(#bcff226947)"><path fill="#000000" d="M 23.886719 43.460938 C 23.886719 43.320312 23.773438 43.207031 23.632812 43.207031 L 0.269531 43.207031 C 0.128906 43.207031 0.015625 43.320312 0.015625 43.460938 L 0.015625 45.230469 C 0.015625 45.367188 0.128906 45.480469 0.269531 45.480469 L 23.632812 45.480469 C 23.773438 45.480469 23.886719 45.367188 23.886719 45.230469 L 23.886719 43.460938 " fill-opacity="1" fill-rule="nonzero"/></g><path fill="#000000" d="M 3.371094 11.449219 L 11.273438 21.140625 L 11.921875 24.359375 L 12.628906 21.140625 L 19.941406 11.574219 C 19.941406 11.574219 18.488281 9.429688 14.820312 9.050781 C 11.148438 8.671875 6.910156 11.511719 3.371094 11.449219 " fill-opacity="1" fill-rule="nonzero"/><path fill="#000000" d="M 3.371094 35.96875 C 3.371094 35.96875 2.671875 37.105469 2.671875 38.15625 C 2.671875 39.210938 2.671875 42.464844 2.671875 42.464844 L 20.890625 42.464844 L 20.890625 38.410156 C 20.890625 38.410156 16.886719 34.707031 13.636719 34.746094 C 10.390625 34.789062 8.28125 37.527344 3.371094 35.96875 " fill-opacity="1" fill-rule="nonzero"/><path fill="#000000" d="M 12.847656 25.226562 C 12.847656 25.378906 12.726562 25.5 12.574219 25.5 C 12.425781 25.5 12.300781 25.378906 12.300781 25.226562 C 12.300781 25.078125 12.425781 24.953125 12.574219 24.953125 C 12.726562 24.953125 12.847656 25.078125 12.847656 25.226562 " fill-opacity="1" fill-rule="nonzero"/><path fill="#000000" d="M 12.34375 26.699219 C 12.34375 26.804688 12.257812 26.886719 12.15625 26.886719 C 12.050781 26.886719 11.964844 26.804688 11.964844 26.699219 C 11.964844 26.59375 12.050781 26.507812 12.15625 26.507812 C 12.257812 26.507812 12.34375 26.59375 12.34375 26.699219 " fill-opacity="1" fill-rule="nonzero"/><path fill="#000000" d="M 13.355469 27.246094 C 13.355469 27.394531 13.230469 27.519531 13.082031 27.519531 C 12.929688 27.519531 12.808594 27.394531 12.808594 27.246094 C 12.808594 27.09375 12.929688 26.972656 13.082031 26.972656 C 13.230469 26.972656 13.355469 27.09375 13.355469 27.246094 " fill-opacity="1" fill-rule="nonzero"/><path fill="#000000" d="M 12.976562 26.40625 C 12.976562 26.484375 12.910156 26.550781 12.828125 26.550781 C 12.746094 26.550781 12.679688 26.484375 12.679688 26.40625 C 12.679688 26.324219 12.746094 26.257812 12.828125 26.257812 C 12.910156 26.257812 12.976562 26.324219 12.976562 26.40625 " fill-opacity="1" fill-rule="nonzero"/><path fill="#000000" d="M 12.511719 28 C 12.511719 28.082031 12.445312 28.148438 12.367188 28.148438 C 12.285156 28.148438 12.21875 28.082031 12.21875 28 C 12.21875 27.917969 12.285156 27.855469 12.367188 27.855469 C 12.445312 27.855469 12.511719 27.917969 12.511719 28 " fill-opacity="1" fill-rule="nonzero"/><path fill="#000000" d="M 13.058594 28.652344 C 13.058594 28.769531 12.964844 28.863281 12.847656 28.863281 C 12.734375 28.863281 12.640625 28.769531 12.640625 28.652344 C 12.640625 28.535156 12.734375 28.441406 12.847656 28.441406 C 12.964844 28.441406 13.058594 28.535156 13.058594 28.652344 " fill-opacity="1" fill-rule="nonzero"/><g clip-path="url(#a45fd62cae)"><path fill="#000000" d="M 49.6875 27.125 L 40.597656 27.125 C 40.273438 27.125 39.976562 27.25 39.753906 27.457031 C 39.753906 27.457031 39.75 27.457031 39.75 27.460938 L 39.164062 28.003906 C 38.886719 28.253906 38.703125 28.585938 38.703125 28.980469 L 38.703125 38.144531 C 38.703125 38.835938 39.261719 39.402344 39.949219 39.402344 L 49.042969 39.402344 C 49.324219 39.402344 49.589844 39.308594 49.808594 39.132812 C 49.816406 39.128906 50.542969 38.460938 50.542969 38.460938 C 50.546875 38.457031 50.550781 38.453125 50.554688 38.449219 C 50.789062 38.21875 50.9375 37.898438 50.9375 37.546875 L 50.9375 28.382812 C 50.9375 27.6875 50.378906 27.125 49.6875 27.125 Z M 49.6875 27.125 " fill-opacity="1" fill-rule="nonzero"/></g><g clip-path="url(#639c6505e6)"><path fill="#ffffff" d="M 40.597656 27.394531 L 49.6875 27.394531 C 49.820312 27.394531 49.945312 27.417969 50.066406 27.46875 C 50.183594 27.519531 50.292969 27.589844 50.382812 27.683594 C 50.476562 27.773438 50.546875 27.882812 50.597656 28.003906 C 50.644531 28.125 50.671875 28.25 50.671875 28.382812 L 50.671875 37.546875 C 50.671875 37.675781 50.644531 37.800781 50.597656 37.925781 C 50.546875 38.046875 50.476562 38.152344 50.382812 38.246094 C 50.292969 38.335938 50.183594 38.410156 50.066406 38.460938 C 49.945312 38.507812 49.820312 38.535156 49.6875 38.535156 L 40.597656 38.535156 C 40.464844 38.535156 40.339844 38.507812 40.222656 38.460938 C 40.101562 38.410156 39.996094 38.335938 39.902344 38.246094 C 39.808594 38.152344 39.738281 38.046875 39.6875 37.925781 C 39.640625 37.800781 39.613281 37.675781 39.613281 37.546875 L 39.613281 28.382812 C 39.613281 28.25 39.640625 28.125 39.6875 28.003906 C 39.738281 27.882812 39.808594 27.773438 39.902344 27.683594 C 39.996094 27.589844 40.101562 27.519531 40.222656 27.46875 C 40.339844 27.417969 40.464844 27.394531 40.597656 27.394531 Z M 40.597656 27.394531 " fill-opacity="1" fill-rule="nonzero"/></g><path fill="#000000" d="M 47.578125 35.175781 L 45.867188 30.441406 C 45.789062 30.207031 45.722656 30.015625 45.667969 29.875 C 45.621094 29.738281 45.558594 29.613281 45.484375 29.492188 C 45.417969 29.382812 45.328125 29.289062 45.214844 29.21875 C 45.105469 29.148438 44.960938 29.113281 44.792969 29.113281 C 44.625 29.113281 44.488281 29.148438 44.375 29.21875 C 44.265625 29.289062 44.171875 29.382812 44.105469 29.5 C 44.03125 29.617188 43.964844 29.773438 43.898438 29.957031 L 43.726562 30.449219 L 42.054688 35.214844 C 41.988281 35.402344 41.9375 35.546875 41.910156 35.652344 C 41.882812 35.75 41.867188 35.84375 41.867188 35.933594 C 41.867188 36.082031 41.921875 36.214844 42.035156 36.332031 C 42.148438 36.453125 42.273438 36.511719 42.417969 36.511719 C 42.589844 36.511719 42.707031 36.460938 42.777344 36.355469 C 42.859375 36.238281 42.960938 35.996094 43.078125 35.636719 L 43.410156 34.636719 L 46.183594 34.636719 L 46.515625 35.617188 C 46.558594 35.726562 46.605469 35.859375 46.664062 36.003906 C 46.71875 36.144531 46.769531 36.25 46.816406 36.316406 C 46.859375 36.378906 46.910156 36.425781 46.976562 36.460938 C 47.039062 36.496094 47.117188 36.511719 47.207031 36.511719 C 47.363281 36.511719 47.496094 36.453125 47.605469 36.328125 C 47.71875 36.203125 47.769531 36.070312 47.769531 35.925781 C 47.769531 35.773438 47.707031 35.523438 47.578125 35.175781 Z M 43.699219 33.707031 L 44.785156 30.316406 L 45.886719 33.707031 Z M 43.699219 33.707031 " fill-opacity="1" fill-rule="nonzero"/><g clip-path="url(#eb13a47120)"><path fill="#000000" d="M 35.960938 25.050781 L 26.867188 25.050781 C 26.542969 25.050781 26.25 25.175781 26.027344 25.382812 C 26.023438 25.382812 26.023438 25.382812 26.019531 25.386719 L 25.4375 25.929688 C 25.160156 26.179688 24.972656 26.511719 24.972656 26.90625 L 24.972656 36.070312 C 24.972656 36.761719 25.535156 37.328125 26.222656 37.328125 L 35.316406 37.328125 C 35.597656 37.328125 35.863281 37.234375 36.082031 37.058594 C 36.085938 37.054688 36.816406 36.386719 36.816406 36.386719 C 36.820312 36.382812 36.824219 36.378906 36.828125 36.375 C 37.0625 36.144531 37.210938 35.824219 37.210938 35.472656 L 37.210938 26.308594 C 37.210938 25.613281 36.648438 25.050781 35.960938 25.050781 Z M 35.960938 25.050781 " fill-opacity="1" fill-rule="nonzero"/></g><g clip-path="url(#a4b998b68b)"><path fill="#ffffff" d="M 26.867188 25.316406 L 35.960938 25.316406 C 36.089844 25.316406 36.214844 25.34375 36.335938 25.394531 C 36.457031 25.445312 36.5625 25.515625 36.65625 25.609375 C 36.746094 25.699219 36.820312 25.808594 36.867188 25.929688 C 36.917969 26.050781 36.941406 26.175781 36.941406 26.308594 L 36.941406 35.472656 C 36.941406 35.601562 36.917969 35.726562 36.867188 35.847656 C 36.820312 35.972656 36.746094 36.078125 36.65625 36.171875 C 36.5625 36.261719 36.457031 36.335938 36.335938 36.386719 C 36.214844 36.433594 36.089844 36.460938 35.960938 36.460938 L 26.867188 36.460938 C 26.738281 36.460938 26.613281 36.433594 26.492188 36.386719 C 26.371094 36.335938 26.265625 36.261719 26.175781 36.171875 C 26.082031 36.078125 26.011719 35.972656 25.960938 35.847656 C 25.910156 35.726562 25.886719 35.601562 25.886719 35.472656 L 25.886719 26.308594 C 25.886719 26.175781 25.910156 26.050781 25.960938 25.929688 C 26.011719 25.808594 26.082031 25.699219 26.175781 25.609375 C 26.265625 25.515625 26.371094 25.445312 26.492188 25.394531 C 26.613281 25.34375 26.738281 25.316406 26.867188 25.316406 Z M 26.867188 25.316406 " fill-opacity="1" fill-rule="nonzero"/></g><path fill="#000000" d="M 33.398438 33.457031 C 33.308594 33.363281 33.167969 33.316406 32.984375 33.316406 L 29.8125 33.316406 L 29.8125 31.046875 L 32.644531 31.046875 C 32.828125 31.046875 32.960938 31.003906 33.042969 30.914062 C 33.125 30.828125 33.164062 30.714844 33.164062 30.574219 C 33.164062 30.433594 33.125 30.324219 33.042969 30.238281 C 32.957031 30.152344 32.824219 30.109375 32.644531 30.109375 L 29.8125 30.109375 L 29.8125 28.125 L 32.878906 28.125 C 33.070312 28.125 33.210938 28.082031 33.296875 27.992188 C 33.382812 27.90625 33.421875 27.789062 33.421875 27.644531 C 33.421875 27.5 33.382812 27.386719 33.296875 27.296875 C 33.210938 27.210938 33.070312 27.164062 32.878906 27.164062 L 29.382812 27.164062 C 29.207031 27.164062 29.066406 27.191406 28.957031 27.25 C 28.851562 27.300781 28.777344 27.382812 28.730469 27.5 C 28.679688 27.621094 28.652344 27.785156 28.652344 27.984375 L 28.652344 33.496094 C 28.652344 33.789062 28.710938 34 28.820312 34.125 C 28.929688 34.25 29.117188 34.3125 29.382812 34.3125 L 32.984375 34.3125 C 33.167969 34.3125 33.308594 34.265625 33.398438 34.175781 C 33.488281 34.085938 33.53125 33.96875 33.53125 33.820312 C 33.53125 33.667969 33.488281 33.546875 33.398438 33.457031 Z M 33.398438 33.457031 " fill-opacity="1" fill-rule="nonzero"/><g clip-path="url(#00115d75e5)"><path fill="#000000" d="M 22.234375 27.125 L 13.140625 27.125 C 12.816406 27.125 12.519531 27.25 12.296875 27.457031 C 12.296875 27.457031 12.292969 27.457031 12.292969 27.460938 L 11.707031 28.003906 C 11.433594 28.253906 11.246094 28.585938 11.246094 28.980469 L 11.246094 38.144531 C 11.246094 38.835938 11.804688 39.402344 12.492188 39.402344 L 21.585938 39.402344 C 21.867188 39.402344 22.136719 39.308594 22.351562 39.132812 C 22.359375 39.128906 23.089844 38.460938 23.089844 38.460938 C 23.09375 38.457031 23.097656 38.453125 23.101562 38.449219 C 23.335938 38.21875 23.480469 37.898438 23.480469 37.546875 L 23.480469 28.382812 C 23.480469 27.6875 22.921875 27.125 22.234375 27.125 Z M 22.234375 27.125 " fill-opacity="1" fill-rule="nonzero"/></g><g clip-path="url(#fcc32457de)"><path fill="#ffffff" d="M 13.140625 27.394531 L 22.234375 27.394531 C 22.363281 27.394531 22.488281 27.417969 22.609375 27.46875 C 22.730469 27.519531 22.835938 27.589844 22.925781 27.683594 C 23.019531 27.773438 23.089844 27.882812 23.140625 28.003906 C 23.191406 28.125 23.214844 28.25 23.214844 28.382812 L 23.214844 37.546875 C 23.214844 37.675781 23.191406 37.800781 23.140625 37.925781 C 23.089844 38.046875 23.019531 38.152344 22.925781 38.246094 C 22.835938 38.335938 22.730469 38.410156 22.609375 38.460938 C 22.488281 38.507812 22.363281 38.535156 22.234375 38.535156 L 13.140625 38.535156 C 13.011719 38.535156 12.882812 38.507812 12.765625 38.460938 C 12.644531 38.410156 12.539062 38.335938 12.445312 38.246094 C 12.355469 38.152344 12.28125 38.046875 12.234375 37.925781 C 12.183594 37.800781 12.160156 37.675781 12.160156 37.546875 L 12.160156 28.382812 C 12.160156 28.25 12.183594 28.125 12.234375 28.003906 C 12.28125 27.882812 12.355469 27.773438 12.445312 27.683594 C 12.539062 27.589844 12.644531 27.519531 12.765625 27.46875 C 12.882812 27.417969 13.011719 27.394531 13.140625 27.394531 Z M 13.140625 27.394531 " fill-opacity="1" fill-rule="nonzero"/></g><path fill="#000000" d="M 19.585938 35.425781 C 19.78125 35.089844 19.878906 34.703125 19.878906 34.277344 C 19.878906 33.925781 19.824219 33.625 19.714844 33.382812 C 19.601562 33.144531 19.445312 32.941406 19.246094 32.785156 C 19.046875 32.621094 18.796875 32.484375 18.503906 32.371094 C 18.210938 32.253906 17.875 32.148438 17.511719 32.050781 C 17.214844 31.96875 17 31.90625 16.875 31.859375 C 16.742188 31.816406 16.609375 31.753906 16.480469 31.671875 C 16.34375 31.589844 16.234375 31.488281 16.15625 31.375 C 16.074219 31.25 16.035156 31.105469 16.035156 30.9375 C 16.035156 30.671875 16.152344 30.441406 16.382812 30.253906 C 16.605469 30.074219 16.902344 29.984375 17.257812 29.984375 C 17.652344 29.984375 17.929688 30.066406 18.113281 30.238281 C 18.289062 30.402344 18.441406 30.628906 18.5625 30.917969 C 18.648438 31.097656 18.730469 31.230469 18.804688 31.308594 C 18.867188 31.375 18.964844 31.410156 19.09375 31.410156 C 19.234375 31.410156 19.351562 31.351562 19.449219 31.230469 C 19.546875 31.105469 19.59375 30.96875 19.59375 30.8125 C 19.59375 30.632812 19.550781 30.449219 19.46875 30.257812 C 19.386719 30.066406 19.25 29.878906 19.066406 29.703125 C 18.882812 29.527344 18.644531 29.382812 18.363281 29.277344 C 18.078125 29.167969 17.738281 29.113281 17.347656 29.113281 C 16.859375 29.113281 16.425781 29.195312 16.066406 29.359375 C 15.710938 29.519531 15.4375 29.753906 15.25 30.050781 C 15.066406 30.347656 14.972656 30.691406 14.972656 31.074219 C 14.972656 31.472656 15.058594 31.8125 15.234375 32.082031 C 15.410156 32.351562 15.65625 32.570312 15.957031 32.726562 C 16.269531 32.890625 16.660156 33.03125 17.121094 33.152344 C 17.472656 33.246094 17.757812 33.332031 17.96875 33.410156 C 18.191406 33.496094 18.375 33.621094 18.515625 33.78125 C 18.664062 33.949219 18.738281 34.171875 18.738281 34.4375 C 18.738281 34.773438 18.601562 35.058594 18.335938 35.28125 C 18.078125 35.496094 17.738281 35.605469 17.328125 35.605469 C 17.03125 35.605469 16.789062 35.550781 16.601562 35.445312 C 16.414062 35.335938 16.265625 35.195312 16.164062 35.027344 C 16.0625 34.863281 15.96875 34.660156 15.882812 34.421875 C 15.820312 34.238281 15.742188 34.101562 15.65625 34.011719 C 15.574219 33.925781 15.476562 33.886719 15.359375 33.886719 C 15.207031 33.886719 15.085938 33.941406 14.992188 34.050781 C 14.894531 34.164062 14.847656 34.292969 14.847656 34.449219 C 14.847656 34.742188 14.9375 35.046875 15.113281 35.359375 C 15.289062 35.671875 15.523438 35.925781 15.808594 36.117188 C 16.214844 36.378906 16.738281 36.511719 17.367188 36.511719 C 17.890625 36.511719 18.347656 36.414062 18.726562 36.222656 C 19.105469 36.03125 19.394531 35.761719 19.585938 35.425781 Z M 19.585938 35.425781 " fill-opacity="1" fill-rule="nonzero"/></svg>