<svg xmlns="http://www.w3.org/2000/svg" xmlns:xlink="http://www.w3.org/1999/xlink" width="58" zoomAndPan="magnify" viewBox="0 0 43.5 42.749999" height="57" preserveAspectRatio="xMidYMid meet" version="1.0"><defs><clipPath id="f6d1ba7252"><path d="M 0 0.121094 L 43 0.121094 L 43 42.382812 L 0 42.382812 Z M 0 0.121094 " clip-rule="nonzero"/></clipPath><clipPath id="00c40f8358"><path d="M 1 0.121094 L 43 0.121094 L 43 42 L 1 42 Z M 1 0.121094 " clip-rule="nonzero"/></clipPath></defs><g clip-path="url(#f6d1ba7252)"><path fill="#050505" d="M 4.503906 28.859375 C 4.515625 28.570312 4.460938 28.257812 4.5625 28.003906 C 4.789062 27.445312 4.5 27.300781 4.054688 27.199219 C 1.460938 26.621094 0.652344 23.378906 1.625 21.371094 C 1.902344 20.792969 2.242188 20.269531 2.730469 19.863281 C 2.929688 19.699219 2.898438 19.636719 2.734375 19.503906 C 2.21875 19.089844 1.78125 18.621094 1.441406 18.039062 C 0 15.558594 0.6875 12.523438 2.683594 10.691406 C 3.757812 9.703125 5.042969 9.234375 6.476562 9.113281 C 7.019531 9.066406 7.035156 9.070312 6.886719 8.492188 C 6.539062 7.125 6.65625 5.785156 7.347656 4.582031 C 8.746094 2.152344 10.8125 0.683594 13.667969 0.476562 C 14.429688 0.421875 15.175781 0.3125 15.960938 0.40625 C 17.152344 0.546875 18.15625 0.980469 19.007812 1.800781 C 19.234375 2.019531 19.378906 2.113281 19.695312 1.867188 C 21.921875 0.121094 25.945312 0.214844 28.1875 2.246094 C 28.3125 2.359375 28.441406 2.460938 28.542969 2.609375 C 28.71875 2.863281 28.773438 3.289062 29.089844 3.335938 C 29.363281 3.375 29.660156 3.136719 29.960938 3.082031 C 32.09375 2.695312 33.980469 3.210938 35.542969 4.730469 C 36.683594 5.84375 37.378906 7.195312 37.46875 8.816406 C 37.484375 9.074219 37.554688 9.203125 37.832031 9.289062 C 40.089844 10.003906 41.496094 11.574219 42.035156 13.847656 C 42.351562 15.175781 42.246094 16.53125 41.496094 17.742188 C 41.273438 18.101562 41.277344 18.324219 41.53125 18.707031 C 42.699219 20.46875 43.003906 22.375 42.691406 24.503906 C 42.449219 26.136719 41.828125 27.503906 40.898438 28.785156 C 39.84375 30.242188 38.421875 31.125 36.632812 31.371094 C 36.367188 31.40625 36.167969 31.386719 36.113281 31.765625 C 35.859375 33.546875 34.882812 34.816406 33.238281 35.515625 C 32.722656 35.738281 32.582031 36.085938 32.558594 36.546875 C 32.492188 38 34.097656 40.566406 35.4375 41.148438 C 35.667969 41.25 35.9375 41.265625 36.167969 41.371094 C 36.40625 41.480469 36.515625 41.644531 36.238281 41.875 C 35.632812 42.382812 34.925781 42.238281 34.277344 42.125 C 32.050781 41.738281 30.390625 40.449219 29.074219 38.65625 C 28.566406 37.964844 28.160156 37.210938 27.859375 36.398438 C 27.59375 35.675781 27.574219 35.699219 27.050781 36.226562 C 26.371094 36.910156 25.628906 37.5 24.722656 37.882812 C 23.503906 38.402344 22.226562 38.484375 20.945312 38.363281 C 19.46875 38.222656 18.054688 37.828125 16.792969 37.003906 C 16.339844 36.707031 15.816406 36.527344 15.433594 36.121094 C 15.089844 35.75 14.675781 35.960938 14.308594 36.046875 C 13.039062 36.34375 11.777344 36.304688 10.511719 36.023438 C 7.351562 35.324219 5.089844 32.980469 4.539062 29.800781 C 4.484375 29.496094 4.53125 29.171875 4.53125 28.859375 C 4.523438 28.859375 4.511719 28.859375 4.503906 28.859375 Z M 4.503906 28.859375 " fill-opacity="1" fill-rule="nonzero"/></g><g clip-path="url(#00c40f8358)"><path fill="#ffffff" d="M 34.707031 41.492188 C 33.867188 41.574219 33.148438 41.222656 32.460938 40.863281 C 31.058594 40.140625 29.976562 39.046875 29.175781 37.691406 C 28.726562 36.933594 28.265625 36.167969 28.140625 35.265625 C 28.121094 35.125 28.0625 34.988281 27.996094 34.867188 C 27.90625 34.6875 27.808594 34.496094 27.589844 34.457031 C 27.300781 34.402344 27.28125 34.683594 27.207031 34.835938 C 26.214844 37.011719 24.296875 37.589844 22.175781 37.75 C 20.425781 37.882812 18.785156 37.394531 17.222656 36.644531 C 16.628906 36.359375 16.117188 35.929688 15.65625 35.46875 C 15.371094 35.183594 15.15625 35.121094 14.765625 35.25 C 13.46875 35.683594 12.144531 35.773438 10.796875 35.488281 C 7.015625 34.699219 4.46875 31.148438 5.25 27.519531 C 5.355469 27.019531 5.164062 26.6875 4.671875 26.714844 C 3.234375 26.785156 1.925781 24.886719 1.878906 23.609375 C 1.839844 22.5625 2.015625 21.613281 2.683594 20.800781 C 2.96875 20.449219 3.28125 20.097656 3.785156 20.046875 C 3.960938 20.027344 4.132812 19.984375 4.132812 19.753906 C 4.136719 19.535156 3.964844 19.472656 3.8125 19.402344 C 3.210938 19.105469 2.753906 18.648438 2.304688 18.164062 C 1.5625 17.363281 1.257812 16.390625 1.265625 15.347656 C 1.300781 12.589844 3.035156 10.425781 5.726562 9.832031 C 6.21875 9.726562 6.75 9.792969 7.265625 9.796875 C 7.90625 9.804688 8.019531 9.703125 7.746094 9.128906 C 6.898438 7.355469 7.285156 5.660156 8.300781 4.191406 C 9.410156 2.589844 10.96875 1.476562 12.984375 1.160156 C 14.261719 0.960938 15.53125 0.886719 16.804688 1.210938 C 17.664062 1.433594 18.355469 1.921875 18.902344 2.605469 C 19.148438 2.910156 19.378906 3.039062 19.667969 2.71875 C 20.671875 1.617188 22.007812 1.34375 23.390625 1.28125 C 24.566406 1.226562 25.710938 1.441406 26.78125 2.003906 C 27.5 2.378906 28.003906 2.914062 28.367188 3.613281 C 28.660156 4.171875 28.710938 4.210938 29.28125 3.980469 C 30.550781 3.457031 31.824219 3.394531 33.105469 3.917969 C 35.238281 4.78125 36.894531 6.714844 36.851562 9.105469 C 36.84375 9.527344 36.976562 9.703125 37.390625 9.8125 C 39.796875 10.457031 41.113281 12.125 41.542969 14.511719 C 41.746094 15.636719 41.464844 16.722656 40.789062 17.675781 C 40.417969 18.203125 40.398438 18.28125 40.8125 18.785156 C 42.355469 20.675781 42.554688 22.808594 41.957031 25.082031 C 41.730469 25.941406 41.46875 26.777344 40.996094 27.550781 C 40.28125 28.722656 39.351562 29.640625 38.148438 30.296875 C 37.5 30.652344 36.804688 30.757812 36.089844 30.777344 C 35.652344 30.785156 35.503906 30.910156 35.480469 31.363281 C 35.394531 33.355469 34.203125 34.546875 32.46875 35.222656 C 32.042969 35.390625 31.960938 35.574219 31.953125 35.929688 C 31.902344 38.085938 32.8125 39.78125 34.417969 41.148438 C 34.523438 41.238281 34.671875 41.289062 34.707031 41.492188 Z M 34.707031 41.492188 " fill-opacity="1" fill-rule="nonzero"/></g><path fill="#050505" d="M 21.53125 7.542969 C 23.867188 7.664062 25.808594 8.441406 27.492188 9.886719 C 28.640625 10.875 29.535156 12.0625 29.976562 13.5 C 30.34375 14.707031 30.289062 15.980469 30.035156 17.238281 C 29.722656 18.816406 28.960938 20.160156 28.015625 21.433594 C 27.21875 22.503906 26.453125 23.601562 26.109375 24.925781 C 26.050781 25.152344 26.019531 25.347656 26.089844 25.585938 C 26.242188 26.113281 26.269531 26.660156 26.054688 27.1875 C 25.976562 27.386719 25.984375 27.582031 26.023438 27.777344 C 26.140625 28.402344 26.082031 28.976562 25.605469 29.445312 C 25.445312 29.605469 25.476562 29.820312 25.433594 30.007812 C 25.050781 31.828125 23.941406 32.992188 21.703125 33.171875 C 20.222656 33.289062 18.554688 32.386719 17.816406 30.832031 C 17.410156 29.976562 17.308594 29.023438 16.953125 28.148438 C 16.871094 27.945312 16.960938 27.757812 16.988281 27.5625 C 17.054688 27.117188 17.199219 26.675781 17.023438 26.21875 C 16.976562 26.097656 16.976562 25.914062 17.03125 25.796875 C 17.574219 24.695312 16.875 23.863281 16.386719 23.027344 C 15.78125 22 15.035156 21.054688 14.410156 20.039062 C 13.199219 18.082031 12.921875 15.9375 13.304688 13.691406 C 13.363281 13.335938 13.519531 12.976562 13.695312 12.65625 C 15.410156 9.492188 18.097656 7.84375 21.53125 7.542969 Z M 21.53125 7.542969 " fill-opacity="1" fill-rule="nonzero"/><path fill="#ffe04e" d="M 21.527344 8.335938 C 24.25 8.359375 26.441406 9.347656 28.058594 11.375 C 29.125 12.710938 29.640625 14.265625 29.476562 16.074219 C 29.339844 17.636719 28.957031 19.066406 28.050781 20.3125 C 27.394531 21.207031 26.742188 22.09375 26.214844 23.070312 C 26.050781 23.375 25.828125 23.660156 25.765625 23.988281 C 25.570312 24.984375 24.800781 25.273438 23.996094 25.441406 C 22.085938 25.835938 20.203125 25.667969 18.347656 25.058594 C 18.015625 24.949219 17.902344 24.757812 17.796875 24.5 C 17.191406 23.046875 16.386719 21.734375 15.410156 20.488281 C 14.539062 19.386719 14.046875 18.074219 13.90625 16.632812 C 13.789062 15.421875 13.824219 14.261719 14.28125 13.109375 C 15.097656 11.066406 16.621094 9.78125 18.574219 8.929688 C 19.554688 8.5 20.597656 8.378906 21.527344 8.335938 Z M 21.527344 8.335938 " fill-opacity="1" fill-rule="nonzero"/><path fill="#d7d7d7" d="M 21.773438 27.882812 C 20.597656 27.917969 19.738281 27.714844 18.882812 27.507812 C 18.148438 27.332031 17.640625 26.648438 17.625 25.964844 C 17.617188 25.519531 17.671875 25.46875 18.09375 25.621094 C 19.011719 25.957031 19.957031 26.164062 20.929688 26.222656 C 22.324219 26.304688 23.714844 26.265625 25.035156 25.742188 C 25.4375 25.582031 25.535156 25.699219 25.601562 26.058594 C 25.730469 26.78125 25.566406 27.003906 24.828125 27.277344 C 23.753906 27.6875 22.617188 27.765625 21.773438 27.882812 Z M 21.773438 27.882812 " fill-opacity="1" fill-rule="nonzero"/><path fill="#d7d7d7" d="M 21.175781 29.992188 C 20.570312 30.035156 19.664062 29.800781 18.757812 29.539062 C 18.132812 29.355469 17.816406 28.925781 17.597656 28.382812 C 17.5 28.144531 17.425781 27.8125 17.59375 27.640625 C 17.761719 27.472656 17.992188 27.734375 18.171875 27.835938 C 19.398438 28.527344 20.734375 28.460938 22.070312 28.457031 C 23.167969 28.453125 24.210938 28.203125 25.230469 27.828125 C 25.433594 27.75 25.492188 27.835938 25.5 28 C 25.523438 28.410156 25.464844 28.773438 25.089844 29.054688 C 24.019531 29.855469 22.800781 30.019531 21.175781 29.992188 Z M 21.175781 29.992188 " fill-opacity="1" fill-rule="nonzero"/><path fill="#d7d7d7" d="M 18.0625 29.972656 C 18.78125 30.1875 19.375 30.414062 20.015625 30.527344 C 21.519531 30.789062 22.957031 30.609375 24.386719 30.152344 C 24.488281 30.121094 24.632812 30.066406 24.695312 30.109375 C 24.847656 30.210938 24.75 30.367188 24.6875 30.488281 C 23.804688 32.332031 21.730469 33.199219 19.644531 31.960938 C 18.925781 31.535156 18.433594 30.871094 18.0625 29.972656 Z M 18.0625 29.972656 " fill-opacity="1" fill-rule="nonzero"/></svg>