<svg xmlns="http://www.w3.org/2000/svg" xmlns:xlink="http://www.w3.org/1999/xlink" width="64" zoomAndPan="magnify" viewBox="0 0 48 43.499998" height="58" preserveAspectRatio="xMidYMid meet" version="1.0"><defs><clipPath id="bae6cbfe1b"><path d="M 0.273438 0 L 47.726562 0 L 47.726562 42.503906 L 0.273438 42.503906 Z M 0.273438 0 " clip-rule="nonzero"/></clipPath><clipPath id="68a184aa71"><path d="M 1.015625 0 L 46.878906 0 C 47.074219 0 47.261719 0.078125 47.402344 0.21875 C 47.542969 0.355469 47.621094 0.542969 47.621094 0.742188 L 47.621094 41.761719 C 47.621094 41.960938 47.542969 42.148438 47.402344 42.285156 C 47.261719 42.425781 47.074219 42.503906 46.878906 42.503906 L 1.015625 42.503906 C 0.816406 42.503906 0.628906 42.425781 0.488281 42.285156 C 0.351562 42.148438 0.273438 41.960938 0.273438 41.761719 L 0.273438 0.742188 C 0.273438 0.542969 0.351562 0.355469 0.488281 0.21875 C 0.628906 0.078125 0.816406 0 1.015625 0 Z M 1.015625 0 " clip-rule="nonzero"/></clipPath><clipPath id="a615749d1c"><path d="M 0.273438 0 L 47.660156 0 L 47.660156 42.265625 L 0.273438 42.265625 Z M 0.273438 0 " clip-rule="nonzero"/></clipPath><clipPath id="5e0f221cda"><path d="M 1.015625 0 L 46.871094 0 C 47.066406 0 47.253906 0.078125 47.394531 0.21875 C 47.53125 0.355469 47.609375 0.542969 47.609375 0.742188 L 47.609375 41.753906 C 47.609375 41.953125 47.53125 42.140625 47.394531 42.277344 C 47.253906 42.417969 47.066406 42.496094 46.871094 42.496094 L 1.015625 42.496094 C 0.816406 42.496094 0.628906 42.417969 0.488281 42.277344 C 0.351562 42.140625 0.273438 41.953125 0.273438 41.753906 L 0.273438 0.742188 C 0.273438 0.542969 0.351562 0.355469 0.488281 0.21875 C 0.628906 0.078125 0.816406 0 1.015625 0 Z M 1.015625 0 " clip-rule="nonzero"/></clipPath><clipPath id="cdab05ea70"><path d="M 7.039062 6.882812 L 13.160156 6.882812 L 13.160156 12.980469 L 7.039062 12.980469 Z M 7.039062 6.882812 " clip-rule="nonzero"/></clipPath><clipPath id="1fcf381bc9"><path d="M 14.152344 6.882812 L 20.269531 6.882812 L 20.269531 12.980469 L 14.152344 12.980469 Z M 14.152344 6.882812 " clip-rule="nonzero"/></clipPath><clipPath id="6afc41159f"><path d="M 21.011719 6.882812 L 27.128906 6.882812 L 27.128906 12.980469 L 21.011719 12.980469 Z M 21.011719 6.882812 " clip-rule="nonzero"/></clipPath><clipPath id="0643ae6f03"><path d="M 27.871094 6.882812 L 33.992188 6.882812 L 33.992188 12.980469 L 27.871094 12.980469 Z M 27.871094 6.882812 " clip-rule="nonzero"/></clipPath><clipPath id="af5f4a6585"><path d="M 34.734375 6.882812 L 40.851562 6.882812 L 40.851562 12.980469 L 34.734375 12.980469 Z M 34.734375 6.882812 " clip-rule="nonzero"/></clipPath><clipPath id="2163020cc5"><path d="M 7.164062 14.148438 L 13.285156 14.148438 L 13.285156 20.246094 L 7.164062 20.246094 Z M 7.164062 14.148438 " clip-rule="nonzero"/></clipPath><clipPath id="8045c004e0"><path d="M 14.277344 14.148438 L 20.394531 14.148438 L 20.394531 20.246094 L 14.277344 20.246094 Z M 14.277344 14.148438 " clip-rule="nonzero"/></clipPath><clipPath id="55b1164671"><path d="M 21.136719 14.148438 L 27.253906 14.148438 L 27.253906 20.246094 L 21.136719 20.246094 Z M 21.136719 14.148438 " clip-rule="nonzero"/></clipPath><clipPath id="ee98f0b3b5"><path d="M 27.996094 14.148438 L 34.117188 14.148438 L 34.117188 20.246094 L 27.996094 20.246094 Z M 27.996094 14.148438 " clip-rule="nonzero"/></clipPath><clipPath id="42071da6fc"><path d="M 34.859375 14.148438 L 40.976562 14.148438 L 40.976562 20.246094 L 34.859375 20.246094 Z M 34.859375 14.148438 " clip-rule="nonzero"/></clipPath><clipPath id="713159bd0d"><path d="M 7.039062 21.253906 L 13.160156 21.253906 L 13.160156 27.351562 L 7.039062 27.351562 Z M 7.039062 21.253906 " clip-rule="nonzero"/></clipPath><clipPath id="bd8fbc43e5"><path d="M 14.152344 21.253906 L 20.269531 21.253906 L 20.269531 27.351562 L 14.152344 27.351562 Z M 14.152344 21.253906 " clip-rule="nonzero"/></clipPath><clipPath id="3f3f99de5d"><path d="M 21.011719 21.253906 L 27.128906 21.253906 L 27.128906 27.351562 L 21.011719 27.351562 Z M 21.011719 21.253906 " clip-rule="nonzero"/></clipPath><clipPath id="d6cffd623a"><path d="M 27.871094 21.253906 L 33.992188 21.253906 L 33.992188 27.351562 L 27.871094 27.351562 Z M 27.871094 21.253906 " clip-rule="nonzero"/></clipPath><clipPath id="fc575750c2"><path d="M 34.734375 21.253906 L 40.851562 21.253906 L 40.851562 27.351562 L 34.734375 27.351562 Z M 34.734375 21.253906 " clip-rule="nonzero"/></clipPath><clipPath id="40b46e8105"><path d="M 7.039062 28.089844 L 13.160156 28.089844 L 13.160156 34.191406 L 7.039062 34.191406 Z M 7.039062 28.089844 " clip-rule="nonzero"/></clipPath><clipPath id="31ed96216c"><path d="M 14.152344 28.089844 L 20.269531 28.089844 L 20.269531 34.191406 L 14.152344 34.191406 Z M 14.152344 28.089844 " clip-rule="nonzero"/></clipPath><clipPath id="bf3e8d5c13"><path d="M 21.011719 28.089844 L 27.128906 28.089844 L 27.128906 34.191406 L 21.011719 34.191406 Z M 21.011719 28.089844 " clip-rule="nonzero"/></clipPath><clipPath id="ba98e808a1"><path d="M 27.871094 28.089844 L 33.992188 28.089844 L 33.992188 34.191406 L 27.871094 34.191406 Z M 27.871094 28.089844 " clip-rule="nonzero"/></clipPath><clipPath id="5d1d429c37"><path d="M 34.734375 28.089844 L 40.851562 28.089844 L 40.851562 34.191406 L 34.734375 34.191406 Z M 34.734375 28.089844 " clip-rule="nonzero"/></clipPath></defs><g clip-path="url(#bae6cbfe1b)"><g clip-path="url(#68a184aa71)"><path fill="#ffffff" d="M 0.273438 0 L 47.589844 0 L 47.589844 42.503906 L 0.273438 42.503906 Z M 0.273438 0 " fill-opacity="1" fill-rule="nonzero"/></g></g><g clip-path="url(#a615749d1c)"><g clip-path="url(#5e0f221cda)"><path stroke-linecap="butt" transform="matrix(0.741477, 0, 0, 0.741477, 0.273014, 0.000000000000005269)" fill="none" stroke-linejoin="miter" d="M 1.001529 -0.000000000000007105 L 62.844924 -0.000000000000007105 C 63.108334 -0.000000000000007105 63.361208 0.105364 63.550863 0.295019 C 63.73525 0.479406 63.840614 0.73228 63.840614 1.000958 L 63.840614 56.311786 C 63.840614 56.580464 63.73525 56.833338 63.550863 57.017725 C 63.361208 57.20738 63.108334 57.312744 62.844924 57.312744 L 1.001529 57.312744 C 0.73285 57.312744 0.479977 57.20738 0.290322 57.017725 C 0.105935 56.833338 0.000570682 56.580464 0.000570682 56.311786 L 0.000570682 1.000958 C 0.000570682 0.73228 0.105935 0.479406 0.290322 0.295019 C 0.479977 0.105364 0.73285 -0.000000000000007105 1.001529 -0.000000000000007105 Z M 1.001529 -0.000000000000007105 " stroke="#363a38" stroke-width="2" stroke-opacity="1" stroke-miterlimit="4"/></g></g><g clip-path="url(#cdab05ea70)"><path fill="#94ae36" d="M 7.039062 6.882812 L 13.164062 6.882812 L 13.164062 12.980469 L 7.039062 12.980469 Z M 7.039062 6.882812 " fill-opacity="1" fill-rule="nonzero"/></g><g clip-path="url(#1fcf381bc9)"><path fill="#f4d75e" d="M 14.152344 6.882812 L 20.273438 6.882812 L 20.273438 12.980469 L 14.152344 12.980469 Z M 14.152344 6.882812 " fill-opacity="1" fill-rule="nonzero"/></g><g clip-path="url(#6afc41159f)"><path fill="#000000" d="M 21.011719 6.882812 L 27.132812 6.882812 L 27.132812 12.980469 L 21.011719 12.980469 Z M 21.011719 6.882812 " fill-opacity="1" fill-rule="nonzero"/></g><g clip-path="url(#0643ae6f03)"><path fill="#000000" d="M 27.871094 6.882812 L 33.996094 6.882812 L 33.996094 12.980469 L 27.871094 12.980469 Z M 27.871094 6.882812 " fill-opacity="1" fill-rule="nonzero"/></g><g clip-path="url(#af5f4a6585)"><path fill="#000000" d="M 34.734375 6.882812 L 40.855469 6.882812 L 40.855469 12.980469 L 34.734375 12.980469 Z M 34.734375 6.882812 " fill-opacity="1" fill-rule="nonzero"/></g><g clip-path="url(#2163020cc5)"><path fill="#94ae36" d="M 7.164062 14.148438 L 13.289062 14.148438 L 13.289062 20.246094 L 7.164062 20.246094 Z M 7.164062 14.148438 " fill-opacity="1" fill-rule="nonzero"/></g><g clip-path="url(#8045c004e0)"><path fill="#f4d75e" d="M 14.277344 14.148438 L 20.398438 14.148438 L 20.398438 20.246094 L 14.277344 20.246094 Z M 14.277344 14.148438 " fill-opacity="1" fill-rule="nonzero"/></g><g clip-path="url(#55b1164671)"><path fill="#000000" d="M 21.136719 14.148438 L 27.257812 14.148438 L 27.257812 20.246094 L 21.136719 20.246094 Z M 21.136719 14.148438 " fill-opacity="1" fill-rule="nonzero"/></g><g clip-path="url(#ee98f0b3b5)"><path fill="#000000" d="M 27.996094 14.148438 L 34.117188 14.148438 L 34.117188 20.246094 L 27.996094 20.246094 Z M 27.996094 14.148438 " fill-opacity="1" fill-rule="nonzero"/></g><g clip-path="url(#42071da6fc)"><path fill="#efdf6e" d="M 34.859375 14.148438 L 40.980469 14.148438 L 40.980469 20.246094 L 34.859375 20.246094 Z M 34.859375 14.148438 " fill-opacity="1" fill-rule="nonzero"/></g><g clip-path="url(#713159bd0d)"><path fill="#94ae36" d="M 7.039062 21.253906 L 13.164062 21.253906 L 13.164062 27.351562 L 7.039062 27.351562 Z M 7.039062 21.253906 " fill-opacity="1" fill-rule="nonzero"/></g><g clip-path="url(#bd8fbc43e5)"><path fill="#000000" d="M 14.152344 21.253906 L 20.273438 21.253906 L 20.273438 27.351562 L 14.152344 27.351562 Z M 14.152344 21.253906 " fill-opacity="1" fill-rule="nonzero"/></g><g clip-path="url(#3f3f99de5d)"><path fill="#000000" d="M 21.011719 21.253906 L 27.132812 21.253906 L 27.132812 27.351562 L 21.011719 27.351562 Z M 21.011719 21.253906 " fill-opacity="1" fill-rule="nonzero"/></g><g clip-path="url(#d6cffd623a)"><path fill="#f4d75e" d="M 27.871094 21.253906 L 33.996094 21.253906 L 33.996094 27.351562 L 27.871094 27.351562 Z M 27.871094 21.253906 " fill-opacity="1" fill-rule="nonzero"/></g><g clip-path="url(#fc575750c2)"><path fill="#f4d75e" d="M 34.734375 21.253906 L 40.855469 21.253906 L 40.855469 27.351562 L 34.734375 27.351562 Z M 34.734375 21.253906 " fill-opacity="1" fill-rule="nonzero"/></g><g clip-path="url(#40b46e8105)"><path fill="#94ae36" d="M 7.039062 28.089844 L 13.164062 28.089844 L 13.164062 34.191406 L 7.039062 34.191406 Z M 7.039062 28.089844 " fill-opacity="1" fill-rule="nonzero"/></g><g clip-path="url(#31ed96216c)"><path fill="#94ae36" d="M 14.152344 28.089844 L 20.273438 28.089844 L 20.273438 34.191406 L 14.152344 34.191406 Z M 14.152344 28.089844 " fill-opacity="1" fill-rule="nonzero"/></g><g clip-path="url(#bf3e8d5c13)"><path fill="#94ae36" d="M 21.011719 28.089844 L 27.132812 28.089844 L 27.132812 34.191406 L 21.011719 34.191406 Z M 21.011719 28.089844 " fill-opacity="1" fill-rule="nonzero"/></g><g clip-path="url(#ba98e808a1)"><path fill="#94ae36" d="M 27.871094 28.089844 L 33.996094 28.089844 L 33.996094 34.191406 L 27.871094 34.191406 Z M 27.871094 28.089844 " fill-opacity="1" fill-rule="nonzero"/></g><g clip-path="url(#5d1d429c37)"><path fill="#94ae36" d="M 34.734375 28.089844 L 40.855469 28.089844 L 40.855469 34.191406 L 34.734375 34.191406 Z M 34.734375 28.089844 " fill-opacity="1" fill-rule="nonzero"/></g></svg>