<svg xmlns="http://www.w3.org/2000/svg" xmlns:xlink="http://www.w3.org/1999/xlink" width="569" zoomAndPan="magnify" viewBox="0 0 426.75 546.000001" height="728" preserveAspectRatio="xMidYMid meet" version="1.0"><defs><clipPath id="0e397a3d46"><path d="M 36 0 L 395.535156 0 L 395.535156 211 L 36 211 Z M 36 0 " clip-rule="nonzero"/></clipPath><clipPath id="800ed77e94"><path d="M 16 309 L 411 309 L 411 493 L 16 493 Z M 16 309 " clip-rule="nonzero"/></clipPath><clipPath id="a5185146b0"><path d="M 0.265625 314.710938 L 393.046875 258.5625 L 425.886719 488.300781 L 33.109375 544.449219 Z M 0.265625 314.710938 " clip-rule="nonzero"/></clipPath><clipPath id="a774b14913"><path d="M 392.675781 258.613281 L -0.105469 314.765625 L 32.738281 544.503906 L 425.519531 488.355469 Z M 392.675781 258.613281 " clip-rule="nonzero"/></clipPath></defs><g clip-path="url(#0e397a3d46)"><path fill="#ffffff" d="M 374.675781 79.492188 C 372.394531 77.914062 370.035156 76.457031 367.609375 75.101562 C 368.15625 74.371094 368.691406 73.640625 369.21875 72.90625 C 375.714844 63.8125 381.980469 52.878906 381.980469 41.359375 C 381.980469 36.625 380.714844 31.546875 377.839844 27.710938 C 375.128906 24.089844 371.847656 21.421875 367.992188 19.199219 C 368.21875 19.101562 368.449219 19.007812 368.683594 18.925781 C 371.195312 18.152344 373.570312 17.703125 375.980469 17.445312 C 376.378906 17.472656 376.558594 17.152344 376.523438 16.84375 C 376.539062 16.546875 376.355469 16.261719 375.980469 16.300781 C 374.851562 16.222656 373.679688 16.050781 372.375 15.808594 C 371.128906 15.578125 369.894531 15.226562 368.683594 14.855469 C 366.921875 14.132812 365.480469 13.285156 364.085938 11.777344 C 363.0625 10.667969 362.265625 9.328125 361.738281 7.871094 C 360.96875 5.371094 360.515625 2.996094 360.257812 0.59375 C 360.285156 0.195312 359.964844 0.015625 359.65625 0.0507812 C 359.359375 0.0351562 359.070312 0.214844 359.113281 0.59375 C 359.03125 1.730469 358.855469 2.914062 358.621094 4.230469 C 358.46875 5.089844 358.242188 5.945312 357.992188 6.792969 C 357.972656 6.832031 357.953125 6.875 357.9375 6.925781 C 357.101562 9.949219 355.214844 12.300781 352.691406 13.855469 C 351.132812 13.464844 349.757812 13.277344 348.277344 13.09375 C 347.691406 13.019531 346.664062 12.863281 345.863281 12.769531 C 345.054688 12.675781 344.246094 12.578125 343.433594 12.484375 C 340.023438 12.082031 336.523438 11.933594 333.09375 11.933594 C 329.78125 11.933594 326.390625 11.804688 323.09375 12.117188 C 319.59375 12.449219 316.066406 12.472656 312.574219 12.949219 C 309.296875 13.394531 305.601562 13.8125 302.351562 14.238281 C 300.496094 14.480469 299.15625 14.699219 297.328125 15.019531 C 295.667969 15.308594 293.988281 15.542969 292.339844 15.886719 C 288.875 16.605469 285.40625 17.316406 281.9375 18.011719 C 278.65625 18.667969 275.410156 19.546875 272.15625 20.324219 C 265.542969 21.902344 259.007812 23.851562 252.507812 25.84375 C 249.148438 26.871094 245.804688 27.949219 242.46875 29.0625 C 239.105469 30.183594 235.785156 31.414062 232.421875 32.535156 C 229.3125 33.570312 226.273438 34.84375 223.199219 35.980469 C 220.085938 37.132812 217.011719 38.378906 213.941406 39.632812 C 211.117188 40.785156 208.683594 41.792969 206.089844 42.90625 C 204.914062 43.410156 203.265625 44.148438 202.046875 44.644531 C 200.746094 45.171875 199.472656 45.777344 198.191406 46.347656 C 190.691406 46.636719 183.195312 47.082031 175.695312 47.597656 C 161.828125 48.550781 148.164062 50.804688 134.429688 52.839844 C 127.199219 53.914062 119.949219 55.605469 112.859375 57.378906 C 106.28125 59.023438 99.777344 60.867188 93.320312 62.925781 C 80.363281 67.050781 67.941406 72.621094 56.507812 79.972656 C 46.363281 86.492188 36.433594 96.769531 36.433594 109.527344 C 36.433594 122.265625 47.808594 132.457031 57.679688 138.804688 C 59.722656 140.117188 61.800781 141.355469 63.910156 142.527344 C 62.242188 145.035156 60.625 147.550781 59.128906 150.171875 C 57.441406 153.117188 56.121094 156.050781 54.933594 159.132812 C 52.59375 165.203125 51.566406 171.746094 52.847656 178.175781 C 53.695312 182.410156 55.964844 186.183594 58.957031 189.316406 C 58.027344 190.011719 57.035156 190.523438 55.914062 190.984375 C 54.71875 191.351562 53.511719 191.664062 52.289062 191.933594 C 51.671875 192.070312 51.039062 192.148438 50.414062 192.242188 C 49.628906 192.359375 49.402344 192.375 48.621094 192.429688 C 48.570312 192.425781 48.527344 192.425781 48.488281 192.429688 C 48.222656 192.429688 47.960938 192.429688 47.699219 192.429688 C 47.386719 192.429688 47.125 192.691406 47.125 193.003906 C 47.125 193.316406 47.386719 193.574219 47.699219 193.574219 C 48.003906 193.574219 48.3125 193.574219 48.621094 193.574219 C 51.03125 193.832031 53.402344 194.285156 55.914062 195.054688 C 59.222656 196.222656 61.734375 198.925781 62.921875 202.210938 C 63.261719 203.351562 63.59375 204.476562 63.808594 205.648438 C 64.066406 207.035156 64.191406 207.882812 64.34375 209.28125 C 64.34375 209.601562 64.34375 209.917969 64.34375 210.238281 C 64.34375 210.976562 65.488281 210.976562 65.488281 210.238281 C 65.488281 209.964844 65.488281 209.6875 65.488281 209.414062 C 65.492188 209.375 65.492188 209.328125 65.488281 209.28125 C 65.625 207.332031 66.082031 205.058594 66.671875 202.917969 C 67.214844 201.078125 68 199.515625 69.300781 198.117188 C 69.730469 197.652344 70.199219 197.222656 70.695312 196.835938 C 81.566406 201.292969 93.574219 201.972656 105.1875 201.972656 C 117.507812 201.972656 129.730469 200.027344 141.84375 198.007812 C 147.519531 197.058594 153.140625 195.683594 158.746094 194.394531 C 164.652344 193.039062 170.578125 191.441406 176.371094 189.660156 C 188.699219 185.867188 200.941406 181.898438 212.953125 177.179688 C 217.328125 175.460938 221.679688 173.691406 226.007812 171.871094 C 236.453125 171.632812 246.867188 171.007812 257.296875 170.292969 C 271.082031 169.34375 284.679688 167.089844 298.316406 164.992188 C 312.179688 162.855469 325.925781 159.070312 339.273438 154.820312 C 352.058594 150.746094 364.855469 145.265625 375.929688 137.632812 C 385.4375 131.074219 395.445312 121.382812 395.445312 108.980469 C 395.441406 95.90625 384.574219 86.34375 374.675781 79.492188 Z M 202.191406 45.816406 C 202.199219 45.8125 202.519531 45.675781 202.28125 45.773438 C 202.378906 45.734375 202.480469 45.691406 202.582031 45.652344 C 202.824219 45.554688 203.074219 45.460938 203.3125 45.351562 C 204.996094 44.574219 206.359375 44.066406 207.953125 43.359375 C 209.351562 42.738281 211.066406 42.027344 212.496094 41.445312 C 214.035156 40.816406 215.570312 40.195312 217.109375 39.566406 C 223.296875 37.046875 229.628906 34.925781 235.863281 32.535156 C 242.453125 30.007812 249.285156 28.042969 256.027344 25.96875 C 262.515625 23.972656 269.09375 22.207031 275.695312 20.625 C 282.386719 19.019531 289.132812 17.535156 295.921875 16.40625 C 302.785156 15.261719 309.097656 14.382812 316.144531 13.746094 C 322.941406 13.128906 329.882812 12.800781 336.707031 13.179688 C 339.511719 13.335938 342.296875 13.492188 345.089844 13.820312 C 345.699219 13.894531 346.308594 13.960938 346.914062 14.035156 C 347.546875 14.117188 348.28125 14.230469 348.902344 14.34375 C 349.625 14.480469 350.34375 14.570312 351.082031 14.695312 C 350.964844 14.75 350.84375 14.800781 350.71875 14.851562 C 348.316406 15.5625 345.65625 16.140625 343.425781 16.300781 C 343.375 16.296875 343.332031 16.296875 343.289062 16.300781 C 343.015625 16.300781 342.742188 16.300781 342.46875 16.300781 C 341.730469 16.300781 341.730469 17.445312 342.46875 17.445312 C 342.785156 17.445312 343.105469 17.445312 343.425781 17.445312 C 344.8125 17.59375 345.65625 17.714844 347.027344 17.96875 C 348.285156 18.203125 349.496094 18.5625 350.71875 18.925781 C 352.402344 19.519531 354.011719 20.597656 355.300781 21.984375 C 356.605469 23.390625 357.378906 24.941406 357.925781 26.785156 C 358.515625 28.929688 358.972656 31.199219 359.109375 33.148438 C 359.105469 33.199219 359.105469 33.242188 359.109375 33.28125 C 359.109375 33.558594 359.109375 33.832031 359.109375 34.105469 C 359.109375 34.84375 360.257812 34.84375 360.257812 34.105469 C 360.257812 33.785156 360.257812 33.46875 360.257812 33.148438 C 360.402344 31.761719 360.527344 30.917969 360.78125 29.546875 C 361 28.367188 361.335938 27.226562 361.675781 26.078125 C 362.625 23.453125 364.414062 21.210938 366.765625 19.820312 C 369.167969 21.144531 371.378906 22.605469 373.457031 24.425781 C 375.777344 26.457031 377.320312 28.972656 378.796875 31.628906 C 380.183594 34.117188 380.804688 37.597656 380.804688 40.417969 C 380.804688 43.402344 380.320312 46.144531 379.867188 49.070312 C 379.496094 51.472656 378.449219 54.144531 377.433594 56.339844 C 376.214844 58.96875 375.015625 61.546875 373.574219 64.066406 C 371.484375 67.722656 369.101562 71.171875 366.574219 74.523438 C 357.472656 69.558594 347.542969 65.945312 337.804688 62.695312 C 324.335938 58.207031 310.449219 55.339844 296.539062 52.664062 C 283.121094 50.085938 269.292969 48.496094 255.664062 47.558594 C 242.335938 46.640625 229.027344 45.988281 215.664062 45.988281 C 210.847656 45.988281 206.039062 46.078125 201.234375 46.238281 C 201.554688 46.097656 201.871094 45.957031 202.191406 45.816406 Z M 202.46875 179.894531 C 190.613281 184.285156 178.5 188.003906 166.296875 191.285156 C 154.828125 194.367188 143.246094 196.535156 131.5625 198.5625 C 125.34375 199.640625 118.910156 200.25 112.609375 200.550781 C 106.839844 200.824219 101.074219 200.953125 95.304688 200.632812 C 87.359375 200.191406 79.253906 198.964844 71.804688 196.058594 C 72.472656 195.644531 73.167969 195.308594 73.878906 195.058594 C 75.09375 194.699219 76.289062 194.339844 77.535156 194.109375 C 78.917969 193.851562 79.78125 193.730469 81.171875 193.578125 C 81.574219 193.605469 81.75 193.28125 81.71875 192.972656 C 81.730469 192.675781 81.550781 192.390625 81.171875 192.433594 C 78.941406 192.265625 76.28125 191.695312 73.878906 190.984375 C 70.378906 189.546875 67.707031 186.824219 66.660156 183.058594 C 66.652344 183.035156 66.644531 183.011719 66.632812 182.988281 C 66.394531 182.128906 66.175781 181.265625 65.984375 180.394531 C 65.847656 179.777344 65.765625 179.144531 65.675781 178.515625 C 65.558594 177.734375 65.542969 177.507812 65.484375 176.726562 C 65.523438 176.347656 65.242188 176.167969 64.945312 176.179688 C 64.632812 176.148438 64.3125 176.328125 64.339844 176.726562 C 64.191406 178.125 64.109375 178.984375 63.816406 180.363281 C 63.550781 181.585938 63.238281 182.769531 62.871094 183.964844 C 62.34375 185.433594 61.558594 186.777344 60.511719 187.90625 C 60.289062 188.148438 60.0625 188.371094 59.835938 188.582031 C 55.71875 184.28125 53.390625 178.871094 53.390625 172.84375 C 53.390625 169.472656 53.863281 166.210938 54.863281 162.964844 C 55.320312 161.472656 55.816406 160.011719 56.378906 158.550781 C 56.964844 157.03125 57.667969 155.703125 58.359375 154.097656 C 59.21875 152.09375 60.382812 150.078125 61.566406 148.246094 C 62.675781 146.515625 63.78125 144.789062 64.917969 143.078125 C 74.414062 148.238281 84.519531 152.109375 94.804688 155.519531 C 108.324219 160.003906 122.269531 162.773438 136.226562 165.449219 C 149.722656 168.042969 163.605469 169.535156 177.308594 170.515625 C 190.640625 171.472656 203.964844 171.972656 217.332031 171.972656 C 219.140625 171.972656 220.945312 171.957031 222.753906 171.929688 C 216.046875 174.707031 209.292969 177.367188 202.46875 179.894531 Z M 225.714844 170.699219 C 221.660156 170.785156 217.605469 170.832031 213.546875 170.832031 C 200.28125 170.832031 186.8125 170.492188 173.613281 169.078125 C 167.070312 168.378906 160.5 167.898438 153.980469 166.972656 C 146.546875 165.921875 139.164062 164.640625 131.75 163.5 C 124.574219 162.398438 117.457031 160.558594 110.421875 158.800781 C 103.9375 157.179688 97.546875 155.253906 91.207031 153.140625 C 84.6875 150.96875 78.285156 148.410156 72.066406 145.484375 C 69.765625 144.398438 67.453125 143.257812 65.171875 142.03125 C 65.078125 141.917969 64.9375 141.84375 64.785156 141.820312 C 61.3125 139.929688 57.929688 137.84375 54.839844 135.464844 C 44.871094 127.796875 35.433594 117.585938 38.136719 104.050781 C 38.746094 101.003906 40.25 97.847656 42.023438 95.3125 C 43.933594 92.585938 46.054688 89.75 48.652344 87.625 C 50.90625 85.78125 52.992188 83.808594 55.398438 82.140625 C 58.035156 80.316406 60.6875 78.535156 63.488281 76.964844 C 75.53125 70.210938 88.332031 65.792969 101.429688 61.625 C 108.128906 59.492188 115.050781 58.105469 121.878906 56.464844 C 129.199219 54.707031 136.730469 53.496094 144.171875 52.390625 C 157.476562 50.417969 170.8125 49.042969 184.226562 48.117188 C 197.605469 47.195312 210.992188 47.203125 224.390625 47.203125 C 237.613281 47.203125 250.980469 48.09375 264.128906 49.457031 C 278.222656 50.914062 292.207031 52.898438 306.101562 55.675781 C 313.101562 57.074219 319.992188 58.824219 326.894531 60.628906 C 333.132812 62.257812 339.507812 64.148438 345.496094 66.542969 C 352.386719 69.300781 359.246094 72.140625 365.765625 75.589844 C 364.933594 76.671875 364.089844 77.742188 363.238281 78.808594 C 359.609375 83.347656 355.578125 87.769531 351.339844 91.742188 C 346.5625 96.21875 341.949219 100.921875 336.800781 104.984375 C 332.101562 108.691406 327.503906 112.503906 322.742188 116.136719 C 317.925781 119.804688 312.917969 123.195312 307.949219 126.644531 C 297.398438 133.972656 286.234375 140.335938 275.121094 146.746094 C 263.597656 153.394531 251.507812 159.394531 239.355469 164.800781 C 234.824219 166.816406 230.277344 168.785156 225.714844 170.699219 Z M 373.027344 138.214844 C 367.375 142.25 360.613281 145.300781 354.234375 147.980469 C 348.222656 150.511719 342.097656 152.730469 335.878906 154.710938 C 322.261719 159.046875 308.3125 161.933594 294.277344 164.527344 C 280.894531 167.003906 267.191406 168.503906 253.617188 169.4375 C 245.394531 170.003906 237.179688 170.398438 228.953125 170.621094 C 235.917969 167.640625 242.820312 164.519531 249.652344 161.234375 C 255.660156 158.339844 261.722656 155.425781 267.542969 152.167969 C 273.285156 148.953125 279.21875 146.015625 284.804688 142.523438 C 290.25 139.121094 295.832031 135.960938 301.214844 132.453125 C 306.398438 129.074219 311.453125 125.53125 316.566406 122.042969 C 326.742188 115.105469 336.171875 107.101562 345.402344 98.980469 C 353.171875 92.136719 360.515625 84.4375 366.816406 76.152344 C 371.730469 78.820312 376.4375 81.851562 380.804688 85.484375 C 387.8125 91.308594 394.300781 99.445312 394.300781 108.984375 C 394.300781 115.414062 391.230469 121.746094 386.96875 126.460938 C 382.785156 131.09375 378.078125 134.605469 373.027344 138.214844 Z M 373.027344 138.214844 " fill-opacity="1" fill-rule="nonzero"/></g><g clip-path="url(#800ed77e94)"><g clip-path="url(#a5185146b0)"><g clip-path="url(#a774b14913)"><path fill="#ffffff" d="M 35.265625 398.136719 C 37.503906 396.0625 39.851562 394.105469 42.28125 392.246094 C 41.578125 391.539062 40.878906 390.828125 40.191406 390.105469 C 31.691406 381.203125 23.152344 370.261719 21.359375 357.707031 C 20.621094 352.542969 21.210938 346.8125 23.746094 342.183594 C 26.136719 337.8125 29.296875 334.394531 33.15625 331.367188 C 32.894531 331.296875 32.625 331.234375 32.359375 331.179688 C 29.5 330.726562 26.84375 330.609375 24.175781 330.703125 C 23.746094 330.796875 23.5 330.472656 23.488281 330.128906 C 23.425781 329.808594 23.578125 329.46875 23.996094 329.457031 C 25.214844 329.191406 26.464844 328.824219 27.847656 328.359375 C 29.171875 327.910156 30.460938 327.335938 31.722656 326.742188 C 33.53125 325.679688 34.972656 324.53125 36.257812 322.667969 C 37.199219 321.300781 37.859375 319.714844 38.207031 318.046875 C 38.65625 315.203125 38.78125 312.539062 38.6875 309.882812 C 38.59375 309.453125 38.917969 309.207031 39.261719 309.195312 C 39.582031 309.132812 39.921875 309.285156 39.9375 309.703125 C 40.199219 310.929688 40.578125 312.195312 41.039062 313.589844 C 41.339844 314.503906 41.71875 315.402344 42.121094 316.285156 C 42.152344 316.328125 42.179688 316.371094 42.203125 316.421875 C 43.585938 319.589844 46.007812 321.859375 49.003906 323.15625 C 50.640625 322.488281 52.109375 322.074219 53.695312 321.640625 C 54.324219 321.46875 55.417969 321.140625 56.273438 320.914062 C 57.144531 320.683594 58.011719 320.453125 58.878906 320.222656 C 62.535156 319.253906 66.328125 318.542969 70.066406 318.007812 C 73.675781 317.492188 77.351562 316.824219 80.996094 316.652344 C 84.863281 316.46875 88.714844 315.945312 92.59375 315.921875 C 96.238281 315.894531 100.332031 315.773438 103.9375 315.730469 C 106 315.707031 107.492188 315.738281 109.539062 315.800781 C 111.390625 315.855469 113.257812 315.851562 115.109375 315.96875 C 118.996094 316.214844 122.890625 316.449219 126.777344 316.664062 C 130.460938 316.867188 134.132812 317.320312 137.800781 317.660156 C 145.257812 318.351562 152.683594 319.457031 160.078125 320.617188 C 163.90625 321.214844 167.71875 321.867188 171.527344 322.558594 C 175.367188 323.257812 179.179688 324.082031 183.019531 324.777344 C 186.570312 325.425781 190.082031 326.339844 193.609375 327.097656 C 197.183594 327.867188 200.726562 328.75 204.273438 329.636719 C 207.53125 330.453125 210.339844 331.171875 213.34375 331.980469 C 214.703125 332.347656 216.613281 332.894531 218.019531 333.246094 C 219.519531 333.617188 221 334.082031 222.488281 334.503906 C 230.710938 333.648438 238.949219 332.964844 247.203125 332.359375 C 262.472656 331.238281 277.71875 331.5625 293.003906 331.644531 C 301.058594 331.6875 309.222656 332.402344 317.226562 333.230469 C 324.65625 333.996094 332.03125 334.996094 339.394531 336.230469 C 354.15625 338.707031 368.570312 342.847656 382.175781 349.078125 C 394.253906 354.605469 406.679688 364.257812 408.667969 378.167969 C 410.652344 392.050781 399.839844 404.933594 390.070312 413.390625 C 388.046875 415.140625 385.972656 416.816406 383.855469 418.421875 C 386.066406 420.898438 388.21875 423.386719 390.261719 426.011719 C 392.558594 428.960938 394.457031 431.953125 396.230469 435.125 C 399.726562 441.378906 401.867188 448.351562 401.46875 455.558594 C 401.207031 460.304688 399.320312 464.777344 396.546875 468.65625 C 397.671875 469.269531 398.828125 469.671875 400.125 470 C 401.484375 470.214844 402.851562 470.363281 404.222656 470.46875 C 404.917969 470.523438 405.621094 470.507812 406.316406 470.511719 C 407.191406 470.515625 407.441406 470.5 408.300781 470.441406 C 408.351562 470.425781 408.402344 470.421875 408.445312 470.417969 C 408.734375 470.378906 409.019531 470.335938 409.308594 470.296875 C 409.648438 470.246094 409.972656 470.492188 410.019531 470.832031 C 410.066406 471.171875 409.824219 471.496094 409.484375 471.542969 C 409.148438 471.589844 408.816406 471.640625 408.480469 471.6875 C 405.890625 472.34375 403.375 473.207031 400.757812 474.4375 C 397.332031 476.226562 395.019531 479.5625 394.234375 483.332031 C 394.042969 484.625 393.855469 485.90625 393.800781 487.214844 C 393.738281 488.765625 393.734375 489.710938 393.789062 491.261719 C 393.835938 491.605469 393.886719 491.953125 393.9375 492.300781 C 394.050781 493.105469 392.804688 493.285156 392.691406 492.480469 C 392.648438 492.179688 392.605469 491.882812 392.5625 491.582031 C 392.550781 491.539062 392.542969 491.492188 392.542969 491.4375 C 392.085938 489.335938 391.230469 486.929688 390.257812 484.683594 C 389.378906 482.765625 388.28125 481.183594 386.644531 479.859375 C 386.101562 479.421875 385.523438 479.027344 384.925781 478.679688 C 373.769531 485.234375 360.785156 487.84375 348.121094 489.65625 C 334.695312 491.574219 321.066406 491.359375 307.546875 491.046875 C 301.210938 490.898438 294.871094 490.273438 288.558594 489.742188 C 281.90625 489.183594 275.199219 488.367188 268.605469 487.328125 C 254.578125 485.113281 240.613281 482.695312 226.785156 479.421875 C 221.75 478.230469 216.726562 476.980469 211.726562 475.671875 C 200.304688 477.039062 188.851562 477.980469 177.367188 478.824219 C 162.195312 479.9375 147.023438 479.601562 131.832031 479.4375 C 116.382812 479.273438 100.808594 477.289062 85.597656 474.734375 C 71.023438 472.289062 56.222656 468.308594 42.960938 461.710938 C 31.570312 456.042969 19.15625 447.039062 17.222656 433.519531 C 15.183594 419.265625 25.542969 407.144531 35.265625 398.136719 Z M 218.042969 334.546875 C 218.03125 334.542969 217.664062 334.445312 217.941406 334.515625 C 217.824219 334.484375 217.710938 334.457031 217.59375 334.429688 C 217.3125 334.359375 217.027344 334.296875 216.746094 334.214844 C 214.792969 333.632812 213.226562 333.289062 211.382812 332.765625 C 209.761719 332.308594 207.78125 331.800781 206.128906 331.386719 C 204.355469 330.941406 202.582031 330.503906 200.808594 330.058594 C 193.671875 328.277344 186.4375 326.953125 179.269531 325.316406 C 171.691406 323.589844 163.9375 322.511719 156.261719 321.300781 C 148.878906 320.132812 141.433594 319.234375 133.992188 318.539062 C 126.449219 317.832031 118.859375 317.265625 111.285156 317.09375 C 103.625 316.917969 96.605469 316.941406 88.828125 317.34375 C 81.320312 317.730469 73.699219 318.457031 66.320312 319.933594 C 63.289062 320.539062 60.277344 321.144531 57.285156 321.9375 C 56.632812 322.113281 55.976562 322.28125 55.328125 322.457031 C 54.648438 322.640625 53.867188 322.878906 53.210938 323.101562 C 52.445312 323.363281 51.675781 323.574219 50.886719 323.824219 C 51.023438 323.867188 51.164062 323.902344 51.308594 323.9375 C 54.039062 324.339844 57.027344 324.554688 59.484375 324.378906 C 59.535156 324.367188 59.585938 324.359375 59.632812 324.359375 C 59.929688 324.316406 60.230469 324.273438 60.527344 324.230469 C 61.332031 324.117188 61.511719 325.363281 60.707031 325.476562 C 60.359375 325.527344 60.011719 325.578125 59.664062 325.628906 C 58.175781 326.003906 57.273438 326.269531 55.816406 326.761719 C 54.480469 327.210938 53.21875 327.792969 51.941406 328.378906 C 50.199219 329.289062 48.617188 330.714844 47.425781 332.429688 C 46.21875 334.160156 45.617188 335.976562 45.308594 338.070312 C 45.003906 340.496094 44.859375 343.046875 45.011719 345.191406 C 45.023438 345.242188 45.03125 345.292969 45.03125 345.335938 C 45.074219 345.636719 45.117188 345.933594 45.160156 346.234375 C 45.273438 347.039062 44.027344 347.21875 43.910156 346.414062 C 43.863281 346.066406 43.8125 345.71875 43.761719 345.371094 C 43.386719 343.882812 43.121094 342.980469 42.628906 341.527344 C 42.207031 340.273438 41.664062 339.082031 41.113281 337.886719 C 39.667969 335.167969 37.371094 333.003906 34.585938 331.855469 C 32.179688 333.675781 29.992188 335.613281 28.015625 337.917969 C 25.800781 340.492188 24.511719 343.476562 23.3125 346.601562 C 22.191406 349.53125 22.058594 353.421875 22.496094 356.496094 C 22.960938 359.75 23.917969 362.664062 24.867188 365.78125 C 25.644531 368.34375 27.199219 371.089844 28.652344 373.328125 C 30.390625 376.003906 32.101562 378.628906 34.0625 381.148438 C 36.910156 384.808594 40.046875 388.199219 43.324219 391.457031 C 52.472656 384.628906 62.734375 379.140625 72.84375 374.082031 C 86.824219 367.089844 101.515625 361.796875 116.265625 356.714844 C 130.488281 351.8125 145.316406 347.925781 160.023438 344.777344 C 174.410156 341.703125 188.816406 338.917969 203.386719 336.835938 C 208.632812 336.085938 213.890625 335.433594 219.152344 334.855469 C 218.78125 334.753906 218.414062 334.652344 218.042969 334.546875 Z M 238.636719 480.75 C 252.242188 483.6875 266.027344 485.851562 279.84375 487.527344 C 292.824219 489.101562 305.785156 489.660156 318.839844 490.050781 C 325.789062 490.257812 332.894531 489.917969 339.808594 489.261719 C 346.140625 488.660156 352.445312 487.902344 358.6875 486.65625 C 367.28125 484.933594 375.925781 482.335938 383.589844 478.007812 C 382.800781 477.660156 381.988281 477.402344 381.175781 477.238281 C 379.796875 477.035156 378.433594 476.832031 377.039062 476.773438 C 375.496094 476.710938 374.535156 476.714844 372.992188 476.761719 C 372.5625 476.855469 372.316406 476.53125 372.304688 476.1875 C 372.246094 475.867188 372.394531 475.527344 372.816406 475.515625 C 375.222656 474.984375 378.035156 473.949219 380.542969 472.800781 C 384.132812 470.6875 386.621094 467.300781 387.175781 463.035156 C 387.179688 463.007812 387.1875 462.980469 387.191406 462.957031 C 387.320312 461.980469 387.421875 461.003906 387.496094 460.023438 C 387.550781 459.328125 387.539062 458.625 387.542969 457.929688 C 387.546875 457.058594 387.53125 456.808594 387.46875 455.949219 C 387.367188 455.542969 387.648438 455.300781 387.972656 455.269531 C 388.304688 455.183594 388.6875 455.332031 388.714844 455.769531 C 389.097656 457.273438 389.320312 458.195312 389.855469 459.652344 C 390.332031 460.941406 390.859375 462.183594 391.445312 463.429688 C 392.25 464.953125 393.316406 466.292969 394.632812 467.363281 C 394.914062 467.589844 395.195312 467.796875 395.472656 467.992188 C 399.292969 462.664062 400.984375 456.402344 400.046875 449.832031 C 399.519531 446.15625 398.5 442.675781 396.90625 439.292969 C 396.171875 437.734375 395.40625 436.222656 394.5625 434.714844 C 393.6875 433.148438 392.714844 431.816406 391.710938 430.171875 C 390.460938 428.121094 388.878906 426.105469 387.304688 424.289062 C 385.820312 422.582031 384.347656 420.871094 382.84375 419.179688 C 373.296875 426.285156 362.882812 432.078125 352.203125 437.402344 C 338.164062 444.394531 323.394531 449.585938 308.597656 454.679688 C 294.285156 459.609375 279.386719 463.398438 264.601562 466.605469 C 250.21875 469.722656 235.769531 472.347656 221.199219 474.429688 C 219.230469 474.710938 217.257812 474.976562 215.285156 475.230469 C 223.027344 477.210938 230.800781 479.058594 238.636719 480.75 Z M 211.863281 474.347656 C 216.292969 473.8125 220.722656 473.226562 225.148438 472.59375 C 239.605469 470.527344 254.238281 468.0625 268.402344 464.464844 C 275.429688 462.679688 282.515625 461.132812 289.480469 459.109375 C 297.417969 456.800781 305.265625 454.257812 313.171875 451.859375 C 320.820312 449.539062 328.292969 446.421875 335.6875 443.410156 C 342.503906 440.632812 349.171875 437.535156 355.753906 434.246094 C 362.519531 430.863281 369.101562 427.074219 375.421875 422.914062 C 377.761719 421.378906 380.109375 419.769531 382.402344 418.078125 C 382.488281 417.941406 382.632812 417.839844 382.789062 417.789062 C 386.285156 415.1875 389.644531 412.382812 392.644531 409.308594 C 402.316406 399.398438 411.011719 386.796875 405.957031 372.460938 C 404.816406 369.234375 402.683594 366.03125 400.355469 363.542969 C 397.851562 360.867188 395.097656 358.109375 391.933594 356.195312 C 389.1875 354.539062 386.609375 352.710938 383.726562 351.269531 C 380.566406 349.6875 377.398438 348.164062 374.101562 346.886719 C 359.917969 341.398438 345.277344 338.578125 330.347656 336.074219 C 322.710938 334.796875 314.953125 334.363281 307.253906 333.640625 C 299 332.863281 290.597656 332.71875 282.316406 332.675781 C 267.503906 332.597656 252.753906 333.171875 237.984375 334.253906 C 223.257812 335.332031 208.667969 337.429688 194.0625 339.519531 C 179.644531 341.582031 165.214844 344.632812 151.089844 348.164062 C 135.953125 351.953125 121.023438 356.292969 106.308594 361.488281 C 98.894531 364.101562 91.652344 367.085938 84.410156 370.125 C 77.867188 372.875 71.210938 375.925781 65.054688 379.472656 C 57.976562 383.550781 50.941406 387.71875 44.371094 392.492188 C 45.445312 393.542969 46.53125 394.582031 47.625 395.609375 C 52.292969 399.992188 57.375 404.183594 62.613281 407.855469 C 68.515625 411.992188 74.28125 416.394531 80.527344 420.023438 C 86.226562 423.332031 91.832031 426.769531 97.589844 429.988281 C 103.410156 433.238281 109.398438 436.152344 115.351562 439.140625 C 127.996094 445.484375 141.15625 450.679688 154.273438 455.9375 C 167.871094 461.386719 181.984375 466.046875 196.074219 470.042969 C 201.328125 471.535156 206.589844 472.972656 211.863281 474.347656 Z M 46.214844 461.890625 C 53.007812 465.414062 60.851562 467.683594 68.222656 469.613281 C 75.171875 471.433594 82.191406 472.898438 89.277344 474.085938 C 104.800781 476.691406 120.453125 477.664062 136.160156 478.308594 C 151.132812 478.921875 166.308594 478.417969 181.25 477.320312 C 190.300781 476.65625 199.320312 475.808594 208.316406 474.769531 C 200.261719 472.605469 192.25 470.277344 184.292969 467.761719 C 177.292969 465.542969 170.230469 463.3125 163.378906 460.664062 C 156.613281 458.054688 149.691406 455.777344 143.054688 452.839844 C 136.59375 449.980469 130.011719 447.410156 123.597656 444.421875 C 117.421875 441.546875 111.359375 438.46875 105.242188 435.46875 C 93.070312 429.492188 81.539062 422.234375 70.214844 414.816406 C 60.675781 408.566406 51.472656 401.324219 43.3125 393.273438 C 38.371094 396.945312 33.710938 400.984375 29.515625 405.625 C 22.785156 413.066406 16.984375 422.945312 18.46875 433.34375 C 19.472656 440.351562 23.804688 446.777344 29.183594 451.253906 C 34.46875 455.652344 40.144531 458.746094 46.214844 461.890625 Z M 46.214844 461.890625 " fill-opacity="1" fill-rule="nonzero"/></g></g></g></svg>