<svg xmlns="http://www.w3.org/2000/svg" xmlns:xlink="http://www.w3.org/1999/xlink" width="434" zoomAndPan="magnify" viewBox="0 0 325.5 110.999996" height="148" preserveAspectRatio="xMidYMid meet" version="1.0"><defs><g/><clipPath id="7b28734ddc"><path d="M 0 3.714844 L 103.339844 3.714844 L 103.339844 107.054688 L 0 107.054688 Z M 0 3.714844 " clip-rule="nonzero"/></clipPath></defs><g clip-path="url(#7b28734ddc)"><path fill="#db6551" d="M 103.554688 67.441406 C 103.554688 89.4375 85.722656 107.269531 63.722656 107.269531 C 41.730469 107.269531 23.894531 89.4375 23.894531 67.441406 L 23.898438 67.441406 C 23.894531 54.242188 13.195312 27.816406 0 27.816406 L 0 27.621094 C 21.996094 27.621094 39.832031 45.453125 39.832031 67.449219 L 39.828125 67.449219 C 39.832031 80.644531 50.527344 91.335938 63.722656 91.335938 C 76.925781 91.335938 87.625 80.636719 87.625 67.441406 C 87.625 54.242188 76.925781 43.542969 63.726562 43.542969 C 41.730469 43.539062 23.898438 25.710938 23.898438 3.714844 L 24.09375 3.714844 C 24.09375 16.910156 50.527344 27.609375 63.726562 27.609375 L 63.726562 27.613281 C 85.726562 27.613281 103.554688 45.445312 103.554688 67.441406 Z M 103.554688 67.441406 " fill-opacity="1" fill-rule="nonzero"/></g><g fill="#000000" fill-opacity="1"><g transform="translate(118.22312, 68.081453)"><g><path d="M 1.671875 -25.125 L 17.359375 -25.125 L 17.359375 -20.234375 L 7.046875 -20.234375 L 7.046875 -15.703125 L 16.125 -15.703125 L 16.125 -10.8125 L 7.046875 -10.8125 L 7.046875 0 L 1.671875 0 Z M 1.671875 -25.125 "/></g></g></g><g fill="#000000" fill-opacity="1"><g transform="translate(135.334851, 68.081453)"><g><path d="M 1.734375 -25.90625 L 6.625 -25.90625 L 6.625 0 L 1.734375 0 Z M 1.734375 -25.90625 "/></g></g></g><g fill="#000000" fill-opacity="1"><g transform="translate(142.668336, 68.081453)"><g><path d="M 15.171875 -17.578125 L 20.515625 -17.578125 L 9.421875 7.015625 L 4.078125 7.015625 L 8.4375 -2.65625 L 1 -17.578125 L 6.453125 -17.578125 L 11.015625 -8.40625 Z M 15.171875 -17.578125 "/></g></g></g><g fill="#000000" fill-opacity="1"><g transform="translate(162.897766, 68.081453)"><g><path d="M 6.90625 0 L 2.015625 0 L 2.015625 -17.578125 L 6.90625 -17.578125 Z M 4.46875 -19.984375 C 3.707031 -19.984375 3.066406 -20.242188 2.546875 -20.765625 C 2.023438 -21.285156 1.765625 -21.925781 1.765625 -22.6875 C 1.765625 -23.4375 2.023438 -24.078125 2.546875 -24.609375 C 3.066406 -25.140625 3.707031 -25.40625 4.46875 -25.40625 C 5.21875 -25.40625 5.851562 -25.140625 6.375 -24.609375 C 6.894531 -24.078125 7.15625 -23.4375 7.15625 -22.6875 C 7.15625 -21.925781 6.894531 -21.285156 6.375 -20.765625 C 5.851562 -20.242188 5.21875 -19.984375 4.46875 -19.984375 Z M 4.46875 -19.984375 "/></g></g></g><g fill="#000000" fill-opacity="1"><g transform="translate(171.152393, 68.081453)"><g><path d="M 10.734375 -17.578125 C 11.398438 -17.578125 12.132812 -17.484375 12.9375 -17.296875 C 13.738281 -17.109375 14.492188 -16.753906 15.203125 -16.234375 C 15.910156 -15.710938 16.503906 -14.988281 16.984375 -14.0625 C 17.472656 -13.144531 17.71875 -11.953125 17.71875 -10.484375 L 17.71875 0 L 12.796875 0 L 12.796875 -10.3125 C 12.796875 -10.851562 12.707031 -11.3125 12.53125 -11.6875 C 12.351562 -12.070312 12.113281 -12.375 11.8125 -12.59375 C 11.519531 -12.820312 11.179688 -12.988281 10.796875 -13.09375 C 10.421875 -13.195312 10.046875 -13.25 9.671875 -13.25 C 9.367188 -13.25 9.03125 -13.195312 8.65625 -13.09375 C 8.289062 -12.988281 7.945312 -12.816406 7.625 -12.578125 C 7.3125 -12.335938 7.046875 -12.03125 6.828125 -11.65625 C 6.617188 -11.28125 6.515625 -10.832031 6.515625 -10.3125 L 6.515625 0 L 1.625 0 L 1.625 -17.578125 L 5.8125 -17.578125 L 6.515625 -16.234375 C 7.085938 -16.628906 7.726562 -16.953125 8.4375 -17.203125 C 9.144531 -17.453125 9.910156 -17.578125 10.734375 -17.578125 Z M 10.734375 -17.578125 "/></g></g></g><g fill="#000000" fill-opacity="1"><g transform="translate(189.610403, 68.081453)"><g><path d="M 15.375 -17.578125 L 19.5625 -17.578125 L 19.5625 -5.953125 C 19.5625 -4.609375 19.539062 -3.410156 19.5 -2.359375 C 19.46875 -1.304688 19.378906 -0.363281 19.234375 0.46875 C 19.097656 1.3125 18.867188 2.0625 18.546875 2.71875 C 18.234375 3.382812 17.789062 4.003906 17.21875 4.578125 C 16.175781 5.585938 15.007812 6.28125 13.71875 6.65625 C 12.4375 7.039062 11.085938 7.234375 9.671875 7.234375 C 8.460938 7.234375 7.328125 7.085938 6.265625 6.796875 C 5.203125 6.515625 4.25 6.128906 3.40625 5.640625 L 3.40625 1.0625 C 3.613281 1.394531 3.910156 1.691406 4.296875 1.953125 C 4.691406 2.210938 5.144531 2.4375 5.65625 2.625 C 6.164062 2.8125 6.707031 2.957031 7.28125 3.0625 C 7.863281 3.164062 8.445312 3.21875 9.03125 3.21875 C 9.8125 3.21875 10.546875 3.117188 11.234375 2.921875 C 11.921875 2.722656 12.515625 2.398438 13.015625 1.953125 C 13.523438 1.503906 13.925781 0.941406 14.21875 0.265625 C 14.519531 -0.410156 14.671875 -1.234375 14.671875 -2.203125 L 14.671875 -2.546875 C 13.984375 -1.929688 13.191406 -1.441406 12.296875 -1.078125 C 11.398438 -0.710938 10.421875 -0.53125 9.359375 -0.53125 C 8.171875 -0.53125 7.078125 -0.757812 6.078125 -1.21875 C 5.078125 -1.675781 4.207031 -2.300781 3.46875 -3.09375 C 2.738281 -3.882812 2.164062 -4.816406 1.75 -5.890625 C 1.34375 -6.972656 1.140625 -8.113281 1.140625 -9.3125 C 1.140625 -10.519531 1.34375 -11.65625 1.75 -12.71875 C 2.164062 -13.78125 2.738281 -14.707031 3.46875 -15.5 C 4.207031 -16.289062 5.078125 -16.914062 6.078125 -17.375 C 7.078125 -17.84375 8.171875 -18.078125 9.359375 -18.078125 C 10.460938 -18.078125 11.460938 -17.925781 12.359375 -17.625 C 13.265625 -17.332031 14.035156 -16.867188 14.671875 -16.234375 Z M 10.34375 -4.890625 C 11.101562 -4.890625 11.753906 -5.023438 12.296875 -5.296875 C 12.835938 -5.566406 13.285156 -5.914062 13.640625 -6.34375 C 13.992188 -6.769531 14.253906 -7.242188 14.421875 -7.765625 C 14.585938 -8.285156 14.671875 -8.789062 14.671875 -9.28125 C 14.671875 -9.820312 14.582031 -10.359375 14.40625 -10.890625 C 14.226562 -11.421875 13.960938 -11.894531 13.609375 -12.3125 C 13.253906 -12.726562 12.804688 -13.066406 12.265625 -13.328125 C 11.722656 -13.585938 11.082031 -13.71875 10.34375 -13.71875 C 9.726562 -13.71875 9.160156 -13.597656 8.640625 -13.359375 C 8.117188 -13.117188 7.664062 -12.796875 7.28125 -12.390625 C 6.894531 -11.992188 6.585938 -11.53125 6.359375 -11 C 6.140625 -10.46875 6.03125 -9.894531 6.03125 -9.28125 C 6.03125 -8.664062 6.140625 -8.09375 6.359375 -7.5625 C 6.585938 -7.03125 6.894531 -6.5625 7.28125 -6.15625 C 7.664062 -5.757812 8.117188 -5.445312 8.640625 -5.21875 C 9.160156 -5 9.726562 -4.890625 10.34375 -4.890625 Z M 10.34375 -4.890625 "/></g></g></g><g fill="#000000" fill-opacity="1"><g transform="translate(209.910684, 68.081453)"><g/></g></g><g fill="#000000" fill-opacity="1"><g transform="translate(218.944736, 68.081453)"><g><path d="M 13.5 -4.890625 C 14.632812 -4.890625 15.742188 -5.148438 16.828125 -5.671875 C 17.921875 -6.191406 19.019531 -7.066406 20.125 -8.296875 L 23.59375 -5 C 22.207031 -3.195312 20.617188 -1.835938 18.828125 -0.921875 C 17.046875 -0.00390625 15.210938 0.453125 13.328125 0.453125 C 11.617188 0.453125 10.019531 0.109375 8.53125 -0.578125 C 7.050781 -1.273438 5.757812 -2.210938 4.65625 -3.390625 C 3.5625 -4.578125 2.703125 -5.957031 2.078125 -7.53125 C 1.453125 -9.101562 1.140625 -10.773438 1.140625 -12.546875 C 1.140625 -14.316406 1.460938 -15.976562 2.109375 -17.53125 C 2.753906 -19.09375 3.632812 -20.460938 4.75 -21.640625 C 5.863281 -22.828125 7.175781 -23.765625 8.6875 -24.453125 C 10.195312 -25.140625 11.800781 -25.484375 13.5 -25.484375 C 15.082031 -25.484375 16.585938 -25.1875 18.015625 -24.59375 C 19.441406 -24 20.84375 -23.019531 22.21875 -21.65625 L 19.09375 -17.859375 C 18.101562 -18.785156 17.164062 -19.40625 16.28125 -19.71875 C 15.394531 -20.039062 14.46875 -20.203125 13.5 -20.203125 C 12.53125 -20.203125 11.613281 -20 10.75 -19.59375 C 9.894531 -19.195312 9.144531 -18.65625 8.5 -17.96875 C 7.863281 -17.28125 7.363281 -16.46875 7 -15.53125 C 6.632812 -14.601562 6.453125 -13.609375 6.453125 -12.546875 C 6.453125 -11.484375 6.632812 -10.488281 7 -9.5625 C 7.363281 -8.644531 7.863281 -7.835938 8.5 -7.140625 C 9.144531 -6.441406 9.894531 -5.890625 10.75 -5.484375 C 11.613281 -5.085938 12.53125 -4.890625 13.5 -4.890625 Z M 13.5 -4.890625 "/></g></g></g><g fill="#000000" fill-opacity="1"><g transform="translate(242.858723, 68.081453)"><g><path d="M 10.234375 -18.078125 C 11.492188 -18.078125 12.675781 -17.832031 13.78125 -17.34375 C 14.894531 -16.863281 15.863281 -16.203125 16.6875 -15.359375 C 17.519531 -14.523438 18.175781 -13.546875 18.65625 -12.421875 C 19.144531 -11.296875 19.390625 -10.097656 19.390625 -8.828125 C 19.390625 -7.546875 19.144531 -6.34375 18.65625 -5.21875 C 18.175781 -4.101562 17.519531 -3.125 16.6875 -2.28125 C 15.863281 -1.445312 14.894531 -0.785156 13.78125 -0.296875 C 12.675781 0.179688 11.492188 0.421875 10.234375 0.421875 C 8.960938 0.421875 7.769531 0.179688 6.65625 -0.296875 C 5.550781 -0.785156 4.582031 -1.445312 3.75 -2.28125 C 2.925781 -3.125 2.269531 -4.101562 1.78125 -5.21875 C 1.300781 -6.34375 1.0625 -7.546875 1.0625 -8.828125 C 1.0625 -10.097656 1.300781 -11.296875 1.78125 -12.421875 C 2.269531 -13.546875 2.925781 -14.523438 3.75 -15.359375 C 4.582031 -16.203125 5.550781 -16.863281 6.65625 -17.34375 C 7.769531 -17.832031 8.960938 -18.078125 10.234375 -18.078125 Z M 10.234375 -3.859375 C 10.828125 -3.859375 11.378906 -3.976562 11.890625 -4.21875 C 12.398438 -4.457031 12.847656 -4.78125 13.234375 -5.1875 C 13.628906 -5.601562 13.9375 -6.097656 14.15625 -6.671875 C 14.382812 -7.253906 14.5 -7.898438 14.5 -8.609375 C 14.5 -9.316406 14.382812 -9.976562 14.15625 -10.59375 C 13.9375 -11.207031 13.628906 -11.742188 13.234375 -12.203125 C 12.847656 -12.671875 12.398438 -13.039062 11.890625 -13.3125 C 11.378906 -13.582031 10.828125 -13.71875 10.234375 -13.71875 C 9.648438 -13.71875 9.097656 -13.582031 8.578125 -13.3125 C 8.054688 -13.039062 7.597656 -12.671875 7.203125 -12.203125 C 6.816406 -11.742188 6.507812 -11.207031 6.28125 -10.59375 C 6.0625 -9.976562 5.953125 -9.316406 5.953125 -8.609375 C 5.953125 -7.898438 6.0625 -7.253906 6.28125 -6.671875 C 6.507812 -6.097656 6.816406 -5.601562 7.203125 -5.1875 C 7.597656 -4.78125 8.054688 -4.457031 8.578125 -4.21875 C 9.097656 -3.976562 9.648438 -3.859375 10.234375 -3.859375 Z M 10.234375 -3.859375 "/></g></g></g><g fill="#000000" fill-opacity="1"><g transform="translate(262.485865, 68.081453)"><g><path d="M 21.15625 -17.578125 C 21.789062 -17.578125 22.472656 -17.46875 23.203125 -17.25 C 23.941406 -17.039062 24.625 -16.664062 25.25 -16.125 C 25.875 -15.582031 26.382812 -14.835938 26.78125 -13.890625 C 27.1875 -12.941406 27.390625 -11.738281 27.390625 -10.28125 L 27.390625 0 L 22.5 0 L 22.5 -9.390625 C 22.5 -10.097656 22.421875 -10.695312 22.265625 -11.1875 C 22.117188 -11.6875 21.914062 -12.085938 21.65625 -12.390625 C 21.394531 -12.703125 21.09375 -12.921875 20.75 -13.046875 C 20.40625 -13.179688 20.054688 -13.25 19.703125 -13.25 C 19.367188 -13.25 19.035156 -13.191406 18.703125 -13.078125 C 18.378906 -12.960938 18.085938 -12.757812 17.828125 -12.46875 C 17.566406 -12.1875 17.359375 -11.796875 17.203125 -11.296875 C 17.046875 -10.804688 16.96875 -10.179688 16.96875 -9.421875 L 16.96875 0 L 12.078125 0 L 12.078125 -9.390625 C 12.078125 -10.828125 11.828125 -11.828125 11.328125 -12.390625 C 10.835938 -12.960938 10.117188 -13.25 9.171875 -13.25 C 8.492188 -13.25 7.878906 -12.929688 7.328125 -12.296875 C 6.785156 -11.660156 6.515625 -10.664062 6.515625 -9.3125 L 6.515625 0 L 1.625 0 L 1.625 -17.578125 L 5.8125 -17.578125 L 6.515625 -15.953125 C 7.054688 -16.460938 7.6875 -16.859375 8.40625 -17.140625 C 9.132812 -17.429688 9.910156 -17.578125 10.734375 -17.578125 C 11.160156 -17.578125 11.609375 -17.535156 12.078125 -17.453125 C 12.554688 -17.367188 13.019531 -17.21875 13.46875 -17 C 13.914062 -16.789062 14.34375 -16.515625 14.75 -16.171875 C 15.164062 -15.828125 15.539062 -15.398438 15.875 -14.890625 C 16.15625 -15.335938 16.492188 -15.726562 16.890625 -16.0625 C 17.296875 -16.40625 17.734375 -16.691406 18.203125 -16.921875 C 18.679688 -17.148438 19.175781 -17.316406 19.6875 -17.421875 C 20.195312 -17.523438 20.6875 -17.578125 21.15625 -17.578125 Z M 21.15625 -17.578125 "/></g></g></g><g fill="#000000" fill-opacity="1"><g transform="translate(290.686684, 68.081453)"><g><path d="M 10.28125 -18.078125 C 11.601562 -18.078125 12.804688 -17.8125 13.890625 -17.28125 C 14.972656 -16.75 15.90625 -16.050781 16.6875 -15.1875 C 17.46875 -14.320312 18.070312 -13.328125 18.5 -12.203125 C 18.925781 -11.085938 19.140625 -9.9375 19.140625 -8.75 C 19.140625 -8.039062 19.046875 -7.285156 18.859375 -6.484375 L 6.3125 -6.484375 C 6.78125 -5.679688 7.453125 -5 8.328125 -4.4375 C 9.203125 -3.882812 10.144531 -3.609375 11.15625 -3.609375 C 12.175781 -3.609375 13.066406 -3.691406 13.828125 -3.859375 C 14.597656 -4.023438 15.328125 -4.238281 16.015625 -4.5 L 17.640625 -1.484375 C 16.773438 -0.867188 15.78125 -0.394531 14.65625 -0.0625 C 13.53125 0.257812 12.332031 0.421875 11.0625 0.421875 C 9.664062 0.421875 8.363281 0.179688 7.15625 -0.296875 C 5.945312 -0.785156 4.894531 -1.441406 4 -2.265625 C 3.101562 -3.097656 2.394531 -4.078125 1.875 -5.203125 C 1.351562 -6.335938 1.09375 -7.546875 1.09375 -8.828125 C 1.09375 -10.078125 1.328125 -11.257812 1.796875 -12.375 C 2.273438 -13.5 2.929688 -14.476562 3.765625 -15.3125 C 4.609375 -16.15625 5.582031 -16.828125 6.6875 -17.328125 C 7.800781 -17.828125 9 -18.078125 10.28125 -18.078125 Z M 14.28125 -10.28125 C 14 -11.289062 13.488281 -12.113281 12.75 -12.75 C 12.019531 -13.394531 11.195312 -13.71875 10.28125 -13.71875 C 9.332031 -13.71875 8.472656 -13.394531 7.703125 -12.75 C 6.941406 -12.113281 6.414062 -11.289062 6.125 -10.28125 Z M 14.28125 -10.28125 "/></g></g></g><g fill="#000000" fill-opacity="1"><g transform="translate(311.057825, 68.081453)"><g><path d="M 8.078125 -6.3125 C 8.078125 -5.476562 8.332031 -4.835938 8.84375 -4.390625 C 9.351562 -3.941406 10.019531 -3.71875 10.84375 -3.71875 C 11.507812 -3.71875 12.171875 -3.847656 12.828125 -4.109375 L 12.828125 0 C 12.234375 0.1875 11.601562 0.34375 10.9375 0.46875 C 10.28125 0.601562 9.625 0.671875 8.96875 0.671875 C 8.207031 0.671875 7.484375 0.578125 6.796875 0.390625 C 6.117188 0.203125 5.503906 -0.117188 4.953125 -0.578125 C 4.410156 -1.046875 3.976562 -1.660156 3.65625 -2.421875 C 3.34375 -3.191406 3.1875 -4.144531 3.1875 -5.28125 L 3.1875 -13.21875 L 0.671875 -13.21875 L 0.671875 -16.515625 L 3.1875 -17.578125 L 3.1875 -21.515625 L 8.078125 -21.515625 L 8.078125 -17.578125 L 12.828125 -17.578125 L 12.828125 -13.21875 L 8.078125 -13.21875 Z M 8.078125 -6.3125 "/></g></g></g><g fill="#625d58" fill-opacity="1"><g transform="translate(176.137727, 98.170568)"><g><path d="M 10.703125 -8.984375 L 15.28125 -8.984375 L 15.28125 -2.8125 C 14.519531 -1.914062 13.601562 -1.179688 12.53125 -0.609375 C 11.457031 -0.046875 10.289062 0.234375 9.03125 0.234375 C 7.882812 0.234375 6.804688 0.00390625 5.796875 -0.453125 C 4.785156 -0.910156 3.910156 -1.53125 3.171875 -2.3125 C 2.429688 -3.09375 1.84375 -4.003906 1.40625 -5.046875 C 0.976562 -6.085938 0.765625 -7.203125 0.765625 -8.390625 C 0.765625 -9.554688 0.976562 -10.660156 1.40625 -11.703125 C 1.84375 -12.753906 2.429688 -13.671875 3.171875 -14.453125 C 3.910156 -15.242188 4.785156 -15.863281 5.796875 -16.3125 C 6.804688 -16.769531 7.882812 -17 9.03125 -17 C 10.070312 -17 11.054688 -16.796875 11.984375 -16.390625 C 12.921875 -15.984375 13.757812 -15.445312 14.5 -14.78125 L 13.03125 -12.90625 C 12.507812 -13.457031 11.90625 -13.898438 11.21875 -14.234375 C 10.53125 -14.578125 9.800781 -14.75 9.03125 -14.75 C 8.21875 -14.75 7.457031 -14.578125 6.75 -14.234375 C 6.050781 -13.898438 5.441406 -13.441406 4.921875 -12.859375 C 4.398438 -12.273438 3.988281 -11.597656 3.6875 -10.828125 C 3.394531 -10.066406 3.25 -9.253906 3.25 -8.390625 C 3.25 -7.515625 3.394531 -6.691406 3.6875 -5.921875 C 3.988281 -5.160156 4.398438 -4.492188 4.921875 -3.921875 C 5.441406 -3.347656 6.050781 -2.894531 6.75 -2.5625 C 7.457031 -2.226562 8.21875 -2.0625 9.03125 -2.0625 C 9.769531 -2.0625 10.460938 -2.207031 11.109375 -2.5 C 11.753906 -2.789062 12.332031 -3.179688 12.84375 -3.671875 L 12.84375 -6.6875 L 10.703125 -6.6875 Z M 10.703125 -8.984375 "/></g></g></g><g fill="#625d58" fill-opacity="1"><g transform="translate(195.796784, 98.170568)"><g><path d="M 2.96875 0 L 0.265625 0 L 7.25 -16.796875 L 9.96875 -16.796875 L 16.953125 0 L 14.28125 0 L 12.078125 -5.265625 L 5.140625 -5.265625 Z M 6.09375 -7.53125 L 11.140625 -7.53125 L 8.625 -13.59375 Z M 6.09375 -7.53125 "/></g></g></g><g fill="#625d58" fill-opacity="1"><g transform="translate(215.976911, 98.170568)"><g><path d="M 15.640625 -16.796875 L 18.125 -16.796875 L 18.125 0 L 15.65625 0 L 15.65625 -12.890625 L 10.75 -6.140625 L 8.828125 -6.140625 L 3.90625 -12.890625 L 3.90625 0 L 1.421875 0 L 1.421875 -16.796875 L 3.90625 -16.796875 L 9.78125 -8.71875 Z M 15.640625 -16.796875 "/></g></g></g><g fill="#625d58" fill-opacity="1"><g transform="translate(238.359751, 98.170568)"><g><path d="M 11.578125 -16.796875 L 11.578125 -14.5625 L 3.796875 -14.5625 L 3.796875 -10 L 10.734375 -10 L 10.734375 -7.703125 L 3.796875 -7.703125 L 3.796875 -2.296875 L 11.578125 -2.296875 L 11.578125 0 L 1.328125 0 L 1.328125 -16.796875 Z M 11.578125 -16.796875 "/></g></g></g><g fill="#625d58" fill-opacity="1"><g transform="translate(254.205529, 98.170568)"><g><path d="M 12.53125 -4.71875 C 12.53125 -4 12.382812 -3.335938 12.09375 -2.734375 C 11.8125 -2.128906 11.394531 -1.597656 10.84375 -1.140625 C 9.757812 -0.222656 8.363281 0.234375 6.65625 0.234375 C 5.332031 0.234375 4.128906 -0.0351562 3.046875 -0.578125 C 1.972656 -1.117188 1.1875 -1.847656 0.6875 -2.765625 L 2.796875 -3.859375 C 3.109375 -3.296875 3.609375 -2.859375 4.296875 -2.546875 C 4.984375 -2.234375 5.769531 -2.078125 6.65625 -2.078125 C 8.945312 -2.078125 10.09375 -2.957031 10.09375 -4.71875 C 10.09375 -5.050781 10.03125 -5.332031 9.90625 -5.5625 C 9.789062 -5.800781 9.613281 -6.023438 9.375 -6.234375 C 8.8125 -6.703125 7.796875 -7.128906 6.328125 -7.515625 C 5.441406 -7.734375 4.691406 -7.972656 4.078125 -8.234375 C 3.460938 -8.503906 2.945312 -8.820312 2.53125 -9.1875 C 1.539062 -10 1.046875 -11.066406 1.046875 -12.390625 C 1.046875 -13.054688 1.175781 -13.675781 1.4375 -14.25 C 1.695312 -14.820312 2.0625 -15.320312 2.53125 -15.75 C 3.019531 -16.175781 3.59375 -16.492188 4.25 -16.703125 C 4.90625 -16.921875 5.628906 -17.03125 6.421875 -17.03125 C 7.578125 -17.03125 8.640625 -16.804688 9.609375 -16.359375 C 10.578125 -15.921875 11.3125 -15.300781 11.8125 -14.5 L 9.90625 -13.3125 C 9.445312 -13.863281 8.914062 -14.253906 8.3125 -14.484375 C 7.71875 -14.710938 7.085938 -14.828125 6.421875 -14.828125 C 5.941406 -14.828125 5.503906 -14.75 5.109375 -14.59375 C 4.722656 -14.4375 4.394531 -14.242188 4.125 -14.015625 C 3.90625 -13.828125 3.742188 -13.59375 3.640625 -13.3125 C 3.535156 -13.039062 3.484375 -12.75 3.484375 -12.4375 C 3.484375 -12.226562 3.515625 -12.015625 3.578125 -11.796875 C 3.640625 -11.585938 3.785156 -11.367188 4.015625 -11.140625 C 4.253906 -10.910156 4.601562 -10.6875 5.0625 -10.46875 C 5.519531 -10.257812 6.144531 -10.054688 6.9375 -9.859375 C 7.882812 -9.617188 8.679688 -9.359375 9.328125 -9.078125 C 9.972656 -8.804688 10.519531 -8.476562 10.96875 -8.09375 C 12.007812 -7.25 12.53125 -6.125 12.53125 -4.71875 Z M 12.53125 -4.71875 "/></g></g></g></svg>