<svg xmlns="http://www.w3.org/2000/svg" xmlns:xlink="http://www.w3.org/1999/xlink" width="139" zoomAndPan="magnify" viewBox="0 0 104.25 104.249996" height="139" preserveAspectRatio="xMidYMid meet" version="1.0"><defs><clipPath id="8a6fff9aa9"><path d="M 19.882812 30.277344 L 22.117188 30.277344 L 22.117188 32.511719 L 19.882812 32.511719 Z M 19.882812 30.277344 " clip-rule="nonzero"/></clipPath><clipPath id="443fdc426d"><path d="M 0 0 L 102.761719 0 L 102.761719 102.761719 L 0 102.761719 Z M 0 0 " clip-rule="nonzero"/></clipPath></defs><g clip-path="url(#8a6fff9aa9)"><path fill="#db6551" d="M 22.011719 31.589844 C 22.011719 32.042969 21.644531 32.40625 21.191406 32.40625 C 20.742188 32.40625 20.375 32.042969 20.375 31.589844 C 20.375 31.316406 20.152344 30.773438 19.882812 30.773438 L 19.882812 30.769531 C 20.335938 30.769531 20.703125 31.136719 20.703125 31.589844 C 20.703125 31.859375 20.921875 32.082031 21.191406 32.082031 C 21.464844 32.082031 21.683594 31.859375 21.683594 31.589844 C 21.683594 31.316406 21.464844 31.097656 21.191406 31.097656 C 20.742188 31.097656 20.375 30.730469 20.375 30.277344 L 20.378906 30.277344 C 20.378906 30.550781 20.921875 30.769531 21.191406 30.769531 C 21.644531 30.769531 22.011719 31.136719 22.011719 31.589844 Z M 22.011719 31.589844 " fill-opacity="1" fill-rule="nonzero"/></g><g clip-path="url(#443fdc426d)"><path fill="#db6551" d="M 102.972656 63.367188 C 102.972656 85.242188 85.242188 102.972656 63.367188 102.972656 C 41.496094 102.972656 23.761719 85.242188 23.761719 63.367188 L 23.765625 63.367188 C 23.761719 50.242188 13.121094 23.964844 0 23.964844 L 0 23.773438 C 21.875 23.773438 39.605469 41.503906 39.605469 63.378906 C 39.609375 76.496094 50.246094 87.132812 63.367188 87.132812 C 76.492188 87.132812 87.132812 76.492188 87.132812 63.367188 C 87.132812 50.246094 76.492188 39.605469 63.367188 39.605469 C 41.496094 39.601562 23.765625 21.871094 23.765625 0 L 23.957031 0 C 23.957031 13.125 50.242188 23.761719 63.367188 23.761719 L 63.367188 23.765625 C 85.242188 23.765625 102.972656 41.496094 102.972656 63.367188 Z M 102.972656 63.367188 " fill-opacity="1" fill-rule="nonzero"/></g></svg>