<svg xmlns="http://www.w3.org/2000/svg" xmlns:xlink="http://www.w3.org/1999/xlink" width="500" zoomAndPan="magnify" viewBox="0 0 375 374.999991" height="500" preserveAspectRatio="xMidYMid meet" version="1.0"><path fill="#f93854" d="M 374.96875 230.753906 C 374.96875 310.40625 310.398438 374.96875 230.746094 374.96875 C 151.097656 374.96875 86.527344 310.398438 86.527344 230.753906 L 86.535156 230.753906 C 86.519531 182.957031 47.78125 87.269531 0 87.269531 L 0 86.566406 C 79.652344 86.566406 144.222656 151.128906 144.222656 230.785156 L 144.214844 230.785156 C 144.230469 278.554688 182.964844 317.28125 230.746094 317.28125 C 278.539062 317.28125 317.28125 278.539062 317.28125 230.753906 C 317.28125 182.964844 278.539062 144.222656 230.753906 144.222656 L 230.753906 144.214844 C 151.097656 144.207031 86.535156 79.644531 86.535156 0 L 87.238281 0 C 87.238281 47.789062 182.957031 86.527344 230.753906 86.527344 L 230.753906 86.535156 C 310.40625 86.535156 374.96875 151.105469 374.96875 230.753906 Z M 374.96875 230.753906 " fill-opacity="1" fill-rule="nonzero"/></svg>