<svg xmlns="http://www.w3.org/2000/svg" xmlns:xlink="http://www.w3.org/1999/xlink" width="500" zoomAndPan="magnify" viewBox="0 0 375 374.999991" height="500" preserveAspectRatio="xMidYMid meet" version="1.0"><defs><g/><clipPath id="1d4ff04289"><path d="M 61.289062 28.703125 L 290.039062 28.703125 L 290.039062 257.453125 L 61.289062 257.453125 Z M 61.289062 28.703125 " clip-rule="nonzero"/></clipPath></defs><g clip-path="url(#1d4ff04289)"><path fill="#f93854" d="M 290.019531 169.460938 C 290.019531 218.050781 250.632812 257.433594 202.042969 257.433594 C 153.457031 257.433594 114.070312 218.042969 114.070312 169.460938 L 114.074219 169.460938 C 114.066406 140.304688 90.433594 81.9375 61.289062 81.9375 L 61.289062 81.507812 C 109.878906 81.507812 149.265625 120.890625 149.265625 169.480469 L 149.261719 169.480469 C 149.269531 198.621094 172.898438 222.242188 202.042969 222.242188 C 231.199219 222.242188 254.828125 198.609375 254.828125 169.460938 C 254.828125 140.308594 231.199219 116.679688 202.046875 116.679688 L 202.046875 116.671875 C 153.457031 116.667969 114.074219 77.285156 114.074219 28.703125 L 114.503906 28.703125 C 114.503906 57.851562 172.890625 81.484375 202.046875 81.484375 L 202.046875 81.488281 C 250.636719 81.488281 290.019531 120.875 290.019531 169.460938 Z M 290.019531 169.460938 " fill-opacity="1" fill-rule="nonzero"/></g><g fill="#000000" fill-opacity="1"><g transform="translate(53.35417, 312.466378)"><g><path d="M 2.171875 -32.65625 L 22.578125 -32.65625 L 22.578125 -26.296875 L 9.171875 -26.296875 L 9.171875 -20.40625 L 20.953125 -20.40625 L 20.953125 -14.046875 L 9.171875 -14.046875 L 9.171875 0 L 2.171875 0 Z M 2.171875 -32.65625 "/></g></g></g><g fill="#000000" fill-opacity="1"><g transform="translate(75.596256, 312.466378)"><g><path d="M 2.25 -33.671875 L 8.609375 -33.671875 L 8.609375 0 L 2.25 0 Z M 2.25 -33.671875 "/></g></g></g><g fill="#000000" fill-opacity="1"><g transform="translate(85.128431, 312.466378)"><g><path d="M 19.71875 -22.84375 L 26.671875 -22.84375 L 12.25 9.125 L 5.296875 9.125 L 10.96875 -3.453125 L 1.296875 -22.84375 L 8.390625 -22.84375 L 14.328125 -10.921875 Z M 19.71875 -22.84375 "/></g></g></g><g fill="#000000" fill-opacity="1"><g transform="translate(111.422951, 312.466378)"><g><path d="M 8.984375 0 L 2.625 0 L 2.625 -22.84375 L 8.984375 -22.84375 Z M 5.796875 -25.984375 C 4.816406 -25.984375 3.988281 -26.316406 3.3125 -26.984375 C 2.632812 -27.660156 2.296875 -28.492188 2.296875 -29.484375 C 2.296875 -30.460938 2.632812 -31.296875 3.3125 -31.984375 C 3.988281 -32.679688 4.816406 -33.03125 5.796875 -33.03125 C 6.785156 -33.03125 7.613281 -32.679688 8.28125 -31.984375 C 8.957031 -31.296875 9.296875 -30.460938 9.296875 -29.484375 C 9.296875 -28.492188 8.957031 -27.660156 8.28125 -26.984375 C 7.613281 -26.316406 6.785156 -25.984375 5.796875 -25.984375 Z M 5.796875 -25.984375 "/></g></g></g><g fill="#000000" fill-opacity="1"><g transform="translate(122.15244, 312.466378)"><g><path d="M 13.953125 -22.84375 C 14.816406 -22.84375 15.769531 -22.71875 16.8125 -22.46875 C 17.851562 -22.226562 18.832031 -21.769531 19.75 -21.09375 C 20.675781 -20.414062 21.453125 -19.476562 22.078125 -18.28125 C 22.710938 -17.082031 23.03125 -15.535156 23.03125 -13.640625 L 23.03125 0 L 16.625 0 L 16.625 -13.40625 C 16.625 -14.113281 16.507812 -14.710938 16.28125 -15.203125 C 16.050781 -15.691406 15.742188 -16.082031 15.359375 -16.375 C 14.972656 -16.664062 14.535156 -16.878906 14.046875 -17.015625 C 13.554688 -17.160156 13.066406 -17.234375 12.578125 -17.234375 C 12.171875 -17.234375 11.726562 -17.160156 11.25 -17.015625 C 10.78125 -16.878906 10.335938 -16.65625 9.921875 -16.34375 C 9.503906 -16.039062 9.15625 -15.644531 8.875 -15.15625 C 8.601562 -14.664062 8.46875 -14.082031 8.46875 -13.40625 L 8.46875 0 L 2.125 0 L 2.125 -22.84375 L 7.546875 -22.84375 L 8.46875 -21.09375 C 9.207031 -21.613281 10.035156 -22.035156 10.953125 -22.359375 C 11.878906 -22.679688 12.878906 -22.84375 13.953125 -22.84375 Z M 13.953125 -22.84375 "/></g></g></g><g fill="#000000" fill-opacity="1"><g transform="translate(146.144441, 312.466378)"><g><path d="M 19.984375 -22.84375 L 25.421875 -22.84375 L 25.421875 -7.734375 C 25.421875 -5.984375 25.394531 -4.425781 25.34375 -3.0625 C 25.300781 -1.695312 25.1875 -0.472656 25 0.609375 C 24.820312 1.703125 24.523438 2.679688 24.109375 3.546875 C 23.691406 4.410156 23.117188 5.207031 22.390625 5.9375 C 21.035156 7.257812 19.519531 8.164062 17.84375 8.65625 C 16.175781 9.144531 14.421875 9.390625 12.578125 9.390625 C 11.003906 9.390625 9.523438 9.207031 8.140625 8.84375 C 6.765625 8.476562 5.523438 7.972656 4.421875 7.328125 L 4.421875 1.375 C 4.703125 1.8125 5.09375 2.195312 5.59375 2.53125 C 6.101562 2.875 6.6875 3.164062 7.34375 3.40625 C 8.007812 3.65625 8.71875 3.847656 9.46875 3.984375 C 10.21875 4.117188 10.976562 4.1875 11.75 4.1875 C 12.757812 4.1875 13.707031 4.054688 14.59375 3.796875 C 15.488281 3.535156 16.265625 3.113281 16.921875 2.53125 C 17.585938 1.945312 18.109375 1.21875 18.484375 0.34375 C 18.867188 -0.53125 19.0625 -1.597656 19.0625 -2.859375 L 19.0625 -3.3125 C 18.175781 -2.519531 17.148438 -1.882812 15.984375 -1.40625 C 14.816406 -0.925781 13.539062 -0.6875 12.15625 -0.6875 C 10.625 -0.6875 9.203125 -0.984375 7.890625 -1.578125 C 6.585938 -2.179688 5.460938 -3 4.515625 -4.03125 C 3.566406 -5.0625 2.820312 -6.273438 2.28125 -7.671875 C 1.738281 -9.066406 1.46875 -10.546875 1.46875 -12.109375 C 1.46875 -13.679688 1.738281 -15.15625 2.28125 -16.53125 C 2.820312 -17.914062 3.566406 -19.125 4.515625 -20.15625 C 5.460938 -21.1875 6.585938 -22 7.890625 -22.59375 C 9.203125 -23.1875 10.625 -23.484375 12.15625 -23.484375 C 13.601562 -23.484375 14.910156 -23.289062 16.078125 -22.90625 C 17.242188 -22.53125 18.238281 -21.925781 19.0625 -21.09375 Z M 13.453125 -6.359375 C 14.429688 -6.359375 15.273438 -6.535156 15.984375 -6.890625 C 16.691406 -7.242188 17.273438 -7.695312 17.734375 -8.25 C 18.191406 -8.800781 18.523438 -9.410156 18.734375 -10.078125 C 18.953125 -10.753906 19.0625 -11.414062 19.0625 -12.0625 C 19.0625 -12.769531 18.945312 -13.46875 18.71875 -14.15625 C 18.488281 -14.851562 18.144531 -15.46875 17.6875 -16 C 17.226562 -16.539062 16.644531 -16.976562 15.9375 -17.3125 C 15.226562 -17.65625 14.398438 -17.828125 13.453125 -17.828125 C 12.648438 -17.828125 11.910156 -17.671875 11.234375 -17.359375 C 10.554688 -17.054688 9.960938 -16.644531 9.453125 -16.125 C 8.953125 -15.601562 8.554688 -14.992188 8.265625 -14.296875 C 7.972656 -13.609375 7.828125 -12.863281 7.828125 -12.0625 C 7.828125 -11.269531 7.972656 -10.523438 8.265625 -9.828125 C 8.554688 -9.140625 8.953125 -8.535156 9.453125 -8.015625 C 9.960938 -7.492188 10.554688 -7.085938 11.234375 -6.796875 C 11.910156 -6.503906 12.648438 -6.359375 13.453125 -6.359375 Z M 13.453125 -6.359375 "/></g></g></g><g fill="#000000" fill-opacity="1"><g transform="translate(172.531052, 312.466378)"><g/></g></g><g fill="#000000" fill-opacity="1"><g transform="translate(184.27365, 312.466378)"><g><path d="M 17.546875 -6.359375 C 19.023438 -6.359375 20.46875 -6.695312 21.875 -7.375 C 23.289062 -8.050781 24.71875 -9.1875 26.15625 -10.78125 L 30.671875 -6.5 C 28.859375 -4.164062 26.789062 -2.398438 24.46875 -1.203125 C 22.15625 -0.00390625 19.769531 0.59375 17.3125 0.59375 C 15.101562 0.59375 13.03125 0.140625 11.09375 -0.765625 C 9.164062 -1.671875 7.488281 -2.890625 6.0625 -4.421875 C 4.632812 -5.953125 3.507812 -7.738281 2.6875 -9.78125 C 1.875 -11.820312 1.46875 -14 1.46875 -16.3125 C 1.46875 -18.613281 1.890625 -20.773438 2.734375 -22.796875 C 3.578125 -24.828125 4.722656 -26.609375 6.171875 -28.140625 C 7.617188 -29.679688 9.320312 -30.894531 11.28125 -31.78125 C 13.25 -32.675781 15.335938 -33.125 17.546875 -33.125 C 19.609375 -33.125 21.566406 -32.738281 23.421875 -31.96875 C 25.273438 -31.195312 27.09375 -29.921875 28.875 -28.140625 L 24.828125 -23.21875 C 23.535156 -24.414062 22.3125 -25.21875 21.15625 -25.625 C 20.007812 -26.039062 18.804688 -26.25 17.546875 -26.25 C 16.285156 -26.25 15.09375 -25.988281 13.96875 -25.46875 C 12.851562 -24.945312 11.878906 -24.238281 11.046875 -23.34375 C 10.222656 -22.457031 9.570312 -21.40625 9.09375 -20.1875 C 8.625 -18.976562 8.390625 -17.6875 8.390625 -16.3125 C 8.390625 -14.925781 8.625 -13.632812 9.09375 -12.4375 C 9.570312 -11.238281 10.222656 -10.1875 11.046875 -9.28125 C 11.878906 -8.375 12.851562 -7.660156 13.96875 -7.140625 C 15.09375 -6.617188 16.285156 -6.359375 17.546875 -6.359375 Z M 17.546875 -6.359375 "/></g></g></g><g fill="#000000" fill-opacity="1"><g transform="translate(215.357412, 312.466378)"><g><path d="M 13.3125 -23.484375 C 14.9375 -23.484375 16.46875 -23.171875 17.90625 -22.546875 C 19.351562 -21.921875 20.613281 -21.0625 21.6875 -19.96875 C 22.769531 -18.875 23.625 -17.597656 24.25 -16.140625 C 24.882812 -14.679688 25.203125 -13.125 25.203125 -11.46875 C 25.203125 -9.8125 24.882812 -8.253906 24.25 -6.796875 C 23.625 -5.335938 22.769531 -4.0625 21.6875 -2.96875 C 20.613281 -1.875 19.351562 -1.015625 17.90625 -0.390625 C 16.46875 0.234375 14.9375 0.546875 13.3125 0.546875 C 11.65625 0.546875 10.101562 0.234375 8.65625 -0.390625 C 7.21875 -1.015625 5.957031 -1.875 4.875 -2.96875 C 3.800781 -4.0625 2.945312 -5.335938 2.3125 -6.796875 C 1.6875 -8.253906 1.375 -9.8125 1.375 -11.46875 C 1.375 -13.125 1.6875 -14.679688 2.3125 -16.140625 C 2.945312 -17.597656 3.800781 -18.875 4.875 -19.96875 C 5.957031 -21.0625 7.21875 -21.921875 8.65625 -22.546875 C 10.101562 -23.171875 11.65625 -23.484375 13.3125 -23.484375 Z M 13.3125 -5.015625 C 14.082031 -5.015625 14.796875 -5.164062 15.453125 -5.46875 C 16.109375 -5.78125 16.691406 -6.203125 17.203125 -6.734375 C 17.710938 -7.273438 18.113281 -7.921875 18.40625 -8.671875 C 18.695312 -9.429688 18.84375 -10.269531 18.84375 -11.1875 C 18.84375 -12.113281 18.695312 -12.972656 18.40625 -13.765625 C 18.113281 -14.566406 17.710938 -15.265625 17.203125 -15.859375 C 16.691406 -16.460938 16.109375 -16.941406 15.453125 -17.296875 C 14.796875 -17.648438 14.082031 -17.828125 13.3125 -17.828125 C 12.539062 -17.828125 11.816406 -17.648438 11.140625 -17.296875 C 10.472656 -16.941406 9.882812 -16.460938 9.375 -15.859375 C 8.863281 -15.265625 8.460938 -14.566406 8.171875 -13.765625 C 7.878906 -12.972656 7.734375 -12.113281 7.734375 -11.1875 C 7.734375 -10.269531 7.878906 -9.429688 8.171875 -8.671875 C 8.460938 -7.921875 8.863281 -7.273438 9.375 -6.734375 C 9.882812 -6.203125 10.472656 -5.78125 11.140625 -5.46875 C 11.816406 -5.164062 12.539062 -5.015625 13.3125 -5.015625 Z M 13.3125 -5.015625 "/></g></g></g><g fill="#000000" fill-opacity="1"><g transform="translate(240.869068, 312.466378)"><g><path d="M 27.5 -22.84375 C 28.332031 -22.84375 29.222656 -22.703125 30.171875 -22.421875 C 31.117188 -22.148438 32 -21.660156 32.8125 -20.953125 C 33.632812 -20.253906 34.304688 -19.289062 34.828125 -18.0625 C 35.347656 -16.832031 35.609375 -15.265625 35.609375 -13.359375 L 35.609375 0 L 29.25 0 L 29.25 -12.203125 C 29.25 -13.128906 29.148438 -13.910156 28.953125 -14.546875 C 28.753906 -15.191406 28.484375 -15.710938 28.140625 -16.109375 C 27.804688 -16.515625 27.414062 -16.800781 26.96875 -16.96875 C 26.519531 -17.144531 26.066406 -17.234375 25.609375 -17.234375 C 25.179688 -17.234375 24.75 -17.15625 24.3125 -17 C 23.882812 -16.84375 23.5 -16.578125 23.15625 -16.203125 C 22.820312 -15.835938 22.554688 -15.332031 22.359375 -14.6875 C 22.160156 -14.050781 22.0625 -13.238281 22.0625 -12.25 L 22.0625 0 L 15.703125 0 L 15.703125 -12.203125 C 15.703125 -14.078125 15.378906 -15.382812 14.734375 -16.125 C 14.085938 -16.863281 13.15625 -17.234375 11.9375 -17.234375 C 11.039062 -17.234375 10.238281 -16.816406 9.53125 -15.984375 C 8.820312 -15.148438 8.46875 -13.859375 8.46875 -12.109375 L 8.46875 0 L 2.125 0 L 2.125 -22.84375 L 7.546875 -22.84375 L 8.46875 -20.734375 C 9.175781 -21.398438 10 -21.914062 10.9375 -22.28125 C 11.875 -22.65625 12.878906 -22.84375 13.953125 -22.84375 C 14.503906 -22.84375 15.085938 -22.789062 15.703125 -22.6875 C 16.316406 -22.582031 16.914062 -22.390625 17.5 -22.109375 C 18.082031 -21.835938 18.640625 -21.476562 19.171875 -21.03125 C 19.710938 -20.582031 20.203125 -20.019531 20.640625 -19.34375 C 21.003906 -19.925781 21.445312 -20.441406 21.96875 -20.890625 C 22.488281 -21.335938 23.054688 -21.707031 23.671875 -22 C 24.285156 -22.289062 24.921875 -22.503906 25.578125 -22.640625 C 26.242188 -22.773438 26.882812 -22.84375 27.5 -22.84375 Z M 27.5 -22.84375 "/></g></g></g><g fill="#000000" fill-opacity="1"><g transform="translate(277.52492, 312.466378)"><g><path d="M 13.359375 -23.484375 C 15.078125 -23.484375 16.640625 -23.140625 18.046875 -22.453125 C 19.460938 -21.765625 20.675781 -20.859375 21.6875 -19.734375 C 22.707031 -18.617188 23.492188 -17.332031 24.046875 -15.875 C 24.597656 -14.414062 24.875 -12.914062 24.875 -11.375 C 24.875 -10.457031 24.75 -9.472656 24.5 -8.421875 L 8.203125 -8.421875 C 8.816406 -7.378906 9.691406 -6.5 10.828125 -5.78125 C 11.960938 -5.0625 13.191406 -4.703125 14.515625 -4.703125 C 15.828125 -4.703125 16.984375 -4.804688 17.984375 -5.015625 C 18.984375 -5.234375 19.925781 -5.507812 20.8125 -5.84375 L 22.9375 -1.9375 C 21.800781 -1.132812 20.503906 -0.519531 19.046875 -0.09375 C 17.585938 0.332031 16.03125 0.546875 14.375 0.546875 C 12.5625 0.546875 10.867188 0.234375 9.296875 -0.390625 C 7.734375 -1.015625 6.367188 -1.863281 5.203125 -2.9375 C 4.035156 -4.019531 3.113281 -5.296875 2.4375 -6.765625 C 1.757812 -8.242188 1.421875 -9.8125 1.421875 -11.46875 C 1.421875 -13.09375 1.726562 -14.632812 2.34375 -16.09375 C 2.957031 -17.550781 3.8125 -18.828125 4.90625 -19.921875 C 6 -21.015625 7.265625 -21.878906 8.703125 -22.515625 C 10.148438 -23.160156 11.703125 -23.484375 13.359375 -23.484375 Z M 18.5625 -13.359375 C 18.195312 -14.679688 17.535156 -15.753906 16.578125 -16.578125 C 15.628906 -17.410156 14.554688 -17.828125 13.359375 -17.828125 C 12.128906 -17.828125 11.015625 -17.410156 10.015625 -16.578125 C 9.015625 -15.753906 8.332031 -14.679688 7.96875 -13.359375 Z M 18.5625 -13.359375 "/></g></g></g><g fill="#000000" fill-opacity="1"><g transform="translate(304.003636, 312.466378)"><g><path d="M 10.5 -8.203125 C 10.5 -7.128906 10.828125 -6.300781 11.484375 -5.71875 C 12.148438 -5.132812 13.019531 -4.84375 14.09375 -4.84375 C 14.957031 -4.84375 15.816406 -5.007812 16.671875 -5.34375 L 16.671875 0 C 15.898438 0.25 15.082031 0.457031 14.21875 0.625 C 13.363281 0.789062 12.507812 0.875 11.65625 0.875 C 10.675781 0.875 9.738281 0.75 8.84375 0.5 C 7.957031 0.257812 7.160156 -0.15625 6.453125 -0.75 C 5.742188 -1.351562 5.179688 -2.15625 4.765625 -3.15625 C 4.347656 -4.15625 4.140625 -5.390625 4.140625 -6.859375 L 4.140625 -17.1875 L 0.875 -17.1875 L 0.875 -21.46875 L 4.140625 -22.84375 L 4.140625 -27.953125 L 10.5 -27.953125 L 10.5 -22.84375 L 16.671875 -22.84375 L 16.671875 -17.1875 L 10.5 -17.1875 Z M 10.5 -8.203125 "/></g></g></g><g fill="#f93854" fill-opacity="1"><g transform="translate(153.639712, 341.215691)"><g><path d="M 7.890625 -6.625 L 11.265625 -6.625 L 11.265625 -2.078125 C 10.703125 -1.410156 10.023438 -0.867188 9.234375 -0.453125 C 8.441406 -0.0351562 7.582031 0.171875 6.65625 0.171875 C 5.8125 0.171875 5.015625 0.00390625 4.265625 -0.328125 C 3.523438 -0.671875 2.878906 -1.128906 2.328125 -1.703125 C 1.785156 -2.273438 1.351562 -2.945312 1.03125 -3.71875 C 0.71875 -4.488281 0.5625 -5.3125 0.5625 -6.1875 C 0.5625 -7.050781 0.71875 -7.867188 1.03125 -8.640625 C 1.351562 -9.410156 1.785156 -10.082031 2.328125 -10.65625 C 2.878906 -11.238281 3.523438 -11.695312 4.265625 -12.03125 C 5.015625 -12.375 5.8125 -12.546875 6.65625 -12.546875 C 7.425781 -12.546875 8.15625 -12.394531 8.84375 -12.09375 C 9.53125 -11.789062 10.144531 -11.394531 10.6875 -10.90625 L 9.609375 -9.515625 C 9.222656 -9.921875 8.773438 -10.25 8.265625 -10.5 C 7.765625 -10.757812 7.226562 -10.890625 6.65625 -10.890625 C 6.0625 -10.890625 5.503906 -10.757812 4.984375 -10.5 C 4.460938 -10.25 4.007812 -9.910156 3.625 -9.484375 C 3.25 -9.054688 2.945312 -8.554688 2.71875 -7.984375 C 2.5 -7.421875 2.390625 -6.820312 2.390625 -6.1875 C 2.390625 -5.539062 2.5 -4.9375 2.71875 -4.375 C 2.945312 -3.8125 3.25 -3.316406 3.625 -2.890625 C 4.007812 -2.460938 4.460938 -2.125 4.984375 -1.875 C 5.503906 -1.632812 6.0625 -1.515625 6.65625 -1.515625 C 7.207031 -1.515625 7.71875 -1.625 8.1875 -1.84375 C 8.664062 -2.0625 9.09375 -2.347656 9.46875 -2.703125 L 9.46875 -4.921875 L 7.890625 -4.921875 Z M 7.890625 -6.625 "/></g></g></g><g fill="#f93854" fill-opacity="1"><g transform="translate(168.132792, 341.215691)"><g><path d="M 2.1875 0 L 0.1875 0 L 5.34375 -12.390625 L 7.359375 -12.390625 L 12.5 0 L 10.53125 0 L 8.90625 -3.875 L 3.796875 -3.875 Z M 4.484375 -5.5625 L 8.203125 -5.5625 L 6.359375 -10.03125 Z M 4.484375 -5.5625 "/></g></g></g><g fill="#f93854" fill-opacity="1"><g transform="translate(183.009979, 341.215691)"><g><path d="M 11.53125 -12.390625 L 13.359375 -12.390625 L 13.359375 0 L 11.546875 0 L 11.546875 -9.5 L 7.9375 -4.53125 L 6.515625 -4.53125 L 2.875 -9.5 L 2.875 0 L 1.046875 0 L 1.046875 -12.390625 L 2.875 -12.390625 L 7.21875 -6.421875 Z M 11.53125 -12.390625 "/></g></g></g><g fill="#f93854" fill-opacity="1"><g transform="translate(199.510927, 341.215691)"><g><path d="M 8.546875 -12.390625 L 8.546875 -10.75 L 2.796875 -10.75 L 2.796875 -7.375 L 7.90625 -7.375 L 7.90625 -5.671875 L 2.796875 -5.671875 L 2.796875 -1.6875 L 8.546875 -1.6875 L 8.546875 0 L 0.984375 0 L 0.984375 -12.390625 Z M 8.546875 -12.390625 "/></g></g></g><g fill="#f93854" fill-opacity="1"><g transform="translate(211.192985, 341.215691)"><g><path d="M 9.234375 -3.46875 C 9.234375 -2.945312 9.128906 -2.460938 8.921875 -2.015625 C 8.710938 -1.566406 8.40625 -1.175781 8 -0.84375 C 7.195312 -0.164062 6.164062 0.171875 4.90625 0.171875 C 3.925781 0.171875 3.039062 -0.0234375 2.25 -0.421875 C 1.457031 -0.828125 0.875 -1.367188 0.5 -2.046875 L 2.0625 -2.84375 C 2.289062 -2.425781 2.660156 -2.101562 3.171875 -1.875 C 3.679688 -1.644531 4.257812 -1.53125 4.90625 -1.53125 C 6.59375 -1.53125 7.4375 -2.175781 7.4375 -3.46875 C 7.4375 -3.71875 7.390625 -3.925781 7.296875 -4.09375 C 7.210938 -4.269531 7.085938 -4.4375 6.921875 -4.59375 C 6.492188 -4.945312 5.742188 -5.257812 4.671875 -5.53125 C 4.015625 -5.695312 3.457031 -5.878906 3 -6.078125 C 2.550781 -6.273438 2.175781 -6.507812 1.875 -6.78125 C 1.132812 -7.375 0.765625 -8.160156 0.765625 -9.140625 C 0.765625 -9.628906 0.859375 -10.082031 1.046875 -10.5 C 1.242188 -10.925781 1.519531 -11.296875 1.875 -11.609375 C 2.226562 -11.929688 2.644531 -12.171875 3.125 -12.328125 C 3.613281 -12.484375 4.148438 -12.5625 4.734375 -12.5625 C 5.585938 -12.5625 6.367188 -12.394531 7.078125 -12.0625 C 7.796875 -11.738281 8.34375 -11.28125 8.71875 -10.6875 L 7.296875 -9.8125 C 6.960938 -10.21875 6.570312 -10.503906 6.125 -10.671875 C 5.6875 -10.847656 5.222656 -10.9375 4.734375 -10.9375 C 4.378906 -10.9375 4.054688 -10.878906 3.765625 -10.765625 C 3.484375 -10.648438 3.242188 -10.507812 3.046875 -10.34375 C 2.878906 -10.195312 2.753906 -10.019531 2.671875 -9.8125 C 2.597656 -9.613281 2.5625 -9.398438 2.5625 -9.171875 C 2.5625 -9.015625 2.582031 -8.859375 2.625 -8.703125 C 2.675781 -8.546875 2.789062 -8.382812 2.96875 -8.21875 C 3.144531 -8.050781 3.398438 -7.890625 3.734375 -7.734375 C 4.078125 -7.578125 4.539062 -7.421875 5.125 -7.265625 C 5.820312 -7.085938 6.40625 -6.894531 6.875 -6.6875 C 7.351562 -6.488281 7.757812 -6.25 8.09375 -5.96875 C 8.851562 -5.34375 9.234375 -4.507812 9.234375 -3.46875 Z M 9.234375 -3.46875 "/></g></g></g></svg>