<svg xmlns="http://www.w3.org/2000/svg" xmlns:xlink="http://www.w3.org/1999/xlink" width="45" zoomAndPan="magnify" viewBox="0 0 33.75 43.499998" height="58" preserveAspectRatio="xMidYMid meet" version="1.0"><defs><clipPath id="bc74f102d3"><path d="M 0.0664062 13.925781 L 32.980469 13.925781 L 32.980469 42.570312 L 0.0664062 42.570312 Z M 0.0664062 13.925781 " clip-rule="nonzero"/></clipPath></defs><g clip-path="url(#bc74f102d3)"><path fill="#000000" d="M 32.9375 20.550781 C 32.933594 20.488281 32.921875 20.425781 32.898438 20.367188 C 32.894531 20.351562 32.886719 20.335938 32.878906 20.320312 C 32.855469 20.269531 32.824219 20.226562 32.789062 20.1875 C 32.78125 20.179688 32.777344 20.171875 32.773438 20.164062 C 32.734375 20.125 32.691406 20.09375 32.644531 20.070312 L 21.15625 14.015625 C 20.996094 13.929688 20.808594 13.929688 20.652344 14.011719 L 0.40625 24.472656 C 0.359375 24.496094 0.316406 24.53125 0.277344 24.566406 C 0.269531 24.574219 0.265625 24.585938 0.257812 24.59375 C 0.222656 24.632812 0.191406 24.675781 0.167969 24.722656 C 0.160156 24.738281 0.15625 24.753906 0.148438 24.769531 C 0.125 24.832031 0.113281 24.894531 0.109375 24.960938 L 0.109375 35.972656 C 0.109375 36.175781 0.222656 36.363281 0.402344 36.460938 L 11.894531 42.515625 C 11.917969 42.527344 11.941406 42.535156 11.964844 42.542969 C 11.980469 42.546875 11.992188 42.554688 12.007812 42.558594 C 12.054688 42.570312 12.097656 42.578125 12.144531 42.578125 L 12.148438 42.578125 C 12.226562 42.578125 12.304688 42.558594 12.375 42.523438 C 12.382812 42.519531 12.390625 42.519531 12.398438 42.515625 L 32.640625 32.058594 C 32.824219 31.964844 32.9375 31.773438 32.9375 31.566406 Z M 11.597656 41.117188 L 1.203125 35.640625 L 1.203125 25.871094 L 11.597656 31.351562 Z M 12.148438 30.398438 L 1.84375 24.964844 L 20.898438 15.121094 L 31.203125 20.550781 Z M 31.84375 31.230469 L 12.695312 41.125 L 12.695312 31.355469 L 31.84375 21.457031 Z M 31.84375 31.230469 " fill-opacity="1" fill-rule="nonzero"/></g><path fill="#000000" d="M 11.050781 23.859375 C 9.179688 23.859375 7.769531 24.6875 7.769531 25.789062 C 7.769531 26.886719 9.179688 27.714844 11.050781 27.714844 C 12.925781 27.714844 14.335938 26.886719 14.335938 25.789062 C 14.335938 24.6875 12.925781 23.859375 11.050781 23.859375 Z M 11.050781 26.613281 C 9.695312 26.613281 8.863281 26.078125 8.863281 25.789062 C 8.863281 25.496094 9.695312 24.960938 11.050781 24.960938 C 12.410156 24.960938 13.242188 25.496094 13.242188 25.789062 C 13.242188 26.078125 12.410156 26.613281 11.050781 26.613281 Z M 11.050781 26.613281 " fill-opacity="1" fill-rule="nonzero"/><path fill="#000000" d="M 16.796875 20.832031 C 14.925781 20.832031 13.515625 21.660156 13.515625 22.757812 C 13.515625 23.859375 14.925781 24.6875 16.796875 24.6875 C 18.667969 24.6875 20.078125 23.859375 20.078125 22.757812 C 20.078125 21.660156 18.667969 20.832031 16.796875 20.832031 Z M 16.796875 23.585938 C 15.441406 23.585938 14.609375 23.050781 14.609375 22.757812 C 14.609375 22.46875 15.441406 21.933594 16.796875 21.933594 C 18.15625 21.933594 18.984375 22.46875 18.984375 22.757812 C 18.984375 23.050781 18.15625 23.585938 16.796875 23.585938 Z M 16.796875 23.585938 " fill-opacity="1" fill-rule="nonzero"/><path fill="#000000" d="M 22.542969 17.804688 C 20.671875 17.804688 19.257812 18.632812 19.257812 19.730469 C 19.257812 20.828125 20.671875 21.65625 22.542969 21.65625 C 24.414062 21.65625 25.824219 20.828125 25.824219 19.730469 C 25.824219 18.632812 24.414062 17.804688 22.542969 17.804688 Z M 22.542969 20.558594 C 21.183594 20.558594 20.355469 20.023438 20.355469 19.730469 C 20.355469 19.441406 21.183594 18.90625 22.542969 18.90625 C 23.898438 18.90625 24.730469 19.441406 24.730469 19.730469 C 24.730469 20.023438 23.898438 20.558594 22.542969 20.558594 Z M 22.542969 20.558594 " fill-opacity="1" fill-rule="nonzero"/><path stroke-linecap="round" transform="matrix(-0.0135621, 0.609315, -0.609315, -0.0135621, 14.221998, 4.430664)" fill="none" stroke-linejoin="miter" d="M 1.001574 1.002369 L 14.381022 0.99947 " stroke="#000000" stroke-width="2" stroke-opacity="1" stroke-miterlimit="4"/><path stroke-linecap="round" transform="matrix(0.00000000106372, 0.609466, -0.609466, 0.00000000106372, 5.690814, 0.00176753)" fill="none" stroke-linejoin="miter" d="M 0.99695 0.998879 L 19.846688 0.998879 " stroke="#000000" stroke-width="2" stroke-opacity="1" stroke-miterlimit="4"/><path stroke-linecap="round" transform="matrix(0, 0.609466, -0.609466, 0, 5.690772, 13.788092)" fill="none" stroke-linejoin="miter" d="M 1.001443 0.99881 L 7.269734 0.99881 " stroke="#000000" stroke-width="2" stroke-opacity="1" stroke-miterlimit="4"/><path stroke-linecap="round" transform="matrix(0, 0.609466, -0.609466, 0, 24.412538, 0.00180909)" fill="none" stroke-linejoin="miter" d="M 0.996882 0.997348 L 7.271582 0.997348 " stroke="#000000" stroke-width="2" stroke-opacity="1" stroke-miterlimit="4"/><path stroke-linecap="round" transform="matrix(0, 0.609466, -0.609466, 0, 24.412538, 6.964825)" fill="none" stroke-linejoin="miter" d="M 0.99988 0.997348 L 7.274581 0.997348 " stroke="#000000" stroke-width="2" stroke-opacity="1" stroke-miterlimit="4"/></svg>