<svg xmlns="http://www.w3.org/2000/svg" xmlns:xlink="http://www.w3.org/1999/xlink" width="51" zoomAndPan="magnify" viewBox="0 0 38.25 38.249999" height="51" preserveAspectRatio="xMidYMid meet" version="1.0"><defs><clipPath id="877de8f8ae"><path d="M 0 0 L 37.515625 0 L 37.515625 37.515625 L 0 37.515625 Z M 0 0 " clip-rule="nonzero"/></clipPath></defs><path fill="#000000" d="M 18.757812 3.75 C 25.6875 3.75 29.75 4.976562 30.007812 5.621094 C 29.945312 5.714844 29.449219 6.339844 26.484375 6.886719 C 24.34375 7.285156 21.601562 7.503906 18.757812 7.503906 C 15.914062 7.503906 13.171875 7.285156 11.03125 6.886719 C 8.058594 6.335938 7.5625 5.710938 7.507812 5.632812 C 7.785156 4.96875 11.84375 3.75 18.757812 3.75 Z M 10.804688 8.117188 C 13.015625 8.527344 15.839844 8.753906 18.757812 8.753906 C 21.675781 8.753906 24.5 8.527344 26.710938 8.117188 C 29.773438 7.550781 31.261719 6.734375 31.261719 5.628906 C 31.261719 3.160156 23.402344 2.5 18.757812 2.5 C 14.113281 2.5 6.253906 3.160156 6.253906 5.628906 C 6.253906 6.734375 7.742188 7.550781 10.804688 8.117188 " fill-opacity="1" fill-rule="nonzero"/><g clip-path="url(#877de8f8ae)"><path fill="#000000" d="M 36.265625 11.878906 C 36.265625 14.105469 35.832031 16.304688 35.011719 18.355469 L 35.011719 9.378906 L 36.265625 9.378906 Z M 18.757812 36.265625 C 9.914062 36.265625 3.75 33.957031 3.75 31.886719 L 3.75 23.105469 C 5.832031 25.882812 8.648438 28.042969 11.878906 29.320312 L 11.878906 30.636719 C 11.878906 30.980469 12.160156 31.261719 12.503906 31.261719 L 25.007812 31.261719 C 25.355469 31.261719 25.636719 30.980469 25.636719 30.636719 L 25.636719 29.320312 C 28.863281 28.042969 31.679688 25.882812 33.761719 23.105469 L 33.761719 31.886719 C 33.761719 33.957031 27.601562 36.265625 18.757812 36.265625 Z M 1.25 9.378906 L 2.5 9.378906 L 2.5 18.355469 C 1.683594 16.304688 1.25 14.105469 1.25 11.878906 Z M 18.757812 1.25 C 27.601562 1.25 33.761719 3.558594 33.761719 5.628906 C 33.761719 6.683594 32.019531 7.859375 29.207031 8.695312 C 26.363281 9.539062 22.652344 10.003906 18.757812 10.003906 C 14.257812 10.003906 10.007812 9.378906 7.097656 8.289062 C 5 7.507812 3.75 6.511719 3.75 5.628906 C 3.75 3.558594 9.914062 1.25 18.757812 1.25 Z M 18.757812 11.253906 C 22.417969 11.253906 25.925781 10.847656 28.761719 10.109375 L 28.761719 11.878906 C 28.761719 12.914062 27.917969 13.753906 26.886719 13.753906 C 25.160156 13.753906 23.757812 15.15625 23.757812 16.882812 L 23.757812 18.132812 C 23.757812 19.511719 22.636719 20.632812 21.257812 20.632812 C 19.878906 20.632812 18.757812 19.511719 18.757812 18.132812 L 18.757812 16.882812 C 18.757812 15.15625 17.355469 13.753906 15.632812 13.753906 C 13.90625 13.753906 12.503906 15.15625 12.503906 16.882812 L 12.503906 20.632812 C 12.503906 22.011719 11.382812 23.132812 10.003906 23.132812 C 8.625 23.132812 7.503906 22.011719 7.503906 20.632812 L 7.503906 9.746094 C 10.492188 10.707031 14.519531 11.253906 18.757812 11.253906 Z M 25.601562 27.980469 C 25.53125 27.710938 25.300781 27.511719 25.007812 27.511719 L 12.503906 27.511719 C 12.214844 27.511719 11.980469 27.710938 11.910156 27.980469 C 8.53125 26.539062 5.660156 24.054688 3.75 20.882812 L 3.75 7.875 C 4.363281 8.390625 5.203125 8.867188 6.253906 9.292969 L 6.253906 20.632812 C 6.253906 22.703125 7.933594 24.382812 10.003906 24.382812 C 12.074219 24.382812 13.753906 22.703125 13.753906 20.632812 L 13.753906 16.882812 C 13.753906 15.847656 14.597656 15.003906 15.632812 15.003906 C 16.664062 15.003906 17.507812 15.847656 17.507812 16.882812 L 17.507812 18.132812 C 17.507812 20.199219 19.191406 21.882812 21.257812 21.882812 C 23.328125 21.882812 25.007812 20.199219 25.007812 18.132812 L 25.007812 16.882812 C 25.007812 15.847656 25.851562 15.003906 26.886719 15.003906 C 28.609375 15.003906 30.011719 13.601562 30.011719 11.878906 L 30.011719 9.753906 C 31.664062 9.222656 32.921875 8.597656 33.761719 7.894531 L 33.761719 20.882812 C 31.855469 24.054688 28.984375 26.539062 25.601562 27.980469 Z M 13.128906 28.761719 L 24.382812 28.761719 L 24.382812 30.011719 L 13.128906 30.011719 Z M 37.515625 8.753906 C 37.515625 8.40625 37.234375 8.128906 36.890625 8.128906 L 35.011719 8.128906 L 35.011719 5.628906 C 35.011719 1.972656 26.636719 0 18.757812 0 C 10.875 0 2.5 1.972656 2.5 5.628906 L 2.5 8.128906 L 0.625 8.128906 C 0.28125 8.128906 0 8.40625 0 8.753906 L 0 11.878906 C 0 15.160156 0.867188 18.386719 2.5 21.222656 L 2.5 31.886719 C 2.5 35.542969 10.875 37.515625 18.757812 37.515625 C 26.636719 37.515625 35.011719 35.542969 35.011719 31.886719 L 35.011719 21.222656 C 36.648438 18.386719 37.515625 15.160156 37.515625 11.878906 L 37.515625 8.753906 " fill-opacity="1" fill-rule="nonzero"/></g></svg>