<svg xmlns="http://www.w3.org/2000/svg" xmlns:xlink="http://www.w3.org/1999/xlink" width="47" zoomAndPan="magnify" viewBox="0 0 35.25 36.75" height="49" preserveAspectRatio="xMidYMid meet" version="1.0"><defs><clipPath id="076c76cbb2"><path d="M 0 1 L 34.515625 1 L 34.515625 36 L 0 36 Z M 0 1 " clip-rule="nonzero"/></clipPath><clipPath id="e3d29842aa"><path d="M 8 0.261719 L 34 0.261719 L 34 31 L 8 31 Z M 8 0.261719 " clip-rule="nonzero"/></clipPath><clipPath id="99f022c356"><path d="M 2 10 L 30 10 L 30 36.246094 L 2 36.246094 Z M 2 10 " clip-rule="nonzero"/></clipPath></defs><path fill="#000000" d="M 8.632812 14.261719 C 7.035156 14.261719 5.714844 15.527344 5.714844 17.101562 C 5.714844 18.675781 7.003906 19.9375 8.632812 19.9375 C 10.257812 19.9375 11.550781 18.675781 11.550781 17.101562 C 11.550781 15.527344 10.230469 14.261719 8.632812 14.261719 Z M 8.632812 18.84375 C 7.652344 18.84375 6.835938 18.054688 6.835938 17.128906 C 6.835938 16.199219 7.652344 15.414062 8.632812 15.414062 C 9.613281 15.414062 10.429688 16.199219 10.429688 17.128906 C 10.429688 18.054688 9.613281 18.84375 8.632812 18.84375 Z M 8.632812 18.84375 " fill-opacity="1" fill-rule="nonzero"/><path fill="#000000" d="M 7.761719 24.550781 C 7.761719 26.125 9.054688 27.390625 10.679688 27.390625 C 12.308594 27.390625 13.597656 26.125 13.597656 24.550781 C 13.597656 22.976562 12.308594 21.710938 10.679688 21.710938 C 9.054688 21.710938 7.761719 22.976562 7.761719 24.550781 Z M 12.476562 24.550781 C 12.476562 25.503906 11.660156 26.265625 10.679688 26.265625 C 9.699219 26.265625 8.886719 25.476562 8.886719 24.550781 C 8.886719 23.621094 9.699219 22.835938 10.679688 22.835938 C 11.660156 22.835938 12.476562 23.59375 12.476562 24.550781 Z M 12.476562 24.550781 " fill-opacity="1" fill-rule="nonzero"/><path fill="#000000" d="M 19.738281 29.386719 C 19.738281 27.8125 18.449219 26.546875 16.824219 26.546875 C 15.195312 26.546875 13.90625 27.8125 13.90625 29.386719 C 13.90625 30.960938 15.195312 32.226562 16.824219 32.226562 C 18.449219 32.226562 19.738281 30.960938 19.738281 29.386719 Z M 15.054688 29.386719 C 15.054688 28.429688 15.871094 27.671875 16.851562 27.671875 C 17.832031 27.671875 18.644531 28.457031 18.644531 29.386719 C 18.644531 30.3125 17.832031 31.101562 16.851562 31.101562 C 15.839844 31.128906 15.054688 30.339844 15.054688 29.386719 Z M 15.054688 29.386719 " fill-opacity="1" fill-rule="nonzero"/><path fill="#000000" d="M 14.46875 11.675781 C 14.832031 11.195312 15.054688 10.605469 15.054688 9.960938 C 15.054688 8.386719 13.765625 7.121094 12.140625 7.121094 C 11.382812 7.121094 10.707031 7.402344 10.175781 7.878906 C 10.566406 7.90625 10.933594 8.105469 11.214844 8.386719 L 11.296875 8.46875 C 11.550781 8.328125 11.832031 8.273438 12.140625 8.273438 C 13.121094 8.273438 13.933594 9.058594 13.933594 9.988281 C 13.933594 10.324219 13.820312 10.632812 13.679688 10.886719 Z M 14.46875 11.675781 " fill-opacity="1" fill-rule="nonzero"/><g clip-path="url(#076c76cbb2)"><path fill="#000000" d="M 0.554688 1.804688 C 0.246094 1.835938 0.0507812 2.117188 0.078125 2.425781 C 0.105469 2.707031 0.359375 2.902344 0.636719 2.902344 C 1.957031 3.410156 2.460938 4.898438 3.023438 6.445312 C 3.753906 8.46875 4.621094 10.941406 7.707031 10.941406 C 7.761719 10.941406 7.847656 10.941406 7.902344 10.941406 C 7.875 11 7.875 11.082031 7.875 11.140625 C 7.875 11.28125 7.929688 11.421875 8.042969 11.535156 L 31.859375 34.953125 C 32.195312 35.289062 32.644531 35.457031 33.035156 35.457031 C 33.371094 35.457031 33.707031 35.34375 33.933594 35.09375 C 34.464844 34.558594 34.410156 33.628906 33.792969 32.984375 L 10.398438 9.144531 C 10.316406 9.03125 10.175781 8.976562 10.007812 8.976562 C 9.980469 8.976562 9.921875 8.976562 9.894531 8.976562 C 8.855469 4.363281 4.847656 1.1875 0.554688 1.804688 Z M 16.09375 16.539062 L 32.980469 33.769531 C 33.175781 33.96875 33.203125 34.21875 33.148438 34.304688 C 33.0625 34.390625 32.839844 34.359375 32.613281 34.164062 L 15.421875 17.210938 Z M 10.007812 10.351562 L 15.308594 15.75 L 14.605469 16.453125 L 9.222656 11.140625 Z M 4.0625 6.078125 C 3.667969 4.957031 3.246094 3.773438 2.488281 2.929688 C 5.601562 3.351562 8.269531 6.078125 8.886719 9.679688 C 5.601562 10.351562 4.929688 8.441406 4.0625 6.078125 Z M 4.0625 6.078125 " fill-opacity="1" fill-rule="nonzero"/></g><g clip-path="url(#e3d29842aa)"><path fill="#000000" d="M 28.742188 14.34375 C 28.773438 14.34375 28.800781 14.34375 28.828125 14.34375 L 29.277344 14.234375 C 29.417969 14.203125 29.558594 14.09375 29.640625 13.980469 L 31.101562 11.503906 C 31.859375 10.210938 32.644531 8.890625 32.445312 7.175781 C 32.277344 5.742188 31.378906 4.363281 29.894531 3.242188 C 27.453125 1.386719 23.917969 0.261719 20.636719 0.261719 C 16.207031 0.261719 12.109375 1.804688 8.941406 4.363281 C 9.164062 4.644531 9.390625 4.957031 9.585938 5.292969 C 12.585938 2.847656 16.457031 1.386719 20.636719 1.386719 C 23.695312 1.386719 26.949219 2.425781 29.164062 4.113281 C 30.035156 4.757812 31.101562 5.855469 31.296875 7.289062 C 31.464844 8.609375 30.847656 9.679688 30.117188 10.914062 L 28.800781 13.191406 L 28.605469 13.25 C 26.949219 13.390625 25.433594 14.175781 24.425781 15.386719 C 23.527344 16.453125 23.105469 17.773438 23.21875 19.125 C 23.300781 19.996094 23.609375 20.8125 24.085938 21.484375 L 25.433594 22.835938 C 26.5 23.621094 27.875 24.042969 29.332031 23.988281 L 29.613281 24.324219 C 29.867188 24.664062 30.175781 25.027344 30.484375 25.394531 C 31.378906 26.460938 32.503906 27.78125 32.503906 28.851562 C 32.503906 29.246094 32.472656 29.609375 32.390625 29.949219 L 33.289062 30.875 C 33.511719 30.257812 33.625 29.582031 33.625 28.851562 C 33.625 27.359375 32.390625 25.925781 31.324219 24.664062 C 31.015625 24.296875 30.707031 23.929688 30.484375 23.621094 C 30.484375 23.621094 30.453125 23.59375 30.453125 23.59375 L 29.949219 23.03125 C 29.839844 22.890625 29.667969 22.835938 29.472656 22.835938 C 26.835938 23.058594 24.507812 21.316406 24.3125 18.984375 C 24.226562 17.945312 24.566406 16.902344 25.265625 16.058594 C 26.105469 15.105469 27.371094 14.457031 28.742188 14.34375 Z M 28.742188 14.34375 " fill-opacity="1" fill-rule="nonzero"/></g><g clip-path="url(#99f022c356)"><path fill="#000000" d="M 3.976562 10.578125 C 2.855469 12.910156 2.210938 15.496094 2.210938 18.253906 C 2.210938 28.175781 10.484375 36.246094 20.664062 36.246094 C 22.574219 36.246094 26.667969 36.046875 29.78125 34.5 L 28.941406 33.660156 C 25.96875 35.007812 22.066406 35.121094 20.695312 35.121094 C 11.128906 35.121094 3.359375 27.558594 3.359375 18.253906 C 3.359375 15.777344 3.921875 13.417969 4.902344 11.308594 C 4.539062 11.082031 4.230469 10.859375 3.976562 10.578125 Z M 3.976562 10.578125 " fill-opacity="1" fill-rule="nonzero"/></g></svg>