<svg xmlns="http://www.w3.org/2000/svg" xmlns:xlink="http://www.w3.org/1999/xlink" width="67" zoomAndPan="magnify" viewBox="0 0 50.25 33.749999" height="45" preserveAspectRatio="xMidYMid meet" version="1.0"><defs><clipPath id="c2fd7fc1c6"><path d="M 8 0.125 L 47 0.125 L 47 32 L 8 32 Z M 8 0.125 " clip-rule="nonzero"/></clipPath></defs><g clip-path="url(#c2fd7fc1c6)"><path fill="#000000" d="M 38.070312 20.171875 C 37.839844 20.089844 37.652344 19.910156 37.566406 19.6875 L 33.460938 8.964844 C 33.164062 8.191406 32.332031 7.757812 31.523438 7.953125 C 30.734375 8.144531 28.691406 8.480469 26.808594 7.421875 C 25 6.410156 23.945312 4.328125 24.128906 2.128906 C 24.195312 1.324219 23.632812 0.589844 22.820312 0.421875 C 21.609375 0.167969 20.433594 0.160156 19.316406 0.40625 C 15.972656 1.136719 12.855469 5.105469 11.980469 6.503906 C 11.035156 6.746094 9.835938 7.328125 8.859375 8.679688 C 7.402344 10.699219 8.242188 15.425781 15.09375 18.609375 C 21.230469 21.460938 20.886719 23.363281 24.914062 28.273438 C 27.898438 31.910156 36.386719 32.605469 40.429688 31.285156 C 43.574219 30.257812 45.320312 28.351562 46.363281 27.003906 C 48.761719 24.355469 41.457031 21.347656 38.070312 20.171875 Z M 45.179688 25.863281 C 44.960938 26.441406 41.390625 27.617188 33.851562 27.097656 C 31.976562 26.96875 30.519531 26.050781 29.191406 24.714844 C 34.234375 25.71875 32.402344 21.667969 36.5 21.011719 C 36.777344 21.324219 37.121094 21.570312 37.527344 21.710938 C 41.765625 23.183594 45.117188 25.167969 45.179688 25.863281 Z M 19.3125 10.535156 C 21.1875 11.589844 22.984375 11.8125 24.835938 11.902344 C 27.242188 12.023438 27.589844 12.316406 27.414062 14.96875 C 27.257812 17.390625 27.273438 20.074219 29.625 23.148438 C 28.929688 23.023438 28.101562 22.75 27.148438 22.324219 C 26.851562 21.9375 26.550781 21.539062 26.246094 21.132812 C 22.058594 15.5625 22 16.527344 17.660156 12.78125 C 18.351562 12.136719 18.90625 11.375 19.3125 10.535156 Z M 19.671875 1.996094 C 20.566406 1.804688 21.480469 1.808594 22.488281 2.023438 C 22.265625 4.847656 23.644531 7.523438 26 8.84375 C 28.394531 10.1875 30.933594 9.777344 31.925781 9.546875 L 32.246094 10.378906 L 30.695312 10.765625 C 29.632812 11.027344 30.046875 12.609375 31.089844 12.347656 L 32.832031 11.914062 L 33.097656 12.605469 L 31.378906 13.03125 C 30.320312 13.296875 30.726562 14.875 31.777344 14.613281 L 33.683594 14.140625 L 33.945312 14.824219 L 32.042969 15.296875 C 31 15.554688 31.375 17.144531 32.441406 16.878906 L 34.535156 16.359375 L 34.863281 17.214844 L 32.953125 17.691406 C 31.890625 17.953125 32.304688 19.535156 33.347656 19.269531 L 35.449219 18.75 L 35.734375 19.492188 C 32.554688 20.230469 32.390625 22.3125 31.570312 22.925781 C 28.777344 19.84375 28.921875 17.117188 29.054688 15.078125 C 29.273438 11.75 28.515625 10.453125 24.917969 10.273438 C 23.898438 10.222656 21.78125 10.15625 19.867188 8.972656 C 20.390625 6.707031 19.851562 4.3125 18.398438 2.476562 C 18.820312 2.261719 19.246094 2.089844 19.671875 1.996094 Z M 17.007812 3.375 C 18.34375 4.996094 18.792969 7.269531 18.097656 9.238281 C 17.765625 10.175781 17.195312 11 16.445312 11.671875 C 15.101562 10.363281 13.949219 8.910156 13.402344 7.304688 C 13.875 6.554688 15.292969 4.699219 17.007812 3.375 Z M 39.917969 29.734375 C 36.363281 30.898438 28.632812 30.226562 26.1875 27.242188 C 22.304688 22.507812 22.359375 20.183594 15.789062 17.128906 C 10.210938 14.539062 9.277344 10.902344 10.195312 9.628906 C 10.683594 8.953125 11.285156 8.480469 11.992188 8.210938 C 13.285156 11.503906 16.519531 14.035156 19.15625 16.097656 C 21.734375 18.109375 22.183594 18.449219 24.929688 22.109375 C 27.269531 25.222656 29.691406 28.445312 33.738281 28.722656 C 36.378906 28.90625 39.808594 28.929688 42.433594 28.527344 C 41.734375 28.992188 40.910156 29.410156 39.917969 29.734375 Z M 39.917969 29.734375 " fill-opacity="1" fill-rule="nonzero"/></g><path fill="#000000" d="M 13.480469 21.457031 L 2.71875 21.457031 C 1.632812 21.457031 1.632812 19.828125 2.71875 19.828125 L 13.480469 19.828125 C 14.566406 19.828125 14.566406 21.457031 13.480469 21.457031 Z M 13.480469 21.457031 " fill-opacity="1" fill-rule="nonzero"/><path fill="#000000" d="M 11.835938 25.535156 L 1.078125 25.535156 C -0.0078125 25.535156 -0.0078125 23.90625 1.078125 23.90625 L 11.835938 23.90625 C 12.921875 23.90625 12.921875 25.535156 11.835938 25.535156 Z M 11.835938 25.535156 " fill-opacity="1" fill-rule="nonzero"/><path fill="#000000" d="M 15.121094 29.613281 L 4.359375 29.613281 C 3.277344 29.613281 3.273438 27.984375 4.359375 27.984375 L 15.121094 27.984375 C 16.207031 27.984375 16.207031 29.613281 15.121094 29.613281 Z M 15.121094 29.613281 " fill-opacity="1" fill-rule="nonzero"/></svg>