<svg xmlns="http://www.w3.org/2000/svg" xmlns:xlink="http://www.w3.org/1999/xlink" width="73" zoomAndPan="magnify" viewBox="0 0 54.75 31.5" height="42" preserveAspectRatio="xMidYMid meet" version="1.0"><defs><clipPath id="add9359a6f"><path d="M 0.304688 0 L 53.460938 0 L 53.460938 31.007812 L 0.304688 31.007812 Z M 0.304688 0 " clip-rule="nonzero"/></clipPath></defs><g clip-path="url(#add9359a6f)"><path fill="#000000" d="M 50.746094 8.90625 C 49.527344 7.960938 47.945312 7.441406 46.304688 7.441406 C 46.304688 7.441406 46.296875 7.441406 46.296875 7.441406 C 44.746094 7.441406 43.097656 7.941406 41.546875 8.882812 C 41.410156 8.96875 41.269531 9.054688 41.128906 9.152344 C 41.046875 8.820312 40.96875 8.480469 40.890625 8.152344 C 40.722656 7.417969 40.539062 6.660156 40.324219 5.917969 C 39.980469 4.753906 39.472656 3.265625 38.566406 2.074219 C 38.117188 1.488281 37.621094 1.050781 37.097656 0.757812 C 36.351562 0.355469 35.539062 0.113281 34.742188 0.0742188 C 33.285156 0 31.976562 0.648438 30.882812 1.300781 C 30.734375 1.386719 30.59375 1.476562 30.449219 1.5625 C 30.082031 1.785156 29.707031 2.011719 29.324219 2.207031 C 29.199219 2.269531 29.085938 2.328125 28.972656 2.378906 L 28.945312 2.390625 C 28.933594 2.394531 28.921875 2.402344 28.910156 2.40625 L 28.851562 2.429688 C 28.78125 2.457031 28.714844 2.480469 28.648438 2.503906 C 28.523438 2.542969 28.402344 2.578125 28.285156 2.605469 C 28.230469 2.617188 28.167969 2.628906 28.109375 2.640625 L 28.105469 2.640625 C 28.097656 2.640625 28.097656 2.640625 28.09375 2.640625 L 28.089844 2.640625 C 28.066406 2.640625 28.042969 2.644531 28.027344 2.644531 C 27.996094 2.644531 27.976562 2.644531 27.953125 2.644531 L 27.941406 2.644531 C 27.929688 2.644531 27.917969 2.644531 27.894531 2.640625 L 27.875 2.632812 C 27.789062 2.617188 27.714844 2.601562 27.636719 2.570312 C 27.558594 2.546875 27.476562 2.515625 27.40625 2.484375 L 27.285156 2.433594 C 27.230469 2.410156 27.179688 2.382812 27.121094 2.355469 C 26.816406 2.207031 26.519531 2.046875 26.226562 1.886719 C 26.027344 1.777344 25.828125 1.671875 25.625 1.566406 C 24.492188 0.988281 23.265625 0.46875 21.996094 0.648438 C 21.355469 0.742188 20.738281 1.050781 20.21875 1.535156 C 19.949219 1.789062 19.695312 2.105469 19.429688 2.519531 C 19.15625 2.949219 18.894531 3.386719 18.636719 3.835938 C 17.730469 5.441406 16.949219 7.230469 16.1875 9.476562 L 16.066406 9.835938 C 14.8125 9.226562 13.582031 8.636719 12.3125 8.132812 C 11 7.613281 9.449219 7.082031 7.855469 7.082031 C 7.847656 7.082031 7.835938 7.082031 7.828125 7.082031 C 6.191406 7.085938 4.640625 7.5625 3.460938 8.410156 C 2.105469 9.386719 1.214844 10.863281 0.878906 12.691406 C 0.332031 15.636719 0.867188 18.863281 2.375 21.789062 C 3.730469 24.40625 5.886719 26.695312 8.449219 28.242188 C 9.71875 29.007812 11.160156 29.609375 12.730469 30.042969 C 14.5 30.527344 16.066406 30.824219 17.507812 30.949219 C 17.960938 30.992188 18.40625 31.007812 18.84375 31.007812 C 20.445312 31.007812 21.964844 30.746094 23.367188 30.226562 C 23.375 30.226562 23.386719 30.226562 23.398438 30.226562 C 25.152344 29.980469 27 29.652344 28.871094 29.238281 C 31.039062 28.765625 33.164062 28.214844 35.179688 27.585938 C 37.464844 26.878906 39.625 26.070312 41.605469 25.191406 C 43.820312 24.207031 45.695312 23.179688 47.347656 22.039062 C 49.226562 20.742188 50.683594 19.414062 51.796875 17.980469 C 51.964844 17.757812 52.117188 17.558594 52.246094 17.367188 C 53.101562 16.199219 53.433594 14.582031 53.152344 12.921875 C 52.886719 11.324219 52.027344 9.898438 50.746094 8.90625 Z M 52.078125 14.894531 C 51.960938 15.59375 51.699219 16.226562 51.300781 16.769531 C 51.238281 16.859375 51.167969 16.945312 51.105469 17.039062 C 51.074219 17.082031 51.046875 17.125 51.011719 17.167969 C 51 17.179688 50.984375 17.207031 50.945312 17.253906 L 50.925781 17.277344 C 50.792969 17.449219 50.644531 17.625 50.496094 17.796875 C 50.199219 18.144531 49.871094 18.484375 49.527344 18.824219 C 49.1875 19.152344 48.828125 19.476562 48.441406 19.796875 C 48.054688 20.121094 47.742188 20.363281 47.308594 20.679688 C 45.722656 21.832031 43.90625 22.882812 41.75 23.886719 C 39.867188 24.757812 37.84375 25.539062 35.539062 26.28125 C 33.550781 26.917969 31.445312 27.496094 29.277344 27.984375 C 28.335938 28.203125 27.359375 28.402344 26.371094 28.585938 C 28.808594 26.816406 30.667969 24.351562 32.035156 22.363281 C 32.847656 21.183594 33.652344 19.972656 34.433594 18.800781 C 34.765625 18.304688 35.097656 17.800781 35.433594 17.304688 L 35.476562 17.242188 C 36.335938 15.960938 37.226562 14.636719 38.214844 13.417969 C 38.226562 13.40625 38.238281 13.386719 38.25 13.378906 C 38.441406 13.136719 38.609375 12.945312 38.769531 12.761719 C 40.34375 10.964844 43.542969 8.035156 47.300781 8.636719 C 48.855469 8.890625 50.230469 9.671875 51.078125 10.792969 C 51.925781 11.929688 52.308594 13.496094 52.078125 14.894531 Z M 29.476562 16 C 30.925781 15.921875 32.351562 15.699219 33.710938 15.339844 C 34.472656 15.140625 35.210938 14.894531 35.917969 14.609375 C 35.421875 15.308594 34.941406 16.027344 34.476562 16.722656 L 34.21875 17.105469 C 33.90625 17.574219 33.597656 18.035156 33.285156 18.503906 C 32.96875 18.976562 32.65625 19.449219 32.339844 19.921875 C 32.269531 19.917969 32.199219 19.917969 32.125 19.941406 C 29.808594 20.554688 27.40625 20.789062 24.964844 20.628906 C 22.578125 20.476562 20.214844 19.945312 17.9375 19.042969 C 16.832031 18.605469 15.730469 18.0625 14.660156 17.417969 L 16.042969 13.359375 C 18.902344 14.339844 21.957031 15.320312 25.175781 15.777344 C 26.722656 16.003906 28.132812 16.074219 29.476562 16 Z M 13.507812 17.335938 C 13.496094 17.367188 13.492188 17.402344 13.484375 17.4375 C 13.378906 17.664062 13.398438 17.980469 13.6875 18.15625 C 15.863281 19.507812 18.214844 20.5 20.691406 21.109375 C 23.183594 21.71875 25.710938 21.9375 28.210938 21.742188 C 29.289062 21.65625 30.367188 21.503906 31.425781 21.269531 C 31.238281 21.542969 31.050781 21.816406 30.863281 22.085938 C 29.652344 23.835938 28.554688 25.152344 27.433594 26.230469 C 25.382812 28.183594 23.164062 29.367188 20.847656 29.734375 C 19.675781 29.925781 18.382812 29.925781 16.898438 29.746094 C 15.371094 29.566406 13.785156 29.210938 12.1875 28.703125 C 9.453125 27.835938 7.011719 26.183594 5.128906 23.921875 C 3.273438 21.691406 2.109375 18.953125 1.855469 16.210938 C 1.671875 14.226562 1.855469 12.652344 2.425781 11.386719 C 3.019531 10.070312 4.136719 9.078125 5.578125 8.585938 C 6.871094 8.148438 8.296875 8.109375 9.707031 8.460938 C 11.3125 8.867188 12.851562 9.558594 14.167969 10.179688 C 14.675781 10.417969 15.191406 10.667969 15.699219 10.917969 Z M 32.460938 1.714844 C 32.535156 1.683594 32.605469 1.648438 32.675781 1.613281 L 32.746094 1.585938 C 32.773438 1.574219 32.800781 1.5625 32.835938 1.550781 C 33.140625 1.429688 33.4375 1.335938 33.726562 1.277344 C 33.890625 1.242188 34.054688 1.21875 34.230469 1.207031 C 33.710938 1.722656 33.234375 2.28125 32.765625 2.828125 C 32.078125 3.632812 31.367188 4.464844 30.539062 5.144531 C 30.113281 5.492188 29.617188 5.816406 29.105469 6.089844 C 28.527344 6.390625 28.070312 6.515625 27.570312 6.507812 C 26.53125 6.484375 25.484375 5.925781 24.699219 4.976562 C 24.046875 4.191406 23.582031 3.140625 23.3125 1.851562 C 23.46875 1.894531 23.632812 1.9375 23.796875 1.996094 C 23.921875 2.035156 24.050781 2.085938 24.183594 2.136719 L 24.277344 2.179688 C 24.277344 2.179688 24.292969 2.183594 24.292969 2.183594 C 24.375 2.21875 24.453125 2.253906 24.527344 2.292969 C 24.925781 2.480469 25.328125 2.691406 25.710938 2.898438 C 25.820312 2.953125 25.925781 3.011719 26.035156 3.066406 L 26.066406 3.085938 C 26.492188 3.308594 26.925781 3.539062 27.394531 3.679688 C 28.503906 4.003906 29.65625 3.328125 30.5 2.832031 C 30.671875 2.730469 30.84375 2.628906 31.011719 2.527344 C 31.355469 2.320312 31.707031 2.105469 32.0625 1.914062 C 32.203125 1.847656 32.332031 1.777344 32.460938 1.714844 Z M 21.6875 1.898438 C 21.710938 1.886719 21.738281 1.882812 21.761719 1.871094 C 21.816406 1.851562 21.867188 1.835938 21.925781 1.820312 C 21.992188 1.800781 22.054688 1.785156 22.121094 1.773438 C 22.132812 1.773438 22.144531 1.769531 22.160156 1.769531 C 22.617188 4.257812 24.082031 7.054688 26.863281 7.554688 C 27.5625 7.679688 28.246094 7.640625 28.828125 7.441406 C 29.378906 7.253906 29.96875 6.933594 30.628906 6.472656 C 31.6875 5.730469 32.542969 4.800781 33.234375 3.992188 L 33.445312 3.746094 C 34.144531 2.925781 34.867188 2.082031 35.695312 1.378906 C 36 1.472656 36.277344 1.589844 36.53125 1.726562 C 36.644531 1.789062 36.757812 1.859375 36.867188 1.9375 C 36.886719 1.957031 36.910156 1.972656 36.925781 1.984375 L 36.984375 2.03125 C 37.039062 2.074219 37.097656 2.125 37.152344 2.171875 C 37.25 2.265625 37.351562 2.359375 37.441406 2.46875 C 37.492188 2.527344 37.542969 2.582031 37.59375 2.644531 C 37.617188 2.675781 37.644531 2.707031 37.671875 2.742188 L 37.695312 2.777344 C 37.875 3.023438 38.046875 3.285156 38.199219 3.5625 C 38.546875 4.203125 38.769531 4.75 38.980469 5.378906 C 39.367188 6.5 39.644531 7.679688 39.902344 8.820312 L 39.957031 9.066406 C 40.015625 9.3125 40.070312 9.550781 40.132812 9.796875 C 40.140625 9.820312 40.144531 9.839844 40.15625 9.859375 C 39.226562 10.605469 38.320312 11.511719 37.414062 12.625 C 35.308594 13.855469 32.710938 14.621094 29.894531 14.835938 C 27.335938 15.03125 24.578125 14.707031 21.210938 13.800781 C 19.53125 13.34375 17.847656 12.789062 16.410156 12.300781 L 16.882812 10.90625 C 17.464844 9.191406 18.070312 7.414062 18.894531 5.757812 C 19.320312 4.898438 19.800781 4.042969 20.320312 3.222656 C 20.53125 2.890625 20.714844 2.632812 20.976562 2.382812 C 21.101562 2.265625 21.179688 2.207031 21.261719 2.144531 C 21.386719 2.058594 21.523438 1.984375 21.648438 1.921875 Z M 21.6875 1.898438 " fill-opacity="1" fill-rule="nonzero"/></g></svg>