<svg xmlns="http://www.w3.org/2000/svg" xmlns:xlink="http://www.w3.org/1999/xlink" width="42" zoomAndPan="magnify" viewBox="0 0 31.5 42.749999" height="57" preserveAspectRatio="xMidYMid meet" version="1.0"><defs><clipPath id="75e92e34d6"><path d="M 0 0.210938 L 31 0.210938 L 31 42.292969 L 0 42.292969 Z M 0 0.210938 " clip-rule="nonzero"/></clipPath></defs><g clip-path="url(#75e92e34d6)"><path fill="#000000" d="M 3.242188 1.039062 C 1.917969 1.039062 0.839844 2.113281 0.839844 3.429688 L 0.839844 39.074219 C 0.839844 40.390625 1.917969 41.464844 3.242188 41.464844 L 27.761719 41.464844 C 29.085938 41.464844 30.164062 40.390625 30.164062 39.074219 L 30.164062 3.429688 C 30.164062 2.113281 29.085938 1.039062 27.761719 1.039062 Z M 27.761719 42.292969 L 3.242188 42.292969 C 1.457031 42.292969 0.00390625 40.847656 0.00390625 39.074219 L 0.00390625 3.429688 C 0.00390625 1.65625 1.457031 0.210938 3.242188 0.210938 L 27.761719 0.210938 C 29.546875 0.210938 31 1.65625 31 3.429688 L 31 39.074219 C 31 40.847656 29.546875 42.292969 27.761719 42.292969 " fill-opacity="1" fill-rule="nonzero"/></g><path fill="#000000" d="M 4.167969 13.574219 L 26.835938 13.574219 L 26.835938 4.324219 L 4.167969 4.324219 Z M 27.253906 14.40625 L 3.75 14.40625 C 3.519531 14.40625 3.332031 14.21875 3.332031 13.992188 L 3.332031 3.90625 C 3.332031 3.679688 3.519531 3.492188 3.75 3.492188 L 27.253906 3.492188 C 27.484375 3.492188 27.671875 3.679688 27.671875 3.90625 L 27.671875 13.992188 C 27.671875 14.21875 27.484375 14.40625 27.253906 14.40625 " fill-opacity="1" fill-rule="nonzero"/><path fill="#000000" d="M 4.167969 23.164062 L 9.742188 23.164062 L 9.742188 18.441406 L 4.167969 18.441406 Z M 10.160156 23.992188 L 3.75 23.992188 C 3.519531 23.992188 3.332031 23.808594 3.332031 23.578125 L 3.332031 18.023438 C 3.332031 17.796875 3.519531 17.609375 3.75 17.609375 L 10.160156 17.609375 C 10.390625 17.609375 10.578125 17.796875 10.578125 18.023438 L 10.578125 23.578125 C 10.578125 23.808594 10.390625 23.992188 10.160156 23.992188 " fill-opacity="1" fill-rule="nonzero"/><path fill="#000000" d="M 12.667969 23.164062 L 18.242188 23.164062 L 18.242188 18.441406 L 12.667969 18.441406 Z M 18.660156 23.992188 L 12.25 23.992188 C 12.019531 23.992188 11.832031 23.808594 11.832031 23.578125 L 11.832031 18.023438 C 11.832031 17.796875 12.019531 17.609375 12.25 17.609375 L 18.660156 17.609375 C 18.890625 17.609375 19.078125 17.796875 19.078125 18.023438 L 19.078125 23.578125 C 19.078125 23.808594 18.890625 23.992188 18.660156 23.992188 " fill-opacity="1" fill-rule="nonzero"/><path fill="#000000" d="M 21.167969 23.164062 L 26.742188 23.164062 L 26.742188 18.441406 L 21.167969 18.441406 Z M 27.160156 23.992188 L 20.75 23.992188 C 20.519531 23.992188 20.332031 23.808594 20.332031 23.578125 L 20.332031 18.023438 C 20.332031 17.796875 20.519531 17.609375 20.75 17.609375 L 27.160156 17.609375 C 27.390625 17.609375 27.578125 17.796875 27.578125 18.023438 L 27.578125 23.578125 C 27.578125 23.808594 27.390625 23.992188 27.160156 23.992188 " fill-opacity="1" fill-rule="nonzero"/><path fill="#000000" d="M 4.167969 30.828125 L 9.742188 30.828125 L 9.742188 26.105469 L 4.167969 26.105469 Z M 10.160156 31.660156 L 3.75 31.660156 C 3.519531 31.660156 3.332031 31.472656 3.332031 31.242188 L 3.332031 25.6875 C 3.332031 25.460938 3.519531 25.273438 3.75 25.273438 L 10.160156 25.273438 C 10.390625 25.273438 10.578125 25.460938 10.578125 25.6875 L 10.578125 31.242188 C 10.578125 31.472656 10.390625 31.660156 10.160156 31.660156 " fill-opacity="1" fill-rule="nonzero"/><path fill="#000000" d="M 12.667969 30.828125 L 18.242188 30.828125 L 18.242188 26.105469 L 12.667969 26.105469 Z M 18.660156 31.660156 L 12.25 31.660156 C 12.019531 31.660156 11.832031 31.472656 11.832031 31.242188 L 11.832031 25.6875 C 11.832031 25.460938 12.019531 25.273438 12.25 25.273438 L 18.660156 25.273438 C 18.890625 25.273438 19.078125 25.460938 19.078125 25.6875 L 19.078125 31.242188 C 19.078125 31.472656 18.890625 31.660156 18.660156 31.660156 " fill-opacity="1" fill-rule="nonzero"/><path fill="#000000" d="M 4.167969 38.492188 L 9.742188 38.492188 L 9.742188 33.769531 L 4.167969 33.769531 Z M 10.160156 39.320312 L 3.75 39.320312 C 3.519531 39.320312 3.332031 39.136719 3.332031 38.90625 L 3.332031 33.351562 C 3.332031 33.125 3.519531 32.9375 3.75 32.9375 L 10.160156 32.9375 C 10.390625 32.9375 10.578125 33.125 10.578125 33.351562 L 10.578125 38.90625 C 10.578125 39.136719 10.390625 39.320312 10.160156 39.320312 " fill-opacity="1" fill-rule="nonzero"/><path fill="#000000" d="M 12.667969 38.492188 L 18.242188 38.492188 L 18.242188 33.769531 L 12.667969 33.769531 Z M 18.660156 39.320312 L 12.25 39.320312 C 12.019531 39.320312 11.832031 39.136719 11.832031 38.90625 L 11.832031 33.351562 C 11.832031 33.125 12.019531 32.9375 12.25 32.9375 L 18.660156 32.9375 C 18.890625 32.9375 19.078125 33.125 19.078125 33.351562 L 19.078125 38.90625 C 19.078125 39.136719 18.890625 39.320312 18.660156 39.320312 " fill-opacity="1" fill-rule="nonzero"/><path fill="#000000" d="M 21.167969 38.492188 L 26.742188 38.492188 L 26.742188 26.105469 L 21.167969 26.105469 Z M 27.160156 39.320312 L 20.75 39.320312 C 20.519531 39.320312 20.332031 39.136719 20.332031 38.90625 L 20.332031 25.6875 C 20.332031 25.460938 20.519531 25.273438 20.75 25.273438 L 27.160156 25.273438 C 27.390625 25.273438 27.578125 25.460938 27.578125 25.6875 L 27.578125 38.90625 C 27.578125 39.136719 27.390625 39.320312 27.160156 39.320312 " fill-opacity="1" fill-rule="nonzero"/><path fill="#000000" d="M 23.953125 34.265625 C 23.722656 34.265625 23.535156 34.078125 23.535156 33.851562 L 23.535156 30.746094 C 23.535156 30.515625 23.722656 30.332031 23.953125 30.332031 C 24.1875 30.332031 24.371094 30.515625 24.371094 30.746094 L 24.371094 33.851562 C 24.371094 34.078125 24.1875 34.265625 23.953125 34.265625 " fill-opacity="1" fill-rule="nonzero"/><path fill="#000000" d="M 25.515625 32.714844 L 22.394531 32.714844 C 22.164062 32.714844 21.976562 32.527344 21.976562 32.296875 C 21.976562 32.070312 22.164062 31.882812 22.394531 31.882812 L 25.515625 31.882812 C 25.746094 31.882812 25.933594 32.070312 25.933594 32.296875 C 25.933594 32.527344 25.746094 32.714844 25.515625 32.714844 " fill-opacity="1" fill-rule="nonzero"/></svg>