<svg xmlns="http://www.w3.org/2000/svg" xmlns:xlink="http://www.w3.org/1999/xlink" width="64" zoomAndPan="magnify" viewBox="0 0 48 48" height="64" preserveAspectRatio="xMidYMid meet" version="1.0"><defs><clipPath id="938a984340"><path d="M 0.488281 0 L 46.777344 0 L 46.777344 46.285156 L 0.488281 46.285156 Z M 0.488281 0 " clip-rule="nonzero"/></clipPath></defs><g clip-path="url(#938a984340)"><path fill="#000000" d="M 36.347656 8.5625 C 36.320312 8.488281 36.277344 8.421875 36.21875 8.371094 C 33.222656 5.773438 29.769531 4.269531 25.859375 3.863281 C 25.742188 3.847656 25.636719 3.875 25.542969 3.949219 C 25.445312 4.023438 25.390625 4.121094 25.375 4.238281 L 24.878906 7.589844 C 24.464844 7.558594 24.042969 7.542969 23.613281 7.542969 C 20.523438 7.546875 17.757812 8.332031 15.3125 9.898438 L 13.582031 7.558594 C 14.070312 7.234375 14.574219 6.933594 15.09375 6.664062 L 14.683594 5.882812 C 13.996094 6.238281 13.332031 6.640625 12.699219 7.085938 C 12.6875 7.09375 12.679688 7.101562 12.671875 7.109375 C 11.683594 7.796875 10.765625 8.570312 9.914062 9.421875 L 9.910156 9.425781 C 9.527344 9.804688 9.167969 10.195312 8.828125 10.59375 C 8.75 10.6875 8.714844 10.792969 8.730469 10.917969 C 8.738281 11.039062 8.789062 11.140625 8.882812 11.222656 L 11.433594 13.382812 C 10.347656 14.699219 9.511719 16.15625 8.929688 17.757812 L 5.714844 16.785156 C 5.597656 16.746094 5.484375 16.757812 5.378906 16.820312 C 5.273438 16.875 5.199219 16.960938 5.164062 17.074219 C 4.550781 18.972656 4.242188 20.996094 4.242188 23.148438 C 4.242188 23.679688 4.265625 24.203125 4.304688 24.71875 C 4.3125 24.839844 4.363281 24.941406 4.460938 25.015625 C 4.554688 25.097656 4.660156 25.132812 4.785156 25.125 L 8.105469 24.832031 C 8.203125 25.828125 8.394531 26.804688 8.683594 27.761719 C 8.71875 27.875 8.785156 27.960938 8.886719 28.019531 C 8.988281 28.078125 9.097656 28.089844 9.210938 28.0625 L 12.46875 27.238281 C 13.039062 28.800781 13.957031 30.214844 15.226562 31.484375 C 17.152344 33.414062 19.410156 34.539062 22 34.863281 L 21.570312 38.152344 L 21.566406 38.160156 L 21.566406 38.179688 L 21.128906 41.503906 C 17.589844 41.0625 14.445312 39.664062 11.699219 37.304688 L 11.125 37.976562 C 14.121094 40.546875 17.566406 42.03125 21.464844 42.433594 C 21.582031 42.445312 21.6875 42.414062 21.78125 42.339844 C 21.875 42.265625 21.929688 42.167969 21.945312 42.046875 L 22.386719 38.695312 C 22.789062 38.722656 23.199219 38.738281 23.613281 38.738281 C 26.285156 38.734375 28.714844 38.148438 30.902344 36.976562 C 30.96875 36.941406 31.023438 36.886719 31.0625 36.824219 C 31.105469 36.753906 31.128906 36.679688 31.132812 36.601562 C 31.132812 36.519531 31.113281 36.445312 31.078125 36.375 L 29.4375 33.449219 C 30.363281 32.902344 31.203125 32.25 31.957031 31.484375 L 31.953125 31.484375 C 32.070312 31.371094 32.183594 31.253906 32.296875 31.136719 L 37.789062 35.769531 C 37.882812 35.847656 37.988281 35.882812 38.109375 35.871094 C 38.230469 35.863281 38.332031 35.8125 38.410156 35.71875 C 40.042969 33.835938 41.242188 31.777344 42.011719 29.539062 C 42.050781 29.421875 42.042969 29.308594 41.992188 29.199219 C 41.9375 29.085938 41.851562 29.011719 41.734375 28.972656 L 38.515625 27.902344 C 38.980469 26.414062 39.214844 24.824219 39.214844 23.144531 C 39.210938 20.582031 38.671875 18.246094 37.597656 16.128906 L 40.582031 14.542969 C 40.691406 14.484375 40.765625 14.394531 40.800781 14.277344 C 40.835938 14.15625 40.824219 14.042969 40.765625 13.933594 C 40.238281 12.980469 39.636719 12.078125 38.957031 11.226562 L 41.222656 9.449219 C 44.144531 13.125 45.699219 17.367188 45.882812 22.171875 L 46.769531 22.136719 C 46.570312 16.992188 44.867188 12.476562 41.648438 8.582031 C 41.644531 8.570312 41.636719 8.558594 41.625 8.550781 C 41.121094 7.941406 40.578125 7.347656 40 6.765625 C 35.488281 2.253906 30.035156 0 23.644531 0 C 23.027344 0 22.414062 0.0234375 21.8125 0.0664062 C 21.800781 0.0664062 21.792969 0.0664062 21.78125 0.0703125 L 21.769531 0.0703125 C 16.175781 0.472656 11.339844 2.703125 7.265625 6.765625 L 7.261719 6.769531 C 5.761719 8.273438 4.511719 9.886719 3.507812 11.605469 L 3.5 11.621094 C 1.5 15.046875 0.496094 18.886719 0.496094 23.144531 C 0.496094 25.410156 0.78125 27.558594 1.351562 29.59375 L 1.355469 29.609375 C 2.152344 32.453125 3.507812 35.066406 5.414062 37.441406 C 5.417969 37.453125 5.425781 37.460938 5.433594 37.46875 C 6.007812 38.175781 6.617188 38.855469 7.265625 39.496094 C 11.792969 44.019531 17.253906 46.28125 23.644531 46.28125 C 24.300781 46.28125 24.945312 46.261719 25.582031 46.214844 L 25.636719 46.214844 C 31.175781 45.785156 35.964844 43.546875 40 39.5 C 43.753906 35.753906 45.953125 31.359375 46.59375 26.316406 C 46.609375 26.195312 46.578125 26.089844 46.507812 25.992188 C 46.4375 25.894531 46.339844 25.839844 46.21875 25.824219 L 42.921875 25.332031 C 42.996094 24.605469 43.035156 23.878906 43.035156 23.148438 C 43.042969 21.472656 42.84375 19.824219 42.441406 18.199219 L 41.582031 18.417969 C 41.96875 19.972656 42.15625 21.546875 42.148438 23.148438 C 42.148438 23.988281 42.101562 24.824219 42 25.65625 C 41.984375 25.773438 42.011719 25.882812 42.085938 25.976562 C 42.160156 26.074219 42.253906 26.128906 42.375 26.144531 L 45.660156 26.636719 C 44.972656 31.300781 42.878906 35.378906 39.378906 38.871094 L 39.371094 38.875 C 35.597656 42.664062 31.136719 44.800781 25.988281 45.292969 L 25.75 42.4375 C 29.421875 42.070312 32.695312 40.742188 35.566406 38.453125 C 35.664062 38.378906 35.71875 38.28125 35.730469 38.164062 C 35.746094 38.042969 35.714844 37.933594 35.640625 37.839844 L 33.289062 34.828125 L 32.585938 35.375 L 34.671875 38.035156 C 31.90625 40.136719 28.761719 41.324219 25.242188 41.597656 C 25.117188 41.605469 25.015625 41.65625 24.9375 41.75 C 24.855469 41.847656 24.824219 41.953125 24.835938 42.078125 L 25.109375 45.363281 C 24.625 45.386719 24.136719 45.402344 23.644531 45.402344 C 17.492188 45.402344 12.242188 43.226562 7.886719 38.878906 C 7.359375 38.351562 6.867188 37.808594 6.402344 37.257812 L 11.542969 33.035156 C 11.867188 33.421875 12.214844 33.796875 12.585938 34.164062 C 14.417969 36.003906 16.484375 37.289062 18.78125 38.019531 L 19.050781 37.175781 C 16.886719 36.480469 14.9375 35.269531 13.207031 33.539062 C 12.765625 33.101562 12.347656 32.636719 11.960938 32.144531 L 11.945312 32.128906 C 11.558594 31.632812 11.199219 31.113281 10.878906 30.574219 L 10.117188 31.027344 C 10.386719 31.476562 10.679688 31.914062 10.996094 32.335938 L 5.847656 36.5625 C 4.242188 34.488281 3.070312 32.226562 2.332031 29.785156 L 5.097656 29.015625 C 5.425781 30.097656 5.855469 31.136719 6.386719 32.140625 L 7.167969 31.722656 C 6.601562 30.648438 6.152344 29.523438 5.820312 28.351562 C 5.789062 28.230469 5.71875 28.144531 5.609375 28.085938 C 5.503906 28.019531 5.390625 28.007812 5.273438 28.046875 L 2.09375 28.933594 C 1.621094 27.105469 1.382812 25.175781 1.382812 23.144531 C 1.382812 19.203125 2.277344 15.625 4.0625 12.417969 L 7.015625 13.972656 L 7.429688 13.1875 L 4.503906 11.660156 C 5.464844 10.105469 6.59375 8.679688 7.890625 7.390625 C 11.703125 3.589844 16.207031 1.453125 21.402344 0.988281 L 21.582031 3.84375 C 20.355469 3.960938 19.148438 4.191406 17.960938 4.539062 L 18.214844 5.390625 C 19.480469 5.015625 20.769531 4.78125 22.085938 4.6875 C 22.207031 4.679688 22.308594 4.632812 22.386719 4.539062 C 22.46875 4.449219 22.503906 4.34375 22.492188 4.222656 L 22.285156 0.917969 C 22.730469 0.894531 23.1875 0.882812 23.644531 0.882812 C 29.796875 0.882812 35.039062 3.050781 39.378906 7.390625 L 39.371094 7.390625 C 39.820312 7.839844 40.25 8.300781 40.65625 8.769531 L 38.054688 10.8125 C 37.992188 10.859375 37.945312 10.921875 37.917969 10.996094 C 37.890625 11.074219 37.882812 11.152344 37.894531 11.230469 C 37.90625 11.308594 37.9375 11.378906 37.988281 11.4375 C 38.652344 12.234375 39.246094 13.078125 39.769531 13.972656 L 36.804688 15.550781 L 36.78125 15.558594 L 33.828125 17.125 C 33.296875 16.261719 32.675781 15.472656 31.957031 14.757812 C 30.667969 13.464844 29.222656 12.535156 27.628906 11.96875 L 28.625 9.25 C 29.359375 9.515625 30.066406 9.839844 30.75 10.226562 L 31.183594 9.457031 C 30.324219 8.972656 29.429688 8.578125 28.492188 8.277344 C 28.378906 8.234375 28.269531 8.242188 28.164062 8.296875 C 28.054688 8.351562 27.980469 8.433594 27.941406 8.546875 L 26.78125 11.703125 C 24.59375 11.132812 22.40625 11.148438 20.226562 11.757812 L 20.472656 12.601562 C 22.617188 12.011719 24.757812 12.027344 26.894531 12.65625 C 26.898438 12.65625 26.902344 12.65625 26.90625 12.660156 C 26.917969 12.664062 26.929688 12.667969 26.941406 12.671875 C 26.949219 12.671875 26.957031 12.675781 26.960938 12.679688 C 28.585938 13.1875 30.042969 14.089844 31.335938 15.382812 C 32.101562 16.140625 32.746094 16.988281 33.269531 17.933594 C 33.328125 18.039062 33.414062 18.109375 33.53125 18.144531 C 33.648438 18.179688 33.757812 18.167969 33.867188 18.113281 L 36.820312 16.539062 C 37.832031 18.53125 38.335938 20.734375 38.332031 23.144531 C 38.332031 24.886719 38.070312 26.519531 37.546875 28.039062 C 37.503906 28.15625 37.511719 28.269531 37.566406 28.375 C 37.621094 28.492188 37.707031 28.566406 37.824219 28.601562 L 41.027344 29.671875 C 40.339844 31.515625 39.339844 33.226562 38.027344 34.808594 L 32.878906 30.472656 C 33.183594 30.09375 33.464844 29.699219 33.722656 29.285156 L 36.699219 30.902344 L 37.117188 30.121094 L 33.773438 28.308594 C 33.667969 28.25 33.558594 28.234375 33.445312 28.269531 C 33.324219 28.300781 33.238281 28.371094 33.179688 28.476562 C 32.824219 29.097656 32.410156 29.675781 31.945312 30.21875 L 31.929688 30.226562 L 31.929688 30.238281 C 31.925781 30.238281 31.925781 30.238281 31.925781 30.242188 C 31.921875 30.25 31.914062 30.253906 31.90625 30.257812 C 31.730469 30.464844 31.539062 30.667969 31.339844 30.859375 L 31.335938 30.867188 C 30.539062 31.671875 29.636719 32.347656 28.636719 32.886719 C 28.5625 32.921875 28.503906 32.972656 28.464844 33.046875 C 28.421875 33.113281 28.398438 33.183594 28.398438 33.265625 C 28.394531 33.34375 28.414062 33.421875 28.453125 33.492188 L 30.089844 36.410156 C 28.128906 37.371094 25.96875 37.851562 23.613281 37.851562 C 23.238281 37.851562 22.867188 37.839844 22.5 37.820312 L 22.929688 34.53125 C 22.941406 34.449219 22.933594 34.375 22.898438 34.300781 C 22.867188 34.226562 22.820312 34.164062 22.753906 34.113281 C 22.6875 34.066406 22.613281 34.042969 22.53125 34.035156 C 19.960938 33.804688 17.734375 32.75 15.851562 30.867188 C 14.578125 29.59375 13.683594 28.164062 13.171875 26.578125 C 13.136719 26.464844 13.066406 26.382812 12.964844 26.324219 C 12.863281 26.269531 12.757812 26.253906 12.644531 26.28125 L 9.40625 27.097656 C 9.164062 26.1875 9.011719 25.261719 8.949219 24.320312 C 8.941406 24.195312 8.890625 24.09375 8.792969 24.015625 C 8.703125 23.933594 8.59375 23.898438 8.472656 23.914062 L 5.152344 24.203125 C 5.136719 23.851562 5.128906 23.5 5.128906 23.148438 C 5.128906 21.246094 5.375 19.453125 5.875 17.757812 L 9.085938 18.722656 C 9.199219 18.761719 9.308594 18.75 9.414062 18.691406 C 9.523438 18.636719 9.59375 18.550781 9.628906 18.4375 C 10.175781 16.785156 11 15.292969 12.109375 13.953125 L 14.625 16.089844 C 14.636719 16.097656 14.648438 16.105469 14.65625 16.113281 L 17.28125 18.335938 C 16.71875 19.054688 16.304688 19.851562 16.035156 20.726562 L 16.878906 20.984375 C 17.160156 20.082031 17.613281 19.273438 18.230469 18.5625 C 18.238281 18.554688 18.246094 18.546875 18.25 18.535156 C 18.371094 18.398438 18.496094 18.265625 18.628906 18.132812 C 20 16.765625 21.660156 16.078125 23.605469 16.078125 C 25.550781 16.078125 27.207031 16.761719 28.578125 18.132812 C 29.636719 19.195312 30.289062 20.425781 30.535156 21.824219 C 30.535156 21.835938 30.535156 21.84375 30.539062 21.855469 L 30.539062 21.863281 C 30.605469 22.277344 30.640625 22.691406 30.636719 23.109375 C 30.636719 25.050781 29.949219 26.707031 28.578125 28.078125 L 28.570312 28.082031 C 27.40625 29.253906 26.03125 29.925781 24.453125 30.097656 C 24.445312 30.097656 24.4375 30.097656 24.429688 30.097656 C 24.417969 30.097656 24.410156 30.101562 24.398438 30.105469 C 24.140625 30.128906 23.875 30.140625 23.605469 30.140625 C 21.660156 30.140625 20 29.453125 18.628906 28.078125 C 17.347656 26.804688 16.664062 25.277344 16.578125 23.5 C 16.574219 23.421875 16.550781 23.347656 16.507812 23.28125 C 16.460938 23.214844 16.402344 23.160156 16.332031 23.125 C 16.257812 23.089844 16.179688 23.078125 16.101562 23.085938 L 12.652344 23.363281 C 12.648438 23.285156 12.648438 23.207031 12.648438 23.125 C 12.648438 22.710938 12.667969 22.296875 12.710938 21.882812 C 12.710938 21.878906 12.710938 21.875 12.714844 21.871094 L 12.714844 21.867188 C 12.835938 20.617188 13.175781 19.433594 13.734375 18.308594 L 12.941406 17.914062 C 12.40625 18.996094 12.054688 20.132812 11.890625 21.332031 L 8.613281 20.945312 L 8.507812 21.824219 L 11.800781 22.207031 C 11.777344 22.507812 11.769531 22.8125 11.769531 23.121094 C 11.769531 23.375 11.773438 23.621094 11.789062 23.867188 C 11.796875 23.945312 11.820312 24.019531 11.863281 24.085938 C 11.910156 24.152344 11.96875 24.203125 12.042969 24.238281 C 12.113281 24.273438 12.1875 24.289062 12.265625 24.28125 L 15.730469 23.996094 C 15.914062 25.804688 16.671875 27.375 18.003906 28.707031 C 19.554688 30.253906 21.417969 31.027344 23.605469 31.027344 C 23.765625 31.027344 23.921875 31.023438 24.078125 31.011719 L 24.417969 34.496094 C 24.425781 34.621094 24.480469 34.71875 24.578125 34.796875 C 24.671875 34.875 24.777344 34.90625 24.902344 34.894531 C 25.273438 34.855469 25.644531 34.800781 26.011719 34.730469 L 26.019531 34.730469 C 26.21875 34.691406 26.414062 34.648438 26.605469 34.597656 L 26.394531 33.742188 C 26.210938 33.785156 26.023438 33.828125 25.835938 33.867188 C 25.640625 33.910156 25.445312 33.941406 25.25 33.964844 L 24.953125 30.925781 C 26.566406 30.667969 27.980469 29.925781 29.195312 28.710938 C 30.746094 27.164062 31.519531 25.300781 31.519531 23.113281 C 31.519531 22.777344 31.503906 22.445312 31.46875 22.113281 L 34.417969 21.347656 C 34.503906 21.9375 34.546875 22.53125 34.542969 23.125 C 34.546875 23.945312 34.464844 24.761719 34.292969 25.566406 L 35.160156 25.75 C 35.507812 24.074219 35.523438 22.398438 35.203125 20.714844 C 35.167969 20.542969 35.066406 20.429688 34.898438 20.378906 C 34.820312 20.351562 34.742188 20.351562 34.660156 20.371094 L 31.3125 21.238281 C 30.988281 19.835938 30.28125 18.597656 29.195312 17.511719 L 29.195312 17.507812 C 27.652344 15.964844 25.785156 15.195312 23.601562 15.195312 C 21.417969 15.195312 19.550781 15.96875 18.003906 17.507812 L 18.003906 17.511719 C 17.953125 17.5625 17.902344 17.613281 17.855469 17.667969 L 15.542969 15.703125 C 15.640625 15.59375 15.742188 15.488281 15.851562 15.382812 C 16.273438 14.960938 16.722656 14.570312 17.203125 14.21875 L 16.683594 13.507812 C 16.164062 13.886719 15.679688 14.300781 15.226562 14.753906 L 15.226562 14.757812 C 15.101562 14.878906 14.980469 15.003906 14.863281 15.132812 L 12.347656 13 L 12.339844 12.992188 L 9.792969 10.835938 C 10.03125 10.566406 10.28125 10.304688 10.535156 10.046875 C 11.257812 9.324219 12.027344 8.660156 12.851562 8.0625 L 14.855469 10.757812 C 14.925781 10.855469 15.019531 10.910156 15.136719 10.929688 C 15.25 10.953125 15.359375 10.929688 15.457031 10.863281 C 17.84375 9.234375 20.5625 8.425781 23.617188 8.429688 C 24.152344 8.425781 24.683594 8.453125 25.210938 8.507812 C 25.332031 8.519531 25.4375 8.488281 25.53125 8.414062 C 25.625 8.34375 25.679688 8.246094 25.695312 8.128906 L 26.191406 4.792969 C 29.59375 5.226562 32.628906 6.542969 35.296875 8.746094 L 33.035156 11.230469 C 32.984375 11.289062 32.949219 11.359375 32.933594 11.4375 C 32.914062 11.515625 32.921875 11.59375 32.953125 11.667969 C 32.976562 11.746094 33.023438 11.8125 33.085938 11.863281 C 33.421875 12.148438 33.957031 12.644531 34.6875 13.355469 L 34.691406 13.355469 C 34.804688 13.46875 34.921875 13.589844 35.039062 13.722656 L 35.695312 13.121094 C 35.5625 12.980469 35.433594 12.84375 35.304688 12.722656 L 35.304688 12.714844 C 34.765625 12.195312 34.328125 11.785156 33.996094 11.488281 L 36.257812 9.003906 C 36.375 8.875 36.402344 8.726562 36.347656 8.5625 Z M 36.347656 8.5625 " fill-opacity="1" fill-rule="nonzero"/></g></svg>