<svg xmlns="http://www.w3.org/2000/svg" xmlns:xlink="http://www.w3.org/1999/xlink" width="70" zoomAndPan="magnify" viewBox="0 0 52.5 37.5" height="50" preserveAspectRatio="xMidYMid meet" version="1.0"><defs><clipPath id="7817bc5d97"><path d="M 0.0976562 0 L 51.90625 0 L 51.90625 36.265625 L 0.0976562 36.265625 Z M 0.0976562 0 " clip-rule="nonzero"/></clipPath></defs><g clip-path="url(#7817bc5d97)"><path fill="#231f20" d="M 51.800781 22.035156 C 51.445312 21.339844 51.039062 20.683594 50.589844 20.0625 C 50.671875 20.011719 50.753906 19.957031 50.835938 19.90625 C 51.046875 19.769531 51.074219 19.496094 50.953125 19.292969 C 50.375 18.320312 49.699219 17.445312 48.953125 16.632812 C 49.277344 16.390625 49.601562 16.152344 49.921875 15.910156 C 50.125 15.761719 50.136719 15.484375 50 15.289062 C 49.195312 14.128906 48.242188 13.125 47.207031 12.210938 C 47.761719 11.71875 48.308594 11.222656 48.859375 10.726562 C 49.042969 10.558594 49.027344 10.28125 48.878906 10.101562 C 45.09375 5.621094 39.050781 4.101562 34.792969 0.191406 C 34.621094 0.03125 34.347656 0 34.164062 0.175781 C 29.789062 4.386719 24.769531 7.675781 19.011719 9.691406 C 16.027344 10.734375 13.15625 12.136719 10.324219 13.523438 C 8.582031 14.375 6.855469 15.257812 5.140625 16.15625 C 4.121094 16.691406 3.109375 17.230469 2.097656 17.777344 C 1.503906 18.097656 0.386719 18.488281 0.171875 19.234375 C 0.121094 19.3125 0.105469 19.414062 0.140625 19.53125 C 0.152344 19.609375 0.179688 19.675781 0.222656 19.726562 C 0.316406 19.898438 0.441406 20.007812 0.582031 20.101562 C 0.585938 20.175781 0.609375 20.238281 0.644531 20.292969 C 0.804688 20.652344 1.105469 20.789062 1.386719 20.996094 C 1.542969 21.382812 1.890625 21.527344 2.164062 21.800781 C 2.242188 21.898438 2.320312 21.996094 2.398438 22.089844 C 2.578125 22.3125 2.75 22.535156 2.921875 22.757812 C 2.945312 22.796875 2.96875 22.828125 2.992188 22.863281 C 3.785156 24 4.492188 25.195312 5.179688 26.390625 C 6.511719 28.691406 7.78125 31.035156 8.96875 33.410156 C 9.058594 33.625 9.148438 33.835938 9.238281 34.050781 C 9.433594 34.53125 9.585938 35.066406 9.945312 35.457031 C 10.675781 36.261719 11.671875 36.027344 12.613281 35.84375 C 15.195312 35.34375 17.722656 34.621094 20.25 33.914062 C 25.417969 32.46875 30.597656 31.066406 35.746094 29.570312 C 38.519531 28.765625 41.242188 27.84375 43.871094 26.65625 C 46.53125 25.457031 49.09375 24.058594 51.640625 22.640625 C 51.859375 22.519531 51.910156 22.246094 51.800781 22.035156 Z M 49.386719 18.550781 C 49.59375 18.828125 49.789062 19.109375 49.976562 19.402344 C 49.753906 19.546875 49.53125 19.6875 49.308594 19.832031 C 48.367188 20.429688 47.425781 21.015625 46.472656 21.585938 C 46.148438 21.777344 45.824219 21.96875 45.5 22.160156 C 44.34375 22.832031 43.175781 23.476562 41.984375 24.082031 C 39.398438 25.277344 36.71875 26.253906 33.957031 27.019531 C 30.773438 27.902344 27.550781 28.640625 24.359375 29.480469 C 25.011719 29.203125 25.667969 28.925781 26.320312 28.648438 C 26.574219 28.566406 26.824219 28.484375 27.078125 28.402344 C 31.085938 27.113281 35.140625 25.945312 38.957031 24.148438 C 41.179688 23.105469 43.324219 21.898438 45.375 20.558594 C 45.527344 20.496094 45.632812 20.355469 45.601562 20.144531 C 45.539062 19.757812 45.554688 19.375 45.644531 19.011719 C 45.75 18.941406 45.851562 18.871094 45.953125 18.796875 C 46.207031 18.621094 46.457031 18.445312 46.703125 18.269531 C 46.949219 18.09375 47.195312 17.917969 47.4375 17.742188 C 47.675781 17.570312 47.910156 17.398438 48.144531 17.226562 C 48.175781 17.203125 48.207031 17.183594 48.238281 17.160156 C 48.640625 17.601562 49.027344 18.0625 49.386719 18.550781 Z M 9.902344 30.972656 C 9.984375 31.125 10.070312 31.28125 10.152344 31.433594 C 10.300781 31.699219 10.429688 32.035156 10.628906 32.292969 C 10.714844 32.449219 10.816406 32.589844 10.949219 32.691406 C 11.320312 32.972656 11.820312 32.847656 12.25 32.90625 C 12.550781 32.949219 12.832031 33.035156 13.097656 33.15625 C 12.757812 33.277344 12.414062 33.390625 12.074219 33.503906 C 11.578125 33.667969 11.101562 33.6875 10.738281 33.257812 C 10.597656 33.089844 10.5 32.882812 10.390625 32.691406 C 9.453125 31.054688 8.464844 29.445312 7.449219 27.855469 C 7.382812 27.71875 7.320312 27.582031 7.253906 27.445312 C 8.15625 28.609375 9.042969 29.785156 9.902344 30.972656 Z M 15.457031 33.867188 C 14.269531 34.246094 13.070312 34.597656 11.859375 34.902344 C 11.351562 35.03125 10.875 35.023438 10.546875 34.570312 C 10.429688 34.410156 10.351562 34.222656 10.265625 34.042969 C 10.28125 34.058594 10.296875 34.074219 10.3125 34.085938 C 11.144531 34.789062 12.101562 34.425781 13.011719 34.121094 C 14.410156 33.652344 15.777344 33.117188 17.136719 32.558594 C 20.511719 31.449219 23.929688 30.46875 27.378906 29.597656 C 27.925781 29.460938 28.472656 29.324219 29.019531 29.191406 C 26.894531 29.925781 24.769531 30.648438 22.652344 31.386719 C 20.257812 32.226562 17.871094 33.09375 15.457031 33.867188 Z M 44.679688 19.949219 C 41.957031 21.714844 39.089844 23.203125 36.089844 24.421875 C 38.382812 23.378906 40.621094 22.242188 42.761719 20.914062 C 43.40625 20.511719 44.039062 20.101562 44.667969 19.675781 C 44.667969 19.769531 44.671875 19.859375 44.679688 19.949219 Z M 49.035156 15.46875 C 48.800781 15.640625 48.566406 15.8125 48.332031 15.984375 C 48.09375 16.160156 47.855469 16.335938 47.617188 16.507812 C 47.578125 16.535156 47.539062 16.5625 47.5 16.59375 C 47.273438 16.757812 47.042969 16.921875 46.816406 17.085938 C 46.808594 17.089844 46.800781 17.097656 46.792969 17.101562 C 46.511719 17.304688 46.230469 17.503906 45.945312 17.699219 C 45.691406 17.878906 45.4375 18.054688 45.183594 18.230469 C 45.085938 18.296875 44.988281 18.359375 44.894531 18.425781 C 42.289062 20.199219 39.59375 21.824219 36.703125 23.171875 C 33.121094 24.839844 29.46875 26.363281 25.824219 27.898438 C 24.277344 28.398438 22.738281 28.914062 21.210938 29.46875 C 18.769531 30.355469 16.359375 31.308594 13.972656 32.328125 C 13.957031 32.316406 13.941406 32.308594 13.925781 32.300781 C 16.300781 31.238281 18.578125 29.984375 20.859375 28.738281 C 21.601562 28.332031 22.34375 27.929688 23.085938 27.527344 C 24.320312 27 25.5625 26.488281 26.808594 25.992188 C 26.925781 25.945312 27.039062 25.898438 27.152344 25.855469 C 27.585938 25.683594 28.019531 25.511719 28.453125 25.34375 C 31.328125 24.214844 34.207031 23.09375 36.960938 21.695312 C 37.433594 21.453125 37.902344 21.203125 38.367188 20.945312 C 38.867188 20.667969 39.359375 20.382812 39.847656 20.089844 C 41.273438 19.234375 42.65625 18.308594 43.992188 17.324219 C 44.171875 17.191406 44.347656 17.0625 44.523438 16.929688 C 44.597656 16.890625 44.660156 16.835938 44.695312 16.761719 C 44.730469 16.691406 44.742188 16.601562 44.71875 16.5 C 44.703125 16.429688 44.6875 16.355469 44.679688 16.285156 C 44.625 15.941406 44.636719 15.59375 44.703125 15.265625 C 44.710938 15.234375 44.71875 15.207031 44.726562 15.175781 C 44.796875 14.886719 44.917969 14.605469 45.082031 14.351562 C 45.097656 14.324219 45.117188 14.300781 45.136719 14.273438 C 45.257812 14.097656 45.40625 13.933594 45.574219 13.789062 C 45.628906 13.738281 45.667969 13.683594 45.695312 13.625 C 45.710938 13.585938 45.722656 13.546875 45.726562 13.507812 C 46 13.273438 46.273438 13.035156 46.546875 12.796875 C 47.457031 13.601562 48.300781 14.476562 49.035156 15.46875 Z M 42.210938 16.378906 C 42.351562 16.269531 42.496094 16.160156 42.640625 16.050781 C 42.875 15.867188 43.105469 15.683594 43.339844 15.496094 C 43.355469 15.488281 43.367188 15.472656 43.382812 15.460938 C 43.53125 15.34375 43.679688 15.222656 43.828125 15.101562 C 43.785156 15.296875 43.757812 15.5 43.75 15.699219 C 43.75 15.769531 43.746094 15.835938 43.75 15.90625 C 43.75 16.058594 43.765625 16.214844 43.789062 16.371094 C 43.632812 16.488281 43.476562 16.601562 43.316406 16.71875 C 42.136719 17.582031 40.921875 18.390625 39.675781 19.148438 C 39.414062 19.304688 39.152344 19.460938 38.890625 19.613281 C 38.253906 19.984375 37.609375 20.339844 36.957031 20.683594 C 36.671875 20.835938 36.382812 20.984375 36.09375 21.128906 C 35.078125 21.640625 34.039062 22.121094 32.980469 22.570312 C 31.9375 23.019531 30.886719 23.445312 29.832031 23.867188 C 29.832031 23.867188 29.832031 23.867188 29.832031 23.863281 C 31.546875 22.929688 33.257812 21.988281 34.960938 21.035156 C 37.476562 19.632812 39.917969 18.121094 42.210938 16.378906 Z M 3.453125 18.050781 C 4.347656 17.570312 5.25 17.097656 6.152344 16.625 C 7.628906 15.855469 9.121094 15.097656 10.617188 14.363281 C 12.636719 13.371094 14.675781 12.414062 16.746094 11.53125 C 19.363281 10.421875 22.085938 9.601562 24.738281 8.203125 C 28.316406 6.324219 31.558594 3.867188 34.480469 1.097656 C 38.601562 4.6875 44.246094 6.273438 47.929688 10.371094 C 47.460938 10.792969 46.992188 11.210938 46.519531 11.625 C 46.296875 11.820312 46.078125 12.015625 45.855469 12.207031 C 45.644531 12.390625 45.433594 12.570312 45.222656 12.753906 C 45.125 12.835938 45.027344 12.921875 44.929688 13.003906 C 44.796875 13.117188 44.664062 13.226562 44.527344 13.339844 C 44.441406 13.414062 44.351562 13.488281 44.265625 13.5625 C 44.183594 13.496094 44.105469 13.433594 44.027344 13.371094 C 44.101562 13.4375 44.175781 13.507812 44.246094 13.574219 C 44.027344 13.757812 43.804688 13.941406 43.582031 14.121094 C 43.496094 14.195312 43.410156 14.265625 43.320312 14.335938 C 43.117188 14.503906 42.910156 14.667969 42.703125 14.832031 C 42.671875 14.855469 42.640625 14.882812 42.609375 14.90625 C 42.40625 15.0625 42.207031 15.222656 42 15.378906 C 40.703125 16.382812 39.367188 17.339844 37.976562 18.230469 C 37.503906 18.535156 37.023438 18.828125 36.535156 19.117188 C 36.488281 19.144531 36.441406 19.171875 36.394531 19.199219 C 34.136719 20.523438 31.839844 21.789062 29.535156 23.039062 C 29.398438 23.113281 29.261719 23.183594 29.125 23.257812 C 28.964844 23.347656 28.804688 23.433594 28.648438 23.515625 C 28.644531 23.515625 28.644531 23.515625 28.644531 23.515625 L 28.644531 23.519531 C 28.628906 23.527344 28.613281 23.535156 28.597656 23.542969 C 28.523438 23.582031 28.449219 23.625 28.378906 23.664062 C 28.207031 23.753906 28.035156 23.847656 27.863281 23.941406 C 27.84375 23.949219 27.832031 23.957031 27.8125 23.96875 C 27.53125 24.117188 27.25 24.269531 26.96875 24.417969 C 26.863281 24.480469 26.753906 24.535156 26.644531 24.59375 C 26.636719 24.597656 26.632812 24.597656 26.625 24.597656 C 26.605469 24.597656 26.585938 24.597656 26.566406 24.597656 C 26.574219 24.609375 26.578125 24.617188 26.582031 24.628906 C 25.367188 25.28125 24.152344 25.9375 22.941406 26.59375 C 22.859375 26.640625 22.773438 26.6875 22.6875 26.734375 C 20.550781 27.902344 18.421875 29.09375 16.253906 30.203125 C 15.34375 30.664062 14.425781 31.109375 13.492188 31.527344 C 13.289062 31.621094 13.078125 31.710938 12.871094 31.800781 C 12.828125 31.824219 12.78125 31.839844 12.738281 31.855469 C 12.375 31.996094 12.015625 32.03125 11.695312 31.824219 C 11.636719 31.785156 11.578125 31.738281 11.519531 31.683594 C 11.410156 31.574219 11.316406 31.441406 11.226562 31.3125 C 11.191406 31.257812 11.15625 31.203125 11.117188 31.152344 C 11.074219 31.09375 11.035156 31.035156 10.988281 30.972656 C 10.878906 30.820312 10.769531 30.664062 10.65625 30.511719 C 9.984375 29.574219 9.292969 28.644531 8.585938 27.730469 C 8.527344 27.636719 8.472656 27.546875 8.414062 27.457031 C 8.433594 27.496094 8.449219 27.535156 8.46875 27.574219 C 8.046875 27.027344 7.621094 26.484375 7.195312 25.941406 C 6.875 25.539062 6.554688 25.136719 6.234375 24.734375 C 5.953125 24.386719 5.671875 24.042969 5.386719 23.695312 C 4.675781 22.832031 3.953125 21.980469 3.191406 21.164062 C 3 20.960938 2.808594 20.757812 2.609375 20.558594 C 2.472656 20.421875 2.332031 20.289062 2.191406 20.160156 C 2.121094 20.097656 2.054688 20.039062 1.984375 19.980469 C 1.964844 19.960938 1.941406 19.941406 1.921875 19.925781 C 1.886719 19.894531 1.851562 19.867188 1.816406 19.835938 C 1.710938 19.75 1.601562 19.667969 1.488281 19.597656 C 1.410156 19.550781 1.160156 19.46875 1.058594 19.402344 C 1.207031 19.167969 1.902344 18.890625 2.050781 18.808594 C 2.121094 18.773438 2.1875 18.734375 2.257812 18.695312 C 2.65625 18.480469 3.054688 18.265625 3.453125 18.050781 Z M 37.5625 28.101562 C 32.675781 29.636719 27.699219 30.914062 22.765625 32.292969 C 22.730469 32.304688 22.691406 32.316406 22.65625 32.324219 C 26.917969 30.839844 31.183594 29.371094 35.425781 27.839844 C 38.027344 26.898438 40.578125 25.851562 43.03125 24.578125 C 44.089844 24.0625 45.128906 23.519531 46.152344 22.941406 C 46.269531 22.902344 46.363281 22.816406 46.394531 22.6875 L 46.394531 22.683594 C 47.558594 21.992188 48.703125 21.273438 49.84375 20.542969 C 50.195312 21.035156 50.523438 21.546875 50.820312 22.085938 C 46.554688 24.449219 42.242188 26.636719 37.5625 28.101562 Z M 37.5625 28.101562 " fill-opacity="1" fill-rule="nonzero"/></g><path fill="#231f20" d="M 5.230469 21.664062 C 5.28125 21.726562 5.328125 21.789062 5.375 21.851562 C 5.601562 22.148438 5.824219 22.441406 6.050781 22.738281 C 6.179688 22.910156 6.3125 23.082031 6.445312 23.253906 C 6.796875 23.71875 7.152344 24.179688 7.507812 24.644531 C 7.84375 25.085938 8.183594 25.527344 8.523438 25.964844 C 8.746094 26.324219 8.972656 26.679688 9.199219 27.039062 C 9.121094 26.875 9.050781 26.710938 8.976562 26.550781 C 9.164062 26.792969 9.351562 27.035156 9.539062 27.277344 C 9.898438 27.738281 10.257812 28.195312 10.621094 28.652344 C 10.878906 28.980469 11.128906 29.449219 11.523438 29.628906 C 11.945312 29.820312 12.40625 29.585938 12.835938 29.546875 C 13.394531 29.496094 13.929688 29.613281 14.441406 29.832031 C 14.621094 29.910156 14.773438 29.859375 14.871094 29.75 C 18.398438 27.511719 22.023438 25.433594 25.730469 23.5 C 25.804688 23.460938 25.878906 23.421875 25.957031 23.382812 C 26.242188 23.230469 26.53125 23.082031 26.816406 22.9375 C 26.945312 22.871094 27.070312 22.808594 27.199219 22.742188 C 27.460938 22.609375 27.726562 22.472656 27.988281 22.339844 C 28.171875 22.246094 28.355469 22.152344 28.542969 22.058594 C 28.695312 21.980469 28.851562 21.902344 29.003906 21.828125 C 31.164062 20.734375 33.320312 19.632812 35.394531 18.390625 C 36.09375 17.972656 36.78125 17.539062 37.460938 17.082031 C 37.585938 17 37.714844 16.914062 37.839844 16.828125 C 38.949219 16.066406 40.027344 15.257812 41.070312 14.414062 C 41.230469 14.28125 41.390625 14.152344 41.550781 14.019531 C 41.625 13.957031 41.703125 13.890625 41.777344 13.828125 C 41.929688 13.699219 42.082031 13.570312 42.234375 13.441406 C 42.34375 13.347656 42.457031 13.25 42.570312 13.152344 C 42.757812 12.988281 42.945312 12.820312 43.132812 12.652344 C 43.160156 12.628906 43.1875 12.605469 43.214844 12.582031 C 43.222656 12.570312 43.234375 12.5625 43.242188 12.554688 C 43.355469 12.453125 43.46875 12.351562 43.582031 12.246094 C 43.65625 12.203125 43.714844 12.132812 43.742188 12.050781 C 43.761719 11.984375 43.765625 11.910156 43.742188 11.828125 C 43.738281 11.820312 43.738281 11.8125 43.734375 11.804688 C 43.589844 11.375 43.550781 10.929688 43.609375 10.503906 C 43.652344 10.207031 43.742188 9.917969 43.878906 9.648438 C 43.992188 9.425781 44.140625 9.214844 44.324219 9.023438 C 44.457031 8.878906 44.472656 8.710938 44.421875 8.566406 C 44.402344 8.464844 44.347656 8.367188 44.246094 8.289062 C 43.21875 7.496094 41.960938 7.160156 40.8125 6.585938 C 39.492188 5.925781 38.253906 5.050781 37.042969 4.214844 C 37.007812 4.179688 36.972656 4.140625 36.9375 4.101562 C 36.777344 3.925781 36.507812 3.867188 36.3125 4.023438 C 36.070312 4.21875 35.828125 4.40625 35.582031 4.59375 C 35.160156 4.710938 34.699219 4.769531 34.328125 4.828125 C 33.636719 4.933594 32.957031 4.910156 32.296875 4.65625 C 32.097656 4.582031 31.933594 4.652344 31.835938 4.785156 C 31.796875 4.800781 31.761719 4.824219 31.722656 4.855469 C 28.9375 7.210938 25.847656 9.210938 22.519531 10.734375 C 20.816406 11.511719 19.085938 12.214844 17.347656 12.910156 C 15.710938 13.570312 14.066406 14.226562 12.453125 14.9375 C 10.289062 15.890625 8.144531 16.890625 6.027344 17.929688 C 5.832031 17.929688 5.644531 18.039062 5.625 18.261719 C 5.621094 18.285156 5.621094 18.3125 5.621094 18.335938 C 5.628906 18.429688 5.628906 18.523438 5.628906 18.613281 C 5.628906 18.648438 5.628906 18.6875 5.628906 18.722656 C 5.625 19.011719 5.59375 19.296875 5.535156 19.578125 C 5.53125 19.609375 5.523438 19.640625 5.519531 19.667969 C 5.414062 20.136719 5.238281 20.585938 4.984375 21.019531 C 4.816406 21.296875 4.996094 21.570312 5.230469 21.664062 Z M 8.859375 17.550781 C 11.515625 16.296875 14.207031 15.113281 16.925781 14 C 17.0625 13.945312 17.199219 13.886719 17.332031 13.832031 C 19.621094 12.90625 21.90625 12.003906 24.113281 10.921875 C 24.113281 10.921875 24.113281 10.917969 24.117188 10.917969 C 25.203125 10.386719 26.269531 9.808594 27.304688 9.160156 C 29.035156 8.085938 30.6875 6.882812 32.242188 5.574219 C 32.816406 5.753906 33.40625 5.796875 34.003906 5.75 C 34.179688 5.734375 34.355469 5.714844 34.53125 5.6875 C 35.019531 5.609375 35.546875 5.519531 36.039062 5.355469 C 36.253906 5.285156 36.460938 5.199219 36.652344 5.09375 C 36.671875 5.082031 36.691406 5.074219 36.710938 5.0625 C 37.878906 5.867188 39.074219 6.699219 40.339844 7.335938 C 40.578125 7.453125 40.820312 7.5625 41.0625 7.667969 C 41.855469 8.007812 42.667969 8.304688 43.390625 8.769531 C 43.304688 8.886719 43.226562 9.011719 43.152344 9.140625 C 43.007812 9.394531 42.898438 9.664062 42.820312 9.945312 C 42.707031 10.351562 42.664062 10.777344 42.699219 11.199219 C 42.703125 11.222656 42.703125 11.246094 42.707031 11.269531 C 42.722656 11.433594 42.753906 11.597656 42.796875 11.761719 C 42.726562 11.824219 42.660156 11.886719 42.589844 11.945312 C 42.539062 11.992188 42.488281 12.039062 42.433594 12.085938 C 42.425781 12.09375 42.417969 12.101562 42.410156 12.105469 C 42.253906 12.246094 42.097656 12.382812 41.941406 12.519531 C 41.820312 12.628906 41.695312 12.734375 41.570312 12.839844 C 41.34375 13.03125 41.113281 13.222656 40.886719 13.414062 C 40.792969 13.488281 40.703125 13.5625 40.613281 13.632812 C 40.226562 13.949219 39.832031 14.257812 39.4375 14.558594 C 38.863281 14.996094 38.28125 15.421875 37.691406 15.832031 C 37.238281 16.148438 36.777344 16.460938 36.3125 16.761719 C 36.160156 16.808594 36 16.894531 35.851562 17.003906 C 35.765625 17.066406 35.683594 17.136719 35.605469 17.214844 C 35.605469 17.214844 35.605469 17.214844 35.605469 17.21875 C 35.605469 17.21875 35.601562 17.21875 35.601562 17.21875 C 34.632812 17.824219 33.644531 18.402344 32.632812 18.953125 C 31.492188 19.570312 30.339844 20.171875 29.1875 20.761719 C 28.574219 21.078125 27.957031 21.390625 27.34375 21.703125 C 27.183594 21.78125 27.027344 21.863281 26.871094 21.941406 C 26.84375 21.957031 26.8125 21.972656 26.785156 21.984375 C 26.554688 22.101562 26.328125 22.21875 26.097656 22.335938 C 25.972656 22.398438 25.847656 22.464844 25.722656 22.527344 C 25.664062 22.558594 25.609375 22.585938 25.550781 22.617188 C 25.0625 22.867188 24.574219 23.121094 24.085938 23.375 C 23.117188 23.882812 22.15625 24.398438 21.203125 24.933594 C 18.941406 26.199219 16.71875 27.53125 14.53125 28.921875 C 14.15625 28.777344 13.765625 28.6875 13.359375 28.660156 C 13.136719 28.644531 12.914062 28.65625 12.695312 28.675781 C 12.488281 28.699219 12.199219 28.828125 12.003906 28.804688 C 11.644531 28.769531 11.230469 28.003906 10.996094 27.703125 C 10.65625 27.273438 10.320312 26.84375 9.984375 26.410156 C 9.140625 25.324219 8.300781 24.234375 7.46875 23.140625 C 7.355469 22.992188 7.242188 22.84375 7.128906 22.695312 C 7.054688 22.601562 6.984375 22.507812 6.914062 22.414062 C 6.785156 22.246094 6.65625 22.078125 6.53125 21.910156 C 6.5 21.871094 6.46875 21.832031 6.441406 21.792969 C 6.273438 21.570312 6.101562 21.347656 5.933594 21.125 C 6.207031 20.582031 6.386719 20.007812 6.46875 19.410156 C 6.476562 19.359375 6.484375 19.308594 6.488281 19.257812 C 6.496094 19.1875 6.503906 19.121094 6.507812 19.050781 C 6.515625 18.925781 6.519531 18.796875 6.519531 18.671875 C 6.804688 18.53125 7.09375 18.390625 7.378906 18.253906 C 7.871094 18.015625 8.363281 17.78125 8.859375 17.550781 Z M 8.859375 17.550781 " fill-opacity="1" fill-rule="nonzero"/><path fill="#231f20" d="M 20.378906 14.300781 C 20.394531 14.3125 20.40625 14.328125 20.417969 14.339844 C 20.460938 14.382812 20.5 14.421875 20.539062 14.460938 C 20.667969 14.59375 20.792969 14.722656 20.917969 14.855469 C 20.847656 14.949219 20.78125 15.042969 20.71875 15.144531 C 20.714844 15.148438 20.714844 15.152344 20.710938 15.15625 C 20.695312 15.183594 20.675781 15.210938 20.660156 15.242188 C 20.644531 15.269531 20.628906 15.296875 20.613281 15.324219 C 20.574219 15.394531 20.539062 15.464844 20.507812 15.539062 C 20.492188 15.574219 20.480469 15.605469 20.464844 15.640625 C 20.441406 15.703125 20.417969 15.765625 20.394531 15.832031 C 20.390625 15.851562 20.382812 15.871094 20.378906 15.890625 C 20.371094 15.921875 20.363281 15.953125 20.355469 15.984375 C 20.347656 16.011719 20.34375 16.039062 20.335938 16.066406 C 20.332031 16.089844 20.328125 16.113281 20.328125 16.132812 C 20.324219 16.160156 20.320312 16.1875 20.316406 16.210938 C 20.3125 16.269531 20.308594 16.324219 20.308594 16.382812 C 20.308594 16.414062 20.308594 16.445312 20.3125 16.480469 L 20.3125 16.484375 C 20.3125 16.515625 20.316406 16.546875 20.320312 16.574219 C 20.320312 16.578125 20.320312 16.582031 20.320312 16.585938 C 20.328125 16.648438 20.34375 16.707031 20.359375 16.765625 C 20.363281 16.785156 20.371094 16.800781 20.375 16.820312 C 20.378906 16.835938 20.386719 16.851562 20.394531 16.871094 C 20.394531 16.875 20.394531 16.878906 20.398438 16.882812 C 20.410156 16.914062 20.421875 16.945312 20.433594 16.972656 C 20.464844 17.042969 20.503906 17.109375 20.550781 17.171875 C 20.570312 17.207031 20.59375 17.238281 20.621094 17.269531 C 20.644531 17.296875 20.671875 17.328125 20.699219 17.355469 C 20.726562 17.386719 20.753906 17.414062 20.785156 17.4375 C 20.785156 17.441406 20.789062 17.441406 20.789062 17.445312 C 20.816406 17.46875 20.84375 17.492188 20.875 17.515625 C 20.875 17.515625 20.875 17.515625 20.878906 17.515625 C 20.882812 17.519531 20.882812 17.523438 20.886719 17.523438 C 20.90625 17.539062 20.929688 17.554688 20.949219 17.570312 C 20.976562 17.589844 21 17.605469 21.027344 17.621094 C 21.035156 17.625 21.039062 17.628906 21.046875 17.636719 C 21.078125 17.652344 21.105469 17.667969 21.136719 17.683594 C 21.164062 17.699219 21.1875 17.710938 21.214844 17.726562 C 21.230469 17.730469 21.246094 17.738281 21.257812 17.746094 C 21.285156 17.757812 21.3125 17.769531 21.335938 17.78125 C 21.355469 17.785156 21.371094 17.792969 21.386719 17.796875 C 21.398438 17.800781 21.40625 17.804688 21.417969 17.808594 C 21.429688 17.8125 21.441406 17.816406 21.453125 17.820312 C 21.484375 17.832031 21.515625 17.84375 21.550781 17.851562 C 21.589844 17.863281 21.632812 17.875 21.675781 17.882812 C 21.707031 17.890625 21.738281 17.894531 21.769531 17.902344 C 21.78125 17.902344 21.789062 17.90625 21.796875 17.90625 C 21.859375 17.917969 21.921875 17.925781 21.984375 17.929688 C 22 17.929688 22.015625 17.929688 22.027344 17.929688 C 22.0625 17.933594 22.097656 17.933594 22.128906 17.933594 C 22.246094 17.933594 22.359375 17.925781 22.46875 17.902344 C 22.671875 17.867188 22.871094 17.792969 23.066406 17.699219 C 23.148438 17.660156 23.230469 17.621094 23.308594 17.578125 C 23.433594 17.734375 23.558594 17.886719 23.679688 18.046875 C 23.789062 18.183594 23.898438 18.328125 24.003906 18.46875 C 24.113281 18.609375 24.222656 18.75 24.328125 18.894531 C 24.335938 18.90625 24.34375 18.917969 24.351562 18.929688 C 24.394531 18.984375 24.4375 19.042969 24.476562 19.097656 C 24.492188 19.117188 24.503906 19.136719 24.519531 19.15625 C 24.53125 19.171875 24.546875 19.191406 24.558594 19.210938 C 24.585938 19.25 24.613281 19.285156 24.640625 19.324219 C 24.644531 19.324219 24.644531 19.328125 24.644531 19.328125 C 24.75 19.472656 24.851562 19.613281 24.953125 19.757812 C 24.675781 19.839844 24.394531 19.898438 24.117188 19.941406 C 24.066406 19.949219 24.023438 19.964844 23.984375 19.980469 C 23.835938 20.050781 23.773438 20.199219 23.78125 20.347656 C 23.789062 20.542969 23.921875 20.746094 24.136719 20.796875 C 24.191406 20.808594 24.253906 20.8125 24.320312 20.800781 C 24.371094 20.792969 24.425781 20.785156 24.480469 20.777344 C 24.554688 20.761719 24.625 20.75 24.699219 20.734375 C 24.828125 20.707031 24.957031 20.675781 25.085938 20.640625 C 25.21875 20.605469 25.347656 20.566406 25.476562 20.519531 C 25.621094 20.734375 25.761719 20.949219 25.902344 21.164062 C 25.945312 21.230469 25.988281 21.296875 26.03125 21.363281 C 26.179688 21.597656 26.449219 21.617188 26.644531 21.519531 C 26.847656 21.417969 26.972656 21.1875 26.816406 20.941406 C 26.652344 20.6875 26.484375 20.429688 26.316406 20.179688 C 26.347656 20.164062 26.378906 20.148438 26.410156 20.128906 C 26.675781 19.992188 26.929688 19.839844 27.164062 19.660156 C 27.269531 19.585938 27.371094 19.503906 27.46875 19.417969 C 27.664062 19.722656 27.855469 20.03125 28.039062 20.339844 C 28.105469 20.449219 28.195312 20.515625 28.292969 20.542969 C 28.628906 20.636719 29.050781 20.300781 28.824219 19.917969 C 28.585938 19.523438 28.339844 19.128906 28.085938 18.742188 C 28.097656 18.730469 28.105469 18.71875 28.113281 18.710938 C 28.191406 18.601562 28.265625 18.476562 28.339844 18.339844 C 28.351562 18.320312 28.363281 18.300781 28.371094 18.28125 C 28.394531 18.242188 28.414062 18.199219 28.433594 18.160156 C 28.46875 18.082031 28.507812 18 28.539062 17.914062 C 28.582031 17.816406 28.617188 17.710938 28.652344 17.605469 C 28.660156 17.582031 28.667969 17.554688 28.675781 17.53125 C 28.683594 17.503906 28.691406 17.472656 28.699219 17.445312 C 28.707031 17.410156 28.71875 17.375 28.726562 17.339844 C 28.734375 17.296875 28.746094 17.257812 28.753906 17.21875 C 28.761719 17.171875 28.769531 17.128906 28.777344 17.082031 C 28.785156 17.042969 28.789062 17 28.792969 16.960938 C 28.796875 16.960938 28.792969 16.960938 28.792969 16.960938 C 28.796875 16.941406 28.796875 16.921875 28.800781 16.902344 C 28.800781 16.894531 28.800781 16.890625 28.800781 16.886719 C 28.804688 16.855469 28.808594 16.828125 28.808594 16.796875 C 28.8125 16.75 28.8125 16.707031 28.8125 16.660156 L 28.8125 16.65625 C 28.8125 16.628906 28.8125 16.597656 28.8125 16.570312 C 28.8125 16.546875 28.808594 16.527344 28.808594 16.507812 C 28.804688 16.492188 28.804688 16.476562 28.804688 16.460938 C 28.800781 16.441406 28.800781 16.417969 28.796875 16.394531 C 28.792969 16.375 28.792969 16.359375 28.789062 16.339844 C 28.785156 16.324219 28.785156 16.308594 28.78125 16.292969 C 28.777344 16.269531 28.773438 16.246094 28.765625 16.222656 C 28.761719 16.199219 28.753906 16.171875 28.746094 16.148438 C 28.742188 16.125 28.734375 16.101562 28.726562 16.078125 C 28.714844 16.050781 28.707031 16.023438 28.691406 15.992188 C 28.683594 15.964844 28.667969 15.9375 28.65625 15.910156 C 28.65625 15.910156 28.65625 15.90625 28.65625 15.90625 C 28.628906 15.855469 28.601562 15.808594 28.570312 15.761719 C 28.539062 15.710938 28.5 15.664062 28.457031 15.617188 C 28.449219 15.609375 28.441406 15.601562 28.433594 15.589844 C 28.417969 15.574219 28.398438 15.558594 28.378906 15.542969 C 28.378906 15.542969 28.378906 15.539062 28.378906 15.539062 C 28.359375 15.519531 28.335938 15.5 28.3125 15.484375 C 28.308594 15.480469 28.308594 15.480469 28.308594 15.480469 C 28.292969 15.46875 28.28125 15.460938 28.269531 15.449219 C 28.101562 15.324219 27.910156 15.242188 27.707031 15.199219 C 27.6875 15.191406 27.664062 15.1875 27.640625 15.183594 C 27.484375 15.152344 27.324219 15.140625 27.160156 15.144531 L 27.148438 15.144531 C 27.101562 15.148438 27.058594 15.148438 27.015625 15.152344 C 26.96875 15.15625 26.925781 15.160156 26.882812 15.164062 C 26.828125 15.171875 26.777344 15.179688 26.726562 15.1875 C 26.707031 15.1875 26.691406 15.191406 26.671875 15.195312 C 26.644531 15.199219 26.613281 15.207031 26.585938 15.210938 C 26.519531 15.222656 26.457031 15.238281 26.390625 15.253906 C 26.355469 15.261719 26.316406 15.269531 26.28125 15.28125 C 26.183594 15.304688 26.089844 15.332031 25.996094 15.363281 C 25.921875 15.375 25.851562 15.386719 25.78125 15.398438 C 25.722656 15.410156 25.667969 15.417969 25.609375 15.429688 C 25.597656 15.414062 25.589844 15.402344 25.578125 15.390625 C 25.476562 15.273438 25.375 15.15625 25.269531 15.039062 C 25.160156 14.910156 25.042969 14.78125 24.929688 14.65625 C 24.929688 14.65625 24.929688 14.652344 24.925781 14.652344 C 24.839844 14.558594 24.753906 14.464844 24.667969 14.371094 C 24.652344 14.355469 24.636719 14.335938 24.617188 14.320312 C 24.609375 14.3125 24.605469 14.304688 24.597656 14.296875 C 24.570312 14.265625 24.539062 14.234375 24.511719 14.207031 C 24.476562 14.167969 24.441406 14.128906 24.402344 14.09375 C 24.378906 14.066406 24.355469 14.039062 24.328125 14.011719 C 24.519531 13.945312 24.589844 13.773438 24.5625 13.597656 C 24.5625 13.582031 24.558594 13.570312 24.554688 13.554688 C 24.554688 13.546875 24.554688 13.539062 24.550781 13.53125 C 24.542969 13.5 24.527344 13.464844 24.511719 13.433594 C 24.507812 13.421875 24.5 13.410156 24.492188 13.402344 C 24.449219 13.328125 24.386719 13.261719 24.304688 13.222656 C 24.289062 13.214844 24.273438 13.207031 24.257812 13.203125 C 24.242188 13.195312 24.226562 13.191406 24.207031 13.1875 C 24.195312 13.183594 24.179688 13.179688 24.164062 13.179688 C 24.121094 13.171875 24.078125 13.171875 24.03125 13.175781 C 23.878906 13.195312 23.726562 13.222656 23.578125 13.253906 C 23.3125 12.996094 23.042969 12.738281 22.765625 12.488281 C 22.742188 12.464844 22.714844 12.445312 22.6875 12.429688 C 22.675781 12.421875 22.664062 12.417969 22.65625 12.410156 C 22.648438 12.40625 22.636719 12.402344 22.628906 12.398438 C 22.621094 12.394531 22.613281 12.394531 22.605469 12.390625 C 22.597656 12.386719 22.589844 12.382812 22.578125 12.382812 C 22.574219 12.378906 22.566406 12.378906 22.558594 12.375 C 22.542969 12.375 22.527344 12.371094 22.507812 12.367188 C 22.5 12.367188 22.492188 12.367188 22.484375 12.367188 C 22.464844 12.367188 22.441406 12.367188 22.421875 12.367188 C 22.410156 12.367188 22.398438 12.371094 22.386719 12.375 C 22.375 12.375 22.363281 12.378906 22.355469 12.378906 C 22.347656 12.378906 22.347656 12.382812 22.339844 12.382812 C 22.332031 12.386719 22.324219 12.386719 22.316406 12.390625 C 22.300781 12.394531 22.289062 12.398438 22.277344 12.40625 C 22.253906 12.417969 22.230469 12.425781 22.207031 12.441406 C 22.199219 12.449219 22.1875 12.453125 22.175781 12.460938 C 22.160156 12.472656 22.148438 12.484375 22.136719 12.496094 C 22.121094 12.507812 22.109375 12.519531 22.097656 12.535156 C 22.078125 12.554688 22.058594 12.582031 22.042969 12.605469 C 22.039062 12.613281 22.03125 12.625 22.027344 12.632812 C 22.019531 12.644531 22.015625 12.65625 22.011719 12.671875 C 22.003906 12.683594 22 12.695312 22 12.707031 C 21.996094 12.707031 21.996094 12.710938 21.996094 12.710938 C 21.992188 12.726562 21.988281 12.742188 21.988281 12.757812 C 21.984375 12.757812 21.984375 12.757812 21.984375 12.761719 C 21.984375 12.777344 21.984375 12.792969 21.984375 12.808594 C 21.984375 12.90625 22.023438 13.007812 22.121094 13.09375 C 22.285156 13.246094 22.449219 13.402344 22.613281 13.558594 C 22.578125 13.574219 22.539062 13.589844 22.5 13.609375 C 22.472656 13.621094 22.445312 13.632812 22.417969 13.648438 C 22.382812 13.664062 22.347656 13.679688 22.316406 13.695312 C 22.285156 13.710938 22.253906 13.730469 22.222656 13.746094 C 22.132812 13.796875 22.039062 13.847656 21.953125 13.90625 C 21.917969 13.925781 21.886719 13.945312 21.855469 13.96875 C 21.820312 13.992188 21.789062 14.015625 21.753906 14.039062 C 21.746094 14.042969 21.742188 14.046875 21.734375 14.054688 C 21.710938 14.070312 21.683594 14.089844 21.660156 14.105469 C 21.65625 14.109375 21.652344 14.113281 21.648438 14.117188 C 21.609375 14.148438 21.570312 14.179688 21.53125 14.210938 C 21.515625 14.199219 21.503906 14.183594 21.488281 14.167969 C 21.464844 14.144531 21.445312 14.121094 21.421875 14.101562 C 21.242188 13.910156 21.0625 13.726562 20.878906 13.542969 C 20.476562 13.140625 19.824219 13.742188 20.230469 14.148438 C 20.28125 14.199219 20.332031 14.25 20.378906 14.300781 Z M 22.257812 16.324219 C 22.363281 16.445312 22.46875 16.566406 22.570312 16.6875 C 22.625 16.75 22.675781 16.8125 22.726562 16.875 C 22.425781 17.015625 22.109375 17.101562 21.765625 16.992188 C 21.621094 16.945312 21.507812 16.882812 21.421875 16.8125 C 21.410156 16.800781 21.402344 16.792969 21.390625 16.785156 C 21.382812 16.773438 21.371094 16.765625 21.363281 16.753906 C 21.335938 16.722656 21.3125 16.691406 21.292969 16.660156 C 21.285156 16.648438 21.28125 16.640625 21.277344 16.632812 C 21.265625 16.609375 21.253906 16.585938 21.246094 16.5625 C 21.242188 16.550781 21.238281 16.535156 21.234375 16.523438 C 21.230469 16.507812 21.226562 16.496094 21.226562 16.480469 C 21.222656 16.464844 21.21875 16.453125 21.21875 16.4375 C 21.214844 16.425781 21.214844 16.410156 21.214844 16.398438 C 21.210938 16.382812 21.210938 16.363281 21.210938 16.347656 C 21.210938 16.332031 21.210938 16.320312 21.210938 16.304688 C 21.210938 16.296875 21.214844 16.289062 21.214844 16.277344 C 21.214844 16.253906 21.21875 16.230469 21.222656 16.207031 C 21.226562 16.1875 21.230469 16.164062 21.234375 16.144531 C 21.242188 16.117188 21.246094 16.09375 21.253906 16.066406 C 21.257812 16.0625 21.257812 16.058594 21.257812 16.058594 C 21.269531 16.023438 21.28125 15.984375 21.296875 15.949219 C 21.351562 15.804688 21.4375 15.652344 21.53125 15.511719 C 21.652344 15.640625 21.765625 15.769531 21.882812 15.898438 C 21.898438 15.917969 21.917969 15.9375 21.933594 15.957031 C 22.042969 16.078125 22.152344 16.203125 22.257812 16.324219 Z M 25.808594 19.4375 C 25.722656 19.3125 25.636719 19.191406 25.550781 19.070312 C 25.480469 18.972656 25.410156 18.875 25.335938 18.773438 C 25.21875 18.609375 25.097656 18.445312 24.972656 18.28125 C 24.871094 18.144531 24.769531 18.007812 24.664062 17.871094 C 24.480469 17.628906 24.292969 17.390625 24.101562 17.152344 C 24.144531 17.132812 24.183594 17.109375 24.222656 17.089844 C 24.226562 17.089844 24.230469 17.085938 24.230469 17.085938 C 24.234375 17.085938 24.234375 17.085938 24.234375 17.085938 C 24.296875 17.054688 24.355469 17.023438 24.417969 16.992188 C 24.523438 16.9375 24.628906 16.886719 24.734375 16.835938 C 24.839844 16.78125 24.949219 16.730469 25.054688 16.683594 C 25.160156 16.632812 25.269531 16.582031 25.378906 16.535156 C 25.402344 16.566406 25.425781 16.59375 25.449219 16.625 C 25.503906 16.691406 25.554688 16.757812 25.609375 16.824219 C 25.804688 17.070312 26 17.320312 26.1875 17.574219 C 26.382812 17.835938 26.574219 18.097656 26.761719 18.363281 C 26.828125 18.460938 26.894531 18.558594 26.960938 18.652344 C 26.628906 18.976562 26.238281 19.234375 25.808594 19.4375 Z M 27.839844 16.363281 C 27.84375 16.375 27.851562 16.390625 27.855469 16.40625 C 27.867188 16.433594 27.875 16.460938 27.878906 16.492188 C 27.882812 16.507812 27.886719 16.523438 27.886719 16.539062 C 27.890625 16.546875 27.890625 16.554688 27.890625 16.5625 C 27.898438 16.625 27.898438 16.691406 27.898438 16.757812 C 27.894531 16.789062 27.894531 16.816406 27.890625 16.84375 C 27.886719 16.878906 27.882812 16.910156 27.875 16.945312 C 27.875 16.964844 27.871094 16.984375 27.867188 17 C 27.855469 17.070312 27.839844 17.140625 27.820312 17.210938 C 27.816406 17.230469 27.808594 17.253906 27.804688 17.273438 C 27.738281 17.503906 27.644531 17.71875 27.53125 17.917969 C 27.441406 17.789062 27.351562 17.660156 27.257812 17.53125 C 27.21875 17.476562 27.179688 17.425781 27.140625 17.371094 C 27.132812 17.359375 27.125 17.347656 27.117188 17.339844 C 27.101562 17.316406 27.085938 17.292969 27.066406 17.269531 C 27.03125 17.222656 26.992188 17.171875 26.957031 17.121094 C 26.953125 17.113281 26.949219 17.109375 26.941406 17.101562 C 26.910156 17.058594 26.878906 17.019531 26.847656 16.976562 C 26.84375 16.972656 26.84375 16.964844 26.839844 16.964844 L 26.839844 16.960938 C 26.832031 16.953125 26.828125 16.949219 26.820312 16.941406 C 26.78125 16.886719 26.738281 16.832031 26.695312 16.777344 C 26.695312 16.773438 26.691406 16.769531 26.691406 16.769531 C 26.691406 16.769531 26.691406 16.765625 26.6875 16.765625 C 26.6875 16.761719 26.679688 16.757812 26.675781 16.753906 C 26.675781 16.75 26.675781 16.75 26.675781 16.75 C 26.644531 16.707031 26.609375 16.664062 26.578125 16.621094 L 26.574219 16.621094 C 26.5625 16.601562 26.546875 16.582031 26.53125 16.5625 C 26.441406 16.445312 26.347656 16.328125 26.253906 16.210938 C 26.574219 16.117188 26.90625 16.050781 27.226562 16.046875 C 27.257812 16.046875 27.285156 16.050781 27.3125 16.050781 C 27.320312 16.050781 27.332031 16.050781 27.339844 16.054688 C 27.34375 16.050781 27.34375 16.050781 27.34375 16.054688 C 27.367188 16.054688 27.386719 16.058594 27.40625 16.0625 C 27.433594 16.066406 27.457031 16.070312 27.480469 16.078125 C 27.503906 16.082031 27.527344 16.089844 27.546875 16.097656 C 27.589844 16.109375 27.625 16.128906 27.65625 16.152344 C 27.664062 16.152344 27.667969 16.15625 27.671875 16.160156 C 27.683594 16.167969 27.695312 16.175781 27.707031 16.1875 C 27.710938 16.191406 27.714844 16.195312 27.71875 16.199219 C 27.734375 16.210938 27.746094 16.222656 27.761719 16.238281 C 27.785156 16.265625 27.804688 16.292969 27.820312 16.324219 C 27.828125 16.335938 27.832031 16.351562 27.839844 16.363281 Z M 23.609375 14.546875 C 23.695312 14.636719 23.78125 14.722656 23.867188 14.816406 C 23.917969 14.871094 23.972656 14.925781 24.023438 14.984375 C 24.078125 15.042969 24.128906 15.097656 24.183594 15.15625 C 24.3125 15.296875 24.441406 15.441406 24.570312 15.585938 C 24.605469 15.628906 24.644531 15.667969 24.679688 15.710938 C 24.714844 15.753906 24.75 15.792969 24.785156 15.835938 C 24.675781 15.882812 24.570312 15.933594 24.460938 15.984375 C 24.359375 16.035156 24.253906 16.082031 24.152344 16.132812 C 23.945312 16.238281 23.734375 16.34375 23.527344 16.449219 C 23.484375 16.398438 23.445312 16.347656 23.402344 16.300781 C 23.34375 16.230469 23.285156 16.160156 23.226562 16.089844 C 23.144531 15.996094 23.066406 15.902344 22.984375 15.808594 C 22.867188 15.675781 22.75 15.539062 22.632812 15.410156 C 22.539062 15.300781 22.441406 15.191406 22.34375 15.085938 C 22.324219 15.0625 22.300781 15.035156 22.277344 15.011719 C 22.230469 14.957031 22.183594 14.90625 22.136719 14.855469 L 22.132812 14.855469 C 22.132812 14.851562 22.132812 14.847656 22.128906 14.847656 C 22.15625 14.824219 22.1875 14.796875 22.214844 14.777344 C 22.542969 14.53125 22.914062 14.355469 23.308594 14.234375 C 23.367188 14.292969 23.425781 14.351562 23.480469 14.414062 C 23.523438 14.457031 23.566406 14.5 23.609375 14.546875 Z M 23.609375 14.546875 " fill-opacity="1" fill-rule="nonzero"/><path fill="#231f20" d="M 32.246094 11.386719 C 32.25 11.414062 32.253906 11.441406 32.257812 11.46875 C 32.265625 11.496094 32.269531 11.523438 32.277344 11.554688 C 32.28125 11.578125 32.289062 11.605469 32.292969 11.628906 C 32.300781 11.652344 32.308594 11.675781 32.316406 11.699219 C 32.371094 11.859375 32.449219 11.996094 32.546875 12.121094 C 32.570312 12.152344 32.59375 12.179688 32.621094 12.210938 C 32.648438 12.238281 32.675781 12.265625 32.703125 12.292969 C 32.734375 12.320312 32.765625 12.351562 32.796875 12.375 C 32.824219 12.398438 32.855469 12.421875 32.882812 12.445312 C 32.886719 12.445312 32.886719 12.445312 32.886719 12.445312 C 32.894531 12.453125 32.902344 12.460938 32.914062 12.464844 C 32.945312 12.488281 32.976562 12.511719 33.007812 12.53125 C 33.042969 12.550781 33.074219 12.574219 33.105469 12.59375 C 33.140625 12.613281 33.171875 12.632812 33.207031 12.648438 C 33.234375 12.667969 33.265625 12.683594 33.292969 12.695312 C 33.3125 12.707031 33.332031 12.71875 33.355469 12.726562 C 33.375 12.738281 33.394531 12.746094 33.414062 12.757812 C 33.449219 12.773438 33.484375 12.789062 33.519531 12.804688 C 33.554688 12.820312 33.589844 12.835938 33.621094 12.851562 C 33.660156 12.867188 33.691406 12.878906 33.726562 12.894531 C 33.777344 12.914062 33.824219 12.933594 33.871094 12.953125 C 33.910156 12.964844 33.941406 12.976562 33.980469 12.988281 C 34.035156 13.007812 34.089844 13.027344 34.140625 13.042969 C 34.164062 13.046875 34.179688 13.054688 34.199219 13.058594 C 34.222656 13.066406 34.246094 13.070312 34.265625 13.074219 C 34.289062 13.082031 34.3125 13.085938 34.335938 13.089844 C 34.355469 13.097656 34.378906 13.101562 34.398438 13.105469 C 34.429688 13.109375 34.460938 13.117188 34.492188 13.121094 C 34.503906 13.125 34.519531 13.125 34.53125 13.128906 C 34.550781 13.128906 34.574219 13.132812 34.59375 13.132812 C 34.617188 13.136719 34.640625 13.140625 34.664062 13.140625 C 34.667969 13.140625 34.671875 13.140625 34.675781 13.140625 C 34.691406 13.140625 34.703125 13.144531 34.71875 13.144531 C 35.042969 13.15625 35.367188 13.085938 35.695312 12.886719 C 35.71875 12.871094 35.742188 12.855469 35.765625 12.839844 C 35.769531 12.839844 35.773438 12.835938 35.773438 12.835938 L 35.777344 12.835938 C 35.796875 12.820312 35.816406 12.808594 35.835938 12.792969 C 35.976562 12.699219 36.101562 12.59375 36.214844 12.476562 C 36.242188 12.449219 36.269531 12.417969 36.296875 12.386719 C 36.320312 12.363281 36.34375 12.335938 36.363281 12.308594 C 36.414062 12.246094 36.460938 12.183594 36.503906 12.117188 C 36.519531 12.09375 36.539062 12.066406 36.554688 12.039062 C 36.570312 12.007812 36.589844 11.976562 36.605469 11.945312 C 36.605469 11.945312 36.605469 11.945312 36.605469 11.941406 C 36.621094 11.910156 36.636719 11.878906 36.652344 11.847656 C 36.664062 11.820312 36.675781 11.792969 36.6875 11.769531 C 36.6875 11.765625 36.6875 11.761719 36.6875 11.757812 C 36.691406 11.757812 36.691406 11.753906 36.691406 11.753906 C 36.691406 11.75 36.691406 11.75 36.695312 11.75 C 36.726562 11.730469 36.761719 11.710938 36.796875 11.695312 C 36.769531 11.691406 36.742188 11.6875 36.71875 11.683594 C 36.730469 11.640625 36.746094 11.59375 36.757812 11.550781 C 36.761719 11.527344 36.765625 11.503906 36.773438 11.480469 C 36.777344 11.464844 36.78125 11.445312 36.78125 11.425781 C 36.789062 11.386719 36.796875 11.351562 36.796875 11.3125 C 36.804688 11.277344 36.804688 11.242188 36.808594 11.207031 C 36.808594 11.183594 36.808594 11.160156 36.808594 11.136719 C 36.808594 11.101562 36.808594 11.066406 36.804688 11.035156 C 36.804688 11 36.800781 10.964844 36.796875 10.929688 C 36.789062 10.894531 36.785156 10.859375 36.777344 10.824219 C 36.773438 10.789062 36.765625 10.753906 36.753906 10.71875 C 36.75 10.695312 36.742188 10.667969 36.734375 10.644531 C 36.726562 10.621094 36.71875 10.597656 36.710938 10.574219 C 36.703125 10.550781 36.695312 10.53125 36.6875 10.511719 C 36.679688 10.488281 36.671875 10.46875 36.664062 10.449219 C 36.65625 10.429688 36.644531 10.410156 36.636719 10.390625 C 36.617188 10.34375 36.59375 10.300781 36.566406 10.253906 C 36.554688 10.234375 36.542969 10.214844 36.535156 10.195312 C 36.519531 10.175781 36.507812 10.15625 36.496094 10.132812 C 36.441406 10.050781 36.378906 9.96875 36.316406 9.894531 C 36.300781 9.871094 36.277344 9.847656 36.257812 9.824219 C 36.171875 9.726562 36.078125 9.636719 35.980469 9.554688 C 35.976562 9.550781 35.972656 9.546875 35.96875 9.542969 C 35.933594 9.515625 35.898438 9.484375 35.859375 9.460938 C 35.859375 9.457031 35.859375 9.457031 35.859375 9.457031 C 35.820312 9.433594 35.785156 9.40625 35.75 9.382812 C 35.730469 9.371094 35.710938 9.355469 35.6875 9.34375 C 35.683594 9.339844 35.675781 9.335938 35.667969 9.332031 C 35.648438 9.320312 35.625 9.308594 35.605469 9.296875 C 35.601562 9.292969 35.597656 9.292969 35.597656 9.292969 C 35.570312 9.277344 35.546875 9.261719 35.519531 9.25 C 35.480469 9.230469 35.441406 9.210938 35.402344 9.195312 C 35.402344 9.195312 35.398438 9.195312 35.398438 9.195312 C 35.359375 9.175781 35.316406 9.160156 35.277344 9.144531 C 35.238281 9.128906 35.203125 9.117188 35.164062 9.105469 C 35.117188 9.089844 35.070312 9.078125 35.019531 9.066406 C 34.996094 9.0625 34.972656 9.054688 34.949219 9.050781 C 34.882812 9.035156 34.816406 9.023438 34.75 9.015625 C 34.722656 9.011719 34.699219 9.007812 34.675781 9.007812 C 34.484375 8.988281 34.289062 8.992188 34.089844 9.019531 C 34.046875 9.023438 34.003906 9.027344 33.960938 9.042969 C 33.910156 9.050781 33.871094 9.066406 33.832031 9.085938 C 33.808594 9.097656 33.78125 9.109375 33.753906 9.117188 C 33.730469 9.128906 33.707031 9.140625 33.679688 9.15625 C 33.652344 9.167969 33.628906 9.179688 33.605469 9.191406 C 33.582031 9.203125 33.558594 9.214844 33.539062 9.226562 C 33.417969 9.296875 33.300781 9.375 33.191406 9.464844 C 33.140625 9.507812 33.089844 9.550781 33.042969 9.59375 C 33.019531 9.613281 32.996094 9.636719 32.972656 9.660156 C 32.949219 9.679688 32.929688 9.703125 32.90625 9.726562 C 32.816406 9.820312 32.730469 9.921875 32.65625 10.03125 C 32.609375 10.097656 32.566406 10.160156 32.527344 10.226562 C 32.515625 10.25 32.503906 10.269531 32.492188 10.289062 C 32.480469 10.3125 32.464844 10.339844 32.453125 10.363281 C 32.4375 10.398438 32.421875 10.429688 32.40625 10.464844 C 32.40625 10.46875 32.402344 10.472656 32.402344 10.476562 C 32.390625 10.507812 32.375 10.535156 32.367188 10.566406 C 32.355469 10.59375 32.34375 10.625 32.332031 10.65625 C 32.324219 10.6875 32.3125 10.71875 32.304688 10.746094 C 32.296875 10.777344 32.289062 10.808594 32.28125 10.839844 C 32.273438 10.867188 32.269531 10.894531 32.265625 10.921875 C 32.253906 10.988281 32.246094 11.054688 32.242188 11.121094 C 32.238281 11.152344 32.238281 11.179688 32.238281 11.210938 C 32.238281 11.242188 32.238281 11.277344 32.242188 11.308594 C 32.242188 11.332031 32.246094 11.359375 32.246094 11.386719 Z M 35.894531 11.191406 C 35.894531 11.199219 35.894531 11.207031 35.894531 11.214844 C 35.894531 11.222656 35.890625 11.234375 35.890625 11.242188 C 35.890625 11.257812 35.886719 11.277344 35.882812 11.292969 C 35.878906 11.339844 35.867188 11.386719 35.851562 11.429688 C 35.847656 11.449219 35.839844 11.464844 35.835938 11.480469 C 35.835938 11.480469 35.835938 11.480469 35.832031 11.480469 C 35.828125 11.492188 35.824219 11.503906 35.820312 11.519531 C 35.816406 11.527344 35.8125 11.539062 35.804688 11.546875 C 35.796875 11.5625 35.789062 11.578125 35.78125 11.59375 C 35.773438 11.609375 35.765625 11.621094 35.757812 11.632812 C 35.746094 11.65625 35.730469 11.683594 35.710938 11.707031 C 35.683594 11.746094 35.652344 11.785156 35.617188 11.820312 C 35.605469 11.835938 35.59375 11.847656 35.582031 11.859375 C 35.574219 11.863281 35.566406 11.871094 35.5625 11.878906 C 35.546875 11.890625 35.535156 11.902344 35.519531 11.914062 C 35.503906 11.929688 35.484375 11.945312 35.464844 11.960938 C 35.105469 12.257812 34.796875 12.328125 34.34375 12.1875 C 34.257812 12.160156 34.160156 12.128906 34.0625 12.09375 C 34.035156 12.085938 34.011719 12.074219 33.984375 12.066406 C 33.960938 12.054688 33.933594 12.042969 33.90625 12.035156 C 33.871094 12.019531 33.832031 12.003906 33.796875 11.984375 C 33.6875 11.933594 33.578125 11.875 33.484375 11.808594 C 33.476562 11.800781 33.46875 11.796875 33.460938 11.792969 C 33.453125 11.785156 33.445312 11.78125 33.4375 11.773438 C 33.425781 11.761719 33.410156 11.753906 33.398438 11.742188 C 33.363281 11.710938 33.328125 11.679688 33.300781 11.644531 C 33.289062 11.628906 33.273438 11.613281 33.261719 11.597656 C 33.25 11.582031 33.242188 11.566406 33.234375 11.550781 C 33.195312 11.488281 33.171875 11.425781 33.15625 11.359375 C 33.148438 11.324219 33.144531 11.292969 33.140625 11.257812 C 33.140625 11.226562 33.140625 11.195312 33.140625 11.164062 C 33.140625 11.152344 33.140625 11.144531 33.144531 11.136719 C 33.144531 11.128906 33.144531 11.125 33.144531 11.121094 C 33.144531 11.113281 33.144531 11.109375 33.148438 11.101562 C 33.148438 11.085938 33.152344 11.066406 33.15625 11.050781 C 33.160156 11.027344 33.164062 11.003906 33.171875 10.980469 C 33.175781 10.960938 33.179688 10.941406 33.1875 10.925781 C 33.195312 10.898438 33.203125 10.871094 33.214844 10.847656 C 33.226562 10.816406 33.238281 10.789062 33.253906 10.757812 C 33.261719 10.734375 33.273438 10.714844 33.285156 10.691406 C 33.289062 10.683594 33.296875 10.671875 33.304688 10.660156 C 33.308594 10.648438 33.316406 10.636719 33.324219 10.625 C 33.332031 10.613281 33.339844 10.601562 33.347656 10.589844 C 33.367188 10.558594 33.386719 10.527344 33.410156 10.496094 C 33.433594 10.464844 33.457031 10.433594 33.480469 10.40625 C 33.5 10.382812 33.519531 10.359375 33.539062 10.335938 C 33.582031 10.285156 33.632812 10.238281 33.679688 10.195312 C 33.707031 10.171875 33.738281 10.144531 33.765625 10.121094 C 33.789062 10.105469 33.808594 10.089844 33.832031 10.074219 C 33.847656 10.0625 33.871094 10.046875 33.890625 10.035156 C 33.90625 10.023438 33.925781 10.011719 33.941406 10 C 33.957031 9.992188 33.972656 9.984375 33.988281 9.976562 C 34.019531 9.960938 34.050781 9.945312 34.078125 9.929688 C 34.105469 9.917969 34.132812 9.910156 34.160156 9.902344 C 34.28125 9.878906 34.398438 9.871094 34.515625 9.882812 C 34.539062 9.882812 34.5625 9.882812 34.585938 9.886719 C 34.609375 9.890625 34.636719 9.894531 34.660156 9.898438 C 34.675781 9.898438 34.691406 9.902344 34.707031 9.90625 C 34.722656 9.910156 34.738281 9.914062 34.753906 9.917969 C 34.769531 9.921875 34.789062 9.925781 34.808594 9.929688 C 34.875 9.949219 34.941406 9.972656 35.007812 10 C 35.023438 10.007812 35.039062 10.011719 35.054688 10.019531 C 35.074219 10.027344 35.09375 10.039062 35.109375 10.046875 C 35.1875 10.085938 35.265625 10.132812 35.332031 10.183594 C 35.351562 10.195312 35.371094 10.210938 35.386719 10.226562 C 35.40625 10.238281 35.421875 10.253906 35.441406 10.269531 C 35.464844 10.289062 35.488281 10.3125 35.511719 10.335938 C 35.542969 10.367188 35.574219 10.398438 35.601562 10.429688 C 35.613281 10.445312 35.628906 10.460938 35.640625 10.476562 C 35.65625 10.496094 35.667969 10.515625 35.683594 10.535156 C 35.695312 10.550781 35.707031 10.566406 35.714844 10.582031 C 35.726562 10.597656 35.738281 10.617188 35.746094 10.632812 C 35.753906 10.648438 35.761719 10.660156 35.769531 10.675781 C 35.78125 10.691406 35.789062 10.707031 35.792969 10.722656 C 35.800781 10.738281 35.804688 10.75 35.8125 10.761719 C 35.820312 10.785156 35.828125 10.804688 35.835938 10.828125 C 35.839844 10.835938 35.84375 10.847656 35.847656 10.859375 C 35.847656 10.863281 35.851562 10.863281 35.851562 10.867188 C 35.855469 10.882812 35.859375 10.894531 35.863281 10.910156 C 35.863281 10.914062 35.867188 10.917969 35.867188 10.925781 C 35.875 10.957031 35.882812 10.988281 35.886719 11.019531 C 35.886719 11.03125 35.890625 11.046875 35.890625 11.058594 C 35.894531 11.085938 35.894531 11.113281 35.894531 11.140625 C 35.898438 11.15625 35.894531 11.175781 35.894531 11.191406 Z M 35.894531 11.191406 " fill-opacity="1" fill-rule="nonzero"/><path fill="#231f20" d="M 11.265625 22.015625 C 11.277344 22.054688 11.289062 22.097656 11.300781 22.136719 C 11.363281 22.324219 11.464844 22.484375 11.589844 22.625 C 11.789062 22.851562 12.054688 23.023438 12.335938 23.164062 C 12.460938 23.226562 12.585938 23.28125 12.710938 23.332031 C 12.714844 23.332031 12.714844 23.332031 12.714844 23.332031 C 12.972656 23.4375 13.222656 23.515625 13.46875 23.558594 C 13.875 23.621094 14.273438 23.570312 14.679688 23.320312 C 14.769531 23.269531 14.851562 23.210938 14.933594 23.148438 C 14.960938 23.152344 14.992188 23.15625 15.019531 23.164062 C 15.011719 23.140625 15.007812 23.117188 15 23.097656 C 15.039062 23.066406 15.074219 23.03125 15.109375 23 C 15.324219 22.804688 15.496094 22.578125 15.609375 22.335938 C 15.871094 21.800781 15.871094 21.171875 15.476562 20.570312 C 15.441406 20.515625 15.402344 20.460938 15.363281 20.410156 C 15.347656 20.390625 15.332031 20.367188 15.3125 20.347656 C 15.300781 20.328125 15.28125 20.308594 15.265625 20.289062 C 15.257812 20.277344 15.246094 20.265625 15.238281 20.257812 C 15.21875 20.238281 15.203125 20.21875 15.183594 20.199219 C 15.042969 20.046875 14.882812 19.914062 14.710938 19.804688 C 14.671875 19.78125 14.628906 19.753906 14.585938 19.730469 C 14.53125 19.699219 14.472656 19.671875 14.414062 19.644531 C 14.382812 19.628906 14.347656 19.617188 14.316406 19.601562 C 14.269531 19.582031 14.222656 19.566406 14.175781 19.550781 C 14.140625 19.539062 14.105469 19.527344 14.070312 19.519531 C 14.03125 19.507812 13.996094 19.5 13.957031 19.492188 C 13.941406 19.488281 13.925781 19.484375 13.910156 19.480469 C 13.878906 19.472656 13.84375 19.46875 13.8125 19.460938 C 13.785156 19.457031 13.757812 19.453125 13.730469 19.453125 C 13.707031 19.449219 13.683594 19.445312 13.660156 19.441406 C 13.65625 19.441406 13.65625 19.441406 13.65625 19.441406 C 13.625 19.4375 13.59375 19.4375 13.558594 19.433594 C 13.558594 19.4375 13.554688 19.433594 13.550781 19.433594 C 13.511719 19.433594 13.46875 19.429688 13.425781 19.429688 C 13.3125 19.429688 13.191406 19.441406 13.074219 19.457031 C 13.03125 19.457031 12.988281 19.464844 12.941406 19.480469 C 12.894531 19.488281 12.855469 19.503906 12.816406 19.523438 C 12.789062 19.53125 12.765625 19.542969 12.738281 19.554688 C 12.714844 19.566406 12.6875 19.578125 12.664062 19.589844 C 12.636719 19.601562 12.613281 19.613281 12.585938 19.628906 C 12.5625 19.640625 12.535156 19.65625 12.511719 19.667969 C 12.449219 19.707031 12.386719 19.746094 12.328125 19.789062 C 12.289062 19.8125 12.257812 19.835938 12.222656 19.863281 C 12.21875 19.867188 12.21875 19.867188 12.214844 19.871094 C 12.175781 19.898438 12.140625 19.929688 12.101562 19.960938 C 12.074219 19.984375 12.046875 20.011719 12.019531 20.035156 C 12.007812 20.046875 11.996094 20.054688 11.988281 20.066406 C 11.953125 20.097656 11.921875 20.128906 11.890625 20.164062 C 11.867188 20.1875 11.839844 20.214844 11.816406 20.242188 C 11.792969 20.269531 11.769531 20.296875 11.75 20.324219 C 11.734375 20.339844 11.71875 20.359375 11.707031 20.378906 C 11.691406 20.398438 11.675781 20.417969 11.660156 20.441406 C 11.585938 20.535156 11.523438 20.636719 11.46875 20.742188 C 11.453125 20.769531 11.441406 20.792969 11.429688 20.820312 C 11.402344 20.875 11.378906 20.929688 11.355469 20.980469 C 11.34375 21.007812 11.335938 21.035156 11.328125 21.0625 C 11.308594 21.117188 11.289062 21.171875 11.277344 21.230469 C 11.269531 21.257812 11.261719 21.285156 11.257812 21.3125 C 11.222656 21.484375 11.210938 21.660156 11.234375 21.835938 C 11.242188 21.894531 11.25 21.957031 11.265625 22.015625 Z M 14.425781 20.707031 C 14.476562 20.75 14.523438 20.796875 14.570312 20.847656 C 14.597656 20.878906 14.625 20.914062 14.652344 20.949219 C 14.664062 20.964844 14.679688 20.984375 14.6875 21.003906 C 14.726562 21.058594 14.757812 21.113281 14.785156 21.167969 C 14.808594 21.226562 14.832031 21.285156 14.847656 21.347656 C 14.859375 21.386719 14.867188 21.425781 14.871094 21.464844 C 14.878906 21.511719 14.882812 21.558594 14.878906 21.605469 C 14.878906 21.609375 14.878906 21.613281 14.878906 21.617188 C 14.878906 21.632812 14.878906 21.648438 14.875 21.667969 C 14.875 21.679688 14.875 21.695312 14.871094 21.707031 C 14.871094 21.726562 14.867188 21.742188 14.863281 21.761719 C 14.859375 21.777344 14.855469 21.796875 14.851562 21.816406 C 14.847656 21.835938 14.839844 21.859375 14.832031 21.882812 C 14.828125 21.890625 14.824219 21.902344 14.820312 21.914062 C 14.816406 21.925781 14.808594 21.941406 14.804688 21.953125 C 14.796875 21.972656 14.789062 21.988281 14.777344 22.003906 C 14.761719 22.039062 14.742188 22.074219 14.71875 22.105469 C 14.675781 22.175781 14.621094 22.238281 14.558594 22.304688 C 14.523438 22.335938 14.488281 22.367188 14.449219 22.398438 C 14.402344 22.4375 14.359375 22.46875 14.316406 22.5 C 14.285156 22.519531 14.257812 22.539062 14.226562 22.554688 C 14.167969 22.589844 14.109375 22.617188 14.054688 22.636719 C 14.023438 22.648438 13.992188 22.660156 13.964844 22.664062 C 13.945312 22.671875 13.925781 22.675781 13.90625 22.679688 C 13.871094 22.6875 13.832031 22.691406 13.792969 22.691406 C 13.773438 22.695312 13.753906 22.695312 13.734375 22.695312 C 13.609375 22.695312 13.476562 22.671875 13.328125 22.625 C 13.273438 22.609375 13.214844 22.589844 13.15625 22.566406 C 13.132812 22.5625 13.113281 22.554688 13.09375 22.546875 C 13.015625 22.519531 12.933594 22.488281 12.855469 22.453125 C 12.847656 22.453125 12.84375 22.449219 12.835938 22.449219 C 12.660156 22.371094 12.488281 22.277344 12.359375 22.15625 C 12.351562 22.152344 12.34375 22.144531 12.335938 22.136719 C 12.324219 22.125 12.3125 22.109375 12.300781 22.097656 C 12.292969 22.089844 12.28125 22.078125 12.273438 22.070312 C 12.265625 22.058594 12.253906 22.046875 12.246094 22.03125 C 12.210938 21.980469 12.179688 21.925781 12.164062 21.871094 C 12.15625 21.851562 12.148438 21.835938 12.144531 21.816406 C 12.140625 21.796875 12.136719 21.78125 12.132812 21.761719 C 12.132812 21.761719 12.132812 21.757812 12.132812 21.757812 C 12.132812 21.742188 12.128906 21.730469 12.128906 21.71875 C 12.117188 21.609375 12.128906 21.5 12.164062 21.386719 C 12.179688 21.332031 12.195312 21.28125 12.21875 21.230469 C 12.25 21.160156 12.285156 21.09375 12.328125 21.03125 C 12.359375 20.980469 12.390625 20.933594 12.429688 20.886719 C 12.476562 20.824219 12.527344 20.765625 12.582031 20.710938 C 12.757812 20.53125 12.960938 20.394531 13.144531 20.339844 C 13.257812 20.316406 13.375 20.308594 13.488281 20.316406 C 13.519531 20.316406 13.546875 20.320312 13.578125 20.324219 C 13.601562 20.328125 13.625 20.332031 13.652344 20.335938 C 13.707031 20.34375 13.765625 20.359375 13.820312 20.375 C 13.835938 20.378906 13.847656 20.382812 13.863281 20.390625 C 13.9375 20.414062 14.011719 20.441406 14.078125 20.476562 C 14.121094 20.496094 14.164062 20.519531 14.203125 20.542969 C 14.242188 20.566406 14.28125 20.59375 14.316406 20.621094 C 14.355469 20.648438 14.390625 20.675781 14.425781 20.707031 Z M 14.425781 20.707031 " fill-opacity="1" fill-rule="nonzero"/></svg>