<svg xmlns="http://www.w3.org/2000/svg" xmlns:xlink="http://www.w3.org/1999/xlink" width="376" zoomAndPan="magnify" viewBox="0 0 282 148.499996" height="198" preserveAspectRatio="xMidYMid meet" version="1.0"><defs><g/></defs><path stroke-linecap="butt" transform="matrix(0.349009, 0, 0, 0.349009, 26.647108, 32.873759)" fill="none" stroke-linejoin="miter" d="M 119.695462 5.58857 C 120.378199 5.174451 121.116898 5.129681 121.877982 5.465454 C 122.571912 5.901958 122.907684 6.495156 122.907684 7.245047 L 122.907684 35.684966 C 122.907684 36.535589 122.571912 37.128787 121.877982 37.464559 C 121.116898 37.789139 120.378199 37.755562 119.695462 37.330251 L 119.572345 37.330251 C 117.445787 35.214885 114.837955 34.151606 111.760042 34.151606 L 94.109608 34.151606 C 93.415679 34.151606 92.822481 34.397839 92.330015 34.901497 C 91.803971 35.416348 91.546546 36.020738 91.546546 36.714668 L 91.546546 124.877297 C 91.546546 127.854478 92.609825 130.495887 94.736383 132.812717 C 95.172887 133.484261 95.217657 134.155806 94.893077 134.838543 C 94.456573 135.61082 93.852183 136.002554 93.079906 136.002554 L 64.673565 136.002554 C 63.822941 136.002554 63.229744 135.61082 62.893971 134.838543 C 62.547006 134.155806 62.580584 133.484261 63.017088 132.812717 L 63.151397 132.6896 C 65.188416 130.46231 66.206925 127.809708 66.206925 124.75418 L 66.206925 36.714668 C 66.206925 36.020738 65.9495 35.416348 65.423456 34.901497 C 64.93099 34.397839 64.337792 34.151606 63.643863 34.151606 L 45.993429 34.151606 C 43.016248 34.151606 40.374838 35.214885 38.058009 37.330251 C 37.375272 37.755562 36.681343 37.789139 35.998605 37.464559 C 35.248714 37.128787 34.868172 36.535589 34.868172 35.684966 L 34.868172 7.245047 C 34.868172 6.495156 35.248714 5.901958 35.998605 5.465454 C 36.681343 5.129681 37.375272 5.174451 38.058009 5.58857 L 38.058009 5.722879 C 40.374838 7.782283 43.016248 8.811985 45.993429 8.811985 L 111.760042 8.811985 C 114.759608 8.811985 117.36744 7.782283 119.572345 5.722879 Z M 242.946302 132.812717 C 243.696193 133.394722 243.987196 134.077459 243.81931 134.838543 C 243.573077 135.61082 242.979879 136.002554 242.039716 136.002554 L 209.671261 136.002554 C 208.820638 136.002554 208.216248 135.61082 207.869283 134.838543 C 207.53351 134.155806 207.567088 133.484261 207.992399 132.812717 L 208.115516 132.6896 C 208.966139 131.648706 209.066871 130.574234 208.395326 129.466185 L 192.647603 104.137757 C 191.875326 102.940169 190.800855 102.346971 189.43538 102.346971 L 186.368659 102.346971 C 185.35015 102.346971 184.499527 102.693936 183.805597 103.387866 C 183.033321 104.137757 182.652779 105.066727 182.652779 106.197161 L 182.652779 124.877297 C 182.652779 127.854478 183.72725 130.495887 185.865001 132.812717 C 186.368659 133.484261 186.491776 134.155806 186.245543 134.838543 C 185.909771 135.61082 185.316573 136.002554 184.465949 136.002554 L 155.779798 136.002554 C 154.839635 136.002554 154.21286 135.61082 153.877088 134.838543 C 153.51893 134.077459 153.686817 133.349952 154.380746 132.6896 C 156.339418 130.46231 157.313158 127.899248 157.313158 125.000413 L 157.313158 20.060359 C 157.313158 16.993638 156.249879 14.307459 154.123321 12.001822 C 153.51893 11.307893 153.395814 10.580386 153.753971 9.80811 C 154.089743 9.147757 154.682941 8.811985 155.533565 8.811985 L 195.960556 8.811985 C 202.709581 8.811985 208.932562 10.13269 214.640692 12.774099 C 220.371207 15.4267 225.273483 19.209736 229.358714 24.156782 C 232.861939 28.421091 235.548117 33.24502 237.41725 38.617378 C 239.208036 44.068082 240.103429 49.787405 240.103429 55.764153 C 240.103429 61.640169 239.208036 67.269952 237.41725 72.64231 C 235.548117 78.037053 232.861939 82.860982 229.358714 87.102906 C 227.064269 90.024126 224.299743 92.620765 221.042752 94.91521 C 220.192128 95.5196 219.68847 96.291876 219.520584 97.232039 C 219.263158 98.161009 219.397467 99.056402 219.889933 99.918218 L 235.760773 125.257839 C 237.226979 127.563475 238.972995 129.566917 241.010014 131.245779 Z M 209.80557 70.985833 C 211.406085 69.027161 212.63725 66.721524 213.487874 64.080115 C 214.338497 61.517053 214.763808 58.752527 214.763808 55.764153 C 214.763808 55.159763 214.640692 53.715942 214.394459 51.421497 C 214.148226 49.11586 213.409527 46.675914 212.211939 44.112852 C 211.01435 41.54979 209.189987 39.255345 206.705272 37.207134 C 204.14221 35.170115 200.560638 34.151606 195.960556 34.151606 L 186.368659 34.151606 C 185.35015 34.151606 184.499527 34.487378 183.805597 35.14773 C 183.033321 35.920007 182.652779 36.860169 182.652779 37.957026 L 182.652779 73.29147 C 182.652779 74.321172 183.033321 75.171795 183.805597 75.854532 C 184.499527 76.626809 185.35015 77.018543 186.368659 77.018543 L 195.960556 77.018543 C 202.026844 77.018543 206.638117 75.003909 209.80557 70.985833 Z M 303.45248 124.75418 C 303.45248 126.186809 303.721098 127.597053 304.235949 128.973719 C 304.739608 130.406348 305.511884 131.693475 306.552779 132.812717 C 306.966898 133.484261 307.011667 134.155806 306.675895 134.838543 C 306.317738 135.61082 305.713348 136.002554 304.862724 136.002554 L 276.590692 136.002554 C 275.728876 136.002554 275.135678 135.61082 274.811098 134.838543 C 274.452941 134.155806 274.497711 133.484261 274.934215 132.812717 C 277.060773 130.495887 278.124052 127.809708 278.124052 124.75418 L 278.124052 20.060359 C 278.124052 16.993638 277.060773 14.307459 274.934215 12.001822 C 274.497711 11.307893 274.452941 10.580386 274.811098 9.80811 C 275.135678 9.147757 275.728876 8.811985 276.590692 8.811985 L 304.862724 8.811985 C 305.713348 8.811985 306.317738 9.147757 306.675895 9.80811 C 307.011667 10.580386 306.966898 11.307893 306.552779 12.001822 C 304.482182 14.206727 303.45248 16.892906 303.45248 20.060359 Z M 437.55996 8.811985 C 438.421776 8.811985 439.026166 9.147757 439.373131 9.80811 C 439.708903 10.580386 439.664133 11.307893 439.250014 12.001822 L 438.847087 12.248055 C 437.403266 13.703069 436.127331 15.292391 434.996898 16.993638 C 433.900041 18.784424 433.094188 20.664749 432.590529 22.623421 L 402.135976 127.809708 C 401.609933 129.768381 402.035245 131.43605 403.411911 132.812717 C 403.91557 133.484261 404.038686 134.155806 403.792453 134.838543 C 403.456681 135.61082 402.863483 136.002554 402.01286 136.002554 L 368.077467 136.002554 C 367.226844 136.002554 366.633646 135.61082 366.297873 134.838543 C 365.962101 134.155806 366.085218 133.484261 366.678415 132.812717 C 368.04389 131.43605 368.435624 129.768381 367.831234 127.809708 L 337.488605 22.746538 C 336.9066 20.61998 336.055976 18.661307 334.925543 16.870522 C 333.739147 15.079736 332.340096 13.456836 330.717196 12.001822 C 330.023266 11.397432 329.85538 10.703503 330.213537 9.931226 C 330.45977 9.181335 331.019391 8.811985 331.870014 8.811985 L 362.33576 8.811985 C 363.186383 8.811985 363.779581 9.147757 364.115353 9.80811 C 364.462318 10.580386 364.428741 11.307893 363.981044 12.001822 L 363.857928 12.124939 C 362.402914 13.747839 361.932833 15.616971 362.458876 17.74353 L 383.455841 90.449437 C 383.702074 91.221714 384.250502 91.602256 385.101125 91.602256 C 385.873402 91.602256 386.343483 91.221714 386.511369 90.449437 L 407.508334 17.74353 C 408.191071 15.706511 407.76576 13.870955 406.221207 12.248055 L 405.974974 12.001822 C 405.53847 11.307893 405.4937 10.580386 405.851857 9.80811 C 406.187629 9.147757 406.780827 8.811985 407.631451 8.811985 L 410.071396 8.811985 L 410.071396 9.058218 L 410.194513 8.811985 Z M 491.57454 124.75418 C 491.57454 126.186809 491.831965 127.597053 492.346816 128.973719 C 492.850475 130.406348 493.622751 131.693475 494.663646 132.812717 C 495.077765 133.484261 495.122535 134.155806 494.786762 134.838543 C 494.439797 135.61082 493.835407 136.002554 492.973591 136.002554 L 464.701559 136.002554 C 463.850936 136.002554 463.257738 135.61082 462.921965 134.838543 C 462.563808 134.155806 462.608578 133.484261 463.045082 132.812717 C 465.17164 130.495887 466.234919 127.809708 466.234919 124.75418 L 466.234919 20.060359 C 466.234919 16.993638 465.17164 14.307459 463.045082 12.001822 C 462.608578 11.307893 462.563808 10.580386 462.921965 9.80811 C 463.257738 9.147757 463.850936 8.811985 464.701559 8.811985 L 492.973591 8.811985 C 493.835407 8.811985 494.439797 9.147757 494.786762 9.80811 C 495.122535 10.580386 495.077765 11.307893 494.663646 12.001822 C 492.604242 14.206727 491.57454 16.892906 491.57454 20.060359 Z M 626.957954 133.685725 C 627.148225 134.290115 627.058686 134.804966 626.711721 135.219085 C 626.28641 135.745128 625.737982 136.002554 625.055244 136.002554 L 595.619201 136.002554 C 594.768578 136.002554 594.164188 135.655589 593.80603 134.972852 C 593.48145 134.278923 593.52622 133.607378 593.962724 132.935833 L 593.962724 132.812717 C 595.317006 131.268164 595.742318 129.477378 595.249852 127.440359 L 591.399662 114.132581 C 590.963158 112.677568 590.190881 111.513557 589.094025 110.662933 C 587.985976 109.890657 586.710041 109.510115 585.243835 109.510115 L 560.038524 109.510115 C 558.594703 109.510115 557.318768 109.890657 556.188334 110.662933 C 555.091478 111.513557 554.330394 112.677568 553.916274 114.132581 L 549.942968 127.440359 C 549.428117 129.477378 549.887006 131.312933 551.353212 132.935833 C 551.845678 133.517839 551.979987 134.155806 551.722562 134.838543 C 551.386789 135.61082 550.793591 136.002554 549.942968 136.002554 L 520.238307 136.002554 C 519.566762 136.002554 519.051911 135.745128 518.704946 135.219085 C 518.290827 134.804966 518.122941 134.290115 518.201288 133.685725 C 518.290827 133.271605 518.492291 132.891063 518.828063 132.532906 C 521.827629 129.992229 523.831071 126.914315 524.860773 123.310359 L 555.315326 17.497297 C 555.986871 15.370738 555.561559 13.535183 554.039391 12.001822 C 553.602887 11.307893 553.602887 10.580386 554.039391 9.80811 C 554.375163 9.147757 554.923591 8.811985 555.695868 8.811985 L 589.463375 8.811985 C 590.32519 8.811985 590.929581 9.147757 591.276545 9.80811 C 591.612318 10.580386 591.556356 11.307893 591.119852 12.001822 C 589.687223 13.535183 589.273104 15.370738 589.877494 17.497297 L 620.432778 123.187242 C 621.473673 126.959085 623.432345 130.070576 626.331179 132.532906 C 626.745299 132.801524 626.957954 133.193259 626.957954 133.685725 Z M 580.901179 84.170494 C 581.326491 84.170494 581.707033 83.957839 582.06519 83.543719 C 582.311423 83.185562 582.356193 82.76025 582.188307 82.267784 L 574.006654 53.704749 C 573.816383 53.044397 573.391071 52.708624 572.719526 52.708624 C 571.94725 52.708624 571.477169 53.044397 571.309282 53.704749 L 562.970936 82.267784 C 562.803049 82.76025 562.903781 83.185562 563.250746 83.543719 C 563.586518 83.957839 563.96706 84.170494 564.381179 84.170494 Z M 580.901179 84.170494 " stroke="#cf642f" stroke-width="9.59834" stroke-opacity="1" stroke-miterlimit="4"/><g fill="#fda461" fill-opacity="1"><g transform="translate(33.452779, 80.338952)"><g><path d="M 34.96875 -45.5 C 35.207031 -45.65625 35.457031 -45.671875 35.71875 -45.546875 C 35.957031 -45.398438 36.078125 -45.191406 36.078125 -44.921875 L 36.078125 -35.015625 C 36.078125 -34.710938 35.957031 -34.503906 35.71875 -34.390625 C 35.457031 -34.265625 35.207031 -34.28125 34.96875 -34.4375 L 34.921875 -34.4375 C 34.179688 -35.175781 33.273438 -35.546875 32.203125 -35.546875 L 26.03125 -35.546875 C 25.789062 -35.546875 25.582031 -35.457031 25.40625 -35.28125 C 25.226562 -35.101562 25.140625 -34.894531 25.140625 -34.65625 L 25.140625 -3.890625 C 25.140625 -2.847656 25.515625 -1.921875 26.265625 -1.109375 C 26.410156 -0.878906 26.421875 -0.644531 26.296875 -0.40625 C 26.148438 -0.132812 25.941406 0 25.671875 0 L 15.765625 0 C 15.460938 0 15.253906 -0.132812 15.140625 -0.40625 C 15.015625 -0.644531 15.03125 -0.878906 15.1875 -1.109375 L 15.234375 -1.15625 C 15.941406 -1.9375 16.296875 -2.863281 16.296875 -3.9375 L 16.296875 -34.65625 C 16.296875 -34.894531 16.207031 -35.101562 16.03125 -35.28125 C 15.851562 -35.457031 15.644531 -35.546875 15.40625 -35.546875 L 9.25 -35.546875 C 8.207031 -35.546875 7.28125 -35.175781 6.46875 -34.4375 C 6.238281 -34.28125 6.003906 -34.265625 5.765625 -34.390625 C 5.492188 -34.503906 5.359375 -34.710938 5.359375 -35.015625 L 5.359375 -44.921875 C 5.359375 -45.191406 5.492188 -45.398438 5.765625 -45.546875 C 6.003906 -45.671875 6.238281 -45.65625 6.46875 -45.5 L 6.46875 -45.453125 C 7.28125 -44.742188 8.207031 -44.390625 9.25 -44.390625 L 32.203125 -44.390625 C 33.242188 -44.390625 34.148438 -44.742188 34.921875 -45.453125 Z M 34.96875 -45.5 "/></g></g></g><g fill="#fda461" fill-opacity="1"><g transform="translate(74.899329, 80.338952)"><g><path d="M 36.53125 -1.109375 C 36.800781 -0.898438 36.90625 -0.664062 36.84375 -0.40625 C 36.75 -0.132812 36.539062 0 36.21875 0 L 24.921875 0 C 24.617188 0 24.410156 -0.132812 24.296875 -0.40625 C 24.171875 -0.644531 24.1875 -0.878906 24.34375 -1.109375 L 24.375 -1.15625 C 24.675781 -1.519531 24.707031 -1.894531 24.46875 -2.28125 L 18.984375 -11.125 C 18.710938 -11.539062 18.335938 -11.75 17.859375 -11.75 L 16.796875 -11.75 C 16.429688 -11.75 16.128906 -11.628906 15.890625 -11.390625 C 15.628906 -11.117188 15.5 -10.789062 15.5 -10.40625 L 15.5 -3.890625 C 15.5 -2.847656 15.867188 -1.921875 16.609375 -1.109375 C 16.785156 -0.878906 16.832031 -0.644531 16.75 -0.40625 C 16.625 -0.132812 16.414062 0 16.125 0 L 6.125 0 C 5.789062 0 5.566406 -0.132812 5.453125 -0.40625 C 5.328125 -0.664062 5.382812 -0.914062 5.625 -1.15625 C 6.3125 -1.9375 6.65625 -2.832031 6.65625 -3.84375 L 6.65625 -40.453125 C 6.65625 -41.523438 6.28125 -42.460938 5.53125 -43.265625 C 5.320312 -43.503906 5.28125 -43.757812 5.40625 -44.03125 C 5.519531 -44.269531 5.726562 -44.390625 6.03125 -44.390625 L 20.140625 -44.390625 C 22.492188 -44.390625 24.664062 -43.925781 26.65625 -43 C 28.65625 -42.082031 30.367188 -40.757812 31.796875 -39.03125 C 33.015625 -37.539062 33.953125 -35.859375 34.609375 -33.984375 C 35.234375 -32.078125 35.546875 -30.082031 35.546875 -28 C 35.546875 -25.945312 35.234375 -23.984375 34.609375 -22.109375 C 33.953125 -20.234375 33.015625 -18.550781 31.796875 -17.0625 C 30.992188 -16.050781 30.023438 -15.140625 28.890625 -14.328125 C 28.597656 -14.117188 28.421875 -13.851562 28.359375 -13.53125 C 28.265625 -13.207031 28.304688 -12.894531 28.484375 -12.59375 L 34.03125 -3.75 C 34.53125 -2.945312 35.140625 -2.25 35.859375 -1.65625 Z M 24.96875 -22.6875 C 25.53125 -23.375 25.960938 -24.175781 26.265625 -25.09375 C 26.554688 -25.988281 26.703125 -26.957031 26.703125 -28 C 26.703125 -28.207031 26.660156 -28.710938 26.578125 -29.515625 C 26.484375 -30.316406 26.226562 -31.164062 25.8125 -32.0625 C 25.394531 -32.957031 24.753906 -33.757812 23.890625 -34.46875 C 22.992188 -35.1875 21.742188 -35.546875 20.140625 -35.546875 L 16.796875 -35.546875 C 16.429688 -35.546875 16.128906 -35.425781 15.890625 -35.1875 C 15.628906 -34.914062 15.5 -34.585938 15.5 -34.203125 L 15.5 -21.875 C 15.5 -21.519531 15.628906 -21.222656 15.890625 -20.984375 C 16.128906 -20.722656 16.429688 -20.59375 16.796875 -20.59375 L 20.140625 -20.59375 C 22.253906 -20.59375 23.863281 -21.289062 24.96875 -22.6875 Z M 24.96875 -22.6875 "/></g></g></g><g fill="#fda461" fill-opacity="1"><g transform="translate(117.105139, 80.338952)"><g><path d="M 15.453125 -3.9375 C 15.453125 -3.425781 15.539062 -2.929688 15.71875 -2.453125 C 15.894531 -1.953125 16.160156 -1.503906 16.515625 -1.109375 C 16.671875 -0.878906 16.6875 -0.644531 16.5625 -0.40625 C 16.445312 -0.132812 16.238281 0 15.9375 0 L 6.078125 0 C 5.773438 0 5.566406 -0.132812 5.453125 -0.40625 C 5.328125 -0.644531 5.34375 -0.878906 5.5 -1.109375 C 6.238281 -1.921875 6.609375 -2.863281 6.609375 -3.9375 L 6.609375 -40.453125 C 6.609375 -41.523438 6.238281 -42.460938 5.5 -43.265625 C 5.34375 -43.503906 5.328125 -43.757812 5.453125 -44.03125 C 5.566406 -44.269531 5.773438 -44.390625 6.078125 -44.390625 L 15.9375 -44.390625 C 16.238281 -44.390625 16.445312 -44.269531 16.5625 -44.03125 C 16.6875 -43.757812 16.671875 -43.503906 16.515625 -43.265625 C 15.804688 -42.492188 15.453125 -41.554688 15.453125 -40.453125 Z M 15.453125 -3.9375 "/></g></g></g><g fill="#fda461" fill-opacity="1"><g transform="translate(139.168281, 80.338952)"><g><path d="M 40.1875 -44.390625 C 40.488281 -44.390625 40.695312 -44.269531 40.8125 -44.03125 C 40.9375 -43.757812 40.921875 -43.503906 40.765625 -43.265625 L 40.640625 -43.1875 C 40.128906 -42.675781 39.679688 -42.125 39.296875 -41.53125 C 38.910156 -40.90625 38.628906 -40.25 38.453125 -39.5625 L 27.828125 -2.859375 C 27.640625 -2.171875 27.785156 -1.585938 28.265625 -1.109375 C 28.441406 -0.878906 28.488281 -0.644531 28.40625 -0.40625 C 28.28125 -0.132812 28.070312 0 27.78125 0 L 15.9375 0 C 15.644531 0 15.4375 -0.132812 15.3125 -0.40625 C 15.195312 -0.644531 15.242188 -0.878906 15.453125 -1.109375 C 15.929688 -1.585938 16.066406 -2.171875 15.859375 -2.859375 L 5.265625 -39.515625 C 5.054688 -40.265625 4.757812 -40.953125 4.375 -41.578125 C 3.957031 -42.203125 3.46875 -42.765625 2.90625 -43.265625 C 2.664062 -43.472656 2.601562 -43.710938 2.71875 -43.984375 C 2.8125 -44.253906 3.003906 -44.390625 3.296875 -44.390625 L 13.9375 -44.390625 C 14.226562 -44.390625 14.4375 -44.269531 14.5625 -44.03125 C 14.675781 -43.757812 14.660156 -43.503906 14.515625 -43.265625 L 14.46875 -43.234375 C 13.957031 -42.660156 13.796875 -42.003906 13.984375 -41.265625 L 21.296875 -15.890625 C 21.390625 -15.628906 21.582031 -15.5 21.875 -15.5 C 22.144531 -15.5 22.3125 -15.628906 22.375 -15.890625 L 29.703125 -41.265625 C 29.929688 -41.972656 29.78125 -42.613281 29.25 -43.1875 L 29.15625 -43.265625 C 29.007812 -43.503906 28.992188 -43.757812 29.109375 -44.03125 C 29.234375 -44.269531 29.441406 -44.390625 29.734375 -44.390625 L 30.59375 -44.390625 L 30.59375 -44.296875 L 30.640625 -44.390625 Z M 40.1875 -44.390625 "/></g></g></g><g fill="#fda461" fill-opacity="1"><g transform="translate(182.758623, 80.338952)"><g><path d="M 15.453125 -3.9375 C 15.453125 -3.425781 15.539062 -2.929688 15.71875 -2.453125 C 15.894531 -1.953125 16.160156 -1.503906 16.515625 -1.109375 C 16.671875 -0.878906 16.6875 -0.644531 16.5625 -0.40625 C 16.445312 -0.132812 16.238281 0 15.9375 0 L 6.078125 0 C 5.773438 0 5.566406 -0.132812 5.453125 -0.40625 C 5.328125 -0.644531 5.34375 -0.878906 5.5 -1.109375 C 6.238281 -1.921875 6.609375 -2.863281 6.609375 -3.9375 L 6.609375 -40.453125 C 6.609375 -41.523438 6.238281 -42.460938 5.5 -43.265625 C 5.34375 -43.503906 5.328125 -43.757812 5.453125 -44.03125 C 5.566406 -44.269531 5.773438 -44.390625 6.078125 -44.390625 L 15.9375 -44.390625 C 16.238281 -44.390625 16.445312 -44.269531 16.5625 -44.03125 C 16.6875 -43.757812 16.671875 -43.503906 16.515625 -43.265625 C 15.804688 -42.492188 15.453125 -41.554688 15.453125 -40.453125 Z M 15.453125 -3.9375 "/></g></g></g><g fill="#fda461" fill-opacity="1"><g transform="translate(204.821765, 80.338952)"><g><path d="M 40.640625 -0.796875 C 40.691406 -0.585938 40.660156 -0.410156 40.546875 -0.265625 C 40.398438 -0.0859375 40.207031 0 39.96875 0 L 29.703125 0 C 29.398438 0 29.191406 -0.117188 29.078125 -0.359375 C 28.953125 -0.597656 28.960938 -0.835938 29.109375 -1.078125 L 29.109375 -1.109375 C 29.585938 -1.648438 29.738281 -2.273438 29.5625 -2.984375 L 28.21875 -7.640625 C 28.070312 -8.140625 27.804688 -8.539062 27.421875 -8.84375 C 27.035156 -9.113281 26.585938 -9.25 26.078125 -9.25 L 17.28125 -9.25 C 16.769531 -9.25 16.320312 -9.113281 15.9375 -8.84375 C 15.550781 -8.539062 15.285156 -8.140625 15.140625 -7.640625 L 13.75 -2.984375 C 13.570312 -2.273438 13.738281 -1.640625 14.25 -1.078125 C 14.425781 -0.867188 14.46875 -0.644531 14.375 -0.40625 C 14.257812 -0.132812 14.050781 0 13.75 0 L 3.390625 0 C 3.148438 0 2.972656 -0.0859375 2.859375 -0.265625 C 2.710938 -0.410156 2.648438 -0.585938 2.671875 -0.796875 C 2.703125 -0.953125 2.78125 -1.085938 2.90625 -1.203125 C 3.945312 -2.097656 4.644531 -3.171875 5 -4.421875 L 15.625 -41.359375 C 15.863281 -42.097656 15.71875 -42.734375 15.1875 -43.265625 C 15.03125 -43.503906 15.03125 -43.757812 15.1875 -44.03125 C 15.300781 -44.269531 15.492188 -44.390625 15.765625 -44.390625 L 27.546875 -44.390625 C 27.847656 -44.390625 28.054688 -44.269531 28.171875 -44.03125 C 28.296875 -43.757812 28.285156 -43.503906 28.140625 -43.265625 C 27.628906 -42.734375 27.476562 -42.097656 27.6875 -41.359375 L 38.359375 -4.46875 C 38.710938 -3.15625 39.394531 -2.066406 40.40625 -1.203125 C 40.5625 -1.117188 40.640625 -0.984375 40.640625 -0.796875 Z M 24.5625 -18.078125 C 24.707031 -18.078125 24.84375 -18.15625 24.96875 -18.3125 C 25.050781 -18.425781 25.0625 -18.570312 25 -18.75 L 22.15625 -28.71875 C 22.09375 -28.957031 21.941406 -29.078125 21.703125 -29.078125 C 21.429688 -29.078125 21.269531 -28.957031 21.21875 -28.71875 L 18.3125 -18.75 C 18.25 -18.570312 18.273438 -18.425781 18.390625 -18.3125 C 18.515625 -18.15625 18.648438 -18.078125 18.796875 -18.078125 Z M 24.5625 -18.078125 "/></g></g></g><g fill="#491802" fill-opacity="0.4"><g transform="translate(60.38681, 111.745331)"><g><path d="M 0.859375 -9.453125 C 2.535156 -10.910156 4.289062 -12.46875 6.125 -14.125 C 5 -14.738281 4.25 -15.378906 3.875 -16.046875 C 3.738281 -16.253906 3.664062 -16.410156 3.65625 -16.515625 C 3.59375 -17.179688 3.765625 -17.644531 4.171875 -17.90625 C 4.578125 -18.164062 5.257812 -18.34375 6.21875 -18.4375 C 6.582031 -18.476562 7.703125 -18.144531 9.578125 -17.4375 C 11.453125 -16.738281 12.628906 -16.414062 13.109375 -16.46875 C 13.597656 -16.519531 14.257812 -16.726562 15.09375 -17.09375 C 15.925781 -17.457031 16.59375 -17.664062 17.09375 -17.71875 C 17.601562 -17.78125 17.988281 -17.710938 18.25 -17.515625 C 19.195312 -16.503906 19.679688 -15.878906 19.703125 -15.640625 C 19.734375 -15.410156 19.644531 -15.210938 19.4375 -15.046875 C 19.238281 -14.878906 18.609375 -14.335938 17.546875 -13.421875 C 16.492188 -12.503906 15.460938 -11.578125 14.453125 -10.640625 C 13.453125 -9.703125 12.523438 -8.671875 11.671875 -7.546875 C 10.828125 -6.421875 10.441406 -5.546875 10.515625 -4.921875 C 10.523438 -4.828125 10.613281 -4.785156 10.78125 -4.796875 C 12.5625 -4.984375 18.1875 -9.234375 27.65625 -17.546875 C 27.894531 -17.566406 28.035156 -17.367188 28.078125 -16.953125 C 28.128906 -16.535156 26.972656 -14.976562 24.609375 -12.28125 C 22.253906 -9.582031 19.554688 -6.894531 16.515625 -4.21875 C 13.472656 -1.539062 11.210938 -0.125 9.734375 0.03125 C 7.410156 0.28125 6.128906 -0.75 5.890625 -3.0625 C 5.753906 -4.3125 6.046875 -5.566406 6.765625 -6.828125 C 7.484375 -8.097656 9.09375 -9.867188 11.59375 -12.140625 C 11.03125 -12.078125 10.253906 -12.132812 9.265625 -12.3125 C 8.285156 -12.5 7.640625 -12.78125 7.328125 -13.15625 C 6.546875 -12.289062 5.195312 -10.859375 3.28125 -8.859375 C 2.820312 -8.441406 2.195312 -8.191406 1.40625 -8.109375 C 0.613281 -8.023438 0.203125 -8.109375 0.171875 -8.359375 C 0.148438 -8.609375 0.378906 -8.972656 0.859375 -9.453125 Z M 0.859375 -9.453125 "/></g></g></g><g fill="#491802" fill-opacity="0.4"><g transform="translate(80.950117, 109.578397)"><g><path d="M 2.59375 -2.46875 C 3.644531 -2.582031 4.875 -3.414062 6.28125 -4.96875 C 7.695312 -6.519531 8.410156 -7.5625 8.421875 -8.09375 C 7.992188 -8.382812 7.507812 -8.941406 6.96875 -9.765625 C 6.425781 -10.597656 6.132812 -11.007812 6.09375 -11 C 5.175781 -9.945312 4.382812 -8.75 3.71875 -7.40625 C 2.695312 -5.15625 2.226562 -3.632812 2.3125 -2.84375 C 2.332031 -2.570312 2.425781 -2.445312 2.59375 -2.46875 Z M 12.015625 -15.75 C 11.679688 -15.71875 11.046875 -15.132812 10.109375 -14 C 9.179688 -12.863281 8.738281 -12.097656 8.78125 -11.703125 C 8.789062 -11.597656 8.910156 -11.410156 9.140625 -11.140625 C 9.367188 -10.867188 9.535156 -10.738281 9.640625 -10.75 C 10.203125 -10.8125 10.765625 -11.550781 11.328125 -12.96875 C 11.898438 -14.394531 12.171875 -15.21875 12.140625 -15.4375 C 12.117188 -15.65625 12.078125 -15.757812 12.015625 -15.75 Z M 12.796875 -9.359375 C 13.722656 -9.453125 15.109375 -10.164062 16.953125 -11.5 C 18.804688 -12.832031 20.410156 -14.140625 21.765625 -15.421875 L 23.828125 -17.390625 C 24.140625 -17.191406 24.3125 -16.925781 24.34375 -16.59375 C 24.382812 -16.257812 24.269531 -15.945312 24 -15.65625 C 19.09375 -10.03125 15.234375 -7.070312 12.421875 -6.78125 C 12.222656 -6.757812 11.921875 -6.757812 11.515625 -6.78125 C 8.242188 -2.050781 5.265625 0.453125 2.578125 0.734375 C 0.765625 0.648438 -0.421875 0.140625 -0.984375 -0.796875 C -1.304688 -1.253906 -1.507812 -1.867188 -1.59375 -2.640625 C -1.820312 -4.816406 -0.835938 -7.550781 1.359375 -10.84375 C 3.554688 -14.132812 6.484375 -16.691406 10.140625 -18.515625 C 10.460938 -18.546875 10.710938 -18.492188 10.890625 -18.359375 C 11.066406 -18.222656 11.222656 -18.15625 11.359375 -18.15625 C 11.492188 -18.15625 11.660156 -18.238281 11.859375 -18.40625 C 12.054688 -18.582031 12.335938 -18.695312 12.703125 -18.75 C 13.066406 -18.8125 13.46875 -18.644531 13.90625 -18.25 C 14.476562 -17.875 14.800781 -17.375 14.875 -16.75 C 15.0625 -14.90625 14.367188 -12.441406 12.796875 -9.359375 Z M 12.796875 -9.359375 "/></g></g></g><g fill="#491802" fill-opacity="0.4"><g transform="translate(97.202562, 107.865736)"><g><path d="M 12.609375 -5.78125 C 17.265625 -8.945312 22.316406 -13.039062 27.765625 -18.0625 C 28.078125 -17.863281 28.25 -17.597656 28.28125 -17.265625 C 28.320312 -16.929688 28.191406 -16.597656 27.890625 -16.265625 C 27.597656 -15.929688 27.171875 -15.453125 26.609375 -14.828125 C 26.054688 -14.203125 25 -13.070312 23.4375 -11.4375 C 21.875 -9.8125 20.414062 -8.320312 19.0625 -6.96875 C 15.488281 -3.425781 12.804688 -1.273438 11.015625 -0.515625 C 10.429688 -0.285156 9.796875 -0.132812 9.109375 -0.0625 C 7.984375 0.0625 7.328125 -0.75 7.140625 -2.5 C 7.109375 -2.863281 7.210938 -3.425781 7.453125 -4.1875 C 7.691406 -4.945312 7.828125 -5.382812 7.859375 -5.5 C 7.898438 -5.625 7.929688 -5.722656 7.953125 -5.796875 C 7.984375 -5.867188 8.007812 -5.929688 8.03125 -5.984375 C 8.0625 -6.035156 8.070312 -6.09375 8.0625 -6.15625 C 8.0625 -6.21875 7.960938 -6.238281 7.765625 -6.21875 C 7.597656 -6.195312 7.097656 -5.703125 6.265625 -4.734375 C 5.429688 -3.765625 4.734375 -2.984375 4.171875 -2.390625 C 3.617188 -1.796875 2.976562 -1.226562 2.25 -0.6875 C 1.53125 -0.144531 0.925781 0.148438 0.4375 0.203125 C -0.882812 0.347656 -1.613281 -0.1875 -1.75 -1.40625 C -1.820312 -2.132812 -1.671875 -3.050781 -1.296875 -4.15625 C -0.390625 -6.726562 1.085938 -9.359375 3.140625 -12.046875 C 5.191406 -14.742188 6.71875 -16.160156 7.71875 -16.296875 C 8.082031 -16.335938 8.421875 -16.238281 8.734375 -16 C 9.054688 -15.769531 9.234375 -15.488281 9.265625 -15.15625 C 9.304688 -14.832031 9.03125 -14.300781 8.4375 -13.5625 C 7.84375 -12.832031 7.097656 -11.894531 6.203125 -10.75 C 5.304688 -9.601562 4.6875 -8.660156 4.34375 -7.921875 C 4 -7.179688 3.835938 -6.695312 3.859375 -6.46875 C 3.890625 -6.238281 4.035156 -6.140625 4.296875 -6.171875 C 4.566406 -6.203125 5.03125 -6.46875 5.6875 -6.96875 C 7.4375 -8.445312 9.421875 -10.253906 11.640625 -12.390625 C 13.867188 -14.535156 15.289062 -16.078125 15.90625 -17.015625 C 16.007812 -17.617188 16.46875 -17.960938 17.28125 -18.046875 C 18.863281 -18.210938 19.679688 -18.019531 19.734375 -17.46875 C 19.765625 -17.238281 19.085938 -16.296875 17.703125 -14.640625 C 13.515625 -9.691406 11.476562 -6.6875 11.59375 -5.625 C 11.601562 -5.46875 11.679688 -5.394531 11.828125 -5.40625 C 11.984375 -5.425781 12.242188 -5.550781 12.609375 -5.78125 Z M 12.609375 -5.78125 "/></g></g></g><g fill="#491802" fill-opacity="0.4"><g transform="translate(117.220821, 105.756238)"><g><path d="M 9.109375 -17.546875 C 9.378906 -17.578125 9.832031 -17.488281 10.46875 -17.28125 C 11.113281 -17.082031 11.453125 -16.820312 11.484375 -16.5 C 11.503906 -16.257812 11.445312 -16.019531 11.3125 -15.78125 L 8.15625 -10.234375 C 7.769531 -9.648438 7.578125 -9.328125 7.578125 -9.265625 C 7.585938 -9.203125 7.613281 -9.175781 7.65625 -9.1875 L 7.875 -9.34375 C 11.425781 -12.425781 14.34375 -15.109375 16.625 -17.390625 C 17.03125 -17.765625 17.390625 -17.96875 17.703125 -18 C 18.023438 -18.03125 18.238281 -18.015625 18.34375 -17.953125 L 19.78125 -17.71875 C 20.125 -17.59375 20.3125 -17.394531 20.34375 -17.125 C 20.375 -16.863281 20.328125 -16.640625 20.203125 -16.453125 C 19.648438 -15.691406 19.015625 -14.832031 18.296875 -13.875 C 17.585938 -12.914062 17.054688 -12.191406 16.703125 -11.703125 C 16.347656 -11.222656 15.953125 -10.675781 15.515625 -10.0625 C 15.078125 -9.445312 14.769531 -8.976562 14.59375 -8.65625 C 14.414062 -8.332031 14.210938 -7.96875 13.984375 -7.5625 C 13.753906 -7.15625 13.609375 -6.8125 13.546875 -6.53125 C 13.429688 -5.757812 13.398438 -5.09375 13.453125 -4.53125 C 13.484375 -4.226562 13.6875 -4.097656 14.0625 -4.140625 C 14.445312 -4.179688 15.117188 -4.484375 16.078125 -5.046875 C 17.035156 -5.617188 18.164062 -6.457031 19.46875 -7.5625 C 20.769531 -8.664062 22.492188 -10.222656 24.640625 -12.234375 C 26.785156 -14.242188 28.664062 -15.953125 30.28125 -17.359375 C 30.613281 -17.160156 30.796875 -16.894531 30.828125 -16.5625 C 30.859375 -16.238281 30.738281 -15.929688 30.46875 -15.640625 C 29.507812 -14.503906 28.304688 -13.082031 26.859375 -11.375 C 25.410156 -9.664062 23.160156 -7.347656 20.109375 -4.421875 C 17.066406 -1.503906 14.878906 0.0234375 13.546875 0.171875 C 11.003906 0.441406 9.585938 -0.769531 9.296875 -3.46875 C 9.191406 -4.5 9.476562 -5.625 10.15625 -6.84375 L 11.96875 -9.984375 C 12.132812 -10.304688 12.210938 -10.488281 12.203125 -10.53125 C 12.203125 -10.582031 12.113281 -10.515625 11.9375 -10.328125 C 6.6875 -4.929688 3.3125 -1.738281 1.8125 -0.75 C 1.570312 -0.550781 1.253906 -0.429688 0.859375 -0.390625 C -0.234375 -0.273438 -0.832031 -0.710938 -0.9375 -1.703125 C -0.96875 -2.035156 -0.914062 -2.34375 -0.78125 -2.625 C 1.425781 -5.125 2.953125 -7.132812 3.796875 -8.65625 C 4.503906 -9.539062 5.21875 -10.738281 5.9375 -12.25 C 6.664062 -13.757812 7.285156 -15.007812 7.796875 -16 C 8.304688 -16.988281 8.742188 -17.503906 9.109375 -17.546875 Z M 9.109375 -17.546875 "/></g></g></g><g fill="#491802" fill-opacity="0.4"><g transform="translate(140.013889, 103.354334)"><g><path d="M 3.484375 -4.578125 C 3.867188 -4.617188 4.988281 -5.550781 6.84375 -7.375 C 8.707031 -9.207031 10.484375 -11.035156 12.171875 -12.859375 L 14.625 -15.578125 C 14.75 -15.722656 14.804688 -15.816406 14.796875 -15.859375 C 14.796875 -15.910156 14.75 -15.929688 14.65625 -15.921875 C 13.394531 -15.785156 11.832031 -14.890625 9.96875 -13.234375 C 8.101562 -11.585938 6.523438 -9.882812 5.234375 -8.125 C 3.941406 -6.375 3.320312 -5.21875 3.375 -4.65625 C 3.382812 -4.601562 3.421875 -4.578125 3.484375 -4.578125 Z M 12.140625 -4.734375 C 12.148438 -4.628906 12.257812 -4.585938 12.46875 -4.609375 C 12.675781 -4.640625 13.585938 -5.238281 15.203125 -6.40625 C 19.429688 -9.425781 24.359375 -13.390625 29.984375 -18.296875 C 30.304688 -18.097656 30.484375 -17.832031 30.515625 -17.5 C 30.554688 -17.164062 30.425781 -16.832031 30.125 -16.5 C 29.820312 -16.164062 29.394531 -15.6875 28.84375 -15.0625 C 28.289062 -14.4375 27.234375 -13.304688 25.671875 -11.671875 C 24.109375 -10.046875 22.644531 -8.554688 21.28125 -7.203125 C 17.71875 -3.660156 15.035156 -1.507812 13.234375 -0.75 C 12.671875 -0.519531 12.039062 -0.367188 11.34375 -0.296875 C 10.664062 -0.316406 10.035156 -0.5 9.453125 -0.84375 C 8.867188 -1.1875 8.546875 -1.617188 8.484375 -2.140625 C 8.429688 -2.671875 8.472656 -3.46875 8.609375 -4.53125 C 8.753906 -5.601562 8.820312 -6.179688 8.8125 -6.265625 C 8.8125 -6.347656 8.785156 -6.382812 8.734375 -6.375 C 8.679688 -6.375 8.59375 -6.300781 8.46875 -6.15625 C 8.09375 -5.632812 7.609375 -5 7.015625 -4.25 C 6.421875 -3.507812 5.378906 -2.484375 3.890625 -1.171875 C 2.410156 0.128906 1.175781 0.832031 0.1875 0.9375 C 0.0195312 0.914062 -0.1875 0.875 -0.4375 0.8125 C -0.695312 0.757812 -1.046875 0.519531 -1.484375 0.09375 C -1.929688 -0.320312 -2.195312 -0.957031 -2.28125 -1.8125 C -2.375 -2.675781 -1.867188 -4.054688 -0.765625 -5.953125 C 0.328125 -7.859375 1.707031 -9.753906 3.375 -11.640625 C 5.039062 -13.535156 6.914062 -15.226562 9 -16.71875 C 11.082031 -18.21875 12.953125 -19.054688 14.609375 -19.234375 C 15.203125 -19.296875 15.742188 -18.898438 16.234375 -18.046875 C 16.179688 -18.273438 17.097656 -19.878906 18.984375 -22.859375 C 20.867188 -25.847656 23.15625 -28.894531 25.84375 -32 C 28.539062 -35.101562 30.71875 -36.742188 32.375 -36.921875 C 32.9375 -36.984375 33.25 -36.753906 33.3125 -36.234375 C 33.394531 -35.410156 32.957031 -34.222656 32 -32.671875 C 31.039062 -31.128906 29.992188 -29.679688 28.859375 -28.328125 C 27.722656 -26.984375 26.238281 -25.28125 24.40625 -23.21875 C 20.195312 -18.5 17.066406 -14.523438 15.015625 -11.296875 C 12.972656 -8.078125 12.015625 -5.890625 12.140625 -4.734375 Z M 12.140625 -4.734375 "/></g></g></g><g fill="#491802" fill-opacity="0.4"><g transform="translate(162.162806, 101.020311)"><g/></g></g><g fill="#491802" fill-opacity="0.4"><g transform="translate(174.550345, 99.714928)"><g><path d="M 12.609375 -5.78125 C 17.265625 -8.945312 22.316406 -13.039062 27.765625 -18.0625 C 28.078125 -17.863281 28.25 -17.597656 28.28125 -17.265625 C 28.320312 -16.929688 28.191406 -16.597656 27.890625 -16.265625 C 27.597656 -15.929688 27.171875 -15.453125 26.609375 -14.828125 C 26.054688 -14.203125 25 -13.070312 23.4375 -11.4375 C 21.875 -9.8125 20.414062 -8.320312 19.0625 -6.96875 C 15.488281 -3.425781 12.804688 -1.273438 11.015625 -0.515625 C 10.429688 -0.285156 9.796875 -0.132812 9.109375 -0.0625 C 7.984375 0.0625 7.328125 -0.75 7.140625 -2.5 C 7.109375 -2.863281 7.210938 -3.425781 7.453125 -4.1875 C 7.691406 -4.945312 7.828125 -5.382812 7.859375 -5.5 C 7.898438 -5.625 7.929688 -5.722656 7.953125 -5.796875 C 7.984375 -5.867188 8.007812 -5.929688 8.03125 -5.984375 C 8.0625 -6.035156 8.070312 -6.09375 8.0625 -6.15625 C 8.0625 -6.21875 7.960938 -6.238281 7.765625 -6.21875 C 7.597656 -6.195312 7.097656 -5.703125 6.265625 -4.734375 C 5.429688 -3.765625 4.734375 -2.984375 4.171875 -2.390625 C 3.617188 -1.796875 2.976562 -1.226562 2.25 -0.6875 C 1.53125 -0.144531 0.925781 0.148438 0.4375 0.203125 C -0.882812 0.347656 -1.613281 -0.1875 -1.75 -1.40625 C -1.820312 -2.132812 -1.671875 -3.050781 -1.296875 -4.15625 C -0.390625 -6.726562 1.085938 -9.359375 3.140625 -12.046875 C 5.191406 -14.742188 6.71875 -16.160156 7.71875 -16.296875 C 8.082031 -16.335938 8.421875 -16.238281 8.734375 -16 C 9.054688 -15.769531 9.234375 -15.488281 9.265625 -15.15625 C 9.304688 -14.832031 9.03125 -14.300781 8.4375 -13.5625 C 7.84375 -12.832031 7.097656 -11.894531 6.203125 -10.75 C 5.304688 -9.601562 4.6875 -8.660156 4.34375 -7.921875 C 4 -7.179688 3.835938 -6.695312 3.859375 -6.46875 C 3.890625 -6.238281 4.035156 -6.140625 4.296875 -6.171875 C 4.566406 -6.203125 5.03125 -6.46875 5.6875 -6.96875 C 7.4375 -8.445312 9.421875 -10.253906 11.640625 -12.390625 C 13.867188 -14.535156 15.289062 -16.078125 15.90625 -17.015625 C 16.007812 -17.617188 16.46875 -17.960938 17.28125 -18.046875 C 18.863281 -18.210938 19.679688 -18.019531 19.734375 -17.46875 C 19.765625 -17.238281 19.085938 -16.296875 17.703125 -14.640625 C 13.515625 -9.691406 11.476562 -6.6875 11.59375 -5.625 C 11.601562 -5.46875 11.679688 -5.394531 11.828125 -5.40625 C 11.984375 -5.425781 12.242188 -5.550781 12.609375 -5.78125 Z M 12.609375 -5.78125 "/></g></g></g><g fill="#491802" fill-opacity="0.4"><g transform="translate(194.568604, 97.60543)"><g><path d="M 5.1875 -2.046875 C 6.289062 -2.160156 7.882812 -2.96875 9.96875 -4.46875 C 12.0625 -5.976562 13.910156 -7.570312 15.515625 -9.25 C 17.128906 -10.925781 17.90625 -12.0625 17.84375 -12.65625 C 17.832031 -12.75 17.78125 -12.789062 17.6875 -12.78125 C 16.96875 -12.707031 15.519531 -11.8125 13.34375 -10.09375 C 11.164062 -8.382812 9.160156 -6.671875 7.328125 -4.953125 C 5.503906 -3.234375 4.597656 -2.304688 4.609375 -2.171875 C 4.628906 -2.046875 4.820312 -2.003906 5.1875 -2.046875 Z M 15.578125 -24.28125 C 15.929688 -24.320312 16.351562 -24.09375 16.84375 -23.59375 C 17.332031 -23.09375 17.585938 -22.707031 17.609375 -22.4375 C 17.640625 -22.175781 17.613281 -21.992188 17.53125 -21.890625 C 15.457031 -19.660156 13.460938 -17.34375 11.546875 -14.9375 C 9.640625 -12.53125 8.226562 -10.679688 7.3125 -9.390625 L 6.046875 -7.453125 C 5.796875 -7.160156 5.675781 -6.960938 5.6875 -6.859375 C 5.695312 -6.765625 5.734375 -6.71875 5.796875 -6.71875 C 5.867188 -6.726562 5.953125 -6.789062 6.046875 -6.90625 L 6.4375 -7.296875 C 11.351562 -12.691406 15.3125 -15.546875 18.3125 -15.859375 C 18.71875 -15.898438 19.097656 -15.820312 19.453125 -15.625 C 20.671875 -14.820312 21.335938 -13.832031 21.453125 -12.65625 C 21.578125 -11.488281 20.898438 -9.90625 19.421875 -7.90625 C 17.953125 -5.914062 16.066406 -4.101562 13.765625 -2.46875 C 11.460938 -0.84375 9.492188 0.0507812 7.859375 0.21875 C 6.222656 0.394531 5.09375 0.0820312 4.46875 -0.71875 L 3.859375 -1.46875 C 3.828125 -1.488281 3.78125 -1.5 3.71875 -1.5 C 2.976562 -1.414062 0.8125 1.148438 -2.78125 6.203125 C -6.375 11.253906 -8.640625 14.882812 -9.578125 17.09375 C -9.648438 17.695312 -9.882812 18.019531 -10.28125 18.0625 C -10.476562 18.082031 -10.664062 18.035156 -10.84375 17.921875 L -13.265625 16.4375 C -13.390625 16.375 -13.46875 16.226562 -13.5 16 C -13.539062 15.601562 -11.378906 12.09375 -7.015625 5.46875 C -2.648438 -1.144531 1.957031 -7.726562 6.8125 -14.28125 C 11.664062 -20.84375 14.585938 -24.175781 15.578125 -24.28125 Z M 15.578125 -24.28125 "/></g></g></g><g fill="#491802" fill-opacity="1"><g transform="translate(61.716401, 111.413439)"><g><path d="M 0.859375 -9.453125 C 2.535156 -10.910156 4.289062 -12.46875 6.125 -14.125 C 5 -14.738281 4.25 -15.378906 3.875 -16.046875 C 3.738281 -16.253906 3.664062 -16.410156 3.65625 -16.515625 C 3.59375 -17.179688 3.765625 -17.644531 4.171875 -17.90625 C 4.578125 -18.164062 5.257812 -18.34375 6.21875 -18.4375 C 6.582031 -18.476562 7.703125 -18.144531 9.578125 -17.4375 C 11.453125 -16.738281 12.628906 -16.414062 13.109375 -16.46875 C 13.597656 -16.519531 14.257812 -16.726562 15.09375 -17.09375 C 15.925781 -17.457031 16.59375 -17.664062 17.09375 -17.71875 C 17.601562 -17.78125 17.988281 -17.710938 18.25 -17.515625 C 19.195312 -16.503906 19.679688 -15.878906 19.703125 -15.640625 C 19.734375 -15.410156 19.644531 -15.210938 19.4375 -15.046875 C 19.238281 -14.878906 18.609375 -14.335938 17.546875 -13.421875 C 16.492188 -12.503906 15.460938 -11.578125 14.453125 -10.640625 C 13.453125 -9.703125 12.523438 -8.671875 11.671875 -7.546875 C 10.828125 -6.421875 10.441406 -5.546875 10.515625 -4.921875 C 10.523438 -4.828125 10.613281 -4.785156 10.78125 -4.796875 C 12.5625 -4.984375 18.1875 -9.234375 27.65625 -17.546875 C 27.894531 -17.566406 28.035156 -17.367188 28.078125 -16.953125 C 28.128906 -16.535156 26.972656 -14.976562 24.609375 -12.28125 C 22.253906 -9.582031 19.554688 -6.894531 16.515625 -4.21875 C 13.472656 -1.539062 11.210938 -0.125 9.734375 0.03125 C 7.410156 0.28125 6.128906 -0.75 5.890625 -3.0625 C 5.753906 -4.3125 6.046875 -5.566406 6.765625 -6.828125 C 7.484375 -8.097656 9.09375 -9.867188 11.59375 -12.140625 C 11.03125 -12.078125 10.253906 -12.132812 9.265625 -12.3125 C 8.285156 -12.5 7.640625 -12.78125 7.328125 -13.15625 C 6.546875 -12.289062 5.195312 -10.859375 3.28125 -8.859375 C 2.820312 -8.441406 2.195312 -8.191406 1.40625 -8.109375 C 0.613281 -8.023438 0.203125 -8.109375 0.171875 -8.359375 C 0.148438 -8.609375 0.378906 -8.972656 0.859375 -9.453125 Z M 0.859375 -9.453125 "/></g></g></g><g fill="#491802" fill-opacity="1"><g transform="translate(82.279708, 109.246505)"><g><path d="M 2.59375 -2.46875 C 3.644531 -2.582031 4.875 -3.414062 6.28125 -4.96875 C 7.695312 -6.519531 8.410156 -7.5625 8.421875 -8.09375 C 7.992188 -8.382812 7.507812 -8.941406 6.96875 -9.765625 C 6.425781 -10.597656 6.132812 -11.007812 6.09375 -11 C 5.175781 -9.945312 4.382812 -8.75 3.71875 -7.40625 C 2.695312 -5.15625 2.226562 -3.632812 2.3125 -2.84375 C 2.332031 -2.570312 2.425781 -2.445312 2.59375 -2.46875 Z M 12.015625 -15.75 C 11.679688 -15.71875 11.046875 -15.132812 10.109375 -14 C 9.179688 -12.863281 8.738281 -12.097656 8.78125 -11.703125 C 8.789062 -11.597656 8.910156 -11.410156 9.140625 -11.140625 C 9.367188 -10.867188 9.535156 -10.738281 9.640625 -10.75 C 10.203125 -10.8125 10.765625 -11.550781 11.328125 -12.96875 C 11.898438 -14.394531 12.171875 -15.21875 12.140625 -15.4375 C 12.117188 -15.65625 12.078125 -15.757812 12.015625 -15.75 Z M 12.796875 -9.359375 C 13.722656 -9.453125 15.109375 -10.164062 16.953125 -11.5 C 18.804688 -12.832031 20.410156 -14.140625 21.765625 -15.421875 L 23.828125 -17.390625 C 24.140625 -17.191406 24.3125 -16.925781 24.34375 -16.59375 C 24.382812 -16.257812 24.269531 -15.945312 24 -15.65625 C 19.09375 -10.03125 15.234375 -7.070312 12.421875 -6.78125 C 12.222656 -6.757812 11.921875 -6.757812 11.515625 -6.78125 C 8.242188 -2.050781 5.265625 0.453125 2.578125 0.734375 C 0.765625 0.648438 -0.421875 0.140625 -0.984375 -0.796875 C -1.304688 -1.253906 -1.507812 -1.867188 -1.59375 -2.640625 C -1.820312 -4.816406 -0.835938 -7.550781 1.359375 -10.84375 C 3.554688 -14.132812 6.484375 -16.691406 10.140625 -18.515625 C 10.460938 -18.546875 10.710938 -18.492188 10.890625 -18.359375 C 11.066406 -18.222656 11.222656 -18.15625 11.359375 -18.15625 C 11.492188 -18.15625 11.660156 -18.238281 11.859375 -18.40625 C 12.054688 -18.582031 12.335938 -18.695312 12.703125 -18.75 C 13.066406 -18.8125 13.46875 -18.644531 13.90625 -18.25 C 14.476562 -17.875 14.800781 -17.375 14.875 -16.75 C 15.0625 -14.90625 14.367188 -12.441406 12.796875 -9.359375 Z M 12.796875 -9.359375 "/></g></g></g><g fill="#491802" fill-opacity="1"><g transform="translate(98.532153, 107.533844)"><g><path d="M 12.609375 -5.78125 C 17.265625 -8.945312 22.316406 -13.039062 27.765625 -18.0625 C 28.078125 -17.863281 28.25 -17.597656 28.28125 -17.265625 C 28.320312 -16.929688 28.191406 -16.597656 27.890625 -16.265625 C 27.597656 -15.929688 27.171875 -15.453125 26.609375 -14.828125 C 26.054688 -14.203125 25 -13.070312 23.4375 -11.4375 C 21.875 -9.8125 20.414062 -8.320312 19.0625 -6.96875 C 15.488281 -3.425781 12.804688 -1.273438 11.015625 -0.515625 C 10.429688 -0.285156 9.796875 -0.132812 9.109375 -0.0625 C 7.984375 0.0625 7.328125 -0.75 7.140625 -2.5 C 7.109375 -2.863281 7.210938 -3.425781 7.453125 -4.1875 C 7.691406 -4.945312 7.828125 -5.382812 7.859375 -5.5 C 7.898438 -5.625 7.929688 -5.722656 7.953125 -5.796875 C 7.984375 -5.867188 8.007812 -5.929688 8.03125 -5.984375 C 8.0625 -6.035156 8.070312 -6.09375 8.0625 -6.15625 C 8.0625 -6.21875 7.960938 -6.238281 7.765625 -6.21875 C 7.597656 -6.195312 7.097656 -5.703125 6.265625 -4.734375 C 5.429688 -3.765625 4.734375 -2.984375 4.171875 -2.390625 C 3.617188 -1.796875 2.976562 -1.226562 2.25 -0.6875 C 1.53125 -0.144531 0.925781 0.148438 0.4375 0.203125 C -0.882812 0.347656 -1.613281 -0.1875 -1.75 -1.40625 C -1.820312 -2.132812 -1.671875 -3.050781 -1.296875 -4.15625 C -0.390625 -6.726562 1.085938 -9.359375 3.140625 -12.046875 C 5.191406 -14.742188 6.71875 -16.160156 7.71875 -16.296875 C 8.082031 -16.335938 8.421875 -16.238281 8.734375 -16 C 9.054688 -15.769531 9.234375 -15.488281 9.265625 -15.15625 C 9.304688 -14.832031 9.03125 -14.300781 8.4375 -13.5625 C 7.84375 -12.832031 7.097656 -11.894531 6.203125 -10.75 C 5.304688 -9.601562 4.6875 -8.660156 4.34375 -7.921875 C 4 -7.179688 3.835938 -6.695312 3.859375 -6.46875 C 3.890625 -6.238281 4.035156 -6.140625 4.296875 -6.171875 C 4.566406 -6.203125 5.03125 -6.46875 5.6875 -6.96875 C 7.4375 -8.445312 9.421875 -10.253906 11.640625 -12.390625 C 13.867188 -14.535156 15.289062 -16.078125 15.90625 -17.015625 C 16.007812 -17.617188 16.46875 -17.960938 17.28125 -18.046875 C 18.863281 -18.210938 19.679688 -18.019531 19.734375 -17.46875 C 19.765625 -17.238281 19.085938 -16.296875 17.703125 -14.640625 C 13.515625 -9.691406 11.476562 -6.6875 11.59375 -5.625 C 11.601562 -5.46875 11.679688 -5.394531 11.828125 -5.40625 C 11.984375 -5.425781 12.242188 -5.550781 12.609375 -5.78125 Z M 12.609375 -5.78125 "/></g></g></g><g fill="#491802" fill-opacity="1"><g transform="translate(118.550412, 105.424346)"><g><path d="M 9.109375 -17.546875 C 9.378906 -17.578125 9.832031 -17.488281 10.46875 -17.28125 C 11.113281 -17.082031 11.453125 -16.820312 11.484375 -16.5 C 11.503906 -16.257812 11.445312 -16.019531 11.3125 -15.78125 L 8.15625 -10.234375 C 7.769531 -9.648438 7.578125 -9.328125 7.578125 -9.265625 C 7.585938 -9.203125 7.613281 -9.175781 7.65625 -9.1875 L 7.875 -9.34375 C 11.425781 -12.425781 14.34375 -15.109375 16.625 -17.390625 C 17.03125 -17.765625 17.390625 -17.96875 17.703125 -18 C 18.023438 -18.03125 18.238281 -18.015625 18.34375 -17.953125 L 19.78125 -17.71875 C 20.125 -17.59375 20.3125 -17.394531 20.34375 -17.125 C 20.375 -16.863281 20.328125 -16.640625 20.203125 -16.453125 C 19.648438 -15.691406 19.015625 -14.832031 18.296875 -13.875 C 17.585938 -12.914062 17.054688 -12.191406 16.703125 -11.703125 C 16.347656 -11.222656 15.953125 -10.675781 15.515625 -10.0625 C 15.078125 -9.445312 14.769531 -8.976562 14.59375 -8.65625 C 14.414062 -8.332031 14.210938 -7.96875 13.984375 -7.5625 C 13.753906 -7.15625 13.609375 -6.8125 13.546875 -6.53125 C 13.429688 -5.757812 13.398438 -5.09375 13.453125 -4.53125 C 13.484375 -4.226562 13.6875 -4.097656 14.0625 -4.140625 C 14.445312 -4.179688 15.117188 -4.484375 16.078125 -5.046875 C 17.035156 -5.617188 18.164062 -6.457031 19.46875 -7.5625 C 20.769531 -8.664062 22.492188 -10.222656 24.640625 -12.234375 C 26.785156 -14.242188 28.664062 -15.953125 30.28125 -17.359375 C 30.613281 -17.160156 30.796875 -16.894531 30.828125 -16.5625 C 30.859375 -16.238281 30.738281 -15.929688 30.46875 -15.640625 C 29.507812 -14.503906 28.304688 -13.082031 26.859375 -11.375 C 25.410156 -9.664062 23.160156 -7.347656 20.109375 -4.421875 C 17.066406 -1.503906 14.878906 0.0234375 13.546875 0.171875 C 11.003906 0.441406 9.585938 -0.769531 9.296875 -3.46875 C 9.191406 -4.5 9.476562 -5.625 10.15625 -6.84375 L 11.96875 -9.984375 C 12.132812 -10.304688 12.210938 -10.488281 12.203125 -10.53125 C 12.203125 -10.582031 12.113281 -10.515625 11.9375 -10.328125 C 6.6875 -4.929688 3.3125 -1.738281 1.8125 -0.75 C 1.570312 -0.550781 1.253906 -0.429688 0.859375 -0.390625 C -0.234375 -0.273438 -0.832031 -0.710938 -0.9375 -1.703125 C -0.96875 -2.035156 -0.914062 -2.34375 -0.78125 -2.625 C 1.425781 -5.125 2.953125 -7.132812 3.796875 -8.65625 C 4.503906 -9.539062 5.21875 -10.738281 5.9375 -12.25 C 6.664062 -13.757812 7.285156 -15.007812 7.796875 -16 C 8.304688 -16.988281 8.742188 -17.503906 9.109375 -17.546875 Z M 9.109375 -17.546875 "/></g></g></g><g fill="#491802" fill-opacity="1"><g transform="translate(141.34348, 103.022442)"><g><path d="M 3.484375 -4.578125 C 3.867188 -4.617188 4.988281 -5.550781 6.84375 -7.375 C 8.707031 -9.207031 10.484375 -11.035156 12.171875 -12.859375 L 14.625 -15.578125 C 14.75 -15.722656 14.804688 -15.816406 14.796875 -15.859375 C 14.796875 -15.910156 14.75 -15.929688 14.65625 -15.921875 C 13.394531 -15.785156 11.832031 -14.890625 9.96875 -13.234375 C 8.101562 -11.585938 6.523438 -9.882812 5.234375 -8.125 C 3.941406 -6.375 3.320312 -5.21875 3.375 -4.65625 C 3.382812 -4.601562 3.421875 -4.578125 3.484375 -4.578125 Z M 12.140625 -4.734375 C 12.148438 -4.628906 12.257812 -4.585938 12.46875 -4.609375 C 12.675781 -4.640625 13.585938 -5.238281 15.203125 -6.40625 C 19.429688 -9.425781 24.359375 -13.390625 29.984375 -18.296875 C 30.304688 -18.097656 30.484375 -17.832031 30.515625 -17.5 C 30.554688 -17.164062 30.425781 -16.832031 30.125 -16.5 C 29.820312 -16.164062 29.394531 -15.6875 28.84375 -15.0625 C 28.289062 -14.4375 27.234375 -13.304688 25.671875 -11.671875 C 24.109375 -10.046875 22.644531 -8.554688 21.28125 -7.203125 C 17.71875 -3.660156 15.035156 -1.507812 13.234375 -0.75 C 12.671875 -0.519531 12.039062 -0.367188 11.34375 -0.296875 C 10.664062 -0.316406 10.035156 -0.5 9.453125 -0.84375 C 8.867188 -1.1875 8.546875 -1.617188 8.484375 -2.140625 C 8.429688 -2.671875 8.472656 -3.46875 8.609375 -4.53125 C 8.753906 -5.601562 8.820312 -6.179688 8.8125 -6.265625 C 8.8125 -6.347656 8.785156 -6.382812 8.734375 -6.375 C 8.679688 -6.375 8.59375 -6.300781 8.46875 -6.15625 C 8.09375 -5.632812 7.609375 -5 7.015625 -4.25 C 6.421875 -3.507812 5.378906 -2.484375 3.890625 -1.171875 C 2.410156 0.128906 1.175781 0.832031 0.1875 0.9375 C 0.0195312 0.914062 -0.1875 0.875 -0.4375 0.8125 C -0.695312 0.757812 -1.046875 0.519531 -1.484375 0.09375 C -1.929688 -0.320312 -2.195312 -0.957031 -2.28125 -1.8125 C -2.375 -2.675781 -1.867188 -4.054688 -0.765625 -5.953125 C 0.328125 -7.859375 1.707031 -9.753906 3.375 -11.640625 C 5.039062 -13.535156 6.914062 -15.226562 9 -16.71875 C 11.082031 -18.21875 12.953125 -19.054688 14.609375 -19.234375 C 15.203125 -19.296875 15.742188 -18.898438 16.234375 -18.046875 C 16.179688 -18.273438 17.097656 -19.878906 18.984375 -22.859375 C 20.867188 -25.847656 23.15625 -28.894531 25.84375 -32 C 28.539062 -35.101562 30.71875 -36.742188 32.375 -36.921875 C 32.9375 -36.984375 33.25 -36.753906 33.3125 -36.234375 C 33.394531 -35.410156 32.957031 -34.222656 32 -32.671875 C 31.039062 -31.128906 29.992188 -29.679688 28.859375 -28.328125 C 27.722656 -26.984375 26.238281 -25.28125 24.40625 -23.21875 C 20.195312 -18.5 17.066406 -14.523438 15.015625 -11.296875 C 12.972656 -8.078125 12.015625 -5.890625 12.140625 -4.734375 Z M 12.140625 -4.734375 "/></g></g></g><g fill="#491802" fill-opacity="1"><g transform="translate(163.492397, 100.688418)"><g/></g></g><g fill="#491802" fill-opacity="1"><g transform="translate(175.879936, 99.383036)"><g><path d="M 12.609375 -5.78125 C 17.265625 -8.945312 22.316406 -13.039062 27.765625 -18.0625 C 28.078125 -17.863281 28.25 -17.597656 28.28125 -17.265625 C 28.320312 -16.929688 28.191406 -16.597656 27.890625 -16.265625 C 27.597656 -15.929688 27.171875 -15.453125 26.609375 -14.828125 C 26.054688 -14.203125 25 -13.070312 23.4375 -11.4375 C 21.875 -9.8125 20.414062 -8.320312 19.0625 -6.96875 C 15.488281 -3.425781 12.804688 -1.273438 11.015625 -0.515625 C 10.429688 -0.285156 9.796875 -0.132812 9.109375 -0.0625 C 7.984375 0.0625 7.328125 -0.75 7.140625 -2.5 C 7.109375 -2.863281 7.210938 -3.425781 7.453125 -4.1875 C 7.691406 -4.945312 7.828125 -5.382812 7.859375 -5.5 C 7.898438 -5.625 7.929688 -5.722656 7.953125 -5.796875 C 7.984375 -5.867188 8.007812 -5.929688 8.03125 -5.984375 C 8.0625 -6.035156 8.070312 -6.09375 8.0625 -6.15625 C 8.0625 -6.21875 7.960938 -6.238281 7.765625 -6.21875 C 7.597656 -6.195312 7.097656 -5.703125 6.265625 -4.734375 C 5.429688 -3.765625 4.734375 -2.984375 4.171875 -2.390625 C 3.617188 -1.796875 2.976562 -1.226562 2.25 -0.6875 C 1.53125 -0.144531 0.925781 0.148438 0.4375 0.203125 C -0.882812 0.347656 -1.613281 -0.1875 -1.75 -1.40625 C -1.820312 -2.132812 -1.671875 -3.050781 -1.296875 -4.15625 C -0.390625 -6.726562 1.085938 -9.359375 3.140625 -12.046875 C 5.191406 -14.742188 6.71875 -16.160156 7.71875 -16.296875 C 8.082031 -16.335938 8.421875 -16.238281 8.734375 -16 C 9.054688 -15.769531 9.234375 -15.488281 9.265625 -15.15625 C 9.304688 -14.832031 9.03125 -14.300781 8.4375 -13.5625 C 7.84375 -12.832031 7.097656 -11.894531 6.203125 -10.75 C 5.304688 -9.601562 4.6875 -8.660156 4.34375 -7.921875 C 4 -7.179688 3.835938 -6.695312 3.859375 -6.46875 C 3.890625 -6.238281 4.035156 -6.140625 4.296875 -6.171875 C 4.566406 -6.203125 5.03125 -6.46875 5.6875 -6.96875 C 7.4375 -8.445312 9.421875 -10.253906 11.640625 -12.390625 C 13.867188 -14.535156 15.289062 -16.078125 15.90625 -17.015625 C 16.007812 -17.617188 16.46875 -17.960938 17.28125 -18.046875 C 18.863281 -18.210938 19.679688 -18.019531 19.734375 -17.46875 C 19.765625 -17.238281 19.085938 -16.296875 17.703125 -14.640625 C 13.515625 -9.691406 11.476562 -6.6875 11.59375 -5.625 C 11.601562 -5.46875 11.679688 -5.394531 11.828125 -5.40625 C 11.984375 -5.425781 12.242188 -5.550781 12.609375 -5.78125 Z M 12.609375 -5.78125 "/></g></g></g><g fill="#491802" fill-opacity="1"><g transform="translate(195.898195, 97.273538)"><g><path d="M 5.1875 -2.046875 C 6.289062 -2.160156 7.882812 -2.96875 9.96875 -4.46875 C 12.0625 -5.976562 13.910156 -7.570312 15.515625 -9.25 C 17.128906 -10.925781 17.90625 -12.0625 17.84375 -12.65625 C 17.832031 -12.75 17.78125 -12.789062 17.6875 -12.78125 C 16.96875 -12.707031 15.519531 -11.8125 13.34375 -10.09375 C 11.164062 -8.382812 9.160156 -6.671875 7.328125 -4.953125 C 5.503906 -3.234375 4.597656 -2.304688 4.609375 -2.171875 C 4.628906 -2.046875 4.820312 -2.003906 5.1875 -2.046875 Z M 15.578125 -24.28125 C 15.929688 -24.320312 16.351562 -24.09375 16.84375 -23.59375 C 17.332031 -23.09375 17.585938 -22.707031 17.609375 -22.4375 C 17.640625 -22.175781 17.613281 -21.992188 17.53125 -21.890625 C 15.457031 -19.660156 13.460938 -17.34375 11.546875 -14.9375 C 9.640625 -12.53125 8.226562 -10.679688 7.3125 -9.390625 L 6.046875 -7.453125 C 5.796875 -7.160156 5.675781 -6.960938 5.6875 -6.859375 C 5.695312 -6.765625 5.734375 -6.71875 5.796875 -6.71875 C 5.867188 -6.726562 5.953125 -6.789062 6.046875 -6.90625 L 6.4375 -7.296875 C 11.351562 -12.691406 15.3125 -15.546875 18.3125 -15.859375 C 18.71875 -15.898438 19.097656 -15.820312 19.453125 -15.625 C 20.671875 -14.820312 21.335938 -13.832031 21.453125 -12.65625 C 21.578125 -11.488281 20.898438 -9.90625 19.421875 -7.90625 C 17.953125 -5.914062 16.066406 -4.101562 13.765625 -2.46875 C 11.460938 -0.84375 9.492188 0.0507812 7.859375 0.21875 C 6.222656 0.394531 5.09375 0.0820312 4.46875 -0.71875 L 3.859375 -1.46875 C 3.828125 -1.488281 3.78125 -1.5 3.71875 -1.5 C 2.976562 -1.414062 0.8125 1.148438 -2.78125 6.203125 C -6.375 11.253906 -8.640625 14.882812 -9.578125 17.09375 C -9.648438 17.695312 -9.882812 18.019531 -10.28125 18.0625 C -10.476562 18.082031 -10.664062 18.035156 -10.84375 17.921875 L -13.265625 16.4375 C -13.390625 16.375 -13.46875 16.226562 -13.5 16 C -13.539062 15.601562 -11.378906 12.09375 -7.015625 5.46875 C -2.648438 -1.144531 1.957031 -7.726562 6.8125 -14.28125 C 11.664062 -20.84375 14.585938 -24.175781 15.578125 -24.28125 Z M 15.578125 -24.28125 "/></g></g></g></svg>