<svg xmlns="http://www.w3.org/2000/svg" xmlns:xlink="http://www.w3.org/1999/xlink" width="49" zoomAndPan="magnify" viewBox="0 0 36.75 36.000001" height="48" preserveAspectRatio="xMidYMid meet" version="1.0"><defs><clipPath id="76a2f31dba"><path d="M 0.660156 0 L 35.402344 0 L 35.402344 35.027344 L 0.660156 35.027344 Z M 0.660156 0 " clip-rule="nonzero"/></clipPath></defs><g clip-path="url(#76a2f31dba)"><path fill="#000000" d="M 3.375 14.277344 C 3.597656 14.050781 3.960938 14.050781 4.1875 14.277344 L 4.917969 15.023438 L 15.609375 4.15625 L 14.875 3.414062 C 14.652344 3.183594 14.652344 2.816406 14.875 2.589844 L 17.199219 0.226562 C 17.421875 0 17.785156 0 18.007812 0.226562 L 28.722656 11.117188 C 28.945312 11.347656 28.945312 11.714844 28.722656 11.941406 L 26.402344 14.304688 C 26.289062 14.417969 26.140625 14.472656 25.996094 14.472656 C 25.847656 14.472656 25.703125 14.417969 25.589844 14.304688 L 24.859375 13.558594 L 21.214844 17.261719 L 34.585938 30.851562 C 35.523438 31.804688 35.523438 33.359375 34.585938 34.3125 C 34.117188 34.789062 33.5 35.027344 32.882812 35.027344 C 32.269531 35.027344 31.652344 34.789062 31.183594 34.3125 L 17.8125 20.722656 L 14.167969 24.425781 L 14.898438 25.167969 C 15.125 25.394531 15.125 25.765625 14.898438 25.992188 L 12.578125 28.351562 C 12.464844 28.464844 12.320312 28.523438 12.171875 28.523438 C 12.027344 28.523438 11.878906 28.464844 11.765625 28.351562 L 1.054688 17.460938 C 0.828125 17.234375 0.828125 16.867188 1.054688 16.636719 Z M 25.996094 13.066406 L 27.507812 11.53125 L 17.601562 1.464844 L 16.09375 3 Z M 31.992188 33.488281 C 32.484375 33.984375 33.285156 33.984375 33.773438 33.488281 C 34.265625 32.988281 34.265625 32.175781 33.773438 31.675781 L 20.402344 18.085938 L 18.625 19.894531 Z M 17.40625 19.484375 L 19.996094 16.851562 L 24.046875 12.734375 L 16.417969 4.980469 L 5.726562 15.847656 L 13.355469 23.601562 Z M 12.171875 27.117188 L 13.683594 25.582031 L 3.78125 15.515625 L 2.269531 17.050781 Z M 12.171875 27.117188 " fill-opacity="1" fill-rule="nonzero"/></g><path fill="#000000" d="M 10.40625 14.691406 C 10.40625 12.398438 12.242188 10.539062 14.492188 10.539062 C 16.746094 10.539062 18.582031 12.398438 18.582031 14.691406 C 18.582031 16.980469 16.746094 18.84375 14.492188 18.84375 C 12.242188 18.84375 10.40625 16.980469 10.40625 14.691406 Z M 14.492188 17.675781 C 16.113281 17.675781 17.433594 16.335938 17.433594 14.691406 C 17.433594 13.042969 16.113281 11.703125 14.492188 11.703125 C 12.875 11.703125 11.554688 13.042969 11.554688 14.691406 C 11.554688 16.335938 12.875 17.675781 14.492188 17.675781 Z M 14.492188 17.675781 " fill-opacity="1" fill-rule="nonzero"/></svg>