<svg xmlns="http://www.w3.org/2000/svg" xmlns:xlink="http://www.w3.org/1999/xlink" width="434" zoomAndPan="magnify" viewBox="0 0 325.5 110.999996" height="148" preserveAspectRatio="xMidYMid meet" version="1.0"><defs><clipPath id="cdc10a1d29"><path d="M 0 0.0859375 L 325 0.0859375 L 325 110.914062 L 0 110.914062 Z M 0 0.0859375 " clip-rule="nonzero"/></clipPath><clipPath id="2e7099aaf1"><path d="M 113.558594 6.285156 L 211.988281 6.285156 L 211.988281 104.714844 L 113.558594 104.714844 Z M 113.558594 6.285156 " clip-rule="nonzero"/></clipPath><clipPath id="c39849c515"><path d="M 114.308594 6.285156 L 211.238281 6.285156 C 211.4375 6.285156 211.628906 6.363281 211.769531 6.503906 C 211.910156 6.644531 211.988281 6.835938 211.988281 7.035156 L 211.988281 103.964844 C 211.988281 104.164062 211.910156 104.355469 211.769531 104.496094 C 211.628906 104.636719 211.4375 104.714844 211.238281 104.714844 L 114.308594 104.714844 C 114.109375 104.714844 113.917969 104.636719 113.777344 104.496094 C 113.636719 104.355469 113.558594 104.164062 113.558594 103.964844 L 113.558594 7.035156 C 113.558594 6.835938 113.636719 6.644531 113.777344 6.503906 C 113.917969 6.363281 114.109375 6.285156 114.308594 6.285156 Z M 114.308594 6.285156 " clip-rule="nonzero"/></clipPath><clipPath id="fb3d6d6c6f"><path d="M 113.558594 6.285156 L 211.65625 6.285156 L 211.65625 104.382812 L 113.558594 104.382812 Z M 113.558594 6.285156 " clip-rule="nonzero"/></clipPath><clipPath id="d6d35d9d42"><path d="M 114.308594 6.285156 L 211.238281 6.285156 C 211.433594 6.285156 211.625 6.363281 211.765625 6.503906 C 211.90625 6.644531 211.984375 6.835938 211.984375 7.035156 L 211.984375 103.964844 C 211.984375 104.160156 211.90625 104.351562 211.765625 104.492188 C 211.625 104.632812 211.433594 104.710938 211.238281 104.710938 L 114.308594 104.710938 C 114.109375 104.710938 113.917969 104.632812 113.777344 104.492188 C 113.636719 104.351562 113.558594 104.160156 113.558594 103.964844 L 113.558594 7.035156 C 113.558594 6.835938 113.636719 6.644531 113.777344 6.503906 C 113.917969 6.363281 114.109375 6.285156 114.308594 6.285156 Z M 114.308594 6.285156 " clip-rule="nonzero"/></clipPath><clipPath id="b1588c0f86"><path d="M 226.570312 6.285156 L 325 6.285156 L 325 104.714844 L 226.570312 104.714844 Z M 226.570312 6.285156 " clip-rule="nonzero"/></clipPath><clipPath id="cfd5842722"><path d="M 227.320312 6.285156 L 324.25 6.285156 C 324.449219 6.285156 324.640625 6.363281 324.78125 6.503906 C 324.921875 6.644531 325 6.835938 325 7.035156 L 325 103.964844 C 325 104.164062 324.921875 104.355469 324.78125 104.496094 C 324.640625 104.636719 324.449219 104.714844 324.25 104.714844 L 227.320312 104.714844 C 227.121094 104.714844 226.929688 104.636719 226.789062 104.496094 C 226.648438 104.355469 226.570312 104.164062 226.570312 103.964844 L 226.570312 7.035156 C 226.570312 6.835938 226.648438 6.644531 226.789062 6.503906 C 226.929688 6.363281 227.121094 6.285156 227.320312 6.285156 Z M 227.320312 6.285156 " clip-rule="nonzero"/></clipPath><clipPath id="b8a258dd00"><path d="M 226.570312 6.285156 L 324.671875 6.285156 L 324.671875 104.382812 L 226.570312 104.382812 Z M 226.570312 6.285156 " clip-rule="nonzero"/></clipPath><clipPath id="7c5f4058a0"><path d="M 227.320312 6.285156 L 324.25 6.285156 C 324.449219 6.285156 324.636719 6.363281 324.777344 6.503906 C 324.917969 6.644531 325 6.835938 325 7.035156 L 325 103.964844 C 325 104.160156 324.917969 104.351562 324.777344 104.492188 C 324.636719 104.632812 324.449219 104.710938 324.25 104.710938 L 227.320312 104.710938 C 227.121094 104.710938 226.929688 104.632812 226.789062 104.492188 C 226.648438 104.351562 226.570312 104.160156 226.570312 103.964844 L 226.570312 7.035156 C 226.570312 6.835938 226.648438 6.644531 226.789062 6.503906 C 226.929688 6.363281 227.121094 6.285156 227.320312 6.285156 Z M 227.320312 6.285156 " clip-rule="nonzero"/></clipPath><clipPath id="9c756386e2"><path d="M 0 6.285156 L 98.429688 6.285156 L 98.429688 104.714844 L 0 104.714844 Z M 0 6.285156 " clip-rule="nonzero"/></clipPath><clipPath id="f1e4c2e58b"><path d="M 0.75 6.285156 L 97.679688 6.285156 C 97.878906 6.285156 98.070312 6.363281 98.210938 6.503906 C 98.351562 6.644531 98.429688 6.835938 98.429688 7.035156 L 98.429688 103.964844 C 98.429688 104.164062 98.351562 104.355469 98.210938 104.496094 C 98.070312 104.636719 97.878906 104.714844 97.679688 104.714844 L 0.75 104.714844 C 0.550781 104.714844 0.359375 104.636719 0.21875 104.496094 C 0.078125 104.355469 0 104.164062 0 103.964844 L 0 7.035156 C 0 6.835938 0.078125 6.644531 0.21875 6.503906 C 0.359375 6.363281 0.550781 6.285156 0.75 6.285156 Z M 0.75 6.285156 " clip-rule="nonzero"/></clipPath><clipPath id="7541ded13a"><path d="M 0 6.285156 L 98.097656 6.285156 L 98.097656 104.382812 L 0 104.382812 Z M 0 6.285156 " clip-rule="nonzero"/></clipPath><clipPath id="f4bbed6d7a"><path d="M 0.75 6.285156 L 97.679688 6.285156 C 97.875 6.285156 98.066406 6.363281 98.207031 6.503906 C 98.347656 6.644531 98.425781 6.835938 98.425781 7.035156 L 98.425781 103.964844 C 98.425781 104.160156 98.347656 104.351562 98.207031 104.492188 C 98.066406 104.632812 97.875 104.710938 97.679688 104.710938 L 0.75 104.710938 C 0.550781 104.710938 0.359375 104.632812 0.21875 104.492188 C 0.078125 104.351562 0 104.160156 0 103.964844 L 0 7.035156 C 0 6.835938 0.078125 6.644531 0.21875 6.503906 C 0.359375 6.363281 0.550781 6.285156 0.75 6.285156 Z M 0.75 6.285156 " clip-rule="nonzero"/></clipPath><clipPath id="35cf24216e"><path d="M 138.316406 21 L 184.742188 21 L 184.742188 101.027344 L 138.316406 101.027344 Z M 138.316406 21 " clip-rule="nonzero"/></clipPath><clipPath id="37be27fa9b"><path d="M 140 37 L 184.742188 37 L 184.742188 101.027344 L 140 101.027344 Z M 140 37 " clip-rule="nonzero"/></clipPath><clipPath id="3fa66a2bca"><path d="M 138.316406 61 L 184.742188 61 L 184.742188 101.027344 L 138.316406 101.027344 Z M 138.316406 61 " clip-rule="nonzero"/></clipPath></defs><g clip-path="url(#cdc10a1d29)"><path fill="#ffffff" d="M 0 0.0859375 L 325 0.0859375 L 325 110.914062 L 0 110.914062 Z M 0 0.0859375 " fill-opacity="1" fill-rule="nonzero"/><path fill="#ffffff" d="M 0 0.0859375 L 325 0.0859375 L 325 110.914062 L 0 110.914062 Z M 0 0.0859375 " fill-opacity="1" fill-rule="nonzero"/></g><g clip-path="url(#2e7099aaf1)"><g clip-path="url(#c39849c515)"><path fill="#ffd583" d="M 113.558594 6.285156 L 211.988281 6.285156 L 211.988281 104.714844 L 113.558594 104.714844 Z M 113.558594 6.285156 " fill-opacity="1" fill-rule="nonzero"/></g></g><g clip-path="url(#fb3d6d6c6f)"><g clip-path="url(#d6d35d9d42)"><path stroke-linecap="butt" transform="matrix(0.74885, 0, 0, 0.74885, 113.558613, 6.285249)" fill="none" stroke-linejoin="miter" d="M 1.00151 -0.000123689 L 130.439615 -0.000123689 C 130.700432 -0.000123689 130.956032 0.104203 131.14382 0.291991 C 131.331608 0.479779 131.435935 0.735379 131.435935 1.001412 L 131.435935 130.439518 C 131.435935 130.700334 131.331608 130.955935 131.14382 131.143723 C 130.956032 131.331511 130.700432 131.435837 130.439615 131.435837 L 1.00151 131.435837 C 0.735477 131.435837 0.479877 131.331511 0.292089 131.143723 C 0.104301 130.955935 -0.0000260629 130.700334 -0.0000260629 130.439518 L -0.0000260629 1.001412 C -0.0000260629 0.735379 0.104301 0.479779 0.292089 0.291991 C 0.479877 0.104203 0.735477 -0.000123689 1.00151 -0.000123689 Z M 1.00151 -0.000123689 " stroke="#737373" stroke-width="2" stroke-opacity="1" stroke-miterlimit="4"/></g></g><g clip-path="url(#b1588c0f86)"><g clip-path="url(#cfd5842722)"><path fill="#b8c26c" d="M 226.570312 6.285156 L 325 6.285156 L 325 104.714844 L 226.570312 104.714844 Z M 226.570312 6.285156 " fill-opacity="1" fill-rule="nonzero"/></g></g><g clip-path="url(#b8a258dd00)"><g clip-path="url(#7c5f4058a0)"><path stroke-linecap="butt" transform="matrix(0.74885, 0, 0, 0.74885, 226.571266, 6.285249)" fill="none" stroke-linejoin="miter" d="M 1.000263 -0.000123689 L 130.438368 -0.000123689 C 130.704401 -0.000123689 130.954785 0.104203 131.142573 0.291991 C 131.330361 0.479779 131.439904 0.735379 131.439904 1.001412 L 131.439904 130.439518 C 131.439904 130.700334 131.330361 130.955935 131.142573 131.143723 C 130.954785 131.331511 130.704401 131.435837 130.438368 131.435837 L 1.000263 131.435837 C 0.73423 131.435837 0.478629 131.331511 0.290841 131.143723 C 0.103053 130.955935 -0.00127329 130.700334 -0.00127329 130.439518 L -0.00127329 1.001412 C -0.00127329 0.735379 0.103053 0.479779 0.290841 0.291991 C 0.478629 0.104203 0.73423 -0.000123689 1.000263 -0.000123689 Z M 1.000263 -0.000123689 " stroke="#737373" stroke-width="2" stroke-opacity="1" stroke-miterlimit="4"/></g></g><g clip-path="url(#9c756386e2)"><g clip-path="url(#f1e4c2e58b)"><path fill="#ffffff" d="M 0 6.285156 L 98.429688 6.285156 L 98.429688 104.714844 L 0 104.714844 Z M 0 6.285156 " fill-opacity="1" fill-rule="nonzero"/></g></g><g clip-path="url(#7541ded13a)"><g clip-path="url(#f4bbed6d7a)"><path stroke-linecap="butt" transform="matrix(0.74885, 0, 0, 0.74885, -0.000000000000031925, 6.285249)" fill="none" stroke-linejoin="miter" d="M 1.001536 -0.000123689 L 130.439641 -0.000123689 C 130.700458 -0.000123689 130.956058 0.104203 131.143846 0.291991 C 131.331634 0.479779 131.435961 0.735379 131.435961 1.001412 L 131.435961 130.439518 C 131.435961 130.700334 131.331634 130.955935 131.143846 131.143723 C 130.956058 131.331511 130.700458 131.435837 130.439641 131.435837 L 1.001536 131.435837 C 0.735503 131.435837 0.479903 131.331511 0.292115 131.143723 C 0.104327 130.955935 0.000000000000042633 130.700334 0.000000000000042633 130.439518 L 0.000000000000042633 1.001412 C 0.000000000000042633 0.735379 0.104327 0.479779 0.292115 0.291991 C 0.479903 0.104203 0.735503 -0.000123689 1.001536 -0.000123689 Z M 1.001536 -0.000123689 " stroke="#737373" stroke-width="2" stroke-opacity="1" stroke-miterlimit="4"/></g></g><g clip-path="url(#35cf24216e)"><path fill="#ffffff" d="M 267.199219 83.703125 C 266.425781 86.492188 265.007812 89.070312 263.421875 91.433594 C 258.996094 97.570312 252.214844 102.511719 245.386719 105.601562 C 244.742188 105.859375 244.097656 106.074219 243.410156 106.332031 C 242.335938 109.039062 241.132812 111.699219 239.460938 114.0625 C 236.753906 117.625 233.191406 120.417969 229.195312 122.433594 C 228.339844 125.398438 226.621094 128.144531 224.644531 130.378906 C 220.007812 136.003906 213.394531 138.964844 206.824219 141.628906 C 205.152344 142.316406 203.476562 142.960938 201.84375 143.605469 C 201.414062 143.777344 200.984375 143.949219 200.554688 144.121094 C 200.425781 154.039062 196.304688 165.460938 189.863281 172.203125 C 189.820312 172.503906 189.175781 174.261719 187.589844 175.980469 C 185.441406 178.34375 182.519531 180.058594 179.472656 180.1875 C 176.636719 180.1875 174.578125 178.300781 172.816406 176.882812 C 171.441406 176.96875 169.597656 176.925781 168.222656 176.96875 C 163.585938 177.011719 159.589844 178.128906 154.953125 177.269531 C 151.992188 178.902344 149.027344 180.917969 145.550781 181.046875 C 142.757812 181.046875 140.054688 179.589844 138.335938 177.441406 C 137.347656 176.28125 136.488281 174.992188 135.628906 173.707031 C 135.585938 173.664062 135.585938 173.621094 135.542969 173.578125 C 132.453125 171.945312 130.476562 168.808594 128.847656 165.847656 C 128.546875 165.332031 128.289062 164.816406 128.03125 164.300781 C 127.988281 164.257812 127.988281 164.257812 127.945312 164.214844 C 127.085938 163.011719 126.613281 161.640625 126.140625 160.265625 C 125.496094 158.804688 125.023438 157.257812 124.679688 155.628906 C 124.507812 154.898438 124.335938 154.125 124.207031 153.351562 C 124.164062 153.265625 124.121094 153.179688 124.121094 153.09375 C 123.433594 149.875 123.175781 146.996094 123.261719 144.335938 C 122.707031 144.121094 122.191406 143.863281 121.632812 143.648438 C 119.957031 142.960938 118.28125 142.316406 116.652344 141.671875 C 110.082031 139.007812 103.46875 136.046875 98.832031 130.421875 C 96.855469 128.1875 95.136719 125.441406 94.277344 122.476562 C 90.285156 120.460938 86.722656 117.667969 84.015625 114.105469 C 82.339844 111.742188 81.097656 109.082031 80.066406 106.375 C 79.421875 106.160156 78.734375 105.902344 78.089844 105.644531 C 71.21875 102.597656 64.476562 97.613281 60.054688 91.476562 C 58.421875 89.113281 57.050781 86.535156 56.277344 83.746094 C 55.847656 81.984375 55.289062 79.964844 56.105469 78.207031 C 56.621094 77.089844 57.953125 76.488281 59.109375 76.960938 C 61.386719 77.863281 63.320312 79.539062 65.722656 80.265625 C 70.0625 81.640625 74.742188 82.242188 79.164062 81.210938 C 86.335938 79.496094 91.359375 76.960938 99.046875 78.980469 C 106.300781 80.480469 112.140625 84.605469 117.207031 89.886719 C 124.25 96.972656 129.402344 105.730469 136.789062 112.472656 C 137.605469 113.160156 138.421875 113.804688 139.28125 114.449219 C 141.855469 111.054688 144.390625 107.621094 146.28125 103.796875 C 148.039062 99.890625 149.285156 95.726562 150.058594 91.519531 C 151.089844 83.703125 150.617188 75.714844 149.113281 68.074219 C 148.210938 64.121094 146.707031 60.386719 145.636719 56.476562 C 144.433594 51.796875 143.789062 46.902344 144.21875 42.050781 C 144.304688 39.558594 144.734375 37.113281 145.636719 34.664062 C 148.597656 26.378906 155.941406 20.152344 165.128906 22.253906 C 171.355469 23.757812 175.652344 29.082031 177.539062 34.621094 C 180.761719 43.8125 178.957031 50.425781 175.695312 59.140625 C 173.460938 65.710938 172.945312 72.496094 173.03125 79.324219 C 172.6875 89.113281 177.152344 98.214844 182.734375 105.902344 C 184.238281 108.007812 185.699219 110.109375 187.160156 112.214844 C 194.371094 105.515625 199.484375 96.886719 206.4375 89.886719 C 211.503906 84.5625 217.300781 80.480469 224.601562 78.980469 C 232.246094 76.960938 237.3125 79.496094 244.484375 81.210938 C 248.949219 82.242188 253.628906 81.597656 257.925781 80.265625 C 260.285156 79.539062 262.261719 77.90625 264.535156 76.960938 C 265.695312 76.488281 267.027344 77.089844 267.542969 78.207031 C 268.144531 79.878906 267.628906 81.898438 267.199219 83.703125 Z M 267.199219 83.703125 " fill-opacity="1" fill-rule="nonzero"/></g><g clip-path="url(#37be27fa9b)"><path fill="#ec7944" d="M 157.917969 197.238281 C 158.21875 197.578125 158.261719 198.09375 157.917969 198.4375 C 157.617188 198.78125 156.929688 198.867188 156.542969 198.996094 C 155.425781 199.296875 154.4375 199.855469 153.664062 200.671875 C 152.292969 202.089844 152.164062 204.234375 152.464844 206.082031 C 152.675781 207.328125 151.648438 208.015625 150.660156 207.199219 C 148.683594 205.609375 145.980469 205.609375 143.617188 206.339844 C 142.671875 206.511719 141.597656 207.414062 140.613281 206.941406 C 139.710938 206.253906 140.527344 205.222656 140.996094 204.535156 C 141.640625 203.546875 142.242188 202.5625 142.886719 201.574219 C 145.035156 198.394531 147.222656 194.789062 146.453125 190.796875 C 145.894531 187.488281 144.949219 184.226562 144.390625 180.917969 C 144.476562 180.917969 144.5625 180.917969 144.648438 180.917969 C 145.636719 180.917969 146.621094 180.832031 147.652344 180.660156 C 148.253906 183.28125 148.554688 186.285156 148.769531 187.058594 C 149.414062 189.722656 149.886719 192.726562 151.949219 194.703125 C 153.234375 195.949219 154.953125 196.722656 156.757812 196.894531 C 157.101562 196.894531 157.617188 196.894531 157.917969 197.238281 Z M 186.644531 204.105469 C 185.957031 203.164062 185.269531 202.175781 184.582031 201.230469 C 182.261719 198.179688 179.902344 194.703125 180.417969 190.667969 C 180.804688 187.316406 181.578125 184.011719 181.921875 180.660156 C 181.960938 180.230469 182.046875 179.761719 182.089844 179.332031 C 181.019531 179.675781 179.859375 179.886719 178.742188 180.058594 C 178.226562 182.808594 178.054688 186.242188 177.882812 187.101562 C 177.410156 189.808594 177.066406 192.8125 175.136719 194.917969 C 173.890625 196.207031 172.257812 197.109375 170.496094 197.367188 C 170.113281 197.453125 169.554688 197.496094 169.296875 197.835938 C 169.039062 198.179688 168.996094 198.695312 169.339844 199.039062 C 169.683594 199.382812 170.367188 199.425781 170.710938 199.511719 C 171.828125 199.769531 172.859375 200.242188 173.675781 201.015625 C 175.136719 202.347656 175.394531 204.492188 175.179688 206.339844 C 175.007812 207.585938 176.078125 208.230469 177.066406 207.328125 C 178.957031 205.609375 181.664062 205.480469 184.066406 206.082031 C 185.011719 206.210938 186.171875 207.027344 187.074219 206.511719 C 188.015625 205.738281 187.117188 204.75 186.644531 204.105469 Z M 169.855469 49.050781 C 169.296875 47.847656 168.050781 47.203125 167.191406 46.214844 C 165.558594 44.371094 165.601562 41.835938 164.871094 39.644531 C 163.800781 37.585938 161.308594 37.757812 159.332031 38.015625 C 157.445312 38.273438 156.972656 40.417969 156.757812 42.007812 C 156.414062 43.769531 155.425781 45.3125 154.308594 46.6875 C 153.320312 47.804688 152.121094 49.007812 152.164062 50.59375 C 152.25 53.601562 154.523438 55.878906 156.070312 58.238281 C 156.714844 59.183594 157.1875 60.300781 157.402344 61.503906 C 157.574219 63.046875 158.859375 64.207031 160.363281 64.421875 C 164.015625 65.367188 164.914062 61.503906 165.773438 58.839844 C 166.160156 57.722656 166.675781 56.605469 167.234375 55.492188 C 167.707031 54.546875 168.394531 53.515625 168.996094 52.570312 C 169.726562 51.625 170.453125 50.339844 169.855469 49.050781 Z M 169.855469 49.050781 " fill-opacity="1" fill-rule="nonzero"/></g><path fill="#9c502c" d="M 159.71875 52.226562 C 159.761719 52.570312 159.546875 52.914062 159.246094 52.957031 C 158.945312 53 158.6875 52.742188 158.644531 52.398438 C 158.558594 51.667969 158.472656 50.894531 158.261719 50.210938 C 157.917969 49.480469 158.816406 48.835938 159.203125 49.566406 C 159.546875 50.382812 159.589844 51.324219 159.71875 52.226562 Z M 163.027344 49.136719 C 162.082031 48.878906 162.082031 50.382812 161.910156 50.980469 C 161.910156 51.539062 161.394531 52.570312 162.210938 52.785156 C 162.46875 52.828125 162.8125 52.613281 162.8125 52.3125 C 162.855469 51.710938 162.941406 51.109375 163.070312 50.507812 C 163.199219 50.082031 163.628906 49.4375 163.027344 49.136719 Z M 163.027344 49.136719 " fill-opacity="1" fill-rule="nonzero"/><path fill="#615b5b" d="M 153.105469 36.296875 C 153.664062 37.628906 152.421875 42.910156 150.359375 41.835938 C 149.714844 41.363281 149.585938 40.503906 149.585938 39.730469 C 149.585938 38.914062 149.585938 37.929688 149.886719 37.199219 C 150.1875 36.46875 150.703125 35.480469 151.5625 35.265625 C 152.292969 35.09375 152.804688 35.652344 153.105469 36.296875 Z M 171.914062 39.257812 C 171.871094 38.445312 171.785156 37.457031 171.484375 36.726562 C 171.183594 35.996094 170.539062 35.050781 169.726562 34.921875 C 168.953125 34.792969 168.480469 35.351562 168.222656 36.039062 C 167.707031 37.414062 169.296875 42.609375 171.269531 41.40625 C 171.871094 40.847656 171.957031 40.03125 171.914062 39.257812 Z M 171.914062 39.257812 " fill-opacity="1" fill-rule="nonzero"/><g clip-path="url(#3fa66a2bca)"><path fill="#b3a8a8" d="M 155.125 69.402344 C 151.820312 68.671875 148.640625 65.753906 147.523438 62.960938 C 149.628906 65.539062 152.25 67.816406 155.125 69.402344 Z M 174.148438 61.589844 C 172.34375 64.335938 170.15625 66.871094 167.964844 69.316406 C 170.753906 67.515625 173.117188 64.765625 174.148438 61.589844 Z M 125.453125 135.875 C 124.851562 138.109375 124.722656 140.554688 123.949219 142.660156 C 124.59375 141.714844 124.765625 140.511719 125.109375 139.394531 C 125.496094 138.023438 125.925781 136.691406 126.355469 135.359375 C 128.460938 129.003906 131.292969 123.421875 135.585938 117.753906 C 136.402344 116.894531 136.832031 115.90625 137.648438 115.09375 C 130.433594 121.019531 127.34375 127.371094 125.453125 135.875 Z M 198.925781 135.617188 C 197.464844 127.027344 194.671875 120.503906 187.800781 114.234375 C 188.617188 115.09375 188.960938 116.078125 189.734375 116.980469 C 193.726562 122.90625 196.261719 128.617188 198.023438 135.058594 C 198.367188 136.433594 198.710938 137.808594 199.054688 139.179688 C 199.355469 140.296875 199.484375 141.5 200.039062 142.488281 C 199.398438 140.339844 199.441406 137.851562 198.925781 135.617188 Z M 198.925781 135.617188 " fill-opacity="1" fill-rule="nonzero"/></g></svg>