<svg xmlns="http://www.w3.org/2000/svg" xmlns:xlink="http://www.w3.org/1999/xlink" width="53" zoomAndPan="magnify" viewBox="0 0 39.75 39.749999" height="53" preserveAspectRatio="xMidYMid meet" version="1.0"><defs><clipPath id="2da9b12fa2"><path d="M 0 0 L 39.476562 0 L 39.476562 39.476562 L 0 39.476562 Z M 0 0 " clip-rule="nonzero"/></clipPath><clipPath id="06334e48f6"><path d="M 0 0 L 39.464844 0 L 39.464844 39.464844 L 0 39.464844 Z M 0 0 " clip-rule="nonzero"/></clipPath><clipPath id="bf2c83c5ac"><path d="M 9.335938 8.292969 L 31.695312 8.292969 L 31.695312 38.847656 L 9.335938 38.847656 Z M 9.335938 8.292969 " clip-rule="nonzero"/></clipPath><clipPath id="224f802aba"><path d="M 15 14 L 31.695312 14 L 31.695312 38.847656 L 15 38.847656 Z M 15 14 " clip-rule="nonzero"/></clipPath><clipPath id="d7d091a36a"><path d="M 15 18 L 31.695312 18 L 31.695312 38.847656 L 15 38.847656 Z M 15 18 " clip-rule="nonzero"/></clipPath></defs><g clip-path="url(#2da9b12fa2)"><path fill="#000000" d="M 0 0 L 39.476562 0 L 39.476562 39.476562 L 0 39.476562 Z M 0 0 " fill-opacity="1" fill-rule="nonzero"/></g><g clip-path="url(#06334e48f6)"><path stroke-linecap="butt" transform="matrix(0.745312, 0, 0, 0.745312, 0.0000005, -0.000000000000010592)" fill="none" stroke-linejoin="miter" d="M -0.00000067086 0.000000000000014211 L 52.950737 0.000000000000014211 L 52.950737 52.950737 L -0.00000067086 52.950737 Z M -0.00000067086 0.000000000000014211 " stroke="#737373" stroke-width="2" stroke-opacity="1" stroke-miterlimit="4"/></g><g clip-path="url(#bf2c83c5ac)"><path fill="#ffffff" d="M 54.035156 55.695312 C 53.167969 56.515625 52.195312 57.242188 51.171875 57.847656 C 50.617188 59.503906 49.871094 61.066406 48.773438 62.441406 C 46.792969 64.761719 44.132812 66.542969 41.269531 67.5625 C 39.691406 68.136719 38.035156 68.304688 36.367188 68.335938 C 35.175781 69.265625 33.675781 69.820312 32.171875 69.417969 C 31.277344 69.25 30.441406 68.785156 29.851562 68.089844 C 29.125 68.011719 28.398438 67.917969 27.671875 67.796875 C 26.835938 68.523438 25.738281 68.941406 24.609375 68.660156 C 23.324219 68.476562 22.550781 67.363281 22.054688 66.234375 C 18.898438 64.886719 16.253906 62.707031 15.046875 59.191406 C 13.5 54.644531 13.777344 49.695312 14.691406 45.035156 C 15.214844 42.34375 15.851562 39.667969 16.839844 37.097656 C 17.800781 34.609375 19.128906 31.917969 18.417969 29.148438 C 17.738281 26.515625 16.082031 24.398438 14.023438 22.648438 C 12.554688 21.332031 11.132812 19.847656 10.3125 18.007812 C 9.554688 16.242188 9.335938 14.140625 10.046875 12.328125 C 11.207031 9.40625 14.859375 8.320312 17.722656 9.019531 C 19.671875 9.542969 21.296875 10.875 22.582031 12.390625 C 25.691406 15.980469 26.09375 19.230469 25.859375 23.792969 C 25.8125 27.121094 25.582031 30.460938 26.574219 33.648438 C 27.050781 34.996094 27.703125 36.234375 28.644531 37.285156 C 29.789062 38.523438 31.230469 39.542969 32.808594 40.132812 C 34.402344 40.640625 35.996094 40.796875 37.589844 41.246094 C 39.816406 41.910156 42.105469 42.636719 44.054688 43.9375 C 46.515625 45.59375 48.125 48.144531 49.996094 50.375 C 50.738281 51.210938 51.605469 51.953125 52.597656 52.449219 C 53.386719 52.878906 54.328125 53.003906 55.054688 53.546875 C 55.765625 54.351562 54.546875 55.171875 54.035156 55.695312 Z M 54.035156 55.695312 " fill-opacity="1" fill-rule="nonzero"/></g><g clip-path="url(#224f802aba)"><path fill="#ec7944" d="M 40.296875 77.652344 C 40.15625 77.992188 39.660156 78.007812 39.367188 78.097656 C 38.871094 78.207031 38.363281 78.316406 37.867188 78.484375 C 37.09375 78.796875 36.320312 79.351562 36.085938 80.203125 C 35.917969 80.589844 35.964844 81.671875 35.328125 81.519531 C 34.957031 81.378906 34.757812 81.007812 34.523438 80.714844 C 34.015625 79.988281 33.425781 79.230469 32.542969 78.980469 C 32.1875 78.875 31.785156 78.8125 31.429688 78.796875 C 30.875 78.703125 29.15625 79.105469 29.015625 78.457031 C 29.03125 77.976562 29.636719 77.804688 29.976562 77.574219 C 30.625 77.203125 31.261719 76.785156 31.816406 76.289062 C 33.273438 75.019531 33.8125 73.226562 33.597656 71.339844 C 33.519531 70.734375 33.457031 70.132812 33.378906 69.527344 C 34.015625 69.433594 34.648438 69.234375 35.253906 68.972656 C 35.265625 69.3125 35.265625 69.652344 35.28125 69.976562 C 35.296875 70.75 35.328125 71.539062 35.40625 72.3125 C 35.59375 74.820312 36.96875 76.074219 39.273438 76.800781 C 39.628906 76.96875 40.386719 77.09375 40.296875 77.652344 Z M 30.625 76.613281 C 30.71875 76.058594 29.960938 75.933594 29.574219 75.761719 C 27.269531 75.035156 25.90625 73.765625 25.707031 71.277344 C 25.628906 70.503906 25.597656 69.714844 25.582031 68.941406 C 25.582031 68.878906 25.582031 68.800781 25.582031 68.738281 C 24.917969 68.691406 24.265625 68.554688 23.664062 68.320312 C 23.773438 68.988281 23.820312 69.652344 23.910156 70.300781 C 24.128906 72.1875 23.601562 73.984375 22.132812 75.253906 C 21.574219 75.746094 20.941406 76.164062 20.289062 76.535156 C 19.949219 76.769531 19.347656 76.9375 19.332031 77.417969 C 19.472656 78.085938 21.1875 77.667969 21.746094 77.757812 C 22.101562 77.773438 22.503906 77.835938 22.859375 77.945312 C 23.742188 78.191406 24.34375 78.949219 24.839844 79.675781 C 25.070312 79.972656 25.273438 80.34375 25.644531 80.480469 C 26.277344 80.621094 26.214844 79.554688 26.402344 79.167969 C 26.632812 78.332031 27.40625 77.773438 28.179688 77.449219 C 28.660156 77.265625 29.171875 77.171875 29.683594 77.0625 C 29.992188 76.96875 30.503906 76.953125 30.625 76.613281 Z M 21.203125 21.488281 C 21.699219 21.734375 22.226562 21.859375 22.703125 21.441406 C 23.167969 21.023438 23.277344 20.21875 23.015625 19.664062 C 22.796875 19.214844 22.394531 18.890625 22.085938 18.519531 C 21.3125 17.558594 20.863281 16.414062 19.980469 15.515625 C 19.859375 15.394531 19.734375 15.285156 19.59375 15.207031 C 19.160156 14.992188 18.667969 15.363281 18.203125 15.269531 C 17.550781 15.144531 17.117188 14.589844 16.46875 14.464844 C 15.539062 14.1875 14.765625 15.222656 15.078125 16.074219 C 15.449219 17.125 16.578125 17.511719 16.390625 18.78125 C 16.375 18.90625 16.359375 19.027344 16.375 19.136719 C 16.484375 19.863281 17.460938 20.140625 18.046875 20.296875 C 19.007812 20.542969 19.902344 20.667969 20.769531 21.210938 C 20.894531 21.304688 21.035156 21.410156 21.203125 21.488281 Z M 20.136719 15.671875 Z M 19.269531 15.128906 Z M 17.722656 14.976562 C 17.707031 14.976562 17.707031 14.976562 17.722656 14.976562 C 17.707031 14.960938 17.707031 14.960938 17.691406 14.960938 C 17.691406 14.960938 17.707031 14.976562 17.722656 14.976562 Z M 17.722656 14.976562 " fill-opacity="1" fill-rule="nonzero"/></g><path fill="#9c502c" d="M 19.191406 18.996094 C 19.144531 19.105469 19.007812 19.152344 18.898438 19.089844 C 18.667969 18.949219 18.433594 18.828125 18.21875 18.734375 C 18.0625 18.6875 17.90625 18.578125 17.96875 18.410156 C 18.015625 18.300781 18.140625 18.238281 18.25 18.285156 C 18.542969 18.394531 18.835938 18.5625 19.097656 18.71875 C 19.207031 18.765625 19.253906 18.890625 19.191406 18.996094 Z M 19.859375 17.992188 C 19.703125 17.851562 19.5625 17.699219 19.425781 17.527344 C 19.253906 17.371094 19.253906 16.925781 18.945312 17 C 18.449219 17.21875 19.347656 18.117188 19.5625 18.316406 C 19.65625 18.394531 19.796875 18.394531 19.875 18.300781 C 19.949219 18.207031 19.949219 18.070312 19.859375 17.992188 Z M 19.859375 17.992188 " fill-opacity="1" fill-rule="nonzero"/><path fill="#615b5b" d="M 13.871094 17.328125 C 14.117188 17.652344 14.351562 18.039062 14.320312 18.472656 C 14.304688 18.859375 13.855469 19.042969 13.5625 18.8125 C 13.203125 18.535156 12.742188 18.175781 12.554688 17.746094 C 12.492188 17.605469 12.476562 17.464844 12.445312 17.3125 C 12.398438 17.015625 12.445312 16.675781 12.800781 16.613281 C 13.265625 16.582031 13.605469 17.015625 13.871094 17.328125 Z M 19.8125 13.164062 C 19.59375 12.761719 19.347656 12.238281 18.945312 11.972656 C 18.820312 11.894531 18.683594 11.847656 18.542969 11.789062 C 18.265625 11.695312 17.921875 11.679688 17.800781 12.003906 C 17.675781 12.453125 18.046875 12.855469 18.308594 13.179688 C 18.589844 13.472656 18.929688 13.785156 19.347656 13.828125 C 19.71875 13.90625 19.980469 13.503906 19.8125 13.164062 Z M 19.8125 13.164062 " fill-opacity="1" fill-rule="nonzero"/><g clip-path="url(#d7d091a36a)"><path fill="#b3a8a8" d="M 43.992188 54.472656 C 44.007812 54.984375 43.605469 55.371094 43.15625 55.574219 C 42.027344 56.082031 40.867188 55.605469 39.722656 55.433594 C 39.941406 56.238281 39.460938 56.933594 38.59375 56.839844 C 36.707031 56.671875 35.097656 55.464844 33.550781 54.472656 C 33.101562 54.164062 32.621094 53.886719 32.21875 53.515625 C 32.066406 53.375 32.050781 53.128906 32.1875 52.957031 C 32.40625 52.726562 32.699219 52.851562 32.871094 53.050781 C 33.257812 53.359375 33.675781 53.625 34.089844 53.902344 C 35.265625 54.691406 36.535156 55.496094 37.867188 55.929688 C 38.191406 56.007812 38.5625 56.113281 38.902344 56.035156 C 39.027344 55.929688 38.949219 55.726562 38.933594 55.589844 C 38.886719 55.433594 38.824219 55.292969 38.796875 55.140625 C 38.71875 54.660156 39.199219 54.503906 39.585938 54.628906 C 40.480469 54.785156 41.378906 55.078125 42.308594 55.03125 C 43.113281 54.875 43.53125 54.582031 42.785156 53.902344 C 42.570312 53.730469 42.414062 53.453125 42.632812 53.222656 C 42.769531 53.066406 43.035156 53.050781 43.1875 53.191406 C 43.558594 53.515625 43.976562 53.933594 43.992188 54.472656 Z M 22.085938 66.324219 C 22.179688 66.355469 22.285156 66.386719 22.378906 66.417969 C 23.476562 66.929688 24.636719 67.316406 25.84375 67.441406 C 26.496094 67.515625 27.160156 67.578125 27.792969 67.53125 C 26.277344 67.207031 24.777344 66.867188 23.261719 66.542969 C 22.890625 66.464844 22.488281 66.324219 22.085938 66.324219 Z M 15.355469 23.839844 C 16.003906 24.351562 16.808594 24.707031 17.644531 24.800781 C 18.265625 24.875 18.945312 24.859375 19.5625 24.707031 C 18.402344 24.660156 17.210938 24.503906 16.097656 24.117188 C 15.851562 24.042969 15.585938 23.933594 15.355469 23.839844 Z M 25.425781 18.535156 C 25.335938 19.429688 25.179688 20.34375 25.007812 21.242188 C 24.996094 21.347656 24.964844 21.472656 24.933594 21.582031 C 25.410156 20.667969 25.597656 19.554688 25.425781 18.535156 Z M 25.425781 18.535156 " fill-opacity="1" fill-rule="nonzero"/></g></svg>