<svg xmlns="http://www.w3.org/2000/svg" xmlns:xlink="http://www.w3.org/1999/xlink" width="500" zoomAndPan="magnify" viewBox="0 0 375 42" height="56" preserveAspectRatio="xMidYMid meet" version="1.0"><defs><g/><clipPath id="76910f8e4f"><path d="M 49.863281 0 L 89.300781 0 L 89.300781 39.441406 L 49.863281 39.441406 Z M 49.863281 0 " clip-rule="nonzero"/></clipPath><clipPath id="8c70b39778"><path d="M 50.59375 0 L 88.570312 0 C 88.761719 0 88.949219 0.078125 89.085938 0.214844 C 89.222656 0.351562 89.300781 0.539062 89.300781 0.734375 L 89.300781 38.707031 C 89.300781 38.902344 89.222656 39.085938 89.085938 39.226562 C 88.949219 39.363281 88.761719 39.441406 88.570312 39.441406 L 50.59375 39.441406 C 50.398438 39.441406 50.214844 39.363281 50.078125 39.226562 C 49.9375 39.085938 49.863281 38.902344 49.863281 38.707031 L 49.863281 0.734375 C 49.863281 0.539062 49.9375 0.351562 50.078125 0.214844 C 50.214844 0.078125 50.398438 0 50.59375 0 Z M 50.59375 0 " clip-rule="nonzero"/></clipPath><clipPath id="0c3f4eba27"><path d="M 49.863281 0 L 89.167969 0 L 89.167969 39.308594 L 49.863281 39.308594 Z M 49.863281 0 " clip-rule="nonzero"/></clipPath><clipPath id="917df92a00"><path d="M 50.59375 0 L 88.566406 0 C 88.761719 0 88.949219 0.078125 89.085938 0.214844 C 89.222656 0.351562 89.300781 0.539062 89.300781 0.734375 L 89.300781 38.707031 C 89.300781 38.898438 89.222656 39.085938 89.085938 39.222656 C 88.949219 39.363281 88.761719 39.4375 88.566406 39.4375 L 50.59375 39.4375 C 50.398438 39.4375 50.214844 39.363281 50.078125 39.222656 C 49.9375 39.085938 49.863281 38.898438 49.863281 38.707031 L 49.863281 0.734375 C 49.863281 0.539062 49.9375 0.351562 50.078125 0.214844 C 50.214844 0.078125 50.398438 0 50.59375 0 Z M 50.59375 0 " clip-rule="nonzero"/></clipPath><clipPath id="86cd05fe0b"><path d="M 95.144531 0 L 134.585938 0 L 134.585938 39.441406 L 95.144531 39.441406 Z M 95.144531 0 " clip-rule="nonzero"/></clipPath><clipPath id="710cc5c803"><path d="M 95.878906 0 L 133.851562 0 C 134.046875 0 134.234375 0.078125 134.371094 0.214844 C 134.507812 0.351562 134.585938 0.539062 134.585938 0.734375 L 134.585938 38.707031 C 134.585938 38.902344 134.507812 39.085938 134.371094 39.226562 C 134.234375 39.363281 134.046875 39.441406 133.851562 39.441406 L 95.878906 39.441406 C 95.683594 39.441406 95.496094 39.363281 95.359375 39.226562 C 95.222656 39.085938 95.144531 38.902344 95.144531 38.707031 L 95.144531 0.734375 C 95.144531 0.539062 95.222656 0.351562 95.359375 0.214844 C 95.496094 0.078125 95.683594 0 95.878906 0 Z M 95.878906 0 " clip-rule="nonzero"/></clipPath><clipPath id="12e0517dce"><path d="M 95.144531 0 L 134.453125 0 L 134.453125 39.308594 L 95.144531 39.308594 Z M 95.144531 0 " clip-rule="nonzero"/></clipPath><clipPath id="99fb38be88"><path d="M 95.878906 0 L 133.851562 0 C 134.046875 0 134.230469 0.078125 134.367188 0.214844 C 134.507812 0.351562 134.582031 0.539062 134.582031 0.734375 L 134.582031 38.707031 C 134.582031 38.898438 134.507812 39.085938 134.367188 39.222656 C 134.230469 39.363281 134.046875 39.4375 133.851562 39.4375 L 95.878906 39.4375 C 95.683594 39.4375 95.496094 39.363281 95.359375 39.222656 C 95.222656 39.085938 95.144531 38.898438 95.144531 38.707031 L 95.144531 0.734375 C 95.144531 0.539062 95.222656 0.351562 95.359375 0.214844 C 95.496094 0.078125 95.683594 0 95.878906 0 Z M 95.878906 0 " clip-rule="nonzero"/></clipPath><clipPath id="b8fa98e3a3"><path d="M 4.359375 0 L 43.800781 0 L 43.800781 39.441406 L 4.359375 39.441406 Z M 4.359375 0 " clip-rule="nonzero"/></clipPath><clipPath id="5ea39a09b5"><path d="M 5.09375 0 L 43.066406 0 C 43.261719 0 43.449219 0.078125 43.585938 0.214844 C 43.722656 0.351562 43.800781 0.539062 43.800781 0.734375 L 43.800781 38.707031 C 43.800781 38.902344 43.722656 39.085938 43.585938 39.226562 C 43.449219 39.363281 43.261719 39.441406 43.066406 39.441406 L 5.09375 39.441406 C 4.898438 39.441406 4.710938 39.363281 4.574219 39.226562 C 4.4375 39.085938 4.359375 38.902344 4.359375 38.707031 L 4.359375 0.734375 C 4.359375 0.539062 4.4375 0.351562 4.574219 0.214844 C 4.710938 0.078125 4.898438 0 5.09375 0 Z M 5.09375 0 " clip-rule="nonzero"/></clipPath><clipPath id="54abaa8177"><path d="M 4.359375 0 L 43.667969 0 L 43.667969 39.308594 L 4.359375 39.308594 Z M 4.359375 0 " clip-rule="nonzero"/></clipPath><clipPath id="1d66f0e54f"><path d="M 5.09375 0 L 43.066406 0 C 43.261719 0 43.445312 0.078125 43.585938 0.214844 C 43.722656 0.351562 43.800781 0.539062 43.800781 0.734375 L 43.800781 38.707031 C 43.800781 38.898438 43.722656 39.085938 43.585938 39.222656 C 43.445312 39.363281 43.261719 39.4375 43.066406 39.4375 L 5.09375 39.4375 C 4.898438 39.4375 4.710938 39.363281 4.574219 39.222656 C 4.4375 39.085938 4.359375 38.898438 4.359375 38.707031 L 4.359375 0.734375 C 4.359375 0.539062 4.4375 0.351562 4.574219 0.214844 C 4.710938 0.078125 4.898438 0 5.09375 0 Z M 5.09375 0 " clip-rule="nonzero"/></clipPath><clipPath id="d71466d0d7"><path d="M 59.78125 6 L 78.386719 6 L 78.386719 37.960938 L 59.78125 37.960938 Z M 59.78125 6 " clip-rule="nonzero"/></clipPath><clipPath id="c8351517fa"><path d="M 60 12 L 78.386719 12 L 78.386719 37.960938 L 60 37.960938 Z M 60 12 " clip-rule="nonzero"/></clipPath><clipPath id="3a9189711b"><path d="M 59.78125 22 L 78.386719 22 L 78.386719 37.960938 L 59.78125 37.960938 Z M 59.78125 22 " clip-rule="nonzero"/></clipPath></defs><g clip-path="url(#76910f8e4f)"><g clip-path="url(#8c70b39778)"><path fill="#ffd583" d="M 49.863281 0 L 89.300781 0 L 89.300781 39.441406 L 49.863281 39.441406 Z M 49.863281 0 " fill-opacity="1" fill-rule="nonzero"/></g></g><g clip-path="url(#0c3f4eba27)"><g clip-path="url(#917df92a00)"><path stroke-linecap="butt" transform="matrix(0.300055, 0, 0, 0.300055, 49.862091, 0.00000195349)" fill="none" stroke-linejoin="miter" d="M 2.438414 -0.00000651042 L 128.990551 -0.00000651042 C 129.641472 -0.00000651042 130.266357 0.260362 130.722002 0.716007 C 131.177647 1.171652 131.438015 1.796537 131.438015 2.447458 L 131.438015 128.999594 C 131.438015 129.637497 131.177647 130.262382 130.722002 130.718027 C 130.266357 131.18669 129.641472 131.43404 128.990551 131.43404 L 2.438414 131.43404 C 1.787493 131.43404 1.175627 131.18669 0.719982 130.718027 C 0.251318 130.262382 0.00396811 129.637497 0.00396811 128.999594 L 0.00396811 2.447458 C 0.00396811 1.796537 0.251318 1.171652 0.719982 0.716007 C 1.175627 0.260362 1.787493 -0.00000651042 2.438414 -0.00000651042 Z M 2.438414 -0.00000651042 " stroke="#737373" stroke-width="4.882819" stroke-opacity="1" stroke-miterlimit="4"/></g></g><g clip-path="url(#86cd05fe0b)"><g clip-path="url(#710cc5c803)"><path fill="#b8c26c" d="M 95.144531 0 L 134.585938 0 L 134.585938 39.441406 L 95.144531 39.441406 Z M 95.144531 0 " fill-opacity="1" fill-rule="nonzero"/></g></g><g clip-path="url(#12e0517dce)"><g clip-path="url(#99fb38be88)"><path stroke-linecap="butt" transform="matrix(0.300055, 0, 0, 0.300055, 95.144961, 0.00000195349)" fill="none" stroke-linejoin="miter" d="M 2.446033 -0.00000651042 L 128.99817 -0.00000651042 C 129.649091 -0.00000651042 130.260957 0.260362 130.716602 0.716007 C 131.185266 1.171652 131.432616 1.796537 131.432616 2.447458 L 131.432616 128.999594 C 131.432616 129.637497 131.185266 130.262382 130.716602 130.718027 C 130.260957 131.18669 129.649091 131.43404 128.99817 131.43404 L 2.446033 131.43404 C 1.795112 131.43404 1.170227 131.18669 0.714582 130.718027 C 0.258937 130.262382 -0.00143135 129.637497 -0.00143135 128.999594 L -0.00143135 2.447458 C -0.00143135 1.796537 0.258937 1.171652 0.714582 0.716007 C 1.170227 0.260362 1.795112 -0.00000651042 2.446033 -0.00000651042 Z M 2.446033 -0.00000651042 " stroke="#737373" stroke-width="4.882819" stroke-opacity="1" stroke-miterlimit="4"/></g></g><g clip-path="url(#b8fa98e3a3)"><g clip-path="url(#5ea39a09b5)"><path fill="#ffffff" d="M 4.359375 0 L 43.800781 0 L 43.800781 39.441406 L 4.359375 39.441406 Z M 4.359375 0 " fill-opacity="1" fill-rule="nonzero"/></g></g><g clip-path="url(#54abaa8177)"><g clip-path="url(#1d66f0e54f)"><path stroke-linecap="butt" transform="matrix(0.300055, 0, 0, 0.300055, 4.360463, 0.00000195349)" fill="none" stroke-linejoin="miter" d="M 2.443837 -0.00000651042 L 128.995974 -0.00000651042 C 129.646895 -0.00000651042 130.258761 0.260362 130.727425 0.716007 C 131.18307 1.171652 131.443438 1.796537 131.443438 2.447458 L 131.443438 128.999594 C 131.443438 129.637497 131.18307 130.262382 130.727425 130.718027 C 130.258761 131.18669 129.646895 131.43404 128.995974 131.43404 L 2.443837 131.43404 C 1.792916 131.43404 1.168031 131.18669 0.712386 130.718027 C 0.256741 130.262382 -0.00362724 129.637497 -0.00362724 128.999594 L -0.00362724 2.447458 C -0.00362724 1.796537 0.256741 1.171652 0.712386 0.716007 C 1.168031 0.260362 1.792916 -0.00000651042 2.443837 -0.00000651042 Z M 2.443837 -0.00000651042 " stroke="#737373" stroke-width="4.882819" stroke-opacity="1" stroke-miterlimit="4"/></g></g><g clip-path="url(#d71466d0d7)"><path fill="#ffffff" d="M 111.425781 31.019531 C 111.113281 32.136719 110.546875 33.171875 109.910156 34.117188 C 108.136719 36.578125 105.417969 38.554688 102.683594 39.796875 C 102.425781 39.898438 102.167969 39.984375 101.890625 40.085938 C 101.460938 41.171875 100.980469 42.238281 100.308594 43.183594 C 99.226562 44.613281 97.796875 45.730469 96.195312 46.539062 C 95.851562 47.726562 95.164062 48.828125 94.375 49.722656 C 92.515625 51.976562 89.867188 53.164062 87.234375 54.230469 C 86.5625 54.507812 85.890625 54.765625 85.238281 55.023438 C 85.066406 55.089844 84.894531 55.160156 84.722656 55.230469 C 84.667969 59.203125 83.015625 63.78125 80.4375 66.480469 C 80.417969 66.601562 80.160156 67.308594 79.523438 67.996094 C 78.664062 68.941406 77.496094 69.628906 76.273438 69.679688 C 75.136719 69.679688 74.3125 68.925781 73.605469 68.355469 C 73.054688 68.390625 72.316406 68.375 71.765625 68.390625 C 69.90625 68.40625 68.308594 68.855469 66.449219 68.511719 C 65.261719 69.164062 64.074219 69.972656 62.679688 70.027344 C 61.5625 70.027344 60.476562 69.441406 59.789062 68.582031 C 59.394531 68.117188 59.050781 67.597656 58.707031 67.082031 C 58.6875 67.066406 58.6875 67.050781 58.671875 67.03125 C 57.433594 66.378906 56.640625 65.121094 55.988281 63.933594 C 55.867188 63.726562 55.765625 63.523438 55.660156 63.316406 C 55.644531 63.296875 55.644531 63.296875 55.625 63.28125 C 55.28125 62.800781 55.09375 62.25 54.902344 61.699219 C 54.644531 61.113281 54.457031 60.492188 54.320312 59.839844 C 54.25 59.546875 54.179688 59.238281 54.128906 58.929688 C 54.113281 58.894531 54.09375 58.859375 54.09375 58.824219 C 53.820312 57.535156 53.714844 56.382812 53.75 55.316406 C 53.527344 55.230469 53.320312 55.125 53.097656 55.039062 C 52.425781 54.765625 51.753906 54.507812 51.101562 54.246094 C 48.46875 53.179688 45.820312 51.992188 43.960938 49.738281 C 43.167969 48.84375 42.480469 47.742188 42.136719 46.558594 C 40.535156 45.75 39.109375 44.628906 38.023438 43.203125 C 37.355469 42.253906 36.855469 41.1875 36.441406 40.105469 C 36.183594 40.019531 35.910156 39.914062 35.648438 39.8125 C 32.898438 38.589844 30.195312 36.59375 28.425781 34.132812 C 27.769531 33.1875 27.21875 32.15625 26.910156 31.039062 C 26.738281 30.332031 26.515625 29.523438 26.839844 28.816406 C 27.046875 28.371094 27.582031 28.128906 28.046875 28.320312 C 28.957031 28.679688 29.730469 29.351562 30.695312 29.644531 C 32.433594 30.195312 34.308594 30.433594 36.082031 30.023438 C 38.953125 29.335938 40.96875 28.320312 44.046875 29.128906 C 46.953125 29.730469 49.292969 31.382812 51.324219 33.496094 C 54.144531 36.335938 56.210938 39.847656 59.171875 42.546875 C 59.496094 42.824219 59.824219 43.082031 60.167969 43.339844 C 61.199219 41.980469 62.214844 40.605469 62.972656 39.074219 C 63.679688 37.507812 64.175781 35.835938 64.488281 34.152344 C 64.898438 31.019531 64.710938 27.820312 64.109375 24.757812 C 63.746094 23.175781 63.144531 21.675781 62.714844 20.113281 C 62.234375 18.238281 61.976562 16.273438 62.148438 14.332031 C 62.179688 13.332031 62.355469 12.351562 62.714844 11.371094 C 63.902344 8.050781 66.84375 5.554688 70.527344 6.398438 C 73.019531 7 74.742188 9.132812 75.5 11.355469 C 76.789062 15.035156 76.066406 17.6875 74.757812 21.179688 C 73.863281 23.8125 73.65625 26.53125 73.691406 29.265625 C 73.554688 33.1875 75.34375 36.835938 77.582031 39.914062 C 78.183594 40.757812 78.769531 41.601562 79.351562 42.445312 C 82.242188 39.761719 84.289062 36.300781 87.078125 33.496094 C 89.109375 31.363281 91.429688 29.730469 94.355469 29.128906 C 97.417969 28.320312 99.449219 29.335938 102.324219 30.023438 C 104.113281 30.433594 105.988281 30.175781 107.707031 29.644531 C 108.652344 29.351562 109.445312 28.699219 110.355469 28.320312 C 110.820312 28.128906 111.355469 28.371094 111.5625 28.816406 C 111.800781 29.488281 111.597656 30.296875 111.425781 31.019531 Z M 111.425781 31.019531 " fill-opacity="1" fill-rule="nonzero"/></g><g clip-path="url(#c8351517fa)"><path fill="#ec7944" d="M 67.636719 76.511719 C 67.757812 76.648438 67.773438 76.855469 67.636719 76.992188 C 67.515625 77.132812 67.238281 77.164062 67.085938 77.21875 C 66.636719 77.335938 66.242188 77.5625 65.933594 77.886719 C 65.382812 78.457031 65.332031 79.316406 65.449219 80.054688 C 65.535156 80.554688 65.125 80.832031 64.726562 80.503906 C 63.9375 79.867188 62.851562 79.867188 61.90625 80.160156 C 61.527344 80.226562 61.097656 80.589844 60.703125 80.402344 C 60.339844 80.125 60.667969 79.710938 60.855469 79.4375 C 61.113281 79.042969 61.355469 78.644531 61.613281 78.25 C 62.472656 76.976562 63.351562 75.53125 63.042969 73.929688 C 62.816406 72.605469 62.441406 71.296875 62.214844 69.972656 C 62.25 69.972656 62.285156 69.972656 62.320312 69.972656 C 62.714844 69.972656 63.109375 69.9375 63.523438 69.871094 C 63.765625 70.921875 63.886719 72.125 63.972656 72.433594 C 64.230469 73.5 64.417969 74.707031 65.242188 75.496094 C 65.761719 75.996094 66.449219 76.304688 67.171875 76.375 C 67.308594 76.375 67.515625 76.375 67.636719 76.511719 Z M 79.144531 79.265625 C 78.871094 78.886719 78.597656 78.492188 78.320312 78.113281 C 77.390625 76.890625 76.445312 75.496094 76.652344 73.878906 C 76.804688 72.539062 77.117188 71.210938 77.253906 69.871094 C 77.269531 69.699219 77.304688 69.507812 77.324219 69.335938 C 76.890625 69.476562 76.429688 69.5625 75.980469 69.628906 C 75.773438 70.730469 75.707031 72.105469 75.636719 72.453125 C 75.445312 73.535156 75.308594 74.738281 74.535156 75.582031 C 74.035156 76.097656 73.382812 76.460938 72.675781 76.5625 C 72.523438 76.597656 72.296875 76.613281 72.195312 76.753906 C 72.09375 76.890625 72.074219 77.097656 72.210938 77.234375 C 72.351562 77.371094 72.625 77.390625 72.761719 77.425781 C 73.210938 77.527344 73.625 77.714844 73.949219 78.027344 C 74.535156 78.558594 74.636719 79.417969 74.550781 80.160156 C 74.484375 80.660156 74.914062 80.917969 75.308594 80.554688 C 76.066406 79.867188 77.152344 79.816406 78.113281 80.054688 C 78.492188 80.109375 78.957031 80.433594 79.320312 80.226562 C 79.695312 79.917969 79.335938 79.523438 79.144531 79.265625 Z M 72.417969 17.136719 C 72.195312 16.652344 71.695312 16.394531 71.351562 16 C 70.699219 15.261719 70.714844 14.246094 70.421875 13.367188 C 69.992188 12.542969 68.996094 12.609375 68.203125 12.714844 C 67.445312 12.816406 67.257812 13.675781 67.171875 14.3125 C 67.035156 15.019531 66.636719 15.636719 66.191406 16.1875 C 65.792969 16.636719 65.3125 17.117188 65.332031 17.753906 C 65.363281 18.960938 66.277344 19.871094 66.894531 20.816406 C 67.152344 21.195312 67.34375 21.644531 67.429688 22.125 C 67.5 22.746094 68.015625 23.207031 68.617188 23.292969 C 70.078125 23.671875 70.441406 22.125 70.785156 21.058594 C 70.9375 20.609375 71.144531 20.164062 71.371094 19.714844 C 71.558594 19.335938 71.832031 18.925781 72.074219 18.546875 C 72.367188 18.167969 72.660156 17.652344 72.417969 17.136719 Z M 72.417969 17.136719 " fill-opacity="1" fill-rule="nonzero"/></g><path fill="#9c502c" d="M 68.359375 18.410156 C 68.375 18.546875 68.289062 18.683594 68.167969 18.699219 C 68.046875 18.71875 67.945312 18.613281 67.929688 18.476562 C 67.894531 18.183594 67.859375 17.875 67.773438 17.601562 C 67.636719 17.308594 67.996094 17.050781 68.152344 17.339844 C 68.289062 17.667969 68.308594 18.046875 68.359375 18.410156 Z M 69.683594 17.167969 C 69.304688 17.066406 69.304688 17.667969 69.234375 17.910156 C 69.234375 18.132812 69.03125 18.546875 69.355469 18.632812 C 69.460938 18.648438 69.597656 18.5625 69.597656 18.441406 C 69.613281 18.203125 69.648438 17.960938 69.699219 17.71875 C 69.753906 17.546875 69.925781 17.289062 69.683594 17.167969 Z M 69.683594 17.167969 " fill-opacity="1" fill-rule="nonzero"/><path fill="#615b5b" d="M 65.707031 12.023438 C 65.933594 12.558594 65.433594 14.675781 64.609375 14.246094 C 64.347656 14.054688 64.296875 13.710938 64.296875 13.402344 C 64.296875 13.074219 64.296875 12.679688 64.417969 12.386719 C 64.539062 12.09375 64.746094 11.699219 65.089844 11.613281 C 65.382812 11.542969 65.589844 11.765625 65.707031 12.023438 Z M 73.246094 13.210938 C 73.226562 12.886719 73.191406 12.488281 73.074219 12.195312 C 72.953125 11.90625 72.695312 11.527344 72.367188 11.472656 C 72.058594 11.421875 71.867188 11.648438 71.765625 11.921875 C 71.558594 12.472656 72.195312 14.554688 72.988281 14.074219 C 73.226562 13.847656 73.261719 13.523438 73.246094 13.210938 Z M 73.246094 13.210938 " fill-opacity="1" fill-rule="nonzero"/><g clip-path="url(#3a9189711b)"><path fill="#b3a8a8" d="M 66.515625 25.289062 C 65.191406 25 63.917969 23.828125 63.472656 22.710938 C 64.316406 23.742188 65.363281 24.652344 66.515625 25.289062 Z M 74.140625 22.160156 C 73.417969 23.261719 72.539062 24.277344 71.660156 25.257812 C 72.78125 24.535156 73.726562 23.433594 74.140625 22.160156 Z M 54.628906 51.925781 C 54.386719 52.820312 54.335938 53.800781 54.027344 54.644531 C 54.285156 54.265625 54.351562 53.785156 54.492188 53.335938 C 54.644531 52.785156 54.816406 52.253906 54.988281 51.71875 C 55.832031 49.171875 56.96875 46.933594 58.6875 44.664062 C 59.015625 44.320312 59.1875 43.925781 59.515625 43.597656 C 56.625 45.972656 55.386719 48.519531 54.628906 51.925781 Z M 84.066406 51.820312 C 83.480469 48.378906 82.363281 45.765625 79.609375 43.253906 C 79.9375 43.597656 80.074219 43.992188 80.386719 44.355469 C 81.984375 46.730469 83 49.015625 83.707031 51.597656 C 83.84375 52.148438 83.980469 52.699219 84.117188 53.25 C 84.238281 53.699219 84.289062 54.179688 84.515625 54.574219 C 84.257812 53.714844 84.273438 52.714844 84.066406 51.820312 Z M 84.066406 51.820312 " fill-opacity="1" fill-rule="nonzero"/></g><g fill="#000000" fill-opacity="1"><g transform="translate(141.424423, 31.601679)"><g><path d="M 16.109375 0 L 6.4375 0 L 0.359375 -25.4375 L 6.640625 -25.4375 L 11.171875 -4.265625 L 14.875 -25.4375 L 23.078125 -25.4375 L 26.78125 -4.234375 L 31.3125 -25.4375 L 37.578125 -25.4375 L 31.515625 0 L 21.84375 0 L 18.96875 -19.203125 Z M 16.109375 0 "/></g></g></g><g fill="#000000" fill-opacity="1"><g transform="translate(179.364819, 31.601679)"><g><path d="M 11 0.40625 C 9.039062 0.40625 7.3125 -0.00390625 5.8125 -0.828125 C 4.3125 -1.648438 3.144531 -2.8125 2.3125 -4.3125 C 1.476562 -5.8125 1.0625 -7.5625 1.0625 -9.5625 C 1.0625 -11.5 1.476562 -13.195312 2.3125 -14.65625 C 3.144531 -16.113281 4.304688 -17.253906 5.796875 -18.078125 C 7.285156 -18.898438 9.019531 -19.3125 11 -19.3125 C 12.976562 -19.3125 14.710938 -18.898438 16.203125 -18.078125 C 17.691406 -17.253906 18.851562 -16.113281 19.6875 -14.65625 C 20.519531 -13.195312 20.9375 -11.5 20.9375 -9.5625 C 20.9375 -7.5625 20.523438 -5.816406 19.703125 -4.328125 C 18.878906 -2.835938 17.722656 -1.675781 16.234375 -0.84375 C 14.742188 -0.0078125 13 0.40625 11 0.40625 Z M 11 -4.40625 C 12.269531 -4.40625 13.269531 -4.875 14 -5.8125 C 14.738281 -6.757812 15.109375 -8.007812 15.109375 -9.5625 C 15.109375 -11.03125 14.738281 -12.222656 14 -13.140625 C 13.269531 -14.066406 12.269531 -14.53125 11 -14.53125 C 9.757812 -14.53125 8.753906 -14.070312 7.984375 -13.15625 C 7.210938 -12.25 6.828125 -11.050781 6.828125 -9.5625 C 6.828125 -7.988281 7.210938 -6.734375 7.984375 -5.796875 C 8.753906 -4.867188 9.757812 -4.40625 11 -4.40625 Z M 11 -4.40625 "/></g></g></g><g fill="#000000" fill-opacity="1"><g transform="translate(201.368917, 31.601679)"><g><path d="M 7.4375 0 L 1.828125 0 L 1.828125 -18.90625 L 7.4375 -18.90625 L 7.4375 -16.875 C 8.082031 -17.832031 8.796875 -18.476562 9.578125 -18.8125 C 10.367188 -19.144531 11.265625 -19.3125 12.265625 -19.3125 L 13.109375 -19.3125 L 13.109375 -13.96875 L 12.03125 -13.96875 C 11.257812 -13.96875 10.617188 -13.878906 10.109375 -13.703125 C 9.597656 -13.523438 9.175781 -13.28125 8.84375 -12.96875 C 8.351562 -12.5 7.992188 -11.867188 7.765625 -11.078125 C 7.546875 -10.296875 7.4375 -9.257812 7.4375 -7.96875 Z M 7.4375 0 "/></g></g></g><g fill="#000000" fill-opacity="1"><g transform="translate(215.03812, 31.601679)"><g><path d="M 9.375 0.40625 C 7.769531 0.40625 6.34375 -0.015625 5.09375 -0.859375 C 3.851562 -1.710938 2.882812 -2.875 2.1875 -4.34375 C 1.488281 -5.820312 1.140625 -7.53125 1.140625 -9.46875 C 1.140625 -11.40625 1.488281 -13.113281 2.1875 -14.59375 C 2.882812 -16.070312 3.851562 -17.226562 5.09375 -18.0625 C 6.34375 -18.894531 7.769531 -19.3125 9.375 -19.3125 C 10.375 -19.3125 11.269531 -19.144531 12.0625 -18.8125 C 12.863281 -18.476562 13.578125 -17.832031 14.203125 -16.875 L 14.203125 -25.4375 L 19.8125 -25.4375 L 19.8125 0 L 14.203125 0 L 14.203125 -2.03125 C 13.578125 -1.070312 12.863281 -0.425781 12.0625 -0.09375 C 11.269531 0.238281 10.375 0.40625 9.375 0.40625 Z M 10.9375 -4.375 C 12.175781 -4.375 13.175781 -4.835938 13.9375 -5.765625 C 14.695312 -6.703125 15.078125 -7.9375 15.078125 -9.46875 C 15.078125 -10.976562 14.695312 -12.195312 13.9375 -13.125 C 13.175781 -14.0625 12.175781 -14.53125 10.9375 -14.53125 C 9.6875 -14.53125 8.679688 -14.054688 7.921875 -13.109375 C 7.171875 -12.171875 6.796875 -10.957031 6.796875 -9.46875 C 6.796875 -7.976562 7.171875 -6.753906 7.921875 -5.796875 C 8.679688 -4.847656 9.6875 -4.375 10.9375 -4.375 Z M 10.9375 -4.375 "/></g></g></g><g fill="#000000" fill-opacity="1"><g transform="translate(236.675471, 31.601679)"><g><path d="M 5.671875 6.53125 L 2.296875 6.53125 L 2.296875 1.96875 L 4.5625 1.96875 C 5.03125 1.96875 5.457031 1.890625 5.84375 1.734375 C 6.238281 1.578125 6.546875 1.222656 6.765625 0.671875 L 6.9375 0.265625 L 0.234375 -18.90625 L 6.234375 -18.90625 L 9.796875 -5.5 L 12.875 -18.90625 L 18.90625 -18.90625 L 12.203125 1.203125 C 11.578125 3.085938 10.785156 4.445312 9.828125 5.28125 C 8.878906 6.113281 7.492188 6.53125 5.671875 6.53125 Z M 5.671875 6.53125 "/></g></g></g><g fill="#000000" fill-opacity="1"><g transform="translate(255.879044, 31.601679)"><g><path d="M 11.765625 -8.234375 L 0.859375 -8.234375 L 0.859375 -13 L 11.765625 -13 Z M 11.765625 -8.234375 "/></g></g></g><g fill="#000000" fill-opacity="1"><g transform="translate(268.514723, 31.601679)"><g><path d="M 11.609375 0 L 7.171875 0 L 0.203125 -18.90625 L 6.140625 -18.90625 L 9.34375 -8.296875 L 12.671875 -18.90625 L 18.609375 -18.90625 Z M 11.609375 0 "/></g></g></g><g fill="#000000" fill-opacity="1"><g transform="translate(287.318226, 31.601679)"><g><path d="M 10.9375 0.40625 C 8.9375 0.40625 7.195312 -0.015625 5.71875 -0.859375 C 4.238281 -1.710938 3.09375 -2.863281 2.28125 -4.3125 C 1.46875 -5.769531 1.0625 -7.429688 1.0625 -9.296875 C 1.0625 -10.503906 1.242188 -11.695312 1.609375 -12.875 C 1.984375 -14.050781 2.5625 -15.128906 3.34375 -16.109375 C 4.132812 -17.085938 5.140625 -17.863281 6.359375 -18.4375 C 7.585938 -19.019531 9.054688 -19.3125 10.765625 -19.3125 C 12.015625 -19.3125 13.222656 -19.125 14.390625 -18.75 C 15.554688 -18.382812 16.597656 -17.800781 17.515625 -17 C 18.441406 -16.207031 19.175781 -15.171875 19.71875 -13.890625 C 20.269531 -12.609375 20.546875 -11.054688 20.546875 -9.234375 L 20.546875 -8.265625 L 6.9375 -8.265625 C 7.09375 -7.242188 7.414062 -6.429688 7.90625 -5.828125 C 8.300781 -5.347656 8.78125 -4.988281 9.34375 -4.75 C 9.914062 -4.519531 10.546875 -4.40625 11.234375 -4.40625 C 12.078125 -4.40625 12.789062 -4.613281 13.375 -5.03125 C 13.96875 -5.457031 14.378906 -5.957031 14.609375 -6.53125 L 20.234375 -6.53125 C 19.878906 -5.289062 19.3125 -4.140625 18.53125 -3.078125 C 17.757812 -2.023438 16.742188 -1.179688 15.484375 -0.546875 C 14.234375 0.0859375 12.71875 0.40625 10.9375 0.40625 Z M 7.109375 -12.234375 L 14.875 -12.234375 C 14.820312 -12.460938 14.734375 -12.726562 14.609375 -13.03125 C 14.492188 -13.34375 14.28125 -13.644531 13.96875 -13.9375 C 13.570312 -14.332031 13.117188 -14.613281 12.609375 -14.78125 C 12.097656 -14.945312 11.550781 -15.03125 10.96875 -15.03125 C 10.414062 -15.03125 9.875 -14.945312 9.34375 -14.78125 C 8.820312 -14.613281 8.363281 -14.332031 7.96875 -13.9375 C 7.65625 -13.625 7.441406 -13.316406 7.328125 -13.015625 C 7.222656 -12.722656 7.148438 -12.460938 7.109375 -12.234375 Z M 7.109375 -12.234375 "/></g></g></g><g fill="#000000" fill-opacity="1"><g transform="translate(308.922255, 31.601679)"><g><path d="M 7.4375 0 L 1.828125 0 L 1.828125 -18.90625 L 7.4375 -18.90625 L 7.4375 -16.875 C 8.082031 -17.832031 8.796875 -18.476562 9.578125 -18.8125 C 10.367188 -19.144531 11.265625 -19.3125 12.265625 -19.3125 L 13.109375 -19.3125 L 13.109375 -13.96875 L 12.03125 -13.96875 C 11.257812 -13.96875 10.617188 -13.878906 10.109375 -13.703125 C 9.597656 -13.523438 9.175781 -13.28125 8.84375 -12.96875 C 8.351562 -12.5 7.992188 -11.867188 7.765625 -11.078125 C 7.546875 -10.296875 7.4375 -9.257812 7.4375 -7.96875 Z M 7.4375 0 "/></g></g></g><g fill="#000000" fill-opacity="1"><g transform="translate(322.591458, 31.601679)"><g><path d="M 10.34375 0.40625 C 9.34375 0.40625 8.328125 0.285156 7.296875 0.046875 C 6.273438 -0.179688 5.304688 -0.5625 4.390625 -1.09375 C 3.484375 -1.632812 2.722656 -2.347656 2.109375 -3.234375 C 1.503906 -4.117188 1.125 -5.21875 0.96875 -6.53125 L 6.40625 -6.53125 C 6.71875 -5.582031 7.238281 -4.894531 7.96875 -4.46875 C 8.695312 -4.039062 9.460938 -3.828125 10.265625 -3.828125 C 11.023438 -3.828125 11.660156 -3.976562 12.171875 -4.28125 C 12.679688 -4.582031 12.9375 -5 12.9375 -5.53125 C 12.9375 -6.175781 12.550781 -6.625 11.78125 -6.875 C 11.019531 -7.132812 10.101562 -7.378906 9.03125 -7.609375 C 8.226562 -7.753906 7.398438 -7.9375 6.546875 -8.15625 C 5.691406 -8.382812 4.894531 -8.703125 4.15625 -9.109375 C 3.425781 -9.523438 2.835938 -10.085938 2.390625 -10.796875 C 1.953125 -11.515625 1.734375 -12.425781 1.734375 -13.53125 C 1.734375 -14.9375 2.09375 -16.0625 2.8125 -16.90625 C 3.539062 -17.75 4.484375 -18.359375 5.640625 -18.734375 C 6.796875 -19.117188 8.03125 -19.3125 9.34375 -19.3125 C 11.644531 -19.3125 13.570312 -18.738281 15.125 -17.59375 C 16.6875 -16.445312 17.644531 -14.796875 18 -12.640625 L 12.703125 -12.640625 C 12.429688 -13.546875 11.972656 -14.179688 11.328125 -14.546875 C 10.691406 -14.921875 10.015625 -15.109375 9.296875 -15.109375 C 8.609375 -15.109375 8.054688 -14.976562 7.640625 -14.71875 C 7.234375 -14.46875 7.03125 -14.117188 7.03125 -13.671875 C 7.03125 -13.046875 7.421875 -12.601562 8.203125 -12.34375 C 8.984375 -12.09375 9.914062 -11.867188 11 -11.671875 C 11.820312 -11.515625 12.664062 -11.328125 13.53125 -11.109375 C 14.40625 -10.898438 15.210938 -10.597656 15.953125 -10.203125 C 16.703125 -9.804688 17.300781 -9.265625 17.75 -8.578125 C 18.207031 -7.898438 18.4375 -7.007812 18.4375 -5.90625 C 18.4375 -4.007812 17.710938 -2.484375 16.265625 -1.328125 C 14.828125 -0.171875 12.851562 0.40625 10.34375 0.40625 Z M 10.34375 0.40625 "/></g></g></g><g fill="#000000" fill-opacity="1"><g transform="translate(342.195101, 31.601679)"><g><path d="M 10.9375 0.40625 C 8.9375 0.40625 7.195312 -0.015625 5.71875 -0.859375 C 4.238281 -1.710938 3.09375 -2.863281 2.28125 -4.3125 C 1.46875 -5.769531 1.0625 -7.429688 1.0625 -9.296875 C 1.0625 -10.503906 1.242188 -11.695312 1.609375 -12.875 C 1.984375 -14.050781 2.5625 -15.128906 3.34375 -16.109375 C 4.132812 -17.085938 5.140625 -17.863281 6.359375 -18.4375 C 7.585938 -19.019531 9.054688 -19.3125 10.765625 -19.3125 C 12.015625 -19.3125 13.222656 -19.125 14.390625 -18.75 C 15.554688 -18.382812 16.597656 -17.800781 17.515625 -17 C 18.441406 -16.207031 19.175781 -15.171875 19.71875 -13.890625 C 20.269531 -12.609375 20.546875 -11.054688 20.546875 -9.234375 L 20.546875 -8.265625 L 6.9375 -8.265625 C 7.09375 -7.242188 7.414062 -6.429688 7.90625 -5.828125 C 8.300781 -5.347656 8.78125 -4.988281 9.34375 -4.75 C 9.914062 -4.519531 10.546875 -4.40625 11.234375 -4.40625 C 12.078125 -4.40625 12.789062 -4.613281 13.375 -5.03125 C 13.96875 -5.457031 14.378906 -5.957031 14.609375 -6.53125 L 20.234375 -6.53125 C 19.878906 -5.289062 19.3125 -4.140625 18.53125 -3.078125 C 17.757812 -2.023438 16.742188 -1.179688 15.484375 -0.546875 C 14.234375 0.0859375 12.71875 0.40625 10.9375 0.40625 Z M 7.109375 -12.234375 L 14.875 -12.234375 C 14.820312 -12.460938 14.734375 -12.726562 14.609375 -13.03125 C 14.492188 -13.34375 14.28125 -13.644531 13.96875 -13.9375 C 13.570312 -14.332031 13.117188 -14.613281 12.609375 -14.78125 C 12.097656 -14.945312 11.550781 -15.03125 10.96875 -15.03125 C 10.414062 -15.03125 9.875 -14.945312 9.34375 -14.78125 C 8.820312 -14.613281 8.363281 -14.332031 7.96875 -13.9375 C 7.65625 -13.625 7.441406 -13.316406 7.328125 -13.015625 C 7.222656 -12.722656 7.148438 -12.460938 7.109375 -12.234375 Z M 7.109375 -12.234375 "/></g></g></g></svg>