<svg xmlns="http://www.w3.org/2000/svg" xmlns:xlink="http://www.w3.org/1999/xlink" width="120" zoomAndPan="magnify" viewBox="0 0 90 27.749998" height="37" preserveAspectRatio="xMidYMid meet" version="1.0"><defs><clipPath id="8c69debcc2"><path d="M 31.246094 0 L 58.175781 0 L 58.175781 26.824219 L 31.246094 26.824219 Z M 31.246094 0 " clip-rule="nonzero"/></clipPath><clipPath id="48cddf5667"><path d="M 32.09375 0 L 57.433594 0 C 57.84375 0 58.175781 0.332031 58.175781 0.742188 L 58.175781 26.082031 C 58.175781 26.492188 57.84375 26.824219 57.433594 26.824219 L 32.09375 26.824219 C 31.683594 26.824219 31.351562 26.492188 31.351562 26.082031 L 31.351562 0.742188 C 31.351562 0.332031 31.683594 0 32.09375 0 Z M 32.09375 0 " clip-rule="nonzero"/></clipPath><clipPath id="34cbe52054"><path d="M 31.351562 0 L 57.910156 0 L 57.910156 26.558594 L 31.351562 26.558594 Z M 31.351562 0 " clip-rule="nonzero"/></clipPath><clipPath id="4765849cc3"><path d="M 32.09375 0 L 57.417969 0 C 57.828125 0 58.160156 0.332031 58.160156 0.742188 L 58.160156 26.066406 C 58.160156 26.476562 57.828125 26.808594 57.417969 26.808594 L 32.09375 26.808594 C 31.683594 26.808594 31.351562 26.476562 31.351562 26.066406 L 31.351562 0.742188 C 31.351562 0.332031 31.683594 0 32.09375 0 Z M 32.09375 0 " clip-rule="nonzero"/></clipPath><clipPath id="0bd83b7563"><path d="M 62.046875 0 L 88.976562 0 L 88.976562 26.824219 L 62.046875 26.824219 Z M 62.046875 0 " clip-rule="nonzero"/></clipPath><clipPath id="9b3d43e14b"><path d="M 62.894531 0 L 88.234375 0 C 88.644531 0 88.976562 0.332031 88.976562 0.742188 L 88.976562 26.082031 C 88.976562 26.492188 88.644531 26.824219 88.234375 26.824219 L 62.894531 26.824219 C 62.484375 26.824219 62.152344 26.492188 62.152344 26.082031 L 62.152344 0.742188 C 62.152344 0.332031 62.484375 0 62.894531 0 Z M 62.894531 0 " clip-rule="nonzero"/></clipPath><clipPath id="ae27fde5b3"><path d="M 62.152344 0 L 88.710938 0 L 88.710938 26.558594 L 62.152344 26.558594 Z M 62.152344 0 " clip-rule="nonzero"/></clipPath><clipPath id="8e27703d94"><path d="M 62.894531 0 L 88.21875 0 C 88.628906 0 88.960938 0.332031 88.960938 0.742188 L 88.960938 26.066406 C 88.960938 26.476562 88.628906 26.808594 88.21875 26.808594 L 62.894531 26.808594 C 62.484375 26.808594 62.152344 26.476562 62.152344 26.066406 L 62.152344 0.742188 C 62.152344 0.332031 62.484375 0 62.894531 0 Z M 62.894531 0 " clip-rule="nonzero"/></clipPath><clipPath id="a9281ed6a3"><path d="M 0.402344 0 L 27.226562 0 L 27.226562 26.824219 L 0.402344 26.824219 Z M 0.402344 0 " clip-rule="nonzero"/></clipPath><clipPath id="974ef2696e"><path d="M 1.144531 0 L 26.484375 0 C 26.894531 0 27.226562 0.332031 27.226562 0.742188 L 27.226562 26.082031 C 27.226562 26.492188 26.894531 26.824219 26.484375 26.824219 L 1.144531 26.824219 C 0.734375 26.824219 0.402344 26.492188 0.402344 26.082031 L 0.402344 0.742188 C 0.402344 0.332031 0.734375 0 1.144531 0 Z M 1.144531 0 " clip-rule="nonzero"/></clipPath><clipPath id="18dc790d5d"><path d="M 0.402344 0 L 26.960938 0 L 26.960938 26.558594 L 0.402344 26.558594 Z M 0.402344 0 " clip-rule="nonzero"/></clipPath><clipPath id="c42df94b3f"><path d="M 1.144531 0 L 26.46875 0 C 26.878906 0 27.210938 0.332031 27.210938 0.742188 L 27.210938 26.066406 C 27.210938 26.476562 26.878906 26.808594 26.46875 26.808594 L 1.144531 26.808594 C 0.734375 26.808594 0.402344 26.476562 0.402344 26.066406 L 0.402344 0.742188 C 0.402344 0.332031 0.734375 0 1.144531 0 Z M 1.144531 0 " clip-rule="nonzero"/></clipPath><clipPath id="42b66e5429"><path d="M 38.097656 4 L 50.800781 4 L 50.800781 25.71875 L 38.097656 25.71875 Z M 38.097656 4 " clip-rule="nonzero"/></clipPath><clipPath id="d116bc4f33"><path d="M 38.097656 8 L 50.800781 8 L 50.800781 25.71875 L 38.097656 25.71875 Z M 38.097656 8 " clip-rule="nonzero"/></clipPath><clipPath id="cd617bf114"><path d="M 38.097656 15 L 50.800781 15 L 50.800781 25.71875 L 38.097656 25.71875 Z M 38.097656 15 " clip-rule="nonzero"/></clipPath></defs><g clip-path="url(#8c69debcc2)"><g clip-path="url(#48cddf5667)"><path fill="#ffd583" d="M 31.351562 0 L 58.175781 0 L 58.175781 26.824219 L 31.351562 26.824219 Z M 31.351562 0 " fill-opacity="1" fill-rule="nonzero"/></g></g><g clip-path="url(#34cbe52054)"><g clip-path="url(#4765849cc3)"><path stroke-linecap="butt" transform="matrix(1.154675, 0, 0, 1.154675, 31.351255, -0.000000991071)" fill="none" stroke-linejoin="miter" d="M 0.643034 0.000000858312 L 22.574932 0.000000858312 C 22.930146 0.000000858312 23.2177 0.287555 23.2177 0.642768 L 23.2177 22.574667 C 23.2177 22.92988 22.930146 23.217434 22.574932 23.217434 L 0.643034 23.217434 C 0.28782 23.217434 0.000266551 22.92988 0.000266551 22.574667 L 0.000266551 0.642768 C 0.000266551 0.287555 0.28782 0.000000858312 0.643034 0.000000858312 Z M 0.643034 0.000000858312 " stroke="#737373" stroke-width="1.287468" stroke-opacity="1" stroke-miterlimit="4"/></g></g><g clip-path="url(#0bd83b7563)"><g clip-path="url(#9b3d43e14b)"><path fill="#b8c26c" d="M 62.152344 0 L 88.976562 0 L 88.976562 26.824219 L 62.152344 26.824219 Z M 62.152344 0 " fill-opacity="1" fill-rule="nonzero"/></g></g><g clip-path="url(#ae27fde5b3)"><g clip-path="url(#8e27703d94)"><path stroke-linecap="butt" transform="matrix(1.154675, 0, 0, 1.154675, 62.151922, -0.000000991071)" fill="none" stroke-linejoin="miter" d="M 0.643132 0.000000858312 L 22.575031 0.000000858312 C 22.930244 0.000000858312 23.217798 0.287555 23.217798 0.642768 L 23.217798 22.574667 C 23.217798 22.92988 22.930244 23.217434 22.575031 23.217434 L 0.643132 23.217434 C 0.287919 23.217434 0.000364965 22.92988 0.000364965 22.574667 L 0.000364965 0.642768 C 0.000364965 0.287555 0.287919 0.000000858312 0.643132 0.000000858312 Z M 0.643132 0.000000858312 " stroke="#737373" stroke-width="1.287468" stroke-opacity="1" stroke-miterlimit="4"/></g></g><g clip-path="url(#a9281ed6a3)"><g clip-path="url(#974ef2696e)"><path fill="#ffffff" d="M 0.402344 0 L 27.226562 0 L 27.226562 26.824219 L 0.402344 26.824219 Z M 0.402344 0 " fill-opacity="1" fill-rule="nonzero"/></g></g><g clip-path="url(#18dc790d5d)"><g clip-path="url(#c42df94b3f)"><path stroke-linecap="butt" transform="matrix(1.154675, 0, 0, 1.154675, 0.401789, -0.000000991071)" fill="none" stroke-linejoin="miter" d="M 0.643248 0.000000858312 L 22.575146 0.000000858312 C 22.93036 0.000000858312 23.217914 0.287555 23.217914 0.642768 L 23.217914 22.574667 C 23.217914 22.92988 22.93036 23.217434 22.575146 23.217434 L 0.643248 23.217434 C 0.288034 23.217434 0.0004805 22.92988 0.0004805 22.574667 L 0.0004805 0.642768 C 0.0004805 0.287555 0.288034 0.000000858312 0.643248 0.000000858312 Z M 0.643248 0.000000858312 " stroke="#737373" stroke-width="1.287468" stroke-opacity="1" stroke-miterlimit="4"/></g></g><g clip-path="url(#42b66e5429)"><path fill="#ffffff" d="M 73.21875 21.097656 C 73.007812 21.859375 72.625 22.5625 72.191406 23.203125 C 70.984375 24.878906 69.136719 26.222656 67.273438 27.066406 C 67.097656 27.136719 66.925781 27.195312 66.738281 27.265625 C 66.445312 28.003906 66.117188 28.730469 65.660156 29.371094 C 64.921875 30.34375 63.953125 31.105469 62.863281 31.652344 C 62.628906 32.460938 62.160156 33.210938 61.621094 33.820312 C 60.359375 35.351562 58.558594 36.160156 56.765625 36.886719 C 56.308594 37.074219 55.851562 37.246094 55.410156 37.421875 C 55.292969 37.46875 55.175781 37.515625 55.058594 37.5625 C 55.023438 40.265625 53.898438 43.378906 52.144531 45.21875 C 52.132812 45.300781 51.957031 45.777344 51.523438 46.246094 C 50.9375 46.890625 50.144531 47.359375 49.3125 47.394531 C 48.539062 47.394531 47.976562 46.878906 47.496094 46.492188 C 47.125 46.515625 46.621094 46.503906 46.246094 46.515625 C 44.980469 46.527344 43.894531 46.832031 42.628906 46.597656 C 41.820312 47.042969 41.015625 47.59375 40.066406 47.628906 C 39.304688 47.628906 38.570312 47.230469 38.101562 46.644531 C 37.832031 46.328125 37.597656 45.976562 37.363281 45.628906 C 37.351562 45.617188 37.351562 45.605469 37.339844 45.59375 C 36.496094 45.148438 35.960938 44.292969 35.515625 43.484375 C 35.433594 43.34375 35.363281 43.203125 35.292969 43.0625 C 35.28125 43.050781 35.28125 43.050781 35.269531 43.039062 C 35.035156 42.714844 34.90625 42.339844 34.777344 41.964844 C 34.601562 41.566406 34.472656 41.144531 34.378906 40.699219 C 34.332031 40.5 34.285156 40.289062 34.25 40.078125 C 34.238281 40.054688 34.226562 40.03125 34.226562 40.011719 C 34.039062 39.132812 33.96875 38.347656 33.992188 37.621094 C 33.839844 37.5625 33.699219 37.492188 33.546875 37.433594 C 33.09375 37.246094 32.636719 37.074219 32.191406 36.898438 C 30.402344 36.171875 28.597656 35.363281 27.335938 33.832031 C 26.796875 33.222656 26.328125 32.472656 26.09375 31.664062 C 25.003906 31.117188 24.035156 30.355469 23.296875 29.382812 C 22.839844 28.742188 22.5 28.015625 22.21875 27.277344 C 22.046875 27.21875 21.859375 27.148438 21.683594 27.078125 C 19.808594 26.246094 17.972656 24.890625 16.765625 23.214844 C 16.324219 22.574219 15.949219 21.871094 15.738281 21.109375 C 15.621094 20.628906 15.46875 20.082031 15.691406 19.601562 C 15.832031 19.296875 16.195312 19.132812 16.511719 19.261719 C 17.128906 19.507812 17.65625 19.964844 18.3125 20.164062 C 19.492188 20.535156 20.769531 20.699219 21.976562 20.417969 C 23.929688 19.953125 25.296875 19.261719 27.394531 19.8125 C 29.371094 20.222656 30.960938 21.34375 32.34375 22.785156 C 34.261719 24.714844 35.667969 27.101562 37.679688 28.9375 C 37.902344 29.125 38.125 29.300781 38.359375 29.476562 C 39.058594 28.554688 39.75 27.617188 40.265625 26.574219 C 40.746094 25.511719 41.085938 24.375 41.296875 23.226562 C 41.578125 21.097656 41.449219 18.921875 41.039062 16.839844 C 40.792969 15.761719 40.382812 14.746094 40.089844 13.679688 C 39.761719 12.402344 39.585938 11.070312 39.703125 9.746094 C 39.726562 9.070312 39.84375 8.402344 40.089844 7.734375 C 40.898438 5.476562 42.898438 3.777344 45.402344 4.351562 C 47.101562 4.761719 48.269531 6.214844 48.785156 7.722656 C 49.664062 10.226562 49.171875 12.027344 48.28125 14.40625 C 47.671875 16.195312 47.53125 18.042969 47.554688 19.90625 C 47.460938 22.574219 48.679688 25.054688 50.199219 27.148438 C 50.609375 27.722656 51.007812 28.296875 51.40625 28.867188 C 53.371094 27.042969 54.765625 24.691406 56.660156 22.785156 C 58.042969 21.332031 59.621094 20.222656 61.609375 19.8125 C 63.695312 19.261719 65.074219 19.953125 67.027344 20.417969 C 68.246094 20.699219 69.523438 20.523438 70.691406 20.164062 C 71.335938 19.964844 71.875 19.519531 72.496094 19.261719 C 72.808594 19.132812 73.171875 19.296875 73.3125 19.601562 C 73.476562 20.058594 73.335938 20.605469 73.21875 21.097656 Z M 73.21875 21.097656 " fill-opacity="1" fill-rule="nonzero"/></g><g clip-path="url(#d116bc4f33)"><path fill="#ec7944" d="M 43.4375 52.039062 C 43.519531 52.132812 43.53125 52.273438 43.4375 52.367188 C 43.355469 52.460938 43.167969 52.484375 43.0625 52.519531 C 42.757812 52.601562 42.488281 52.753906 42.277344 52.976562 C 41.902344 53.363281 41.867188 53.949219 41.949219 54.449219 C 42.007812 54.789062 41.730469 54.976562 41.460938 54.753906 C 40.921875 54.320312 40.183594 54.320312 39.539062 54.519531 C 39.28125 54.566406 38.988281 54.8125 38.722656 54.683594 C 38.476562 54.496094 38.699219 54.214844 38.828125 54.03125 C 39 53.761719 39.164062 53.492188 39.339844 53.222656 C 39.925781 52.355469 40.523438 51.371094 40.3125 50.285156 C 40.160156 49.382812 39.902344 48.492188 39.75 47.59375 C 39.773438 47.59375 39.796875 47.59375 39.820312 47.59375 C 40.089844 47.59375 40.359375 47.570312 40.640625 47.523438 C 40.804688 48.238281 40.886719 49.054688 40.945312 49.265625 C 41.121094 49.992188 41.25 50.8125 41.808594 51.347656 C 42.160156 51.6875 42.628906 51.898438 43.121094 51.945312 C 43.214844 51.945312 43.355469 51.945312 43.4375 52.039062 Z M 51.265625 53.914062 C 51.078125 53.65625 50.890625 53.386719 50.703125 53.128906 C 50.074219 52.296875 49.429688 51.347656 49.570312 50.25 C 49.675781 49.335938 49.886719 48.4375 49.980469 47.523438 C 49.992188 47.40625 50.015625 47.277344 50.027344 47.160156 C 49.734375 47.253906 49.417969 47.3125 49.113281 47.359375 C 48.972656 48.109375 48.925781 49.042969 48.878906 49.277344 C 48.75 50.015625 48.65625 50.835938 48.128906 51.40625 C 47.789062 51.757812 47.347656 52.003906 46.867188 52.074219 C 46.761719 52.097656 46.609375 52.109375 46.539062 52.203125 C 46.46875 52.296875 46.457031 52.4375 46.550781 52.53125 C 46.644531 52.625 46.832031 52.636719 46.925781 52.660156 C 47.230469 52.730469 47.507812 52.859375 47.730469 53.070312 C 48.128906 53.433594 48.199219 54.019531 48.140625 54.519531 C 48.09375 54.859375 48.386719 55.035156 48.65625 54.789062 C 49.171875 54.320312 49.910156 54.285156 50.5625 54.449219 C 50.820312 54.484375 51.136719 54.707031 51.382812 54.566406 C 51.640625 54.355469 51.394531 54.085938 51.265625 53.914062 Z M 46.691406 11.65625 C 46.539062 11.328125 46.199219 11.152344 45.964844 10.882812 C 45.519531 10.378906 45.53125 9.6875 45.332031 9.09375 C 45.039062 8.53125 44.363281 8.578125 43.824219 8.648438 C 43.308594 8.71875 43.179688 9.300781 43.121094 9.734375 C 43.027344 10.214844 42.757812 10.636719 42.453125 11.011719 C 42.183594 11.316406 41.855469 11.644531 41.867188 12.074219 C 41.890625 12.894531 42.511719 13.515625 42.933594 14.160156 C 43.109375 14.417969 43.238281 14.722656 43.296875 15.046875 C 43.34375 15.46875 43.695312 15.785156 44.105469 15.84375 C 45.097656 16.101562 45.34375 15.046875 45.578125 14.324219 C 45.683594 14.019531 45.824219 13.714844 45.976562 13.410156 C 46.105469 13.152344 46.292969 12.871094 46.457031 12.613281 C 46.65625 12.355469 46.855469 12.003906 46.691406 11.65625 Z M 46.691406 11.65625 " fill-opacity="1" fill-rule="nonzero"/></g><path fill="#9c502c" d="M 43.929688 12.519531 C 43.941406 12.613281 43.882812 12.707031 43.800781 12.71875 C 43.71875 12.730469 43.648438 12.660156 43.636719 12.566406 C 43.613281 12.367188 43.589844 12.15625 43.53125 11.972656 C 43.4375 11.773438 43.683594 11.597656 43.789062 11.796875 C 43.882812 12.015625 43.894531 12.273438 43.929688 12.519531 Z M 44.828125 11.679688 C 44.574219 11.609375 44.574219 12.015625 44.527344 12.179688 C 44.527344 12.332031 44.386719 12.613281 44.605469 12.671875 C 44.675781 12.683594 44.769531 12.625 44.769531 12.542969 C 44.78125 12.378906 44.804688 12.214844 44.839844 12.050781 C 44.875 11.9375 44.992188 11.761719 44.828125 11.679688 Z M 44.828125 11.679688 " fill-opacity="1" fill-rule="nonzero"/><path fill="#615b5b" d="M 42.125 8.179688 C 42.277344 8.542969 41.9375 9.980469 41.378906 9.6875 C 41.203125 9.558594 41.167969 9.324219 41.167969 9.117188 C 41.167969 8.894531 41.167969 8.625 41.25 8.425781 C 41.332031 8.226562 41.472656 7.957031 41.707031 7.898438 C 41.902344 7.851562 42.042969 8.003906 42.125 8.179688 Z M 47.253906 8.988281 C 47.242188 8.765625 47.21875 8.496094 47.136719 8.296875 C 47.054688 8.097656 46.878906 7.839844 46.65625 7.804688 C 46.445312 7.769531 46.316406 7.921875 46.246094 8.109375 C 46.105469 8.484375 46.539062 9.898438 47.078125 9.570312 C 47.242188 9.417969 47.265625 9.195312 47.253906 8.988281 Z M 47.253906 8.988281 " fill-opacity="1" fill-rule="nonzero"/><g clip-path="url(#cd617bf114)"><path fill="#b3a8a8" d="M 42.675781 17.203125 C 41.773438 17.003906 40.910156 16.207031 40.605469 15.445312 C 41.179688 16.148438 41.890625 16.769531 42.675781 17.203125 Z M 47.859375 15.070312 C 47.371094 15.820312 46.773438 16.511719 46.175781 17.179688 C 46.9375 16.6875 47.578125 15.9375 47.859375 15.070312 Z M 34.589844 35.316406 C 34.425781 35.925781 34.390625 36.59375 34.179688 37.167969 C 34.355469 36.910156 34.402344 36.582031 34.496094 36.277344 C 34.601562 35.902344 34.71875 35.539062 34.835938 35.175781 C 35.410156 33.445312 36.179688 31.921875 37.351562 30.378906 C 37.574219 30.144531 37.691406 29.875 37.914062 29.652344 C 35.949219 31.269531 35.105469 33 34.589844 35.316406 Z M 54.613281 35.246094 C 54.214844 32.90625 53.453125 31.128906 51.582031 29.417969 C 51.804688 29.652344 51.898438 29.921875 52.109375 30.167969 C 53.195312 31.78125 53.886719 33.339844 54.367188 35.09375 C 54.460938 35.46875 54.554688 35.84375 54.648438 36.21875 C 54.730469 36.523438 54.765625 36.851562 54.917969 37.121094 C 54.742188 36.535156 54.753906 35.855469 54.613281 35.246094 Z M 54.613281 35.246094 " fill-opacity="1" fill-rule="nonzero"/></g></svg>