<svg xmlns="http://www.w3.org/2000/svg" xmlns:xlink="http://www.w3.org/1999/xlink" width="301" zoomAndPan="magnify" viewBox="0 0 225.75 44.999999" height="60" preserveAspectRatio="xMidYMid meet" version="1.0"><defs><g/><clipPath id="8080846143"><path d="M 0 0.0234375 L 43.753906 0.0234375 L 43.753906 43.777344 L 0 43.777344 Z M 0 0.0234375 " clip-rule="nonzero"/></clipPath><clipPath id="fa4ac1ff7b"><path d="M 0.75 0.0234375 L 43.003906 0.0234375 C 43.417969 0.0234375 43.753906 0.359375 43.753906 0.773438 L 43.753906 43.027344 C 43.753906 43.441406 43.417969 43.777344 43.003906 43.777344 L 0.75 43.777344 C 0.335938 43.777344 0 43.441406 0 43.027344 L 0 0.773438 C 0 0.359375 0.335938 0.0234375 0.75 0.0234375 Z M 0.75 0.0234375 " clip-rule="nonzero"/></clipPath><clipPath id="e6ae0bca5a"><path d="M 0 0.0234375 L 43.785156 0.0234375 L 43.785156 43.808594 L 0 43.808594 Z M 0 0.0234375 " clip-rule="nonzero"/></clipPath><clipPath id="d993ff8505"><path d="M 0.75 0.0234375 L 42.996094 0.0234375 C 43.40625 0.0234375 43.742188 0.359375 43.742188 0.773438 L 43.742188 43.019531 C 43.742188 43.433594 43.40625 43.769531 42.996094 43.769531 L 0.75 43.769531 C 0.335938 43.769531 0 43.433594 0 43.019531 L 0 0.773438 C 0 0.359375 0.335938 0.0234375 0.75 0.0234375 Z M 0.75 0.0234375 " clip-rule="nonzero"/></clipPath><clipPath id="36bc604dde"><path d="M 11.003906 6.1875 L 32.234375 6.1875 L 32.234375 42.011719 L 11.003906 42.011719 Z M 11.003906 6.1875 " clip-rule="nonzero"/></clipPath><clipPath id="4b1b06084c"><path d="M 11.003906 14 L 32.234375 14 L 32.234375 42.011719 L 11.003906 42.011719 Z M 11.003906 14 " clip-rule="nonzero"/></clipPath><clipPath id="505e02f333"><path d="M 11.003906 24 L 32.234375 24 L 32.234375 42.011719 L 11.003906 42.011719 Z M 11.003906 24 " clip-rule="nonzero"/></clipPath></defs><g clip-path="url(#8080846143)"><g clip-path="url(#fa4ac1ff7b)"><path fill="#000000" d="M 0 0.0234375 L 43.753906 0.0234375 L 43.753906 43.777344 L 0 43.777344 Z M 0 0.0234375 " fill-opacity="1" fill-rule="nonzero"/></g></g><g clip-path="url(#e6ae0bca5a)"><g clip-path="url(#d993ff8505)"><path stroke-linecap="butt" transform="matrix(1.326817, 0, 0, 1.326817, 0.000000000000012089, 0.0248889)" fill="none" stroke-linejoin="miter" d="M 0.565263 -0.00109388 L 32.405454 -0.00109388 C 32.714582 -0.00109388 32.967773 0.252097 32.967773 0.564169 L 32.967773 32.40436 C 32.967773 32.716432 32.714582 32.969623 32.405454 32.969623 L 0.565263 32.969623 C 0.253191 32.969623 -0.000000000000009111 32.716432 -0.000000000000009111 32.40436 L -0.000000000000009111 0.564169 C -0.000000000000009111 0.252097 0.253191 -0.00109388 0.565263 -0.00109388 Z M 0.565263 -0.00109388 " stroke="#737373" stroke-width="1.129275" stroke-opacity="1" stroke-miterlimit="4"/></g></g><g clip-path="url(#36bc604dde)"><path fill="#ffffff" d="M 68.28125 34.433594 C 67.9375 35.671875 67.308594 36.820312 66.601562 37.867188 C 64.636719 40.597656 61.621094 42.792969 58.585938 44.167969 C 58.300781 44.28125 58.015625 44.375 57.707031 44.492188 C 57.230469 45.691406 56.699219 46.875 55.953125 47.925781 C 54.75 49.511719 53.167969 50.75 51.390625 51.648438 C 51.011719 52.964844 50.246094 54.1875 49.367188 55.179688 C 47.308594 57.679688 44.367188 58.996094 41.449219 60.179688 C 40.703125 60.484375 39.960938 60.769531 39.234375 61.054688 C 39.042969 61.132812 38.855469 61.207031 38.664062 61.285156 C 38.605469 65.695312 36.773438 70.769531 33.910156 73.765625 C 33.890625 73.898438 33.605469 74.683594 32.898438 75.445312 C 31.945312 76.496094 30.648438 77.257812 29.292969 77.316406 C 28.03125 77.316406 27.117188 76.476562 26.335938 75.847656 C 25.722656 75.882812 24.902344 75.867188 24.292969 75.882812 C 22.230469 75.902344 20.457031 76.398438 18.394531 76.019531 C 17.078125 76.742188 15.761719 77.640625 14.214844 77.699219 C 12.976562 77.699219 11.773438 77.046875 11.007812 76.09375 C 10.570312 75.578125 10.1875 75.007812 9.808594 74.433594 C 9.789062 74.414062 9.789062 74.394531 9.769531 74.375 C 8.394531 73.652344 7.515625 72.257812 6.792969 70.941406 C 6.660156 70.710938 6.542969 70.484375 6.429688 70.253906 C 6.410156 70.234375 6.410156 70.234375 6.390625 70.214844 C 6.007812 69.683594 5.800781 69.070312 5.589844 68.460938 C 5.304688 67.8125 5.09375 67.125 4.941406 66.398438 C 4.863281 66.074219 4.789062 65.730469 4.730469 65.386719 C 4.710938 65.351562 4.691406 65.3125 4.691406 65.273438 C 4.386719 63.84375 4.273438 62.5625 4.3125 61.378906 C 4.0625 61.285156 3.832031 61.171875 3.585938 61.074219 C 2.839844 60.769531 2.097656 60.484375 1.371094 60.195312 C -1.546875 59.015625 -4.488281 57.695312 -6.546875 55.195312 C -7.425781 54.203125 -8.1875 52.984375 -8.570312 51.667969 C -10.347656 50.769531 -11.929688 49.527344 -13.132812 47.945312 C -13.875 46.894531 -14.429688 45.710938 -14.886719 44.511719 C -15.175781 44.414062 -15.480469 44.300781 -15.765625 44.183594 C -18.820312 42.832031 -21.816406 40.617188 -23.78125 37.886719 C -24.507812 36.835938 -25.117188 35.691406 -25.460938 34.453125 C -25.652344 33.667969 -25.898438 32.773438 -25.535156 31.992188 C -25.308594 31.496094 -24.714844 31.226562 -24.199219 31.4375 C -23.191406 31.835938 -22.332031 32.582031 -21.261719 32.90625 C -19.335938 33.515625 -17.253906 33.785156 -15.289062 33.328125 C -12.101562 32.5625 -9.867188 31.4375 -6.453125 32.335938 C -3.226562 33 -0.632812 34.835938 1.621094 37.179688 C 4.75 40.332031 7.039062 44.222656 10.324219 47.21875 C 10.683594 47.523438 11.046875 47.8125 11.429688 48.097656 C 12.574219 46.589844 13.699219 45.0625 14.539062 43.363281 C 15.324219 41.628906 15.875 39.777344 16.21875 37.90625 C 16.675781 34.433594 16.46875 30.882812 15.800781 27.488281 C 15.398438 25.730469 14.730469 24.070312 14.253906 22.332031 C 13.71875 20.253906 13.433594 18.078125 13.625 15.921875 C 13.664062 14.816406 13.851562 13.726562 14.253906 12.640625 C 15.570312 8.957031 18.835938 6.1875 22.917969 7.125 C 25.683594 7.792969 27.59375 10.15625 28.433594 12.621094 C 29.863281 16.703125 29.0625 19.644531 27.613281 23.515625 C 26.621094 26.4375 26.390625 29.453125 26.429688 32.488281 C 26.277344 36.835938 28.261719 40.882812 30.742188 44.300781 C 31.410156 45.234375 32.058594 46.171875 32.707031 47.105469 C 35.914062 44.128906 38.1875 40.292969 41.277344 37.179688 C 43.527344 34.816406 46.105469 33 49.351562 32.332031 C 52.746094 31.4375 55 32.5625 58.1875 33.328125 C 60.171875 33.785156 62.25 33.5 64.160156 32.90625 C 65.210938 32.582031 66.085938 31.855469 67.097656 31.4375 C 67.613281 31.226562 68.207031 31.496094 68.433594 31.992188 C 68.703125 32.734375 68.472656 33.632812 68.28125 34.433594 Z M 68.28125 34.433594 " fill-opacity="1" fill-rule="nonzero"/></g><g clip-path="url(#4b1b06084c)"><path fill="#ec7944" d="M 19.710938 84.890625 C 19.84375 85.046875 19.863281 85.273438 19.710938 85.425781 C 19.578125 85.578125 19.273438 85.617188 19.101562 85.675781 C 18.605469 85.808594 18.167969 86.054688 17.824219 86.417969 C 17.210938 87.046875 17.15625 88.003906 17.289062 88.824219 C 17.382812 89.378906 16.925781 89.683594 16.488281 89.320312 C 15.609375 88.613281 14.40625 88.613281 13.355469 88.9375 C 12.9375 89.015625 12.460938 89.414062 12.019531 89.207031 C 11.621094 88.898438 11.984375 88.441406 12.191406 88.136719 C 12.480469 87.699219 12.746094 87.257812 13.03125 86.820312 C 13.988281 85.40625 14.960938 83.804688 14.617188 82.03125 C 14.367188 80.558594 13.949219 79.109375 13.699219 77.640625 C 13.738281 77.640625 13.777344 77.640625 13.816406 77.640625 C 14.253906 77.640625 14.691406 77.601562 15.152344 77.527344 C 15.417969 78.691406 15.550781 80.027344 15.648438 80.371094 C 15.933594 81.550781 16.144531 82.886719 17.058594 83.765625 C 17.632812 84.320312 18.394531 84.664062 19.195312 84.738281 C 19.347656 84.738281 19.578125 84.738281 19.710938 84.890625 Z M 32.480469 87.945312 C 32.175781 87.527344 31.867188 87.085938 31.5625 86.667969 C 30.53125 85.3125 29.484375 83.765625 29.710938 81.972656 C 29.882812 80.484375 30.226562 79.015625 30.378906 77.527344 C 30.398438 77.335938 30.4375 77.125 30.457031 76.933594 C 29.980469 77.085938 29.464844 77.183594 28.96875 77.257812 C 28.738281 78.480469 28.664062 80.007812 28.585938 80.386719 C 28.375 81.589844 28.222656 82.925781 27.363281 83.863281 C 26.8125 84.433594 26.085938 84.835938 25.304688 84.949219 C 25.132812 84.988281 24.882812 85.007812 24.769531 85.160156 C 24.65625 85.3125 24.636719 85.542969 24.789062 85.695312 C 24.941406 85.847656 25.246094 85.867188 25.398438 85.902344 C 25.894531 86.019531 26.351562 86.226562 26.714844 86.570312 C 27.363281 87.164062 27.480469 88.117188 27.382812 88.9375 C 27.308594 89.492188 27.785156 89.777344 28.222656 89.378906 C 29.0625 88.613281 30.265625 88.554688 31.335938 88.824219 C 31.753906 88.882812 32.269531 89.242188 32.671875 89.015625 C 33.089844 88.671875 32.6875 88.230469 32.480469 87.945312 Z M 25.015625 19.03125 C 24.769531 18.496094 24.214844 18.210938 23.835938 17.773438 C 23.109375 16.953125 23.128906 15.824219 22.804688 14.851562 C 22.328125 13.9375 21.21875 14.011719 20.339844 14.128906 C 19.503906 14.242188 19.292969 15.195312 19.195312 15.902344 C 19.042969 16.683594 18.605469 17.371094 18.109375 17.984375 C 17.667969 18.480469 17.136719 19.011719 17.15625 19.71875 C 17.191406 21.054688 18.203125 22.066406 18.890625 23.117188 C 19.175781 23.535156 19.386719 24.03125 19.484375 24.566406 C 19.558594 25.253906 20.132812 25.769531 20.800781 25.863281 C 22.421875 26.285156 22.824219 24.566406 23.203125 23.382812 C 23.375 22.886719 23.605469 22.390625 23.851562 21.894531 C 24.0625 21.476562 24.367188 21.015625 24.636719 20.597656 C 24.960938 20.175781 25.285156 19.605469 25.015625 19.03125 Z M 25.015625 19.03125 " fill-opacity="1" fill-rule="nonzero"/></g><path fill="#9c502c" d="M 20.511719 20.445312 C 20.53125 20.597656 20.4375 20.75 20.304688 20.769531 C 20.171875 20.789062 20.054688 20.671875 20.035156 20.519531 C 20 20.195312 19.960938 19.851562 19.863281 19.546875 C 19.710938 19.222656 20.113281 18.9375 20.285156 19.261719 C 20.4375 19.625 20.457031 20.042969 20.511719 20.445312 Z M 21.984375 19.070312 C 21.5625 18.957031 21.5625 19.625 21.488281 19.890625 C 21.488281 20.140625 21.257812 20.597656 21.621094 20.691406 C 21.734375 20.710938 21.886719 20.617188 21.886719 20.484375 C 21.90625 20.214844 21.945312 19.949219 22.003906 19.679688 C 22.058594 19.488281 22.25 19.203125 21.984375 19.070312 Z M 21.984375 19.070312 " fill-opacity="1" fill-rule="nonzero"/><path fill="#615b5b" d="M 17.574219 13.363281 C 17.824219 13.957031 17.269531 16.304688 16.351562 15.824219 C 16.066406 15.617188 16.007812 15.234375 16.007812 14.890625 C 16.007812 14.527344 16.007812 14.089844 16.144531 13.765625 C 16.277344 13.441406 16.503906 13 16.886719 12.90625 C 17.210938 12.828125 17.441406 13.078125 17.574219 13.363281 Z M 25.933594 14.679688 C 25.914062 14.320312 25.875 13.878906 25.742188 13.554688 C 25.609375 13.230469 25.324219 12.8125 24.960938 12.753906 C 24.617188 12.695312 24.40625 12.945312 24.292969 13.25 C 24.0625 13.859375 24.769531 16.167969 25.648438 15.636719 C 25.914062 15.386719 25.953125 15.023438 25.933594 14.679688 Z M 25.933594 14.679688 " fill-opacity="1" fill-rule="nonzero"/><g clip-path="url(#505e02f333)"><path fill="#b3a8a8" d="M 18.472656 28.078125 C 17 27.753906 15.589844 26.457031 15.09375 25.214844 C 16.027344 26.359375 17.191406 27.371094 18.472656 28.078125 Z M 26.925781 24.605469 C 26.125 25.828125 25.152344 26.953125 24.175781 28.039062 C 25.417969 27.238281 26.46875 26.015625 26.925781 24.605469 Z M 5.285156 57.621094 C 5.015625 58.613281 4.960938 59.699219 4.617188 60.636719 C 4.902344 60.214844 4.980469 59.683594 5.132812 59.1875 C 5.304688 58.574219 5.492188 57.984375 5.683594 57.390625 C 6.621094 54.566406 7.878906 52.085938 9.789062 49.566406 C 10.152344 49.183594 10.339844 48.746094 10.703125 48.382812 C 7.496094 51.015625 6.125 53.84375 5.285156 57.621094 Z M 37.9375 57.507812 C 37.289062 53.6875 36.046875 50.789062 32.996094 48.003906 C 33.355469 48.382812 33.511719 48.824219 33.851562 49.222656 C 35.628906 51.855469 36.753906 54.394531 37.535156 57.257812 C 37.6875 57.867188 37.84375 58.480469 37.996094 59.089844 C 38.128906 59.585938 38.1875 60.121094 38.433594 60.558594 C 38.148438 59.605469 38.167969 58.5 37.9375 57.507812 Z M 37.9375 57.507812 " fill-opacity="1" fill-rule="nonzero"/></g><g fill="#000000" fill-opacity="1"><g transform="translate(56.566018, 29.797407)"><g><path d="M 23.046875 -17.703125 L 26.984375 -17.703125 L 22 0 L 17.296875 0 L 13.65625 -11.90625 L 10.015625 0 L 5.375 0 L 0.375 -17.703125 L 4.3125 -17.703125 L 7.8125 -4.3125 L 11.828125 -17.703125 L 15.484375 -17.703125 L 19.53125 -4.21875 Z M 23.046875 -17.703125 "/></g></g></g><g fill="#000000" fill-opacity="1"><g transform="translate(83.981312, 29.797407)"><g><path d="M 7.21875 -12.734375 C 8.101562 -12.734375 8.9375 -12.5625 9.71875 -12.21875 C 10.5 -11.875 11.179688 -11.40625 11.765625 -10.8125 C 12.347656 -10.226562 12.804688 -9.539062 13.140625 -8.75 C 13.484375 -7.957031 13.65625 -7.113281 13.65625 -6.21875 C 13.65625 -5.320312 13.484375 -4.476562 13.140625 -3.6875 C 12.804688 -2.894531 12.347656 -2.203125 11.765625 -1.609375 C 11.179688 -1.015625 10.5 -0.546875 9.71875 -0.203125 C 8.9375 0.128906 8.101562 0.296875 7.21875 0.296875 C 6.320312 0.296875 5.476562 0.128906 4.6875 -0.203125 C 3.90625 -0.546875 3.222656 -1.015625 2.640625 -1.609375 C 2.054688 -2.203125 1.59375 -2.894531 1.25 -3.6875 C 0.914062 -4.476562 0.75 -5.320312 0.75 -6.21875 C 0.75 -7.113281 0.914062 -7.957031 1.25 -8.75 C 1.59375 -9.539062 2.054688 -10.226562 2.640625 -10.8125 C 3.222656 -11.40625 3.90625 -11.875 4.6875 -12.21875 C 5.476562 -12.5625 6.320312 -12.734375 7.21875 -12.734375 Z M 7.21875 -2.71875 C 7.632812 -2.71875 8.019531 -2.800781 8.375 -2.96875 C 8.726562 -3.132812 9.039062 -3.363281 9.3125 -3.65625 C 9.59375 -3.945312 9.8125 -4.296875 9.96875 -4.703125 C 10.132812 -5.109375 10.21875 -5.5625 10.21875 -6.0625 C 10.21875 -6.5625 10.132812 -7.023438 9.96875 -7.453125 C 9.8125 -7.890625 9.59375 -8.269531 9.3125 -8.59375 C 9.039062 -8.925781 8.726562 -9.1875 8.375 -9.375 C 8.019531 -9.5625 7.632812 -9.65625 7.21875 -9.65625 C 6.800781 -9.65625 6.410156 -9.5625 6.046875 -9.375 C 5.679688 -9.1875 5.359375 -8.925781 5.078125 -8.59375 C 4.804688 -8.269531 4.585938 -7.890625 4.421875 -7.453125 C 4.265625 -7.023438 4.1875 -6.5625 4.1875 -6.0625 C 4.1875 -5.5625 4.265625 -5.109375 4.421875 -4.703125 C 4.585938 -4.296875 4.804688 -3.945312 5.078125 -3.65625 C 5.359375 -3.363281 5.679688 -3.132812 6.046875 -2.96875 C 6.410156 -2.800781 6.800781 -2.71875 7.21875 -2.71875 Z M 7.21875 -2.71875 "/></g></g></g><g fill="#000000" fill-opacity="1"><g transform="translate(98.313173, 29.797407)"><g><path d="M 4.515625 -10.65625 C 4.679688 -10.925781 4.875 -11.179688 5.09375 -11.421875 C 5.3125 -11.660156 5.566406 -11.875 5.859375 -12.0625 C 6.160156 -12.257812 6.503906 -12.414062 6.890625 -12.53125 C 7.273438 -12.644531 7.707031 -12.703125 8.1875 -12.703125 C 8.75 -12.703125 9.40625 -12.601562 10.15625 -12.40625 L 9.84375 -9.34375 C 9.65625 -9.375 9.46875 -9.414062 9.28125 -9.46875 C 9.132812 -9.5 8.96875 -9.523438 8.78125 -9.546875 C 8.601562 -9.578125 8.441406 -9.59375 8.296875 -9.59375 C 7.753906 -9.59375 7.253906 -9.515625 6.796875 -9.359375 C 6.347656 -9.210938 5.957031 -9.003906 5.625 -8.734375 C 5.289062 -8.472656 5.019531 -8.15625 4.8125 -7.78125 C 4.613281 -7.40625 4.515625 -7 4.515625 -6.5625 L 4.515625 0 L 1.078125 0 L 1.078125 -12.390625 L 4.1875 -12.390625 Z M 4.515625 -10.65625 "/></g></g></g><g fill="#000000" fill-opacity="1"><g transform="translate(108.600147, 29.797407)"><g><path d="M 13.609375 -18.234375 L 13.609375 0 L 10.65625 0 L 10.15625 -1.078125 C 9.78125 -0.671875 9.253906 -0.335938 8.578125 -0.078125 C 7.898438 0.171875 7.195312 0.296875 6.46875 0.296875 C 5.582031 0.296875 4.765625 0.128906 4.015625 -0.203125 C 3.265625 -0.546875 2.617188 -1.015625 2.078125 -1.609375 C 1.535156 -2.203125 1.109375 -2.894531 0.796875 -3.6875 C 0.492188 -4.476562 0.34375 -5.320312 0.34375 -6.21875 C 0.34375 -7.113281 0.492188 -7.957031 0.796875 -8.75 C 1.109375 -9.539062 1.535156 -10.226562 2.078125 -10.8125 C 2.617188 -11.40625 3.265625 -11.875 4.015625 -12.21875 C 4.765625 -12.5625 5.582031 -12.734375 6.46875 -12.734375 C 7.25 -12.734375 7.941406 -12.640625 8.546875 -12.453125 C 9.160156 -12.273438 9.695312 -11.96875 10.15625 -11.53125 L 10.15625 -18.234375 Z M 10.15625 -6.171875 C 10.15625 -6.816406 10.070312 -7.359375 9.90625 -7.796875 C 9.738281 -8.242188 9.503906 -8.601562 9.203125 -8.875 C 8.910156 -9.144531 8.566406 -9.34375 8.171875 -9.46875 C 7.785156 -9.59375 7.367188 -9.65625 6.921875 -9.65625 C 6.472656 -9.65625 6.050781 -9.5625 5.65625 -9.375 C 5.257812 -9.195312 4.914062 -8.953125 4.625 -8.640625 C 4.332031 -8.335938 4.101562 -7.972656 3.9375 -7.546875 C 3.78125 -7.128906 3.703125 -6.6875 3.703125 -6.21875 C 3.703125 -5.738281 3.78125 -5.289062 3.9375 -4.875 C 4.101562 -4.457031 4.332031 -4.09375 4.625 -3.78125 C 4.914062 -3.476562 5.257812 -3.234375 5.65625 -3.046875 C 6.050781 -2.859375 6.472656 -2.765625 6.921875 -2.765625 C 7.816406 -2.765625 8.578125 -3.039062 9.203125 -3.59375 C 9.828125 -4.15625 10.144531 -5.015625 10.15625 -6.171875 Z M 10.15625 -6.171875 "/></g></g></g><g fill="#000000" fill-opacity="1"><g transform="translate(123.331502, 29.797407)"><g><path d="M 10.6875 -12.390625 L 14.453125 -12.390625 L 6.640625 4.9375 L 2.875 4.9375 L 5.9375 -1.875 L 0.703125 -12.390625 L 4.546875 -12.390625 L 7.765625 -5.921875 Z M 10.6875 -12.390625 "/></g></g></g><g fill="#000000" fill-opacity="1"><g transform="translate(138.087823, 29.797407)"><g><path d="M 8.546875 -5.6875 L 1.203125 -5.6875 L 1.203125 -8.046875 L 8.546875 -8.046875 Z M 8.546875 -5.6875 "/></g></g></g><g fill="#000000" fill-opacity="1"><g transform="translate(147.800527, 29.797407)"><g><path d="M 10.890625 -12.390625 L 14.609375 -12.390625 L 9.609375 0 L 5.171875 0 L 0.171875 -12.390625 L 3.875 -12.390625 L 7.390625 -3.21875 Z M 10.890625 -12.390625 "/></g></g></g><g fill="#000000" fill-opacity="1"><g transform="translate(162.631747, 29.797407)"><g><path d="M 7.234375 -12.734375 C 8.171875 -12.734375 9.019531 -12.546875 9.78125 -12.171875 C 10.550781 -11.796875 11.207031 -11.300781 11.75 -10.6875 C 12.300781 -10.082031 12.726562 -9.382812 13.03125 -8.59375 C 13.332031 -7.8125 13.484375 -7.003906 13.484375 -6.171875 C 13.484375 -5.671875 13.414062 -5.132812 13.28125 -4.5625 L 4.4375 -4.5625 C 4.769531 -4 5.242188 -3.519531 5.859375 -3.125 C 6.484375 -2.738281 7.148438 -2.546875 7.859375 -2.546875 C 8.578125 -2.546875 9.207031 -2.601562 9.75 -2.71875 C 10.289062 -2.832031 10.800781 -2.984375 11.28125 -3.171875 L 12.4375 -1.046875 C 11.820312 -0.617188 11.117188 -0.285156 10.328125 -0.046875 C 9.535156 0.179688 8.691406 0.296875 7.796875 0.296875 C 6.804688 0.296875 5.882812 0.128906 5.03125 -0.203125 C 4.1875 -0.546875 3.445312 -1.007812 2.8125 -1.59375 C 2.1875 -2.175781 1.691406 -2.867188 1.328125 -3.671875 C 0.960938 -4.472656 0.78125 -5.320312 0.78125 -6.21875 C 0.78125 -7.101562 0.941406 -7.9375 1.265625 -8.71875 C 1.597656 -9.507812 2.0625 -10.203125 2.65625 -10.796875 C 3.25 -11.390625 3.9375 -11.859375 4.71875 -12.203125 C 5.5 -12.554688 6.335938 -12.734375 7.234375 -12.734375 Z M 10.0625 -7.234375 C 9.863281 -7.953125 9.503906 -8.535156 8.984375 -8.984375 C 8.472656 -9.429688 7.890625 -9.65625 7.234375 -9.65625 C 6.578125 -9.65625 5.976562 -9.429688 5.4375 -8.984375 C 4.894531 -8.535156 4.519531 -7.953125 4.3125 -7.234375 Z M 10.0625 -7.234375 "/></g></g></g><g fill="#000000" fill-opacity="1"><g transform="translate(177.487945, 29.797407)"><g><path d="M 4.515625 -10.65625 C 4.679688 -10.925781 4.875 -11.179688 5.09375 -11.421875 C 5.3125 -11.660156 5.566406 -11.875 5.859375 -12.0625 C 6.160156 -12.257812 6.503906 -12.414062 6.890625 -12.53125 C 7.273438 -12.644531 7.707031 -12.703125 8.1875 -12.703125 C 8.75 -12.703125 9.40625 -12.601562 10.15625 -12.40625 L 9.84375 -9.34375 C 9.65625 -9.375 9.46875 -9.414062 9.28125 -9.46875 C 9.132812 -9.5 8.96875 -9.523438 8.78125 -9.546875 C 8.601562 -9.578125 8.441406 -9.59375 8.296875 -9.59375 C 7.753906 -9.59375 7.253906 -9.515625 6.796875 -9.359375 C 6.347656 -9.210938 5.957031 -9.003906 5.625 -8.734375 C 5.289062 -8.472656 5.019531 -8.15625 4.8125 -7.78125 C 4.613281 -7.40625 4.515625 -7 4.515625 -6.5625 L 4.515625 0 L 1.078125 0 L 1.078125 -12.390625 L 4.1875 -12.390625 Z M 4.515625 -10.65625 "/></g></g></g><g fill="#000000" fill-opacity="1"><g transform="translate(187.774919, 29.797407)"><g><path d="M 8.984375 -6.484375 C 9.898438 -5.835938 10.359375 -4.914062 10.359375 -3.71875 C 10.359375 -3.164062 10.226562 -2.648438 9.96875 -2.171875 C 9.71875 -1.691406 9.363281 -1.265625 8.90625 -0.890625 C 8.457031 -0.523438 7.929688 -0.238281 7.328125 -0.03125 C 6.734375 0.175781 6.097656 0.28125 5.421875 0.28125 C 4.898438 0.28125 4.394531 0.210938 3.90625 0.078125 C 3.414062 -0.0546875 2.960938 -0.238281 2.546875 -0.46875 C 2.128906 -0.707031 1.765625 -0.988281 1.453125 -1.3125 C 1.148438 -1.632812 0.925781 -1.992188 0.78125 -2.390625 C 1.15625 -2.578125 1.578125 -2.78125 2.046875 -3 C 2.515625 -3.226562 2.921875 -3.4375 3.265625 -3.625 C 3.421875 -3.375 3.65625 -3.144531 3.96875 -2.9375 C 4.28125 -2.726562 4.710938 -2.625 5.265625 -2.625 C 5.835938 -2.625 6.253906 -2.753906 6.515625 -3.015625 C 6.785156 -3.285156 6.921875 -3.535156 6.921875 -3.765625 C 6.921875 -3.929688 6.828125 -4.082031 6.640625 -4.21875 C 6.453125 -4.363281 6.242188 -4.476562 6.015625 -4.5625 C 5.679688 -4.695312 5.40625 -4.769531 5.1875 -4.78125 C 4.976562 -4.789062 4.726562 -4.835938 4.4375 -4.921875 C 3.539062 -5.140625 2.851562 -5.425781 2.375 -5.78125 C 1.90625 -6.132812 1.5625 -6.492188 1.34375 -6.859375 C 1.132812 -7.234375 1.015625 -7.585938 0.984375 -7.921875 C 0.960938 -8.253906 0.953125 -8.519531 0.953125 -8.71875 C 0.953125 -9.25 1.066406 -9.753906 1.296875 -10.234375 C 1.523438 -10.722656 1.84375 -11.144531 2.25 -11.5 C 2.664062 -11.851562 3.144531 -12.140625 3.6875 -12.359375 C 4.226562 -12.578125 4.804688 -12.6875 5.421875 -12.6875 C 5.929688 -12.6875 6.421875 -12.609375 6.890625 -12.453125 C 7.359375 -12.304688 7.78125 -12.097656 8.15625 -11.828125 C 8.539062 -11.566406 8.867188 -11.253906 9.140625 -10.890625 C 9.421875 -10.523438 9.628906 -10.113281 9.765625 -9.65625 L 7.09375 -8.765625 C 6.988281 -9.066406 6.78125 -9.304688 6.46875 -9.484375 C 6.164062 -9.671875 5.84375 -9.765625 5.5 -9.765625 C 5.144531 -9.765625 4.859375 -9.644531 4.640625 -9.40625 C 4.421875 -9.175781 4.3125 -8.945312 4.3125 -8.71875 C 4.3125 -8.4375 4.414062 -8.210938 4.625 -8.046875 C 4.832031 -7.890625 5.0625 -7.78125 5.3125 -7.71875 C 5.5 -7.6875 5.679688 -7.65625 5.859375 -7.625 C 6.035156 -7.601562 6.203125 -7.578125 6.359375 -7.546875 C 6.941406 -7.410156 7.445312 -7.257812 7.875 -7.09375 C 8.300781 -6.925781 8.671875 -6.722656 8.984375 -6.484375 Z M 8.984375 -6.484375 "/></g></g></g><g fill="#000000" fill-opacity="1"><g transform="translate(198.835915, 29.797407)"><g><path d="M 7.234375 -12.734375 C 8.171875 -12.734375 9.019531 -12.546875 9.78125 -12.171875 C 10.550781 -11.796875 11.207031 -11.300781 11.75 -10.6875 C 12.300781 -10.082031 12.726562 -9.382812 13.03125 -8.59375 C 13.332031 -7.8125 13.484375 -7.003906 13.484375 -6.171875 C 13.484375 -5.671875 13.414062 -5.132812 13.28125 -4.5625 L 4.4375 -4.5625 C 4.769531 -4 5.242188 -3.519531 5.859375 -3.125 C 6.484375 -2.738281 7.148438 -2.546875 7.859375 -2.546875 C 8.578125 -2.546875 9.207031 -2.601562 9.75 -2.71875 C 10.289062 -2.832031 10.800781 -2.984375 11.28125 -3.171875 L 12.4375 -1.046875 C 11.820312 -0.617188 11.117188 -0.285156 10.328125 -0.046875 C 9.535156 0.179688 8.691406 0.296875 7.796875 0.296875 C 6.804688 0.296875 5.882812 0.128906 5.03125 -0.203125 C 4.1875 -0.546875 3.445312 -1.007812 2.8125 -1.59375 C 2.1875 -2.175781 1.691406 -2.867188 1.328125 -3.671875 C 0.960938 -4.472656 0.78125 -5.320312 0.78125 -6.21875 C 0.78125 -7.101562 0.941406 -7.9375 1.265625 -8.71875 C 1.597656 -9.507812 2.0625 -10.203125 2.65625 -10.796875 C 3.25 -11.390625 3.9375 -11.859375 4.71875 -12.203125 C 5.5 -12.554688 6.335938 -12.734375 7.234375 -12.734375 Z M 10.0625 -7.234375 C 9.863281 -7.953125 9.503906 -8.535156 8.984375 -8.984375 C 8.472656 -9.429688 7.890625 -9.65625 7.234375 -9.65625 C 6.578125 -9.65625 5.976562 -9.429688 5.4375 -8.984375 C 4.894531 -8.535156 4.519531 -7.953125 4.3125 -7.234375 Z M 10.0625 -7.234375 "/></g></g></g></svg>