<svg xmlns="http://www.w3.org/2000/svg" xmlns:xlink="http://www.w3.org/1999/xlink" width="31" zoomAndPan="magnify" viewBox="0 0 23.25 59.249998" height="79" preserveAspectRatio="xMidYMid meet" version="1.0"><defs><clipPath id="613800774e"><path d="M 0 19 L 22.523438 19 L 22.523438 56.964844 L 0 56.964844 Z M 0 19 " clip-rule="nonzero"/></clipPath><clipPath id="eb479fdab3"><path d="M 0 26 L 22.523438 26 L 22.523438 56.964844 L 0 56.964844 Z M 0 26 " clip-rule="nonzero"/></clipPath><clipPath id="1b95b5c045"><path d="M 0 38 L 22.523438 38 L 22.523438 56.964844 L 0 56.964844 Z M 0 38 " clip-rule="nonzero"/></clipPath><clipPath id="670ad2141a"><path d="M 5 6 L 17 6 L 17 23 L 5 23 Z M 5 6 " clip-rule="nonzero"/></clipPath><clipPath id="6addf0596c"><path d="M 7.335938 0.5625 L 20.777344 3.695312 L 15.832031 24.921875 L 2.390625 21.792969 Z M 7.335938 0.5625 " clip-rule="nonzero"/></clipPath><clipPath id="7790e1c1bd"><path d="M 7.335938 0.5625 L 20.777344 3.695312 L 15.832031 24.921875 L 2.390625 21.792969 Z M 7.335938 0.5625 " clip-rule="nonzero"/></clipPath><clipPath id="ae5acdfc23"><path d="M 4 9 L 16 9 L 16 23 L 4 23 Z M 4 9 " clip-rule="nonzero"/></clipPath><clipPath id="0d938fe516"><path d="M 7.335938 0.5625 L 20.777344 3.695312 L 15.832031 24.921875 L 2.390625 21.792969 Z M 7.335938 0.5625 " clip-rule="nonzero"/></clipPath><clipPath id="cde00b4d5f"><path d="M 7.335938 0.5625 L 20.777344 3.695312 L 15.832031 24.921875 L 2.390625 21.792969 Z M 7.335938 0.5625 " clip-rule="nonzero"/></clipPath><clipPath id="4401e44ef6"><path d="M 6 1 L 13 1 L 13 7 L 6 7 Z M 6 1 " clip-rule="nonzero"/></clipPath><clipPath id="353240807d"><path d="M 7.335938 0.5625 L 20.777344 3.695312 L 15.832031 24.921875 L 2.390625 21.792969 Z M 7.335938 0.5625 " clip-rule="nonzero"/></clipPath><clipPath id="ac66a9d701"><path d="M 7.335938 0.5625 L 20.777344 3.695312 L 15.832031 24.921875 L 2.390625 21.792969 Z M 7.335938 0.5625 " clip-rule="nonzero"/></clipPath><clipPath id="5d2e411a1b"><path d="M 4 1 L 17 1 L 17 24 L 4 24 Z M 4 1 " clip-rule="nonzero"/></clipPath><clipPath id="f2333c7a5f"><path d="M 7.335938 0.5625 L 20.777344 3.695312 L 15.832031 24.921875 L 2.390625 21.792969 Z M 7.335938 0.5625 " clip-rule="nonzero"/></clipPath><clipPath id="c025b3b236"><path d="M 7.335938 0.5625 L 20.777344 3.695312 L 15.832031 24.921875 L 2.390625 21.792969 Z M 7.335938 0.5625 " clip-rule="nonzero"/></clipPath></defs><g clip-path="url(#613800774e)"><path fill="#ffffff" d="M 62.03125 49.046875 C 61.65625 50.390625 60.976562 51.628906 60.210938 52.765625 C 58.082031 55.722656 54.816406 58.097656 51.53125 59.585938 C 51.21875 59.710938 50.910156 59.816406 50.578125 59.9375 C 50.0625 61.242188 49.484375 62.523438 48.679688 63.660156 C 47.375 65.375 45.660156 66.71875 43.738281 67.6875 C 43.324219 69.117188 42.5 70.4375 41.546875 71.511719 C 39.316406 74.21875 36.132812 75.644531 32.96875 76.929688 C 32.164062 77.257812 31.359375 77.570312 30.574219 77.878906 C 30.367188 77.960938 30.160156 78.042969 29.953125 78.125 C 29.890625 82.902344 27.90625 88.398438 24.804688 91.644531 C 24.785156 91.789062 24.476562 92.636719 23.710938 93.460938 C 22.679688 94.597656 21.273438 95.425781 19.804688 95.488281 C 18.441406 95.488281 17.449219 94.578125 16.601562 93.894531 C 15.941406 93.9375 15.050781 93.917969 14.390625 93.9375 C 12.15625 93.957031 10.234375 94.496094 8.003906 94.082031 C 6.578125 94.867188 5.152344 95.839844 3.476562 95.902344 C 2.132812 95.902344 0.832031 95.199219 0.00390625 94.164062 C -0.46875 93.605469 -0.882812 92.988281 -1.296875 92.367188 C -1.316406 92.347656 -1.316406 92.324219 -1.339844 92.304688 C -2.828125 91.519531 -3.777344 90.011719 -4.5625 88.585938 C -4.707031 88.335938 -4.832031 88.089844 -4.957031 87.839844 C -4.976562 87.820312 -4.976562 87.820312 -4.996094 87.800781 C -5.410156 87.21875 -5.636719 86.558594 -5.863281 85.898438 C -6.175781 85.195312 -6.402344 84.449219 -6.566406 83.664062 C -6.648438 83.3125 -6.734375 82.941406 -6.792969 82.570312 C -6.816406 82.527344 -6.835938 82.488281 -6.835938 82.445312 C -7.167969 80.894531 -7.289062 79.511719 -7.25 78.230469 C -7.519531 78.125 -7.765625 78.003906 -8.035156 77.898438 C -8.839844 77.570312 -9.648438 77.257812 -10.433594 76.949219 C -13.59375 75.667969 -16.777344 74.242188 -19.007812 71.535156 C -19.960938 70.457031 -20.785156 69.136719 -21.199219 67.710938 C -23.121094 66.738281 -24.835938 65.394531 -26.140625 63.679688 C -26.945312 62.542969 -27.546875 61.261719 -28.042969 59.960938 C -28.351562 59.855469 -28.683594 59.730469 -28.992188 59.609375 C -32.296875 58.140625 -35.542969 55.742188 -37.671875 52.789062 C -38.457031 51.652344 -39.117188 50.410156 -39.492188 49.066406 C -39.699219 48.21875 -39.964844 47.25 -39.574219 46.402344 C -39.324219 45.863281 -38.683594 45.574219 -38.128906 45.800781 C -37.03125 46.234375 -36.101562 47.042969 -34.945312 47.394531 C -32.855469 48.054688 -30.605469 48.34375 -28.476562 47.847656 C -25.023438 47.019531 -22.605469 45.800781 -18.90625 46.773438 C -15.414062 47.496094 -12.601562 49.480469 -10.164062 52.023438 C -6.773438 55.433594 -4.292969 59.648438 -0.738281 62.894531 C -0.347656 63.226562 0.046875 63.535156 0.460938 63.84375 C 1.699219 62.210938 2.917969 60.558594 3.828125 58.71875 C 4.675781 56.839844 5.277344 54.832031 5.648438 52.808594 C 6.144531 49.046875 5.917969 45.203125 5.191406 41.523438 C 4.757812 39.621094 4.035156 37.824219 3.519531 35.945312 C 2.941406 33.691406 2.628906 31.335938 2.835938 29 C 2.878906 27.800781 3.085938 26.621094 3.519531 25.445312 C 4.945312 21.457031 8.480469 18.457031 12.902344 19.472656 C 15.898438 20.195312 17.964844 22.757812 18.875 25.421875 C 20.425781 29.847656 19.558594 33.027344 17.984375 37.226562 C 16.910156 40.386719 16.664062 43.652344 16.703125 46.9375 C 16.539062 51.652344 18.6875 56.03125 21.375 59.730469 C 22.097656 60.746094 22.800781 61.757812 23.503906 62.769531 C 26.976562 59.546875 29.4375 55.390625 32.785156 52.023438 C 35.222656 49.460938 38.011719 47.496094 41.527344 46.773438 C 45.207031 45.800781 47.644531 47.019531 51.097656 47.847656 C 53.246094 48.34375 55.5 48.035156 57.566406 47.394531 C 58.703125 47.042969 59.652344 46.257812 60.746094 45.800781 C 61.304688 45.574219 61.945312 45.863281 62.195312 46.402344 C 62.484375 47.207031 62.234375 48.179688 62.03125 49.046875 Z M 62.03125 49.046875 " fill-opacity="1" fill-rule="nonzero"/></g><g clip-path="url(#eb479fdab3)"><path fill="#ec7944" d="M 9.429688 103.691406 C 9.574219 103.859375 9.59375 104.105469 9.429688 104.269531 C 9.285156 104.4375 8.953125 104.476562 8.769531 104.539062 C 8.230469 104.683594 7.753906 104.953125 7.382812 105.347656 C 6.722656 106.027344 6.660156 107.0625 6.804688 107.949219 C 6.910156 108.550781 6.414062 108.878906 5.9375 108.488281 C 4.984375 107.722656 3.683594 107.722656 2.546875 108.074219 C 2.09375 108.15625 1.574219 108.589844 1.101562 108.363281 C 0.667969 108.03125 1.058594 107.535156 1.285156 107.207031 C 1.597656 106.730469 1.886719 106.253906 2.195312 105.78125 C 3.230469 104.25 4.285156 102.515625 3.910156 100.59375 C 3.644531 99 3.1875 97.429688 2.917969 95.839844 C 2.960938 95.839844 3.003906 95.839844 3.042969 95.839844 C 3.519531 95.839844 3.992188 95.796875 4.488281 95.714844 C 4.78125 96.976562 4.925781 98.421875 5.027344 98.792969 C 5.335938 100.074219 5.566406 101.523438 6.558594 102.472656 C 7.175781 103.074219 8.003906 103.445312 8.871094 103.527344 C 9.035156 103.527344 9.285156 103.527344 9.429688 103.691406 Z M 23.257812 107 C 22.925781 106.542969 22.59375 106.070312 22.265625 105.613281 C 21.148438 104.148438 20.011719 102.472656 20.257812 100.53125 C 20.445312 98.917969 20.816406 97.328125 20.984375 95.714844 C 21.003906 95.507812 21.046875 95.28125 21.066406 95.074219 C 20.550781 95.238281 19.992188 95.34375 19.453125 95.425781 C 19.207031 96.75 19.121094 98.402344 19.039062 98.816406 C 18.8125 100.117188 18.648438 101.5625 17.71875 102.578125 C 17.117188 103.195312 16.332031 103.628906 15.484375 103.753906 C 15.300781 103.796875 15.03125 103.816406 14.90625 103.980469 C 14.78125 104.148438 14.761719 104.394531 14.925781 104.5625 C 15.09375 104.726562 15.421875 104.746094 15.589844 104.789062 C 16.125 104.910156 16.621094 105.140625 17.015625 105.511719 C 17.71875 106.152344 17.839844 107.183594 17.738281 108.074219 C 17.65625 108.671875 18.171875 108.984375 18.648438 108.550781 C 19.558594 107.722656 20.859375 107.660156 22.015625 107.949219 C 22.472656 108.011719 23.027344 108.40625 23.464844 108.15625 C 23.917969 107.785156 23.484375 107.308594 23.257812 107 Z M 15.175781 32.367188 C 14.90625 31.789062 14.308594 31.480469 13.894531 31.003906 C 13.109375 30.113281 13.128906 28.894531 12.777344 27.839844 C 12.261719 26.847656 11.0625 26.933594 10.113281 27.054688 C 9.203125 27.179688 8.976562 28.214844 8.871094 28.976562 C 8.707031 29.824219 8.230469 30.570312 7.695312 31.230469 C 7.21875 31.769531 6.640625 32.347656 6.660156 33.113281 C 6.703125 34.558594 7.796875 35.652344 8.539062 36.789062 C 8.851562 37.246094 9.078125 37.78125 9.183594 38.363281 C 9.265625 39.105469 9.882812 39.664062 10.609375 39.765625 C 12.363281 40.222656 12.796875 38.363281 13.210938 37.082031 C 13.398438 36.542969 13.644531 36.003906 13.914062 35.46875 C 14.140625 35.011719 14.472656 34.515625 14.761719 34.0625 C 15.113281 33.609375 15.464844 32.988281 15.175781 32.367188 Z M 15.175781 32.367188 " fill-opacity="1" fill-rule="nonzero"/></g><path fill="#9c502c" d="M 10.296875 33.898438 C 10.320312 34.0625 10.214844 34.226562 10.070312 34.25 C 9.925781 34.269531 9.800781 34.144531 9.78125 33.980469 C 9.738281 33.628906 9.699219 33.257812 9.59375 32.925781 C 9.429688 32.574219 9.863281 32.265625 10.050781 32.617188 C 10.214844 33.007812 10.234375 33.464844 10.296875 33.898438 Z M 11.890625 32.410156 C 11.433594 32.285156 11.433594 33.007812 11.351562 33.296875 C 11.351562 33.566406 11.105469 34.0625 11.496094 34.164062 C 11.621094 34.1875 11.785156 34.082031 11.785156 33.9375 C 11.804688 33.648438 11.847656 33.359375 11.910156 33.070312 C 11.972656 32.863281 12.179688 32.554688 11.890625 32.410156 Z M 11.890625 32.410156 " fill-opacity="1" fill-rule="nonzero"/><path fill="#615b5b" d="M 7.113281 26.230469 C 7.382812 26.871094 6.785156 29.414062 5.792969 28.894531 C 5.480469 28.667969 5.421875 28.253906 5.421875 27.882812 C 5.421875 27.492188 5.421875 27.015625 5.566406 26.664062 C 5.710938 26.3125 5.957031 25.835938 6.371094 25.734375 C 6.722656 25.652344 6.96875 25.917969 7.113281 26.230469 Z M 16.167969 27.65625 C 16.148438 27.261719 16.105469 26.789062 15.960938 26.4375 C 15.816406 26.085938 15.507812 25.628906 15.113281 25.566406 C 14.742188 25.507812 14.515625 25.773438 14.390625 26.105469 C 14.140625 26.765625 14.90625 29.269531 15.855469 28.6875 C 16.148438 28.421875 16.1875 28.027344 16.167969 27.65625 Z M 16.167969 27.65625 " fill-opacity="1" fill-rule="nonzero"/><g clip-path="url(#1b95b5c045)"><path fill="#b3a8a8" d="M 8.085938 42.164062 C 6.496094 41.8125 4.964844 40.40625 4.429688 39.0625 C 5.441406 40.304688 6.703125 41.398438 8.085938 42.164062 Z M 17.242188 38.402344 C 16.375 39.726562 15.320312 40.945312 14.265625 42.125 C 15.609375 41.253906 16.746094 39.933594 17.242188 38.402344 Z M -6.195312 74.160156 C -6.484375 75.234375 -6.546875 76.410156 -6.917969 77.421875 C -6.609375 76.96875 -6.527344 76.390625 -6.359375 75.851562 C -6.175781 75.191406 -5.96875 74.550781 -5.761719 73.910156 C -4.75 70.851562 -3.382812 68.164062 -1.316406 65.4375 C -0.925781 65.023438 -0.71875 64.546875 -0.324219 64.15625 C -3.796875 67.007812 -5.285156 70.066406 -6.195312 74.160156 Z M 29.167969 74.035156 C 28.464844 69.902344 27.121094 66.757812 23.816406 63.742188 C 24.207031 64.15625 24.371094 64.628906 24.746094 65.0625 C 26.667969 67.917969 27.886719 70.664062 28.734375 73.765625 C 28.898438 74.425781 29.0625 75.089844 29.230469 75.75 C 29.375 76.285156 29.4375 76.867188 29.703125 77.339844 C 29.394531 76.308594 29.414062 75.109375 29.167969 74.035156 Z M 29.167969 74.035156 " fill-opacity="1" fill-rule="nonzero"/></g><g clip-path="url(#670ad2141a)"><g clip-path="url(#6addf0596c)"><g clip-path="url(#7790e1c1bd)"><path fill="#fff033" d="M 16.253906 20.519531 C 16.023438 20.832031 15.703125 21.027344 15.398438 21.21875 C 15.351562 21.25 15.304688 21.277344 15.257812 21.304688 C 14.652344 21.691406 13.976562 21.957031 13.328125 22.214844 C 13.203125 22.261719 13.082031 22.3125 12.960938 22.359375 C 12.769531 22.4375 12.578125 22.488281 12.371094 22.539062 C 12.28125 22.5625 12.183594 22.585938 12.089844 22.613281 C 12.082031 22.617188 12.070312 22.617188 12.0625 22.613281 C 12.042969 22.609375 12.027344 22.597656 12.019531 22.578125 L 11.972656 22.441406 C 11.929688 22.328125 11.890625 22.222656 11.855469 22.117188 C 11.757812 21.855469 11.59375 21.664062 11.347656 21.523438 C 11.164062 21.421875 10.976562 21.347656 10.78125 21.300781 C 10.386719 21.207031 9.964844 21.234375 9.496094 21.382812 C 9.242188 21.464844 9.0625 21.632812 8.972656 21.878906 C 8.910156 22.046875 8.859375 22.222656 8.808594 22.394531 C 8.785156 22.46875 8.765625 22.546875 8.742188 22.625 C 8.734375 22.648438 8.710938 22.664062 8.6875 22.664062 C 8.492188 22.660156 8.269531 22.628906 8.023438 22.570312 C 7.492188 22.449219 6.921875 22.214844 6.5 21.949219 C 6.488281 21.941406 6.476562 21.925781 6.476562 21.910156 C 6.457031 21.75 6.503906 21.601562 6.550781 21.457031 C 6.5625 21.40625 6.578125 21.359375 6.59375 21.308594 C 6.746094 20.703125 6.628906 20.140625 6.234375 19.585938 C 6.132812 19.445312 6.011719 19.355469 5.859375 19.308594 C 5.761719 19.28125 5.667969 19.25 5.578125 19.222656 L 5.488281 19.195312 C 5.476562 19.191406 5.464844 19.183594 5.460938 19.175781 C 5.363281 19.050781 5.394531 18.945312 5.421875 18.867188 C 5.421875 18.855469 5.425781 18.84375 5.429688 18.835938 C 5.675781 17.964844 5.925781 17.089844 6.171875 16.226562 C 6.457031 15.226562 6.746094 14.230469 7.027344 13.265625 C 7.105469 12.996094 9 6.5625 9.222656 6.171875 C 9.234375 6.15625 9.355469 6.175781 9.375 6.171875 C 9.378906 6.171875 9.386719 6.171875 9.394531 6.175781 C 9.402344 6.175781 9.414062 6.183594 9.421875 6.191406 C 9.804688 6.589844 11.445312 9.855469 11.863281 11.042969 C 11.871094 11.066406 11.863281 11.09375 11.839844 11.109375 C 11.828125 11.117188 11.816406 11.125 11.808594 11.132812 C 11.789062 11.148438 11.769531 11.160156 11.742188 11.160156 C 11.316406 11.132812 10.992188 11.339844 10.753906 11.785156 C 10.476562 12.3125 10.429688 12.796875 10.613281 13.265625 C 10.648438 13.355469 10.714844 13.449219 10.808594 13.554688 C 11.035156 13.8125 11.328125 13.96875 11.757812 14.070312 C 11.933594 14.109375 12.109375 14.136719 12.292969 14.164062 C 12.382812 14.175781 12.488281 14.136719 12.589844 14.101562 L 12.625 14.089844 C 12.722656 14.054688 12.816406 14.011719 12.917969 13.960938 C 12.96875 13.941406 13.015625 13.917969 13.070312 13.894531 C 13.078125 13.886719 13.09375 13.886719 13.105469 13.890625 C 13.121094 13.894531 13.132812 13.902344 13.140625 13.917969 C 13.359375 14.324219 13.535156 14.746094 13.707031 15.152344 C 13.769531 15.308594 13.839844 15.46875 13.90625 15.625 C 13.980469 15.792969 14.054688 15.960938 14.128906 16.121094 C 14.300781 16.507812 14.484375 16.910156 14.648438 17.34375 C 14.65625 17.363281 14.652344 17.382812 14.636719 17.398438 C 14.625 17.414062 14.605469 17.421875 14.585938 17.417969 C 14.527344 17.410156 14.472656 17.398438 14.421875 17.390625 C 14.316406 17.371094 14.226562 17.355469 14.140625 17.351562 C 13.691406 17.320312 13.417969 17.445312 13.246094 17.765625 C 13.207031 17.839844 13.148438 17.898438 13.089844 17.957031 C 13.078125 17.964844 13.066406 17.976562 13.054688 17.988281 C 12.710938 18.335938 12.585938 18.773438 12.664062 19.367188 C 12.707031 19.699219 12.886719 19.90625 13.191406 19.980469 C 13.257812 19.996094 13.320312 20.015625 13.382812 20.03125 C 13.464844 20.050781 13.546875 20.074219 13.625 20.09375 C 13.699219 20.109375 13.761719 20.121094 13.824219 20.132812 C 14.386719 20.222656 14.863281 20.019531 15.28125 19.511719 C 15.324219 19.460938 15.359375 19.402344 15.402344 19.34375 C 15.421875 19.3125 15.441406 19.28125 15.464844 19.25 C 15.472656 19.234375 15.492188 19.226562 15.507812 19.226562 C 15.511719 19.226562 15.519531 19.226562 15.523438 19.226562 C 15.535156 19.230469 15.546875 19.234375 15.554688 19.246094 C 15.570312 19.265625 15.585938 19.28125 15.597656 19.296875 C 15.625 19.324219 15.648438 19.351562 15.664062 19.382812 C 15.832031 19.683594 15.996094 19.976562 16.167969 20.289062 L 16.261719 20.457031 C 16.269531 20.476562 16.269531 20.5 16.253906 20.519531 Z M 16.253906 20.519531 " fill-opacity="1" fill-rule="evenodd"/></g></g></g><g clip-path="url(#ae5acdfc23)"><g clip-path="url(#0d938fe516)"><g clip-path="url(#cde00b4d5f)"><path fill="#787ff6" d="M 15.117188 19.183594 C 14.738281 19.632812 14.347656 19.800781 13.890625 19.710938 C 13.855469 19.703125 13.816406 19.695312 13.777344 19.6875 C 13.640625 19.652344 13.5 19.613281 13.363281 19.574219 C 13.328125 19.5625 13.292969 19.554688 13.261719 19.542969 C 13.023438 19.476562 12.894531 19.289062 12.902344 19.027344 C 12.910156 18.804688 12.945312 18.519531 13.160156 18.304688 C 13.292969 18.171875 13.429688 18.039062 13.574219 17.902344 C 13.632812 17.84375 13.691406 17.789062 13.753906 17.730469 C 13.765625 17.714844 13.785156 17.710938 13.800781 17.714844 C 13.875 17.726562 13.945312 17.742188 14.011719 17.753906 C 14.128906 17.773438 14.238281 17.792969 14.347656 17.816406 C 14.375 17.824219 14.402344 17.832031 14.429688 17.839844 C 14.890625 17.960938 15.234375 18.421875 15.21875 18.894531 C 15.214844 18.980469 15.1875 19.101562 15.117188 19.183594 Z M 11.6875 13.59375 C 11.742188 13.605469 11.808594 13.617188 11.878906 13.632812 C 11.9375 13.644531 11.992188 13.660156 12.042969 13.679688 C 12.078125 13.691406 12.109375 13.699219 12.144531 13.707031 C 12.421875 13.773438 12.671875 13.703125 12.933594 13.484375 C 12.953125 13.46875 12.957031 13.441406 12.949219 13.417969 C 12.878906 13.261719 12.8125 13.105469 12.746094 12.953125 C 12.597656 12.613281 12.445312 12.261719 12.28125 11.925781 C 12.203125 11.757812 12.042969 11.636719 11.84375 11.589844 C 11.609375 11.535156 11.359375 11.59375 11.199219 11.746094 C 10.953125 11.976562 10.824219 12.292969 10.800781 12.710938 C 10.792969 12.84375 10.851562 13.003906 10.941406 13.089844 L 10.976562 13.128906 C 11.164062 13.320312 11.355469 13.519531 11.644531 13.585938 C 11.65625 13.589844 11.671875 13.589844 11.6875 13.59375 Z M 11.355469 22.035156 C 11.144531 21.875 10.917969 21.765625 10.679688 21.710938 C 10.34375 21.632812 9.988281 21.65625 9.589844 21.78125 C 9.386719 21.847656 9.242188 21.980469 9.160156 22.179688 C 9.09375 22.332031 9.023438 22.507812 9.082031 22.75 C 9.085938 22.769531 9.101562 22.785156 9.125 22.789062 C 9.152344 22.796875 9.175781 22.804688 9.203125 22.8125 C 9.230469 22.820312 9.253906 22.828125 9.277344 22.832031 C 9.316406 22.839844 9.347656 22.84375 9.375 22.84375 C 9.507812 22.84375 9.640625 22.84375 9.769531 22.84375 C 10.296875 22.84375 10.839844 22.84375 11.375 22.746094 C 11.4375 22.734375 11.496094 22.714844 11.558594 22.691406 C 11.585938 22.683594 11.613281 22.671875 11.640625 22.664062 C 11.667969 22.65625 11.683594 22.625 11.675781 22.597656 C 11.628906 22.394531 11.554688 22.183594 11.355469 22.035156 Z M 5.566406 19.652344 C 5.480469 19.628906 5.386719 19.621094 5.285156 19.625 C 5.265625 19.625 5.25 19.636719 5.238281 19.652344 C 5.125 19.824219 5.078125 20.011719 5.035156 20.195312 C 5.011719 20.285156 4.992188 20.371094 4.964844 20.457031 C 4.867188 20.738281 4.882812 21.003906 5.015625 21.242188 C 5.019531 21.253906 5.03125 21.261719 5.042969 21.269531 L 5.234375 21.34375 C 5.453125 21.4375 5.664062 21.523438 5.878906 21.605469 C 5.90625 21.617188 5.929688 21.625 5.957031 21.632812 C 6.171875 21.683594 6.253906 21.519531 6.300781 21.394531 C 6.453125 20.957031 6.398438 20.535156 6.140625 20.101562 C 5.992188 19.851562 5.804688 19.707031 5.566406 19.652344 Z M 8.691406 9.707031 C 8.625 9.640625 8.53125 9.558594 8.398438 9.527344 C 8.339844 9.511719 8.273438 9.507812 8.207031 9.515625 C 8.183594 9.519531 8.167969 9.53125 8.160156 9.550781 C 8.011719 9.90625 7.90625 10.269531 7.796875 10.660156 C 7.722656 10.90625 7.648438 11.164062 7.5625 11.421875 C 7.558594 11.4375 7.5625 11.457031 7.570312 11.472656 C 7.578125 11.484375 7.589844 11.492188 7.605469 11.492188 C 7.609375 11.496094 7.613281 11.496094 7.617188 11.496094 C 8.136719 11.484375 8.601562 11.28125 8.828125 10.96875 C 8.859375 10.929688 8.882812 10.878906 8.902344 10.835938 C 9.070312 10.441406 8.992188 10.019531 8.691406 9.707031 Z M 8.839844 15.535156 C 8.738281 15.511719 8.640625 15.507812 8.550781 15.527344 C 8.5 15.535156 8.445312 15.546875 8.398438 15.582031 C 8.375 15.597656 8.347656 15.617188 8.324219 15.632812 C 8.050781 15.824219 7.769531 16.023438 7.730469 16.421875 L 7.71875 16.464844 C 7.671875 16.648438 7.625 16.839844 7.707031 17.042969 C 7.808594 17.296875 8.0625 17.507812 8.355469 17.574219 C 8.515625 17.613281 8.675781 17.605469 8.816406 17.554688 C 9.054688 17.46875 9.316406 17.351562 9.429688 17.082031 C 9.578125 16.730469 9.609375 16.429688 9.523438 16.136719 C 9.441406 15.859375 9.15625 15.605469 8.839844 15.535156 Z M 8.839844 15.535156 " fill-opacity="1" fill-rule="evenodd"/></g></g></g><g clip-path="url(#4401e44ef6)"><g clip-path="url(#353240807d)"><g clip-path="url(#ac66a9d701)"><path fill="#ff5757" d="M 9.867188 4.46875 C 9.871094 4.140625 10.007812 3.898438 10.125 3.683594 L 10.132812 3.671875 C 10.226562 3.503906 10.3125 3.332031 10.398438 3.164062 C 10.59375 2.769531 10.796875 2.363281 11.085938 2.019531 C 11.101562 2.003906 11.121094 1.996094 11.140625 2 C 11.144531 2 11.148438 2.003906 11.152344 2.003906 C 11.625 2.199219 11.875 2.367188 12.078125 2.625 C 12.09375 2.644531 12.097656 2.667969 12.085938 2.6875 C 11.894531 3.019531 11.699219 3.335938 11.347656 3.527344 C 10.945312 3.746094 10.585938 4.039062 10.238281 4.324219 L 10.152344 4.394531 C 10.121094 4.421875 10.085938 4.441406 10.042969 4.464844 C 10.015625 4.480469 9.988281 4.496094 9.953125 4.519531 C 9.941406 4.527344 9.925781 4.527344 9.910156 4.523438 C 9.90625 4.523438 9.902344 4.519531 9.898438 4.519531 C 9.878906 4.507812 9.867188 4.488281 9.867188 4.46875 Z M 8.722656 2.261719 C 8.808594 2.699219 8.898438 3.148438 9 3.59375 C 9.023438 3.710938 9.0625 3.828125 9.109375 3.976562 C 9.136719 4.050781 9.164062 4.132812 9.191406 4.226562 C 9.199219 4.246094 9.214844 4.261719 9.234375 4.265625 C 9.234375 4.265625 9.238281 4.265625 9.242188 4.269531 C 9.265625 4.269531 9.289062 4.253906 9.296875 4.234375 C 9.320312 4.179688 9.339844 4.140625 9.355469 4.109375 C 9.378906 4.058594 9.390625 4.03125 9.394531 3.996094 L 9.417969 3.816406 C 9.484375 3.285156 9.550781 2.738281 9.609375 2.195312 C 9.617188 2.117188 9.59375 2.039062 9.574219 1.964844 C 9.566406 1.933594 9.558594 1.902344 9.554688 1.875 C 9.546875 1.851562 9.53125 1.832031 9.511719 1.828125 C 9.507812 1.828125 9.507812 1.828125 9.507812 1.828125 C 9.480469 1.824219 9.457031 1.816406 9.433594 1.8125 C 9.382812 1.800781 9.339844 1.792969 9.292969 1.792969 C 9.203125 1.792969 9.109375 1.800781 9.007812 1.8125 C 8.871094 1.832031 8.789062 1.867188 8.742188 1.933594 C 8.695312 1.996094 8.6875 2.085938 8.714844 2.226562 Z M 7.550781 2.929688 C 7.558594 2.96875 7.570312 3.003906 7.589844 3.035156 C 7.980469 3.597656 8.71875 5.019531 9.125 5.597656 C 9.144531 5.625 9.507812 5.949219 9.371094 5.421875 C 9.230469 4.898438 8.695312 3.492188 8.578125 2.921875 L 8.554688 2.804688 C 8.539062 2.730469 8.515625 2.65625 8.492188 2.585938 C 8.480469 2.554688 8.472656 2.523438 8.460938 2.492188 C 8.457031 2.476562 8.445312 2.464844 8.433594 2.457031 C 8.429688 2.453125 8.425781 2.453125 8.421875 2.453125 C 8.410156 2.449219 8.398438 2.449219 8.386719 2.457031 C 8.105469 2.574219 7.839844 2.6875 7.570312 2.800781 C 7.542969 2.8125 7.527344 2.84375 7.539062 2.871094 C 7.542969 2.890625 7.546875 2.910156 7.550781 2.929688 Z M 12.113281 3.855469 L 11.910156 3.566406 C 11.902344 3.554688 11.890625 3.546875 11.875 3.542969 C 11.863281 3.542969 11.847656 3.542969 11.835938 3.550781 C 11.738281 3.605469 11.640625 3.660156 11.546875 3.714844 C 11.328125 3.835938 11.125 3.953125 10.925781 4.085938 C 10.628906 4.285156 10.042969 4.652344 9.847656 4.867188 C 9.652344 5.082031 10.007812 5.257812 10.015625 5.253906 C 10.125 5.226562 11.222656 4.847656 11.460938 4.78125 C 11.632812 4.730469 11.679688 4.5625 11.863281 4.535156 C 12.046875 4.511719 12.238281 4.488281 12.429688 4.433594 C 12.449219 4.429688 12.460938 4.414062 12.46875 4.398438 C 12.476562 4.382812 12.472656 4.363281 12.460938 4.347656 C 12.339844 4.175781 12.226562 4.015625 12.113281 3.855469 Z M 8.648438 5.515625 C 8.660156 5.507812 8.671875 5.496094 8.6875 5.488281 C 8.703125 5.480469 8.710938 5.46875 8.714844 5.453125 C 8.71875 5.433594 8.714844 5.417969 8.703125 5.40625 C 8.695312 5.390625 8.683594 5.375 8.671875 5.363281 C 8.648438 5.328125 8.625 5.292969 8.59375 5.261719 C 8.316406 5.015625 7.214844 4.210938 6.949219 4.066406 C 6.945312 4.0625 6.941406 4.0625 6.9375 4.0625 C 6.925781 4.058594 6.914062 4.058594 6.902344 4.0625 C 6.886719 4.070312 6.875 4.082031 6.871094 4.097656 L 6.578125 4.910156 C 6.574219 4.925781 6.574219 4.941406 6.582031 4.953125 C 6.585938 4.96875 6.601562 4.976562 6.613281 4.984375 C 7.15625 5.144531 7.734375 5.320312 8.324219 5.496094 C 8.351562 5.503906 8.375 5.511719 8.402344 5.519531 C 8.453125 5.53125 8.507812 5.539062 8.558594 5.546875 C 8.59375 5.550781 8.621094 5.53125 8.648438 5.515625 Z M 11.878906 6.0625 C 11.367188 5.925781 9.964844 5.25 9.84375 5.621094 C 9.722656 5.988281 11.253906 6.789062 11.835938 6.773438 C 11.835938 6.773438 11.835938 6.773438 11.839844 6.773438 C 11.851562 6.777344 11.867188 6.773438 11.878906 6.765625 C 11.890625 6.761719 11.902344 6.746094 11.90625 6.730469 C 11.957031 6.519531 11.941406 6.316406 11.921875 6.109375 C 11.917969 6.085938 11.902344 6.066406 11.878906 6.0625 Z M 11.878906 6.0625 " fill-opacity="1" fill-rule="evenodd"/></g></g></g><g clip-path="url(#5d2e411a1b)"><g clip-path="url(#f2333c7a5f)"><g clip-path="url(#c025b3b236)"><path fill="#363a38" d="M 16.671875 20.398438 C 16.585938 20.214844 16.488281 20.035156 16.390625 19.859375 C 15.871094 18.953125 15.410156 18.015625 14.992188 17.058594 C 14.207031 15.277344 13.433594 13.488281 12.648438 11.707031 C 11.867188 9.9375 11.054688 8.183594 10.152344 6.476562 C 10.121094 6.417969 10.058594 6.359375 10.117188 6.273438 C 10.578125 6.546875 11.03125 6.816406 11.484375 7.082031 C 11.589844 7.144531 11.703125 7.203125 11.820312 7.242188 C 12 7.304688 12.113281 7.230469 12.164062 7.039062 C 12.175781 6.992188 12.1875 6.945312 12.191406 6.902344 C 12.207031 6.621094 12.230469 6.339844 12.242188 6.0625 C 12.253906 5.828125 12.203125 5.757812 11.976562 5.691406 C 11.621094 5.582031 11.300781 5.582031 11.109375 5.539062 C 10.917969 5.492188 10.4375 5.441406 10.394531 5.371094 C 10.453125 5.242188 11.785156 5 12.535156 4.878906 C 12.613281 4.867188 12.691406 4.875 12.769531 4.867188 C 12.996094 4.832031 13.105469 4.613281 12.988281 4.414062 C 12.941406 4.332031 12.875 4.265625 12.816406 4.191406 C 12.636719 3.960938 12.449219 3.730469 12.269531 3.492188 C 12.207031 3.410156 12.167969 3.308594 12.125 3.230469 C 12.183594 3.136719 12.226562 3.070312 12.265625 3.003906 C 12.515625 2.574219 12.433594 2.25 12.003906 1.988281 C 11.832031 1.878906 11.660156 1.777344 11.488281 1.667969 C 11.128906 1.445312 11.042969 1.464844 10.820312 1.816406 C 10.8125 1.828125 10.804688 1.84375 10.796875 1.855469 C 10.511719 2.355469 10.226562 2.855469 9.9375 3.351562 C 9.902344 3.417969 9.886719 3.503906 9.765625 3.511719 C 9.808594 3.15625 9.851562 2.804688 9.882812 2.453125 C 9.902344 2.253906 9.917969 2.050781 9.90625 1.847656 C 9.890625 1.558594 9.792969 1.460938 9.515625 1.410156 C 9.152344 1.34375 8.800781 1.421875 8.464844 1.546875 C 8.378906 1.578125 8.269531 1.703125 8.269531 1.785156 C 8.265625 2.152344 8.015625 2.242188 7.738281 2.320312 C 7.632812 2.351562 7.53125 2.394531 7.429688 2.429688 C 7.257812 2.488281 7.191406 2.613281 7.179688 2.785156 C 7.167969 2.945312 7.191406 3.09375 7.285156 3.230469 C 7.464844 3.484375 7.644531 3.738281 7.820312 3.992188 C 7.878906 4.074219 7.929688 4.160156 8.023438 4.296875 C 7.738281 4.183594 7.578125 4.007812 7.386719 3.882812 C 7.1875 3.753906 7.078125 3.484375 6.789062 3.492188 C 6.671875 3.828125 6.554688 4.144531 6.445312 4.464844 C 6.394531 4.613281 6.355469 4.765625 6.324219 4.917969 C 6.261719 5.238281 6.328125 5.34375 6.636719 5.429688 C 7.328125 5.621094 8.019531 5.808594 8.710938 6 C 8.808594 6.027344 8.902344 6.074219 9.007812 6.117188 C 8.871094 6.464844 8.730469 6.777344 8.621094 7.097656 C 8.273438 8.101562 7.921875 9.097656 7.609375 10.109375 C 7.058594 11.882812 6.539062 13.660156 6.007812 15.4375 C 5.765625 16.242188 5.527344 17.050781 5.292969 17.859375 C 5.03125 18.773438 4.777344 19.6875 4.527344 20.605469 C 4.476562 20.796875 4.386719 21.179688 4.527344 21.355469 C 4.730469 21.605469 5.808594 22.148438 5.941406 22.230469 C 6.625 22.652344 7.351562 22.957031 8.140625 23.113281 C 8.429688 23.171875 8.707031 23.28125 8.988281 23.359375 C 9.046875 23.375 9.109375 23.382812 9.171875 23.382812 C 9.511719 23.371094 9.855469 23.34375 10.195312 23.34375 C 11.972656 23.332031 13.589844 22.761719 15.132812 21.9375 C 15.363281 21.8125 15.601562 21.683594 15.8125 21.53125 C 16.078125 21.339844 16.324219 21.125 16.570312 20.910156 C 16.730469 20.769531 16.753906 20.585938 16.671875 20.398438 Z M 8.566406 5.488281 C 8.492188 5.480469 8.414062 5.464844 8.339844 5.441406 C 7.792969 5.28125 7.25 5.117188 6.628906 4.929688 C 6.738281 4.636719 6.828125 4.378906 6.921875 4.117188 C 7.1875 4.257812 8.289062 5.0625 8.554688 5.304688 C 8.59375 5.34375 8.625 5.390625 8.660156 5.441406 C 8.613281 5.464844 8.589844 5.492188 8.566406 5.488281 Z M 9.296875 5.492188 C 9.167969 5.550781 8.035156 3.578125 7.636719 3.003906 C 7.613281 2.96875 7.609375 2.921875 7.589844 2.855469 C 7.863281 2.738281 8.128906 2.625 8.40625 2.507812 C 8.4375 2.609375 8.480469 2.710938 8.5 2.816406 C 8.628906 3.4375 9.425781 5.433594 9.296875 5.492188 Z M 9.246094 4.210938 C 9.160156 3.933594 9.09375 3.757812 9.054688 3.578125 C 8.953125 3.125 8.863281 2.671875 8.769531 2.214844 C 8.722656 1.980469 8.78125 1.898438 9.011719 1.867188 C 9.105469 1.855469 9.199219 1.847656 9.292969 1.847656 C 9.351562 1.851562 9.414062 1.867188 9.496094 1.882812 C 9.515625 1.984375 9.5625 2.089844 9.550781 2.1875 C 9.488281 2.789062 9.414062 3.390625 9.339844 3.992188 C 9.332031 4.03125 9.304688 4.070312 9.246094 4.210938 Z M 15.164062 18.894531 C 15.160156 18.980469 15.128906 19.085938 15.074219 19.148438 C 14.769531 19.507812 14.40625 19.753906 13.902344 19.65625 C 13.691406 19.613281 13.484375 19.550781 13.277344 19.488281 C 13.046875 19.425781 12.953125 19.242188 12.960938 19.03125 C 12.96875 18.78125 13.011719 18.53125 13.199219 18.34375 C 13.386719 18.160156 13.578125 17.980469 13.792969 17.769531 C 14.023438 17.816406 14.222656 17.839844 14.417969 17.894531 C 14.84375 18.007812 15.175781 18.453125 15.164062 18.894531 Z M 12.230469 11.949219 C 12.46875 12.4375 12.671875 12.9375 12.898438 13.441406 C 12.609375 13.679688 12.347656 13.722656 12.058594 13.625 C 11.941406 13.585938 11.820312 13.558594 11.699219 13.539062 C 11.386719 13.484375 11.183594 13.257812 10.980469 13.050781 C 10.902344 12.972656 10.851562 12.824219 10.859375 12.710938 C 10.875 12.367188 10.96875 12.039062 11.234375 11.789062 C 11.523438 11.519531 12.0625 11.59375 12.230469 11.949219 Z M 11.863281 6.117188 C 11.886719 6.332031 11.898438 6.523438 11.851562 6.71875 C 11.472656 6.605469 10.027344 5.953125 10.078125 5.734375 C 10.109375 5.609375 11.335938 5.976562 11.863281 6.117188 Z M 12.414062 4.378906 C 12.039062 4.484375 11.597656 4.601562 11.246094 4.703125 C 10.90625 4.800781 10.089844 5.183594 9.945312 5.0625 C 9.800781 4.945312 10.644531 4.34375 10.957031 4.132812 C 11.242188 3.941406 11.546875 3.785156 11.863281 3.597656 C 12.050781 3.867188 12.222656 4.105469 12.414062 4.378906 Z M 10.183594 3.699219 C 10.492188 3.144531 10.71875 2.542969 11.128906 2.054688 C 11.589844 2.246094 11.835938 2.410156 12.035156 2.660156 C 11.855469 2.976562 11.660156 3.292969 11.320312 3.476562 C 10.882812 3.71875 10.5 4.035156 10.117188 4.351562 C 10.070312 4.386719 10.019531 4.410156 9.925781 4.46875 C 9.929688 4.148438 10.066406 3.910156 10.183594 3.699219 Z M 8.210938 9.570312 C 8.417969 9.550781 8.542969 9.632812 8.652344 9.746094 C 8.9375 10.042969 9.011719 10.4375 8.847656 10.8125 C 8.832031 10.855469 8.8125 10.898438 8.785156 10.933594 C 8.574219 11.222656 8.128906 11.425781 7.617188 11.4375 C 7.835938 10.789062 7.96875 10.15625 8.210938 9.570312 Z M 6.246094 21.375 C 6.179688 21.570312 6.082031 21.628906 5.898438 21.554688 C 5.625 21.445312 5.351562 21.332031 5.066406 21.214844 C 4.9375 20.984375 4.925781 20.738281 5.015625 20.472656 C 5.105469 20.210938 5.121094 19.925781 5.285156 19.683594 C 5.652344 19.667969 5.902344 19.8125 6.089844 20.128906 C 6.328125 20.53125 6.402344 20.933594 6.246094 21.375 Z M 11.363281 22.691406 C 10.703125 22.8125 10.039062 22.78125 9.375 22.789062 C 9.300781 22.789062 9.226562 22.757812 9.136719 22.734375 C 9.082031 22.515625 9.144531 22.359375 9.210938 22.203125 C 9.289062 22.019531 9.417969 21.894531 9.605469 21.835938 C 10.21875 21.640625 10.792969 21.679688 11.324219 22.078125 C 11.496094 22.210938 11.570312 22.390625 11.621094 22.609375 C 11.53125 22.640625 11.449219 22.675781 11.363281 22.691406 Z M 15.226562 21.257812 C 14.511719 21.714844 13.71875 21.996094 12.9375 22.308594 C 12.667969 22.417969 12.375 22.472656 12.074219 22.558594 C 12.011719 22.386719 11.960938 22.242188 11.90625 22.097656 C 11.804688 21.824219 11.632812 21.621094 11.375 21.472656 C 10.761719 21.125 10.125 21.125 9.476562 21.328125 C 9.214844 21.414062 9.015625 21.597656 8.917969 21.859375 C 8.828125 22.101562 8.761719 22.355469 8.6875 22.609375 C 8.070312 22.59375 7.15625 22.296875 6.53125 21.902344 C 6.507812 21.703125 6.597656 21.515625 6.648438 21.320312 C 6.8125 20.671875 6.664062 20.089844 6.28125 19.554688 C 6.175781 19.410156 6.046875 19.308594 5.875 19.253906 C 5.742188 19.214844 5.613281 19.171875 5.503906 19.140625 C 5.414062 19.027344 5.460938 18.9375 5.484375 18.851562 C 5.730469 17.980469 5.976562 17.113281 6.226562 16.242188 C 6.507812 15.253906 6.792969 14.269531 7.082031 13.28125 C 7.195312 12.890625 7.3125 12.503906 7.417969 12.152344 C 7.566406 11.996094 7.730469 11.996094 7.878906 11.984375 C 8.351562 11.945312 8.675781 11.65625 9 11.363281 C 9.042969 11.320312 9.074219 11.261719 9.101562 11.207031 C 9.246094 10.890625 9.355469 10.554688 9.328125 10.214844 C 9.289062 9.730469 9.078125 9.316406 8.609375 9.089844 C 8.542969 9.054688 8.472656 9.03125 8.410156 9.003906 C 8.488281 8.53125 9.164062 6.609375 9.378906 6.230469 C 9.75 6.617188 11.394531 9.882812 11.808594 11.0625 C 11.769531 11.089844 11.757812 11.105469 11.746094 11.101562 C 11.242188 11.074219 10.921875 11.351562 10.707031 11.757812 C 10.449219 12.242188 10.351562 12.757812 10.5625 13.289062 C 10.605469 13.398438 10.683594 13.503906 10.765625 13.59375 C 11.171875 14.042969 11.726562 14.136719 12.285156 14.21875 C 12.398438 14.234375 12.527344 14.183594 12.644531 14.140625 C 12.789062 14.089844 12.925781 14.019531 13.089844 13.945312 C 13.390625 14.503906 13.609375 15.082031 13.855469 15.648438 C 14.097656 16.203125 14.359375 16.746094 14.59375 17.363281 C 14.410156 17.332031 14.277344 17.304688 14.144531 17.292969 C 13.75 17.265625 13.402344 17.347656 13.199219 17.738281 C 13.15625 17.816406 13.082031 17.882812 13.015625 17.949219 C 12.617188 18.347656 12.539062 18.84375 12.609375 19.375 C 12.652344 19.707031 12.832031 19.953125 13.179688 20.035156 C 13.390625 20.089844 13.601562 20.152344 13.816406 20.1875 C 14.449219 20.289062 14.933594 20.023438 15.324219 19.546875 C 15.390625 19.46875 15.441406 19.378906 15.511719 19.28125 C 15.558594 19.339844 15.59375 19.371094 15.617188 19.410156 C 15.8125 19.761719 16.007812 20.117188 16.210938 20.484375 C 15.949219 20.835938 15.578125 21.035156 15.226562 21.257812 Z M 9.835938 16.949219 C 9.90625 16.671875 9.953125 16.273438 9.820312 15.921875 C 9.625 15.386719 9.21875 15.054688 8.664062 15.164062 C 8.421875 15.214844 8.179688 15.378906 7.941406 15.457031 C 7.890625 15.476562 7.839844 15.519531 7.796875 15.558594 C 7.621094 15.722656 7.507812 15.917969 7.460938 16.15625 C 7.390625 16.472656 7.296875 16.789062 7.351562 17.121094 C 7.40625 17.441406 7.539062 17.742188 7.820312 17.890625 C 8.28125 18.132812 8.765625 18.179688 9.238281 17.867188 C 9.546875 17.664062 9.765625 17.226562 9.835938 16.949219 Z M 9.378906 17.0625 C 9.273438 17.304688 9.035156 17.414062 8.796875 17.5 C 8.40625 17.640625 7.910156 17.402344 7.757812 17.019531 C 7.679688 16.816406 7.738281 16.621094 7.785156 16.429688 C 7.828125 16.019531 8.140625 15.832031 8.429688 15.625 C 8.46875 15.601562 8.515625 15.589844 8.5625 15.582031 C 8.914062 15.507812 9.367188 15.804688 9.46875 16.152344 C 9.5625 16.46875 9.5 16.773438 9.378906 17.0625 Z M 9.378906 17.0625 " fill-opacity="1" fill-rule="evenodd"/></g></g></g></svg>