<svg xmlns="http://www.w3.org/2000/svg" xmlns:xlink="http://www.w3.org/1999/xlink" width="226" zoomAndPan="magnify" viewBox="0 0 169.5 169.499993" height="226" preserveAspectRatio="xMidYMid meet" version="1.0"><path fill="#c0abeb" d="M 167.085938 84.25 C 167.085938 85.59375 167.054688 86.941406 166.988281 88.285156 C 166.921875 89.628906 166.820312 90.96875 166.6875 92.308594 C 166.558594 93.648438 166.390625 94.984375 166.195312 96.3125 C 165.996094 97.644531 165.765625 98.96875 165.503906 100.289062 C 165.238281 101.609375 164.945312 102.921875 164.617188 104.226562 C 164.289062 105.535156 163.929688 106.828125 163.539062 108.117188 C 163.144531 109.40625 162.722656 110.683594 162.269531 111.949219 C 161.8125 113.21875 161.328125 114.472656 160.8125 115.714844 C 160.296875 116.957031 159.75 118.1875 159.171875 119.40625 C 158.597656 120.621094 157.988281 121.824219 157.355469 123.007812 C 156.71875 124.195312 156.054688 125.367188 155.359375 126.519531 C 154.667969 127.675781 153.945312 128.8125 153.195312 129.929688 C 152.445312 131.050781 151.667969 132.148438 150.867188 133.230469 C 150.0625 134.3125 149.234375 135.371094 148.378906 136.410156 C 147.519531 137.453125 146.640625 138.472656 145.734375 139.46875 C 144.828125 140.464844 143.898438 141.4375 142.945312 142.390625 C 141.992188 143.34375 141.015625 144.269531 140.015625 145.171875 C 139.015625 146.078125 137.996094 146.957031 136.953125 147.808594 C 135.910156 148.664062 134.847656 149.492188 133.761719 150.292969 C 132.679688 151.09375 131.578125 151.867188 130.457031 152.617188 C 129.332031 153.363281 128.195312 154.082031 127.039062 154.777344 C 125.878906 155.46875 124.707031 156.128906 123.515625 156.765625 C 122.328125 157.398438 121.125 158.003906 119.902344 158.578125 C 118.683594 159.15625 117.453125 159.699219 116.207031 160.214844 C 114.960938 160.730469 113.703125 161.214844 112.429688 161.667969 C 111.160156 162.121094 109.878906 162.542969 108.589844 162.933594 C 107.300781 163.324219 106 163.683594 104.691406 164.007812 C 103.382812 164.335938 102.066406 164.632812 100.742188 164.894531 C 99.421875 165.15625 98.09375 165.386719 96.757812 165.582031 C 95.421875 165.78125 94.085938 165.945312 92.742188 166.078125 C 91.398438 166.210938 90.054688 166.308594 88.707031 166.375 C 87.359375 166.441406 86.011719 166.472656 84.664062 166.472656 C 83.316406 166.472656 81.96875 166.441406 80.621094 166.375 C 79.273438 166.308594 77.925781 166.210938 76.585938 166.078125 C 75.242188 165.945312 73.90625 165.78125 72.570312 165.582031 C 71.234375 165.386719 69.90625 165.15625 68.585938 164.894531 C 67.261719 164.632812 65.945312 164.335938 64.636719 164.007812 C 63.328125 163.683594 62.027344 163.324219 60.738281 162.933594 C 59.445312 162.542969 58.167969 162.121094 56.898438 161.667969 C 55.625 161.214844 54.367188 160.730469 53.121094 160.214844 C 51.875 159.699219 50.644531 159.15625 49.425781 158.578125 C 48.203125 158.003906 47 157.398438 45.808594 156.765625 C 44.621094 156.128906 43.449219 155.46875 42.289062 154.777344 C 41.132812 154.082031 39.996094 153.363281 38.871094 152.617188 C 37.75 151.867188 36.648438 151.09375 35.566406 150.292969 C 34.480469 149.492188 33.417969 148.664062 32.375 147.808594 C 31.332031 146.957031 30.3125 146.078125 29.3125 145.171875 C 28.3125 144.269531 27.335938 143.34375 26.382812 142.390625 C 25.429688 141.4375 24.5 140.464844 23.59375 139.46875 C 22.6875 138.472656 21.804688 137.453125 20.949219 136.410156 C 20.09375 135.371094 19.265625 134.3125 18.460938 133.230469 C 17.660156 132.148438 16.882812 131.050781 16.132812 129.929688 C 15.382812 128.8125 14.660156 127.675781 13.96875 126.519531 C 13.273438 125.367188 12.609375 124.195312 11.972656 123.007812 C 11.339844 121.824219 10.730469 120.621094 10.15625 119.40625 C 9.578125 118.1875 9.03125 116.957031 8.515625 115.714844 C 8 114.472656 7.515625 113.21875 7.058594 111.949219 C 6.605469 110.683594 6.183594 109.40625 5.789062 108.117188 C 5.398438 106.828125 5.039062 105.535156 4.710938 104.226562 C 4.382812 102.921875 4.089844 101.609375 3.824219 100.289062 C 3.5625 98.96875 3.332031 97.644531 3.132812 96.3125 C 2.9375 94.984375 2.769531 93.648438 2.636719 92.308594 C 2.507812 90.96875 2.40625 89.628906 2.339844 88.285156 C 2.273438 86.941406 2.242188 85.59375 2.242188 84.25 C 2.242188 82.902344 2.273438 81.558594 2.339844 80.214844 C 2.40625 78.871094 2.507812 77.527344 2.636719 76.191406 C 2.769531 74.851562 2.9375 73.515625 3.132812 72.183594 C 3.332031 70.851562 3.5625 69.527344 3.824219 68.207031 C 4.089844 66.886719 4.382812 65.574219 4.710938 64.269531 C 5.039062 62.964844 5.398438 61.667969 5.789062 60.378906 C 6.183594 59.09375 6.605469 57.816406 7.058594 56.546875 C 7.515625 55.28125 8 54.027344 8.515625 52.785156 C 9.03125 51.539062 9.578125 50.308594 10.15625 49.09375 C 10.730469 47.878906 11.339844 46.675781 11.972656 45.488281 C 12.609375 44.300781 13.273438 43.132812 13.96875 41.976562 C 14.660156 40.824219 15.382812 39.6875 16.132812 38.566406 C 16.882812 37.449219 17.660156 36.347656 18.460938 35.269531 C 19.265625 34.1875 20.09375 33.125 20.949219 32.085938 C 21.804688 31.046875 22.6875 30.027344 23.59375 29.03125 C 24.5 28.035156 25.429688 27.058594 26.382812 26.109375 C 27.335938 25.15625 28.3125 24.226562 29.3125 23.324219 C 30.3125 22.421875 31.332031 21.542969 32.375 20.6875 C 33.417969 19.835938 34.480469 19.007812 35.566406 18.207031 C 36.648438 17.402344 37.75 16.628906 38.871094 15.882812 C 39.996094 15.132812 41.132812 14.414062 42.289062 13.722656 C 43.449219 13.03125 44.621094 12.367188 45.808594 11.734375 C 47 11.097656 48.203125 10.496094 49.425781 9.917969 C 50.644531 9.34375 51.875 8.796875 53.121094 8.285156 C 54.367188 7.769531 55.625 7.285156 56.898438 6.832031 C 58.167969 6.378906 59.445312 5.957031 60.738281 5.566406 C 62.027344 5.175781 63.328125 4.816406 64.636719 4.488281 C 65.945312 4.160156 67.261719 3.867188 68.585938 3.605469 C 69.90625 3.34375 71.234375 3.113281 72.570312 2.914062 C 73.90625 2.71875 75.242188 2.550781 76.585938 2.421875 C 77.925781 2.289062 79.273438 2.191406 80.621094 2.125 C 81.96875 2.058594 83.316406 2.023438 84.664062 2.023438 C 86.011719 2.023438 87.359375 2.058594 88.707031 2.125 C 90.054688 2.191406 91.398438 2.289062 92.742188 2.421875 C 94.085938 2.550781 95.421875 2.71875 96.757812 2.914062 C 98.09375 3.113281 99.421875 3.34375 100.742188 3.605469 C 102.066406 3.867188 103.382812 4.160156 104.691406 4.488281 C 106 4.816406 107.300781 5.175781 108.589844 5.566406 C 109.878906 5.957031 111.160156 6.378906 112.429688 6.832031 C 113.703125 7.285156 114.960938 7.769531 116.207031 8.285156 C 117.453125 8.796875 118.683594 9.34375 119.902344 9.917969 C 121.125 10.496094 122.328125 11.097656 123.515625 11.734375 C 124.707031 12.367188 125.878906 13.03125 127.039062 13.722656 C 128.195312 14.414062 129.332031 15.132812 130.457031 15.882812 C 131.578125 16.628906 132.679688 17.402344 133.761719 18.207031 C 134.847656 19.007812 135.910156 19.835938 136.953125 20.6875 C 137.996094 21.542969 139.015625 22.421875 140.015625 23.324219 C 141.015625 24.226562 141.992188 25.15625 142.945312 26.109375 C 143.898438 27.058594 144.828125 28.035156 145.734375 29.03125 C 146.640625 30.027344 147.519531 31.046875 148.378906 32.085938 C 149.234375 33.125 150.0625 34.1875 150.867188 35.269531 C 151.667969 36.347656 152.445312 37.449219 153.195312 38.566406 C 153.945312 39.6875 154.667969 40.824219 155.359375 41.976562 C 156.054688 43.132812 156.71875 44.300781 157.355469 45.488281 C 157.988281 46.675781 158.597656 47.878906 159.171875 49.09375 C 159.75 50.308594 160.296875 51.539062 160.8125 52.785156 C 161.328125 54.027344 161.8125 55.28125 162.269531 56.546875 C 162.722656 57.816406 163.144531 59.09375 163.539062 60.378906 C 163.929688 61.667969 164.289062 62.964844 164.617188 64.269531 C 164.945312 65.574219 165.238281 66.886719 165.503906 68.207031 C 165.765625 69.527344 165.996094 70.851562 166.195312 72.183594 C 166.390625 73.515625 166.558594 74.851562 166.6875 76.191406 C 166.820312 77.527344 166.921875 78.871094 166.988281 80.214844 C 167.054688 81.558594 167.085938 82.902344 167.085938 84.25 Z M 167.085938 84.25 " fill-opacity="1" fill-rule="nonzero"/><path fill="#000000" d="M 165.335938 84.25 C 165.324219 92.746094 164.019531 101.113281 161.382812 109.207031 C 158.867188 116.9375 155.148438 124.246094 150.417969 130.894531 C 145.820312 137.363281 140.089844 143.304688 133.773438 148.117188 C 127.3125 153.042969 120.09375 157.039062 112.5 159.8125 C 104.550781 162.710938 96.222656 164.351562 87.796875 164.667969 C 79.269531 164.984375 70.820312 164 62.613281 161.679688 C 54.691406 159.441406 47.214844 156.011719 40.320312 151.492188 C 33.59375 147.078125 27.546875 141.636719 22.386719 135.417969 C 17.289062 129.277344 13 122.164062 9.984375 114.78125 C 6.835938 107.0625 4.863281 98.847656 4.234375 90.582031 C 3.578125 82.027344 4.242188 73.457031 6.277344 65.148438 C 8.230469 57.164062 11.367188 49.601562 15.636719 42.578125 C 19.851562 35.640625 25.070312 29.417969 31.15625 24.019531 C 37.195312 18.664062 44.074219 14.226562 51.460938 10.875 C 58.90625 7.496094 67.121094 5.226562 75.246094 4.304688 C 83.75 3.339844 92.40625 3.671875 100.753906 5.371094 C 108.886719 7.023438 116.675781 9.890625 123.902344 13.917969 C 130.988281 17.863281 137.378906 22.800781 142.992188 28.65625 C 148.605469 34.507812 153.304688 41.183594 156.949219 48.472656 C 160.628906 55.824219 163.136719 63.792969 164.414062 71.957031 C 165.042969 75.972656 165.332031 80.136719 165.339844 84.25 C 165.339844 86.5 168.839844 86.507812 168.835938 84.25 C 168.824219 75.484375 167.476562 66.699219 164.757812 58.359375 C 162.136719 50.308594 158.296875 42.644531 153.378906 35.75 C 148.429688 28.808594 142.480469 22.679688 135.714844 17.492188 C 128.992188 12.339844 121.484375 8.261719 113.535156 5.351562 C 105.328125 2.347656 96.640625 0.675781 87.910156 0.335938 C 79.085938 -0.00390625 70.179688 1.042969 61.679688 3.445312 C 53.503906 5.753906 45.660156 9.324219 38.554688 13.988281 C 31.507812 18.609375 25.140625 24.273438 19.773438 30.773438 C 14.335938 37.355469 9.941406 44.691406 6.695312 52.585938 C 3.390625 60.613281 1.414062 69.152344 0.742188 77.800781 C 0.0546875 86.625 0.785156 95.574219 2.875 104.171875 C 4.886719 112.4375 8.195312 120.417969 12.613281 127.6875 C 16.988281 134.886719 22.453125 141.445312 28.761719 147.027344 C 35.074219 152.609375 42.207031 157.269531 49.890625 160.734375 C 57.875 164.332031 66.324219 166.65625 75.019531 167.667969 C 83.855469 168.695312 92.855469 168.285156 101.574219 166.523438 C 109.960938 164.828125 118.09375 161.808594 125.574219 157.65625 C 132.945312 153.5625 139.714844 148.332031 145.539062 142.242188 C 151.367188 136.148438 156.269531 129.21875 160.019531 121.695312 C 163.851562 114.007812 166.519531 105.746094 167.820312 97.25 C 168.480469 92.945312 168.828125 88.605469 168.835938 84.25 C 168.839844 81.996094 165.339844 81.992188 165.335938 84.25 Z M 165.335938 84.25 " fill-opacity="1" fill-rule="nonzero"/><path fill="#000000" d="M 74.753906 55.691406 C 74.753906 56.527344 74.734375 57.359375 74.699219 58.1875 C 74.664062 59.019531 74.613281 59.84375 74.542969 60.660156 C 74.472656 61.480469 74.386719 62.289062 74.285156 63.085938 C 74.179688 63.882812 74.058594 64.667969 73.921875 65.4375 C 73.785156 66.210938 73.632812 66.960938 73.464844 67.699219 C 73.296875 68.433594 73.113281 69.148438 72.914062 69.839844 C 72.71875 70.535156 72.503906 71.203125 72.277344 71.847656 C 72.050781 72.492188 71.8125 73.109375 71.558594 73.699219 C 71.308594 74.289062 71.042969 74.851562 70.765625 75.378906 C 70.492188 75.90625 70.207031 76.40625 69.910156 76.867188 C 69.613281 77.332031 69.304688 77.757812 68.992188 78.152344 C 68.675781 78.546875 68.355469 78.902344 68.023438 79.222656 C 67.695312 79.539062 67.359375 79.820312 67.015625 80.0625 C 66.675781 80.304688 66.328125 80.507812 65.980469 80.671875 C 65.628906 80.832031 65.277344 80.957031 64.921875 81.039062 C 64.566406 81.117188 64.210938 81.160156 63.851562 81.160156 C 63.496094 81.160156 63.140625 81.117188 62.785156 81.039062 C 62.429688 80.957031 62.074219 80.832031 61.726562 80.671875 C 61.375 80.507812 61.03125 80.304688 60.6875 80.0625 C 60.347656 79.820312 60.011719 79.539062 59.679688 79.222656 C 59.351562 78.902344 59.027344 78.546875 58.714844 78.152344 C 58.398438 77.757812 58.09375 77.332031 57.796875 76.867188 C 57.5 76.40625 57.214844 75.90625 56.9375 75.378906 C 56.660156 74.851562 56.398438 74.289062 56.144531 73.699219 C 55.890625 73.109375 55.652344 72.492188 55.425781 71.847656 C 55.199219 71.203125 54.988281 70.535156 54.789062 69.839844 C 54.589844 69.148438 54.40625 68.433594 54.238281 67.699219 C 54.070312 66.960938 53.917969 66.210938 53.78125 65.4375 C 53.644531 64.667969 53.523438 63.882812 53.421875 63.085938 C 53.316406 62.289062 53.230469 61.480469 53.160156 60.660156 C 53.089844 59.84375 53.039062 59.019531 53.003906 58.1875 C 52.96875 57.359375 52.953125 56.527344 52.953125 55.691406 C 52.953125 54.859375 52.96875 54.027344 53.003906 53.195312 C 53.039062 52.367188 53.089844 51.542969 53.160156 50.722656 C 53.230469 49.90625 53.316406 49.097656 53.421875 48.300781 C 53.523438 47.503906 53.644531 46.71875 53.78125 45.945312 C 53.917969 45.175781 54.070312 44.421875 54.238281 43.6875 C 54.40625 42.953125 54.589844 42.238281 54.789062 41.542969 C 54.988281 40.851562 55.199219 40.179688 55.425781 39.535156 C 55.652344 38.890625 55.890625 38.273438 56.144531 37.683594 C 56.398438 37.09375 56.660156 36.535156 56.9375 36.007812 C 57.214844 35.476562 57.5 34.980469 57.796875 34.519531 C 58.09375 34.054688 58.398438 33.625 58.714844 33.234375 C 59.027344 32.839844 59.351562 32.484375 59.679688 32.164062 C 60.011719 31.84375 60.347656 31.566406 60.6875 31.324219 C 61.03125 31.082031 61.375 30.878906 61.726562 30.714844 C 62.074219 30.550781 62.429688 30.429688 62.785156 30.347656 C 63.140625 30.265625 63.496094 30.226562 63.851562 30.226562 C 64.210938 30.226562 64.566406 30.265625 64.921875 30.347656 C 65.277344 30.429688 65.628906 30.550781 65.980469 30.714844 C 66.328125 30.878906 66.675781 31.082031 67.015625 31.324219 C 67.359375 31.566406 67.695312 31.84375 68.023438 32.164062 C 68.355469 32.484375 68.675781 32.839844 68.992188 33.234375 C 69.304688 33.625 69.613281 34.054688 69.910156 34.519531 C 70.207031 34.980469 70.492188 35.476562 70.765625 36.007812 C 71.042969 36.535156 71.308594 37.09375 71.558594 37.683594 C 71.8125 38.273438 72.050781 38.890625 72.277344 39.535156 C 72.503906 40.179688 72.71875 40.851562 72.914062 41.542969 C 73.113281 42.238281 73.296875 42.953125 73.464844 43.6875 C 73.632812 44.421875 73.785156 45.175781 73.921875 45.945312 C 74.058594 46.71875 74.179688 47.503906 74.285156 48.300781 C 74.386719 49.097656 74.472656 49.90625 74.542969 50.722656 C 74.613281 51.542969 74.664062 52.367188 74.699219 53.195312 C 74.734375 54.027344 74.753906 54.859375 74.753906 55.691406 Z M 74.753906 55.691406 " fill-opacity="1" fill-rule="nonzero"/><path fill="#000000" d="M 116.375 55.691406 C 116.375 56.527344 116.359375 57.359375 116.324219 58.1875 C 116.289062 59.019531 116.234375 59.84375 116.167969 60.660156 C 116.097656 61.480469 116.011719 62.289062 115.90625 63.085938 C 115.804688 63.882812 115.683594 64.667969 115.546875 65.4375 C 115.410156 66.210938 115.257812 66.960938 115.089844 67.699219 C 114.921875 68.433594 114.738281 69.148438 114.539062 69.839844 C 114.339844 70.535156 114.128906 71.203125 113.902344 71.847656 C 113.675781 72.492188 113.4375 73.109375 113.183594 73.699219 C 112.929688 74.289062 112.667969 74.851562 112.390625 75.378906 C 112.113281 75.90625 111.828125 76.40625 111.53125 76.867188 C 111.234375 77.332031 110.929688 77.757812 110.613281 78.152344 C 110.300781 78.546875 109.976562 78.902344 109.648438 79.222656 C 109.316406 79.539062 108.980469 79.820312 108.640625 80.0625 C 108.296875 80.304688 107.953125 80.507812 107.601562 80.671875 C 107.25 80.832031 106.898438 80.957031 106.542969 81.039062 C 106.1875 81.117188 105.832031 81.160156 105.476562 81.160156 C 105.117188 81.160156 104.761719 81.117188 104.40625 81.039062 C 104.050781 80.957031 103.699219 80.832031 103.347656 80.671875 C 103 80.507812 102.652344 80.304688 102.3125 80.0625 C 101.96875 79.820312 101.632812 79.539062 101.304688 79.222656 C 100.972656 78.902344 100.652344 78.546875 100.335938 78.152344 C 100.023438 77.757812 99.714844 77.332031 99.417969 76.867188 C 99.121094 76.40625 98.835938 75.90625 98.558594 75.378906 C 98.285156 74.851562 98.019531 74.289062 97.765625 73.699219 C 97.515625 73.109375 97.277344 72.492188 97.050781 71.847656 C 96.824219 71.203125 96.609375 70.535156 96.410156 69.839844 C 96.214844 69.148438 96.03125 68.433594 95.863281 67.699219 C 95.695312 66.960938 95.542969 66.210938 95.40625 65.4375 C 95.269531 64.667969 95.148438 63.882812 95.042969 63.085938 C 94.941406 62.289062 94.855469 61.480469 94.785156 60.660156 C 94.714844 59.84375 94.664062 59.019531 94.628906 58.1875 C 94.59375 57.359375 94.574219 56.527344 94.574219 55.691406 C 94.574219 54.859375 94.59375 54.027344 94.628906 53.195312 C 94.664062 52.367188 94.714844 51.542969 94.785156 50.722656 C 94.855469 49.90625 94.941406 49.097656 95.042969 48.300781 C 95.148438 47.503906 95.269531 46.71875 95.40625 45.945312 C 95.542969 45.175781 95.695312 44.421875 95.863281 43.6875 C 96.03125 42.953125 96.214844 42.238281 96.410156 41.542969 C 96.609375 40.851562 96.824219 40.179688 97.050781 39.535156 C 97.277344 38.890625 97.515625 38.273438 97.765625 37.683594 C 98.019531 37.09375 98.285156 36.535156 98.558594 36.007812 C 98.835938 35.476562 99.121094 34.980469 99.417969 34.519531 C 99.714844 34.054688 100.023438 33.625 100.335938 33.234375 C 100.652344 32.839844 100.972656 32.484375 101.304688 32.164062 C 101.632812 31.84375 101.96875 31.566406 102.3125 31.324219 C 102.652344 31.082031 103 30.878906 103.347656 30.714844 C 103.699219 30.550781 104.050781 30.429688 104.40625 30.347656 C 104.761719 30.265625 105.117188 30.226562 105.476562 30.226562 C 105.832031 30.226562 106.1875 30.265625 106.542969 30.347656 C 106.898438 30.429688 107.25 30.550781 107.601562 30.714844 C 107.953125 30.878906 108.296875 31.082031 108.640625 31.324219 C 108.980469 31.566406 109.316406 31.84375 109.648438 32.164062 C 109.976562 32.484375 110.300781 32.839844 110.613281 33.234375 C 110.929688 33.625 111.234375 34.054688 111.53125 34.519531 C 111.828125 34.980469 112.113281 35.476562 112.390625 36.007812 C 112.667969 36.535156 112.929688 37.09375 113.183594 37.683594 C 113.4375 38.273438 113.675781 38.890625 113.902344 39.535156 C 114.128906 40.179688 114.339844 40.851562 114.539062 41.542969 C 114.738281 42.238281 114.921875 42.953125 115.089844 43.6875 C 115.257812 44.421875 115.410156 45.175781 115.546875 45.945312 C 115.683594 46.71875 115.804688 47.503906 115.90625 48.300781 C 116.011719 49.097656 116.097656 49.90625 116.167969 50.722656 C 116.234375 51.542969 116.289062 52.367188 116.324219 53.195312 C 116.359375 54.027344 116.375 54.859375 116.375 55.691406 Z M 116.375 55.691406 " fill-opacity="1" fill-rule="nonzero"/><path fill="#000000" d="M 130.476562 94.1875 C 130.476562 95.441406 130.425781 96.691406 130.328125 97.945312 C 130.277344 98.546875 130.21875 99.144531 130.144531 99.746094 C 130.128906 99.890625 130.097656 100.042969 130.089844 100.191406 C 130.101562 99.890625 130.109375 100.03125 130.082031 100.230469 C 130.039062 100.546875 129.988281 100.859375 129.9375 101.175781 C 129.554688 103.488281 128.988281 105.769531 128.234375 107.988281 C 128.050781 108.523438 127.855469 109.058594 127.652344 109.589844 C 127.550781 109.851562 127.445312 110.117188 127.335938 110.378906 C 127.3125 110.433594 127.289062 110.488281 127.269531 110.546875 C 127.179688 110.769531 127.398438 110.242188 127.304688 110.460938 C 127.238281 110.609375 127.175781 110.757812 127.113281 110.90625 C 126.660156 111.929688 126.167969 112.9375 125.636719 113.921875 C 125.097656 114.917969 124.519531 115.890625 123.898438 116.839844 C 123.597656 117.300781 123.285156 117.757812 122.964844 118.210938 C 122.804688 118.4375 122.640625 118.660156 122.476562 118.882812 C 122.40625 118.976562 122.335938 119.070312 122.265625 119.167969 C 122.164062 119.300781 121.964844 119.605469 122.179688 119.28125 C 121.570312 120.203125 120.746094 121.046875 120.003906 121.859375 C 119.257812 122.675781 118.476562 123.464844 117.671875 124.222656 C 116.84375 124.992188 115.988281 125.734375 115.109375 126.441406 C 115 126.527344 114.890625 126.613281 114.78125 126.699219 C 114.730469 126.738281 114.421875 126.972656 114.628906 126.820312 C 114.84375 126.660156 114.476562 126.933594 114.425781 126.972656 C 114.296875 127.070312 114.167969 127.164062 114.039062 127.257812 C 113.589844 127.589844 113.132812 127.914062 112.671875 128.230469 C 110.785156 129.515625 108.800781 130.65625 106.75 131.652344 C 106.214844 131.910156 105.675781 132.160156 105.132812 132.398438 C 105.019531 132.449219 104.90625 132.496094 104.792969 132.546875 C 104.71875 132.578125 104.644531 132.617188 104.566406 132.644531 C 104.570312 132.640625 104.886719 132.511719 104.703125 132.585938 C 104.414062 132.703125 104.128906 132.824219 103.84375 132.9375 C 102.761719 133.363281 101.664062 133.753906 100.554688 134.105469 C 98.273438 134.832031 95.9375 135.390625 93.578125 135.796875 C 93.28125 135.847656 92.980469 135.894531 92.683594 135.941406 C 92.535156 135.964844 92.382812 135.988281 92.234375 136.007812 C 92.117188 136.027344 91.582031 136.082031 92.054688 136.035156 C 91.449219 136.09375 90.84375 136.1875 90.238281 136.246094 C 89.007812 136.371094 87.773438 136.449219 86.539062 136.492188 C 84.011719 136.574219 81.476562 136.492188 78.957031 136.234375 C 78.675781 136.207031 78.394531 136.175781 78.113281 136.140625 C 77.960938 136.125 77.808594 136.105469 77.660156 136.085938 C 77.59375 136.078125 77.53125 136.070312 77.464844 136.0625 C 77.222656 136.03125 77.28125 136.003906 77.480469 136.0625 C 76.921875 135.894531 76.261719 135.882812 75.6875 135.785156 C 74.507812 135.582031 73.335938 135.339844 72.175781 135.058594 C 69.859375 134.496094 67.582031 133.773438 65.371094 132.890625 C 65.121094 132.792969 64.875 132.6875 64.625 132.585938 C 64.441406 132.511719 64.757812 132.644531 64.761719 132.644531 C 64.683594 132.617188 64.609375 132.578125 64.53125 132.546875 C 64.382812 132.480469 64.230469 132.414062 64.082031 132.347656 C 63.558594 132.117188 63.039062 131.875 62.523438 131.625 C 61.503906 131.128906 60.5 130.59375 59.515625 130.027344 C 58.523438 129.453125 57.550781 128.839844 56.605469 128.195312 C 56.144531 127.878906 55.6875 127.554688 55.238281 127.222656 C 55.125 127.140625 55.015625 127.058594 54.902344 126.972656 C 54.835938 126.921875 54.5 126.671875 54.699219 126.820312 C 54.910156 126.976562 54.542969 126.695312 54.5 126.664062 C 54.375 126.566406 54.25 126.464844 54.125 126.367188 C 52.382812 124.960938 50.75 123.425781 49.242188 121.773438 C 48.871094 121.363281 48.507812 120.949219 48.152344 120.523438 C 47.988281 120.328125 47.824219 120.128906 47.664062 119.929688 C 47.578125 119.824219 47.488281 119.714844 47.40625 119.609375 C 47.363281 119.558594 47.054688 119.164062 47.214844 119.363281 C 47.367188 119.5625 47.109375 119.230469 47.0625 119.164062 C 46.980469 119.054688 46.894531 118.945312 46.8125 118.832031 C 46.648438 118.609375 46.488281 118.386719 46.328125 118.160156 C 45.996094 117.695312 45.675781 117.21875 45.363281 116.738281 C 44.136719 114.847656 43.066406 112.859375 42.167969 110.792969 C 42.109375 110.664062 42.050781 110.535156 42 110.40625 C 42.101562 110.675781 42.066406 110.5625 41.992188 110.375 C 41.875 110.097656 41.761719 109.816406 41.65625 109.53125 C 41.449219 109 41.257812 108.464844 41.074219 107.929688 C 40.699219 106.820312 40.371094 105.695312 40.085938 104.554688 C 39.804688 103.417969 39.570312 102.269531 39.378906 101.113281 C 39.332031 100.816406 39.285156 100.523438 39.246094 100.230469 C 39.234375 100.167969 39.226562 100.105469 39.21875 100.039062 C 39.183594 99.792969 39.261719 100.375 39.230469 100.125 C 39.210938 99.976562 39.191406 99.828125 39.175781 99.679688 C 39.101562 99.058594 39.039062 98.433594 38.992188 97.8125 C 38.898438 96.605469 38.851562 95.394531 38.851562 94.183594 C 38.847656 93.269531 38.046875 92.390625 37.101562 92.433594 C 36.15625 92.476562 35.351562 93.203125 35.351562 94.183594 C 35.359375 99.191406 36.117188 104.230469 37.738281 108.972656 C 39.308594 113.566406 41.628906 117.828125 44.601562 121.664062 C 47.46875 125.359375 50.933594 128.542969 54.789062 131.183594 C 58.769531 133.910156 63.191406 136 67.78125 137.460938 C 72.625 139.003906 77.710938 139.824219 82.785156 139.992188 C 87.9375 140.160156 93.136719 139.640625 98.144531 138.417969 C 102.855469 137.265625 107.4375 135.453125 111.632812 133.015625 C 115.695312 130.660156 119.441406 127.683594 122.597656 124.203125 C 125.753906 120.722656 128.367188 116.757812 130.230469 112.449219 C 132.238281 107.808594 133.433594 102.917969 133.832031 97.875 C 133.929688 96.648438 133.976562 95.417969 133.976562 94.183594 C 133.980469 93.269531 133.171875 92.390625 132.226562 92.433594 C 131.277344 92.476562 130.480469 93.203125 130.476562 94.183594 Z M 130.476562 94.1875 " fill-opacity="1" fill-rule="nonzero"/></svg>