<svg xmlns="http://www.w3.org/2000/svg" xmlns:xlink="http://www.w3.org/1999/xlink" width="216" zoomAndPan="magnify" viewBox="0 0 162 161.999997" height="216" preserveAspectRatio="xMidYMid meet" version="1.0"><path fill="#e2e1df" d="M 152.859375 159.300781 L 8.359375 159.300781 C 5.15625 159.300781 2.664062 156.527344 2.992188 153.34375 L 18.0625 7.542969 C 18.347656 4.792969 20.664062 2.699219 23.429688 2.699219 L 137.789062 2.699219 C 138.539062 2.699219 139.257812 2.855469 139.914062 3.136719 C 141.664062 3.886719 142.949219 5.542969 143.152344 7.542969 L 158.222656 153.34375 C 158.554688 156.527344 156.058594 159.300781 152.859375 159.300781 " fill-opacity="1" fill-rule="nonzero"/><path fill="#22703b" d="M 146.277344 37.800781 L 14.9375 37.800781 L 18.0625 7.542969 C 18.347656 4.792969 20.664062 2.699219 23.429688 2.699219 L 137.789062 2.699219 C 138.539062 2.699219 139.257812 2.855469 139.914062 3.136719 C 141.664062 3.886719 142.949219 5.542969 143.152344 7.542969 L 146.277344 37.800781 " fill-opacity="1" fill-rule="nonzero"/><path fill="#bdbcba" d="M 154.933594 121.5 L 6.285156 121.5 L 6.84375 116.101562 L 154.371094 116.101562 L 154.933594 121.5 " fill-opacity="1" fill-rule="nonzero"/><path fill="#bdbcba" d="M 150.742188 81 L 10.472656 81 L 11.027344 75.601562 L 150.1875 75.601562 L 150.742188 81 " fill-opacity="1" fill-rule="nonzero"/><path fill="#e2e1df" d="M 96.792969 21.601562 L 59.027344 21.601562 L 59.027344 16.199219 L 96.792969 16.199219 L 96.792969 21.601562 " fill-opacity="1" fill-rule="nonzero"/><path fill="#878888" d="M 152.859375 159.300781 L 123.769531 159.300781 L 139.914062 3.136719 C 141.664062 3.886719 142.949219 5.542969 143.152344 7.542969 L 158.222656 153.34375 C 158.554688 156.527344 156.058594 159.300781 152.859375 159.300781 " fill-opacity="1" fill-rule="nonzero"/><path fill="#7ecb4f" d="M 29.351562 68.617188 L 22.050781 61.308594 L 25.863281 57.492188 L 29.351562 60.980469 L 43.632812 46.691406 L 47.445312 50.507812 L 29.351562 68.617188 " fill-opacity="1" fill-rule="nonzero"/><path fill="#bdbcba" d="M 99.507812 37.800781 L 86.019531 159.300781 L 80.589844 159.300781 L 94.078125 37.800781 L 99.507812 37.800781 " fill-opacity="1" fill-rule="nonzero"/><path fill="#bdbcba" d="M 59.042969 37.800781 L 45.554688 159.300781 L 40.125 159.300781 L 53.613281 37.800781 L 59.042969 37.800781 " fill-opacity="1" fill-rule="nonzero"/><path fill="#7ecb4f" d="M 69.816406 68.617188 L 62.515625 61.308594 L 66.328125 57.492188 L 69.816406 60.980469 L 84.097656 46.691406 L 87.910156 50.507812 L 69.816406 68.617188 " fill-opacity="1" fill-rule="nonzero"/><path fill="#7ecb4f" d="M 110.28125 68.617188 L 102.980469 61.308594 L 106.792969 57.492188 L 110.28125 60.980469 L 124.5625 46.691406 L 128.375 50.507812 L 110.28125 68.617188 " fill-opacity="1" fill-rule="nonzero"/><path fill="#7ecb4f" d="M 23.957031 109.117188 L 16.65625 101.808594 L 20.46875 97.992188 L 23.957031 101.480469 L 38.234375 87.191406 L 42.050781 91.007812 L 23.957031 109.117188 " fill-opacity="1" fill-rule="nonzero"/><path fill="#7ecb4f" d="M 64.421875 109.117188 L 57.121094 101.808594 L 60.933594 97.992188 L 64.421875 101.480469 L 78.699219 87.191406 L 82.515625 91.007812 L 64.421875 109.117188 " fill-opacity="1" fill-rule="nonzero"/><path fill="#7ecb4f" d="M 104.886719 109.117188 L 97.585938 101.808594 L 101.398438 97.992188 L 104.886719 101.480469 L 119.164062 87.191406 L 122.980469 91.007812 L 104.886719 109.117188 " fill-opacity="1" fill-rule="nonzero"/><path fill="#7ecb4f" d="M 18.5625 149.617188 L 11.257812 142.308594 L 15.074219 138.492188 L 18.5625 141.980469 L 32.839844 127.691406 L 36.65625 131.507812 L 18.5625 149.617188 " fill-opacity="1" fill-rule="nonzero"/><path fill="#173a22" d="M 118.375 18.898438 C 118.375 21.882812 115.960938 24.300781 112.980469 24.300781 C 110 24.300781 107.585938 21.882812 107.585938 18.898438 C 107.585938 15.917969 110 13.5 112.980469 13.5 C 115.960938 13.5 118.375 15.917969 118.375 18.898438 " fill-opacity="1" fill-rule="nonzero"/><path fill="#173a22" d="M 112.941406 2.699219 L 111.175781 18.597656 L 116.621094 18.628906 L 118.414062 2.699219 L 112.941406 2.699219 " fill-opacity="1" fill-rule="nonzero"/><path fill="#173a22" d="M 48.234375 18.898438 C 48.234375 21.882812 45.820312 24.300781 42.839844 24.300781 C 39.863281 24.300781 37.445312 21.882812 37.445312 18.898438 C 37.445312 15.917969 39.863281 13.5 42.839844 13.5 C 45.820312 13.5 48.234375 15.917969 48.234375 18.898438 " fill-opacity="1" fill-rule="nonzero"/><path fill="#173a22" d="M 42.804688 2.699219 L 41.125 18.585938 L 46.457031 18.582031 L 48.273438 2.699219 L 42.804688 2.699219 " fill-opacity="1" fill-rule="nonzero"/><path fill="#80492e" d="M 69.816406 145.800781 L 61.722656 140.398438 L 69.816406 135 L 139.957031 135 C 142.9375 135 145.351562 137.417969 145.351562 140.398438 C 145.351562 143.382812 142.9375 145.800781 139.957031 145.800781 L 69.816406 145.800781 " fill-opacity="1" fill-rule="nonzero"/><path fill="#6d3a26" d="M 131.863281 145.800781 L 131.863281 135 L 139.957031 135 C 142.9375 135 145.351562 137.417969 145.351562 140.398438 C 145.351562 143.382812 142.9375 145.800781 139.957031 145.800781 L 131.863281 145.800781 " fill-opacity="1" fill-rule="nonzero"/><path fill="#6d3a26" d="M 67.121094 143.101562 L 53.632812 143.101562 L 53.632812 137.699219 L 67.121094 137.699219 L 67.121094 143.101562 " fill-opacity="1" fill-rule="nonzero"/><path fill="#100f0d" d="M 59.027344 21.601562 L 96.792969 21.601562 L 96.792969 16.199219 L 59.027344 16.199219 L 59.027344 21.601562 " fill-opacity="1" fill-rule="nonzero"/><path fill="#100f0d" d="M 134.5625 143.101562 L 134.5625 137.699219 L 139.957031 137.699219 C 141.445312 137.699219 142.652344 138.910156 142.652344 140.398438 C 142.652344 141.886719 141.445312 143.101562 139.957031 143.101562 Z M 154.859375 155.707031 C 154.34375 156.285156 153.632812 156.601562 152.855469 156.601562 L 126.761719 156.601562 L 127.597656 148.5 L 139.957031 148.5 C 144.417969 148.5 148.050781 144.867188 148.050781 140.398438 C 148.050781 135.933594 144.417969 132.300781 139.957031 132.300781 L 129.273438 132.300781 L 141.304688 15.890625 L 155.542969 153.621094 C 155.621094 154.394531 155.378906 155.132812 154.859375 155.707031 Z M 121.335938 156.601562 L 86.320312 156.601562 L 87.21875 148.5 L 122.175781 148.5 Z M 80.890625 156.601562 L 45.855469 156.601562 L 49.75 121.5 L 84.789062 121.5 L 83.589844 132.300781 L 69 132.300781 L 60.90625 137.699219 L 53.632812 137.699219 L 53.632812 143.101562 L 60.90625 143.101562 L 69 148.5 L 81.789062 148.5 Z M 9.554688 116.101562 L 13.179688 81 L 48.820312 81 L 44.921875 116.101562 Z M 40.425781 156.601562 L 8.359375 156.601562 C 7.585938 156.601562 6.875 156.285156 6.355469 155.707031 C 5.835938 155.132812 5.59375 154.394531 5.675781 153.621094 L 8.996094 121.5 L 44.324219 121.5 Z M 17.367188 40.5 L 53.316406 40.5 L 49.417969 75.601562 L 13.738281 75.601562 Z M 95.3125 75.601562 L 99.207031 40.5 L 133.335938 40.5 L 129.710938 75.601562 Z M 129.164062 137.699219 L 129.164062 143.101562 L 70.632812 143.101562 L 66.585938 140.398438 L 70.632812 137.699219 Z M 89.285156 81 L 85.386719 116.101562 L 50.351562 116.101562 L 54.25 81 Z M 89.882812 75.601562 L 54.847656 75.601562 L 58.742188 40.5 L 93.78125 40.5 Z M 124.964844 121.5 L 123.851562 132.300781 L 89.015625 132.300781 L 90.214844 121.5 Z M 90.816406 116.101562 L 94.710938 81 L 129.152344 81 L 125.523438 116.101562 Z M 20.746094 7.820312 C 20.886719 6.441406 22.039062 5.398438 23.429688 5.398438 L 42.523438 5.398438 L 41.917969 10.855469 C 37.890625 11.3125 34.746094 14.746094 34.746094 18.898438 C 34.746094 23.367188 38.378906 27 42.839844 27 C 47.304688 27 50.933594 23.367188 50.933594 18.898438 C 50.933594 16.042969 49.449219 13.53125 47.210938 12.089844 L 47.953125 5.398438 L 112.664062 5.398438 L 112.058594 10.855469 C 108.027344 11.3125 104.886719 14.746094 104.886719 18.898438 C 104.886719 23.367188 108.515625 27 112.980469 27 C 117.441406 27 121.074219 23.367188 121.074219 18.898438 C 121.074219 16.042969 119.585938 13.53125 117.351562 12.089844 L 118.09375 5.398438 L 136.964844 5.398438 L 133.894531 35.101562 L 17.925781 35.101562 Z M 45.539062 18.898438 C 45.539062 20.386719 44.328125 21.601562 42.839844 21.601562 C 41.355469 21.601562 40.144531 20.386719 40.144531 18.898438 C 40.144531 17.410156 41.355469 16.199219 42.839844 16.199219 C 44.328125 16.199219 45.539062 17.410156 45.539062 18.898438 Z M 115.675781 18.898438 C 115.675781 20.386719 114.46875 21.601562 112.980469 21.601562 C 111.492188 21.601562 110.28125 20.386719 110.28125 18.898438 C 110.28125 17.410156 111.492188 16.199219 112.980469 16.199219 C 114.46875 16.199219 115.675781 17.410156 115.675781 18.898438 Z M 160.90625 153.066406 L 145.835938 7.265625 C 145.410156 3.125 141.949219 0 137.789062 0 L 23.429688 0 C 19.265625 0 15.804688 3.125 15.378906 7.265625 L 0.308594 153.066406 C 0.0742188 155.34375 0.816406 157.625 2.347656 159.324219 C 3.878906 161.023438 6.070312 162 8.359375 162 L 152.855469 162 C 155.144531 162 157.335938 161.023438 158.867188 159.324219 C 160.398438 157.625 161.144531 155.34375 160.90625 153.066406 " fill-opacity="1" fill-rule="nonzero"/><path fill="#100f0d" d="M 29.351562 60.980469 L 25.863281 57.492188 L 22.050781 61.308594 L 29.351562 68.617188 L 47.445312 50.507812 L 43.632812 46.691406 L 29.351562 60.980469 " fill-opacity="1" fill-rule="nonzero"/><path fill="#100f0d" d="M 87.910156 50.507812 L 84.097656 46.691406 L 69.816406 60.980469 L 66.328125 57.492188 L 62.515625 61.308594 L 69.816406 68.617188 L 87.910156 50.507812 " fill-opacity="1" fill-rule="nonzero"/><path fill="#100f0d" d="M 110.28125 60.980469 L 106.792969 57.492188 L 102.980469 61.308594 L 110.28125 68.617188 L 128.375 50.507812 L 124.5625 46.691406 L 110.28125 60.980469 " fill-opacity="1" fill-rule="nonzero"/><path fill="#100f0d" d="M 23.957031 101.480469 L 20.46875 97.992188 L 16.65625 101.808594 L 23.957031 109.117188 L 42.050781 91.007812 L 38.234375 87.191406 L 23.957031 101.480469 " fill-opacity="1" fill-rule="nonzero"/><path fill="#100f0d" d="M 82.515625 91.007812 L 78.699219 87.191406 L 64.421875 101.480469 L 60.933594 97.992188 L 57.121094 101.808594 L 64.421875 109.117188 L 82.515625 91.007812 " fill-opacity="1" fill-rule="nonzero"/><path fill="#100f0d" d="M 104.886719 101.480469 L 101.398438 97.992188 L 97.585938 101.808594 L 104.886719 109.117188 L 122.980469 91.007812 L 119.164062 87.191406 L 104.886719 101.480469 " fill-opacity="1" fill-rule="nonzero"/><path fill="#100f0d" d="M 36.65625 131.507812 L 32.839844 127.691406 L 18.5625 141.980469 L 15.074219 138.492188 L 11.257812 142.308594 L 18.5625 149.617188 L 36.65625 131.507812 " fill-opacity="1" fill-rule="nonzero"/></svg>