<svg xmlns="http://www.w3.org/2000/svg" xmlns:xlink="http://www.w3.org/1999/xlink" width="36" zoomAndPan="magnify" viewBox="0 0 26.88 26.999998" height="36" preserveAspectRatio="xMidYMid meet" version="1.0"><defs><clipPath id="ede53ea7a7"><path d="M 0 0.0585938 L 26.148438 0.0585938 L 26.148438 26.210938 L 0 26.210938 Z M 0 0.0585938 " clip-rule="nonzero"/></clipPath><clipPath id="5e5be15625"><path d="M 13.074219 0.0585938 C 5.855469 0.0585938 0 5.914062 0 13.136719 C 0 20.355469 5.855469 26.210938 13.074219 26.210938 C 20.296875 26.210938 26.148438 20.355469 26.148438 13.136719 C 26.148438 5.914062 20.296875 0.0585938 13.074219 0.0585938 Z M 13.074219 0.0585938 " clip-rule="nonzero"/></clipPath><clipPath id="b3d7008477"><path d="M 0 0.0585938 L 26.132812 0.0585938 L 26.132812 26.191406 L 0 26.191406 Z M 0 0.0585938 " clip-rule="nonzero"/></clipPath><clipPath id="e8bdc5d97f"><path d="M 13.074219 0.0585938 C 5.851562 0.0585938 0 5.914062 0 13.132812 C 0 20.351562 5.851562 26.203125 13.074219 26.203125 C 20.292969 26.203125 26.144531 20.351562 26.144531 13.132812 C 26.144531 5.914062 20.292969 0.0585938 13.074219 0.0585938 Z M 13.074219 0.0585938 " clip-rule="nonzero"/></clipPath><clipPath id="ea30afe8db"><path d="M 3.214844 2.71875 L 22.964844 2.71875 L 22.964844 21.515625 L 3.214844 21.515625 Z M 3.214844 2.71875 " clip-rule="nonzero"/></clipPath><clipPath id="4ac46c2b70"><path d="M 13.074219 2.71875 L 15.402344 9.898438 L 22.933594 9.898438 L 16.839844 14.335938 L 19.167969 21.515625 L 13.074219 17.078125 L 6.980469 21.515625 L 9.308594 14.335938 L 3.214844 9.898438 L 10.746094 9.898438 Z M 13.074219 2.71875 " clip-rule="nonzero"/></clipPath></defs><g clip-path="url(#ede53ea7a7)"><g clip-path="url(#5e5be15625)"><path fill="#fda461" d="M 0 0.0585938 L 26.148438 0.0585938 L 26.148438 26.210938 L 0 26.210938 Z M 0 0.0585938 " fill-opacity="1" fill-rule="nonzero"/></g></g><g clip-path="url(#b3d7008477)"><g clip-path="url(#e8bdc5d97f)"><path stroke-linecap="butt" transform="matrix(0.746667, 0, 0, 0.746667, 0.000000000000010611, 0.059998)" fill="none" stroke-linejoin="miter" d="M 17.510115 -0.0018807 C 7.836914 -0.0018807 -0.000000000000014211 7.840265 -0.000000000000014211 17.508234 C -0.000000000000014211 27.176204 7.836914 35.013118 17.510115 35.013118 C 27.178084 35.013118 35.014999 27.176204 35.014999 17.508234 C 35.014999 7.840265 27.178084 -0.0018807 17.510115 -0.0018807 Z M 17.510115 -0.0018807 " stroke="#000000" stroke-width="2" stroke-opacity="1" stroke-miterlimit="4"/></g></g><g clip-path="url(#ea30afe8db)"><g clip-path="url(#4ac46c2b70)"><path fill="#491802" d="M 3.214844 2.71875 L 22.964844 2.71875 L 22.964844 21.515625 L 3.214844 21.515625 Z M 3.214844 2.71875 " fill-opacity="1" fill-rule="nonzero"/></g></g></svg>