<svg xmlns="http://www.w3.org/2000/svg" xmlns:xlink="http://www.w3.org/1999/xlink" width="203" zoomAndPan="magnify" viewBox="0 0 152.25 191.999996" height="256" preserveAspectRatio="xMidYMid meet" version="1.0"><defs><clipPath id="617b77619d"><path d="M 0 0.46875 L 151.503906 0.46875 L 151.503906 191.527344 L 0 191.527344 Z M 0 0.46875 " clip-rule="nonzero"/></clipPath><clipPath id="e656309cde"><path d="M 6.539062 3.644531 L 147.988281 3.644531 L 147.988281 185 L 6.539062 185 Z M 6.539062 3.644531 " clip-rule="nonzero"/></clipPath><clipPath id="a3b264851b"><path d="M 16.054688 12.488281 L 137.777344 12.488281 L 137.777344 140.867188 L 16.054688 140.867188 Z M 16.054688 12.488281 " clip-rule="nonzero"/></clipPath><clipPath id="450e9a45b9"><path d="M 16.800781 12.488281 L 137.03125 12.488281 C 137.230469 12.488281 137.421875 12.566406 137.558594 12.707031 C 137.699219 12.84375 137.777344 13.035156 137.777344 13.234375 L 137.777344 139.800781 C 137.777344 140 137.699219 140.1875 137.558594 140.328125 C 137.421875 140.46875 137.230469 140.546875 137.03125 140.546875 L 16.800781 140.546875 C 16.605469 140.546875 16.414062 140.46875 16.273438 140.328125 C 16.136719 140.1875 16.054688 140 16.054688 139.800781 L 16.054688 13.234375 C 16.054688 13.035156 16.136719 12.84375 16.273438 12.707031 C 16.414062 12.566406 16.605469 12.488281 16.800781 12.488281 Z M 16.800781 12.488281 " clip-rule="nonzero"/></clipPath><clipPath id="5979573289"><path d="M 25.574219 29.042969 L 129 29.042969 L 129 119.824219 L 25.574219 119.824219 Z M 25.574219 29.042969 " clip-rule="nonzero"/></clipPath><clipPath id="6244e97bc4"><path d="M 29.671875 43.835938 C 21.292969 57.640625 27.195312 71.078125 34.613281 78.207031 L 77.992188 119.824219 L 120.453125 78.355469 C 127.351562 70.683594 130 62.546875 128.527344 53.488281 C 126.5 40.953125 116.171875 31.226562 103.410156 29.839844 C 95.585938 28.996094 88.023438 31.210938 82.125 36.113281 C 80.535156 37.433594 79.117188 38.90625 77.878906 40.511719 C 76.410156 38.683594 74.691406 37.015625 72.746094 35.535156 C 65.960938 30.378906 57.320312 28.332031 49.027344 29.925781 C 41.167969 31.441406 34.117188 36.511719 29.671875 43.835938 Z M 29.671875 43.835938 " clip-rule="nonzero"/></clipPath><clipPath id="965eaf2112"><path d="M 29.207031 32.578125 L 125 32.578125 L 125 116.652344 L 29.207031 116.652344 Z M 29.207031 32.578125 " clip-rule="nonzero"/></clipPath><clipPath id="622be63252"><path d="M 33 46.277344 C 25.242188 59.0625 30.707031 71.507812 37.578125 78.113281 L 77.75 116.652344 L 117.074219 78.25 C 123.464844 71.144531 125.914062 63.609375 124.554688 55.21875 C 122.675781 43.609375 113.109375 34.601562 101.289062 33.316406 C 94.042969 32.535156 87.042969 34.585938 81.578125 39.128906 C 80.105469 40.347656 78.792969 41.714844 77.648438 43.199219 C 76.289062 41.507812 74.691406 39.964844 72.890625 38.59375 C 66.605469 33.816406 58.609375 31.921875 50.925781 33.394531 C 43.648438 34.800781 37.117188 39.496094 33 46.277344 Z M 33 46.277344 " clip-rule="nonzero"/></clipPath></defs><g clip-path="url(#617b77619d)"><path fill="#000000" d="M 131.539062 0.46875 L 20.015625 0.46875 C 9.027344 0.46875 0.0976562 9.445312 0.0976562 20.46875 L 0.0976562 188.441406 C 0.0976562 189.855469 0.847656 191.167969 2.058594 191.890625 C 3.277344 192.609375 4.773438 192.625 6.019531 191.9375 L 75.777344 153.023438 L 145.539062 191.9375 C 146.144531 192.273438 146.804688 192.441406 147.472656 192.441406 C 148.175781 192.441406 148.875 192.257812 149.496094 191.890625 C 150.707031 191.167969 151.457031 189.855469 151.457031 188.441406 L 151.457031 20.46875 C 151.457031 9.445312 142.527344 0.46875 131.539062 0.46875 Z M 134.359375 71.292969 L 107.984375 97.777344 L 115.320312 134.609375 C 115.609375 135.160156 115.769531 135.785156 115.769531 136.449219 C 115.769531 138.65625 113.984375 140.449219 111.785156 140.449219 C 111.746094 140.449219 111.6875 140.457031 111.625 140.449219 C 110.964844 140.449219 110.296875 140.28125 109.691406 139.945312 L 75.777344 121.027344 L 41.867188 139.945312 C 40.503906 140.695312 38.847656 140.601562 37.578125 139.679688 C 36.328125 138.761719 35.722656 137.191406 36.027344 135.664062 L 43.570312 97.777344 L 17.195312 71.292969 C 16.109375 70.203125 15.746094 68.589844 16.253906 67.140625 C 16.765625 65.691406 18.054688 64.660156 19.570312 64.484375 L 53.375 60.71875 L 72.289062 26.53125 C 73.707031 23.996094 77.839844 23.996094 79.257812 26.53125 L 98.171875 60.71875 L 131.980469 64.484375 C 133.492188 64.652344 134.792969 65.683594 135.292969 67.140625 C 135.792969 68.597656 135.4375 70.203125 134.359375 71.292969 Z M 134.359375 71.292969 " fill-opacity="1" fill-rule="nonzero"/></g><g clip-path="url(#e656309cde)"><path fill="#ff5757" d="M 130.605469 3.644531 L 25.34375 3.644531 C 14.976562 3.644531 6.546875 12.078125 6.546875 22.441406 L 6.546875 180.328125 C 6.546875 181.660156 7.253906 182.894531 8.398438 183.570312 C 9.546875 184.246094 10.960938 184.261719 12.132812 183.617188 L 77.972656 147.039062 L 143.8125 183.617188 C 144.386719 183.929688 145.007812 184.089844 145.640625 184.089844 C 146.304688 184.089844 146.964844 183.917969 147.550781 183.570312 C 148.695312 182.894531 149.402344 181.660156 149.402344 180.328125 L 149.402344 22.441406 C 149.402344 12.078125 140.972656 3.644531 130.605469 3.644531 Z M 133.265625 70.210938 L 108.371094 95.105469 L 115.296875 129.730469 C 115.566406 130.25 115.71875 130.835938 115.71875 131.460938 C 115.71875 133.535156 114.035156 135.21875 111.957031 135.21875 C 111.921875 135.21875 111.867188 135.226562 111.808594 135.21875 C 111.183594 135.21875 110.550781 135.058594 109.980469 134.746094 L 77.972656 116.964844 L 45.96875 134.746094 C 44.683594 135.453125 43.117188 135.359375 41.921875 134.496094 C 40.742188 133.632812 40.171875 132.160156 40.457031 130.722656 L 47.578125 95.105469 L 22.683594 70.210938 C 21.660156 69.191406 21.3125 67.671875 21.796875 66.3125 C 22.277344 64.949219 23.496094 63.980469 24.921875 63.816406 L 56.832031 60.273438 L 74.679688 28.140625 C 76.019531 25.753906 79.921875 25.753906 81.261719 28.140625 L 99.109375 60.273438 L 131.019531 63.816406 C 132.445312 63.972656 133.671875 64.941406 134.144531 66.3125 C 134.617188 67.679688 134.28125 69.191406 133.265625 70.210938 Z M 133.265625 70.210938 " fill-opacity="1" fill-rule="nonzero"/></g><g clip-path="url(#a3b264851b)"><g clip-path="url(#450e9a45b9)"><path fill="#ff5757" d="M 16.054688 12.488281 L 137.777344 12.488281 L 137.777344 140.390625 L 16.054688 140.390625 Z M 16.054688 12.488281 " fill-opacity="1" fill-rule="nonzero"/></g></g><g clip-path="url(#5979573289)"><g clip-path="url(#6244e97bc4)"><path fill="#000000" d="M 25.574219 29.394531 L 129.074219 29.394531 L 129.074219 119.824219 L 25.574219 119.824219 Z M 25.574219 29.394531 " fill-opacity="1" fill-rule="nonzero"/></g></g><g clip-path="url(#965eaf2112)"><g clip-path="url(#622be63252)"><path fill="#e0dfd9" d="M 29.207031 32.90625 L 125.058594 32.90625 L 125.058594 116.652344 L 29.207031 116.652344 Z M 29.207031 32.90625 " fill-opacity="1" fill-rule="nonzero"/></g></g></svg>