<svg xmlns="http://www.w3.org/2000/svg" xmlns:xlink="http://www.w3.org/1999/xlink" width="308" zoomAndPan="magnify" viewBox="0 0 230.87999 110.249996" height="147" preserveAspectRatio="xMidYMid meet" version="1.0"><defs><clipPath id="a3fcdab788"><path d="M 0.722656 0 L 230 0 L 230 109.503906 L 0.722656 109.503906 Z M 0.722656 0 " clip-rule="nonzero"/></clipPath></defs><path fill="#f4d75e" d="M 52.789062 108.503906 C 24.570312 108.503906 1.691406 84.433594 1.691406 54.742188 C 1.691406 25.050781 24.570312 0.980469 52.789062 0.980469 C 73.785156 0.980469 91.820312 14.308594 99.679688 33.359375 L 111.773438 24.859375 C 114.277344 23.101562 117.726562 24.894531 117.726562 27.953125 L 117.726562 42.6875 L 131.125 42.6875 L 142.703125 33.089844 L 155.4375 45.996094 L 165.695312 35.40625 L 176.941406 34.910156 L 187.859375 46.824219 L 195.136719 40.207031 L 208.25 40.269531 L 227.070312 57.628906 C 228.53125 59.035156 229.121094 61.171875 228.480469 63.203125 C 228.09375 64.414062 227.257812 65.433594 226.199219 66.136719 L 212.667969 75.105469 L 118.675781 75.105469 L 118.675781 83.179688 C 118.675781 86.488281 116.519531 89.492188 113.320312 90.335938 C 110.753906 91.011719 108.097656 90.234375 106.3125 88.410156 L 97.957031 79.894531 C 89.378906 96.910156 72.371094 108.503906 52.789062 108.503906 Z M 41.929688 56.300781 C 41.929688 49.609375 36.507812 44.183594 29.820312 44.183594 C 23.132812 44.183594 17.707031 49.609375 17.707031 56.300781 C 17.707031 62.992188 23.132812 68.417969 29.820312 68.417969 C 36.507812 68.417969 41.929688 62.992188 41.929688 56.300781 Z M 41.929688 56.300781 " fill-opacity="1" fill-rule="nonzero"/><g clip-path="url(#a3fcdab788)"><path stroke-linecap="butt" transform="matrix(0, 0.175488, 0.175412, 0, -19.853106, -16.410064)" fill="none" stroke-linejoin="round" d="M 711.810492 414.122631 C 711.810492 253.251566 574.648083 122.822188 405.454401 122.822188 C 236.260719 122.822188 99.098311 253.251566 99.098311 414.122631 C 99.098311 533.818363 175.047376 636.634214 283.606458 681.439389 L 235.170009 750.384131 C 225.15328 764.658543 235.370343 784.322047 252.799452 784.322047 L 336.7619 784.322047 L 336.7619 860.704626 L 282.07056 926.709863 L 355.61561 999.306717 L 295.270383 1057.785041 L 292.443439 1121.897416 L 360.334602 1184.139197 L 322.627182 1225.626295 L 322.983333 1300.383239 L 421.904096 1407.675154 C 429.917479 1416.00375 442.09337 1419.366365 453.668257 1415.714253 C 460.56867 1413.509625 466.378373 1408.744064 470.385064 1402.709172 L 521.492641 1325.569448 L 521.492641 789.733407 L 567.502816 789.733407 C 586.356526 789.733407 603.474003 777.440934 608.282033 759.202644 C 612.132909 744.571929 607.703289 729.429027 597.30815 719.252106 L 548.782663 671.618772 C 645.744599 622.716106 711.810492 525.756995 711.810492 414.122631 Z M 414.335901 352.214884 C 376.205553 352.214884 345.287249 321.305549 345.287249 283.181066 C 345.287249 245.056584 376.205553 214.124979 414.335901 214.124979 C 452.466249 214.124979 483.384553 245.056584 483.384553 283.181066 C 483.384553 321.305549 452.466249 352.214884 414.335901 352.214884 Z M 414.335901 352.214884 " stroke="#000000" stroke-width="11.092" stroke-opacity="1" stroke-miterlimit="10"/></g><path stroke-linecap="butt" transform="matrix(0, 0.175488, 0.175412, 0, -19.853106, -16.410064)" fill-opacity="1" fill="#e8a627" fill-rule="nonzero" stroke-linejoin="round" d="M 392.1878 728.872302 L 419.589119 642.35734 L 420.368198 1405.58187 L 389.783785 1372.82421 Z M 392.1878 728.872302 " stroke="#000000" stroke-width="11.092" stroke-opacity="1" stroke-miterlimit="10"/></svg>