<svg xmlns="http://www.w3.org/2000/svg" xmlns:xlink="http://www.w3.org/1999/xlink" width="127" zoomAndPan="magnify" viewBox="0 0 95.25 76.499999" height="102" preserveAspectRatio="xMidYMid meet" version="1.0"><defs><g/><clipPath id="4d68ff9059"><path d="M 4 26 L 34 26 L 34 66.355469 L 4 66.355469 Z M 4 26 " clip-rule="nonzero"/></clipPath><clipPath id="c1e784a2f1"><path d="M 3.5 22 L 35 22 L 35 27 L 3.5 27 Z M 3.5 22 " clip-rule="nonzero"/></clipPath><clipPath id="c3a6913398"><path d="M 5 26 L 10 26 L 10 66.355469 L 5 66.355469 Z M 5 26 " clip-rule="nonzero"/></clipPath><clipPath id="7c90f015ca"><path d="M 4 25 L 34 25 L 34 66.355469 L 4 66.355469 Z M 4 25 " clip-rule="nonzero"/></clipPath><clipPath id="e6b32387b3"><path d="M 3.5 22 L 35 22 L 35 27 L 3.5 27 Z M 3.5 22 " clip-rule="nonzero"/></clipPath><clipPath id="ba503d9762"><path d="M 62 36 L 91 36 L 91 66.355469 L 62 66.355469 Z M 62 36 " clip-rule="nonzero"/></clipPath><clipPath id="5fc984f672"><path d="M 61 36 L 91 36 L 91 66.355469 L 61 66.355469 Z M 61 36 " clip-rule="nonzero"/></clipPath><clipPath id="a7d51313b6"><path d="M 60 32 L 92.054688 32 L 92.054688 37 L 60 37 Z M 60 32 " clip-rule="nonzero"/></clipPath><clipPath id="918f484b2e"><path d="M 33 6 L 63 6 L 63 66.355469 L 33 66.355469 Z M 33 6 " clip-rule="nonzero"/></clipPath><clipPath id="b344ed51ea"><path d="M 32 3.105469 L 64 3.105469 L 64 7 L 32 7 Z M 32 3.105469 " clip-rule="nonzero"/></clipPath><clipPath id="c659eab2e7"><path d="M 33 6 L 39 6 L 39 66.355469 L 33 66.355469 Z M 33 6 " clip-rule="nonzero"/></clipPath><clipPath id="053133a6f4"><path d="M 33 6 L 63 6 L 63 66.355469 L 33 66.355469 Z M 33 6 " clip-rule="nonzero"/></clipPath><clipPath id="f97a484c4e"><path d="M 32 3.105469 L 64 3.105469 L 64 7 L 32 7 Z M 32 3.105469 " clip-rule="nonzero"/></clipPath><clipPath id="f00eb6c5cc"><path d="M 36.566406 9.21875 L 59 9.21875 L 59 31.828125 L 36.566406 31.828125 Z M 36.566406 9.21875 " clip-rule="nonzero"/></clipPath><clipPath id="3ad08d9944"><path d="M 37.3125 9.21875 L 58.257812 9.21875 C 58.667969 9.21875 59 9.554688 59 9.964844 L 59 31.023438 C 59 31.433594 58.667969 31.765625 58.257812 31.765625 L 37.3125 31.765625 C 36.898438 31.765625 36.566406 31.433594 36.566406 31.023438 L 36.566406 9.964844 C 36.566406 9.554688 36.898438 9.21875 37.3125 9.21875 Z M 37.3125 9.21875 " clip-rule="nonzero"/></clipPath><clipPath id="15b9f92877"><path d="M 31 0.0507812 L 66 0.0507812 L 66 40 L 31 40 Z M 31 0.0507812 " clip-rule="nonzero"/></clipPath><clipPath id="cc2939c6d5"><path d="M 8.785156 28.316406 L 31.222656 28.316406 L 31.222656 50.925781 L 8.785156 50.925781 Z M 8.785156 28.316406 " clip-rule="nonzero"/></clipPath><clipPath id="0593fd430c"><path d="M 9.53125 28.316406 L 30.476562 28.316406 C 30.886719 28.316406 31.222656 28.652344 31.222656 29.0625 L 31.222656 50.121094 C 31.222656 50.53125 30.886719 50.863281 30.476562 50.863281 L 9.53125 50.863281 C 9.121094 50.863281 8.785156 50.53125 8.785156 50.121094 L 8.785156 29.0625 C 8.785156 28.652344 9.121094 28.316406 9.53125 28.316406 Z M 9.53125 28.316406 " clip-rule="nonzero"/></clipPath><clipPath id="f09531ff5e"><path d="M 66.507812 40.636719 L 88.945312 40.636719 L 88.945312 63.246094 L 66.507812 63.246094 Z M 66.507812 40.636719 " clip-rule="nonzero"/></clipPath><clipPath id="37949a5ba1"><path d="M 67.253906 40.636719 L 88.199219 40.636719 C 88.609375 40.636719 88.945312 40.96875 88.945312 41.378906 L 88.945312 62.4375 C 88.945312 62.847656 88.609375 63.183594 88.199219 63.183594 L 67.253906 63.183594 C 66.84375 63.183594 66.507812 62.847656 66.507812 62.4375 L 66.507812 41.378906 C 66.507812 40.96875 66.84375 40.636719 67.253906 40.636719 Z M 67.253906 40.636719 " clip-rule="nonzero"/></clipPath><clipPath id="178e5ef0db"><path d="M 60 25 L 94.503906 25 L 94.503906 66 L 60 66 Z M 60 25 " clip-rule="nonzero"/></clipPath></defs><g clip-path="url(#4d68ff9059)"><path fill="#3c6bbd" d="M 5.589844 26.164062 L 32.902344 26.164062 C 33.070312 26.164062 33.214844 26.210938 33.335938 26.304688 C 33.453125 26.398438 33.515625 26.511719 33.515625 26.640625 L 33.515625 65.628906 C 33.515625 65.761719 33.453125 65.875 33.335938 65.96875 C 33.214844 66.0625 33.070312 66.109375 32.902344 66.109375 L 5.589844 66.109375 C 5.421875 66.109375 5.277344 66.0625 5.15625 65.96875 C 5.035156 65.875 4.976562 65.761719 4.976562 65.628906 L 4.976562 26.640625 C 4.976562 26.511719 5.035156 26.398438 5.15625 26.304688 C 5.277344 26.210938 5.421875 26.164062 5.589844 26.164062 Z M 5.589844 26.164062 " fill-opacity="1" fill-rule="evenodd"/></g><g clip-path="url(#c1e784a2f1)"><path fill="#3847a4" d="M 5.566406 22.914062 L 32.945312 22.914062 C 33.179688 22.914062 33.40625 22.957031 33.625 23.039062 C 33.839844 23.125 34.03125 23.242188 34.199219 23.394531 C 34.367188 23.546875 34.492188 23.726562 34.582031 23.925781 C 34.671875 24.125 34.71875 24.335938 34.71875 24.550781 C 34.71875 24.769531 34.671875 24.976562 34.582031 25.179688 C 34.492188 25.378906 34.367188 25.554688 34.199219 25.707031 C 34.03125 25.863281 33.839844 25.980469 33.625 26.0625 C 33.40625 26.144531 33.179688 26.1875 32.945312 26.1875 L 5.566406 26.1875 C 5.332031 26.1875 5.105469 26.144531 4.890625 26.0625 C 4.671875 25.980469 4.480469 25.863281 4.316406 25.707031 C 4.148438 25.554688 4.019531 25.378906 3.929688 25.179688 C 3.839844 24.976562 3.796875 24.769531 3.796875 24.550781 C 3.796875 24.335938 3.839844 24.125 3.929688 23.925781 C 4.019531 23.726562 4.148438 23.546875 4.316406 23.394531 C 4.480469 23.242188 4.671875 23.125 4.890625 23.039062 C 5.105469 22.957031 5.332031 22.914062 5.566406 22.914062 Z M 5.566406 22.914062 " fill-opacity="1" fill-rule="evenodd"/></g><g clip-path="url(#c3a6913398)"><path fill="#2d58a2" d="M 5.25 26.574219 L 5.25 65.765625 C 5.25 65.992188 5.523438 66.175781 5.863281 66.175781 L 9.90625 66.175781 C 7.773438 53.882812 7 40.910156 9.90625 26.164062 L 5.863281 26.164062 C 5.523438 26.164062 5.25 26.371094 5.25 26.574219 Z M 5.25 26.574219 " fill-opacity="1" fill-rule="evenodd"/></g><g clip-path="url(#7c90f015ca)"><path fill="#000000" d="M 5.589844 25.890625 L 32.902344 25.890625 C 33.152344 25.890625 33.378906 25.984375 33.535156 26.140625 C 33.71875 26.300781 33.808594 26.527344 33.808594 26.777344 L 33.808594 65.515625 C 33.808594 65.765625 33.71875 65.992188 33.535156 66.152344 C 33.378906 66.3125 33.152344 66.425781 32.902344 66.425781 L 5.589844 66.425781 C 5.339844 66.425781 5.113281 66.3125 4.953125 66.152344 C 4.796875 65.992188 4.683594 65.765625 4.683594 65.515625 L 4.683594 26.777344 C 4.683594 26.527344 4.796875 26.300781 4.953125 26.140625 C 5.113281 25.984375 5.339844 25.890625 5.589844 25.890625 Z M 32.902344 26.460938 L 5.589844 26.460938 C 5.5 26.460938 5.429688 26.503906 5.363281 26.550781 C 5.316406 26.621094 5.273438 26.6875 5.273438 26.777344 L 5.273438 65.515625 C 5.273438 65.609375 5.316406 65.675781 5.363281 65.742188 C 5.429688 65.789062 5.5 65.835938 5.589844 65.835938 L 32.902344 65.835938 C 32.992188 65.835938 33.082031 65.789062 33.128906 65.742188 C 33.195312 65.675781 33.21875 65.609375 33.21875 65.515625 L 33.21875 26.777344 C 33.21875 26.6875 33.195312 26.621094 33.128906 26.550781 C 33.082031 26.503906 32.992188 26.460938 32.902344 26.460938 Z M 32.902344 26.460938 " fill-opacity="1" fill-rule="nonzero"/></g><g clip-path="url(#e6b32387b3)"><path fill="#000000" d="M 5.429688 25.890625 L 33.082031 25.890625 C 33.445312 25.890625 33.785156 25.734375 34.015625 25.484375 C 34.265625 25.257812 34.421875 24.914062 34.421875 24.550781 C 34.421875 24.164062 34.265625 23.847656 34.015625 23.597656 C 33.785156 23.347656 33.445312 23.210938 33.082031 23.210938 L 5.429688 23.210938 C 5.046875 23.210938 4.726562 23.347656 4.476562 23.597656 C 4.226562 23.847656 4.089844 24.164062 4.089844 24.550781 C 4.089844 24.914062 4.226562 25.257812 4.476562 25.484375 C 4.726562 25.734375 5.046875 25.890625 5.429688 25.890625 Z M 33.082031 26.460938 L 5.429688 26.460938 C 4.886719 26.460938 4.410156 26.257812 4.070312 25.890625 C 3.726562 25.550781 3.5 25.074219 3.5 24.550781 C 3.5 24.007812 3.726562 23.53125 4.070312 23.1875 C 4.410156 22.847656 4.886719 22.621094 5.429688 22.621094 L 33.082031 22.621094 C 33.605469 22.621094 34.082031 22.847656 34.421875 23.1875 C 34.785156 23.53125 34.992188 24.007812 34.992188 24.550781 C 34.992188 25.074219 34.785156 25.550781 34.421875 25.890625 C 34.082031 26.257812 33.605469 26.460938 33.082031 26.460938 Z M 33.082031 26.460938 " fill-opacity="1" fill-rule="nonzero"/></g><g clip-path="url(#ba503d9762)"><path fill="#3c6bbd" d="M 62.664062 36.410156 L 89.972656 36.410156 C 90.144531 36.410156 90.289062 36.445312 90.40625 36.511719 C 90.527344 36.578125 90.585938 36.660156 90.585938 36.753906 L 90.585938 65.765625 C 90.585938 65.859375 90.527344 65.941406 90.40625 66.007812 C 90.289062 66.074219 90.144531 66.109375 89.972656 66.109375 L 62.664062 66.109375 C 62.496094 66.109375 62.351562 66.074219 62.230469 66.007812 C 62.109375 65.941406 62.050781 65.859375 62.050781 65.765625 L 62.050781 36.753906 C 62.050781 36.660156 62.109375 36.578125 62.230469 36.511719 C 62.351562 36.445312 62.496094 36.410156 62.664062 36.410156 Z M 62.664062 36.410156 " fill-opacity="1" fill-rule="evenodd"/></g><path fill="#3847a4" d="M 62.640625 33.164062 L 90.019531 33.164062 C 90.253906 33.164062 90.480469 33.203125 90.699219 33.289062 C 90.914062 33.371094 91.105469 33.488281 91.273438 33.640625 C 91.4375 33.796875 91.566406 33.972656 91.65625 34.171875 C 91.746094 34.375 91.792969 34.582031 91.792969 34.796875 C 91.792969 35.015625 91.746094 35.222656 91.65625 35.425781 C 91.566406 35.625 91.4375 35.800781 91.273438 35.957031 C 91.105469 36.109375 90.914062 36.226562 90.699219 36.308594 C 90.480469 36.394531 90.253906 36.433594 90.019531 36.433594 L 62.640625 36.433594 C 62.40625 36.433594 62.179688 36.394531 61.964844 36.308594 C 61.746094 36.226562 61.554688 36.109375 61.386719 35.957031 C 61.222656 35.800781 61.09375 35.625 61.003906 35.425781 C 60.914062 35.222656 60.871094 35.015625 60.871094 34.796875 C 60.871094 34.582031 60.914062 34.375 61.003906 34.171875 C 61.09375 33.972656 61.222656 33.796875 61.386719 33.640625 C 61.554688 33.488281 61.746094 33.371094 61.964844 33.289062 C 62.179688 33.203125 62.40625 33.164062 62.640625 33.164062 Z M 62.640625 33.164062 " fill-opacity="1" fill-rule="evenodd"/><path fill="#2d58a2" d="M 62.640625 36.730469 L 62.640625 65.675781 C 62.640625 65.835938 62.914062 65.972656 63.253906 65.972656 L 67.300781 65.972656 C 65.164062 56.882812 64.367188 47.316406 67.300781 36.410156 L 63.253906 36.410156 C 62.914062 36.410156 62.640625 36.546875 62.640625 36.730469 Z M 62.640625 36.730469 " fill-opacity="1" fill-rule="evenodd"/><g clip-path="url(#5fc984f672)"><path fill="#000000" d="M 62.664062 36.117188 L 89.972656 36.117188 C 90.222656 36.117188 90.453125 36.230469 90.609375 36.390625 C 90.769531 36.546875 90.882812 36.777344 90.882812 37.023438 L 90.882812 65.515625 C 90.882812 65.765625 90.769531 65.992188 90.609375 66.152344 C 90.453125 66.3125 90.222656 66.425781 89.972656 66.425781 L 62.664062 66.425781 C 62.414062 66.425781 62.1875 66.3125 62.027344 66.152344 C 61.867188 65.992188 61.753906 65.765625 61.753906 65.515625 L 61.753906 37.023438 C 61.753906 36.777344 61.867188 36.546875 62.027344 36.390625 C 62.1875 36.230469 62.414062 36.117188 62.664062 36.117188 Z M 89.972656 36.707031 L 62.664062 36.707031 C 62.574219 36.707031 62.503906 36.753906 62.4375 36.796875 C 62.367188 36.867188 62.347656 36.933594 62.347656 37.023438 L 62.347656 65.515625 C 62.347656 65.609375 62.367188 65.675781 62.4375 65.742188 C 62.503906 65.789062 62.574219 65.835938 62.664062 65.835938 L 89.972656 65.835938 C 90.066406 65.835938 90.132812 65.789062 90.203125 65.742188 C 90.269531 65.675781 90.292969 65.609375 90.292969 65.515625 L 90.292969 37.023438 C 90.292969 36.933594 90.269531 36.867188 90.203125 36.796875 C 90.132812 36.753906 90.066406 36.707031 89.972656 36.707031 Z M 89.972656 36.707031 " fill-opacity="1" fill-rule="nonzero"/></g><g clip-path="url(#a7d51313b6)"><path fill="#000000" d="M 62.484375 36.117188 L 90.15625 36.117188 C 90.519531 36.117188 90.835938 35.980469 91.085938 35.730469 C 91.335938 35.480469 91.472656 35.164062 91.472656 34.796875 C 91.472656 34.414062 91.335938 34.09375 91.085938 33.84375 C 90.835938 33.59375 90.519531 33.457031 90.15625 33.457031 L 62.484375 33.457031 C 62.117188 33.457031 61.800781 33.59375 61.550781 33.84375 C 61.300781 34.09375 61.164062 34.414062 61.164062 34.796875 C 61.164062 35.164062 61.300781 35.480469 61.550781 35.730469 C 61.800781 35.980469 62.117188 36.117188 62.484375 36.117188 Z M 90.15625 36.707031 L 62.484375 36.707031 C 61.960938 36.707031 61.484375 36.503906 61.140625 36.140625 C 60.777344 35.796875 60.574219 35.320312 60.574219 34.796875 C 60.574219 34.253906 60.777344 33.777344 61.140625 33.433594 C 61.484375 33.070312 61.960938 32.867188 62.484375 32.867188 L 90.15625 32.867188 C 90.679688 32.867188 91.15625 33.070312 91.496094 33.433594 C 91.859375 33.777344 92.0625 34.253906 92.0625 34.796875 C 92.0625 35.320312 91.859375 35.796875 91.496094 36.140625 C 91.15625 36.503906 90.679688 36.707031 90.15625 36.707031 Z M 90.15625 36.707031 " fill-opacity="1" fill-rule="nonzero"/></g><g clip-path="url(#918f484b2e)"><path fill="#3c6bbd" d="M 34.128906 6.648438 L 61.4375 6.648438 C 61.605469 6.648438 61.75 6.71875 61.871094 6.855469 C 61.992188 6.992188 62.050781 7.15625 62.050781 7.351562 L 62.050781 65.402344 C 62.050781 65.597656 61.992188 65.761719 61.871094 65.902344 C 61.75 66.039062 61.605469 66.109375 61.4375 66.109375 L 34.128906 66.109375 C 33.957031 66.109375 33.8125 66.039062 33.695312 65.902344 C 33.574219 65.761719 33.515625 65.597656 33.515625 65.402344 L 33.515625 7.351562 C 33.515625 7.15625 33.574219 6.992188 33.695312 6.855469 C 33.8125 6.71875 33.957031 6.648438 34.128906 6.648438 Z M 34.128906 6.648438 " fill-opacity="1" fill-rule="evenodd"/></g><g clip-path="url(#b344ed51ea)"><path fill="#3847a4" d="M 34.105469 3.398438 L 61.484375 3.398438 C 61.71875 3.398438 61.945312 3.441406 62.160156 3.523438 C 62.378906 3.605469 62.570312 3.726562 62.734375 3.878906 C 62.902344 4.03125 63.03125 4.207031 63.121094 4.410156 C 63.210938 4.609375 63.253906 4.816406 63.253906 5.035156 C 63.253906 5.253906 63.210938 5.460938 63.121094 5.660156 C 63.03125 5.863281 62.902344 6.039062 62.734375 6.191406 C 62.570312 6.34375 62.378906 6.464844 62.160156 6.546875 C 61.945312 6.628906 61.71875 6.671875 61.484375 6.671875 L 34.105469 6.671875 C 33.871094 6.671875 33.644531 6.628906 33.425781 6.546875 C 33.210938 6.464844 33.019531 6.34375 32.851562 6.191406 C 32.683594 6.039062 32.558594 5.863281 32.46875 5.660156 C 32.378906 5.460938 32.332031 5.253906 32.332031 5.035156 C 32.332031 4.816406 32.378906 4.609375 32.46875 4.410156 C 32.558594 4.207031 32.683594 4.03125 32.851562 3.878906 C 33.019531 3.726562 33.210938 3.605469 33.425781 3.523438 C 33.644531 3.441406 33.871094 3.398438 34.105469 3.398438 Z M 34.105469 3.398438 " fill-opacity="1" fill-rule="evenodd"/></g><path fill="#fff3e1" d="M 51.464844 25.234375 L 55.371094 25.234375 L 55.371094 28.914062 L 42.601562 28.914062 L 42.601562 25.234375 L 46.714844 25.234375 L 46.714844 17.304688 C 45.148438 18.007812 43.921875 18.417969 43.035156 18.53125 L 43.035156 14.78125 C 45.398438 14.28125 47.011719 13.375 47.851562 12.054688 L 51.464844 12.054688 Z M 51.464844 25.234375 " fill-opacity="1" fill-rule="nonzero"/><path fill="#fff3e1" d="M 25.675781 44.070312 L 25.492188 48.160156 L 12.839844 48.160156 L 12.839844 44.320312 L 15.65625 42.320312 C 16.066406 42.046875 16.835938 41.433594 17.972656 40.5 C 19.109375 39.570312 19.835938 38.84375 20.175781 38.34375 C 20.539062 37.84375 20.699219 37.320312 20.699219 36.753906 C 20.699219 36.230469 20.5625 35.820312 20.246094 35.503906 C 19.949219 35.183594 19.5625 35.003906 19.0625 35.003906 C 17.859375 35.003906 17.15625 35.980469 17.019531 37.890625 L 12.839844 37.046875 C 13.132812 35.09375 13.90625 33.664062 15.132812 32.707031 C 16.335938 31.753906 17.792969 31.277344 19.449219 31.277344 C 21.246094 31.277344 22.722656 31.753906 23.859375 32.730469 C 24.992188 33.683594 25.5625 34.980469 25.5625 36.570312 C 25.5625 37.660156 25.265625 38.660156 24.628906 39.636719 C 24.015625 40.59375 22.199219 42.070312 19.199219 44.070312 Z M 25.675781 44.070312 " fill-opacity="1" fill-rule="nonzero"/><path fill="#fff3e1" d="M 69.457031 54.632812 L 73.796875 54.109375 C 74.070312 55.609375 74.886719 56.359375 76.207031 56.359375 C 76.820312 56.359375 77.296875 56.203125 77.683594 55.882812 C 78.070312 55.566406 78.25 55.15625 78.25 54.609375 C 78.25 54.246094 78.136719 53.929688 77.933594 53.65625 C 77.726562 53.382812 77.523438 53.203125 77.273438 53.089844 C 77.046875 52.976562 76.636719 52.929688 76.070312 52.929688 L 74.070312 52.929688 L 74.070312 49.453125 L 75.773438 49.453125 C 76.683594 49.453125 77.25 49.292969 77.5 48.976562 C 77.773438 48.65625 77.910156 48.316406 77.910156 47.976562 C 77.910156 47.542969 77.75 47.179688 77.410156 46.886719 C 77.089844 46.589844 76.660156 46.453125 76.136719 46.453125 C 75 46.453125 74.320312 47.089844 74.070312 48.339844 L 70.046875 47.703125 C 70.410156 46.160156 71.183594 44.953125 72.367188 44.089844 C 73.546875 43.25 74.933594 42.839844 76.546875 42.839844 C 78.363281 42.839844 79.816406 43.25 80.929688 44.113281 C 82.042969 44.953125 82.589844 46.089844 82.589844 47.523438 C 82.589844 48.363281 82.363281 49.113281 81.886719 49.75 C 81.429688 50.386719 80.816406 50.792969 80.089844 51.019531 C 82.113281 51.632812 83.113281 52.929688 83.113281 54.929688 C 83.113281 56.519531 82.5 57.746094 81.296875 58.632812 C 80.066406 59.519531 78.5 59.949219 76.570312 59.949219 C 72.707031 59.949219 70.320312 58.179688 69.457031 54.632812 Z M 69.457031 54.632812 " fill-opacity="1" fill-rule="nonzero"/><g clip-path="url(#c659eab2e7)"><path fill="#2d58a2" d="M 33.515625 7.261719 L 33.515625 65.515625 C 33.515625 65.859375 33.785156 66.128906 34.128906 66.128906 L 38.171875 66.128906 C 36.035156 47.839844 35.261719 28.574219 38.171875 6.648438 L 34.128906 6.648438 C 33.785156 6.648438 33.515625 6.921875 33.515625 7.261719 Z M 33.515625 7.261719 " fill-opacity="1" fill-rule="evenodd"/></g><g clip-path="url(#053133a6f4)"><path fill="#000000" d="M 34.128906 6.375 L 61.4375 6.375 C 61.6875 6.375 61.914062 6.464844 62.074219 6.625 C 62.234375 6.785156 62.347656 7.011719 62.347656 7.261719 L 62.347656 65.515625 C 62.347656 65.765625 62.234375 65.992188 62.074219 66.152344 C 61.914062 66.3125 61.6875 66.425781 61.4375 66.425781 L 34.128906 66.425781 C 33.878906 66.425781 33.648438 66.3125 33.492188 66.152344 C 33.332031 65.992188 33.21875 65.765625 33.21875 65.515625 L 33.21875 7.261719 C 33.21875 7.011719 33.332031 6.785156 33.492188 6.625 C 33.648438 6.464844 33.878906 6.375 34.128906 6.375 Z M 61.4375 6.945312 L 34.128906 6.945312 C 34.035156 6.945312 33.96875 6.988281 33.898438 7.035156 C 33.855469 7.101562 33.808594 7.171875 33.808594 7.261719 L 33.808594 65.515625 C 33.808594 65.609375 33.855469 65.675781 33.898438 65.742188 C 33.96875 65.789062 34.035156 65.835938 34.128906 65.835938 L 61.4375 65.835938 C 61.527344 65.835938 61.617188 65.789062 61.664062 65.742188 C 61.734375 65.675781 61.753906 65.609375 61.753906 65.515625 L 61.753906 7.261719 C 61.753906 7.171875 61.734375 7.101562 61.664062 7.035156 C 61.617188 6.988281 61.527344 6.945312 61.4375 6.945312 Z M 61.4375 6.945312 " fill-opacity="1" fill-rule="nonzero"/></g><g clip-path="url(#f97a484c4e)"><path fill="#000000" d="M 33.96875 6.375 L 61.617188 6.375 C 61.984375 6.375 62.324219 6.214844 62.550781 5.964844 C 62.800781 5.738281 62.9375 5.398438 62.9375 5.035156 C 62.9375 4.648438 62.800781 4.332031 62.550781 4.082031 C 62.324219 3.832031 61.984375 3.695312 61.617188 3.695312 L 33.96875 3.695312 C 33.582031 3.695312 33.265625 3.832031 33.015625 4.082031 C 32.765625 4.332031 32.628906 4.648438 32.628906 5.035156 C 32.628906 5.398438 32.765625 5.738281 33.015625 5.964844 C 33.265625 6.214844 33.582031 6.375 33.96875 6.375 Z M 61.617188 6.945312 L 33.96875 6.945312 C 33.421875 6.945312 32.945312 6.738281 32.605469 6.375 C 32.242188 6.035156 32.039062 5.558594 32.039062 5.035156 C 32.039062 4.488281 32.242188 4.011719 32.605469 3.671875 C 32.945312 3.332031 33.421875 3.105469 33.96875 3.105469 L 61.617188 3.105469 C 62.140625 3.105469 62.617188 3.332031 62.960938 3.671875 C 63.324219 4.011719 63.527344 4.488281 63.527344 5.035156 C 63.527344 5.558594 63.324219 6.035156 62.960938 6.375 C 62.617188 6.738281 62.140625 6.945312 61.617188 6.945312 Z M 61.617188 6.945312 " fill-opacity="1" fill-rule="nonzero"/></g><g clip-path="url(#f00eb6c5cc)"><g clip-path="url(#3ad08d9944)"><path fill="#3c6bbd" d="M 36.566406 9.21875 L 59 9.21875 L 59 31.742188 L 36.566406 31.742188 Z M 36.566406 9.21875 " fill-opacity="1" fill-rule="nonzero"/></g></g><g clip-path="url(#15b9f92877)"><path stroke-linecap="butt" transform="matrix(2.212367, 0, 0, 2.212367, 19.540805, 10.546996)" fill="none" stroke-linejoin="miter" d="M 10.499489 8.000072 L 10.499489 6.728809 L 12.450524 6.728809 L 12.450524 1.806198 L 10.751976 2.743754 L 10.28408 1.57843 L 12.71537 0.294808 L 13.916007 0.294808 L 13.916007 6.728809 L 15.596899 6.728809 L 15.596899 8.000072 Z M 10.499489 8.000072 " stroke="#000000" stroke-width="0.9" stroke-opacity="1" stroke-miterlimit="4"/></g><g fill="#ffffff" fill-opacity="1"><g transform="translate(40.800273, 28.245935)"><g><path d="M 1.96875 0 L 1.96875 -2.8125 L 6.28125 -2.8125 L 6.28125 -13.703125 L 2.53125 -11.625 L 1.484375 -14.203125 L 6.875 -17.046875 L 9.53125 -17.046875 L 9.53125 -2.8125 L 13.25 -2.8125 L 13.25 0 Z M 1.96875 0 "/></g></g></g><g clip-path="url(#cc2939c6d5)"><g clip-path="url(#0593fd430c)"><path fill="#3c6bbd" d="M 8.785156 28.316406 L 31.222656 28.316406 L 31.222656 50.839844 L 8.785156 50.839844 Z M 8.785156 28.316406 " fill-opacity="1" fill-rule="nonzero"/></g></g><g clip-path="url(#f09531ff5e)"><g clip-path="url(#37949a5ba1)"><path fill="#3c6bbd" d="M 66.507812 40.636719 L 88.945312 40.636719 L 88.945312 63.15625 L 66.507812 63.15625 Z M 66.507812 40.636719 " fill-opacity="1" fill-rule="nonzero"/></g></g><path stroke-linecap="butt" transform="matrix(2.212367, 0, 0, 2.212367, 9.168792, 32.488277)" fill="none" stroke-linejoin="miter" d="M 2.817593 8.000128 L 2.817593 6.94604 L 4.629143 5.13449 C 4.968146 4.795487 5.241821 4.50239 5.446635 4.2552 C 5.65145 4.009776 5.810357 3.790836 5.921593 3.596616 C 6.032828 3.404161 6.10522 3.224065 6.140533 3.05986 C 6.175845 2.895656 6.193502 2.726154 6.193502 2.551355 C 6.193502 2.406573 6.170549 2.268853 6.122876 2.138195 C 6.076969 2.007537 6.008109 1.892771 5.918062 1.797426 C 5.828014 1.702081 5.715013 1.626159 5.577293 1.569658 C 5.441338 1.513158 5.285962 1.484907 5.109397 1.484907 C 4.809238 1.484907 4.528501 1.550236 4.270717 1.680894 C 4.012933 1.811551 3.769275 1.98635 3.539741 2.205289 L 2.784046 1.23242 C 3.115987 0.923433 3.488537 0.676243 3.905229 0.49085 C 4.321921 0.305458 4.77216 0.213645 5.255946 0.213645 C 5.630262 0.213645 5.971031 0.261317 6.274721 0.356662 C 6.580178 0.452006 6.841493 0.593258 7.056901 0.780416 C 7.274075 0.96934 7.441811 1.202404 7.561875 1.484907 C 7.680173 1.765644 7.740205 2.090523 7.740205 2.457776 C 7.740205 2.761467 7.699595 3.045735 7.61661 3.308816 C 7.53539 3.573662 7.415327 3.829681 7.25995 4.080402 C 7.102808 4.329357 6.910353 4.580079 6.682585 4.8308 C 6.454817 5.079755 6.193502 5.344602 5.900405 5.621808 L 4.786285 6.681193 L 8.015645 6.681193 L 8.015645 8.000128 Z M 2.817593 8.000128 " stroke="#000000" stroke-width="0.9" stroke-opacity="1" stroke-miterlimit="4"/><g fill="#ffffff" fill-opacity="1"><g transform="translate(13.7318, 50.187216)"><g><path d="M 1.671875 0 L 1.671875 -2.328125 L 5.671875 -6.34375 C 6.429688 -7.09375 7.035156 -7.738281 7.484375 -8.28125 C 7.941406 -8.820312 8.289062 -9.304688 8.53125 -9.734375 C 8.78125 -10.171875 8.941406 -10.566406 9.015625 -10.921875 C 9.097656 -11.285156 9.140625 -11.664062 9.140625 -12.0625 C 9.140625 -12.375 9.085938 -12.675781 8.984375 -12.96875 C 8.878906 -13.257812 8.726562 -13.507812 8.53125 -13.71875 C 8.332031 -13.925781 8.082031 -14.09375 7.78125 -14.21875 C 7.476562 -14.351562 7.128906 -14.421875 6.734375 -14.421875 C 6.078125 -14.421875 5.460938 -14.273438 4.890625 -13.984375 C 4.316406 -13.691406 3.773438 -13.300781 3.265625 -12.8125 L 1.59375 -14.96875 C 2.332031 -15.65625 3.160156 -16.203125 4.078125 -16.609375 C 4.992188 -17.023438 5.988281 -17.234375 7.0625 -17.234375 C 7.894531 -17.234375 8.644531 -17.125 9.3125 -16.90625 C 9.988281 -16.695312 10.566406 -16.382812 11.046875 -15.96875 C 11.523438 -15.550781 11.894531 -15.03125 12.15625 -14.40625 C 12.425781 -13.789062 12.5625 -13.078125 12.5625 -12.265625 C 12.5625 -11.585938 12.46875 -10.957031 12.28125 -10.375 C 12.101562 -9.789062 11.84375 -9.222656 11.5 -8.671875 C 11.15625 -8.117188 10.726562 -7.566406 10.21875 -7.015625 C 9.71875 -6.460938 9.140625 -5.878906 8.484375 -5.265625 L 6.03125 -2.921875 L 13.171875 -2.921875 L 13.171875 0 Z M 1.671875 0 "/></g></g></g><g clip-path="url(#178e5ef0db)"><path stroke-linecap="butt" transform="matrix(2.212367, 0, 0, 2.212367, 68.675347, 36.094085)" fill="none" stroke-linejoin="miter" d="M 6.414776 5.662264 C 6.414776 6.041877 6.34415 6.382646 6.202899 6.684571 C 6.061647 6.986496 5.846239 7.24428 5.554908 7.457923 C 5.265342 7.671565 4.898089 7.834004 4.456678 7.947006 C 4.015267 8.060007 3.496168 8.116507 2.897616 8.116507 C 2.765192 8.116507 2.625707 8.114742 2.479158 8.107679 C 2.33261 8.102382 2.187827 8.09532 2.043045 8.084726 C 1.898262 8.075898 1.757011 8.063538 1.621056 8.049413 C 1.485102 8.035288 1.361507 8.019397 1.252037 7.999975 L 1.252037 6.756963 C 1.497461 6.804635 1.774667 6.843479 2.081889 6.871729 C 2.387345 6.901745 2.706926 6.91587 3.038867 6.91587 C 3.363745 6.91587 3.642717 6.889386 3.877547 6.834651 C 4.110612 6.779916 4.304833 6.700462 4.456678 6.596289 C 4.608523 6.493882 4.721524 6.36499 4.793916 6.213145 C 4.866307 6.061299 4.90162 5.888266 4.90162 5.697577 C 4.90162 5.529841 4.864541 5.37623 4.790384 5.240276 C 4.716228 5.104321 4.603226 4.987789 4.451381 4.892444 C 4.299536 4.795334 4.105315 4.721177 3.868719 4.668207 C 3.632123 4.617004 3.351386 4.590519 3.026508 4.590519 L 2.177233 4.590519 L 2.177233 3.499352 L 2.957648 3.499352 C 3.261338 3.499352 3.513825 3.469336 3.715108 3.409304 C 3.916391 3.349272 4.077065 3.268053 4.197129 3.165646 C 4.315427 3.065004 4.400177 2.94494 4.451381 2.805454 C 4.502585 2.667734 4.527304 2.521186 4.527304 2.369341 C 4.527304 2.056822 4.426662 1.81846 4.221848 1.657787 C 4.018799 1.495348 3.704514 1.414128 3.278994 1.414128 C 2.975304 1.414128 2.673379 1.444144 2.376751 1.50241 C 2.080123 1.560676 1.772901 1.638365 1.456851 1.735475 L 1.456851 0.534838 C 1.633416 0.476572 1.801152 0.427134 1.960059 0.38829 C 2.120733 0.349446 2.281406 0.315898 2.44208 0.289414 C 2.600988 0.261164 2.763427 0.241741 2.927632 0.231148 C 3.091836 0.218788 3.261338 0.213491 3.437902 0.213491 C 3.859891 0.213491 4.22891 0.257632 4.548491 0.34768 C 4.866307 0.437728 5.132919 0.564854 5.350093 0.730824 C 5.567267 0.896795 5.729706 1.099844 5.839176 1.338205 C 5.948646 1.576567 6.003381 1.841414 6.003381 2.13451 C 6.003381 2.598874 5.897442 2.974956 5.6838 3.262756 C 5.471923 3.550556 5.173529 3.769495 4.790384 3.921341 C 5.037574 3.960185 5.260045 4.029045 5.459563 4.124389 C 5.659081 4.219734 5.828582 4.343329 5.971599 4.493409 C 6.114616 4.643488 6.224086 4.816521 6.300009 5.012508 C 6.375932 5.206728 6.414776 5.423902 6.414776 5.662264 Z M 6.414776 5.662264 " stroke="#000000" stroke-width="0.9" stroke-opacity="1" stroke-miterlimit="4"/></g><g fill="#ffffff" fill-opacity="1"><g transform="translate(69.643258, 53.793024)"><g><path d="M 13.21875 -5.171875 C 13.21875 -4.335938 13.0625 -3.582031 12.75 -2.90625 C 12.4375 -2.238281 11.957031 -1.671875 11.3125 -1.203125 C 10.675781 -0.734375 9.867188 -0.367188 8.890625 -0.109375 C 7.910156 0.140625 6.757812 0.265625 5.4375 0.265625 C 5.144531 0.265625 4.835938 0.253906 4.515625 0.234375 C 4.191406 0.222656 3.867188 0.207031 3.546875 0.1875 C 3.234375 0.164062 2.925781 0.140625 2.625 0.109375 C 2.320312 0.078125 2.046875 0.0390625 1.796875 0 L 1.796875 -2.75 C 2.347656 -2.644531 2.960938 -2.554688 3.640625 -2.484375 C 4.316406 -2.421875 5.019531 -2.390625 5.75 -2.390625 C 6.46875 -2.390625 7.085938 -2.453125 7.609375 -2.578125 C 8.128906 -2.703125 8.554688 -2.878906 8.890625 -3.109375 C 9.222656 -3.335938 9.46875 -3.617188 9.625 -3.953125 C 9.789062 -4.285156 9.875 -4.664062 9.875 -5.09375 C 9.875 -5.46875 9.789062 -5.804688 9.625 -6.109375 C 9.46875 -6.410156 9.21875 -6.664062 8.875 -6.875 C 8.539062 -7.082031 8.113281 -7.242188 7.59375 -7.359375 C 7.070312 -7.484375 6.453125 -7.546875 5.734375 -7.546875 L 3.84375 -7.546875 L 3.84375 -9.953125 L 5.578125 -9.953125 C 6.242188 -9.953125 6.800781 -10.019531 7.25 -10.15625 C 7.695312 -10.289062 8.050781 -10.46875 8.3125 -10.6875 C 8.570312 -10.914062 8.757812 -11.179688 8.875 -11.484375 C 8.988281 -11.796875 9.046875 -12.117188 9.046875 -12.453125 C 9.046875 -13.148438 8.820312 -13.675781 8.375 -14.03125 C 7.925781 -14.382812 7.226562 -14.5625 6.28125 -14.5625 C 5.613281 -14.5625 4.953125 -14.5 4.296875 -14.375 C 3.640625 -14.25 2.957031 -14.078125 2.25 -13.859375 L 2.25 -16.515625 C 2.644531 -16.640625 3.019531 -16.742188 3.375 -16.828125 C 3.726562 -16.921875 4.082031 -17 4.4375 -17.0625 C 4.789062 -17.125 5.144531 -17.164062 5.5 -17.1875 C 5.863281 -17.21875 6.242188 -17.234375 6.640625 -17.234375 C 7.566406 -17.234375 8.382812 -17.128906 9.09375 -16.921875 C 9.800781 -16.722656 10.394531 -16.441406 10.875 -16.078125 C 11.351562 -15.710938 11.710938 -15.265625 11.953125 -14.734375 C 12.191406 -14.210938 12.3125 -13.625 12.3125 -12.96875 C 12.3125 -11.945312 12.078125 -11.117188 11.609375 -10.484375 C 11.140625 -9.847656 10.476562 -9.359375 9.625 -9.015625 C 10.175781 -8.929688 10.671875 -8.78125 11.109375 -8.5625 C 11.546875 -8.351562 11.921875 -8.082031 12.234375 -7.75 C 12.554688 -7.425781 12.800781 -7.046875 12.96875 -6.609375 C 13.132812 -6.179688 13.21875 -5.703125 13.21875 -5.171875 Z M 13.21875 -5.171875 "/></g></g></g></svg>