<svg xmlns="http://www.w3.org/2000/svg" xmlns:xlink="http://www.w3.org/1999/xlink" width="157" zoomAndPan="magnify" viewBox="0 0 117.75 79.499998" height="106" preserveAspectRatio="xMidYMid meet" version="1.0"><defs><clipPath id="61bc6a35ba"><path d="M 0.242188 0 L 117.257812 0 L 117.257812 78.734375 L 0.242188 78.734375 Z M 0.242188 0 " clip-rule="nonzero"/></clipPath></defs><g clip-path="url(#61bc6a35ba)"><path fill="#000000" d="M 48.226562 78.429688 C 40.183594 78.429688 32.460938 76.277344 25.058594 71.972656 C 17.65625 67.667969 11.667969 61.671875 7.097656 53.984375 C 2.527344 46.296875 0.242188 37.695312 0.242188 28.175781 C 0.242188 24.25 0.804688 20.675781 1.90625 17.441406 C 4.945312 7.410156 14.804688 0.0585938 26.507812 0.0585938 C 40.632812 0.0585938 52.082031 10.761719 52.082031 23.964844 C 52.082031 35.453125 43.414062 45.039062 31.863281 47.335938 C 28.097656 48.492188 27.941406 55.257812 30.5 58.402344 L 30.496094 58.425781 C 30.9375 58.96875 31.402344 59.503906 31.910156 60.027344 C 35.84375 64.054688 41.554688 67.074219 49.050781 69.09375 C 51.605469 69.828125 53.34375 70.464844 54.257812 71.011719 C 55.167969 71.5625 55.628906 72.480469 55.628906 73.765625 C 55.628906 75.222656 54.945312 76.363281 53.574219 77.195312 C 52.203125 78.015625 50.421875 78.429688 48.222656 78.429688 Z M 109.84375 78.429688 C 101.800781 78.429688 94.082031 76.277344 86.675781 71.972656 C 79.273438 67.667969 73.285156 61.671875 68.714844 53.984375 C 64.144531 46.296875 61.859375 37.695312 61.859375 28.175781 C 61.859375 24.25 62.421875 20.675781 63.527344 17.441406 C 66.566406 7.410156 76.425781 0.0585938 88.125 0.0585938 C 102.25 0.0585938 113.699219 10.761719 113.699219 23.964844 C 113.699219 35.453125 105.035156 45.039062 93.480469 47.335938 C 89.714844 48.492188 89.558594 55.257812 92.117188 58.402344 L 92.117188 58.425781 C 92.558594 58.96875 93.019531 59.503906 93.53125 60.027344 C 97.464844 64.054688 103.171875 67.074219 110.671875 69.09375 C 113.226562 69.828125 114.964844 70.464844 115.878906 71.011719 C 116.785156 71.5625 117.246094 72.480469 117.246094 73.765625 C 117.246094 75.226562 116.5625 76.363281 115.195312 77.195312 L 115.191406 77.195312 C 113.824219 78.015625 112.039062 78.429688 109.84375 78.429688 Z M 109.84375 78.429688 " fill-opacity="1" fill-rule="nonzero"/></g></svg>