<svg xmlns="http://www.w3.org/2000/svg" xmlns:xlink="http://www.w3.org/1999/xlink" width="55" zoomAndPan="magnify" viewBox="0 0 41.25 68.249997" height="91" preserveAspectRatio="xMidYMid meet" version="1.0"><defs><clipPath id="4d1e12d508"><path d="M 0 0.242188 L 40.511719 0.242188 L 40.511719 67.273438 L 0 67.273438 Z M 0 0.242188 " clip-rule="nonzero"/></clipPath></defs><path fill="#000000" d="M 27.96875 15.921875 C 27.203125 14.035156 25.566406 12.859375 23.699219 12.859375 C 22.851562 12.859375 21.632812 13.109375 20.3125 14.164062 C 18.984375 13.109375 17.769531 12.859375 16.917969 12.859375 C 15.050781 12.859375 13.417969 14.035156 12.648438 15.921875 C 11.8125 17.984375 11.96875 21.207031 14.917969 24.078125 L 19.472656 28.511719 C 19.707031 28.738281 20.007812 28.855469 20.3125 28.855469 C 20.613281 28.855469 20.917969 28.738281 21.148438 28.511719 L 25.707031 24.078125 C 28.648438 21.207031 28.804688 17.984375 27.96875 15.921875 Z M 27.96875 15.921875 " fill-opacity="1" fill-rule="nonzero"/><g clip-path="url(#4d1e12d508)"><path fill="#000000" d="M 26.105469 55.914062 C 35.824219 43.007812 40.578125 31.644531 40.578125 21.339844 C 40.578125 9.707031 31.484375 0.242188 20.3125 0.242188 C 9.136719 0.242188 0.0429688 9.707031 0.0429688 21.339844 C 0.0429688 31.652344 4.800781 43.019531 14.527344 55.929688 C 8.542969 56.566406 2.792969 58.285156 2.792969 61.449219 C 2.792969 65.449219 11.910156 67.273438 20.382812 67.273438 C 28.855469 67.273438 37.972656 65.449219 37.972656 61.449219 C 37.972656 58.257812 32.15625 56.542969 26.105469 55.914062 Z M 5.390625 20.859375 C 5.390625 12.621094 12.085938 5.921875 20.3125 5.921875 C 28.535156 5.921875 35.230469 12.621094 35.230469 20.859375 C 35.230469 29.09375 28.539062 35.792969 20.3125 35.792969 C 12.082031 35.792969 5.390625 29.09375 5.390625 20.859375 Z M 20.382812 65.109375 C 10.398438 65.109375 4.953125 62.691406 4.953125 61.449219 C 4.953125 60.542969 8.332031 58.566406 16.089844 57.953125 C 17.171875 59.335938 18.292969 60.730469 19.484375 62.144531 C 19.691406 62.390625 19.992188 62.53125 20.3125 62.53125 C 20.628906 62.53125 20.929688 62.390625 21.136719 62.144531 C 22.332031 60.726562 23.453125 59.332031 24.539062 57.945312 C 32.390625 58.542969 35.8125 60.535156 35.8125 61.449219 C 35.8125 62.691406 30.367188 65.109375 20.382812 65.109375 Z M 20.382812 65.109375 " fill-opacity="1" fill-rule="nonzero"/></g></svg>