<svg xmlns="http://www.w3.org/2000/svg" xmlns:xlink="http://www.w3.org/1999/xlink" width="27" zoomAndPan="magnify" viewBox="0 0 20.25 26.249998" height="35" preserveAspectRatio="xMidYMid meet" version="1.0"><defs><clipPath id="6663acb846"><path d="M 0 11 L 18.804688 11 L 18.804688 25.417969 L 0 25.417969 Z M 0 11 " clip-rule="nonzero"/></clipPath><clipPath id="1fb2d91ce6"><path d="M 0 3.722656 L 0 21.644531 C 0 23.640625 1.617188 25.257812 3.617188 25.257812 L 15.34375 25.257812 C 17.339844 25.257812 18.957031 23.640625 18.957031 21.644531 L 18.957031 3.722656 C 18.957031 1.726562 17.339844 0.105469 15.34375 0.105469 L 3.617188 0.105469 C 1.617188 0.105469 0 1.726562 0 3.722656 Z M 0 3.722656 " clip-rule="nonzero"/></clipPath><clipPath id="dbc23579bc"><path d="M 0 10 L 18.804688 10 L 18.804688 25.417969 L 0 25.417969 Z M 0 10 " clip-rule="nonzero"/></clipPath><clipPath id="56dab8faaa"><path d="M 0 3.722656 L 0 21.644531 C 0 23.640625 1.617188 25.257812 3.617188 25.257812 L 15.34375 25.257812 C 17.339844 25.257812 18.957031 23.640625 18.957031 21.644531 L 18.957031 3.722656 C 18.957031 1.726562 17.339844 0.105469 15.34375 0.105469 L 3.617188 0.105469 C 1.617188 0.105469 0 1.726562 0 3.722656 Z M 0 3.722656 " clip-rule="nonzero"/></clipPath><clipPath id="81ebee2d28"><path d="M 1 1 L 17 1 L 17 12 L 1 12 Z M 1 1 " clip-rule="nonzero"/></clipPath><clipPath id="80670f5f21"><path d="M 0 3.722656 L 0 21.644531 C 0 23.640625 1.617188 25.257812 3.617188 25.257812 L 15.34375 25.257812 C 17.339844 25.257812 18.957031 23.640625 18.957031 21.644531 L 18.957031 3.722656 C 18.957031 1.726562 17.339844 0.105469 15.34375 0.105469 L 3.617188 0.105469 C 1.617188 0.105469 0 1.726562 0 3.722656 Z M 0 3.722656 " clip-rule="nonzero"/></clipPath><clipPath id="aae0c75d2e"><path d="M 1 0.105469 L 18 0.105469 L 18 12 L 1 12 Z M 1 0.105469 " clip-rule="nonzero"/></clipPath><clipPath id="784f80cd87"><path d="M 0 3.722656 L 0 21.644531 C 0 23.640625 1.617188 25.257812 3.617188 25.257812 L 15.34375 25.257812 C 17.339844 25.257812 18.957031 23.640625 18.957031 21.644531 L 18.957031 3.722656 C 18.957031 1.726562 17.339844 0.105469 15.34375 0.105469 L 3.617188 0.105469 C 1.617188 0.105469 0 1.726562 0 3.722656 Z M 0 3.722656 " clip-rule="nonzero"/></clipPath></defs><g clip-path="url(#6663acb846)"><g clip-path="url(#1fb2d91ce6)"><path fill="#ffffff" d="M 9.867188 18.773438 L 9.867188 21.269531 L 8.75 21.269531 L 8.75 18.808594 C 7.972656 18.589844 7.398438 17.863281 7.398438 17.003906 C 7.398438 15.964844 8.230469 15.125 9.25 15.125 C 10.273438 15.125 11.101562 15.964844 11.101562 17.003906 C 11.101562 17.820312 10.585938 18.515625 9.867188 18.773438 Z M 15.664062 11.167969 L 3.140625 11.167969 C 1.515625 11.167969 0.195312 12.175781 0.195312 13.417969 L 0.195312 22.976562 C 0.195312 24.21875 1.515625 25.226562 3.140625 25.226562 L 15.664062 25.226562 C 17.289062 25.226562 18.609375 24.21875 18.609375 22.976562 L 18.609375 13.417969 C 18.609375 12.175781 17.289062 11.167969 15.664062 11.167969 " fill-opacity="1" fill-rule="nonzero"/></g></g><g clip-path="url(#dbc23579bc)"><g clip-path="url(#56dab8faaa)"><path fill="#231f20" d="M 9.867188 18.773438 L 9.675781 18.773438 L 9.675781 21.070312 L 8.945312 21.070312 L 8.945312 18.808594 C 8.945312 18.722656 8.886719 18.644531 8.800781 18.621094 C 8.453125 18.519531 8.152344 18.308594 7.9375 18.027344 C 7.722656 17.742188 7.59375 17.390625 7.59375 17.003906 C 7.59375 16.539062 7.777344 16.117188 8.078125 15.8125 C 8.378906 15.507812 8.792969 15.320312 9.25 15.320312 C 9.710938 15.320312 10.121094 15.507812 10.421875 15.8125 C 10.722656 16.117188 10.910156 16.539062 10.910156 17.003906 C 10.910156 17.371094 10.792969 17.707031 10.597656 17.984375 C 10.402344 18.257812 10.125 18.472656 9.804688 18.585938 C 9.726562 18.613281 9.675781 18.6875 9.675781 18.773438 L 9.867188 18.773438 L 9.933594 18.957031 C 10.332031 18.816406 10.671875 18.554688 10.914062 18.214844 C 11.15625 17.875 11.296875 17.453125 11.296875 17.003906 C 11.296875 15.855469 10.382812 14.925781 9.25 14.925781 C 8.121094 14.925781 7.203125 15.855469 7.203125 17.003906 C 7.203125 17.476562 7.363281 17.917969 7.628906 18.265625 C 7.894531 18.617188 8.265625 18.878906 8.695312 19 L 8.75 18.808594 L 8.554688 18.808594 L 8.554688 21.269531 C 8.554688 21.320312 8.578125 21.371094 8.613281 21.410156 C 8.648438 21.445312 8.699219 21.464844 8.75 21.464844 L 9.867188 21.464844 C 9.917969 21.464844 9.96875 21.445312 10.003906 21.410156 C 10.042969 21.371094 10.0625 21.320312 10.0625 21.269531 L 10.0625 18.773438 L 9.867188 18.773438 L 9.933594 18.957031 Z M 15.664062 11.167969 L 15.664062 10.972656 L 3.140625 10.972656 C 2.289062 10.972656 1.511719 11.234375 0.941406 11.671875 C 0.65625 11.886719 0.421875 12.148438 0.257812 12.445312 C 0.09375 12.742188 0 13.070312 0 13.417969 L 0 22.976562 C 0 23.324219 0.09375 23.652344 0.257812 23.949219 C 0.503906 24.390625 0.90625 24.757812 1.40625 25.015625 C 1.90625 25.273438 2.5 25.421875 3.140625 25.421875 L 15.664062 25.421875 C 16.515625 25.421875 17.292969 25.160156 17.863281 24.722656 C 18.148438 24.503906 18.382812 24.242188 18.546875 23.949219 C 18.710938 23.652344 18.804688 23.324219 18.804688 22.976562 L 18.804688 13.417969 C 18.804688 13.070312 18.710938 12.742188 18.546875 12.445312 C 18.300781 12 17.898438 11.632812 17.398438 11.378906 C 16.898438 11.121094 16.300781 10.972656 15.664062 10.972656 L 15.664062 11.367188 C 16.4375 11.367188 17.132812 11.605469 17.628906 11.984375 C 17.875 12.175781 18.074219 12.398438 18.207031 12.640625 C 18.34375 12.882812 18.414062 13.144531 18.414062 13.417969 L 18.414062 22.976562 C 18.414062 23.25 18.34375 23.511719 18.207031 23.753906 C 18.007812 24.117188 17.664062 24.4375 17.222656 24.664062 C 16.78125 24.890625 16.242188 25.027344 15.664062 25.027344 L 3.140625 25.027344 C 2.367188 25.027344 1.667969 24.785156 1.175781 24.410156 C 0.925781 24.21875 0.730469 23.996094 0.597656 23.753906 C 0.460938 23.511719 0.390625 23.25 0.390625 22.976562 L 0.390625 13.417969 C 0.390625 13.144531 0.460938 12.882812 0.597656 12.640625 C 0.796875 12.277344 1.140625 11.957031 1.582031 11.730469 C 2.023438 11.5 2.5625 11.367188 3.140625 11.367188 L 15.664062 11.367188 L 15.664062 11.167969 " fill-opacity="1" fill-rule="nonzero"/></g></g><g clip-path="url(#81ebee2d28)"><g clip-path="url(#80670f5f21)"><path fill="#ffffff" d="M 3.140625 11.167969 L 3.738281 11.167969 L 3.738281 8.402344 C 3.738281 8.402344 3.734375 6.101562 6.046875 4.566406 C 8.691406 2.8125 11.382812 3.53125 12.953125 4.820312 C 15.125 6.613281 14.886719 8.59375 14.886719 8.59375 L 14.886719 11.167969 L 15.664062 11.167969 C 16.113281 11.167969 16.539062 11.25 16.917969 11.386719 L 16.917969 7.75 C 16.917969 7.75 17.25 5.132812 14.257812 2.765625 C 12.097656 1.0625 8.394531 0.109375 4.746094 2.429688 C 1.566406 4.457031 1.570312 7.496094 1.570312 7.496094 L 1.570312 11.515625 C 2.027344 11.296875 2.5625 11.167969 3.140625 11.167969 " fill-opacity="1" fill-rule="nonzero"/></g></g><g clip-path="url(#aae0c75d2e)"><g clip-path="url(#784f80cd87)"><path fill="#231f20" d="M 3.140625 11.167969 L 3.140625 11.367188 L 3.738281 11.367188 C 3.789062 11.367188 3.839844 11.34375 3.875 11.308594 C 3.910156 11.273438 3.933594 11.222656 3.933594 11.167969 L 3.933594 8.402344 C 3.933594 8.375 3.941406 7.816406 4.222656 7.089844 C 4.503906 6.359375 5.054688 5.460938 6.152344 4.734375 C 7.242188 4.007812 8.332031 3.722656 9.34375 3.722656 C 10.722656 3.71875 11.957031 4.257812 12.828125 4.976562 C 13.695312 5.6875 14.160156 6.421875 14.410156 7.042969 C 14.660156 7.660156 14.699219 8.167969 14.699219 8.410156 C 14.699219 8.464844 14.695312 8.507812 14.695312 8.535156 C 14.695312 8.546875 14.695312 8.558594 14.691406 8.5625 L 14.691406 8.570312 L 14.777344 8.582031 L 14.691406 8.570312 L 14.777344 8.582031 L 14.691406 8.570312 C 14.691406 8.578125 14.691406 8.585938 14.691406 8.59375 L 14.691406 11.167969 C 14.691406 11.222656 14.710938 11.273438 14.746094 11.308594 C 14.785156 11.34375 14.832031 11.367188 14.886719 11.367188 L 15.664062 11.367188 C 16.089844 11.367188 16.492188 11.441406 16.855469 11.570312 C 16.914062 11.59375 16.980469 11.585938 17.03125 11.546875 C 17.082031 11.511719 17.113281 11.449219 17.113281 11.386719 L 17.113281 7.75 L 16.917969 7.75 L 17.113281 7.773438 C 17.113281 7.765625 17.125 7.671875 17.125 7.507812 C 17.125 7.136719 17.066406 6.40625 16.691406 5.523438 C 16.316406 4.636719 15.628906 3.597656 14.378906 2.613281 C 13.101562 1.601562 11.304688 0.855469 9.292969 0.855469 C 7.8125 0.855469 6.21875 1.261719 4.644531 2.261719 C 3.019531 3.296875 2.199219 4.597656 1.789062 5.640625 C 1.378906 6.683594 1.378906 7.472656 1.378906 7.496094 L 1.378906 11.515625 C 1.378906 11.585938 1.410156 11.648438 1.46875 11.683594 C 1.523438 11.71875 1.59375 11.722656 1.65625 11.695312 C 2.082031 11.488281 2.59375 11.367188 3.140625 11.367188 L 3.140625 10.972656 C 2.535156 10.972656 1.96875 11.105469 1.488281 11.339844 L 1.570312 11.515625 L 1.765625 11.515625 L 1.765625 7.496094 C 1.765625 7.457031 1.777344 6.714844 2.167969 5.742188 C 2.5625 4.769531 3.328125 3.570312 4.851562 2.597656 C 6.367188 1.632812 7.882812 1.25 9.292969 1.25 C 11.207031 1.25 12.925781 1.964844 14.136719 2.921875 C 15.339844 3.871094 15.984375 4.851562 16.335938 5.679688 C 16.683594 6.503906 16.734375 7.179688 16.734375 7.507812 C 16.734375 7.582031 16.734375 7.636719 16.730469 7.671875 C 16.730469 7.691406 16.726562 7.707031 16.726562 7.714844 L 16.726562 7.726562 L 16.78125 7.730469 L 16.726562 7.722656 L 16.726562 7.726562 L 16.78125 7.730469 L 16.726562 7.722656 C 16.726562 7.734375 16.726562 7.742188 16.726562 7.75 L 16.726562 11.386719 L 16.917969 11.386719 L 16.984375 11.199219 C 16.582031 11.054688 16.136719 10.972656 15.664062 10.972656 L 15.078125 10.972656 L 15.078125 8.59375 L 14.886719 8.59375 L 15.078125 8.617188 C 15.078125 8.609375 15.085938 8.539062 15.085938 8.410156 C 15.085938 8.125 15.042969 7.570312 14.769531 6.890625 C 14.496094 6.214844 13.988281 5.421875 13.074219 4.667969 C 12.136719 3.898438 10.820312 3.328125 9.34375 3.328125 C 8.257812 3.328125 7.089844 3.636719 5.9375 4.402344 C 4.75 5.191406 4.144531 6.1875 3.847656 6.984375 C 3.546875 7.78125 3.542969 8.378906 3.542969 8.402344 L 3.542969 10.972656 L 3.140625 10.972656 L 3.140625 11.167969 " fill-opacity="1" fill-rule="nonzero"/></g></g></svg>