<svg xmlns="http://www.w3.org/2000/svg" xmlns:xlink="http://www.w3.org/1999/xlink" width="157" zoomAndPan="magnify" viewBox="0 0 117.75 79.499998" height="106" preserveAspectRatio="xMidYMid meet" version="1.0"><defs><clipPath id="90b689d9f8"><path d="M 0.242188 0 L 117.035156 0 L 117.035156 78.734375 L 0.242188 78.734375 Z M 0.242188 0 " clip-rule="nonzero"/></clipPath></defs><g clip-path="url(#90b689d9f8)"><path fill="#000000" d="M 69.054688 78.429688 C 77.097656 78.429688 84.816406 76.277344 92.222656 71.972656 C 99.625 67.667969 105.613281 61.671875 110.183594 53.984375 C 114.753906 46.296875 117.039062 37.695312 117.039062 28.175781 C 117.039062 24.25 116.476562 20.675781 115.375 17.441406 C 112.335938 7.410156 102.476562 0.0585938 90.773438 0.0585938 C 76.648438 0.0585938 65.199219 10.761719 65.199219 23.964844 C 65.199219 35.453125 73.863281 45.039062 85.417969 47.335938 C 89.183594 48.492188 89.339844 55.257812 86.78125 58.402344 L 86.785156 58.425781 C 86.339844 58.96875 85.878906 59.503906 85.367188 60.027344 C 81.4375 64.054688 75.726562 67.074219 68.230469 69.09375 C 65.671875 69.828125 63.9375 70.464844 63.019531 71.011719 C 62.113281 71.5625 61.652344 72.480469 61.652344 73.765625 C 61.652344 75.222656 62.335938 76.363281 63.707031 77.195312 C 65.074219 78.015625 66.859375 78.429688 69.054688 78.429688 Z M 7.4375 78.429688 C 15.476562 78.429688 23.199219 76.277344 30.605469 71.972656 C 38.007812 67.667969 43.996094 61.671875 48.5625 53.984375 C 53.132812 46.296875 55.417969 37.695312 55.417969 28.175781 C 55.417969 24.25 54.859375 20.675781 53.753906 17.441406 C 50.714844 7.410156 40.855469 0.0585938 29.152344 0.0585938 C 15.03125 0.0585938 3.578125 10.761719 3.578125 23.964844 C 3.578125 35.453125 12.246094 45.039062 23.800781 47.335938 C 27.566406 48.492188 27.71875 55.257812 25.164062 58.402344 L 25.164062 58.425781 C 24.722656 58.96875 24.257812 59.503906 23.75 60.027344 C 19.816406 64.054688 14.109375 67.074219 6.609375 69.09375 C 4.054688 69.828125 2.316406 70.464844 1.402344 71.011719 C 0.496094 71.5625 0.03125 72.480469 0.03125 73.765625 C 0.03125 75.226562 0.71875 76.363281 2.085938 77.195312 C 3.457031 78.015625 5.242188 78.429688 7.4375 78.429688 Z M 7.4375 78.429688 " fill-opacity="1" fill-rule="nonzero"/></g></svg>