<svg xmlns="http://www.w3.org/2000/svg" xmlns:xlink="http://www.w3.org/1999/xlink" width="87" zoomAndPan="magnify" viewBox="0 0 65.25 66" height="88" preserveAspectRatio="xMidYMid meet" version="1.0"><defs><clipPath id="4f335237e0"><path d="M 35 0.375 L 38 0.375 L 38 9 L 35 9 Z M 35 0.375 " clip-rule="nonzero"/></clipPath><clipPath id="5fbd76a03e"><path d="M 0 15 L 54 15 L 54 65.625 L 0 65.625 Z M 0 15 " clip-rule="nonzero"/></clipPath><clipPath id="d675eecd4e"><path d="M 37 41 L 63.765625 41 L 63.765625 65.625 L 37 65.625 Z M 37 41 " clip-rule="nonzero"/></clipPath></defs><g clip-path="url(#4f335237e0)"><path fill="#000000" d="M 36.117188 8.195312 C 36.726562 8.195312 37.21875 7.699219 37.21875 7.089844 L 37.21875 1.484375 C 37.21875 0.871094 36.726562 0.375 36.117188 0.375 C 35.507812 0.375 35.015625 0.871094 35.015625 1.484375 L 35.015625 7.089844 C 35.015625 7.699219 35.507812 8.195312 36.117188 8.195312 Z M 36.117188 8.195312 " fill-opacity="1" fill-rule="nonzero"/></g><path fill="#000000" d="M 21.203125 10.804688 C 21.421875 11.101562 21.753906 11.261719 22.09375 11.261719 C 22.320312 11.261719 22.546875 11.191406 22.746094 11.046875 C 23.234375 10.683594 23.339844 9.988281 22.980469 9.496094 L 19.6875 4.976562 C 19.328125 4.484375 18.636719 4.375 18.148438 4.738281 C 17.65625 5.101562 17.550781 5.796875 17.910156 6.289062 Z M 21.203125 10.804688 " fill-opacity="1" fill-rule="nonzero"/><path fill="#000000" d="M 49.253906 9.496094 C 48.890625 9.988281 48.996094 10.683594 49.488281 11.046875 C 49.683594 11.191406 49.914062 11.261719 50.140625 11.261719 C 50.476562 11.261719 50.8125 11.101562 51.027344 10.804688 L 54.324219 6.289062 C 54.683594 5.796875 54.578125 5.101562 54.085938 4.738281 C 53.59375 4.375 52.90625 4.484375 52.546875 4.976562 " fill-opacity="1" fill-rule="nonzero"/><path fill="#000000" d="M 21.984375 21.027344 C 21.988281 21.03125 21.996094 21.039062 22 21.042969 L 28.105469 26.230469 C 28.25 26.351562 28.367188 26.5 28.492188 26.636719 C 28.582031 26.679688 28.675781 26.714844 28.753906 26.78125 C 29.207031 27.164062 29.789062 27.34375 30.378906 27.300781 C 30.976562 27.246094 31.515625 26.96875 31.894531 26.515625 C 32.308594 26.09375 32.488281 25.605469 32.464844 25.0625 C 32.4375 24.410156 32.128906 23.769531 31.632812 23.351562 L 28.539062 20.71875 C 28.535156 20.71875 28.53125 20.71875 28.53125 20.714844 L 24.074219 16.921875 C 23.132812 16.125 21.722656 16.246094 20.929688 17.195312 C 20.136719 18.140625 20.253906 19.5625 21.195312 20.359375 Z M 21.984375 21.027344 " fill-opacity="1" fill-rule="nonzero"/><g clip-path="url(#5fbd76a03e)"><path fill="#000000" d="M 33.554688 22.179688 C 34.21875 22.953125 34.621094 23.929688 34.664062 24.96875 C 34.714844 26.136719 34.304688 27.21875 33.515625 28.011719 C 32.820312 28.851562 31.75 29.40625 30.566406 29.507812 C 30.4375 29.519531 30.308594 29.523438 30.179688 29.523438 C 30.023438 29.523438 29.867188 29.5 29.710938 29.484375 C 29.710938 29.503906 29.71875 29.519531 29.71875 29.539062 C 29.769531 30.707031 29.363281 31.792969 28.578125 32.589844 C 27.746094 33.578125 26.539062 34.089844 25.308594 34.101562 C 25.492188 35.328125 25.191406 36.625 24.339844 37.648438 C 23.722656 38.382812 22.914062 38.851562 22.050781 39.074219 C 22.328125 39.601562 22.503906 40.179688 22.550781 40.792969 C 22.652344 41.980469 22.285156 43.136719 21.523438 44.042969 C 20.765625 44.949219 19.695312 45.507812 18.515625 45.605469 C 18.386719 45.617188 18.257812 45.621094 18.128906 45.621094 C 17.085938 45.621094 16.085938 45.257812 15.28125 44.574219 L 11.851562 41.664062 L 0.0859375 52.230469 L 12.210938 65.625 L 28.34375 50.042969 C 28.605469 49.816406 28.953125 49.722656 29.28125 49.796875 C 31.542969 50.25 33.445312 50.5625 35.234375 50.433594 C 35.253906 50.433594 35.269531 50.429688 35.289062 50.429688 C 37.320312 50.277344 39.199219 49.554688 41.273438 47.792969 L 52.425781 37.621094 C 52.425781 37.621094 53.914062 36.246094 52.84375 35.027344 C 52.269531 34.371094 51.570312 33.898438 50.800781 33.652344 C 51.972656 32.027344 51.949219 29.746094 50.605469 28.144531 C 50.03125 27.457031 49.277344 26.96875 48.433594 26.730469 C 49.371094 25.144531 49.257812 23.0625 48.011719 21.570312 C 47.320312 20.75 46.378906 20.21875 45.332031 20.046875 C 45.796875 18.621094 45.675781 16.867188 44.515625 15.765625 C 43.34375 14.652344 41.476562 15.777344 41.476562 15.777344 Z M 33.554688 22.179688 " fill-opacity="1" fill-rule="nonzero"/></g><g clip-path="url(#d675eecd4e)"><path fill="#000000" d="M 42.722656 49.464844 C 41.03125 50.902344 39.429688 51.761719 37.824219 52.222656 L 52.988281 65.582031 L 63.683594 52.238281 L 51.589844 41.378906 Z M 42.722656 49.464844 " fill-opacity="1" fill-rule="nonzero"/></g><path fill="#000000" d="M 29.042969 15.652344 C 28.507812 16.457031 28.363281 17.667969 29.144531 18.332031 C 29.148438 18.335938 29.148438 18.335938 29.152344 18.339844 L 31.898438 20.671875 L 36.4375 17.007812 L 32.234375 15.035156 C 30.367188 14.058594 29.378906 15.140625 29.042969 15.652344 Z M 29.042969 15.652344 " fill-opacity="1" fill-rule="nonzero"/><path fill="#000000" d="M 15.105469 32.742188 L 17.164062 34.488281 C 17.171875 34.496094 17.171875 34.503906 17.175781 34.507812 L 19.511719 36.488281 C 20.453125 37.28125 21.863281 37.160156 22.652344 36.21875 C 23.445312 35.273438 23.324219 33.851562 22.382812 33.050781 L 17.992188 29.3125 C 17.988281 29.3125 17.984375 29.3125 17.980469 29.308594 L 17.976562 29.304688 C 17.523438 28.921875 16.945312 28.742188 16.355469 28.789062 C 15.757812 28.839844 15.21875 29.121094 14.835938 29.574219 C 14.046875 30.523438 14.164062 31.941406 15.105469 32.742188 Z M 15.105469 32.742188 " fill-opacity="1" fill-rule="nonzero"/><path fill="#000000" d="M 17.433594 23.003906 C 17.054688 23.457031 16.871094 24.039062 16.921875 24.644531 C 16.96875 25.242188 17.246094 25.785156 17.699219 26.164062 L 19.378906 27.59375 C 19.382812 27.597656 19.386719 27.597656 19.390625 27.601562 L 23.808594 31.355469 C 24.742188 32.152344 26.160156 32.035156 26.957031 31.085938 C 27.363281 30.671875 27.542969 30.175781 27.519531 29.632812 C 27.492188 28.984375 27.179688 28.34375 26.683594 27.925781 L 20.582031 22.738281 L 20.570312 22.730469 C 19.628906 21.9375 18.226562 22.058594 17.433594 23.003906 Z M 17.433594 23.003906 " fill-opacity="1" fill-rule="nonzero"/><path fill="#000000" d="M 12.867188 39.621094 L 16.703125 42.878906 C 17.15625 43.261719 17.726562 43.441406 18.328125 43.394531 C 18.921875 43.34375 19.460938 43.0625 19.839844 42.613281 C 20.226562 42.152344 20.410156 41.574219 20.359375 40.972656 C 20.308594 40.371094 20.03125 39.832031 19.578125 39.445312 L 18.09375 38.1875 C 18.09375 38.1875 18.089844 38.1875 18.089844 38.183594 C 18.089844 38.183594 18.089844 38.183594 18.085938 38.179688 L 15.714844 36.164062 C 14.777344 35.394531 13.386719 35.519531 12.597656 36.457031 C 11.808594 37.402344 11.925781 38.820312 12.867188 39.621094 Z M 12.867188 39.621094 " fill-opacity="1" fill-rule="nonzero"/></svg>