<svg xmlns="http://www.w3.org/2000/svg" xmlns:xlink="http://www.w3.org/1999/xlink" width="244" zoomAndPan="magnify" viewBox="0 0 183 135.750003" height="181" preserveAspectRatio="xMidYMid meet" version="1.0"><defs><clipPath id="0e824559ee"><path d="M 0.167969 0 L 182.832031 0 L 182.832031 134.75 L 0.167969 134.75 Z M 0.167969 0 " clip-rule="nonzero"/></clipPath></defs><path fill="#fbb03b" d="M 181.171875 1.402344 L 49.878906 67.5 L 1.648438 41.597656 Z M 68.640625 72.867188 L 100.457031 92.5 L 140.976562 117.515625 L 181.167969 1.402344 Z M 68.640625 72.867188 " fill-opacity="1" fill-rule="nonzero"/><path fill="#ec7944" d="M 181.171875 1.402344 L 49.878906 67.5 L 66.855469 133.59375 L 100.457031 92.5 L 68.640625 72.867188 Z M 181.171875 1.402344 " fill-opacity="1" fill-rule="nonzero"/><g clip-path="url(#0e824559ee)"><path fill="#010101" d="M 182.558594 1.308594 C 182.554688 1.253906 182.550781 1.195312 182.535156 1.136719 C 182.527344 1.082031 182.519531 1.023438 182.5 0.964844 C 182.496094 0.953125 182.496094 0.941406 182.492188 0.929688 C 182.480469 0.894531 182.453125 0.871094 182.4375 0.835938 C 182.433594 0.828125 182.429688 0.820312 182.425781 0.8125 C 182.410156 0.78125 182.410156 0.742188 182.390625 0.710938 C 182.382812 0.695312 182.371094 0.6875 182.363281 0.675781 C 182.335938 0.632812 182.300781 0.59375 182.269531 0.550781 C 182.230469 0.5 182.191406 0.460938 182.144531 0.414062 C 182.113281 0.382812 182.089844 0.34375 182.050781 0.316406 C 182.039062 0.304688 182.023438 0.292969 182.011719 0.285156 C 181.984375 0.261719 181.949219 0.25 181.921875 0.234375 C 181.871094 0.199219 181.816406 0.167969 181.761719 0.144531 C 181.710938 0.121094 181.664062 0.09375 181.613281 0.0742188 C 181.566406 0.0585938 181.519531 0.0546875 181.472656 0.046875 C 181.417969 0.0351562 181.367188 0.0195312 181.3125 0.015625 C 181.253906 0.0078125 181.195312 0.0078125 181.140625 0.0078125 C 181.078125 0.0117188 181.019531 0.0195312 180.960938 0.0273438 C 180.925781 0.03125 180.894531 0.0234375 180.859375 0.03125 L 1.339844 40.226562 C 0.769531 40.351562 0.335938 40.824219 0.253906 41.40625 C 0.175781 41.988281 0.464844 42.554688 0.980469 42.832031 L 48.671875 68.445312 L 65.496094 133.945312 C 65.496094 133.953125 65.503906 133.957031 65.503906 133.964844 C 65.539062 134.089844 65.59375 134.203125 65.660156 134.3125 C 65.671875 134.332031 65.675781 134.355469 65.6875 134.375 C 65.769531 134.5 65.875 134.605469 65.988281 134.699219 C 66.039062 134.738281 66.101562 134.761719 66.152344 134.792969 C 66.222656 134.832031 66.285156 134.882812 66.363281 134.910156 C 66.367188 134.914062 66.375 134.914062 66.378906 134.914062 C 66.527344 134.96875 66.6875 135 66.855469 135 C 66.90625 135 66.957031 134.996094 67.011719 134.992188 C 67.128906 134.976562 67.238281 134.933594 67.347656 134.890625 C 67.386719 134.875 67.429688 134.871094 67.46875 134.855469 C 67.644531 134.769531 67.789062 134.648438 67.914062 134.507812 C 67.921875 134.496094 67.9375 134.496094 67.945312 134.484375 L 100.765625 94.347656 L 140.238281 118.710938 C 140.464844 118.851562 140.71875 118.921875 140.976562 118.921875 C 141.136719 118.921875 141.296875 118.894531 141.449219 118.839844 C 141.847656 118.695312 142.164062 118.378906 142.304688 117.976562 L 182.5 1.863281 C 182.507812 1.839844 182.503906 1.816406 182.511719 1.792969 C 182.527344 1.738281 182.53125 1.683594 182.539062 1.628906 C 182.550781 1.566406 182.570312 1.507812 182.570312 1.449219 C 182.570312 1.445312 182.574219 1.441406 182.574219 1.4375 C 182.574219 1.394531 182.5625 1.351562 182.558594 1.308594 Z M 5.636719 42.144531 L 170.386719 5.257812 L 49.898438 65.914062 Z M 67.886719 71.679688 C 67.84375 71.710938 67.8125 71.746094 67.769531 71.777344 C 67.730469 71.808594 67.6875 71.839844 67.652344 71.875 C 67.640625 71.886719 67.628906 71.894531 67.617188 71.90625 C 67.597656 71.929688 67.582031 71.957031 67.5625 71.980469 C 67.546875 72 67.535156 72.015625 67.519531 72.035156 C 67.492188 72.074219 67.460938 72.109375 67.4375 72.148438 C 67.429688 72.160156 67.421875 72.171875 67.414062 72.183594 C 67.398438 72.21875 67.390625 72.253906 67.375 72.285156 C 67.363281 72.308594 67.351562 72.339844 67.339844 72.363281 C 67.324219 72.398438 67.304688 72.433594 67.296875 72.46875 C 67.292969 72.480469 67.289062 72.492188 67.285156 72.503906 C 67.277344 72.546875 67.277344 72.585938 67.269531 72.625 C 67.257812 72.691406 67.238281 72.753906 67.238281 72.824219 L 65.746094 123.609375 L 51.523438 68.246094 L 156.570312 15.359375 Z M 68.382812 129.503906 L 69.976562 75.34375 L 73.203125 77.332031 L 98.351562 92.859375 Z M 140.222656 115.398438 L 101.214844 91.320312 C 101.210938 91.316406 101.203125 91.308594 101.199219 91.304688 L 71.289062 72.851562 L 178.527344 4.75 Z M 140.222656 115.398438 " fill-opacity="1" fill-rule="nonzero"/></g></svg>