<svg xmlns="http://www.w3.org/2000/svg" xmlns:xlink="http://www.w3.org/1999/xlink" width="26" zoomAndPan="magnify" viewBox="0 0 19.5 19.499999" height="26" preserveAspectRatio="xMidYMid meet" version="1.0"><defs><clipPath id="51ff86c8a8"><path d="M 0 0 L 18.761719 0 L 18.761719 18.761719 L 0 18.761719 Z M 0 0 " clip-rule="nonzero"/></clipPath><clipPath id="93ce25e44e"><path d="M 9.378906 0 C 4.199219 0 0 4.199219 0 9.378906 C 0 14.5625 4.199219 18.761719 9.378906 18.761719 C 14.5625 18.761719 18.761719 14.5625 18.761719 9.378906 C 18.761719 4.199219 14.5625 0 9.378906 0 Z M 9.378906 0 " clip-rule="nonzero"/></clipPath></defs><g clip-path="url(#51ff86c8a8)"><g clip-path="url(#93ce25e44e)"><path fill="#d9d0b8" d="M 0 0 L 18.761719 0 L 18.761719 18.761719 L 0 18.761719 Z M 0 0 " fill-opacity="1" fill-rule="nonzero"/><path stroke-linecap="butt" transform="matrix(0.73125, 0, 0, 0.73125, 0.0000005, -0.000000000000020783)" fill="none" stroke-linejoin="miter" d="M 12.825854 0.000000000000028422 C 5.742521 0.000000000000028422 -0.000000683761 5.742522 -0.000000683761 12.825855 C -0.000000683761 19.91453 5.742521 25.657052 12.825854 25.657052 C 19.91453 25.657052 25.657051 19.91453 25.657051 12.825855 C 25.657051 5.742522 19.91453 0.000000000000028422 12.825854 0.000000000000028422 Z M 12.825854 0.000000000000028422 " stroke="#000000" stroke-width="2" stroke-opacity="1" stroke-miterlimit="4"/></g></g><path fill="#491802" d="M 12.097656 6.65625 C 12.460938 7.015625 12.738281 7.433594 12.933594 7.902344 C 13.128906 8.375 13.226562 8.867188 13.226562 9.378906 C 13.226562 9.886719 13.128906 10.378906 12.933594 10.851562 C 12.738281 11.320312 12.460938 11.738281 12.097656 12.097656 C 11.738281 12.460938 11.320312 12.738281 10.851562 12.933594 C 10.378906 13.128906 9.886719 13.226562 9.378906 13.226562 C 8.867188 13.226562 8.375 13.128906 7.902344 12.933594 C 7.433594 12.738281 7.015625 12.460938 6.65625 12.097656 C 6.292969 11.738281 6.015625 11.320312 5.820312 10.851562 C 5.625 10.378906 5.527344 9.886719 5.527344 9.378906 C 5.527344 8.867188 5.625 8.375 5.820312 7.902344 C 6.015625 7.433594 6.292969 7.015625 6.65625 6.65625 C 7.015625 6.292969 7.433594 6.015625 7.902344 5.820312 C 8.375 5.625 8.867188 5.527344 9.378906 5.527344 C 9.886719 5.527344 10.378906 5.625 10.851562 5.820312 C 11.320312 6.015625 11.738281 6.292969 12.097656 6.65625 Z M 12.097656 6.65625 " fill-opacity="1" fill-rule="nonzero"/></svg>