<svg xmlns="http://www.w3.org/2000/svg" xmlns:xlink="http://www.w3.org/1999/xlink" width="86" zoomAndPan="magnify" viewBox="0 0 64.5 75.749998" height="101" preserveAspectRatio="xMidYMid meet" version="1.0"><defs><clipPath id="195d04ce52"><path d="M 0 0.167969 L 63 0.167969 L 63 73 L 0 73 Z M 0 0.167969 " clip-rule="nonzero"/></clipPath></defs><g clip-path="url(#195d04ce52)"><path fill="#000000" d="M 26.660156 0.648438 C 25.796875 0.664062 25.101562 1.378906 25.117188 2.242188 L 25.117188 11.675781 C 25.109375 12.242188 25.402344 12.769531 25.894531 13.058594 C 26.382812 13.339844 26.984375 13.339844 27.476562 13.058594 C 27.964844 12.769531 28.261719 12.242188 28.253906 11.675781 L 28.253906 2.242188 C 28.261719 1.820312 28.09375 1.410156 27.796875 1.109375 C 27.496094 0.808594 27.082031 0.640625 26.660156 0.648438 Z M 12.539062 5.375 C 11.902344 5.375 11.332031 5.761719 11.085938 6.351562 C 10.847656 6.949219 10.988281 7.625 11.449219 8.070312 L 17.726562 14.359375 C 18.121094 14.769531 18.707031 14.9375 19.253906 14.789062 C 19.804688 14.648438 20.234375 14.21875 20.375 13.664062 C 20.523438 13.121094 20.355469 12.53125 19.945312 12.136719 L 13.667969 5.847656 C 13.375 5.542969 12.96875 5.375 12.539062 5.375 Z M 40.78125 5.375 C 40.371094 5.382812 39.984375 5.554688 39.703125 5.847656 L 33.425781 12.136719 C 33.011719 12.53125 32.847656 13.121094 32.996094 13.664062 C 33.136719 14.21875 33.566406 14.648438 34.117188 14.789062 C 34.664062 14.9375 35.25 14.769531 35.644531 14.359375 L 41.921875 8.070312 C 42.386719 7.617188 42.523438 6.929688 42.273438 6.332031 C 42.019531 5.730469 41.433594 5.351562 40.78125 5.375 Z M 56.78125 8.53125 C 55.644531 8.53125 54.503906 8.96875 53.640625 9.835938 L 23.546875 39.972656 C 23.546875 39.972656 18.953125 31.320312 16.652344 29.011719 C 12.636719 24.988281 4.867188 23.023438 2.820312 25.074219 L 0 27.894531 L 8.878906 36.785156 L 15.695312 57.265625 L 28.023438 69.609375 C 32.484375 74.078125 39.722656 74.078125 44.183594 69.609375 L 61.488281 52.277344 C 63.222656 50.539062 63.222656 47.726562 61.488281 45.992188 C 59.753906 44.253906 56.945312 44.253906 55.210938 45.992188 L 56.78125 44.417969 C 58.515625 42.679688 58.515625 39.867188 56.78125 38.128906 C 55.042969 36.394531 52.234375 36.394531 50.5 38.128906 L 52.070312 36.558594 C 53.804688 34.820312 53.804688 32.007812 52.070312 30.269531 C 50.335938 28.53125 47.527344 28.53125 45.792969 30.269531 L 59.917969 16.121094 C 61.65625 14.382812 61.65625 11.570312 59.917969 9.835938 C 59.054688 8.96875 57.914062 8.53125 56.78125 8.53125 Z M 56.78125 8.53125 " fill-opacity="1" fill-rule="nonzero"/></g></svg>