<svg xmlns="http://www.w3.org/2000/svg" xmlns:xlink="http://www.w3.org/1999/xlink" width="26" zoomAndPan="magnify" viewBox="0 0 19.5 19.499999" height="26" preserveAspectRatio="xMidYMid meet" version="1.0"><defs><clipPath id="1f38cfad79"><path d="M 0 0 L 18.761719 0 L 18.761719 18.761719 L 0 18.761719 Z M 0 0 " clip-rule="nonzero"/></clipPath><clipPath id="42daf3b9ac"><path d="M 9.378906 0 C 4.199219 0 0 4.199219 0 9.378906 C 0 14.5625 4.199219 18.761719 9.378906 18.761719 C 14.5625 18.761719 18.761719 14.5625 18.761719 9.378906 C 18.761719 4.199219 14.5625 0 9.378906 0 Z M 9.378906 0 " clip-rule="nonzero"/></clipPath></defs><g clip-path="url(#1f38cfad79)"><g clip-path="url(#42daf3b9ac)"><path fill="#d9d0b8" d="M 0 0 L 18.761719 0 L 18.761719 18.761719 L 0 18.761719 Z M 0 0 " fill-opacity="1" fill-rule="nonzero"/><path stroke-linecap="butt" transform="matrix(0.73125, 0, 0, 0.73125, 0.0000005, -0.000000000000020783)" fill="none" stroke-linejoin="miter" d="M 12.825854 0.000000000000028422 C 5.742521 0.000000000000028422 -0.000000683761 5.742522 -0.000000683761 12.825855 C -0.000000683761 19.91453 5.742521 25.657052 12.825854 25.657052 C 19.91453 25.657052 25.657051 19.91453 25.657051 12.825855 C 25.657051 5.742522 19.91453 0.000000000000028422 12.825854 0.000000000000028422 Z M 12.825854 0.000000000000028422 " stroke="#000000" stroke-width="2" stroke-opacity="1" stroke-miterlimit="4"/></g></g></svg>