<svg xmlns="http://www.w3.org/2000/svg" xmlns:xlink="http://www.w3.org/1999/xlink" width="53" zoomAndPan="magnify" viewBox="0 0 39.75 39.749999" height="53" preserveAspectRatio="xMidYMid meet" version="1.0"><defs><clipPath id="8f1872c89c"><path d="M 0 0 L 39.476562 0 L 39.476562 39.476562 L 0 39.476562 Z M 0 0 " clip-rule="nonzero"/></clipPath><clipPath id="98a0c808ce"><path d="M 0 0 L 39.464844 0 L 39.464844 39.464844 L 0 39.464844 Z M 0 0 " clip-rule="nonzero"/></clipPath><clipPath id="9c3815e5da"><path d="M 10.292969 0.136719 L 32.375 0.136719 L 32.375 26 L 10.292969 26 Z M 10.292969 0.136719 " clip-rule="nonzero"/></clipPath><clipPath id="1cb08fbc3b"><path d="M 10.292969 11 L 23 11 L 23 34.417969 L 10.292969 34.417969 Z M 10.292969 11 " clip-rule="nonzero"/></clipPath><clipPath id="edec3bbada"><path d="M 10.292969 0.136719 L 22 0.136719 L 22 11 L 10.292969 11 Z M 10.292969 0.136719 " clip-rule="nonzero"/></clipPath></defs><g clip-path="url(#8f1872c89c)"><path fill="#000000" d="M 0 0 L 39.476562 0 L 39.476562 39.476562 L 0 39.476562 Z M 0 0 " fill-opacity="1" fill-rule="nonzero"/></g><g clip-path="url(#98a0c808ce)"><path stroke-linecap="butt" transform="matrix(0.745312, 0, 0, 0.745312, 0.0000005, -0.000000000000010592)" fill="none" stroke-linejoin="miter" d="M -0.00000067086 0.000000000000014211 L 52.950737 0.000000000000014211 L 52.950737 52.950737 L -0.00000067086 52.950737 Z M -0.00000067086 0.000000000000014211 " stroke="#737373" stroke-width="2" stroke-opacity="1" stroke-miterlimit="4"/></g><g clip-path="url(#9c3815e5da)"><path fill="#ffffff" d="M 31.433594 1.710938 C 30.75 4.570312 29.582031 7.410156 29.003906 10.265625 C 28.789062 11.347656 28.484375 12.476562 28.503906 13.574219 C 28.539062 18.050781 27.296875 23.300781 22.425781 25.636719 C 21.402344 26.121094 15.523438 24.289062 14.949219 23.675781 C 13.671875 22.3125 13.042969 19.273438 13.222656 17.421875 C 13.492188 14.671875 14.859375 12.171875 16.277344 9.925781 C 17.230469 8.363281 18.183594 6.707031 18.757812 4.945312 C 18.5625 3.832031 18.21875 2.769531 17.589844 1.820312 C 16.40625 0.164062 14.605469 -1.003906 12.648438 -1.472656 C 9.859375 -1.957031 7.074219 -0.535156 4.808594 0.972656 C -0.636719 4.945312 -5.582031 9.40625 -12.125 10.554688 C -13.542969 12.40625 -15.648438 13.683594 -17.984375 12.660156 C -19.027344 12.207031 -19.851562 11.398438 -20.445312 10.429688 C -21.113281 10.339844 -21.777344 10.230469 -22.441406 10.105469 C -23.898438 11.273438 -25.660156 12.28125 -27.527344 11.757812 C -29.328125 11.238281 -30.242188 9.40625 -30.800781 7.75 C -32.09375 7.230469 -33.335938 6.652344 -34.449219 6.007812 C -37.722656 4.046875 -40.417969 1.207031 -42.359375 -2.082031 C -43.726562 -4.328125 -44.730469 -6.792969 -45.398438 -9.328125 C -45.542969 -9.8125 -45.953125 -11.5 -46.132812 -13.066406 C -46.761719 -13.316406 -47.355469 -13.621094 -47.949219 -13.945312 C -50.160156 -15.132812 -54.078125 -18.316406 -51.347656 -20.847656 C -49.675781 -22.160156 -46.726562 -21.785156 -44.695312 -22 C -43.113281 -22.109375 -41.550781 -22.289062 -40.039062 -22.59375 C -37.039062 -23.203125 -34.214844 -24.371094 -31.449219 -25.648438 C -28.375 -27.03125 -25.300781 -28.398438 -22.046875 -29.296875 C -13.6875 -31.742188 -5.078125 -29.191406 2.996094 -26.835938 C 6.320312 -25.953125 9.71875 -25.289062 13.078125 -24.570312 C 16.277344 -23.90625 19.566406 -23.222656 22.410156 -21.515625 C 26.578125 -19.035156 29.867188 -15.097656 31.324219 -10.441406 C 32.492188 -6.503906 32.476562 -2.261719 31.433594 1.710938 Z M 31.433594 1.710938 " fill-opacity="1" fill-rule="nonzero"/></g><g clip-path="url(#1cb08fbc3b)"><path fill="#ec7944" d="M -8.132812 22.042969 C -8.3125 22.472656 -8.960938 22.507812 -9.335938 22.617188 C -9.984375 22.761719 -10.648438 22.886719 -11.277344 23.121094 C -12.285156 23.535156 -13.292969 24.253906 -13.578125 25.332031 C -13.8125 25.835938 -13.742188 27.238281 -14.550781 27.039062 C -15.019531 26.859375 -15.289062 26.390625 -15.59375 25.996094 C -16.238281 25.0625 -17.011719 24.074219 -18.164062 23.75 C -18.269531 23.714844 -18.359375 23.695312 -18.46875 23.660156 C -18.253906 23.820312 -18.128906 24.035156 -18.179688 24.34375 C -18.378906 24.808594 -19.0625 24.847656 -19.457031 24.972656 C -20.160156 25.132812 -20.859375 25.257812 -21.523438 25.511719 C -22.605469 25.941406 -23.683594 26.714844 -24.003906 27.882812 C -24.257812 28.421875 -24.167969 29.914062 -25.046875 29.71875 C -25.550781 29.519531 -25.839844 29.015625 -26.164062 28.601562 C -26.863281 27.597656 -27.691406 26.535156 -28.914062 26.195312 C -29.398438 26.050781 -29.957031 25.941406 -30.460938 25.925781 C -31.230469 25.796875 -33.621094 26.355469 -33.800781 25.4375 C -33.785156 24.773438 -32.941406 24.539062 -32.472656 24.21875 C -31.574219 23.695312 -30.691406 23.121094 -29.917969 22.4375 C -27.90625 20.675781 -27.152344 18.195312 -27.457031 15.570312 C -27.636719 14.203125 -27.726562 12.785156 -28.085938 11.453125 C -27.582031 11.707031 -27.027344 11.832031 -26.414062 11.832031 C -26 11.832031 -25.605469 11.757812 -25.210938 11.632812 C -25.136719 12.316406 -25.136719 13 -25.121094 13.683594 C -25.085938 14.761719 -25.046875 15.859375 -24.957031 16.917969 C -24.761719 19.453125 -23.699219 21.070312 -21.882812 22.148438 C -21.722656 22.058594 -21.578125 21.988281 -21.453125 21.898438 C -20.609375 21.414062 -19.800781 20.890625 -19.082031 20.226562 C -17.191406 18.589844 -16.492188 16.269531 -16.78125 13.828125 C -16.816406 13.519531 -16.851562 13.214844 -16.886719 12.910156 C -16.691406 12.945312 -16.507812 12.945312 -16.3125 12.945312 C -15.71875 12.945312 -15.125 12.800781 -14.605469 12.53125 C -14.585938 13.378906 -14.53125 14.238281 -14.460938 15.085938 C -14.207031 18.320312 -12.445312 19.957031 -9.464844 20.890625 C -8.996094 21.160156 -8.007812 21.324219 -8.132812 22.042969 Z M 21.921875 22.777344 C 20.519531 21.699219 18.617188 21.015625 16.855469 21.269531 C 16.316406 21.339844 15.703125 21.324219 15.21875 21.609375 C 14.714844 21.914062 14.589844 22.492188 14.5 23.03125 C 14.335938 23.945312 14.535156 24.808594 14.535156 25.726562 C 14.535156 26.644531 14.5 27.578125 14.265625 28.460938 C 14.011719 29.5 13.421875 30.382812 13.222656 31.460938 C 12.917969 32.683594 13.742188 34.140625 15.074219 34.195312 C 17.949219 34.355469 17.84375 30.796875 19.011719 28.980469 C 19.820312 27.558594 21.148438 26.519531 22.246094 25.296875 C 22.949219 24.449219 22.859375 23.425781 21.921875 22.777344 Z M 21.921875 22.777344 " fill-opacity="1" fill-rule="nonzero"/></g><path fill="#9c502c" d="M 16.476562 26.894531 C 16.496094 27.238281 16.457031 28.585938 15.902344 28.441406 C 15.542969 28.316406 15.738281 27.957031 15.8125 27.722656 C 15.863281 27.453125 15.902344 27.238281 15.882812 26.96875 C 15.828125 26.570312 16.421875 26.519531 16.476562 26.894531 Z M 17.535156 27.308594 C 17.339844 27.597656 16.746094 28.800781 17.285156 28.925781 C 17.664062 29 17.664062 28.566406 17.714844 28.351562 C 17.804688 28.082031 17.878906 27.882812 18.023438 27.667969 C 18.257812 27.34375 17.769531 27.003906 17.535156 27.308594 Z M 17.535156 27.308594 " fill-opacity="1" fill-rule="nonzero"/><path fill="#615b5b" d="M 17.230469 16.59375 C 17.355469 17.042969 17.320312 17.582031 17.214844 17.941406 C 17.050781 18.464844 16.65625 19.074219 16.027344 18.84375 C 15.648438 18.699219 15.542969 18.300781 15.503906 17.941406 C 15.453125 17.402344 15.398438 16.722656 15.683594 16.234375 C 15.847656 15.964844 16.117188 15.785156 16.476562 15.839844 C 16.890625 15.894531 17.125 16.199219 17.230469 16.59375 Z M 24.871094 18.753906 C 24.53125 18.519531 24.152344 18.589844 23.8125 18.789062 C 23.414062 19.023438 23.074219 19.453125 22.910156 19.8125 C 22.695312 20.296875 22.570312 21.035156 23.179688 21.269531 C 23.558594 21.414062 23.902344 21.195312 24.171875 20.945312 C 24.566406 20.585938 25.070312 20.101562 25.175781 19.5625 C 25.25 19.273438 25.175781 18.949219 24.871094 18.753906 Z M 24.871094 18.753906 " fill-opacity="1" fill-rule="nonzero"/><g clip-path="url(#edec3bbada)"><path fill="#b3a8a8" d="M -11.78125 10.5 C -13.398438 10.898438 -15.144531 11.023438 -16.816406 10.898438 C -17.894531 10.789062 -19.027344 10.679688 -20.070312 10.394531 C -17.300781 10.339844 -14.550781 10.429688 -11.78125 10.5 Z M -1.03125 -16.246094 C -1.914062 -15.691406 -2.8125 -15.152344 -3.730469 -14.648438 C -5.417969 -13.765625 -7.234375 -13.101562 -8.996094 -12.382812 C -11.890625 -11.25 -14.980469 -10.0625 -18.179688 -10.082031 C -20.175781 -10.097656 -22.152344 -10.925781 -23.609375 -12.308594 C -24.167969 -12.851562 -24.417969 -13.605469 -24.796875 -14.25 C -25.300781 -15.042969 -26.359375 -14.917969 -27.167969 -14.863281 C -28.339844 -14.828125 -29.578125 -14.738281 -30.691406 -15.222656 C -32.582031 -16.03125 -32.292969 -17.722656 -30.890625 -18.871094 C -30.601562 -19.015625 -30.40625 -19.339844 -30.601562 -19.625 C -31.179688 -20.363281 -32.167969 -18.960938 -32.492188 -18.511719 C -33.820312 -16.5 -32.453125 -14.613281 -30.351562 -14.070312 C -29.433594 -13.839844 -28.480469 -13.839844 -27.527344 -13.875 C -27.097656 -13.890625 -26.683594 -13.929688 -26.253906 -13.929688 C -26.035156 -13.910156 -25.75 -13.929688 -25.605469 -13.730469 C -25.246094 -13.066406 -24.957031 -12.328125 -24.417969 -11.769531 C -23.25 -10.53125 -21.632812 -9.722656 -19.996094 -9.308594 C -15.933594 -8.535156 -11.925781 -10.226562 -8.1875 -11.664062 C -5.527344 -12.6875 -2.902344 -13.820312 -0.511719 -15.421875 C -0.296875 -15.5625 -0.222656 -15.871094 -0.367188 -16.085938 C -0.511719 -16.320312 -0.796875 -16.390625 -1.03125 -16.246094 Z M 18.847656 5.035156 C 20.484375 2.539062 21.132812 -0.535156 21.402344 -3.484375 C 20.359375 -0.734375 19.820312 2.230469 18.847656 5.035156 Z M -45.773438 -12.976562 C -44.839844 -12.257812 -43.582031 -12.003906 -42.429688 -11.859375 C -41.890625 -11.824219 -41.316406 -11.824219 -40.796875 -11.878906 C -42.109375 -12.078125 -43.402344 -12.363281 -44.714844 -12.632812 C -45.054688 -12.722656 -45.453125 -12.832031 -45.773438 -12.976562 Z M -45.773438 -12.976562 " fill-opacity="1" fill-rule="nonzero"/></g></svg>