<svg xmlns="http://www.w3.org/2000/svg" xmlns:xlink="http://www.w3.org/1999/xlink" width="47" zoomAndPan="magnify" viewBox="0 0 35.25 38.999999" height="52" preserveAspectRatio="xMidYMid meet" version="1.0"><defs><clipPath id="14d116bb6a"><path d="M 0 0.40625 L 34.515625 0.40625 L 34.515625 38.59375 L 0 38.59375 Z M 0 0.40625 " clip-rule="nonzero"/></clipPath><clipPath id="a531a4e44b"><path d="M 1 4 L 34 4 L 34 38.59375 L 1 38.59375 Z M 1 4 " clip-rule="nonzero"/></clipPath><clipPath id="994c75538a"><path d="M 0 16 L 32 16 L 32 38.59375 L 0 38.59375 Z M 0 16 " clip-rule="nonzero"/></clipPath></defs><g clip-path="url(#14d116bb6a)"><path fill="#ffffff" d="M 63.789062 34.511719 C 63.421875 35.839844 62.746094 37.066406 61.992188 38.191406 C 59.882812 41.117188 56.652344 43.46875 53.402344 44.9375 C 53.097656 45.0625 52.789062 45.164062 52.460938 45.285156 C 51.949219 46.574219 51.378906 47.84375 50.582031 48.96875 C 49.292969 50.664062 47.597656 51.992188 45.695312 52.953125 C 45.285156 54.367188 44.46875 55.675781 43.527344 56.738281 C 41.320312 59.414062 38.171875 60.828125 35.042969 62.09375 C 34.246094 62.421875 33.445312 62.726562 32.667969 63.035156 C 32.402344 63.136719 32.160156 63.257812 31.894531 63.363281 C 31.933594 64.628906 31.8125 66 31.484375 67.53125 C 31.484375 67.574219 31.464844 67.613281 31.441406 67.65625 C 31.382812 68.023438 31.300781 68.371094 31.21875 68.738281 C 31.054688 69.515625 30.828125 70.253906 30.523438 70.949219 C 30.296875 71.601562 30.074219 72.277344 29.664062 72.828125 C 29.644531 72.847656 29.644531 72.871094 29.625 72.871094 C 29.5 73.113281 29.378906 73.359375 29.234375 73.605469 C 28.457031 75.035156 27.515625 76.507812 26.046875 77.285156 C 26.023438 77.304688 26.023438 77.328125 26.003906 77.347656 C 25.59375 77.960938 25.1875 78.574219 24.714844 79.125 C 23.898438 80.167969 22.609375 80.84375 21.28125 80.84375 C 19.625 80.804688 18.214844 79.84375 16.804688 79.042969 C 14.59375 79.453125 12.691406 78.921875 10.484375 78.902344 C 9.832031 78.882812 8.953125 78.921875 8.296875 78.859375 C 7.457031 79.535156 6.476562 80.457031 5.128906 80.433594 C 3.675781 80.394531 2.285156 79.574219 1.261719 78.429688 C 0.507812 77.613281 0.199219 76.773438 0.179688 76.632812 C -2.886719 73.421875 -4.851562 67.984375 -4.910156 63.257812 C -5.117188 63.179688 -5.320312 63.074219 -5.523438 63.015625 C -6.320312 62.6875 -7.121094 62.378906 -7.898438 62.074219 C -11.023438 60.804688 -14.171875 59.394531 -16.382812 56.714844 C -17.324219 55.652344 -18.140625 54.34375 -18.550781 52.933594 C -20.449219 51.972656 -22.148438 50.644531 -23.4375 48.945312 C -24.234375 47.824219 -24.828125 46.554688 -25.316406 45.265625 C -25.625 45.164062 -25.949219 45.042969 -26.257812 44.917969 C -29.53125 43.46875 -32.738281 41.09375 -34.84375 38.171875 C -35.621094 37.046875 -36.277344 35.820312 -36.644531 34.492188 C -36.847656 33.652344 -37.113281 32.691406 -36.726562 31.851562 C -36.480469 31.320312 -35.847656 31.035156 -35.296875 31.261719 C -34.210938 31.691406 -33.292969 32.488281 -32.148438 32.835938 C -30.082031 33.488281 -27.851562 33.773438 -25.746094 33.285156 C -22.332031 32.464844 -19.941406 31.261719 -16.28125 32.222656 C -12.824219 32.9375 -10.042969 34.898438 -7.628906 37.414062 C -4.320312 40.746094 -1.886719 44.835938 1.550781 48.046875 C 2.246094 47.046875 2.941406 46.042969 3.65625 45.042969 C 5.128906 42.996094 6.4375 40.789062 7.273438 38.394531 C 8.195312 35.820312 8.257812 33.160156 8.234375 30.441406 C 8.214844 28.539062 8.09375 26.640625 7.886719 24.738281 C 7.683594 22.9375 7.152344 21.363281 6.601562 19.648438 C 5.515625 16.292969 4.414062 12.613281 4.699219 9.054688 C 5.066406 4.515625 7.664062 0.980469 12.425781 0.609375 C 13.859375 0.40625 15.230469 0.671875 16.414062 1.285156 C 17.5 1.695312 18.480469 2.347656 19.359375 3.105469 C 20.441406 4.046875 21.484375 5.027344 22.488281 6.050781 C 22.8125 6.457031 23.589844 13.777344 23.367188 14.085938 C 22.753906 14.820312 22.015625 15.476562 21.21875 16.007812 C 19.625 18.664062 18.703125 21.691406 18.378906 24.777344 C 18.152344 26.699219 18.355469 28.582031 18.5 30.503906 C 18.644531 32.488281 18.847656 34.492188 19.09375 36.453125 C 19.421875 39.113281 19.789062 41.625 20.972656 44.058594 C 21.875 45.878906 23.082031 47.515625 24.308594 49.132812 C 24.714844 48.824219 25.105469 48.515625 25.492188 48.191406 C 29.011719 44.980469 31.464844 40.808594 34.816406 37.433594 C 37.230469 34.898438 39.988281 32.957031 43.464844 32.242188 C 47.105469 31.28125 49.519531 32.488281 52.933594 33.304688 C 55.058594 33.796875 57.289062 33.488281 59.332031 32.855469 C 60.457031 32.507812 61.398438 31.730469 62.480469 31.28125 C 63.03125 31.054688 63.667969 31.34375 63.914062 31.875 C 64.238281 32.691406 63.996094 33.671875 63.789062 34.511719 Z M 63.789062 34.511719 " fill-opacity="1" fill-rule="nonzero"/></g><g clip-path="url(#a531a4e44b)"><path fill="#ec7944" d="M 23.40625 92.027344 C 23.613281 92.355469 24.019531 92.847656 23.589844 93.171875 C 23.140625 93.398438 22.628906 92.988281 22.160156 92.886719 C 21.035156 92.539062 19.746094 92.539062 18.808594 93.296875 C 18.316406 93.683594 17.824219 93.355469 17.949219 92.765625 C 18.089844 91.886719 18.007812 90.863281 17.375 90.1875 C 17.007812 89.800781 16.515625 89.535156 16.003906 89.390625 C 15.820312 89.328125 15.496094 89.289062 15.351562 89.125 C 15.207031 88.960938 15.230469 88.714844 15.351562 88.550781 C 15.496094 88.390625 15.738281 88.390625 15.945312 88.367188 C 16.804688 88.285156 17.601562 87.917969 18.234375 87.324219 C 19.214844 86.386719 19.460938 84.953125 19.746094 83.6875 C 19.851562 83.296875 19.992188 81.824219 20.300781 80.578125 C 20.789062 80.660156 21.320312 80.722656 21.832031 80.722656 C 21.566406 82.316406 21.117188 83.871094 20.851562 85.445312 C 20.484375 87.347656 21.503906 89.0625 22.546875 90.578125 C 22.8125 91.085938 23.101562 91.558594 23.40625 92.027344 Z M 9.339844 88.632812 C 8.5 88.511719 7.703125 88.082031 7.132812 87.46875 C 6.210938 86.464844 6.046875 85.035156 5.824219 83.746094 C 5.722656 83.339844 5.660156 81.660156 5.394531 80.351562 C 4.863281 80.3125 4.332031 80.230469 3.820312 80.085938 C 3.839844 80.292969 3.878906 80.476562 3.902344 80.679688 C 4.066406 82.273438 4.433594 83.847656 4.617188 85.445312 C 4.882812 87.367188 3.757812 89.023438 2.632812 90.472656 C 2.304688 90.925781 1.980469 91.394531 1.652344 91.84375 C 1.425781 92.171875 0.996094 92.621094 1.40625 92.96875 C 1.855469 93.234375 2.386719 92.824219 2.839844 92.765625 C 3.984375 92.476562 5.25 92.539062 6.171875 93.355469 C 6.621094 93.785156 7.152344 93.480469 7.070312 92.886719 C 6.988281 92.007812 7.109375 90.984375 7.785156 90.351562 C 8.175781 89.984375 8.664062 89.757812 9.195312 89.636719 C 9.382812 89.59375 9.707031 89.574219 9.851562 89.410156 C 10.015625 89.269531 9.996094 89.003906 9.871094 88.839844 C 9.789062 88.675781 9.523438 88.65625 9.339844 88.632812 Z M 24.328125 11.183594 C 24.429688 11.019531 24.960938 10.996094 25.144531 10.957031 C 25.472656 10.875 25.777344 10.773438 26.085938 10.648438 C 27.210938 10.21875 28.210938 9.566406 29.253906 8.953125 C 30.503906 8.09375 32.855469 7.378906 33.425781 5.949219 C 33.527344 5.703125 33.507812 5.332031 33.28125 5.148438 C 33.058594 4.964844 32.730469 4.964844 32.464844 5.027344 C 31.972656 5.128906 31.566406 5.4375 31.117188 5.640625 C 30.664062 5.84375 30.257812 6.132812 29.808594 6.292969 C 29.316406 6.480469 28.804688 6.582031 28.316406 6.703125 C 27.761719 6.828125 27.210938 6.929688 26.660156 6.949219 C 24.695312 6.988281 22.917969 6.027344 21.34375 4.964844 C 21.261719 4.925781 21.199219 4.863281 21.117188 4.824219 C 21.078125 4.800781 21.054688 4.78125 21.015625 4.761719 C 20.21875 4.761719 19.503906 5.332031 19.074219 6.132812 C 18.195312 7.5625 17.3125 9.15625 17.519531 10.894531 C 17.640625 11.835938 18.089844 12.757812 18.621094 13.53125 C 19.15625 14.308594 19.910156 15.109375 20.851562 15.332031 C 21.160156 15.414062 21.382812 15.375 21.667969 15.230469 C 22.46875 14.839844 23.347656 14.636719 24.203125 14.453125 C 25.105469 14.269531 26.023438 14.144531 26.945312 14.105469 C 28.765625 14.023438 30.585938 14.25 32.382812 14.371094 C 32.507812 14.371094 32.628906 14.390625 32.730469 14.351562 C 32.773438 14.351562 32.792969 14.332031 32.832031 14.308594 C 33.078125 14.167969 32.957031 13.921875 32.773438 13.800781 C 32.628906 13.71875 32.484375 13.613281 32.363281 13.53125 C 32.078125 13.347656 31.8125 13.183594 31.503906 13.042969 C 30.398438 12.492188 29.234375 12.222656 28.007812 12.039062 C 26.820312 11.875 25.636719 11.753906 24.46875 11.425781 C 24.410156 11.40625 24.367188 11.40625 24.308594 11.386719 C 24.265625 11.367188 24.246094 11.324219 24.246094 11.285156 C 24.246094 11.261719 24.265625 11.242188 24.285156 11.222656 C 24.328125 11.203125 24.328125 11.183594 24.328125 11.183594 Z M 24.328125 11.183594 " fill-opacity="1" fill-rule="nonzero"/></g><path fill="#9c502c" d="M 25.675781 8.011719 C 25.246094 8.136719 24.796875 8.054688 24.367188 8.011719 C 24.203125 7.992188 24.0625 7.847656 24.082031 7.664062 C 24.101562 7.5 24.265625 7.359375 24.429688 7.378906 C 24.738281 7.417969 25.042969 7.460938 25.351562 7.441406 C 25.554688 7.378906 25.820312 7.359375 25.882812 7.625 C 25.941406 7.789062 25.839844 7.972656 25.675781 8.011719 Z M 25.675781 8.011719 " fill-opacity="1" fill-rule="nonzero"/><path fill="#615b5b" d="M 12.589844 7.5625 C 12.160156 7.417969 12 7.050781 11.894531 6.703125 C 11.792969 6.316406 11.691406 5.84375 11.773438 5.457031 C 11.855469 5.066406 12.039062 4.515625 12.488281 4.3125 C 12.898438 4.105469 13.265625 4.292969 13.492188 4.558594 C 13.980469 5.066406 13.898438 7.765625 12.589844 7.5625 Z M 12.589844 7.5625 " fill-opacity="1" fill-rule="nonzero"/><g clip-path="url(#994c75538a)"><path fill="#b3a8a8" d="M 21.054688 16.109375 C 19.664062 17.273438 17.96875 18.113281 16.191406 18.480469 C 15.269531 18.664062 14.289062 18.707031 13.367188 18.625 C 16.027344 18.195312 18.5625 17.316406 20.996094 16.148438 C 21.015625 16.128906 21.054688 16.089844 21.054688 16.109375 Z M -3.992188 59.027344 C -4.214844 60.109375 -4.175781 61.277344 -4.480469 62.296875 C -4.214844 61.828125 -4.175781 61.234375 -4.03125 60.722656 C -3.890625 60.070312 -3.746094 59.414062 -3.582031 58.761719 C -2.804688 55.675781 -1.640625 52.933594 0.199219 50.070312 C 0.546875 49.640625 0.710938 49.152344 1.078125 48.742188 C -2.128906 51.789062 -3.378906 54.9375 -3.992188 59.027344 Z M 30.851562 59.660156 C 29.929688 55.632812 28.4375 52.585938 25.003906 49.785156 C 25.410156 50.152344 25.59375 50.644531 25.984375 51.054688 C 28.027344 53.75 29.398438 56.410156 30.398438 59.414062 C 30.605469 60.050781 30.808594 60.703125 30.992188 61.335938 C 31.175781 61.847656 31.257812 62.421875 31.566406 62.890625 C 31.199219 61.871094 31.136719 60.703125 30.851562 59.660156 Z M 30.851562 59.660156 " fill-opacity="1" fill-rule="nonzero"/></g></svg>