<svg xmlns="http://www.w3.org/2000/svg" xmlns:xlink="http://www.w3.org/1999/xlink" width="24" zoomAndPan="magnify" viewBox="0 0 18 17.999999" height="24" preserveAspectRatio="xMidYMid meet" version="1.0"><defs><clipPath id="d38194d130"><path d="M 0 0 L 17.425781 0 L 17.425781 17.425781 L 0 17.425781 Z M 0 0 " clip-rule="nonzero"/></clipPath><clipPath id="11946195bd"><path d="M 0.75 0 L 16.675781 0 C 16.875 0 17.0625 0.078125 17.203125 0.21875 C 17.34375 0.359375 17.425781 0.550781 17.425781 0.75 L 17.425781 16.675781 C 17.425781 16.875 17.34375 17.0625 17.203125 17.203125 C 17.0625 17.34375 16.875 17.425781 16.675781 17.425781 L 0.75 17.425781 C 0.550781 17.425781 0.359375 17.34375 0.21875 17.203125 C 0.078125 17.0625 0 16.875 0 16.675781 L 0 0.75 C 0 0.550781 0.078125 0.359375 0.21875 0.21875 C 0.359375 0.078125 0.550781 0 0.75 0 Z M 0.75 0 " clip-rule="nonzero"/></clipPath><clipPath id="9ac9bb1db5"><path d="M 0 0 L 17.25 0 L 17.25 17.25 L 0 17.25 Z M 0 0 " clip-rule="nonzero"/></clipPath><clipPath id="71da1ac415"><path d="M 0.75 0 L 16.664062 0 C 16.863281 0 17.054688 0.078125 17.195312 0.21875 C 17.335938 0.359375 17.414062 0.550781 17.414062 0.75 L 17.414062 16.664062 C 17.414062 16.863281 17.335938 17.054688 17.195312 17.195312 C 17.054688 17.335938 16.863281 17.414062 16.664062 17.414062 L 0.75 17.414062 C 0.550781 17.414062 0.359375 17.335938 0.21875 17.195312 C 0.078125 17.054688 0 16.863281 0 16.664062 L 0 0.75 C 0 0.550781 0.078125 0.359375 0.21875 0.21875 C 0.359375 0.078125 0.550781 0 0.75 0 Z M 0.75 0 " clip-rule="nonzero"/></clipPath><clipPath id="b3119f6a1c"><path d="M 4.382812 2.453125 L 12.632812 2.453125 L 12.632812 16.703125 L 4.382812 16.703125 Z M 4.382812 2.453125 " clip-rule="nonzero"/></clipPath><clipPath id="ec5c833976"><path d="M 4.382812 5 L 12.632812 5 L 12.632812 16.703125 L 4.382812 16.703125 Z M 4.382812 5 " clip-rule="nonzero"/></clipPath><clipPath id="44ee813ad6"><path d="M 4.382812 9 L 12.632812 9 L 12.632812 16.703125 L 4.382812 16.703125 Z M 4.382812 9 " clip-rule="nonzero"/></clipPath></defs><g clip-path="url(#d38194d130)"><g clip-path="url(#11946195bd)"><path fill="#000000" d="M 0 0 L 17.425781 0 L 17.425781 17.425781 L 0 17.425781 Z M 0 0 " fill-opacity="1" fill-rule="nonzero"/></g></g><g clip-path="url(#9ac9bb1db5)"><g clip-path="url(#71da1ac415)"><path stroke-linecap="butt" transform="matrix(0.75, 0, 0, 0.75, 0.0000003, -0.000000000000010658)" fill="none" stroke-linejoin="miter" d="M 1 0.000000000000014211 L 22.218751 0.000000000000014211 C 22.484376 0.000000000000014211 22.739585 0.104167 22.927085 0.291667 C 23.114585 0.479167 23.218751 0.734375 23.218751 1 L 23.218751 22.218752 C 23.218751 22.484377 23.114585 22.739585 22.927085 22.927085 C 22.739585 23.114585 22.484376 23.218752 22.218751 23.218752 L 1 23.218752 C 0.734375 23.218752 0.479166 23.114585 0.291666 22.927085 C 0.104166 22.739585 -0.0000004 22.484377 -0.0000004 22.218752 L -0.0000004 1 C -0.0000004 0.734375 0.104166 0.479167 0.291666 0.291667 C 0.479166 0.104167 0.734375 0.000000000000014211 1 0.000000000000014211 Z M 1 0.000000000000014211 " stroke="#737373" stroke-width="2" stroke-opacity="1" stroke-miterlimit="4"/></g></g><g clip-path="url(#b3119f6a1c)"><path fill="#ffffff" d="M 27.195312 13.703125 C 27.058594 14.199219 26.808594 14.65625 26.527344 15.074219 C 25.742188 16.160156 24.542969 17.035156 23.332031 17.582031 C 23.21875 17.625 23.105469 17.664062 22.984375 17.710938 C 22.792969 18.1875 22.582031 18.660156 22.285156 19.078125 C 21.804688 19.710938 21.175781 20.203125 20.46875 20.558594 C 20.316406 21.085938 20.011719 21.570312 19.664062 21.964844 C 18.839844 22.960938 17.671875 23.488281 16.507812 23.957031 C 16.210938 24.078125 15.914062 24.195312 15.625 24.308594 C 15.550781 24.339844 15.472656 24.367188 15.398438 24.398438 C 15.375 26.15625 14.644531 28.175781 13.503906 29.371094 C 13.496094 29.421875 13.382812 29.734375 13.101562 30.039062 C 12.722656 30.457031 12.207031 30.761719 11.664062 30.785156 C 11.164062 30.785156 10.800781 30.449219 10.488281 30.199219 C 10.246094 30.214844 9.917969 30.207031 9.675781 30.214844 C 8.855469 30.222656 8.148438 30.417969 7.324219 30.265625 C 6.800781 30.554688 6.277344 30.914062 5.660156 30.9375 C 5.167969 30.9375 4.6875 30.675781 4.382812 30.296875 C 4.210938 30.09375 4.058594 29.863281 3.90625 29.636719 C 3.898438 29.628906 3.898438 29.621094 3.890625 29.613281 C 3.34375 29.324219 2.992188 28.769531 2.703125 28.246094 C 2.652344 28.152344 2.605469 28.0625 2.558594 27.972656 C 2.550781 27.964844 2.550781 27.964844 2.542969 27.957031 C 2.390625 27.742188 2.308594 27.5 2.226562 27.257812 C 2.113281 27 2.027344 26.726562 1.96875 26.4375 C 1.9375 26.308594 1.90625 26.171875 1.882812 26.035156 C 1.875 26.019531 1.867188 26.003906 1.867188 25.988281 C 1.746094 25.417969 1.699219 24.910156 1.714844 24.4375 C 1.617188 24.398438 1.527344 24.351562 1.425781 24.316406 C 1.128906 24.195312 0.835938 24.078125 0.546875 23.964844 C -0.617188 23.496094 -1.789062 22.96875 -2.609375 21.972656 C -2.957031 21.578125 -3.261719 21.09375 -3.414062 20.566406 C -4.121094 20.210938 -4.753906 19.714844 -5.230469 19.085938 C -5.527344 18.667969 -5.75 18.195312 -5.929688 17.71875 C -6.042969 17.679688 -6.167969 17.632812 -6.28125 17.589844 C -7.496094 17.046875 -8.691406 16.167969 -9.472656 15.078125 C -9.761719 14.660156 -10.003906 14.207031 -10.140625 13.710938 C -10.21875 13.398438 -10.316406 13.042969 -10.171875 12.730469 C -10.082031 12.535156 -9.84375 12.425781 -9.640625 12.511719 C -9.238281 12.671875 -8.894531 12.96875 -8.46875 13.097656 C -7.703125 13.339844 -6.875 13.445312 -6.089844 13.261719 C -4.820312 12.960938 -3.929688 12.511719 -2.570312 12.867188 C -1.285156 13.132812 -0.253906 13.863281 0.644531 14.796875 C 1.890625 16.054688 2.804688 17.605469 4.109375 18.796875 C 4.253906 18.917969 4.398438 19.03125 4.550781 19.148438 C 5.007812 18.546875 5.457031 17.9375 5.789062 17.261719 C 6.101562 16.570312 6.324219 15.832031 6.460938 15.085938 C 6.640625 13.703125 6.558594 12.289062 6.292969 10.9375 C 6.132812 10.238281 5.867188 9.578125 5.675781 8.886719 C 5.464844 8.054688 5.347656 7.191406 5.425781 6.332031 C 5.441406 5.890625 5.515625 5.457031 5.675781 5.023438 C 6.199219 3.558594 7.5 2.453125 9.128906 2.828125 C 10.230469 3.09375 10.988281 4.035156 11.324219 5.015625 C 11.894531 6.644531 11.574219 7.8125 10.996094 9.355469 C 10.601562 10.519531 10.511719 11.71875 10.527344 12.929688 C 10.464844 14.660156 11.253906 16.273438 12.242188 17.632812 C 12.507812 18.007812 12.769531 18.378906 13.027344 18.75 C 14.304688 17.566406 15.207031 16.039062 16.441406 14.796875 C 17.335938 13.855469 18.363281 13.132812 19.65625 12.867188 C 21.007812 12.511719 21.90625 12.960938 23.175781 13.261719 C 23.964844 13.445312 24.792969 13.332031 25.554688 13.097656 C 25.972656 12.96875 26.320312 12.679688 26.722656 12.511719 C 26.929688 12.425781 27.164062 12.535156 27.257812 12.730469 C 27.363281 13.027344 27.269531 13.386719 27.195312 13.703125 Z M 27.195312 13.703125 " fill-opacity="1" fill-rule="nonzero"/></g><g clip-path="url(#ec5c833976)"><path fill="#ec7944" d="M 7.851562 33.800781 C 7.902344 33.863281 7.910156 33.953125 7.851562 34.015625 C 7.796875 34.074219 7.675781 34.089844 7.605469 34.113281 C 7.410156 34.167969 7.234375 34.265625 7.097656 34.410156 C 6.855469 34.660156 6.832031 35.039062 6.886719 35.367188 C 6.921875 35.589844 6.742188 35.710938 6.566406 35.566406 C 6.214844 35.285156 5.738281 35.285156 5.320312 35.414062 C 5.152344 35.445312 4.960938 35.601562 4.785156 35.519531 C 4.628906 35.398438 4.773438 35.214844 4.855469 35.09375 C 4.96875 34.917969 5.074219 34.746094 5.191406 34.570312 C 5.570312 34.007812 5.957031 33.367188 5.820312 32.660156 C 5.722656 32.078125 5.554688 31.5 5.457031 30.914062 C 5.472656 30.914062 5.484375 30.914062 5.5 30.914062 C 5.675781 30.914062 5.851562 30.898438 6.035156 30.867188 C 6.140625 31.332031 6.191406 31.863281 6.230469 32 C 6.34375 32.472656 6.429688 33.003906 6.792969 33.351562 C 7.023438 33.574219 7.324219 33.710938 7.644531 33.742188 C 7.707031 33.742188 7.796875 33.742188 7.851562 33.800781 Z M 12.933594 35.019531 C 12.8125 34.851562 12.691406 34.675781 12.570312 34.507812 C 12.160156 33.96875 11.742188 33.351562 11.832031 32.640625 C 11.902344 32.046875 12.039062 31.460938 12.097656 30.867188 C 12.105469 30.792969 12.121094 30.707031 12.128906 30.632812 C 11.941406 30.691406 11.734375 30.730469 11.535156 30.761719 C 11.445312 31.246094 11.414062 31.855469 11.382812 32.007812 C 11.300781 32.488281 11.242188 33.019531 10.898438 33.390625 C 10.679688 33.621094 10.390625 33.777344 10.078125 33.824219 C 10.007812 33.839844 9.910156 33.847656 9.863281 33.90625 C 9.820312 33.96875 9.8125 34.058594 9.871094 34.121094 C 9.933594 34.183594 10.054688 34.1875 10.117188 34.203125 C 10.3125 34.25 10.496094 34.332031 10.640625 34.46875 C 10.898438 34.707031 10.945312 35.085938 10.90625 35.414062 C 10.875 35.632812 11.066406 35.746094 11.242188 35.589844 C 11.574219 35.285156 12.054688 35.261719 12.480469 35.367188 C 12.648438 35.390625 12.851562 35.535156 13.011719 35.445312 C 13.179688 35.308594 13.019531 35.132812 12.933594 35.019531 Z M 9.964844 7.570312 C 9.863281 7.355469 9.644531 7.242188 9.492188 7.070312 C 9.203125 6.742188 9.210938 6.292969 9.082031 5.90625 C 8.890625 5.539062 8.449219 5.570312 8.101562 5.617188 C 7.765625 5.664062 7.683594 6.042969 7.644531 6.324219 C 7.585938 6.636719 7.410156 6.910156 7.210938 7.152344 C 7.035156 7.351562 6.824219 7.5625 6.832031 7.84375 C 6.847656 8.375 7.25 8.777344 7.523438 9.195312 C 7.636719 9.363281 7.722656 9.5625 7.757812 9.773438 C 7.789062 10.046875 8.015625 10.253906 8.285156 10.292969 C 8.929688 10.457031 9.089844 9.773438 9.242188 9.304688 C 9.308594 9.105469 9.402344 8.90625 9.5 8.710938 C 9.582031 8.542969 9.703125 8.359375 9.8125 8.195312 C 9.941406 8.027344 10.070312 7.796875 9.964844 7.570312 Z M 9.964844 7.570312 " fill-opacity="1" fill-rule="nonzero"/></g><path fill="#9c502c" d="M 8.167969 8.132812 C 8.175781 8.195312 8.140625 8.253906 8.085938 8.261719 C 8.03125 8.269531 7.988281 8.222656 7.980469 8.164062 C 7.964844 8.035156 7.949219 7.898438 7.910156 7.773438 C 7.851562 7.644531 8.011719 7.53125 8.078125 7.660156 C 8.140625 7.804688 8.148438 7.972656 8.167969 8.132812 Z M 8.753906 7.585938 C 8.585938 7.539062 8.585938 7.804688 8.558594 7.914062 C 8.558594 8.011719 8.464844 8.195312 8.609375 8.230469 C 8.65625 8.238281 8.714844 8.199219 8.714844 8.148438 C 8.722656 8.042969 8.738281 7.933594 8.761719 7.828125 C 8.785156 7.753906 8.859375 7.636719 8.753906 7.585938 Z M 8.753906 7.585938 " fill-opacity="1" fill-rule="nonzero"/><path fill="#615b5b" d="M 7 5.3125 C 7.097656 5.546875 6.878906 6.484375 6.511719 6.292969 C 6.398438 6.210938 6.375 6.058594 6.375 5.921875 C 6.375 5.777344 6.375 5.601562 6.429688 5.472656 C 6.480469 5.34375 6.574219 5.167969 6.726562 5.128906 C 6.855469 5.101562 6.945312 5.199219 7 5.3125 Z M 10.328125 5.835938 C 10.320312 5.691406 10.304688 5.519531 10.253906 5.386719 C 10.199219 5.257812 10.085938 5.09375 9.941406 5.070312 C 9.804688 5.046875 9.71875 5.144531 9.675781 5.265625 C 9.582031 5.511719 9.863281 6.429688 10.214844 6.21875 C 10.320312 6.117188 10.335938 5.972656 10.328125 5.835938 Z M 10.328125 5.835938 " fill-opacity="1" fill-rule="nonzero"/><g clip-path="url(#44ee813ad6)"><path fill="#b3a8a8" d="M 7.355469 11.171875 C 6.769531 11.042969 6.207031 10.527344 6.011719 10.03125 C 6.382812 10.488281 6.847656 10.890625 7.355469 11.171875 Z M 10.722656 9.789062 C 10.402344 10.277344 10.015625 10.726562 9.628906 11.15625 C 10.121094 10.839844 10.539062 10.351562 10.722656 9.789062 Z M 2.105469 22.941406 C 1.996094 23.335938 1.972656 23.769531 1.835938 24.140625 C 1.953125 23.972656 1.980469 23.761719 2.042969 23.5625 C 2.109375 23.320312 2.1875 23.085938 2.261719 22.847656 C 2.636719 21.722656 3.136719 20.734375 3.898438 19.730469 C 4.042969 19.578125 4.117188 19.40625 4.261719 19.261719 C 2.984375 20.308594 2.4375 21.433594 2.105469 22.941406 Z M 15.109375 22.894531 C 14.851562 21.375 14.355469 20.21875 13.140625 19.109375 C 13.285156 19.261719 13.347656 19.433594 13.484375 19.59375 C 14.191406 20.644531 14.636719 21.65625 14.949219 22.796875 C 15.011719 23.039062 15.070312 23.28125 15.132812 23.523438 C 15.183594 23.722656 15.207031 23.933594 15.308594 24.109375 C 15.191406 23.730469 15.199219 23.289062 15.109375 22.894531 Z M 15.109375 22.894531 " fill-opacity="1" fill-rule="nonzero"/></g></svg>