<svg xmlns="http://www.w3.org/2000/svg" xmlns:xlink="http://www.w3.org/1999/xlink" width="60" zoomAndPan="magnify" viewBox="0 0 45 50.249999" height="67" preserveAspectRatio="xMidYMid meet" version="1.0"><defs><clipPath id="f5d6c76dd4"><path d="M 0.332031 0 L 44.667969 0 L 44.667969 48.773438 L 0.332031 48.773438 Z M 0.332031 0 " clip-rule="nonzero"/></clipPath><clipPath id="6af99e361e"><path d="M 1 5 L 43 5 L 43 48.773438 L 1 48.773438 Z M 1 5 " clip-rule="nonzero"/></clipPath><clipPath id="7a39ff5385"><path d="M 3 20 L 44.667969 20 L 44.667969 48.773438 L 3 48.773438 Z M 3 20 " clip-rule="nonzero"/></clipPath></defs><g clip-path="url(#f5d6c76dd4)"><path fill="#ffffff" d="M -37.714844 43.882812 C -37.242188 45.59375 -36.371094 47.171875 -35.398438 48.617188 C -32.6875 52.378906 -28.53125 55.40625 -24.347656 57.300781 C -23.953125 57.457031 -23.558594 57.589844 -23.140625 57.746094 C -22.480469 59.40625 -21.746094 61.035156 -20.71875 62.484375 C -19.0625 64.667969 -16.878906 66.375 -14.429688 67.613281 C -13.90625 69.429688 -12.851562 71.113281 -11.640625 72.480469 C -8.800781 75.925781 -4.75 77.742188 -0.722656 79.375 C 0.300781 79.792969 1.328125 80.1875 2.328125 80.582031 C 2.667969 80.714844 2.984375 80.875 3.328125 81.003906 C 3.273438 82.636719 3.433594 84.398438 3.855469 86.371094 C 3.855469 86.425781 3.878906 86.476562 3.90625 86.53125 C 3.984375 87.003906 4.089844 87.449219 4.195312 87.921875 C 4.40625 88.921875 4.695312 89.871094 5.089844 90.765625 C 5.378906 91.605469 5.667969 92.476562 6.195312 93.183594 C 6.222656 93.210938 6.222656 93.238281 6.246094 93.238281 C 6.40625 93.554688 6.5625 93.871094 6.746094 94.183594 C 7.746094 96.027344 8.957031 97.921875 10.851562 98.921875 C 10.878906 98.945312 10.878906 98.972656 10.90625 99 C 11.429688 99.789062 11.957031 100.578125 12.5625 101.289062 C 13.613281 102.628906 15.273438 103.5 16.980469 103.5 C 19.113281 103.445312 20.929688 102.210938 22.742188 101.183594 C 25.585938 101.710938 28.03125 101.027344 30.871094 101 C 31.714844 100.972656 32.847656 101.027344 33.6875 100.945312 C 34.765625 101.816406 36.027344 103 37.765625 102.972656 C 39.632812 102.917969 41.421875 101.867188 42.738281 100.394531 C 43.710938 99.339844 44.105469 98.261719 44.132812 98.078125 C 48.078125 93.949219 50.605469 86.949219 50.683594 80.875 C 50.945312 80.769531 51.210938 80.636719 51.472656 80.558594 C 52.5 80.136719 53.523438 79.742188 54.523438 79.347656 C 58.550781 77.714844 62.601562 75.902344 65.441406 72.453125 C 66.652344 71.085938 67.703125 69.402344 68.230469 67.585938 C 70.679688 66.351562 72.863281 64.640625 74.519531 62.457031 C 75.546875 61.011719 76.308594 59.378906 76.9375 57.722656 C 77.335938 57.589844 77.753906 57.433594 78.148438 57.273438 C 82.359375 55.40625 86.488281 52.355469 89.199219 48.59375 C 90.199219 47.144531 91.039062 45.566406 91.515625 43.855469 C 91.777344 42.777344 92.121094 41.542969 91.621094 40.460938 C 91.304688 39.777344 90.488281 39.410156 89.777344 39.699219 C 88.382812 40.253906 87.199219 41.277344 85.726562 41.726562 C 83.070312 42.566406 80.203125 42.9375 77.492188 42.304688 C 73.097656 41.253906 70.019531 39.699219 65.3125 40.9375 C 60.863281 41.855469 57.285156 44.382812 54.183594 47.617188 C 49.921875 51.90625 46.789062 57.167969 42.371094 61.300781 C 41.476562 60.011719 40.582031 58.722656 39.660156 57.433594 C 37.765625 54.800781 36.082031 51.960938 35.003906 48.882812 C 33.820312 45.566406 33.742188 42.148438 33.765625 38.648438 C 33.792969 36.199219 33.949219 33.753906 34.214844 31.308594 C 34.476562 28.992188 35.160156 26.964844 35.871094 24.757812 C 37.265625 20.441406 38.6875 15.707031 38.316406 11.128906 C 37.84375 5.289062 34.503906 0.738281 28.375 0.261719 C 26.53125 0 24.769531 0.34375 23.242188 1.132812 C 21.847656 1.65625 20.585938 2.5 19.453125 3.472656 C 18.058594 4.683594 16.71875 5.945312 15.429688 7.261719 C 15.007812 7.789062 14.007812 17.207031 14.296875 17.601562 C 15.085938 18.546875 16.035156 19.390625 17.0625 20.074219 C 19.113281 23.492188 20.296875 27.386719 20.71875 31.359375 C 21.007812 33.832031 20.742188 36.253906 20.558594 38.726562 C 20.375 41.277344 20.113281 43.855469 19.796875 46.382812 C 19.375 49.800781 18.902344 53.039062 17.375 56.167969 C 16.21875 58.511719 14.667969 60.617188 13.089844 62.695312 C 12.5625 62.300781 12.0625 61.90625 11.5625 61.484375 C 7.035156 57.351562 3.878906 51.984375 -0.433594 47.644531 C -3.539062 44.382812 -7.089844 41.882812 -11.5625 40.960938 C -16.246094 39.726562 -19.351562 41.277344 -23.746094 42.332031 C -26.480469 42.960938 -29.347656 42.566406 -31.980469 41.753906 C -33.425781 41.304688 -34.636719 40.304688 -36.03125 39.726562 C -36.742188 39.4375 -37.554688 39.804688 -37.871094 40.488281 C -38.292969 41.542969 -37.976562 42.804688 -37.714844 43.882812 Z M -37.714844 43.882812 " fill-opacity="1" fill-rule="nonzero"/></g><g clip-path="url(#6af99e361e)"><path fill="#ec7944" d="M 14.246094 117.890625 C 13.984375 118.308594 13.457031 118.941406 14.007812 119.363281 C 14.585938 119.652344 15.246094 119.125 15.851562 118.996094 C 17.296875 118.546875 18.953125 118.546875 20.164062 119.519531 C 20.796875 120.019531 21.429688 119.597656 21.269531 118.835938 C 21.085938 117.707031 21.191406 116.390625 22.007812 115.523438 C 22.480469 115.023438 23.113281 114.679688 23.769531 114.496094 C 24.007812 114.417969 24.425781 114.363281 24.609375 114.152344 C 24.796875 113.941406 24.769531 113.628906 24.609375 113.417969 C 24.425781 113.207031 24.113281 113.207031 23.847656 113.179688 C 22.742188 113.074219 21.71875 112.601562 20.902344 111.839844 C 19.640625 110.628906 19.324219 108.785156 18.953125 107.15625 C 18.824219 106.65625 18.640625 104.761719 18.246094 103.15625 C 17.613281 103.261719 16.929688 103.339844 16.269531 103.339844 C 16.613281 105.394531 17.191406 107.390625 17.535156 109.417969 C 18.007812 111.863281 16.691406 114.074219 15.351562 116.023438 C 15.007812 116.679688 14.640625 117.285156 14.246094 117.890625 Z M 32.347656 113.523438 C 33.425781 113.363281 34.449219 112.8125 35.1875 112.023438 C 36.371094 110.734375 36.582031 108.890625 36.871094 107.234375 C 37.003906 106.707031 37.082031 104.550781 37.421875 102.867188 C 38.109375 102.816406 38.792969 102.710938 39.449219 102.523438 C 39.421875 102.789062 39.371094 103.023438 39.34375 103.289062 C 39.132812 105.339844 38.660156 107.367188 38.421875 109.417969 C 38.082031 111.890625 39.527344 114.023438 40.976562 115.890625 C 41.394531 116.46875 41.816406 117.074219 42.238281 117.652344 C 42.527344 118.074219 43.078125 118.652344 42.554688 119.101562 C 41.976562 119.441406 41.292969 118.914062 40.710938 118.835938 C 39.238281 118.46875 37.609375 118.546875 36.425781 119.597656 C 35.84375 120.152344 35.160156 119.757812 35.265625 118.996094 C 35.371094 117.863281 35.214844 116.546875 34.34375 115.730469 C 33.84375 115.257812 33.214844 114.96875 32.53125 114.8125 C 32.292969 114.757812 31.871094 114.730469 31.6875 114.523438 C 31.476562 114.335938 31.503906 113.996094 31.660156 113.785156 C 31.765625 113.574219 32.109375 113.546875 32.347656 113.523438 Z M 13.0625 13.863281 C 12.929688 13.652344 12.246094 13.628906 12.007812 13.574219 C 11.589844 13.46875 11.195312 13.339844 10.800781 13.179688 C 9.351562 12.628906 8.0625 11.785156 6.722656 10.996094 C 5.117188 9.890625 2.089844 8.972656 1.355469 7.128906 C 1.222656 6.8125 1.25 6.339844 1.539062 6.105469 C 1.828125 5.867188 2.25 5.867188 2.589844 5.945312 C 3.222656 6.078125 3.75 6.472656 4.328125 6.734375 C 4.90625 7 5.433594 7.367188 6.011719 7.578125 C 6.640625 7.8125 7.300781 7.945312 7.929688 8.101562 C 8.640625 8.261719 9.351562 8.390625 10.0625 8.417969 C 12.589844 8.472656 14.878906 7.234375 16.902344 5.867188 C 17.007812 5.8125 17.085938 5.734375 17.191406 5.683594 C 17.246094 5.65625 17.269531 5.628906 17.324219 5.605469 C 18.351562 5.605469 19.269531 6.339844 19.824219 7.367188 C 20.953125 9.207031 22.085938 11.261719 21.824219 13.496094 C 21.664062 14.707031 21.085938 15.890625 20.402344 16.890625 C 19.71875 17.890625 18.746094 18.914062 17.535156 19.207031 C 17.140625 19.3125 16.851562 19.257812 16.480469 19.074219 C 15.457031 18.574219 14.324219 18.3125 13.21875 18.074219 C 12.0625 17.835938 10.878906 17.679688 9.695312 17.625 C 7.351562 17.523438 5.011719 17.8125 2.695312 17.96875 C 2.539062 17.96875 2.378906 17.996094 2.25 17.941406 C 2.195312 17.941406 2.171875 17.917969 2.117188 17.890625 C 1.800781 17.707031 1.960938 17.390625 2.195312 17.230469 C 2.378906 17.128906 2.566406 16.996094 2.722656 16.890625 C 3.089844 16.652344 3.433594 16.441406 3.828125 16.257812 C 5.25 15.546875 6.746094 15.207031 8.328125 14.96875 C 9.851562 14.757812 11.378906 14.601562 12.878906 14.179688 C 12.957031 14.152344 13.007812 14.152344 13.089844 14.128906 C 13.140625 14.101562 13.167969 14.050781 13.167969 13.996094 C 13.167969 13.96875 13.140625 13.945312 13.113281 13.917969 C 13.0625 13.890625 13.0625 13.863281 13.0625 13.863281 Z M 13.0625 13.863281 " fill-opacity="1" fill-rule="nonzero"/></g><path fill="#9c502c" d="M 11.324219 9.785156 C 11.878906 9.945312 12.457031 9.839844 13.007812 9.785156 C 13.21875 9.761719 13.402344 9.578125 13.378906 9.339844 C 13.351562 9.128906 13.140625 8.945312 12.929688 8.972656 C 12.535156 9.023438 12.140625 9.078125 11.746094 9.050781 C 11.484375 8.972656 11.140625 8.945312 11.0625 9.285156 C 10.984375 9.496094 11.113281 9.734375 11.324219 9.785156 Z M 11.324219 9.785156 " fill-opacity="1" fill-rule="nonzero"/><path fill="#615b5b" d="M 28.164062 9.207031 C 28.714844 9.023438 28.925781 8.550781 29.058594 8.101562 C 29.1875 7.601562 29.320312 7 29.214844 6.5 C 29.109375 6 28.875 5.289062 28.292969 5.023438 C 27.769531 4.761719 27.292969 5 27.003906 5.339844 C 26.375 6 26.480469 9.472656 28.164062 9.207031 Z M 28.164062 9.207031 " fill-opacity="1" fill-rule="nonzero"/><g clip-path="url(#7a39ff5385)"><path fill="#b3a8a8" d="M 17.269531 20.207031 C 19.058594 21.703125 21.242188 22.785156 23.53125 23.257812 C 24.714844 23.492188 25.980469 23.546875 27.164062 23.441406 C 23.742188 22.886719 20.480469 21.757812 17.351562 20.257812 C 17.324219 20.230469 17.269531 20.179688 17.269531 20.207031 Z M 49.5 75.425781 C 49.789062 76.820312 49.734375 78.320312 50.128906 79.636719 C 49.789062 79.03125 49.734375 78.269531 49.550781 77.609375 C 49.367188 76.769531 49.183594 75.925781 48.972656 75.085938 C 47.972656 71.113281 46.472656 67.585938 44.105469 63.902344 C 43.660156 63.351562 43.449219 62.71875 42.976562 62.195312 C 47.105469 66.113281 48.710938 70.164062 49.5 75.425781 Z M 4.667969 76.242188 C 5.851562 71.058594 7.773438 67.140625 12.195312 63.535156 C 11.667969 64.007812 11.429688 64.640625 10.929688 65.167969 C 8.300781 68.640625 6.539062 72.058594 5.25 75.925781 C 4.984375 76.742188 4.722656 77.585938 4.484375 78.398438 C 4.25 79.058594 4.144531 79.792969 3.75 80.398438 C 4.222656 79.085938 4.300781 77.585938 4.667969 76.242188 Z M 4.667969 76.242188 " fill-opacity="1" fill-rule="nonzero"/></g></svg>