<svg xmlns="http://www.w3.org/2000/svg" xmlns:xlink="http://www.w3.org/1999/xlink" width="39" zoomAndPan="magnify" viewBox="0 0 29.25 50.249998" height="67" preserveAspectRatio="xMidYMid meet" version="1.0"><defs><clipPath id="2aeac924e8"><path d="M 0 1 L 27.789062 1 L 27.789062 48.523438 L 0 48.523438 Z M 0 1 " clip-rule="nonzero"/></clipPath><clipPath id="f15108b5aa"><path d="M 1 10 L 27.789062 10 L 27.789062 48.523438 L 1 48.523438 Z M 1 10 " clip-rule="nonzero"/></clipPath><clipPath id="c49b1e485a"><path d="M 0 25 L 27.789062 25 L 27.789062 48.523438 L 0 48.523438 Z M 0 25 " clip-rule="nonzero"/></clipPath></defs><g clip-path="url(#2aeac924e8)"><path fill="#ffffff" d="M 77.703125 38.578125 C 77.234375 40.257812 76.382812 41.8125 75.421875 43.238281 C 72.757812 46.9375 68.667969 49.914062 64.550781 51.78125 C 64.164062 51.933594 63.773438 52.0625 63.359375 52.21875 C 62.710938 53.851562 61.988281 55.457031 60.976562 56.878906 C 59.347656 59.027344 57.199219 60.710938 54.789062 61.925781 C 54.273438 63.714844 53.238281 65.371094 52.046875 66.71875 C 49.25 70.109375 45.265625 71.894531 41.304688 73.5 C 40.292969 73.914062 39.285156 74.300781 38.300781 74.691406 C 38.042969 74.792969 37.78125 74.898438 37.523438 75 C 37.445312 80.980469 34.960938 87.867188 31.078125 91.933594 C 31.050781 92.113281 30.664062 93.175781 29.707031 94.210938 C 28.410156 95.632812 26.652344 96.667969 24.8125 96.746094 C 23.105469 96.746094 21.863281 95.609375 20.800781 94.753906 C 19.972656 94.804688 18.859375 94.78125 18.03125 94.804688 C 15.234375 94.832031 12.828125 95.503906 10.03125 94.988281 C 8.246094 95.96875 6.457031 97.1875 4.359375 97.265625 C 2.679688 97.265625 1.046875 96.382812 0.0117188 95.089844 C -0.582031 94.390625 -1.101562 93.613281 -1.617188 92.839844 C -1.644531 92.8125 -1.644531 92.785156 -1.671875 92.761719 C -3.535156 91.777344 -4.726562 89.886719 -5.710938 88.101562 C -5.890625 87.789062 -6.046875 87.480469 -6.203125 87.167969 C -6.226562 87.144531 -6.226562 87.144531 -6.253906 87.117188 C -6.769531 86.390625 -7.054688 85.5625 -7.339844 84.734375 C -7.730469 83.855469 -8.011719 82.921875 -8.21875 81.9375 C -8.324219 81.5 -8.425781 81.03125 -8.503906 80.566406 C -8.53125 80.515625 -8.558594 80.464844 -8.558594 80.410156 C -8.972656 78.46875 -9.125 76.734375 -9.074219 75.128906 C -9.410156 75 -9.722656 74.847656 -10.058594 74.714844 C -11.066406 74.300781 -12.078125 73.914062 -13.0625 73.527344 C -17.023438 71.921875 -21.007812 70.132812 -23.804688 66.742188 C -24.996094 65.398438 -26.03125 63.738281 -26.550781 61.953125 C -28.957031 60.738281 -31.105469 59.054688 -32.738281 56.90625 C -33.746094 55.480469 -34.496094 53.875 -35.117188 52.246094 C -35.507812 52.117188 -35.921875 51.960938 -36.308594 51.804688 C -40.449219 49.96875 -44.515625 46.964844 -47.183594 43.261719 C -48.164062 41.839844 -48.992188 40.285156 -49.460938 38.601562 C -49.71875 37.542969 -50.054688 36.324219 -49.5625 35.261719 C -49.253906 34.589844 -48.449219 34.226562 -47.75 34.511719 C -46.378906 35.054688 -45.214844 36.066406 -43.765625 36.503906 C -41.148438 37.335938 -38.328125 37.695312 -35.660156 37.074219 C -31.339844 36.039062 -28.308594 34.511719 -23.675781 35.730469 C -19.300781 36.636719 -15.78125 39.121094 -12.726562 42.304688 C -8.480469 46.574219 -5.371094 51.855469 -0.921875 55.921875 C -0.429688 56.335938 0.0625 56.722656 0.582031 57.113281 C 2.132812 55.066406 3.664062 52.996094 4.800781 50.691406 C 5.863281 48.335938 6.613281 45.824219 7.078125 43.289062 C 7.699219 38.578125 7.414062 33.761719 6.511719 29.152344 C 5.964844 26.773438 5.058594 24.519531 4.414062 22.164062 C 3.6875 19.34375 3.300781 16.390625 3.558594 13.464844 C 3.609375 11.964844 3.871094 10.488281 4.414062 9.011719 C 6.199219 4.015625 10.625 0.261719 16.167969 1.53125 C 19.917969 2.4375 22.507812 5.648438 23.648438 8.988281 C 25.589844 14.527344 24.503906 18.511719 22.535156 23.769531 C 21.1875 27.730469 20.878906 31.820312 20.929688 35.9375 C 20.722656 41.839844 23.414062 47.328125 26.78125 51.960938 C 27.6875 53.230469 28.566406 54.496094 29.445312 55.765625 C 33.796875 51.726562 36.875 46.523438 41.070312 42.304688 C 44.125 39.09375 47.621094 36.636719 52.019531 35.730469 C 56.628906 34.511719 59.683594 36.039062 64.007812 37.074219 C 66.699219 37.695312 69.519531 37.308594 72.109375 36.503906 C 73.535156 36.066406 74.726562 35.082031 76.097656 34.511719 C 76.796875 34.226562 77.597656 34.589844 77.910156 35.261719 C 78.269531 36.273438 77.960938 37.488281 77.703125 38.578125 Z M 77.703125 38.578125 " fill-opacity="1" fill-rule="nonzero"/></g><g clip-path="url(#f15108b5aa)"><path fill="#ec7944" d="M 11.816406 107.023438 C 12 107.230469 12.023438 107.542969 11.816406 107.75 C 11.636719 107.957031 11.222656 108.007812 10.988281 108.085938 C 10.316406 108.265625 9.71875 108.605469 9.253906 109.09375 C 8.425781 109.949219 8.347656 111.246094 8.527344 112.359375 C 8.660156 113.109375 8.039062 113.523438 7.441406 113.03125 C 6.25 112.074219 4.621094 112.074219 3.195312 112.511719 C 2.625 112.617188 1.980469 113.160156 1.382812 112.875 C 0.839844 112.460938 1.332031 111.839844 1.617188 111.425781 C 2.003906 110.832031 2.367188 110.234375 2.757812 109.640625 C 4.050781 107.722656 5.371094 105.550781 4.90625 103.140625 C 4.566406 101.148438 4 99.179688 3.664062 97.1875 C 3.714844 97.1875 3.765625 97.1875 3.816406 97.1875 C 4.414062 97.1875 5.007812 97.136719 5.628906 97.03125 C 5.992188 98.609375 6.171875 100.421875 6.300781 100.890625 C 6.691406 102.496094 6.976562 104.304688 8.21875 105.496094 C 8.996094 106.246094 10.03125 106.714844 11.117188 106.816406 C 11.324219 106.816406 11.636719 106.816406 11.816406 107.023438 Z M 29.136719 111.167969 C 28.722656 110.597656 28.308594 110 27.894531 109.433594 C 26.496094 107.59375 25.070312 105.496094 25.382812 103.0625 C 25.613281 101.042969 26.082031 99.050781 26.289062 97.03125 C 26.3125 96.773438 26.367188 96.488281 26.390625 96.230469 C 25.746094 96.4375 25.046875 96.566406 24.371094 96.667969 C 24.0625 98.328125 23.957031 100.398438 23.855469 100.914062 C 23.570312 102.546875 23.363281 104.359375 22.199219 105.625 C 21.445312 106.402344 20.464844 106.945312 19.402344 107.101562 C 19.167969 107.152344 18.832031 107.179688 18.675781 107.386719 C 18.523438 107.59375 18.496094 107.90625 18.703125 108.113281 C 18.910156 108.320312 19.324219 108.34375 19.53125 108.398438 C 20.203125 108.550781 20.824219 108.835938 21.316406 109.304688 C 22.199219 110.105469 22.351562 111.398438 22.222656 112.511719 C 22.121094 113.261719 22.765625 113.652344 23.363281 113.109375 C 24.503906 112.074219 26.132812 111.996094 27.582031 112.359375 C 28.152344 112.433594 28.851562 112.925781 29.394531 112.617188 C 29.964844 112.152344 29.421875 111.554688 29.136719 111.167969 Z M 19.015625 17.683594 C 18.675781 16.960938 17.925781 16.570312 17.410156 15.976562 C 16.425781 14.863281 16.449219 13.335938 16.011719 12.015625 C 15.363281 10.773438 13.863281 10.875 12.671875 11.03125 C 11.53125 11.1875 11.246094 12.480469 11.117188 13.441406 C 10.910156 14.5 10.316406 15.433594 9.640625 16.261719 C 9.046875 16.933594 8.320312 17.660156 8.347656 18.617188 C 8.398438 20.429688 9.773438 21.800781 10.703125 23.226562 C 11.09375 23.792969 11.375 24.46875 11.507812 25.191406 C 11.609375 26.125 12.386719 26.824219 13.292969 26.953125 C 15.492188 27.523438 16.035156 25.191406 16.554688 23.585938 C 16.789062 22.914062 17.097656 22.242188 17.433594 21.566406 C 17.71875 21 18.132812 20.378906 18.496094 19.808594 C 18.9375 19.238281 19.375 18.460938 19.015625 17.683594 Z M 19.015625 17.683594 " fill-opacity="1" fill-rule="nonzero"/></g><path fill="#9c502c" d="M 12.902344 19.601562 C 12.929688 19.808594 12.800781 20.015625 12.621094 20.039062 C 12.4375 20.066406 12.28125 19.910156 12.257812 19.703125 C 12.207031 19.265625 12.152344 18.796875 12.023438 18.382812 C 11.816406 17.945312 12.359375 17.554688 12.59375 17.996094 C 12.800781 18.488281 12.828125 19.058594 12.902344 19.601562 Z M 14.898438 17.738281 C 14.328125 17.582031 14.328125 18.488281 14.222656 18.851562 C 14.222656 19.1875 13.914062 19.808594 14.40625 19.9375 C 14.5625 19.964844 14.769531 19.832031 14.769531 19.652344 C 14.792969 19.289062 14.847656 18.929688 14.921875 18.566406 C 15 18.304688 15.261719 17.917969 14.898438 17.738281 Z M 14.898438 17.738281 " fill-opacity="1" fill-rule="nonzero"/><path fill="#615b5b" d="M 8.917969 9.996094 C 9.253906 10.800781 8.503906 13.984375 7.261719 13.335938 C 6.871094 13.050781 6.792969 12.535156 6.792969 12.066406 C 6.792969 11.574219 6.792969 10.980469 6.976562 10.539062 C 7.15625 10.101562 7.46875 9.503906 7.984375 9.375 C 8.425781 9.273438 8.734375 9.609375 8.917969 9.996094 Z M 20.257812 11.78125 C 20.230469 11.289062 20.179688 10.695312 19.996094 10.253906 C 19.816406 9.816406 19.429688 9.246094 18.9375 9.167969 C 18.46875 9.089844 18.183594 9.425781 18.03125 9.839844 C 17.71875 10.667969 18.675781 13.800781 19.867188 13.078125 C 20.230469 12.742188 20.28125 12.25 20.257812 11.78125 Z M 20.257812 11.78125 " fill-opacity="1" fill-rule="nonzero"/><g clip-path="url(#c49b1e485a)"><path fill="#b3a8a8" d="M 10.132812 29.957031 C 8.140625 29.515625 6.226562 27.753906 5.550781 26.074219 C 6.820312 27.625 8.398438 29 10.132812 29.957031 Z M 21.601562 25.246094 C 20.515625 26.902344 19.195312 28.429688 17.875 29.902344 C 19.558594 28.816406 20.980469 27.160156 21.601562 25.246094 Z M -7.753906 70.03125 C -8.117188 71.375 -8.195312 72.851562 -8.660156 74.121094 C -8.273438 73.550781 -8.167969 72.828125 -7.960938 72.152344 C -7.730469 71.324219 -7.46875 70.523438 -7.210938 69.71875 C -5.941406 65.886719 -4.234375 62.523438 -1.644531 59.105469 C -1.152344 58.589844 -0.894531 57.992188 -0.402344 57.5 C -4.75 61.074219 -6.617188 64.90625 -7.753906 70.03125 Z M 36.539062 69.875 C 35.660156 64.699219 33.976562 60.761719 29.835938 56.984375 C 30.328125 57.5 30.535156 58.097656 31 58.640625 C 33.40625 62.210938 34.933594 65.65625 35.996094 69.539062 C 36.203125 70.367188 36.410156 71.195312 36.617188 72.023438 C 36.796875 72.695312 36.875 73.421875 37.214844 74.015625 C 36.824219 72.722656 36.851562 71.222656 36.539062 69.875 Z M 36.539062 69.875 " fill-opacity="1" fill-rule="nonzero"/></g></svg>