<svg xmlns="http://www.w3.org/2000/svg" xmlns:xlink="http://www.w3.org/1999/xlink" width="84" zoomAndPan="magnify" viewBox="0 0 63 62.999997" height="84" preserveAspectRatio="xMidYMid meet" version="1.0"><defs><clipPath id="a87a58121e"><path d="M 0 0 L 62.554688 0 L 62.554688 62.554688 L 0 62.554688 Z M 0 0 " clip-rule="nonzero"/></clipPath><clipPath id="7a68db8fd0"><path d="M 3.75 0 L 58.804688 0 C 59.800781 0 60.753906 0.394531 61.457031 1.097656 C 62.160156 1.800781 62.554688 2.753906 62.554688 3.75 L 62.554688 58.804688 C 62.554688 59.800781 62.160156 60.753906 61.457031 61.457031 C 60.753906 62.160156 59.800781 62.554688 58.804688 62.554688 L 3.75 62.554688 C 2.753906 62.554688 1.800781 62.160156 1.097656 61.457031 C 0.394531 60.753906 0 59.800781 0 58.804688 L 0 3.75 C 0 2.753906 0.394531 1.800781 1.097656 1.097656 C 1.800781 0.394531 2.753906 0 3.75 0 Z M 3.75 0 " clip-rule="nonzero"/></clipPath><clipPath id="faf0ecb2a3"><path d="M 0 0 L 62.25 0 L 62.25 62.25 L 0 62.25 Z M 0 0 " clip-rule="nonzero"/></clipPath><clipPath id="fd218c7ab5"><path d="M 3.75 0 L 58.804688 0 C 59.800781 0 60.753906 0.394531 61.457031 1.097656 C 62.160156 1.800781 62.554688 2.753906 62.554688 3.75 L 62.554688 58.804688 C 62.554688 59.800781 62.160156 60.753906 61.457031 61.457031 C 60.753906 62.160156 59.800781 62.554688 58.804688 62.554688 L 3.75 62.554688 C 2.753906 62.554688 1.800781 62.160156 1.097656 61.457031 C 0.394531 60.753906 0 59.800781 0 58.804688 L 0 3.75 C 0 2.753906 0.394531 1.800781 1.097656 1.097656 C 1.800781 0.394531 2.753906 0 3.75 0 Z M 3.75 0 " clip-rule="nonzero"/></clipPath><clipPath id="8ae6a11eac"><path d="M 7.304688 11.0625 L 48 11.0625 L 48 61.3125 L 7.304688 61.3125 Z M 7.304688 11.0625 " clip-rule="nonzero"/></clipPath><clipPath id="43af8a575f"><path d="M 33 19 L 56.054688 19 L 56.054688 35 L 33 35 Z M 33 19 " clip-rule="nonzero"/></clipPath><clipPath id="99065b29be"><path d="M 7.304688 34 L 38 34 L 38 61.3125 L 7.304688 61.3125 Z M 7.304688 34 " clip-rule="nonzero"/></clipPath></defs><g clip-path="url(#a87a58121e)"><g clip-path="url(#7a68db8fd0)"><path fill="#ffd583" d="M 0 0 L 62.554688 0 L 62.554688 62.554688 L 0 62.554688 Z M 0 0 " fill-opacity="1" fill-rule="nonzero"/></g></g><g clip-path="url(#faf0ecb2a3)"><g clip-path="url(#fd218c7ab5)"><path stroke-linecap="butt" transform="matrix(0.75, 0, 0, 0.75, 0.0000015, -0.000001)" fill="none" stroke-linejoin="miter" d="M 4.999999 0.00000133333 L 78.40626 0.00000133333 C 79.734385 0.00000133333 81.005219 0.526043 81.942719 1.463543 C 82.880219 2.401043 83.406261 3.671877 83.406261 5.000002 L 83.406261 78.406263 C 83.406261 79.734389 82.880219 81.005222 81.942719 81.942722 C 81.005219 82.880222 79.734385 83.406264 78.40626 83.406264 L 4.999999 83.406264 C 3.671874 83.406264 2.40104 82.880222 1.46354 81.942722 C 0.52604 81.005222 -0.000002 79.734389 -0.000002 78.406263 L -0.000002 5.000002 C -0.000002 3.671877 0.52604 2.401043 1.46354 1.463543 C 2.40104 0.526043 3.671874 0.00000133333 4.999999 0.00000133333 Z M 4.999999 0.00000133333 " stroke="#000000" stroke-width="2" stroke-opacity="1" stroke-miterlimit="4"/></g></g><g clip-path="url(#8ae6a11eac)"><path fill="#ffffff" d="M -26.878906 85.933594 C -26.859375 91.574219 -24.25 97.339844 -19.496094 100.511719 C -15.574219 103.140625 -10.761719 104.417969 -6.25 105.386719 C -0.75 106.539062 4.914062 106.582031 10.515625 106.582031 C 12.660156 106.558594 14.824219 106.582031 16.964844 106.601562 C 18.523438 106.621094 20.082031 106.640625 21.636719 106.640625 C 21.738281 106.640625 21.839844 106.640625 21.941406 106.640625 C 29.179688 106.460938 37.957031 105.328125 43.660156 100.535156 C 48.089844 97.074219 49.121094 90.824219 46.25 86.03125 C 44.289062 82.675781 41.335938 80.046875 38.746094 77.175781 C 36.503906 74.648438 34.417969 72.097656 32.882812 69.167969 C 29.746094 62.957031 29.363281 55.65625 30.800781 48.984375 C 31.933594 43.746094 33.933594 38.425781 37.414062 34.300781 C 38.605469 33.753906 39.71875 33.027344 40.707031 32.175781 C 41.09375 31.8125 41.640625 21.761719 41.296875 21.15625 C 40.164062 19.558594 38.988281 18 37.714844 16.503906 C 36.683594 15.308594 35.511719 14.199219 34.136719 13.410156 C 32.660156 12.316406 30.859375 11.667969 28.898438 11.628906 C 22.425781 11.0625 18.117188 15.289062 16.640625 21.316406 C 15.328125 27.605469 16.601562 34.039062 17.574219 40.285156 C 18.382812 46.941406 20.910156 55.433594 15.226562 60.613281 C 13.023438 62.492188 10.210938 63.5625 7.421875 64.191406 C 4.246094 64.777344 1.109375 64.757812 -2.085938 65.019531 C -5.765625 65.261719 -9.488281 65.566406 -12.984375 66.78125 C -16.546875 68.074219 -20.023438 69.875 -22.734375 72.5625 C -26.070312 76.101562 -26.960938 81.261719 -26.878906 85.933594 Z M -26.878906 85.933594 " fill-opacity="1" fill-rule="nonzero"/></g><g clip-path="url(#43af8a575f)"><path fill="#ec7944" d="M 33.652344 26.574219 C 33.609375 27.867188 34.015625 29.222656 34.5625 30.375 C 35.105469 31.550781 35.9375 32.785156 37.167969 33.289062 C 37.574219 33.449219 37.878906 33.472656 38.28125 33.328125 C 39.433594 32.964844 40.667969 32.90625 41.863281 32.84375 C 43.117188 32.785156 44.390625 32.824219 45.644531 32.964844 C 48.109375 33.25 50.515625 33.9375 52.925781 34.523438 C 53.085938 34.5625 53.246094 34.605469 53.410156 34.582031 C 53.449219 34.582031 53.511719 34.5625 53.550781 34.542969 C 53.914062 34.402344 53.792969 34.039062 53.570312 33.855469 C 53.410156 33.714844 53.226562 33.550781 53.066406 33.410156 C 52.722656 33.105469 52.398438 32.824219 52.015625 32.5625 C 50.660156 31.570312 49.121094 30.941406 47.523438 30.457031 C 45.96875 29.972656 44.390625 29.546875 42.894531 28.859375 C 42.832031 28.820312 42.75 28.800781 42.691406 28.757812 C 42.648438 28.738281 42.628906 28.679688 42.628906 28.617188 C 42.648438 28.578125 42.671875 28.558594 42.691406 28.535156 C 42.691406 28.515625 42.710938 28.496094 42.710938 28.496094 C 42.894531 28.292969 43.601562 28.375 43.863281 28.355469 C 44.308594 28.3125 44.753906 28.234375 45.199219 28.152344 C 46.816406 27.828125 48.3125 27.160156 49.851562 26.554688 C 51.730469 25.683594 55.046875 25.238281 56.140625 23.417969 C 56.320312 23.097656 56.382812 22.609375 56.121094 22.308594 C 55.855469 22.023438 55.410156 21.945312 55.046875 21.964844 C 54.359375 22.003906 53.734375 22.308594 53.085938 22.488281 C 52.4375 22.671875 51.832031 22.953125 51.164062 23.074219 C 50.476562 23.199219 49.769531 23.257812 49.0625 23.296875 C 48.292969 23.339844 47.523438 23.359375 46.777344 23.257812 C 44.148438 22.914062 41.941406 21.214844 40.0625 19.457031 C 39.980469 19.375 39.898438 19.292969 39.796875 19.214844 C 39.796875 19.214844 39.796875 19.214844 39.820312 19.234375 C 39.777344 19.191406 39.738281 19.152344 39.699219 19.132812 C 38.605469 18.949219 37.554688 19.558594 36.785156 20.546875 C 35.289062 22.246094 33.730469 24.207031 33.652344 26.574219 Z M 33.652344 26.574219 " fill-opacity="1" fill-rule="nonzero"/></g><path fill="#9c502c" d="M 43.480469 24.230469 C 44.046875 24.390625 44.632812 24.59375 45.238281 24.511719 C 45.460938 24.472656 45.644531 24.269531 45.601562 24.027344 C 45.542969 23.664062 45.21875 23.621094 44.914062 23.664062 C 44.492188 23.621094 44.085938 23.5 43.703125 23.378906 C 43.480469 23.320312 43.238281 23.460938 43.175781 23.683594 C 43.09375 23.945312 43.257812 24.167969 43.480469 24.230469 Z M 43.480469 24.230469 " fill-opacity="1" fill-rule="nonzero"/><path fill="#615b5b" d="M 26.957031 19.738281 C 26.996094 20.246094 27.160156 20.789062 27.703125 21.054688 C 29.425781 21.601562 30.113281 18 29.585938 17.171875 C 29.324219 16.765625 28.878906 16.441406 28.269531 16.625 C 27.625 16.804688 27.238281 17.515625 27.058594 18.019531 C 26.855469 18.566406 26.917969 19.214844 26.957031 19.738281 Z M 26.957031 19.738281 " fill-opacity="1" fill-rule="nonzero"/><g clip-path="url(#99065b29be)"><path fill="#b3a8a8" d="M -21.558594 78.488281 C -21.640625 81.804688 -14.601562 81.339844 -12.480469 80.671875 C -10.195312 80.085938 -7.992188 79.199219 -5.90625 78.105469 C -5.21875 77.640625 -3.441406 76.992188 -4.128906 75.941406 C -4.371094 75.617188 -4.875 75.535156 -5.21875 75.800781 C -8.433594 78.1875 -16.484375 81.21875 -20.023438 78.710938 C -19.578125 78.226562 -18.546875 78.125 -18.890625 77.214844 C -19.457031 75.941406 -21.480469 77.558594 -21.558594 78.488281 Z M 37.25 34.402344 C 35.128906 35.675781 32.640625 36.421875 30.171875 36.523438 C 28.878906 36.566406 27.5625 36.402344 26.328125 36.078125 C 29.988281 36.078125 33.609375 35.433594 37.148438 34.402344 C 37.167969 34.441406 37.230469 34.402344 37.25 34.402344 Z M 37.25 34.402344 " fill-opacity="1" fill-rule="nonzero"/></g></svg>