<svg xmlns="http://www.w3.org/2000/svg" xmlns:xlink="http://www.w3.org/1999/xlink" width="332" zoomAndPan="magnify" viewBox="0 0 249 455.249995" height="607" preserveAspectRatio="xMidYMid meet" version="1.0"><defs><clipPath id="c720b2009c"><path d="M 0.203125 2 L 248 2 L 248 453 L 0.203125 453 Z M 0.203125 2 " clip-rule="nonzero"/></clipPath></defs><g clip-path="url(#c720b2009c)"><path fill="#5b4737" d="M 232.773438 153.292969 C 234.199219 132.164062 227.878906 110.878906 215.351562 93.839844 C 204.746094 79.417969 187.0625 64.320312 168.53125 61.648438 C 168.582031 60.476562 169.527344 42.625 169.902344 34.871094 C 170.28125 27.105469 171.460938 18.351562 170.308594 10.636719 C 169.390625 4.457031 162.003906 3.539062 156.964844 3.234375 C 147.714844 2.671875 133.464844 0 125.898438 6.851562 C 122.953125 9.515625 123.429688 12.304688 123.398438 15.929688 C 123.300781 26.9375 121.410156 55.246094 121.238281 58.410156 C 106.621094 56.375 91.863281 59.480469 78.910156 66.476562 C 69.859375 71.363281 61.726562 77.730469 54.082031 84.566406 C 46.847656 91.042969 38.996094 98.175781 35.902344 107.636719 C 27.332031 108.734375 16.730469 113.46875 13.253906 121.90625 C 9.59375 130.796875 12.394531 141.5 19.453125 147.691406 C 21.9375 149.871094 24.53125 151.855469 27.199219 153.714844 C 26.054688 164.40625 25.167969 175.117188 23.558594 185.757812 C 22.753906 191.070312 20.234375 199.398438 22.476562 205.023438 C 16.78125 244.488281 10 283.953125 6.300781 323.664062 C 5.292969 334.515625 4.550781 345.394531 4.078125 356.28125 C 3.625 366.785156 5.039062 377.027344 3.945312 387.585938 C 2.933594 397.328125 0.277344 407.679688 0.839844 417.5 C 1.160156 423.039062 10.554688 427.480469 14.875 430.113281 C 43.195312 447.359375 78.558594 453.085938 111.277344 452.484375 C 116.53125 452.386719 125.707031 453.75 129.472656 449.257812 C 131.988281 446.253906 132.808594 441.765625 134.039062 438.160156 C 136.015625 432.367188 137.996094 426.570312 139.972656 420.777344 C 143.566406 410.238281 146.179688 398.074219 151.621094 388.355469 C 156.097656 380.351562 161.121094 372.78125 164.746094 364.308594 C 169.128906 354.054688 171.707031 343.316406 176.445312 333.152344 C 180.347656 324.777344 183.886719 316.242188 187.078125 307.570312 C 194.566406 287.230469 200.449219 266.367188 206.726562 245.632812 C 206.796875 245.398438 206.789062 245.179688 206.738281 244.984375 C 208.476562 243.128906 209.570312 240.894531 210.664062 238.398438 C 212.789062 233.554688 215.324219 229.003906 217.851562 224.359375 C 223.566406 213.863281 229.449219 203.289062 234.363281 192.382812 C 237.675781 191.421875 240.050781 190.132812 242.613281 186.597656 C 245.359375 182.808594 247.765625 178.074219 247.855469 173.296875 C 248.007812 165.03125 239.417969 157.628906 232.773438 153.292969 Z M 49.285156 34.820312 C 49.035156 29.644531 56.558594 28.246094 61.207031 27.941406 C 60.328125 23.441406 58.035156 14.703125 64.476562 13.683594 C 67.28125 13.238281 69.554688 14.855469 71.265625 16.882812 C 72.839844 18.746094 74.976562 20.878906 75.917969 23.238281 C 78.410156 22.277344 81.0625 21.792969 83.746094 21.664062 C 85.644531 21.574219 88.007812 21.640625 89.304688 23.265625 C 91.714844 26.273438 88.257812 30.441406 85.097656 33.125 C 88.539062 35.414062 91.503906 39.144531 89.808594 43.453125 C 87.789062 48.585938 81.054688 45.933594 76.601562 44.125 C 75.433594 46.398438 73.054688 47.945312 71.148438 49.570312 C 68.882812 51.5 66.636719 54.023438 63.34375 53.597656 C 57.210938 52.804688 58.195312 46.003906 59.992188 41.421875 C 55.855469 41.921875 49.484375 38.953125 49.285156 34.820312 Z M 39.988281 65.765625 C 42.667969 62.050781 44.625 58.195312 45.722656 53.679688 C 46.164062 51.871094 49.050781 52.246094 49.058594 54.09375 C 49.085938 59.542969 51.78125 66.304688 58.320312 65.519531 C 60.910156 65.207031 60.722656 68.390625 58.5 68.90625 C 56.648438 69.339844 54.25 72.316406 52.886719 73.597656 C 51.234375 75.148438 49.640625 76.75 48.066406 78.375 C 47.210938 79.257812 44.570312 79.121094 44.832031 77.433594 C 45.257812 74.710938 40.929688 69.914062 39.414062 67.863281 C 38.753906 66.96875 39.214844 66.160156 39.988281 65.765625 Z M 28.464844 45.210938 C 30.253906 45.351562 32.050781 45.59375 33.847656 45.777344 C 33.964844 47.933594 33.820312 49.855469 35.8125 51.0625 C 36.324219 51.371094 37.097656 51.367188 37.386719 50.753906 C 38.140625 49.144531 38.042969 47.636719 37.808594 46.011719 C 39.476562 46.023438 41.132812 45.886719 42.773438 45.453125 C 43.824219 45.175781 43.867188 43.90625 43.050781 43.3125 C 41.210938 41.976562 39.371094 42.144531 37.21875 42.203125 C 36.949219 40.539062 36.652344 38.886719 36.3125 37.226562 C 36.066406 36.007812 33.414062 35.28125 33.425781 36.910156 C 33.441406 38.722656 33.523438 40.523438 33.628906 42.328125 C 31.917969 42.398438 30.207031 42.460938 28.492188 42.472656 C 26.65625 42.484375 26.679688 45.066406 28.464844 45.210938 Z M 186.5 411.199219 C 187.859375 415.46875 180.898438 417.628906 178.007812 418.355469 C 178.453125 418.242188 181.988281 422.777344 182.269531 423.320312 C 183.34375 425.402344 183.386719 427.597656 181.136719 428.890625 C 177.28125 431.09375 171.933594 428.824219 168.425781 426.324219 C 166.949219 430.386719 163.523438 434.210938 158.921875 433.40625 C 152.078125 432.207031 154.492188 425.128906 157 420.5625 C 155.191406 420.285156 153.441406 419.488281 151.671875 418.8125 C 149.667969 418.046875 147.925781 416.59375 148.15625 414.253906 C 148.667969 409.101562 156.769531 408.9375 161.351562 409.1875 C 161.414062 406.496094 162.132812 403.832031 162.980469 401.289062 C 163.703125 399.121094 164.734375 397.160156 167.382812 397.71875 C 172.140625 398.671875 175.257812 408.679688 175.503906 408.792969 C 177.652344 409.800781 185.011719 406.535156 186.5 411.199219 Z M 171.679688 390.992188 C 171.96875 387.703125 170.640625 386.039062 169.230469 383.488281 C 168.039062 381.332031 168.609375 380.953125 169.980469 378.691406 C 171.398438 376.351562 172.0625 373.253906 172.53125 370.59375 C 172.804688 369.0625 175.472656 369.089844 175.945312 370.453125 C 177.460938 374.820312 179.746094 380.679688 185.332031 380.277344 C 186.644531 380.183594 188.125 381.953125 186.578125 382.8125 C 182.027344 385.34375 178.046875 388.582031 174.460938 392.34375 C 173.445312 393.410156 171.558594 392.3125 171.679688 390.992188 Z M 195.363281 395.667969 C 193.542969 394.9375 191.585938 395.527344 189.726562 395.820312 C 189.425781 395.871094 188.183594 393.046875 187.769531 391.746094 C 187.25 390.101562 184.054688 390.144531 184.460938 392.085938 C 184.761719 393.523438 184.992188 394.964844 185.121094 396.421875 C 183.921875 396.550781 182.71875 396.664062 181.511719 396.742188 C 179.570312 396.871094 179.398438 399.878906 181.476562 399.832031 C 182.660156 399.804688 183.902344 399.796875 185.164062 399.773438 C 185.101562 401.007812 185.058594 402.269531 185.484375 403.324219 C 185.898438 404.339844 188.089844 404.738281 188.519531 403.519531 C 188.957031 402.285156 189.125 400.9375 189.132812 399.566406 C 191.523438 399.34375 193.859375 398.882812 195.886719 397.871094 C 196.929688 397.351562 196.140625 395.980469 195.363281 395.667969 Z M 195.363281 395.667969 " fill-opacity="1" fill-rule="nonzero"/></g><path fill="#efdf6e" d="M 47.863281 73.617188 C 46.683594 71.144531 44.457031 68.636719 42.945312 66.855469 C 44.460938 64.960938 45.703125 62.953125 46.714844 60.820312 C 47.839844 64.25 49.953125 67.121094 53.167969 68.382812 C 51.261719 69.917969 49.484375 71.832031 47.863281 73.617188 Z M 63.058594 40.996094 C 63.207031 42.859375 62.441406 44.71875 62.523438 46.570312 C 62.914062 55.027344 71.832031 44.882812 73.652344 42.128906 C 76.5 37.824219 81.609375 46.085938 85.347656 42.425781 C 89.195312 38.660156 79.980469 36.292969 79.75 34.015625 C 79.582031 32.371094 81.566406 31.171875 82.507812 30.121094 C 82.894531 29.691406 86.191406 26.320312 84.824219 25.8125 C 81.328125 24.527344 77.574219 27.429688 74.390625 26.347656 C 71.414062 25.335938 69.445312 21.015625 67.597656 18.730469 C 67.199219 18.238281 66.78125 17.742188 66.210938 17.46875 C 64.035156 16.4375 64.800781 28.472656 63.097656 30.011719 C 61.898438 31.089844 59.917969 31.132812 57.492188 31.910156 C 56.316406 32.289062 52.0625 33.574219 53.960938 35.46875 C 56.242188 37.734375 62.789062 37.628906 63.058594 40.996094 Z M 179.136719 411.769531 C 175.726562 412.03125 173.21875 412.03125 171.4375 408.621094 C 171.183594 408.136719 167.542969 400.050781 166.988281 400.851562 C 165.175781 403.472656 164.785156 407.105469 164.542969 410.207031 C 164.28125 413.578125 152.601562 414.128906 152.382812 414.195312 C 156.078125 416.996094 161.964844 416.472656 159.9375 422.179688 C 159.207031 424.234375 156.097656 429.039062 159.75 430.027344 C 163.382812 431.007812 164.890625 425.59375 166.046875 423.253906 C 166.609375 422.113281 168.902344 422.277344 169.082031 423.535156 C 169.28125 424.914062 178.953125 428.035156 179.003906 425.546875 C 179.015625 424.9375 178.625 424.40625 178.246094 423.929688 C 176.96875 422.328125 173.609375 419.867188 174.101562 417.613281 C 174.527344 415.679688 176.957031 415.675781 178.976562 415.203125 C 180.210938 414.910156 181.292969 414.445312 181.667969 413.257812 C 182.191406 411.609375 180.5625 411.660156 179.136719 411.769531 Z M 181.246094 382.730469 C 178.355469 381.691406 176.273438 379.195312 174.710938 376.3125 C 174.011719 378.316406 173.101562 380.238281 171.996094 382.105469 C 173.398438 383.859375 174.285156 385.785156 174.667969 387.910156 C 176.742188 386.019531 178.933594 384.3125 181.246094 382.730469 Z M 181.246094 382.730469 " fill-opacity="1" fill-rule="nonzero"/><path fill="#c5e7e2" d="M 201.664062 133.792969 C 190.027344 129.136719 178.03125 125.335938 165.78125 122.710938 C 166.324219 111.023438 166.859375 99.332031 167.382812 87.644531 C 170.464844 87.96875 173.503906 88.195312 176.449219 88.316406 C 180.460938 88.476562 186.617188 86.636719 185.054688 81.164062 C 183.574219 75.96875 172.621094 74.066406 168.285156 72.796875 C 168.203125 72.773438 168.121094 72.765625 168.039062 72.753906 C 168.144531 70.371094 168.253906 67.984375 168.359375 65.601562 C 174.769531 68.875 181.589844 71.289062 187.71875 75.242188 C 195.984375 80.574219 203.34375 87.144531 209.5 94.820312 C 221.878906 110.246094 227.847656 129.046875 228.519531 148.523438 C 225.664062 145.953125 222.113281 143.9375 218.980469 142.089844 C 213.457031 138.828125 207.613281 136.171875 201.664062 133.792969 Z M 178.265625 83.507812 C 182.019531 81.234375 175.238281 79.628906 173.847656 79.058594 C 171.871094 78.246094 169.867188 77.503906 167.863281 76.757812 C 167.78125 78.664062 167.695312 80.570312 167.609375 82.472656 C 167.59375 82.84375 177.355469 84.0625 178.265625 83.507812 Z M 227.8125 154.050781 C 224.480469 152.207031 221.527344 149.4375 218.304688 147.480469 C 213.078125 144.308594 207.542969 141.648438 201.921875 139.261719 C 190.058594 134.230469 177.542969 130.980469 165.621094 126.136719 C 165.0625 138.015625 164.5 149.894531 163.925781 161.773438 C 185.289062 164.230469 208.664062 165.03125 227.8125 154.050781 Z M 39.460938 107.355469 C 45.207031 96.605469 55.15625 88.359375 65.214844 81.300781 C 67.339844 79.808594 69.46875 78.371094 71.5625 76.972656 C 85.335938 67.789062 100.554688 61.632812 117.296875 62.097656 C 118.539062 62.132812 119.78125 62.226562 121.023438 62.324219 C 120.9375 63.949219 120.847656 65.570312 120.757812 67.195312 C 120.757812 67.199219 118.066406 68.574219 117.890625 69.796875 C 117.644531 71.527344 119.015625 72.777344 120.40625 73.515625 C 119.6875 86.429688 118.96875 99.34375 118.242188 112.257812 C 112.816406 110.425781 59.707031 105.207031 39.460938 107.355469 Z M 73.132812 95.929688 C 77 93.128906 79.847656 89.238281 83.882812 86.605469 C 88.28125 83.730469 93.171875 82.527344 98.167969 81.132812 C 99.941406 80.632812 100.230469 77.75 98.171875 77.496094 C 86.882812 76.117188 74.195312 83.601562 70.371094 94.257812 C 69.816406 95.800781 72.003906 96.75 73.132812 95.929688 Z M 39.203125 155.582031 C 47.273438 160.640625 56.3125 163.472656 65.316406 166.53125 C 75.972656 170.152344 86.746094 173.429688 97.617188 176.34375 C 103.171875 177.835938 108.753906 179.222656 114.359375 180.519531 C 114.566406 176.90625 114.777344 173.289062 114.988281 169.675781 C 112.953125 169.203125 110.921875 168.726562 108.890625 168.238281 C 78.992188 161.003906 46.664062 151.175781 26.269531 126.589844 C 24.949219 125 27.285156 123.988281 28.511719 125.109375 C 52.984375 147.453125 83.78125 157.117188 115.265625 164.800781 C 115.410156 162.296875 115.546875 159.792969 115.691406 157.289062 C 114.621094 156.976562 113.550781 156.664062 112.484375 156.339844 C 97.742188 151.851562 83.3125 146.25 69.65625 139.085938 C 56.21875 132.039062 43.714844 124.136719 36.265625 110.5625 C 30.929688 112.039062 25.863281 114.21875 21.585938 117.847656 C 15.835938 122.726562 14.371094 132.007812 17.886719 138.789062 C 21.839844 146.421875 32.164062 151.175781 39.203125 155.582031 Z M 40.167969 110.261719 C 45.191406 115.734375 49.839844 121.292969 56.160156 125.433594 C 63.144531 130.007812 70.515625 133.984375 78.078125 137.519531 C 90.28125 143.21875 102.996094 148.035156 115.996094 151.921875 C 116.46875 143.644531 117.828125 119.617188 118.039062 115.882812 C 112.300781 116.015625 87.101562 112.191406 80.296875 111.578125 C 66.886719 110.367188 53.59375 110.167969 40.167969 110.261719 Z M 244.390625 171.175781 C 243.355469 164.890625 236.742188 159.121094 231.355469 155.421875 C 231.328125 155.421875 231.296875 155.425781 231.265625 155.425781 C 231.265625 155.425781 231.261719 155.425781 231.261719 155.429688 C 223.398438 163.945312 209.671875 166.242188 198.707031 167.363281 C 187.105469 168.546875 175.359375 168.335938 163.667969 167.140625 C 163.558594 169.394531 163.449219 171.648438 163.339844 173.902344 C 165.75 174.195312 188.042969 176.035156 196.785156 175.898438 C 207.003906 175.738281 216.925781 174.105469 227.058594 173.160156 C 228.449219 173.027344 229.742188 175.230469 228.019531 175.6875 C 209.296875 180.671875 188.464844 180.339844 169.300781 178.75 C 167.242188 178.582031 165.1875 178.375 163.132812 178.15625 C 162.949219 181.855469 162.777344 185.554688 162.59375 189.257812 C 183.164062 192.015625 205.066406 194.472656 225.585938 191.007812 C 230.730469 190.140625 236.121094 189.65625 239.410156 185.273438 C 242.285156 181.449219 245.207031 176.136719 244.390625 171.175781 Z M 5.769531 411.203125 C 5.472656 413.941406 5.503906 416.703125 6.84375 418.332031 C 10.996094 423.375 19.445312 427.113281 25.167969 429.996094 C 53.75 444.410156 87.828125 448.761719 119.5 447.019531 C 122.382812 446.859375 125.125 446.898438 126.773438 444.292969 C 127.378906 443.335938 127.800781 442.171875 128.164062 440.984375 C 86.617188 443.253906 38.964844 438.753906 5.769531 411.203125 Z M 229.605469 193.628906 C 224.644531 201.371094 211.433594 226.085938 209.222656 230.328125 C 206.945312 234.707031 205.714844 239.949219 202.085938 243.503906 C 200.804688 244.757812 201.515625 246.855469 202.875 247.265625 C 197.625 263.726562 192.609375 280.285156 186.863281 296.582031 C 184.113281 304.375 170.195312 335.90625 166.972656 344.242188 C 163.621094 352.902344 161.339844 361.941406 156.953125 370.1875 C 152.78125 378.023438 147.128906 385.488281 144.226562 393.921875 C 140.828125 403.777344 137.4375 413.632812 134.042969 423.488281 C 132.496094 427.988281 130.945312 432.488281 129.398438 436.988281 C 86.460938 436.582031 43.855469 432.550781 7.15625 408.234375 C 6.878906 408.050781 7.832031 395.730469 8.394531 390.882812 C 8.910156 386.425781 9.351562 381.953125 9.464844 377.460938 C 9.605469 372.007812 8.671875 366.679688 8.605469 361.257812 C 8.472656 350.925781 9.527344 340.421875 10.347656 330.128906 C 13.609375 289.339844 22.371094 249.085938 25.621094 208.34375 C 26.480469 208.277344 27.335938 207.769531 27.234375 206.898438 C 25.265625 190.097656 30.363281 173.164062 30.78125 156.164062 C 45.28125 165.320312 61.9375 170.632812 78.335938 175.644531 C 90.128906 179.246094 102.0625 182.390625 114.09375 185.105469 C 113.558594 194.328125 113.023438 203.546875 112.484375 212.769531 C 104.933594 210.542969 96.828125 209.183594 89.503906 207.578125 C 81.414062 205.800781 73.195312 204.140625 64.9375 203.359375 C 55.917969 202.511719 42.195312 202.035156 35.832031 209.851562 C 31.554688 215.105469 31.699219 224.832031 30.546875 231.199219 C 28.769531 240.992188 27.070312 250.804688 25.589844 260.648438 C 24.027344 271.050781 22.707031 281.496094 21.820312 291.980469 C 20.769531 304.425781 20.546875 316.738281 19.074219 329.140625 C 17.664062 341 19.003906 353.316406 18.804688 365.234375 C 18.722656 370.066406 18.445312 374.871094 17.824219 379.664062 C 17 386.03125 15.34375 393.085938 17.417969 399.515625 C 19.425781 405.738281 24.75 410.988281 30.1875 414.367188 C 39.199219 419.964844 51.652344 422.339844 61.867188 424.78125 C 73.703125 427.605469 85.769531 429.480469 97.902344 430.40625 C 108.289062 431.195312 118.304688 430.972656 125.554688 422.496094 C 132.011719 414.949219 135.398438 404.550781 139.757812 395.746094 C 144.867188 385.433594 150.066406 375.15625 154.496094 364.523438 C 159.269531 353.074219 163.179688 341.214844 167.585938 329.613281 C 175.726562 308.1875 184.503906 286.992188 190.476562 264.835938 C 192.949219 255.660156 195.085938 246.675781 198.582031 237.839844 C 201.476562 230.523438 201.304688 223.128906 194.742188 217.917969 C 185.90625 210.902344 172.332031 210.648438 161.511719 210.863281 C 161.800781 205.113281 162.09375 199.359375 162.375 193.609375 C 184.464844 196.554688 207.941406 198.617188 229.605469 193.628906 Z M 39.625 193.351562 C 40.238281 190.382812 40.914062 184.289062 43.6875 183.132812 C 45.96875 182.183594 47.957031 184.023438 49.8125 184.996094 C 53.835938 187.113281 57.980469 188.984375 62.191406 190.699219 C 68.476562 193.253906 77.734375 198.050781 84.5625 196.277344 C 85.710938 195.976562 86.917969 193.980469 85.601562 193.101562 C 80.449219 189.675781 74.042969 188.574219 68.257812 186.488281 C 62.78125 184.511719 57.421875 182.269531 52.148438 179.804688 C 48.507812 178.101562 44.628906 175.308594 41.292969 178.832031 C 37.925781 182.390625 36.59375 188.546875 35.769531 193.257812 C 35.347656 195.679688 39.191406 195.46875 39.625 193.351562 Z M 39.625 193.351562 " fill-opacity="1" fill-rule="nonzero"/><path fill="#e2b48f" d="M 22.492188 380.144531 C 21.832031 385.257812 20.304688 391.097656 21.4375 396.238281 C 23.589844 406.019531 34.066406 410.917969 42.480469 413.78125 C 53.382812 417.492188 64.566406 420.371094 75.90625 422.378906 C 82.070312 423.46875 106.820312 426.289062 112.566406 424.859375 C 123.460938 422.144531 127.261719 410.191406 131.609375 401.191406 C 136.371094 391.335938 141.449219 381.636719 146.0625 371.710938 C 147.890625 367.773438 149.609375 363.769531 151.28125 359.746094 C 148.4375 361.710938 133.070312 364.171875 128.558594 364.285156 C 122.628906 364.433594 106.398438 362.992188 105.144531 355.035156 C 104.644531 351.855469 105.605469 347.777344 105.769531 344.542969 C 97.289062 346.398438 89.8125 335.132812 90.5625 327.480469 C 91.40625 318.890625 99.242188 315.171875 106.910156 314.589844 C 107.09375 309.484375 107.300781 304.382812 107.574219 299.289062 C 108.636719 279.726562 109.75 260.167969 110.878906 240.605469 C 105.75 239.058594 100.707031 237.203125 95.765625 234.96875 C 93.902344 234.128906 95.617188 231.902344 97.21875 232.402344 C 101.808594 233.828125 106.445312 235.144531 111.128906 236.308594 C 111.40625 231.449219 111.6875 226.589844 111.96875 221.730469 C 102.972656 223.550781 93.996094 225.488281 84.988281 227.136719 C 74.398438 229.070312 63.179688 230.949219 52.488281 228.628906 C 46.707031 227.375 39.964844 224.855469 36.394531 219.859375 C 34.207031 244.117188 28.136719 267.960938 26.210938 292.285156 C 25.699219 298.707031 23.789062 326.019531 23.445312 333.289062 C 22.933594 344.113281 23.59375 354.96875 23.441406 365.800781 C 23.375 370.597656 23.113281 375.382812 22.492188 380.144531 Z M 115.730469 389.488281 C 122.003906 394.613281 122.742188 403.765625 118.050781 410.191406 C 112.84375 417.316406 100.328125 418.007812 94.164062 411.46875 C 89.09375 406.089844 90.792969 396.863281 95.675781 391.277344 C 100.597656 385.652344 109.878906 384.710938 115.730469 389.488281 Z M 92.359375 352.164062 C 100.238281 354.949219 103.589844 363.523438 99.769531 370.9375 C 95.972656 378.300781 86.386719 383.296875 78.664062 378.894531 C 72.339844 375.285156 67.902344 366.339844 70.902344 359.425781 C 71.304688 358.496094 71.84375 357.601562 72.527344 356.765625 C 77.046875 351.234375 85.875 349.875 92.359375 352.164062 Z M 55.675781 286.847656 C 60.074219 280.855469 69.199219 278.667969 75.914062 281.714844 C 83.226562 285.03125 86.734375 293.167969 83.96875 300.71875 C 80.683594 309.6875 69.75 312.210938 61.523438 308.585938 C 53.292969 304.964844 50.3125 294.160156 55.675781 286.847656 Z M 47.269531 321.566406 C 54.578125 318.882812 64.691406 320.265625 68.9375 327.480469 C 73.59375 335.390625 66.230469 345.171875 58.644531 347.597656 C 51.257812 349.957031 41.832031 346.855469 39.152344 339.257812 C 39.023438 338.890625 38.910156 338.515625 38.8125 338.132812 C 37.148438 331.496094 40.765625 323.953125 47.269531 321.566406 Z M 53.945312 377.316406 C 62.539062 378.5625 71.113281 384.660156 68.96875 394.335938 C 66.902344 403.675781 59.832031 406.183594 51.113281 405.769531 C 43.601562 405.414062 36.253906 399.386719 35.550781 391.730469 C 34.496094 380.222656 43.625 375.820312 53.945312 377.316406 Z M 45.101562 222.765625 C 48.300781 224.730469 51.902344 225.976562 55.640625 226.34375 C 65.082031 227.269531 74.597656 225.691406 83.851562 223.925781 C 88.65625 223.007812 93.433594 221.957031 98.207031 220.882812 C 100.496094 220.367188 109.585938 217.726562 110.800781 218.035156 C 105.496094 216.6875 100.195312 214.894531 95.078125 213.683594 C 87.574219 211.90625 80.019531 210.351562 72.410156 209.09375 C 63.507812 207.621094 53.398438 205.394531 44.703125 208.953125 C 42.25 209.960938 37.722656 212.230469 37.53125 215.242188 C 37.503906 215.707031 37.578125 216.1875 37.777344 216.6875 C 38.882812 219.4375 42.722656 221.300781 45.101562 222.765625 Z M 189.609375 250.382812 C 190.710938 246.128906 191.953125 242.15625 193.675781 238.101562 C 196 232.628906 197.632812 226.84375 192.527344 222.3125 C 184.785156 215.4375 171.601562 215.179688 161.285156 215.402344 C 160.980469 221.433594 160.683594 227.46875 160.378906 233.5 C 160.253906 236.011719 160.109375 238.523438 159.980469 241.035156 C 163.804688 241.058594 167.621094 241.207031 171.40625 241.675781 C 172.316406 241.789062 173.039062 243.558594 171.929688 243.90625 C 167.976562 245.136719 163.871094 245.882812 159.699219 246.28125 C 157.773438 282.855469 155.539062 319.378906 152.882812 355.898438 C 159.445312 339.648438 165.058594 322.902344 171.28125 306.59375 C 178.378906 288.007812 184.628906 269.652344 189.609375 250.382812 Z M 189.609375 250.382812 " fill-opacity="1" fill-rule="nonzero"/><path fill="#ffffff" d="M 125.078125 68.148438 C 125.261719 64.28125 125.453125 60.414062 125.628906 56.542969 C 126.269531 42.605469 127.398438 28.523438 127.421875 14.539062 C 129.609375 15.964844 132.15625 16.636719 134.96875 17.371094 C 144.214844 19.777344 157.554688 22.265625 166.359375 17.101562 C 166.316406 20.320312 162.839844 81.773438 163.164062 81.824219 C 155.9375 80.65625 148.855469 78.890625 141.8125 76.902344 C 137.035156 75.554688 124.75 75.222656 125.078125 68.148438 Z M 158.933594 161.144531 C 159.554688 149.761719 162.179688 100.402344 162.886719 87.109375 C 149.621094 85.292969 135.867188 81.5 124.742188 75.308594 C 123.515625 101.324219 122.234375 127.335938 120.90625 153.34375 C 133.40625 156.835938 146.148438 159.457031 158.933594 161.144531 Z M 147.320312 14.832031 C 151.59375 15 160.417969 15.550781 163.976562 13.179688 C 168.070312 10.449219 163.226562 8.683594 161.019531 8.226562 C 153.046875 6.582031 144.402344 6.480469 136.3125 7.035156 C 134.070312 7.1875 129.125 8.363281 127.746094 10.613281 C 130.191406 12 133.308594 12.175781 135.96875 12.769531 C 139.765625 13.617188 143.433594 14.679688 147.320312 14.832031 Z M 116.453125 237.554688 C 122.5 238.890625 128.605469 239.949219 134.746094 240.617188 C 141.328125 241.332031 147.957031 241.148438 154.570312 241.0625 C 155.03125 232.566406 155.492188 224.066406 155.960938 215.566406 C 142.945312 216.089844 130.132812 218.164062 117.375 220.65625 C 117.207031 223.835938 116.585938 235.101562 116.453125 237.554688 Z M 119.441406 181.671875 C 132.015625 184.449219 144.691406 186.738281 157.441406 188.539062 C 157.644531 184.882812 157.84375 181.222656 158.046875 177.566406 C 145.261719 175.988281 132.578125 173.617188 120.003906 170.816406 C 119.816406 174.433594 119.632812 178.054688 119.441406 181.671875 Z M 158.644531 166.566406 C 145.777344 164.9375 133.015625 162.15625 120.628906 158.707031 C 120.503906 161.132812 120.378906 163.5625 120.25 165.988281 C 132.816406 168.941406 145.496094 171.464844 158.285156 173.234375 C 158.40625 171.011719 158.523438 168.789062 158.644531 166.566406 Z M 117.703125 214.503906 C 118.851562 214.933594 119.980469 215.390625 121.078125 215.882812 C 132.679688 213.574219 144.386719 211.65625 156.207031 211.058594 C 156.539062 205.007812 156.871094 198.957031 157.203125 192.90625 C 156.382812 192.789062 130.972656 188.757812 119.207031 186.230469 C 118.710938 195.65625 118.207031 205.078125 117.703125 214.503906 Z M 154.265625 246.609375 C 147.207031 246.804688 140.066406 246.179688 133.25 245.320312 C 127.460938 244.589844 121.777344 243.507812 116.195312 242.082031 C 114.070312 280.042969 111.574219 317.953125 108.796875 355.863281 C 108.792969 355.882812 108.789062 355.898438 108.785156 355.914062 C 115.46875 359.40625 122.808594 360.832031 130.347656 360.417969 C 136.144531 360.097656 143.558594 359.269531 149.085938 357.007812 C 150.417969 338.195312 150.453125 319.183594 151.417969 300.339844 C 152.332031 282.425781 153.292969 264.515625 154.265625 246.609375 Z M 154.265625 246.609375 " fill-opacity="1" fill-rule="nonzero"/></svg>