<svg xmlns="http://www.w3.org/2000/svg" xmlns:xlink="http://www.w3.org/1999/xlink" width="397" zoomAndPan="magnify" viewBox="0 0 297.75 258.74999" height="345" preserveAspectRatio="xMidYMid meet" version="1.0"><defs><clipPath id="92243b3d9b"><path d="M 3 0 L 296.730469 0 L 296.730469 258.5 L 3 258.5 Z M 3 0 " clip-rule="nonzero"/></clipPath></defs><path fill="#5d5560" d="M 255.328125 229.582031 C 263.492188 236.398438 259.171875 240.851562 248.980469 244.191406 L 237.148438 239.078125 C 233.175781 237.363281 228.964844 236.492188 224.636719 236.492188 L 98.515625 236.492188 C 94.1875 236.492188 89.976562 237.363281 86.003906 239.078125 L 74.175781 244.191406 C 64.59375 243.375 63.035156 238.199219 67.824219 229.582031 L 79.699219 224.445312 C 85.679688 221.863281 92.011719 220.554688 98.515625 220.554688 L 104.46875 220.554688 C 140.871094 201.203125 177.847656 198.058594 215.734375 220.554688 L 224.636719 220.554688 C 231.144531 220.554688 237.472656 221.863281 243.449219 224.445312 Z M 255.328125 229.582031 " fill-opacity="1" fill-rule="nonzero"/><path fill="#655f68" d="M 294.429688 256.132812 L 243.792969 256.132812 L 248.980469 244.191406 L 255.328125 229.582031 L 260.148438 218.492188 C 278.9375 222.226562 294.429688 236.203125 294.429688 256.132812 Z M 294.429688 256.132812 " fill-opacity="1" fill-rule="nonzero"/><path fill="#655f68" d="M 74.175781 244.191406 L 79.355469 256.132812 L 28.71875 256.132812 C 28.71875 236.203125 44.214844 222.226562 63.007812 218.492188 L 67.824219 229.582031 Z M 74.175781 244.191406 " fill-opacity="1" fill-rule="nonzero"/><path fill="#1ea6bc" d="M 116.828125 103.207031 C 109.472656 99.136719 105.910156 100.925781 104.46875 105.992188 L 104.46875 220.554688 L 215.734375 220.554688 L 215.734375 103.207031 C 184.378906 94.71875 151.230469 95.671875 116.828125 103.207031 Z M 116.828125 103.207031 " fill-opacity="1" fill-rule="nonzero"/><path fill="#d19c62" d="M 246.398438 85.835938 C 256.328125 90.753906 256.46875 96.53125 246.398438 103.207031 L 116.828125 103.207031 C 115.042969 103.207031 113.261719 103.382812 111.519531 103.722656 C 104.097656 98.636719 105.574219 92.714844 111.519531 86.371094 C 113.167969 82.746094 115.003906 82.757812 116.96875 85.835938 C 161.378906 64.105469 204.761719 59.996094 246.398438 85.835938 Z M 246.398438 85.835938 " fill-opacity="1" fill-rule="nonzero"/><path fill="#e0ac69" d="M 290.65625 53.613281 C 295.589844 79.347656 275.898438 103.207031 249.730469 103.207031 L 246.398438 103.207031 L 246.398438 85.835938 C 240.378906 66.839844 253.257812 38.953125 287.324219 36.238281 Z M 290.65625 53.613281 " fill-opacity="1" fill-rule="nonzero"/><path fill="#e0ac69" d="M 58.699219 68.953125 L 8.988281 89.367188 L 15.199219 103.652344 C 22.988281 121.558594 43.539062 130.074219 61.683594 122.90625 L 104.46875 105.992188 L 106.582031 105.160156 C 108.183594 104.523438 109.832031 104.046875 111.519531 103.722656 L 111.519531 86.371094 Z M 58.699219 68.953125 " fill-opacity="1" fill-rule="nonzero"/><path fill="#f1c27d" d="M 287.324219 36.238281 C 292.253906 61.96875 272.5625 85.835938 246.398438 85.835938 L 116.96875 85.835938 C 115.136719 85.835938 113.308594 86.015625 111.519531 86.371094 C 109.796875 86.710938 108.105469 87.214844 106.464844 87.886719 L 55.796875 108.484375 C 37.601562 115.882812 16.828125 107.402344 8.988281 89.367188 C 2.542969 74.554688 6.671875 57.257812 19.109375 46.957031 L 64.539062 9.320312 C 69.960938 4.832031 76.769531 2.375 83.804688 2.375 L 246.398438 2.375 C 266.386719 2.375 283.554688 16.585938 287.324219 36.238281 Z M 287.324219 36.238281 " fill-opacity="1" fill-rule="nonzero"/><path fill="#1498b7" d="M 116.828125 103.207031 C 115.042969 103.207031 113.261719 103.382812 111.519531 103.722656 C 109.832031 104.046875 108.183594 104.523438 106.582031 105.160156 L 104.46875 105.992188 L 104.46875 122.835938 L 106.582031 122.003906 C 108.183594 121.367188 109.832031 120.890625 111.519531 120.5625 C 113.261719 120.226562 115.042969 120.050781 116.828125 120.050781 L 169.011719 120.050781 C 185.582031 120.050781 198.117188 135.160156 194.96875 151.457031 C 189.273438 180.941406 169.515625 220.554688 104.46875 220.554688 L 215.734375 220.554688 L 215.734375 103.207031 Z M 116.828125 103.207031 " fill-opacity="1" fill-rule="nonzero"/><g clip-path="url(#92243b3d9b)"><path fill="#3a322b" d="M 241.847656 257.40625 C 242.277344 258.0625 243.007812 258.457031 243.792969 258.457031 L 294.429688 258.457031 C 295.714844 258.457031 296.757812 257.414062 296.757812 256.128906 C 296.757812 236.550781 282.226562 220.507812 260.597656 216.207031 C 259.53125 215.996094 258.449219 216.558594 258.011719 217.5625 L 254.121094 226.519531 L 244.375 222.308594 C 238.101562 219.597656 231.460938 218.226562 224.636719 218.226562 L 218.058594 218.226562 L 218.058594 105.539062 L 249.730469 105.539062 C 262.898438 105.539062 275.257812 99.710938 283.644531 89.546875 C 292.03125 79.382812 295.417969 66.125 292.9375 53.175781 L 289.605469 35.800781 C 285.636719 15.085938 267.464844 0.046875 246.402344 0.046875 L 83.804688 0.046875 C 76.246094 0.046875 68.878906 2.703125 63.054688 7.527344 L 17.621094 45.164062 C 4.46875 56.0625 0.0390625 74.621094 6.855469 90.296875 L 13.066406 104.582031 C 19.386719 119.117188 33.414062 127.804688 48.292969 127.800781 C 53.027344 127.800781 57.851562 126.921875 62.535156 125.070312 L 102.144531 109.417969 L 102.144531 218.226562 L 98.515625 218.226562 C 91.691406 218.226562 85.050781 219.597656 78.777344 222.308594 L 69.03125 226.519531 L 65.140625 217.5625 C 64.703125 216.558594 63.625 215.996094 62.554688 216.207031 C 40.925781 220.507812 26.398438 236.550781 26.398438 256.128906 C 26.398438 257.414062 27.4375 258.457031 28.722656 258.457031 L 79.359375 258.457031 C 80.144531 258.457031 80.875 258.0625 81.304688 257.40625 C 81.738281 256.75 81.804688 255.917969 81.492188 255.199219 L 77.238281 245.40625 L 86.925781 241.21875 C 90.609375 239.628906 94.507812 238.820312 98.515625 238.820312 L 224.636719 238.820312 C 228.644531 238.820312 232.546875 239.628906 236.226562 241.21875 L 245.914062 245.40625 L 241.660156 255.199219 C 241.347656 255.921875 241.417969 256.75 241.847656 257.40625 Z M 261.515625 221.179688 C 276.394531 224.757812 290.867188 235.941406 292.03125 253.800781 L 247.34375 253.800781 Z M 116.96875 88.164062 L 244.074219 88.164062 L 244.074219 100.878906 L 116.828125 100.878906 C 115.828125 100.878906 114.832031 100.929688 113.84375 101.027344 L 113.84375 88.359375 C 114.875 88.234375 115.917969 88.164062 116.96875 88.164062 Z M 280.058594 86.578125 C 272.558594 95.667969 261.503906 100.878906 249.730469 100.878906 L 248.726562 100.878906 L 248.726562 88.101562 C 261.015625 87.457031 272.425781 81.734375 280.316406 72.167969 C 284.246094 67.410156 287.074219 61.972656 288.71875 56.207031 C 290.195312 67.089844 287.097656 78.050781 280.058594 86.578125 Z M 20.589844 48.753906 L 66.019531 11.117188 C 71.011719 6.984375 77.328125 4.707031 83.804688 4.707031 L 246.402344 4.707031 C 265.238281 4.707031 281.488281 18.152344 285.039062 36.679688 C 287.257812 48.257812 284.230469 60.113281 276.730469 69.203125 C 269.230469 78.292969 258.175781 83.503906 246.402344 83.503906 L 116.96875 83.503906 C 113.050781 83.503906 109.222656 84.253906 105.589844 85.730469 L 54.921875 106.328125 C 37.757812 113.304688 18.519531 105.449219 11.121094 88.4375 C 5.128906 74.65625 9.019531 58.335938 20.589844 48.753906 Z M 60.828125 120.734375 C 44.722656 127.101562 26.804688 120.40625 18.683594 105.472656 C 21.390625 107.558594 24.390625 109.296875 27.632812 110.621094 C 32.320312 112.535156 37.25 113.496094 42.179688 113.496094 C 47.089844 113.496094 52 112.542969 56.675781 110.644531 L 107.339844 90.046875 C 107.953125 89.796875 108.570312 89.582031 109.191406 89.382812 L 109.191406 101.867188 C 108.019531 102.175781 106.863281 102.546875 105.726562 102.996094 Z M 106.796875 107.578125 L 107.433594 107.328125 C 110.4375 106.140625 113.597656 105.539062 116.828125 105.539062 L 213.40625 105.539062 L 213.40625 218.226562 L 106.796875 218.226562 Z M 31.125 253.800781 C 32.289062 235.941406 46.761719 224.757812 61.636719 221.179688 L 75.8125 253.800781 Z M 238.070312 236.941406 C 233.800781 235.097656 229.28125 234.164062 224.636719 234.164062 L 98.515625 234.164062 C 93.871094 234.164062 89.351562 235.097656 85.082031 236.941406 L 75.382812 241.132812 L 70.886719 230.792969 L 80.621094 226.585938 C 86.308594 224.128906 92.328125 222.886719 98.515625 222.886719 L 224.636719 222.886719 C 230.824219 222.886719 236.84375 224.128906 242.53125 226.585938 L 252.265625 230.792969 L 247.773438 241.132812 Z M 77.859375 18.59375 C 77.320312 17.425781 77.828125 16.042969 78.992188 15.5 C 80.160156 14.960938 81.542969 15.46875 82.082031 16.636719 L 106.582031 69.617188 C 107.121094 70.785156 106.613281 72.167969 105.449219 72.710938 C 105.132812 72.855469 104.800781 72.925781 104.472656 72.925781 C 103.59375 72.925781 102.753906 72.425781 102.359375 71.574219 Z M 77.859375 18.59375 " fill-opacity="1" fill-rule="nonzero"/></g></svg>