<svg xmlns="http://www.w3.org/2000/svg" xmlns:xlink="http://www.w3.org/1999/xlink" width="335" zoomAndPan="magnify" viewBox="0 0 251.25 209.999996" height="280" preserveAspectRatio="xMidYMid meet" version="1.0"><defs><clipPath id="56444f3386"><path d="M 0 146 L 250.503906 146 L 250.503906 209.6875 L 0 209.6875 Z M 0 146 " clip-rule="nonzero"/></clipPath><clipPath id="1736b854e5"><path d="M 116 0.3125 L 134 0.3125 L 134 17 L 116 17 Z M 116 0.3125 " clip-rule="nonzero"/></clipPath></defs><g clip-path="url(#56444f3386)"><path fill="#af8b45" d="M 125.070312 189.394531 C 92.535156 169.53125 55.390625 156.507812 17.484375 153.414062 L 20.21875 146.523438 C 58.128906 151.792969 94.460938 166.742188 125.070312 189.394531 Z M 14.542969 160.710938 L 11.757812 167.605469 C 39.527344 167.402344 67.453125 171.507812 93.957031 180.019531 C 69.074219 168.566406 41.910156 162.535156 14.542969 160.660156 Z M 247.609375 190.863281 L 139.363281 190.863281 L 138.753906 193.347656 C 136.523438 202.367188 127.808594 203.027344 125.222656 203.027344 C 119.042969 203.027344 114.277344 199.429688 112.25 193.09375 L 111.492188 190.816406 L 2.484375 190.816406 L 0 196.996094 C 0 196.996094 0.152344 197.25 0.253906 197.402344 L 106.878906 197.402344 C 110.222656 205.054688 116.914062 209.566406 125.222656 209.566406 C 133.535156 209.566406 140.832031 206.320312 144.328125 197.402344 L 250.246094 197.402344 L 250.246094 197.300781 L 247.660156 190.816406 Z M 163.078125 184.378906 C 189.988281 179.816406 217.660156 179.5625 244.621094 183.414062 L 241.628906 175.964844 C 215.125 174.445312 188.417969 176.675781 163.078125 184.429688 Z M 238.285156 167.65625 L 235.496094 160.761719 C 208.132812 162.636719 181.019531 168.617188 156.136719 180.121094 C 182.640625 171.609375 210.515625 167.503906 238.234375 167.707031 Z M 229.871094 146.574219 C 192.015625 151.84375 155.730469 166.792969 125.070312 189.394531 C 157.554688 169.582031 194.703125 156.507812 232.609375 153.414062 L 229.871094 146.523438 Z M 87.0625 184.378906 C 61.726562 176.625 34.96875 174.394531 8.414062 175.914062 L 5.421875 183.363281 C 32.382812 179.511719 60.101562 179.765625 87.0625 184.328125 Z M 87.0625 184.378906 " fill-opacity="1" fill-rule="nonzero"/></g><path fill="#9c502c" d="M 80.527344 118.648438 C 89.699219 118.648438 97.402344 112.367188 99.683594 103.953125 L 99.683594 103.851562 L 82.351562 68.277344 C 89.089844 69.746094 92.941406 68.53125 98.769531 66.199219 C 105.765625 63.308594 121.675781 57.027344 122.183594 82.566406 L 122.640625 168.464844 C 122.640625 168.464844 119.75 168.363281 117.570312 169.175781 C 114.226562 167.351562 110.730469 166.386719 108.5 165.933594 C 114.175781 169.074219 119.800781 172.671875 125.019531 176.523438 L 125.121094 176.421875 L 125.121094 176.574219 C 130.445312 172.621094 135.96875 169.074219 141.746094 165.933594 C 139.566406 166.386719 135.96875 167.25 132.671875 169.175781 C 130.496094 168.363281 127.605469 168.464844 127.605469 168.464844 L 128.0625 82.566406 C 128.570312 57.027344 144.480469 63.359375 151.425781 66.199219 C 157.304688 68.582031 161.203125 69.796875 167.945312 68.277344 L 150.613281 103.851562 L 150.613281 103.953125 C 152.894531 112.367188 160.496094 118.648438 169.667969 118.648438 C 178.839844 118.648438 186.542969 112.367188 188.824219 103.953125 L 171.238281 67.566406 C 171.492188 67.464844 171.339844 67.566406 172.050781 67.210938 C 174.078125 66.097656 175.292969 64.324219 175.292969 62.042969 C 175.292969 59.761719 172.910156 56.824219 170.074219 56.824219 C 167.234375 56.824219 164.753906 59.207031 164.753906 62.042969 C 164.753906 64.882812 165.257812 64.425781 165.96875 65.386719 C 160.75 66.351562 157.554688 64.324219 151.375 61.03125 C 139.921875 54.898438 129.429688 56.46875 129.429688 56.46875 C 133.027344 50.183594 128.367188 46.585938 128.367188 46.585938 C 126.644531 44.203125 129.480469 42.734375 129.480469 42.734375 C 133.839844 39.695312 128.519531 34.425781 128.519531 34.425781 C 126.492188 32.246094 125.628906 30.671875 125.171875 29.609375 C 124.71875 30.671875 123.855469 32.246094 121.828125 34.425781 C 121.828125 34.425781 116.40625 39.644531 120.765625 42.734375 C 120.765625 42.734375 123.753906 44.203125 121.878906 46.585938 C 121.878906 46.585938 117.316406 50.183594 120.816406 56.46875 C 120.816406 56.46875 110.425781 54.898438 98.972656 61.03125 C 92.789062 64.375 89.597656 66.351562 84.277344 65.386719 C 85.085938 64.425781 85.492188 63.359375 85.492188 62.042969 C 85.492188 59.15625 83.109375 56.824219 80.273438 56.824219 C 77.433594 56.824219 74.953125 59.207031 74.953125 62.042969 C 74.953125 64.882812 76.167969 66.046875 78.296875 67.210938 C 79.007812 67.566406 78.753906 67.464844 79.109375 67.566406 L 61.523438 103.953125 C 63.804688 112.367188 71.40625 118.648438 80.578125 118.648438 Z M 186.898438 103.953125 L 152.386719 103.953125 L 169.617188 68.480469 L 186.949219 103.953125 Z M 80.527344 68.480469 L 97.859375 103.953125 L 63.347656 103.953125 L 80.578125 68.480469 Z M 80.527344 68.480469 " fill-opacity="1" fill-rule="nonzero"/><path fill="#af8b45" d="M 209.5 103.648438 C 209.5 103.648438 208.691406 105.472656 207.675781 106.792969 C 207.675781 106.691406 207.625 106.539062 207.574219 106.4375 C 208.589844 103.394531 209.347656 100.253906 209.957031 97.0625 C 210.515625 96.960938 211.679688 96.65625 213.097656 95.539062 C 213.097656 95.539062 218.320312 91.082031 218.417969 87.886719 C 218.417969 87.886719 218.46875 84.644531 219.6875 81.707031 C 219.6875 81.707031 217.964844 83.988281 215.175781 85.761719 C 215.175781 85.761719 212.289062 88.699219 211.78125 92.449219 C 211.78125 92.449219 211.273438 94.375 210.464844 95.894531 C 210.414062 95.792969 210.363281 95.691406 210.3125 95.589844 C 210.816406 92.449219 211.070312 89.257812 211.121094 85.960938 C 211.628906 85.8125 212.742188 85.304688 213.960938 83.988281 C 213.960938 83.988281 218.367188 78.765625 217.964844 75.574219 C 217.964844 75.574219 217.507812 72.332031 218.21875 69.289062 C 218.21875 69.289062 216.898438 71.824219 214.417969 74.054688 C 214.417969 74.054688 212.085938 77.449219 212.136719 81.199219 C 212.136719 81.199219 211.933594 83.175781 211.425781 84.796875 C 211.324219 84.695312 211.273438 84.542969 211.171875 84.441406 C 211.171875 83.125 211.171875 81.859375 211.171875 80.539062 C 211.070312 78.613281 210.816406 76.738281 210.566406 74.863281 C 211.070312 74.609375 212.035156 73.953125 212.996094 72.433594 C 212.996094 72.433594 216.492188 66.554688 215.582031 63.511719 C 215.582031 63.511719 214.617188 60.421875 214.769531 57.28125 C 214.769531 57.28125 213.859375 59.964844 211.78125 62.601562 C 211.78125 62.601562 210.007812 66.300781 210.714844 70 C 210.714844 70 210.816406 71.976562 210.566406 73.648438 C 210.464844 73.546875 210.363281 73.445312 210.261719 73.394531 C 209.703125 70.203125 208.941406 67.058594 207.980469 64.019531 C 208.4375 63.664062 209.296875 62.855469 210.007812 61.230469 C 210.007812 61.230469 212.542969 54.847656 211.121094 52.007812 C 211.121094 52.007812 209.652344 49.121094 209.347656 45.976562 C 209.347656 45.976562 208.890625 48.816406 207.269531 51.703125 C 207.269531 51.703125 206.105469 55.65625 207.421875 59.207031 C 207.421875 59.207031 207.878906 61.132812 207.878906 62.855469 C 207.777344 62.804688 207.625 62.703125 207.523438 62.601562 C 206.460938 59.558594 205.242188 56.621094 203.773438 53.78125 C 204.128906 53.429688 204.941406 52.414062 205.34375 50.640625 C 205.34375 50.640625 206.816406 43.953125 204.941406 41.367188 C 204.941406 41.367188 203.015625 38.730469 202.203125 35.691406 C 202.203125 35.691406 202.203125 38.527344 201.089844 41.671875 C 201.089844 41.671875 200.582031 45.777344 202.40625 49.019531 C 202.40625 49.019531 203.164062 50.792969 203.417969 52.464844 C 203.265625 52.414062 203.113281 52.363281 202.964844 52.261719 C 201.441406 49.476562 199.769531 46.789062 197.894531 44.253906 C 198.199219 43.851562 198.808594 42.734375 198.960938 40.910156 C 198.960938 40.910156 199.3125 34.070312 197.035156 31.789062 C 197.035156 31.789062 194.703125 29.507812 193.4375 26.671875 C 193.4375 26.671875 193.890625 29.507812 193.285156 32.75 C 193.285156 32.75 193.4375 36.855469 195.816406 39.796875 C 195.816406 39.796875 196.832031 41.46875 197.386719 43.089844 C 197.238281 43.089844 197.085938 42.988281 196.933594 42.9375 C 195.007812 40.402344 192.878906 38.023438 190.597656 35.792969 C 190.800781 35.335938 191.257812 34.171875 191.105469 32.296875 C 191.105469 32.296875 190.34375 25.503906 187.761719 23.628906 C 187.761719 23.628906 185.125 21.753906 183.351562 19.171875 C 183.351562 19.171875 184.261719 21.855469 184.160156 25.199219 C 184.160156 25.199219 184.972656 29.253906 187.761719 31.738281 C 187.761719 31.738281 189.078125 33.257812 189.835938 34.726562 C 189.6875 34.726562 189.535156 34.726562 189.433594 34.675781 C 187.101562 32.5 184.617188 30.421875 181.984375 28.597656 C 182.132812 28.039062 182.335938 26.871094 181.882812 25.148438 C 181.882812 25.148438 180.058594 18.5625 177.167969 17.144531 C 177.167969 17.144531 174.230469 15.722656 172.101562 13.445312 C 172.101562 13.445312 173.417969 15.976562 173.875 19.269531 C 173.875 19.269531 175.34375 23.121094 178.484375 25.148438 C 178.484375 25.148438 180.007812 26.417969 181.019531 27.785156 C 180.867188 27.785156 180.765625 27.785156 180.613281 27.785156 C 178.382812 26.265625 176.003906 24.847656 173.570312 23.628906 C 173.164062 22.972656 172.457031 22.109375 171.289062 21.195312 C 171.289062 21.195312 164.398438 16.179688 160.597656 16.992188 C 160.597656 16.992188 154.261719 17.699219 153.25 17.597656 C 153.25 17.597656 156.390625 18.96875 159.328125 21.703125 C 159.328125 21.703125 163.078125 24.898438 167.589844 24.390625 C 167.589844 24.390625 171.695312 23.832031 173.773438 24.644531 C 175.597656 25.605469 177.371094 26.671875 179.09375 27.785156 C 177.472656 27.683594 175.902344 27.328125 175.902344 27.328125 C 172.253906 26.214844 168.707031 27.734375 168.707031 27.734375 C 165.664062 29.507812 162.726562 30.117188 162.726562 30.117188 C 166.324219 30.472656 169.007812 31.738281 169.007812 31.738281 C 172 33.054688 177.117188 30.015625 177.117188 30.015625 C 178.132812 29.558594 179.5 29.101562 180.511719 28.75 C 183.046875 30.523438 185.480469 32.449219 187.761719 34.523438 C 186.1875 34.171875 184.71875 33.613281 184.71875 33.613281 C 181.273438 31.890625 177.574219 32.851562 177.574219 32.851562 C 174.28125 34.121094 171.289062 34.222656 171.289062 34.222656 C 174.785156 35.132812 177.21875 36.855469 177.21875 36.855469 C 179.957031 38.628906 185.480469 36.449219 185.480469 36.449219 C 186.542969 36.148438 187.960938 35.945312 189.027344 35.742188 C 191.257812 37.871094 193.335938 40.199219 195.261719 42.582031 C 193.789062 41.976562 192.421875 41.164062 192.421875 41.164062 C 189.332031 38.933594 185.480469 39.238281 185.480469 39.238281 C 182.035156 39.949219 179.042969 39.542969 179.042969 39.542969 C 182.335938 41.011719 184.464844 43.089844 184.464844 43.089844 C 186.847656 45.269531 192.726562 44.003906 192.726562 44.003906 C 193.789062 43.902344 195.210938 43.902344 196.324219 43.902344 C 198.199219 46.382812 199.921875 48.96875 201.441406 51.652344 C 200.074219 50.792969 198.859375 49.828125 198.859375 49.828125 C 196.171875 47.09375 192.320312 46.789062 192.320312 46.789062 C 188.824219 46.941406 185.933594 46.078125 185.933594 46.078125 C 188.925781 48.054688 190.699219 50.488281 190.699219 50.488281 C 192.726562 53.023438 198.65625 52.71875 198.65625 52.71875 C 199.71875 52.769531 201.140625 53.023438 202.203125 53.175781 C 203.671875 55.910156 204.941406 58.75 206.054688 61.6875 C 204.839844 60.625 203.773438 59.40625 203.773438 59.40625 C 201.542969 56.265625 197.792969 55.355469 197.792969 55.355469 C 194.296875 54.898438 191.613281 53.628906 191.613281 53.628906 C 194.246094 56.0625 195.613281 58.75 195.613281 58.75 C 197.1875 61.585938 203.113281 62.246094 203.113281 62.246094 C 204.179688 62.5 205.546875 62.957031 206.5625 63.257812 C 207.574219 66.199219 208.335938 69.238281 208.941406 72.332031 C 207.878906 71.0625 207.015625 69.695312 207.015625 69.695312 C 205.34375 66.25 201.796875 64.730469 201.796875 64.730469 C 198.402344 63.714844 195.96875 61.992188 195.96875 61.992188 C 198.199219 64.832031 199.113281 67.667969 199.113281 67.667969 C 200.226562 70.707031 205.953125 72.332031 205.953125 72.332031 C 206.964844 72.734375 208.285156 73.445312 209.246094 73.953125 C 209.601562 76.132812 209.90625 78.359375 210.058594 80.589844 C 210.109375 81.453125 210.058594 82.3125 210.058594 83.226562 C 209.246094 81.808594 208.640625 80.335938 208.640625 80.335938 C 207.523438 76.6875 204.28125 74.609375 204.28125 74.609375 C 201.089844 73.089844 198.960938 70.960938 198.960938 70.960938 C 200.683594 74.105469 201.140625 77.09375 201.140625 77.09375 C 201.746094 80.285156 207.117188 82.820312 207.117188 82.820312 C 208.03125 83.378906 209.195312 84.289062 210.058594 84.898438 C 210.058594 88.089844 209.90625 91.285156 209.449219 94.375 C 208.839844 92.804688 208.4375 91.132812 208.4375 91.132812 C 207.929688 87.332031 205.089844 84.746094 205.089844 84.746094 C 202.203125 82.71875 200.429688 80.285156 200.429688 80.285156 C 201.644531 83.683594 201.59375 86.671875 201.59375 86.671875 C 201.644531 89.914062 206.5625 93.3125 206.5625 93.3125 C 207.371094 94.019531 208.386719 95.136719 209.144531 95.894531 C 208.640625 98.988281 207.878906 102.027344 206.964844 104.96875 C 206.664062 103.34375 206.511719 101.773438 206.511719 101.773438 C 206.613281 97.921875 204.230469 94.933594 204.230469 94.933594 C 201.695312 92.449219 200.378906 89.8125 200.378906 89.8125 C 200.988281 93.363281 200.480469 96.300781 200.480469 96.300781 C 200.023438 99.492188 204.332031 103.648438 204.332031 103.648438 C 205.039062 104.511719 205.851562 105.726562 206.511719 106.640625 C 205.496094 109.578125 204.28125 112.417969 202.863281 115.203125 C 202.8125 113.582031 202.964844 112.011719 202.964844 112.011719 C 203.671875 108.261719 201.796875 104.917969 201.796875 104.917969 C 199.71875 102.078125 198.808594 99.242188 198.808594 99.242188 C 198.808594 102.839844 197.84375 105.675781 197.84375 105.675781 C 196.882812 108.769531 200.429688 113.53125 200.429688 113.53125 C 200.988281 114.445312 201.542969 115.761719 202.050781 116.722656 C 200.582031 119.511719 198.960938 122.195312 197.136719 124.730469 C 197.339844 123.109375 197.742188 121.488281 197.742188 121.488281 C 199.0625 117.890625 197.742188 114.292969 197.742188 114.292969 C 196.121094 111.148438 195.714844 108.210938 195.714844 108.210938 C 195.160156 111.757812 193.738281 114.394531 193.738281 114.394531 C 192.269531 117.28125 195.058594 122.601562 195.058594 122.601562 C 195.464844 123.617188 195.816406 125.035156 196.121094 126.046875 C 194.246094 128.53125 192.167969 130.863281 189.988281 133.042969 C 190.445312 131.523438 191.105469 130.050781 191.105469 130.050781 C 192.980469 126.707031 192.269531 122.957031 192.269531 122.957031 C 191.207031 119.613281 191.257812 116.621094 191.257812 116.621094 C 190.140625 120.070312 188.316406 122.398438 188.316406 122.398438 C 186.390625 125.035156 188.316406 130.710938 188.316406 130.710938 C 188.570312 131.773438 188.671875 133.246094 188.824219 134.359375 C 186.59375 136.488281 184.160156 138.414062 181.628906 140.1875 C 182.335938 138.71875 183.199219 137.402344 183.199219 137.402344 C 185.632812 134.410156 185.53125 130.558594 185.53125 130.558594 C 185.023438 127.0625 185.53125 124.121094 185.53125 124.121094 C 183.910156 127.316406 181.679688 129.34375 181.679688 129.34375 C 179.347656 131.625 180.308594 137.5 180.308594 137.5 C 180.359375 138.566406 180.257812 140.035156 180.257812 141.101562 C 177.675781 142.875 174.988281 144.496094 172.152344 145.863281 C 173.113281 144.496094 174.179688 143.277344 174.179688 143.277344 C 177.015625 140.746094 177.574219 136.945312 177.574219 136.945312 C 177.625 133.449219 178.636719 130.609375 178.636719 130.609375 C 176.507812 133.5 173.976562 135.121094 173.976562 135.121094 C 171.339844 136.996094 171.289062 142.976562 171.289062 142.976562 C 171.1875 144.039062 170.832031 145.457031 170.632812 146.523438 C 167.792969 147.839844 164.90625 148.953125 161.914062 149.816406 C 163.078125 148.652344 164.347656 147.636719 164.347656 147.636719 C 167.589844 145.558594 168.707031 141.910156 168.707031 141.910156 C 169.3125 138.464844 170.78125 135.828125 170.78125 135.828125 C 168.199219 138.363281 165.460938 139.527344 165.460938 139.527344 C 162.574219 140.949219 161.558594 146.828125 161.558594 146.828125 C 161.253906 147.890625 160.648438 149.308594 160.292969 150.324219 C 157.351562 151.132812 154.261719 151.691406 151.171875 152.097656 C 152.488281 151.132812 153.90625 150.375 153.90625 150.375 C 157.453125 148.855469 159.128906 145.40625 159.128906 145.40625 C 160.292969 142.113281 162.167969 139.730469 162.167969 139.730469 C 159.230469 141.808594 156.289062 142.519531 156.289062 142.519531 C 153.199219 143.429688 151.222656 149.105469 151.222656 149.105469 C 150.765625 150.070312 150.003906 151.335938 149.449219 152.25 C 148.890625 152.300781 148.230469 153.160156 148.433594 153.160156 C 148.636719 153.667969 149.246094 154.730469 150.714844 155.746094 C 150.714844 155.746094 156.390625 159.597656 159.480469 158.835938 C 159.480469 158.835938 162.625 158.027344 165.765625 158.382812 C 165.765625 158.382812 163.128906 157.316406 160.648438 155.085938 C 160.648438 155.085938 157.050781 153.109375 153.300781 153.617188 C 153.300781 153.617188 151.324219 153.617188 149.652344 153.261719 C 149.75 153.160156 149.851562 153.058594 149.953125 152.957031 C 153.199219 152.605469 156.339844 152.046875 159.429688 151.285156 C 159.734375 151.742188 160.496094 152.65625 162.117188 153.464844 C 162.117188 153.464844 168.351562 156.355469 171.289062 155.085938 C 171.289062 155.085938 174.28125 153.769531 177.421875 153.617188 C 177.421875 153.617188 174.632812 153.007812 171.847656 151.234375 C 171.847656 151.234375 167.945312 149.867188 164.347656 150.929688 C 164.347656 150.929688 162.371094 151.285156 160.699219 151.183594 C 160.75 151.082031 160.851562 151.03125 160.902344 150.929688 C 164.042969 150.070312 167.03125 148.902344 169.972656 147.585938 C 170.328125 147.992188 171.238281 148.804688 173.011719 149.308594 C 173.011719 149.308594 179.601562 151.132812 182.335938 149.410156 C 182.335938 149.410156 185.074219 147.636719 188.113281 146.980469 C 188.113281 146.980469 185.277344 146.828125 182.183594 145.507812 C 182.183594 145.507812 178.132812 144.800781 174.734375 146.421875 C 174.734375 146.421875 172.910156 147.078125 171.238281 147.28125 C 171.289062 147.179688 171.339844 147.027344 171.390625 146.929688 C 174.28125 145.558594 177.117188 143.988281 179.753906 142.265625 C 180.207031 142.621094 181.222656 143.226562 182.996094 143.480469 C 182.996094 143.480469 189.785156 144.191406 192.21875 142.0625 C 192.21875 142.0625 194.652344 139.882812 197.539062 138.71875 C 197.539062 138.71875 194.703125 139.023438 191.460938 138.210938 C 191.460938 138.210938 187.355469 138.160156 184.261719 140.339844 C 184.261719 140.339844 182.539062 141.300781 180.867188 141.757812 C 180.867188 141.605469 180.96875 141.453125 181.019531 141.351562 C 183.65625 139.527344 186.1875 137.601562 188.570312 135.425781 C 189.078125 135.675781 190.191406 136.132812 191.964844 136.082031 C 191.964844 136.082031 198.808594 135.675781 200.835938 133.195312 C 200.835938 133.195312 202.863281 130.660156 205.546875 129.039062 C 205.546875 129.039062 202.8125 129.800781 199.464844 129.546875 C 199.464844 129.546875 195.414062 130.152344 192.726562 132.789062 C 192.726562 132.789062 191.15625 134.003906 189.636719 134.714844 C 189.636719 134.613281 189.636719 134.460938 189.6875 134.308594 C 192.015625 132.078125 194.144531 129.699219 196.121094 127.164062 C 196.628906 127.316406 197.84375 127.621094 199.617188 127.316406 C 199.617188 127.316406 206.308594 125.847656 207.878906 123.058594 C 207.878906 123.058594 209.449219 120.222656 211.882812 118.195312 C 211.882812 118.195312 209.296875 119.410156 205.953125 119.664062 C 205.953125 119.664062 202.050781 120.929688 199.820312 123.972656 C 199.820312 123.972656 198.453125 125.441406 197.085938 126.402344 C 197.085938 126.25 197.085938 126.097656 197.085938 125.996094 C 199.011719 123.464844 200.734375 120.726562 202.304688 117.941406 C 202.863281 118.042969 204.078125 118.144531 205.75 117.484375 C 205.75 117.484375 212.085938 114.949219 213.199219 111.910156 C 213.199219 111.910156 214.316406 108.867188 216.34375 106.488281 C 216.34375 106.488281 213.960938 108.058594 210.765625 108.917969 C 210.765625 108.917969 207.117188 110.792969 205.394531 114.140625 C 205.394531 114.140625 204.28125 115.761719 203.0625 116.976562 C 203.0625 116.824219 203.0625 116.671875 203.015625 116.519531 C 204.484375 113.683594 205.851562 110.792969 206.914062 107.753906 C 207.472656 107.753906 208.640625 107.601562 210.210938 106.742188 C 210.210938 106.742188 216.089844 103.191406 216.695312 100.050781 C 216.695312 100.050781 217.304688 96.859375 218.925781 94.171875 C 218.925781 94.171875 216.847656 96.148438 213.808594 97.464844 C 213.808594 97.464844 210.515625 99.898438 209.398438 103.496094 Z M 209.5 103.648438 " fill-opacity="1" fill-rule="nonzero"/><path fill="#af8b45" d="M 40.746094 103.648438 C 40.746094 103.648438 41.554688 105.472656 42.570312 106.792969 C 42.570312 106.691406 42.621094 106.539062 42.671875 106.4375 C 41.65625 103.394531 40.898438 100.253906 40.289062 97.0625 C 39.730469 96.960938 38.566406 96.65625 37.148438 95.539062 C 37.148438 95.539062 31.925781 91.082031 31.824219 87.886719 C 31.824219 87.886719 31.773438 84.644531 30.558594 81.707031 C 30.558594 81.707031 32.28125 83.988281 35.070312 85.761719 C 35.070312 85.761719 37.957031 88.699219 38.464844 92.449219 C 38.464844 92.449219 38.972656 94.375 39.78125 95.894531 C 39.832031 95.792969 39.882812 95.691406 39.933594 95.589844 C 39.425781 92.449219 39.171875 89.257812 39.121094 85.960938 C 38.617188 85.8125 37.5 85.304688 36.285156 83.988281 C 36.285156 83.988281 31.875 78.765625 32.28125 75.574219 C 32.28125 75.574219 32.738281 72.332031 32.027344 69.289062 C 32.027344 69.289062 33.347656 71.824219 35.828125 74.054688 C 35.828125 74.054688 38.160156 77.449219 38.109375 81.199219 C 38.109375 81.199219 38.3125 83.175781 38.820312 84.796875 C 38.921875 84.695312 38.972656 84.542969 39.074219 84.441406 C 39.074219 83.125 39.074219 81.859375 39.074219 80.539062 C 39.171875 78.613281 39.425781 76.738281 39.679688 74.863281 C 39.171875 74.609375 38.210938 73.953125 37.246094 72.433594 C 37.246094 72.433594 33.75 66.554688 34.664062 63.511719 C 34.664062 63.511719 35.625 60.421875 35.472656 57.28125 C 35.472656 57.28125 36.386719 59.964844 38.464844 62.601562 C 38.464844 62.601562 40.238281 66.300781 39.527344 70 C 39.527344 70 39.425781 71.976562 39.679688 73.648438 C 39.78125 73.546875 39.882812 73.445312 39.984375 73.394531 C 40.542969 70.203125 41.300781 67.058594 42.265625 64.019531 C 41.808594 63.664062 40.949219 62.855469 40.238281 61.230469 C 40.238281 61.230469 37.703125 54.847656 39.121094 52.007812 C 39.121094 52.007812 40.59375 49.121094 40.898438 45.976562 C 40.898438 45.976562 41.351562 48.816406 42.972656 51.703125 C 42.972656 51.703125 44.140625 55.65625 42.824219 59.207031 C 42.824219 59.207031 42.367188 61.132812 42.367188 62.855469 C 42.46875 62.804688 42.621094 62.703125 42.722656 62.601562 C 43.785156 59.558594 45 56.621094 46.472656 53.78125 C 46.117188 53.429688 45.304688 52.414062 44.898438 50.640625 C 44.898438 50.640625 43.429688 43.953125 45.304688 41.367188 C 45.304688 41.367188 47.230469 38.730469 48.042969 35.691406 C 48.042969 35.691406 48.042969 38.527344 49.15625 41.671875 C 49.15625 41.671875 49.664062 45.777344 47.839844 49.019531 C 47.839844 49.019531 47.078125 50.792969 46.824219 52.464844 C 46.976562 52.414062 47.128906 52.363281 47.28125 52.261719 C 48.800781 49.476562 50.476562 46.789062 52.351562 44.253906 C 52.046875 43.851562 51.4375 42.734375 51.285156 40.910156 C 51.285156 40.910156 50.929688 34.070312 53.210938 31.789062 C 53.210938 31.789062 55.542969 29.507812 56.808594 26.671875 C 56.808594 26.671875 56.351562 29.507812 56.960938 32.75 C 56.960938 32.75 56.808594 36.855469 54.425781 39.796875 C 54.425781 39.796875 53.414062 41.46875 52.855469 43.089844 C 53.007812 43.089844 53.160156 42.988281 53.3125 42.9375 C 55.238281 40.402344 57.367188 38.023438 59.648438 35.792969 C 59.445312 35.335938 58.988281 34.171875 59.140625 32.296875 C 59.140625 32.296875 59.902344 25.503906 62.484375 23.628906 C 62.484375 23.628906 65.121094 21.753906 66.894531 19.171875 C 66.894531 19.171875 65.980469 21.855469 66.082031 25.199219 C 66.082031 25.199219 65.273438 29.253906 62.484375 31.738281 C 62.484375 31.738281 61.167969 33.257812 60.40625 34.726562 C 60.558594 34.726562 60.710938 34.726562 60.8125 34.675781 C 63.144531 32.5 65.628906 30.421875 68.261719 28.597656 C 68.109375 28.039062 67.90625 26.871094 68.363281 25.148438 C 68.363281 25.148438 70.1875 18.5625 73.078125 17.144531 C 73.078125 17.144531 76.015625 15.722656 78.144531 13.445312 C 78.144531 13.445312 76.828125 15.976562 76.371094 19.269531 C 76.371094 19.269531 74.902344 23.121094 71.757812 25.148438 C 71.757812 25.148438 70.238281 26.417969 69.226562 27.785156 C 69.378906 27.785156 69.480469 27.785156 69.628906 27.785156 C 71.859375 26.265625 74.242188 24.847656 76.675781 23.628906 C 77.082031 22.972656 77.789062 22.109375 78.957031 21.195312 C 78.957031 21.195312 85.847656 16.179688 89.648438 16.992188 C 89.648438 16.992188 95.984375 17.699219 96.996094 17.597656 C 96.996094 17.597656 93.855469 18.96875 90.914062 21.703125 C 90.914062 21.703125 87.164062 24.898438 82.65625 24.390625 C 82.65625 24.390625 78.550781 23.832031 76.472656 24.644531 C 74.648438 25.605469 72.875 26.671875 71.152344 27.785156 C 72.773438 27.683594 74.34375 27.328125 74.34375 27.328125 C 77.992188 26.214844 81.539062 27.734375 81.539062 27.734375 C 84.582031 29.507812 87.519531 30.117188 87.519531 30.117188 C 83.921875 30.472656 81.234375 31.738281 81.234375 31.738281 C 78.246094 33.054688 73.128906 30.015625 73.128906 30.015625 C 72.113281 29.558594 70.746094 29.101562 69.730469 28.75 C 67.199219 30.523438 64.765625 32.449219 62.484375 34.523438 C 64.054688 34.171875 65.527344 33.613281 65.527344 33.613281 C 68.972656 31.890625 72.671875 32.851562 72.671875 32.851562 C 75.964844 34.121094 78.957031 34.222656 78.957031 34.222656 C 75.457031 35.132812 73.027344 36.855469 73.027344 36.855469 C 70.289062 38.628906 64.765625 36.449219 64.765625 36.449219 C 63.703125 36.148438 62.28125 35.945312 61.21875 35.742188 C 58.988281 37.871094 56.910156 40.199219 54.984375 42.582031 C 56.453125 41.976562 57.824219 41.164062 57.824219 41.164062 C 60.914062 38.933594 64.765625 39.238281 64.765625 39.238281 C 68.210938 39.949219 71.203125 39.542969 71.203125 39.542969 C 67.90625 41.011719 65.78125 43.089844 65.78125 43.089844 C 63.398438 45.269531 57.519531 44.003906 57.519531 44.003906 C 56.453125 43.902344 55.035156 43.902344 53.921875 43.902344 C 52.046875 46.382812 50.324219 48.96875 48.800781 51.652344 C 50.171875 50.792969 51.386719 49.828125 51.386719 49.828125 C 54.074219 47.09375 57.925781 46.789062 57.925781 46.789062 C 61.421875 46.941406 64.308594 46.078125 64.308594 46.078125 C 61.320312 48.054688 59.546875 50.488281 59.546875 50.488281 C 57.519531 53.023438 51.589844 52.71875 51.589844 52.71875 C 50.527344 52.769531 49.105469 53.023438 48.042969 53.175781 C 46.574219 55.910156 45.304688 58.75 44.191406 61.6875 C 45.40625 60.625 46.472656 59.40625 46.472656 59.40625 C 48.699219 56.265625 52.449219 55.355469 52.449219 55.355469 C 55.949219 54.898438 58.632812 53.628906 58.632812 53.628906 C 56 56.0625 54.628906 58.75 54.628906 58.75 C 53.058594 61.585938 47.128906 62.246094 47.128906 62.246094 C 46.066406 62.5 44.699219 62.957031 43.683594 63.257812 C 42.671875 66.199219 41.910156 69.238281 41.300781 72.332031 C 42.367188 71.0625 43.226562 69.695312 43.226562 69.695312 C 44.898438 66.25 48.449219 64.730469 48.449219 64.730469 C 51.84375 63.714844 54.277344 61.992188 54.277344 61.992188 C 52.046875 64.832031 51.132812 67.667969 51.132812 67.667969 C 50.019531 70.707031 44.292969 72.332031 44.292969 72.332031 C 43.277344 72.734375 41.960938 73.445312 41 73.953125 C 40.644531 76.132812 40.339844 78.359375 40.1875 80.589844 C 40.136719 81.453125 40.1875 82.3125 40.1875 83.226562 C 41 81.808594 41.605469 80.335938 41.605469 80.335938 C 42.722656 76.6875 45.964844 74.609375 45.964844 74.609375 C 49.15625 73.089844 51.285156 70.960938 51.285156 70.960938 C 49.5625 74.105469 49.105469 77.09375 49.105469 77.09375 C 48.5 80.285156 43.125 82.820312 43.125 82.820312 C 42.214844 83.378906 41.046875 84.289062 40.1875 84.898438 C 40.1875 88.089844 40.339844 91.285156 40.796875 94.375 C 41.402344 92.804688 41.808594 91.132812 41.808594 91.132812 C 42.316406 87.332031 45.152344 84.746094 45.152344 84.746094 C 48.042969 82.71875 49.816406 80.285156 49.816406 80.285156 C 48.601562 83.683594 48.648438 86.671875 48.648438 86.671875 C 48.601562 89.914062 43.683594 93.3125 43.683594 93.3125 C 42.875 94.019531 41.859375 95.136719 41.097656 95.894531 C 41.605469 98.988281 42.367188 102.027344 43.277344 104.96875 C 43.582031 103.34375 43.734375 101.773438 43.734375 101.773438 C 43.632812 97.921875 46.015625 94.933594 46.015625 94.933594 C 48.550781 92.449219 49.867188 89.8125 49.867188 89.8125 C 49.257812 93.363281 49.765625 96.300781 49.765625 96.300781 C 50.222656 99.492188 45.914062 103.648438 45.914062 103.648438 C 45.203125 104.511719 44.394531 105.726562 43.734375 106.640625 C 44.75 109.578125 45.964844 112.417969 47.382812 115.203125 C 47.433594 113.582031 47.28125 112.011719 47.28125 112.011719 C 46.574219 108.261719 48.449219 104.917969 48.449219 104.917969 C 50.527344 102.078125 51.4375 99.242188 51.4375 99.242188 C 51.4375 102.839844 52.402344 105.675781 52.402344 105.675781 C 53.363281 108.769531 49.816406 113.53125 49.816406 113.53125 C 49.257812 114.445312 48.699219 115.761719 48.195312 116.722656 C 49.664062 119.511719 51.285156 122.195312 53.109375 124.730469 C 52.90625 123.109375 52.5 121.488281 52.5 121.488281 C 51.183594 117.890625 52.5 114.292969 52.5 114.292969 C 54.125 111.148438 54.527344 108.210938 54.527344 108.210938 C 55.085938 111.757812 56.503906 114.394531 56.503906 114.394531 C 57.976562 117.28125 55.1875 122.601562 55.1875 122.601562 C 54.78125 123.617188 54.425781 125.035156 54.125 126.046875 C 56 128.53125 58.078125 130.863281 60.253906 133.042969 C 59.800781 131.523438 59.140625 130.050781 59.140625 130.050781 C 57.265625 126.707031 57.976562 122.957031 57.976562 122.957031 C 59.039062 119.613281 58.988281 116.621094 58.988281 116.621094 C 60.101562 120.070312 61.929688 122.398438 61.929688 122.398438 C 63.855469 125.035156 61.929688 130.710938 61.929688 130.710938 C 61.675781 131.773438 61.574219 133.246094 61.421875 134.359375 C 63.652344 136.488281 66.082031 138.414062 68.617188 140.1875 C 67.90625 138.71875 67.046875 137.402344 67.046875 137.402344 C 64.613281 134.410156 64.714844 130.558594 64.714844 130.558594 C 65.222656 127.0625 64.714844 124.121094 64.714844 124.121094 C 66.335938 127.316406 68.566406 129.34375 68.566406 129.34375 C 70.898438 131.625 69.933594 137.5 69.933594 137.5 C 69.882812 138.566406 69.984375 140.035156 69.984375 141.101562 C 72.570312 142.875 75.257812 144.496094 78.09375 145.863281 C 77.132812 144.496094 76.066406 143.277344 76.066406 143.277344 C 73.230469 140.746094 72.671875 136.945312 72.671875 136.945312 C 72.621094 133.449219 71.605469 130.609375 71.605469 130.609375 C 73.734375 133.5 76.269531 135.121094 76.269531 135.121094 C 78.90625 136.996094 78.957031 142.976562 78.957031 142.976562 C 79.058594 144.039062 79.410156 145.457031 79.613281 146.523438 C 82.453125 147.839844 85.339844 148.953125 88.332031 149.816406 C 87.164062 148.652344 85.898438 147.636719 85.898438 147.636719 C 82.65625 145.558594 81.539062 141.910156 81.539062 141.910156 C 80.933594 138.464844 79.460938 135.828125 79.460938 135.828125 C 82.046875 138.363281 84.785156 139.527344 84.785156 139.527344 C 87.671875 140.949219 88.683594 146.828125 88.683594 146.828125 C 88.988281 147.890625 89.597656 149.308594 89.953125 150.324219 C 92.890625 151.132812 95.984375 151.691406 99.074219 152.097656 C 97.757812 151.132812 96.335938 150.375 96.335938 150.375 C 92.789062 148.855469 91.117188 145.40625 91.117188 145.40625 C 89.953125 142.113281 88.078125 139.730469 88.078125 139.730469 C 91.015625 141.808594 93.957031 142.519531 93.957031 142.519531 C 97.046875 143.429688 99.023438 149.105469 99.023438 149.105469 C 99.480469 150.070312 100.238281 151.335938 100.796875 152.25 C 101.355469 152.300781 102.015625 153.160156 101.8125 153.160156 C 101.609375 153.667969 101 154.730469 99.53125 155.746094 C 99.53125 155.746094 93.855469 159.597656 90.761719 158.835938 C 90.761719 158.835938 87.621094 158.027344 84.480469 158.382812 C 84.480469 158.382812 87.113281 157.316406 89.597656 155.085938 C 89.597656 155.085938 93.195312 153.109375 96.945312 153.617188 C 96.945312 153.617188 98.921875 153.617188 100.59375 153.261719 C 100.492188 153.160156 100.390625 153.058594 100.289062 152.957031 C 97.046875 152.605469 93.90625 152.046875 90.8125 151.285156 C 90.511719 151.742188 89.75 152.65625 88.128906 153.464844 C 88.128906 153.464844 81.894531 156.355469 78.957031 155.085938 C 78.957031 155.085938 75.964844 153.769531 72.824219 153.617188 C 72.824219 153.617188 75.609375 153.007812 78.398438 151.234375 C 78.398438 151.234375 82.300781 149.867188 85.898438 150.929688 C 85.898438 150.929688 87.875 151.285156 89.546875 151.183594 C 89.496094 151.082031 89.394531 151.03125 89.34375 150.929688 C 86.203125 150.070312 83.210938 148.902344 80.273438 147.585938 C 79.917969 147.992188 79.007812 148.804688 77.234375 149.308594 C 77.234375 149.308594 70.644531 151.132812 67.90625 149.410156 C 67.90625 149.410156 65.171875 147.636719 62.128906 146.980469 C 62.128906 146.980469 64.96875 146.828125 68.058594 145.507812 C 68.058594 145.507812 72.113281 144.800781 75.507812 146.421875 C 75.507812 146.421875 77.332031 147.078125 79.007812 147.28125 C 78.957031 147.179688 78.90625 147.027344 78.855469 146.929688 C 75.964844 145.558594 73.128906 143.988281 70.492188 142.265625 C 70.035156 142.621094 69.023438 143.226562 67.25 143.480469 C 67.25 143.480469 60.457031 144.191406 58.027344 142.0625 C 58.027344 142.0625 55.59375 139.882812 52.703125 138.71875 C 52.703125 138.71875 55.542969 139.023438 58.785156 138.210938 C 58.785156 138.210938 62.890625 138.160156 65.980469 140.339844 C 65.980469 140.339844 67.703125 141.300781 69.378906 141.757812 C 69.378906 141.605469 69.277344 141.453125 69.226562 141.351562 C 66.589844 139.527344 64.054688 137.601562 61.675781 135.425781 C 61.167969 135.675781 60.054688 136.132812 58.277344 136.082031 C 58.277344 136.082031 51.4375 135.675781 49.410156 133.195312 C 49.410156 133.195312 47.382812 130.660156 44.699219 129.039062 C 44.699219 129.039062 47.433594 129.800781 50.777344 129.546875 C 50.777344 129.546875 54.832031 130.152344 57.519531 132.789062 C 57.519531 132.789062 59.089844 134.003906 60.609375 134.714844 C 60.609375 134.613281 60.609375 134.460938 60.558594 134.308594 C 58.226562 132.078125 56.101562 129.699219 54.125 127.164062 C 53.617188 127.316406 52.402344 127.621094 50.625 127.316406 C 50.625 127.316406 43.9375 125.847656 42.367188 123.058594 C 42.367188 123.058594 40.796875 120.222656 38.363281 118.195312 C 38.363281 118.195312 40.949219 119.410156 44.292969 119.664062 C 44.292969 119.664062 48.195312 120.929688 50.425781 123.972656 C 50.425781 123.972656 51.792969 125.441406 53.160156 126.402344 C 53.160156 126.25 53.160156 126.097656 53.160156 125.996094 C 51.234375 123.464844 49.511719 120.726562 47.941406 117.941406 C 47.382812 118.042969 46.167969 118.144531 44.496094 117.484375 C 44.496094 117.484375 38.160156 114.949219 37.046875 111.910156 C 37.046875 111.910156 35.929688 108.867188 33.902344 106.488281 C 33.902344 106.488281 36.285156 108.058594 39.476562 108.917969 C 39.476562 108.917969 43.125 110.792969 44.847656 114.140625 C 44.847656 114.140625 45.964844 115.761719 47.179688 116.976562 C 47.179688 116.824219 47.179688 116.671875 47.230469 116.519531 C 45.761719 113.683594 44.394531 110.792969 43.328125 107.753906 C 42.773438 107.753906 41.605469 107.601562 40.035156 106.742188 C 40.035156 106.742188 34.15625 103.191406 33.546875 100.050781 C 33.546875 100.050781 32.941406 96.859375 31.320312 94.171875 C 31.320312 94.171875 33.394531 96.148438 36.4375 97.464844 C 36.4375 97.464844 39.730469 99.898438 40.847656 103.496094 Z M 40.746094 103.648438 " fill-opacity="1" fill-rule="nonzero"/><g clip-path="url(#1736b854e5)"><path fill="#9c502c" d="M 125.121094 0.316406 L 127.300781 6.5 L 133.839844 6.652344 L 128.621094 10.605469 L 130.496094 16.890625 L 125.121094 13.140625 L 119.75 16.890625 L 121.625 10.605469 L 116.40625 6.652344 L 122.945312 6.5 Z M 125.121094 0.316406 " fill-opacity="1" fill-rule="nonzero"/></g><path fill="#9c502c" d="M 142.65625 6.90625 L 144.277344 11.570312 L 149.195312 11.667969 L 145.292969 14.660156 L 146.710938 19.371094 L 142.65625 16.535156 L 138.601562 19.371094 L 140.023438 14.660156 L 136.121094 11.667969 L 141.035156 11.570312 Z M 142.65625 6.90625 " fill-opacity="1" fill-rule="nonzero"/><path fill="#9c502c" d="M 107.589844 6.90625 L 105.964844 11.570312 L 101.050781 11.667969 L 104.953125 14.660156 L 103.535156 19.371094 L 107.589844 16.535156 L 111.640625 19.371094 L 110.222656 14.660156 L 114.125 11.667969 L 109.210938 11.570312 Z M 107.589844 6.90625 " fill-opacity="1" fill-rule="nonzero"/></svg>