<svg xmlns="http://www.w3.org/2000/svg" xmlns:xlink="http://www.w3.org/1999/xlink" width="670" zoomAndPan="magnify" viewBox="0 0 502.5 186.749996" height="249" preserveAspectRatio="xMidYMid meet" version="1.0"><defs><clipPath id="681662e84f"><path d="M 165 129 L 336 129 L 336 185.75 L 165 185.75 Z M 165 129 " clip-rule="nonzero"/></clipPath><clipPath id="011abce708"><path d="M 0.0859375 0 L 501 0 L 501 173 L 0.0859375 173 Z M 0.0859375 0 " clip-rule="nonzero"/></clipPath></defs><path fill="#d4e1ff" d="M 477.414062 92.847656 C 477.414062 94.6875 477.324219 96.519531 477.144531 98.347656 C 476.964844 100.179688 476.695312 101.996094 476.335938 103.796875 C 475.976562 105.601562 475.53125 107.382812 474.996094 109.140625 C 474.460938 110.898438 473.84375 112.628906 473.136719 114.328125 C 472.433594 116.023438 471.648438 117.683594 470.777344 119.304688 C 469.910156 120.925781 468.964844 122.5 467.941406 124.03125 C 466.921875 125.558594 465.824219 127.03125 464.65625 128.453125 C 463.488281 129.875 462.253906 131.234375 460.953125 132.535156 C 459.652344 133.835938 458.289062 135.066406 456.867188 136.234375 C 455.441406 137.398438 453.964844 138.492188 452.433594 139.515625 C 450.90625 140.535156 449.328125 141.480469 447.703125 142.347656 C 446.082031 143.214844 444.417969 144 442.71875 144.703125 C 441.015625 145.40625 439.285156 146.023438 437.523438 146.558594 C 435.761719 147.089844 433.980469 147.535156 432.171875 147.894531 C 430.367188 148.253906 428.550781 148.523438 426.71875 148.703125 C 424.886719 148.882812 423.046875 148.972656 421.207031 148.972656 C 419.367188 148.972656 417.53125 148.882812 415.699219 148.703125 C 413.867188 148.523438 412.046875 148.253906 410.242188 147.894531 C 408.4375 147.535156 406.652344 147.089844 404.890625 146.558594 C 403.128906 146.023438 401.398438 145.40625 399.699219 144.703125 C 397.996094 144 396.335938 143.214844 394.710938 142.347656 C 393.085938 141.480469 391.511719 140.535156 389.980469 139.515625 C 388.449219 138.492188 386.972656 137.398438 385.550781 136.234375 C 384.125 135.066406 382.765625 133.835938 381.460938 132.535156 C 380.160156 131.234375 378.925781 129.875 377.757812 128.453125 C 376.589844 127.03125 375.496094 125.558594 374.472656 124.03125 C 373.449219 122.5 372.503906 120.925781 371.636719 119.304688 C 370.769531 117.683594 369.980469 116.023438 369.277344 114.328125 C 368.574219 112.628906 367.953125 110.898438 367.417969 109.140625 C 366.886719 107.382812 366.4375 105.601562 366.078125 103.796875 C 365.71875 101.996094 365.449219 100.179688 365.269531 98.347656 C 365.089844 96.519531 365 94.6875 365 92.847656 C 365 91.011719 365.089844 89.175781 365.269531 87.347656 C 365.449219 85.515625 365.71875 83.703125 366.078125 81.898438 C 366.4375 80.09375 366.886719 78.316406 367.417969 76.554688 C 367.953125 74.796875 368.574219 73.066406 369.277344 71.371094 C 369.980469 69.671875 370.769531 68.011719 371.636719 66.390625 C 372.503906 64.769531 373.449219 63.195312 374.472656 61.664062 C 375.496094 60.136719 376.589844 58.664062 377.757812 57.242188 C 378.925781 55.820312 380.160156 54.460938 381.460938 53.160156 C 382.765625 51.859375 384.125 50.628906 385.550781 49.460938 C 386.972656 48.296875 388.449219 47.203125 389.980469 46.179688 C 391.511719 45.160156 393.085938 44.214844 394.710938 43.347656 C 396.335938 42.484375 397.996094 41.699219 399.699219 40.996094 C 401.398438 40.289062 403.128906 39.671875 404.890625 39.140625 C 406.652344 38.605469 408.4375 38.160156 410.242188 37.800781 C 412.046875 37.441406 413.867188 37.171875 415.699219 36.992188 C 417.53125 36.8125 419.367188 36.722656 421.207031 36.722656 C 423.046875 36.722656 424.886719 36.8125 426.71875 36.992188 C 428.550781 37.171875 430.367188 37.441406 432.171875 37.800781 C 433.980469 38.160156 435.761719 38.605469 437.523438 39.140625 C 439.285156 39.671875 441.015625 40.289062 442.71875 40.996094 C 444.417969 41.699219 446.082031 42.484375 447.703125 43.347656 C 449.328125 44.214844 450.90625 45.160156 452.433594 46.179688 C 453.964844 47.203125 455.441406 48.296875 456.867188 49.460938 C 458.289062 50.628906 459.652344 51.859375 460.953125 53.160156 C 462.253906 54.460938 463.488281 55.820312 464.65625 57.242188 C 465.824219 58.664062 466.921875 60.136719 467.941406 61.664062 C 468.964844 63.195312 469.910156 64.769531 470.777344 66.390625 C 471.648438 68.011719 472.433594 69.671875 473.136719 71.371094 C 473.84375 73.066406 474.460938 74.796875 474.996094 76.554688 C 475.53125 78.316406 475.976562 80.09375 476.335938 81.898438 C 476.695312 83.703125 476.964844 85.515625 477.144531 87.347656 C 477.324219 89.175781 477.414062 91.011719 477.414062 92.847656 Z M 477.414062 92.847656 " fill-opacity="1" fill-rule="nonzero"/><g clip-path="url(#681662e84f)"><path fill="#231d93" d="M 250.613281 185.753906 C 232.496094 185.753906 214.9375 180.550781 199.828125 170.707031 C 185.109375 161.121094 173.445312 147.652344 166.09375 131.761719 C 165.792969 131.117188 166.078125 130.351562 166.722656 130.050781 C 167.371094 129.753906 168.136719 130.035156 168.4375 130.679688 C 183.1875 162.570312 215.445312 183.175781 250.613281 183.175781 C 285.78125 183.175781 318.035156 162.570312 332.777344 130.679688 C 333.078125 130.035156 333.84375 129.75 334.492188 130.050781 C 335.140625 130.347656 335.421875 131.113281 335.121094 131.761719 C 327.773438 147.652344 316.113281 161.117188 301.394531 170.707031 C 286.289062 180.550781 268.730469 185.753906 250.613281 185.753906 Z M 250.613281 185.753906 " fill-opacity="1" fill-rule="nonzero"/></g><path fill="#231d93" d="M 491.425781 56.992188 C 490.964844 56.992188 490.519531 56.746094 490.289062 56.3125 C 476.761719 31.175781 450.621094 15.5625 422.066406 15.5625 C 393.511719 15.5625 367.375 31.175781 353.847656 56.3125 C 353.511719 56.941406 352.726562 57.175781 352.101562 56.839844 C 351.472656 56.5 351.238281 55.71875 351.574219 55.09375 C 358.304688 42.582031 368.289062 32.050781 380.441406 24.640625 C 392.949219 17.015625 407.339844 12.984375 422.066406 12.984375 C 436.796875 12.984375 451.1875 17.015625 463.695312 24.640625 C 475.847656 32.050781 485.832031 42.582031 492.5625 55.09375 C 492.898438 55.71875 492.664062 56.503906 492.035156 56.839844 C 491.84375 56.941406 491.632812 56.992188 491.425781 56.992188 Z M 491.425781 56.992188 " fill-opacity="1" fill-rule="nonzero"/><g clip-path="url(#011abce708)"><path fill="#231d93" d="M 77.1875 172.648438 C 76.472656 172.621094 75.917969 172.023438 75.945312 171.3125 C 75.976562 170.597656 76.574219 170.046875 77.289062 170.074219 C 78 170.101562 78.554688 170.703125 78.527344 171.414062 C 78.5 172.105469 77.925781 172.652344 77.238281 172.652344 C 77.21875 172.652344 77.203125 172.652344 77.1875 172.648438 Z M 423.328125 171.40625 C 423.296875 170.695312 423.851562 170.09375 424.5625 170.066406 C 425.273438 170.035156 425.875 170.585938 425.90625 171.296875 C 425.9375 172.007812 425.382812 172.609375 424.671875 172.640625 C 424.652344 172.640625 424.632812 172.640625 424.617188 172.640625 C 423.929688 172.640625 423.355469 172.101562 423.328125 171.40625 Z M 415.933594 172.542969 C 415.222656 172.496094 414.683594 171.882812 414.730469 171.171875 C 414.777344 170.460938 415.390625 169.925781 416.101562 169.96875 C 416.8125 170.015625 417.351562 170.628906 417.304688 171.339844 C 417.261719 172.023438 416.691406 172.546875 416.019531 172.546875 C 415.992188 172.546875 415.960938 172.542969 415.933594 172.542969 Z M 84.546875 171.328125 C 84.5 170.617188 85.035156 170.003906 85.746094 169.953125 C 86.457031 169.90625 87.074219 170.441406 87.121094 171.152344 C 87.171875 171.863281 86.636719 172.476562 85.921875 172.527344 C 85.894531 172.527344 85.863281 172.53125 85.835938 172.53125 C 85.164062 172.53125 84.59375 172.007812 84.546875 171.328125 Z M 68.484375 171.832031 C 67.78125 171.726562 67.292969 171.070312 67.398438 170.367188 C 67.503906 169.664062 68.160156 169.179688 68.867188 169.28125 C 69.570312 169.390625 70.058594 170.046875 69.953125 170.746094 C 69.855469 171.386719 69.304688 171.847656 68.679688 171.847656 C 68.613281 171.847656 68.550781 171.84375 68.484375 171.832031 Z M 431.898438 170.714844 C 431.792969 170.011719 432.273438 169.355469 432.980469 169.246094 C 433.683594 169.140625 434.34375 169.625 434.449219 170.328125 C 434.558594 171.03125 434.074219 171.6875 433.371094 171.796875 C 433.304688 171.804688 433.238281 171.8125 433.175781 171.8125 C 432.546875 171.808594 431.996094 171.355469 431.898438 170.714844 Z M 407.257812 171.503906 C 406.554688 171.378906 406.085938 170.710938 406.207031 170.011719 C 406.332031 169.308594 407.003906 168.839844 407.703125 168.964844 C 408.40625 169.085938 408.875 169.753906 408.753906 170.457031 C 408.640625 171.082031 408.097656 171.523438 407.480469 171.523438 C 407.40625 171.523438 407.332031 171.515625 407.257812 171.503906 Z M 93.097656 170.417969 C 92.972656 169.71875 93.441406 169.046875 94.140625 168.921875 C 94.84375 168.796875 95.515625 169.261719 95.640625 169.964844 C 95.765625 170.664062 95.300781 171.332031 94.597656 171.460938 C 94.519531 171.472656 94.445312 171.480469 94.367188 171.480469 C 93.753906 171.480469 93.210938 171.042969 93.097656 170.417969 Z M 59.925781 170.070312 C 59.234375 169.890625 58.824219 169.183594 59.003906 168.496094 C 59.1875 167.808594 59.894531 167.398438 60.582031 167.578125 C 61.273438 167.761719 61.683594 168.464844 61.503906 169.152344 C 61.347656 169.734375 60.828125 170.113281 60.253906 170.113281 C 60.144531 170.113281 60.035156 170.101562 59.925781 170.070312 Z M 440.34375 169.09375 C 440.160156 168.40625 440.570312 167.699219 441.257812 167.515625 C 441.949219 167.332031 442.65625 167.742188 442.839844 168.429688 C 443.023438 169.117188 442.613281 169.824219 441.925781 170.007812 C 441.8125 170.039062 441.699219 170.050781 441.59375 170.050781 C 441.019531 170.050781 440.5 169.671875 440.34375 169.09375 Z M 398.742188 169.519531 C 398.058594 169.320312 397.667969 168.605469 397.867188 167.921875 C 398.066406 167.238281 398.785156 166.84375 399.46875 167.046875 C 400.152344 167.246094 400.546875 167.960938 400.34375 168.644531 C 400.179688 169.207031 399.664062 169.570312 399.105469 169.570312 C 398.984375 169.570312 398.863281 169.554688 398.742188 169.519531 Z M 101.5 168.578125 C 101.296875 167.898438 101.6875 167.179688 102.371094 166.980469 C 103.054688 166.777344 103.773438 167.167969 103.976562 167.847656 C 104.175781 168.53125 103.789062 169.25 103.101562 169.449219 C 102.980469 169.484375 102.859375 169.503906 102.738281 169.503906 C 102.179688 169.503906 101.667969 169.140625 101.5 168.578125 Z M 51.609375 167.382812 C 50.945312 167.125 50.613281 166.378906 50.867188 165.714844 C 51.125 165.050781 51.871094 164.71875 52.539062 164.976562 C 53.203125 165.234375 53.535156 165.980469 53.277344 166.640625 C 53.078125 167.15625 52.589844 167.46875 52.070312 167.46875 C 51.917969 167.46875 51.761719 167.441406 51.609375 167.382812 Z M 448.5625 166.558594 C 448.304688 165.894531 448.632812 165.148438 449.296875 164.890625 C 449.960938 164.628906 450.710938 164.957031 450.96875 165.621094 C 451.230469 166.285156 450.902344 167.03125 450.234375 167.289062 C 450.082031 167.351562 449.921875 167.378906 449.765625 167.378906 C 449.25 167.378906 448.761719 167.066406 448.5625 166.558594 Z M 390.5 166.613281 C 389.84375 166.339844 389.53125 165.589844 389.804688 164.929688 C 390.078125 164.273438 390.832031 163.960938 391.492188 164.234375 C 392.148438 164.507812 392.460938 165.261719 392.1875 165.921875 C 391.980469 166.414062 391.503906 166.714844 390.996094 166.714844 C 390.832031 166.714844 390.660156 166.683594 390.5 166.613281 Z M 109.652344 165.828125 C 109.375 165.171875 109.683594 164.417969 110.34375 164.140625 C 111 163.867188 111.757812 164.175781 112.03125 164.832031 C 112.308594 165.488281 112 166.242188 111.339844 166.519531 C 111.179688 166.585938 111.007812 166.617188 110.84375 166.617188 C 110.335938 166.617188 109.859375 166.324219 109.652344 165.828125 Z M 43.640625 163.792969 C 43.003906 163.46875 42.757812 162.6875 43.085938 162.058594 C 43.414062 161.425781 44.195312 161.179688 44.828125 161.507812 C 45.457031 161.835938 45.707031 162.613281 45.378906 163.242188 C 45.148438 163.6875 44.699219 163.9375 44.230469 163.9375 C 44.03125 163.9375 43.828125 163.894531 43.640625 163.792969 Z M 456.457031 163.132812 C 456.125 162.5 456.371094 161.722656 457 161.394531 C 457.632812 161.0625 458.414062 161.308594 458.742188 161.9375 C 459.074219 162.570312 458.828125 163.347656 458.195312 163.675781 C 458.007812 163.777344 457.800781 163.824219 457.601562 163.824219 C 457.136719 163.824219 456.683594 163.574219 456.457031 163.132812 Z M 382.628906 162.828125 C 382.003906 162.484375 381.777344 161.699219 382.121094 161.074219 C 382.46875 160.449219 383.253906 160.226562 383.875 160.566406 C 384.5 160.910156 384.726562 161.695312 384.382812 162.320312 C 384.148438 162.746094 383.707031 162.988281 383.253906 162.988281 C 383.042969 162.988281 382.828125 162.9375 382.628906 162.828125 Z M 117.449219 162.203125 C 117.101562 161.578125 117.328125 160.792969 117.949219 160.449219 C 118.574219 160.101562 119.359375 160.328125 119.707031 160.949219 C 120.050781 161.570312 119.828125 162.355469 119.207031 162.703125 C 119.007812 162.8125 118.792969 162.867188 118.578125 162.867188 C 118.125 162.867188 117.683594 162.625 117.449219 162.203125 Z M 36.113281 159.359375 C 35.519531 158.96875 35.359375 158.167969 35.753906 157.574219 C 36.148438 156.980469 36.949219 156.820312 37.542969 157.214844 C 38.136719 157.609375 38.296875 158.410156 37.902344 159.003906 C 37.652344 159.375 37.242188 159.578125 36.824219 159.578125 C 36.582031 159.578125 36.332031 159.507812 36.113281 159.359375 Z M 463.921875 158.867188 C 463.523438 158.273438 463.679688 157.472656 464.273438 157.078125 C 464.867188 156.679688 465.667969 156.835938 466.066406 157.429688 C 466.460938 158.019531 466.304688 158.820312 465.710938 159.21875 C 465.492188 159.363281 465.242188 159.4375 464.996094 159.4375 C 464.578125 159.4375 464.171875 159.238281 463.921875 158.867188 Z M 375.21875 158.199219 C 374.636719 157.789062 374.496094 156.984375 374.90625 156.402344 C 375.316406 155.820312 376.121094 155.683594 376.707031 156.089844 C 377.289062 156.503906 377.429688 157.304688 377.019531 157.886719 C 376.769531 158.246094 376.367188 158.4375 375.960938 158.4375 C 375.703125 158.4375 375.445312 158.359375 375.21875 158.199219 Z M 124.804688 157.742188 C 124.390625 157.164062 124.527344 156.359375 125.109375 155.945312 C 125.691406 155.535156 126.496094 155.671875 126.910156 156.253906 C 127.324219 156.835938 127.183594 157.636719 126.601562 158.050781 C 126.375 158.210938 126.117188 158.289062 125.859375 158.289062 C 125.453125 158.289062 125.054688 158.097656 124.804688 157.742188 Z M 29.113281 154.136719 L 29.113281 154.132812 C 28.566406 153.675781 28.496094 152.863281 28.953125 152.320312 C 29.410156 151.773438 30.222656 151.699219 30.769531 152.15625 C 31.316406 152.613281 31.390625 153.425781 30.933594 153.972656 C 30.675781 154.277344 30.308594 154.433594 29.941406 154.433594 C 29.648438 154.433594 29.355469 154.335938 29.113281 154.136719 Z M 470.875 153.8125 C 470.417969 153.265625 470.488281 152.453125 471.035156 151.996094 C 471.578125 151.535156 472.394531 151.605469 472.851562 152.148438 C 473.3125 152.695312 473.242188 153.507812 472.695312 153.96875 C 472.453125 154.171875 472.160156 154.269531 471.863281 154.269531 C 471.496094 154.269531 471.132812 154.113281 470.875 153.8125 Z M 368.355469 152.796875 L 368.359375 152.796875 C 367.824219 152.324219 367.773438 151.511719 368.242188 150.976562 C 368.714844 150.441406 369.527344 150.390625 370.0625 150.863281 C 370.0625 150.863281 370.0625 150.863281 370.066406 150.863281 C 370.597656 151.332031 370.652344 152.148438 370.179688 152.679688 C 369.925781 152.96875 369.566406 153.117188 369.210938 153.117188 C 368.90625 153.117188 368.601562 153.011719 368.355469 152.796875 Z M 131.625 152.515625 C 131.152344 151.980469 131.203125 151.167969 131.734375 150.695312 C 132.269531 150.222656 133.085938 150.269531 133.558594 150.800781 C 134.03125 151.335938 133.984375 152.148438 133.449219 152.621094 C 133.203125 152.839844 132.898438 152.949219 132.59375 152.949219 C 132.234375 152.949219 131.882812 152.800781 131.625 152.515625 Z M 22.722656 148.179688 C 22.230469 147.664062 22.246094 146.847656 22.761719 146.355469 C 23.273438 145.863281 24.09375 145.878906 24.585938 146.394531 C 25.078125 146.90625 25.0625 147.722656 24.550781 148.214844 C 24.300781 148.453125 23.976562 148.574219 23.65625 148.574219 C 23.316406 148.574219 22.976562 148.441406 22.722656 148.179688 Z M 477.242188 148.03125 C 476.722656 147.542969 476.707031 146.726562 477.199219 146.210938 C 477.691406 145.695312 478.507812 145.675781 479.023438 146.167969 C 479.539062 146.660156 479.558594 147.476562 479.066406 147.992188 C 478.8125 148.257812 478.472656 148.390625 478.132812 148.390625 C 477.8125 148.390625 477.492188 148.273438 477.242188 148.03125 Z M 362.121094 146.679688 C 361.640625 146.15625 361.679688 145.339844 362.207031 144.859375 C 362.730469 144.378906 363.550781 144.417969 364.03125 144.941406 C 364.511719 145.46875 364.472656 146.28125 363.945312 146.761719 C 363.699219 146.988281 363.386719 147.101562 363.078125 147.101562 C 362.726562 147.101562 362.378906 146.957031 362.121094 146.679688 Z M 137.839844 146.574219 C 137.3125 146.097656 137.273438 145.28125 137.75 144.753906 C 138.230469 144.226562 139.046875 144.1875 139.574219 144.664062 C 140.101562 145.144531 140.144531 145.957031 139.664062 146.484375 C 139.410156 146.765625 139.058594 146.90625 138.707031 146.90625 C 138.398438 146.90625 138.085938 146.796875 137.839844 146.574219 Z M 17.019531 141.566406 C 16.585938 141.003906 16.6875 140.191406 17.253906 139.757812 C 17.816406 139.324219 18.628906 139.429688 19.0625 139.992188 C 19.5 140.554688 19.394531 141.367188 18.832031 141.800781 C 18.59375 141.980469 18.316406 142.070312 18.042969 142.070312 C 17.65625 142.070312 17.273438 141.894531 17.019531 141.566406 Z M 482.9375 141.601562 C 482.371094 141.167969 482.265625 140.359375 482.699219 139.792969 C 483.132812 139.226562 483.941406 139.121094 484.507812 139.554688 C 485.074219 139.988281 485.183594 140.796875 484.75 141.363281 L 484.75 141.359375 C 484.496094 141.691406 484.109375 141.867188 483.722656 141.867188 C 483.449219 141.867188 483.171875 141.78125 482.9375 141.601562 Z M 356.589844 139.921875 C 356.167969 139.347656 356.292969 138.542969 356.871094 138.121094 C 357.445312 137.703125 358.253906 137.828125 358.671875 138.402344 C 359.09375 138.976562 358.96875 139.78125 358.394531 140.203125 C 358.164062 140.371094 357.898438 140.453125 357.632812 140.453125 C 357.234375 140.453125 356.839844 140.269531 356.589844 139.921875 Z M 143.371094 139.996094 C 142.796875 139.578125 142.664062 138.773438 143.085938 138.199219 C 143.503906 137.621094 144.3125 137.492188 144.886719 137.914062 C 145.464844 138.332031 145.59375 139.136719 145.175781 139.714844 C 144.921875 140.058594 144.527344 140.246094 144.128906 140.246094 C 143.867188 140.246094 143.601562 140.164062 143.371094 139.996094 Z M 12.066406 134.371094 C 11.695312 133.765625 11.886719 132.972656 12.5 132.601562 C 13.105469 132.230469 13.902344 132.421875 14.273438 133.03125 C 14.640625 133.636719 14.449219 134.429688 13.84375 134.800781 C 13.632812 134.929688 13.398438 134.992188 13.171875 134.992188 C 12.734375 134.992188 12.308594 134.769531 12.066406 134.371094 Z M 487.902344 134.589844 C 487.292969 134.222656 487.097656 133.425781 487.46875 132.820312 C 487.835938 132.210938 488.628906 132.015625 489.238281 132.382812 C 489.851562 132.753906 490.042969 133.542969 489.675781 134.152344 C 489.433594 134.554688 489.007812 134.773438 488.570312 134.773438 C 488.34375 134.773438 488.113281 134.714844 487.902344 134.589844 Z M 351.824219 132.605469 C 351.46875 131.988281 351.679688 131.199219 352.300781 130.84375 C 352.917969 130.488281 353.707031 130.703125 354.0625 131.320312 C 354.417969 131.9375 354.203125 132.722656 353.585938 133.078125 C 353.382812 133.195312 353.160156 133.25 352.941406 133.25 C 352.496094 133.25 352.0625 133.019531 351.824219 132.605469 Z M 148.152344 132.863281 C 147.535156 132.507812 147.320312 131.722656 147.671875 131.105469 C 148.027344 130.484375 148.816406 130.269531 149.433594 130.625 C 150.050781 130.976562 150.269531 131.761719 149.914062 132.382812 C 149.675781 132.796875 149.242188 133.03125 148.792969 133.03125 C 148.574219 133.03125 148.355469 132.976562 148.152344 132.863281 Z M 7.929688 126.679688 C 7.628906 126.035156 7.90625 125.269531 8.550781 124.96875 C 9.199219 124.664062 9.964844 124.941406 10.269531 125.585938 C 10.570312 126.230469 10.292969 127 9.648438 127.300781 C 9.46875 127.386719 9.285156 127.421875 9.101562 127.421875 C 8.617188 127.421875 8.148438 127.148438 7.929688 126.679688 Z M 492.070312 127.078125 C 491.425781 126.78125 491.144531 126.011719 491.445312 125.367188 C 491.742188 124.722656 492.511719 124.441406 493.15625 124.742188 C 493.804688 125.042969 494.085938 125.808594 493.785156 126.453125 C 493.566406 126.921875 493.101562 127.199219 492.613281 127.199219 C 492.433594 127.199219 492.246094 127.160156 492.070312 127.078125 Z M 347.886719 124.808594 C 347.601562 124.15625 347.898438 123.394531 348.554688 123.109375 C 349.207031 122.828125 349.96875 123.125 350.253906 123.777344 C 350.539062 124.429688 350.238281 125.1875 349.585938 125.472656 C 349.417969 125.546875 349.242188 125.582031 349.070312 125.582031 C 348.574219 125.582031 348.097656 125.292969 347.886719 124.808594 Z M 152.125 125.25 C 151.472656 124.964844 151.171875 124.207031 151.457031 123.554688 C 151.738281 122.898438 152.496094 122.601562 153.152344 122.882812 C 153.808594 123.164062 154.105469 123.925781 153.824219 124.578125 C 153.613281 125.066406 153.136719 125.355469 152.636719 125.355469 C 152.46875 125.355469 152.292969 125.320312 152.125 125.25 Z M 4.664062 118.582031 C 4.433594 117.910156 4.792969 117.175781 5.46875 116.945312 C 6.144531 116.714844 6.878906 117.078125 7.105469 117.753906 C 7.335938 118.425781 6.976562 119.15625 6.300781 119.386719 C 6.164062 119.433594 6.023438 119.457031 5.882812 119.457031 C 5.347656 119.457031 4.847656 119.117188 4.664062 118.582031 Z M 495.390625 119.15625 C 494.714844 118.929688 494.351562 118.199219 494.578125 117.523438 C 494.808594 116.851562 495.539062 116.484375 496.214844 116.714844 C 496.890625 116.941406 497.253906 117.671875 497.027344 118.347656 C 496.84375 118.886719 496.34375 119.222656 495.804688 119.222656 C 495.667969 119.222656 495.527344 119.203125 495.390625 119.15625 Z M 344.828125 116.628906 C 344.617188 115.949219 344.996094 115.226562 345.679688 115.015625 C 346.359375 114.800781 347.082031 115.179688 347.296875 115.859375 C 347.507812 116.539062 347.128906 117.265625 346.449219 117.476562 C 346.320312 117.515625 346.191406 117.535156 346.0625 117.53125 C 345.511719 117.535156 345.003906 117.179688 344.828125 116.628906 Z M 155.238281 117.242188 C 154.558594 117.035156 154.175781 116.3125 154.386719 115.632812 C 154.597656 114.949219 155.316406 114.570312 156 114.777344 C 156.679688 114.988281 157.0625 115.710938 156.855469 116.390625 C 156.683594 116.945312 156.171875 117.300781 155.621094 117.300781 C 155.492188 117.300781 155.367188 117.28125 155.238281 117.242188 Z M 2.308594 110.171875 C 2.152344 109.476562 2.59375 108.789062 3.289062 108.636719 C 3.984375 108.480469 4.675781 108.921875 4.828125 109.617188 C 4.980469 110.3125 4.542969 111 3.847656 111.152344 C 3.753906 111.171875 3.660156 111.183594 3.566406 111.183594 C 2.972656 111.183594 2.441406 110.773438 2.308594 110.171875 Z M 497.820312 110.917969 C 497.121094 110.765625 496.679688 110.082031 496.832031 109.382812 C 496.984375 108.6875 497.671875 108.25 498.367188 108.398438 C 499.066406 108.550781 499.507812 109.238281 499.355469 109.933594 C 499.222656 110.535156 498.6875 110.949219 498.09375 110.949219 C 498.003906 110.949219 497.910156 110.9375 497.820312 110.917969 Z M 342.695312 108.160156 C 342.558594 107.460938 343.015625 106.785156 343.714844 106.648438 C 344.414062 106.511719 345.09375 106.96875 345.226562 107.667969 C 345.363281 108.367188 344.90625 109.042969 344.207031 109.179688 C 344.125 109.195312 344.039062 109.203125 343.960938 109.203125 C 343.355469 109.203125 342.8125 108.777344 342.695312 108.160156 Z M 157.453125 108.945312 C 156.75 108.8125 156.292969 108.136719 156.429688 107.4375 C 156.5625 106.738281 157.238281 106.277344 157.9375 106.414062 C 158.636719 106.546875 159.097656 107.222656 158.964844 107.921875 C 158.84375 108.539062 158.304688 108.96875 157.695312 108.96875 C 157.617188 108.96875 157.535156 108.960938 157.453125 108.945312 Z M 0.890625 101.558594 C 0.8125 100.851562 1.324219 100.21875 2.035156 100.140625 C 2.742188 100.0625 3.378906 100.574219 3.457031 101.28125 C 3.535156 101.988281 3.023438 102.625 2.3125 102.703125 C 2.265625 102.707031 2.21875 102.710938 2.171875 102.710938 C 1.523438 102.710938 0.960938 102.21875 0.890625 101.558594 Z M 499.328125 102.464844 C 498.617188 102.390625 498.105469 101.753906 498.179688 101.046875 C 498.253906 100.339844 498.886719 99.824219 499.597656 99.898438 C 500.304688 99.976562 500.820312 100.609375 500.746094 101.316406 C 500.675781 101.980469 500.117188 102.472656 499.464844 102.472656 C 499.417969 102.472656 499.371094 102.46875 499.328125 102.464844 Z M 341.5 99.515625 C 341.441406 98.804688 341.96875 98.183594 342.679688 98.125 C 343.390625 98.066406 344.011719 98.59375 344.074219 99.300781 C 344.132812 100.011719 343.601562 100.636719 342.890625 100.695312 C 342.855469 100.695312 342.820312 100.699219 342.785156 100.699219 C 342.117188 100.699219 341.554688 100.1875 341.5 99.515625 Z M 158.742188 100.453125 C 158.03125 100.398438 157.5 99.777344 157.554688 99.066406 C 157.613281 98.355469 158.234375 97.828125 158.945312 97.882812 C 159.65625 97.941406 160.1875 98.5625 160.132812 99.273438 C 160.078125 99.945312 159.511719 100.457031 158.84375 100.457031 C 158.808594 100.457031 158.777344 100.457031 158.742188 100.453125 Z M 0.421875 92.847656 C 0.421875 92.136719 1 91.558594 1.710938 91.558594 C 2.421875 91.558594 3 92.136719 3 92.847656 C 3 93.558594 2.421875 94.136719 1.710938 94.136719 C 1 94.136719 0.421875 93.558594 0.421875 92.847656 Z M 341.195312 90.839844 C 341.183594 90.128906 341.75 89.542969 342.464844 89.53125 C 343.175781 89.519531 343.765625 90.085938 343.777344 90.796875 C 343.785156 91.507812 343.21875 92.097656 342.507812 92.109375 C 342.5 92.109375 342.492188 92.109375 342.484375 92.109375 C 341.78125 92.109375 341.207031 91.542969 341.195312 90.839844 Z M 159.089844 91.871094 C 158.378906 91.859375 157.808594 91.277344 157.816406 90.5625 C 157.824219 89.851562 158.410156 89.28125 159.125 89.292969 C 159.835938 89.300781 160.40625 89.886719 160.398438 90.597656 C 160.390625 91.304688 159.8125 91.871094 159.109375 91.871094 C 159.101562 91.871094 159.097656 91.871094 159.089844 91.871094 Z M 340.671875 82.386719 C 340.589844 81.679688 341.097656 81.039062 341.804688 80.957031 C 342.511719 80.875 343.15625 81.382812 343.234375 82.089844 C 343.316406 82.796875 342.808594 83.4375 342.101562 83.519531 C 342.050781 83.523438 342 83.527344 341.953125 83.527344 C 341.304688 83.527344 340.746094 83.042969 340.671875 82.386719 Z M 159.558594 83.292969 C 158.847656 83.207031 158.34375 82.566406 158.429688 81.859375 C 158.511719 81.152344 159.15625 80.648438 159.863281 80.730469 C 160.570312 80.816406 161.078125 81.460938 160.992188 82.164062 C 160.914062 82.820312 160.355469 83.300781 159.710938 83.300781 C 159.660156 83.300781 159.609375 83.300781 159.558594 83.292969 Z M 339.304688 74.03125 C 339.160156 73.332031 339.601562 72.648438 340.300781 72.5 C 341 72.355469 341.683594 72.800781 341.832031 73.496094 C 341.980469 74.191406 341.535156 74.875 340.835938 75.023438 C 340.746094 75.042969 340.65625 75.050781 340.566406 75.050781 C 339.96875 75.050781 339.433594 74.636719 339.304688 74.03125 Z M 160.855469 74.804688 C 160.160156 74.652344 159.714844 73.96875 159.867188 73.269531 C 160.019531 72.574219 160.703125 72.132812 161.402344 72.28125 C 162.097656 72.433594 162.542969 73.117188 162.390625 73.816406 C 162.257812 74.417969 161.726562 74.832031 161.128906 74.832031 C 161.039062 74.832031 160.949219 74.824219 160.855469 74.804688 Z M 337.160156 65.839844 C 336.945312 65.160156 337.324219 64.4375 338.003906 64.226562 C 338.6875 64.011719 339.410156 64.390625 339.625 65.070312 C 339.835938 65.75 339.457031 66.472656 338.777344 66.6875 C 338.648438 66.726562 338.519531 66.746094 338.390625 66.746094 C 337.84375 66.746094 337.332031 66.390625 337.160156 65.839844 Z M 162.945312 66.472656 C 162.265625 66.257812 161.890625 65.53125 162.105469 64.855469 C 162.320312 64.175781 163.046875 63.796875 163.726562 64.015625 C 164.40625 64.226562 164.78125 64.953125 164.566406 65.632812 C 164.394531 66.179688 163.882812 66.53125 163.335938 66.53125 C 163.207031 66.53125 163.078125 66.511719 162.945312 66.472656 Z M 334.246094 57.886719 L 334.246094 57.890625 C 333.972656 57.230469 334.28125 56.476562 334.9375 56.199219 C 335.597656 55.925781 336.351562 56.234375 336.628906 56.890625 C 336.902344 57.546875 336.59375 58.300781 335.9375 58.578125 C 335.773438 58.644531 335.605469 58.679688 335.4375 58.679688 C 334.933594 58.679688 334.457031 58.382812 334.246094 57.886719 Z M 165.8125 58.371094 C 165.15625 58.09375 164.847656 57.339844 165.125 56.683594 C 165.40625 56.027344 166.160156 55.722656 166.820312 56 C 167.476562 56.277344 167.78125 57.03125 167.503906 57.6875 C 167.296875 58.179688 166.816406 58.476562 166.3125 58.476562 C 166.144531 58.476562 165.976562 58.441406 165.8125 58.371094 Z M 330.597656 50.246094 C 330.261719 49.617188 330.5 48.835938 331.125 48.5 C 331.753906 48.164062 332.539062 48.398438 332.875 49.027344 C 333.210938 49.65625 332.976562 50.4375 332.347656 50.773438 C 332.152344 50.875 331.945312 50.925781 331.738281 50.925781 C 331.277344 50.925781 330.832031 50.679688 330.597656 50.246094 Z M 169.425781 50.578125 C 168.796875 50.238281 168.5625 49.457031 168.902344 48.832031 C 169.238281 48.203125 170.023438 47.96875 170.648438 48.308594 C 171.277344 48.644531 171.511719 49.429688 171.175781 50.054688 C 170.941406 50.488281 170.496094 50.730469 170.039062 50.730469 C 169.828125 50.730469 169.621094 50.683594 169.425781 50.578125 Z M 326.246094 42.976562 C 325.851562 42.386719 326.015625 41.585938 326.609375 41.191406 C 327.203125 40.796875 328.003906 40.957031 328.398438 41.554688 C 328.792969 42.144531 328.628906 42.945312 328.035156 43.339844 C 327.816406 43.484375 327.566406 43.554688 327.324219 43.554688 C 326.90625 43.554688 326.496094 43.351562 326.246094 42.976562 Z M 173.753906 43.152344 C 173.160156 42.757812 173 41.957031 173.394531 41.367188 C 173.789062 40.773438 174.59375 40.613281 175.183594 41.007812 C 175.777344 41.402344 175.941406 42.203125 175.542969 42.796875 C 175.292969 43.167969 174.886719 43.371094 174.46875 43.371094 C 174.222656 43.371094 173.972656 43.300781 173.753906 43.152344 Z M 321.234375 36.148438 C 320.785156 35.59375 320.871094 34.78125 321.425781 34.335938 C 321.980469 33.886719 322.792969 33.972656 323.242188 34.527344 C 323.691406 35.082031 323.601562 35.894531 323.046875 36.339844 C 322.808594 36.53125 322.523438 36.628906 322.238281 36.628906 C 321.863281 36.628906 321.488281 36.460938 321.234375 36.148438 Z M 178.757812 36.167969 C 178.203125 35.71875 178.117188 34.90625 178.566406 34.351562 C 179.015625 33.800781 179.828125 33.714844 180.382812 34.164062 C 180.9375 34.609375 181.019531 35.421875 180.570312 35.976562 C 180.316406 36.289062 179.945312 36.453125 179.566406 36.453125 C 179.28125 36.453125 178.996094 36.359375 178.757812 36.167969 Z M 315.601562 29.8125 C 315.105469 29.304688 315.117188 28.488281 315.625 27.988281 C 316.136719 27.492188 316.953125 27.503906 317.453125 28.015625 C 317.949219 28.523438 317.9375 29.339844 317.429688 29.835938 C 317.175781 30.082031 316.851562 30.203125 316.527344 30.203125 C 316.191406 30.203125 315.855469 30.074219 315.601562 29.8125 Z M 184.390625 29.671875 C 183.878906 29.175781 183.871094 28.359375 184.367188 27.851562 C 184.867188 27.339844 185.683594 27.332031 186.195312 27.828125 C 186.703125 28.328125 186.714844 29.144531 186.214844 29.652344 C 185.960938 29.910156 185.625 30.042969 185.292969 30.042969 C 184.964844 30.042969 184.640625 29.917969 184.390625 29.671875 Z M 309.40625 24.03125 C 308.863281 23.570312 308.796875 22.753906 309.261719 22.210938 C 309.722656 21.671875 310.535156 21.605469 311.078125 22.066406 C 311.621094 22.527344 311.6875 23.339844 311.226562 23.882812 C 310.972656 24.183594 310.609375 24.339844 310.242188 24.339844 C 309.945312 24.339844 309.648438 24.238281 309.40625 24.03125 Z M 190.601562 23.730469 C 190.140625 23.191406 190.207031 22.375 190.753906 21.914062 C 191.296875 21.457031 192.109375 21.523438 192.574219 22.066406 C 193.03125 22.609375 192.964844 23.421875 192.421875 23.882812 C 192.179688 24.085938 191.882812 24.1875 191.589844 24.1875 C 191.222656 24.1875 190.859375 24.03125 190.601562 23.730469 Z M 302.699219 18.847656 C 302.113281 18.4375 301.972656 17.636719 302.382812 17.054688 C 302.792969 16.46875 303.597656 16.328125 304.179688 16.738281 C 304.765625 17.148438 304.90625 17.949219 304.496094 18.535156 C 304.246094 18.890625 303.84375 19.082031 303.4375 19.082031 C 303.183594 19.082031 302.921875 19.007812 302.699219 18.847656 Z M 197.34375 18.394531 C 196.9375 17.8125 197.078125 17.007812 197.664062 16.601562 C 198.246094 16.195312 199.050781 16.335938 199.460938 16.917969 C 199.867188 17.503906 199.726562 18.304688 199.140625 18.714844 C 198.917969 18.871094 198.65625 18.945312 198.402344 18.945312 C 197.996094 18.945312 197.59375 18.753906 197.34375 18.394531 Z M 295.535156 14.316406 C 294.914062 13.964844 294.699219 13.175781 295.050781 12.558594 C 295.40625 11.9375 296.195312 11.722656 296.8125 12.074219 C 297.433594 12.429688 297.648438 13.214844 297.296875 13.835938 C 297.058594 14.25 296.621094 14.484375 296.171875 14.484375 C 295.957031 14.484375 295.734375 14.429688 295.535156 14.316406 Z M 204.554688 13.710938 C 204.203125 13.089844 204.417969 12.304688 205.039062 11.953125 C 205.660156 11.601562 206.449219 11.820312 206.800781 12.4375 C 207.152344 13.058594 206.933594 13.84375 206.3125 14.195312 C 206.113281 14.308594 205.894531 14.363281 205.675781 14.363281 C 205.230469 14.363281 204.792969 14.128906 204.554688 13.710938 Z M 287.976562 10.472656 C 287.328125 10.179688 287.039062 9.417969 287.332031 8.769531 C 287.625 8.117188 288.390625 7.832031 289.039062 8.125 C 289.6875 8.417969 289.980469 9.179688 289.683594 9.828125 C 289.46875 10.304688 289 10.589844 288.507812 10.589844 C 288.332031 10.589844 288.152344 10.550781 287.976562 10.472656 Z M 212.171875 9.722656 C 211.878906 9.074219 212.171875 8.308594 212.820312 8.019531 C 213.472656 7.726562 214.238281 8.019531 214.527344 8.667969 C 214.820312 9.316406 214.527344 10.078125 213.878906 10.371094 C 213.707031 10.449219 213.527344 10.484375 213.351562 10.484375 C 212.855469 10.484375 212.386719 10.203125 212.171875 9.722656 Z M 280.09375 7.359375 C 279.417969 7.128906 279.058594 6.394531 279.289062 5.722656 C 279.519531 5.046875 280.253906 4.6875 280.929688 4.917969 C 280.929688 4.917969 280.929688 4.917969 280.925781 4.917969 C 281.601562 5.148438 281.964844 5.882812 281.730469 6.554688 C 281.546875 7.09375 281.046875 7.429688 280.511719 7.429688 C 280.371094 7.429688 280.230469 7.40625 280.09375 7.359375 Z M 220.132812 6.46875 C 219.902344 5.796875 220.265625 5.0625 220.941406 4.835938 C 221.617188 4.605469 222.347656 4.96875 222.578125 5.640625 C 222.808594 6.316406 222.445312 7.046875 221.769531 7.277344 C 221.632812 7.324219 221.492188 7.34375 221.355469 7.34375 C 220.816406 7.34375 220.316406 7.007812 220.132812 6.46875 Z M 271.949219 5 C 271.257812 4.835938 270.828125 4.140625 270.996094 3.445312 C 271.160156 2.753906 271.855469 2.328125 272.550781 2.492188 C 273.246094 2.660156 273.671875 3.355469 273.503906 4.046875 C 273.363281 4.640625 272.835938 5.035156 272.25 5.035156 C 272.152344 5.035156 272.050781 5.027344 271.949219 5 Z M 228.367188 3.984375 C 228.199219 3.289062 228.632812 2.59375 229.324219 2.433594 C 230.019531 2.265625 230.714844 2.695312 230.878906 3.386719 C 231.042969 4.082031 230.613281 4.777344 229.917969 4.941406 C 229.820312 4.964844 229.71875 4.976562 229.621094 4.976562 C 229.035156 4.976562 228.507812 4.574219 228.367188 3.984375 Z M 263.621094 3.421875 C 262.914062 3.320312 262.421875 2.667969 262.523438 1.960938 C 262.625 1.257812 263.277344 0.765625 263.984375 0.867188 C 264.6875 0.964844 265.179688 1.617188 265.082031 2.324219 C 264.988281 2.96875 264.4375 3.433594 263.804688 3.433594 C 263.742188 3.433594 263.683594 3.429688 263.621094 3.421875 Z M 236.796875 2.28125 C 236.699219 1.578125 237.191406 0.925781 237.898438 0.828125 C 238.605469 0.730469 239.257812 1.222656 239.355469 1.925781 C 239.453125 2.632812 238.957031 3.285156 238.253906 3.382812 C 238.191406 3.390625 238.132812 3.394531 238.074219 3.394531 C 237.4375 3.394531 236.886719 2.925781 236.796875 2.28125 Z M 255.179688 2.625 C 254.464844 2.589844 253.914062 1.988281 253.949219 1.273438 C 253.984375 0.5625 254.589844 0.015625 255.300781 0.046875 C 256.011719 0.0820312 256.5625 0.6875 256.527344 1.398438 C 256.496094 2.089844 255.925781 2.625 255.242188 2.625 C 255.21875 2.625 255.199219 2.625 255.179688 2.625 Z M 245.347656 1.378906 C 245.316406 0.671875 245.867188 0.0664062 246.582031 0.0351562 C 247.292969 0.00390625 247.894531 0.554688 247.929688 1.265625 C 247.960938 1.976562 247.410156 2.578125 246.695312 2.609375 C 246.675781 2.613281 246.65625 2.613281 246.636719 2.613281 C 245.953125 2.613281 245.378906 2.074219 245.347656 1.378906 Z M 245.347656 1.378906 " fill-opacity="1" fill-rule="nonzero"/></g><path fill="#231d93" d="M 149.761719 56.992188 C 149.300781 56.992188 148.855469 56.746094 148.621094 56.3125 C 135.097656 31.175781 108.957031 15.5625 80.402344 15.5625 C 51.847656 15.5625 25.707031 31.175781 12.183594 56.3125 C 11.84375 56.941406 11.0625 57.175781 10.433594 56.839844 C 9.804688 56.5 9.570312 55.71875 9.910156 55.09375 C 16.640625 42.582031 26.625 32.050781 38.777344 24.640625 C 51.28125 17.015625 65.675781 12.984375 80.402344 12.984375 C 95.128906 12.984375 109.523438 17.015625 122.027344 24.640625 C 134.183594 32.050781 144.164062 42.582031 150.898438 55.09375 C 151.234375 55.71875 151 56.503906 150.371094 56.839844 C 150.175781 56.941406 149.96875 56.992188 149.761719 56.992188 Z M 149.761719 56.992188 " fill-opacity="1" fill-rule="nonzero"/><path fill="#ffddb0" d="M 319.503906 92.847656 C 319.503906 93.972656 319.476562 95.09375 319.421875 96.214844 C 319.367188 97.335938 319.285156 98.453125 319.171875 99.570312 C 319.0625 100.6875 318.925781 101.804688 318.761719 102.914062 C 318.597656 104.023438 318.402344 105.128906 318.183594 106.230469 C 317.964844 107.332031 317.71875 108.425781 317.445312 109.515625 C 317.171875 110.605469 316.871094 111.6875 316.546875 112.761719 C 316.21875 113.835938 315.867188 114.902344 315.488281 115.957031 C 315.109375 117.015625 314.707031 118.0625 314.273438 119.097656 C 313.84375 120.136719 313.390625 121.164062 312.910156 122.179688 C 312.429688 123.191406 311.921875 124.195312 311.390625 125.183594 C 310.863281 126.175781 310.308594 127.152344 309.730469 128.113281 C 309.152344 129.078125 308.550781 130.027344 307.925781 130.960938 C 307.300781 131.894531 306.65625 132.808594 305.984375 133.710938 C 305.316406 134.613281 304.625 135.5 303.910156 136.367188 C 303.195312 137.234375 302.464844 138.085938 301.707031 138.917969 C 300.953125 139.746094 300.179688 140.5625 299.382812 141.355469 C 298.585938 142.148438 297.773438 142.921875 296.941406 143.675781 C 296.109375 144.429688 295.257812 145.164062 294.386719 145.875 C 293.519531 146.585938 292.632812 147.277344 291.730469 147.945312 C 290.824219 148.617188 289.90625 149.261719 288.972656 149.886719 C 288.039062 150.507812 287.089844 151.109375 286.125 151.6875 C 285.160156 152.265625 284.179688 152.816406 283.191406 153.347656 C 282.199219 153.875 281.195312 154.378906 280.179688 154.859375 C 279.160156 155.339844 278.132812 155.796875 277.09375 156.226562 C 276.054688 156.65625 275.007812 157.058594 273.949219 157.4375 C 272.890625 157.816406 271.824219 158.167969 270.746094 158.492188 C 269.671875 158.820312 268.589844 159.117188 267.496094 159.390625 C 266.40625 159.664062 265.308594 159.910156 264.207031 160.128906 C 263.105469 160.347656 261.996094 160.539062 260.886719 160.703125 C 259.773438 160.867188 258.65625 161.007812 257.539062 161.117188 C 256.421875 161.226562 255.300781 161.308594 254.175781 161.363281 C 253.054688 161.417969 251.929688 161.445312 250.804688 161.445312 C 249.679688 161.445312 248.558594 161.417969 247.433594 161.363281 C 246.3125 161.308594 245.191406 161.226562 244.070312 161.117188 C 242.953125 161.007812 241.835938 160.867188 240.726562 160.703125 C 239.613281 160.539062 238.503906 160.347656 237.402344 160.128906 C 236.300781 159.910156 235.203125 159.664062 234.113281 159.390625 C 233.023438 159.117188 231.9375 158.820312 230.863281 158.492188 C 229.785156 158.167969 228.71875 157.816406 227.660156 157.4375 C 226.601562 157.058594 225.554688 156.65625 224.515625 156.226562 C 223.476562 155.796875 222.449219 155.339844 221.433594 154.859375 C 220.414062 154.378906 219.410156 153.875 218.421875 153.347656 C 217.429688 152.816406 216.449219 152.265625 215.488281 151.6875 C 214.523438 151.109375 213.574219 150.507812 212.636719 149.886719 C 211.703125 149.261719 210.785156 148.617188 209.882812 147.945312 C 208.976562 147.277344 208.09375 146.585938 207.222656 145.875 C 206.355469 145.164062 205.503906 144.429688 204.667969 143.675781 C 203.835938 142.921875 203.023438 142.148438 202.226562 141.355469 C 201.433594 140.5625 200.65625 139.746094 199.902344 138.917969 C 199.148438 138.085938 198.414062 137.234375 197.699219 136.367188 C 196.988281 135.5 196.296875 134.613281 195.625 133.710938 C 194.957031 132.808594 194.308594 131.894531 193.683594 130.960938 C 193.058594 130.027344 192.457031 129.078125 191.878906 128.113281 C 191.300781 127.152344 190.746094 126.175781 190.21875 125.183594 C 189.6875 124.195312 189.183594 123.191406 188.703125 122.179688 C 188.222656 121.164062 187.765625 120.136719 187.335938 119.097656 C 186.90625 118.0625 186.5 117.015625 186.121094 115.957031 C 185.742188 114.902344 185.390625 113.835938 185.0625 112.761719 C 184.738281 111.6875 184.4375 110.605469 184.164062 109.515625 C 183.890625 108.425781 183.644531 107.332031 183.425781 106.230469 C 183.207031 105.128906 183.015625 104.023438 182.847656 102.914062 C 182.683594 101.804688 182.546875 100.6875 182.4375 99.570312 C 182.328125 98.453125 182.242188 97.335938 182.1875 96.214844 C 182.132812 95.09375 182.105469 93.972656 182.105469 92.847656 C 182.105469 91.726562 182.132812 90.601562 182.1875 89.480469 C 182.242188 88.359375 182.328125 87.242188 182.4375 86.125 C 182.546875 85.007812 182.683594 83.894531 182.847656 82.78125 C 183.015625 81.671875 183.207031 80.566406 183.425781 79.464844 C 183.644531 78.363281 183.890625 77.269531 184.164062 76.179688 C 184.4375 75.089844 184.738281 74.007812 185.0625 72.933594 C 185.390625 71.859375 185.742188 70.792969 186.121094 69.738281 C 186.5 68.679688 186.90625 67.632812 187.335938 66.597656 C 187.765625 65.558594 188.222656 64.535156 188.703125 63.519531 C 189.183594 62.503906 189.6875 61.5 190.21875 60.511719 C 190.746094 59.519531 191.300781 58.542969 191.878906 57.582031 C 192.457031 56.617188 193.058594 55.671875 193.683594 54.738281 C 194.308594 53.804688 194.957031 52.886719 195.625 51.984375 C 196.296875 51.082031 196.988281 50.199219 197.699219 49.328125 C 198.414062 48.460938 199.148438 47.613281 199.902344 46.78125 C 200.65625 45.949219 201.433594 45.136719 202.226562 44.339844 C 203.023438 43.546875 203.835938 42.773438 204.667969 42.019531 C 205.503906 41.265625 206.355469 40.53125 207.222656 39.820312 C 208.09375 39.109375 208.976562 38.417969 209.882812 37.75 C 210.785156 37.082031 211.703125 36.433594 212.636719 35.808594 C 213.574219 35.1875 214.523438 34.585938 215.488281 34.007812 C 216.449219 33.433594 217.429688 32.878906 218.421875 32.347656 C 219.410156 31.820312 220.414062 31.316406 221.433594 30.835938 C 222.449219 30.355469 223.476562 29.902344 224.515625 29.472656 C 225.554688 29.042969 226.601562 28.636719 227.660156 28.257812 C 228.71875 27.882812 229.785156 27.527344 230.863281 27.203125 C 231.9375 26.878906 233.023438 26.578125 234.113281 26.304688 C 235.203125 26.03125 236.300781 25.785156 237.402344 25.566406 C 238.503906 25.347656 239.613281 25.15625 240.726562 24.992188 C 241.835938 24.828125 242.953125 24.691406 244.070312 24.578125 C 245.191406 24.46875 246.3125 24.386719 247.433594 24.332031 C 248.558594 24.277344 249.679688 24.25 250.804688 24.25 C 251.929688 24.25 253.054688 24.277344 254.175781 24.332031 C 255.300781 24.386719 256.421875 24.46875 257.539062 24.578125 C 258.65625 24.691406 259.773438 24.828125 260.886719 24.992188 C 261.996094 25.15625 263.105469 25.347656 264.207031 25.566406 C 265.308594 25.785156 266.40625 26.03125 267.496094 26.304688 C 268.589844 26.578125 269.671875 26.878906 270.746094 27.203125 C 271.824219 27.527344 272.890625 27.882812 273.949219 28.257812 C 275.007812 28.636719 276.054688 29.042969 277.09375 29.472656 C 278.132812 29.902344 279.160156 30.355469 280.179688 30.835938 C 281.195312 31.316406 282.199219 31.820312 283.191406 32.347656 C 284.179688 32.878906 285.160156 33.433594 286.125 34.007812 C 287.089844 34.585938 288.039062 35.1875 288.972656 35.808594 C 289.90625 36.433594 290.824219 37.082031 291.730469 37.75 C 292.632812 38.417969 293.519531 39.109375 294.386719 39.820312 C 295.257812 40.53125 296.109375 41.265625 296.941406 42.019531 C 297.773438 42.773438 298.585938 43.546875 299.382812 44.339844 C 300.179688 45.136719 300.953125 45.949219 301.707031 46.78125 C 302.464844 47.613281 303.195312 48.460938 303.910156 49.328125 C 304.625 50.199219 305.316406 51.082031 305.984375 51.984375 C 306.65625 52.886719 307.300781 53.804688 307.925781 54.738281 C 308.550781 55.671875 309.152344 56.617188 309.730469 57.582031 C 310.308594 58.542969 310.863281 59.519531 311.390625 60.511719 C 311.921875 61.5 312.429688 62.503906 312.910156 63.519531 C 313.390625 64.535156 313.84375 65.558594 314.273438 66.597656 C 314.707031 67.632812 315.109375 68.679688 315.488281 69.738281 C 315.867188 70.792969 316.21875 71.859375 316.546875 72.933594 C 316.871094 74.007812 317.171875 75.089844 317.445312 76.179688 C 317.71875 77.269531 317.964844 78.363281 318.183594 79.464844 C 318.402344 80.566406 318.597656 81.671875 318.761719 82.78125 C 318.925781 83.894531 319.0625 85.007812 319.171875 86.125 C 319.285156 87.242188 319.367188 88.359375 319.421875 89.480469 C 319.476562 90.601562 319.503906 91.726562 319.503906 92.847656 Z M 319.503906 92.847656 " fill-opacity="1" fill-rule="nonzero"/><path fill="#d4e1ff" d="M 136.609375 92.847656 C 136.609375 94.6875 136.519531 96.519531 136.339844 98.347656 C 136.160156 100.179688 135.890625 101.996094 135.53125 103.796875 C 135.171875 105.601562 134.726562 107.382812 134.191406 109.140625 C 133.65625 110.898438 133.035156 112.628906 132.332031 114.328125 C 131.628906 116.023438 130.84375 117.683594 129.972656 119.304688 C 129.105469 120.925781 128.160156 122.5 127.136719 124.03125 C 126.117188 125.558594 125.019531 127.03125 123.851562 128.453125 C 122.683594 129.875 121.449219 131.234375 120.148438 132.535156 C 118.847656 133.835938 117.484375 135.066406 116.0625 136.234375 C 114.636719 137.398438 113.160156 138.492188 111.628906 139.515625 C 110.101562 140.535156 108.523438 141.480469 106.898438 142.347656 C 105.277344 143.214844 103.613281 144 101.914062 144.703125 C 100.210938 145.40625 98.480469 146.023438 96.71875 146.558594 C 94.957031 147.089844 93.175781 147.535156 91.367188 147.894531 C 89.5625 148.253906 87.742188 148.523438 85.910156 148.703125 C 84.078125 148.882812 82.242188 148.972656 80.402344 148.972656 C 78.5625 148.972656 76.726562 148.882812 74.894531 148.703125 C 73.0625 148.523438 71.242188 148.253906 69.4375 147.894531 C 67.632812 147.535156 65.847656 147.089844 64.085938 146.558594 C 62.324219 146.023438 60.59375 145.40625 58.894531 144.703125 C 57.191406 144 55.53125 143.214844 53.90625 142.347656 C 52.28125 141.480469 50.707031 140.535156 49.175781 139.515625 C 47.644531 138.492188 46.167969 137.398438 44.746094 136.234375 C 43.320312 135.066406 41.960938 133.835938 40.65625 132.535156 C 39.355469 131.234375 38.121094 129.875 36.953125 128.453125 C 35.785156 127.03125 34.691406 125.558594 33.667969 124.03125 C 32.644531 122.5 31.699219 120.925781 30.832031 119.304688 C 29.964844 117.683594 29.175781 116.023438 28.472656 114.328125 C 27.769531 112.628906 27.148438 110.898438 26.613281 109.140625 C 26.082031 107.382812 25.632812 105.601562 25.273438 103.796875 C 24.914062 101.996094 24.644531 100.179688 24.464844 98.347656 C 24.285156 96.519531 24.195312 94.6875 24.195312 92.847656 C 24.195312 91.011719 24.285156 89.175781 24.464844 87.347656 C 24.644531 85.515625 24.914062 83.703125 25.273438 81.898438 C 25.632812 80.09375 26.082031 78.316406 26.613281 76.554688 C 27.148438 74.796875 27.769531 73.066406 28.472656 71.371094 C 29.175781 69.671875 29.964844 68.011719 30.832031 66.390625 C 31.699219 64.769531 32.644531 63.195312 33.667969 61.664062 C 34.691406 60.136719 35.785156 58.664062 36.953125 57.242188 C 38.121094 55.820312 39.355469 54.460938 40.65625 53.160156 C 41.960938 51.859375 43.320312 50.628906 44.746094 49.460938 C 46.167969 48.296875 47.644531 47.203125 49.175781 46.179688 C 50.707031 45.160156 52.28125 44.214844 53.90625 43.347656 C 55.53125 42.484375 57.191406 41.699219 58.894531 40.996094 C 60.59375 40.289062 62.324219 39.671875 64.085938 39.140625 C 65.847656 38.605469 67.632812 38.160156 69.4375 37.800781 C 71.242188 37.441406 73.0625 37.171875 74.894531 36.992188 C 76.726562 36.8125 78.5625 36.722656 80.402344 36.722656 C 82.242188 36.722656 84.078125 36.8125 85.910156 36.992188 C 87.742188 37.171875 89.5625 37.441406 91.367188 37.800781 C 93.175781 38.160156 94.957031 38.605469 96.71875 39.140625 C 98.480469 39.671875 100.210938 40.289062 101.914062 40.996094 C 103.613281 41.699219 105.277344 42.484375 106.898438 43.347656 C 108.523438 44.214844 110.101562 45.160156 111.628906 46.179688 C 113.160156 47.203125 114.636719 48.296875 116.0625 49.460938 C 117.484375 50.628906 118.847656 51.859375 120.148438 53.160156 C 121.449219 54.460938 122.683594 55.820312 123.851562 57.242188 C 125.019531 58.664062 126.117188 60.136719 127.136719 61.664062 C 128.160156 63.195312 129.105469 64.769531 129.972656 66.390625 C 130.84375 68.011719 131.628906 69.671875 132.332031 71.371094 C 133.035156 73.066406 133.65625 74.796875 134.191406 76.554688 C 134.726562 78.316406 135.171875 80.09375 135.53125 81.898438 C 135.890625 83.703125 136.160156 85.515625 136.339844 87.347656 C 136.519531 89.175781 136.609375 91.011719 136.609375 92.847656 Z M 136.609375 92.847656 " fill-opacity="1" fill-rule="nonzero"/><path fill="#ffffff" d="M 447.804688 114.199219 C 451.21875 115.703125 453.601562 119.113281 453.601562 123.085938 C 453.601562 128.453125 449.246094 132.804688 443.867188 132.804688 C 438.492188 132.804688 434.136719 128.453125 434.136719 123.085938 C 434.136719 119.28125 436.320312 115.996094 439.503906 114.402344 Z M 447.804688 114.199219 " fill-opacity="1" fill-rule="nonzero"/><path fill="#231d93" d="M 443.867188 134.09375 C 437.789062 134.09375 432.84375 129.15625 432.84375 123.085938 C 432.84375 118.894531 435.175781 115.125 438.925781 113.25 C 439.566406 112.929688 440.339844 113.1875 440.660156 113.824219 C 440.980469 114.460938 440.722656 115.234375 440.082031 115.554688 C 437.210938 116.992188 435.425781 119.875 435.425781 123.085938 C 435.425781 127.734375 439.214844 131.515625 443.867188 131.515625 C 448.523438 131.515625 452.308594 127.734375 452.308594 123.085938 C 452.308594 119.75 450.335938 116.722656 447.28125 115.378906 C 446.628906 115.089844 446.335938 114.328125 446.621094 113.675781 C 446.910156 113.027344 447.671875 112.730469 448.324219 113.019531 C 452.3125 114.777344 454.890625 118.730469 454.890625 123.085938 C 454.890625 129.15625 449.945312 134.09375 443.867188 134.09375 Z M 443.867188 134.09375 " fill-opacity="1" fill-rule="nonzero"/><path fill="#231d93" d="M 455.851562 134.09375 L 431.886719 134.09375 C 431.171875 134.09375 430.59375 133.515625 430.59375 132.804688 C 430.59375 132.09375 431.171875 131.515625 431.886719 131.515625 L 455.851562 131.515625 C 456.5625 131.515625 457.140625 132.09375 457.140625 132.804688 C 457.140625 133.515625 456.5625 134.09375 455.851562 134.09375 Z M 455.851562 134.09375 " fill-opacity="1" fill-rule="nonzero"/><path fill="#ffffff" d="M 422.480469 114.894531 C 422.480469 115.480469 422.453125 116.066406 422.394531 116.652344 C 422.335938 117.234375 422.25 117.8125 422.136719 118.390625 C 422.019531 118.964844 421.878906 119.53125 421.707031 120.09375 C 421.539062 120.65625 421.339844 121.207031 421.113281 121.75 C 420.890625 122.289062 420.640625 122.820312 420.363281 123.335938 C 420.085938 123.855469 419.785156 124.359375 419.457031 124.84375 C 419.132812 125.332031 418.78125 125.804688 418.410156 126.257812 C 418.035156 126.710938 417.640625 127.144531 417.226562 127.558594 C 416.8125 127.972656 416.375 128.367188 415.921875 128.738281 C 415.46875 129.113281 414.996094 129.460938 414.507812 129.785156 C 414.019531 130.113281 413.515625 130.414062 413 130.691406 C 412.480469 130.96875 411.949219 131.21875 411.40625 131.441406 C 410.863281 131.667969 410.3125 131.863281 409.75 132.035156 C 409.1875 132.203125 408.617188 132.347656 408.042969 132.460938 C 407.464844 132.574219 406.886719 132.660156 406.300781 132.71875 C 405.71875 132.777344 405.132812 132.804688 404.542969 132.804688 C 403.957031 132.804688 403.371094 132.777344 402.785156 132.71875 C 402.199219 132.660156 401.621094 132.574219 401.042969 132.460938 C 400.46875 132.347656 399.898438 132.203125 399.335938 132.035156 C 398.773438 131.863281 398.222656 131.667969 397.679688 131.441406 C 397.136719 131.21875 396.605469 130.96875 396.089844 130.691406 C 395.570312 130.414062 395.066406 130.113281 394.578125 129.785156 C 394.089844 129.460938 393.617188 129.113281 393.164062 128.738281 C 392.710938 128.367188 392.277344 127.972656 391.859375 127.558594 C 391.445312 127.144531 391.050781 126.710938 390.679688 126.257812 C 390.304688 125.804688 389.957031 125.332031 389.628906 124.84375 C 389.304688 124.359375 389 123.855469 388.726562 123.335938 C 388.449219 122.820312 388.195312 122.289062 387.972656 121.75 C 387.746094 121.207031 387.550781 120.65625 387.378906 120.09375 C 387.207031 119.53125 387.066406 118.964844 386.953125 118.390625 C 386.835938 117.8125 386.75 117.234375 386.695312 116.652344 C 386.636719 116.066406 386.605469 115.480469 386.605469 114.894531 C 386.605469 114.308594 386.636719 113.722656 386.695312 113.140625 C 386.75 112.554688 386.835938 111.976562 386.953125 111.402344 C 387.066406 110.824219 387.207031 110.257812 387.378906 109.695312 C 387.550781 109.132812 387.746094 108.582031 387.972656 108.039062 C 388.195312 107.5 388.449219 106.96875 388.726562 106.453125 C 389 105.933594 389.304688 105.433594 389.628906 104.945312 C 389.957031 104.457031 390.304688 103.984375 390.679688 103.53125 C 391.050781 103.078125 391.445312 102.644531 391.859375 102.230469 C 392.277344 101.816406 392.710938 101.421875 393.164062 101.050781 C 393.617188 100.679688 394.089844 100.328125 394.578125 100.003906 C 395.066406 99.675781 395.570312 99.375 396.089844 99.097656 C 396.605469 98.824219 397.136719 98.574219 397.679688 98.347656 C 398.222656 98.125 398.773438 97.925781 399.335938 97.753906 C 399.898438 97.585938 400.46875 97.441406 401.042969 97.328125 C 401.621094 97.214844 402.199219 97.128906 402.785156 97.070312 C 403.371094 97.011719 403.957031 96.984375 404.542969 96.984375 C 405.132812 96.984375 405.71875 97.011719 406.300781 97.070312 C 406.886719 97.128906 407.464844 97.214844 408.042969 97.328125 C 408.617188 97.441406 409.1875 97.585938 409.75 97.753906 C 410.3125 97.925781 410.863281 98.125 411.40625 98.347656 C 411.949219 98.574219 412.480469 98.824219 413 99.097656 C 413.515625 99.375 414.019531 99.675781 414.507812 100.003906 C 414.996094 100.328125 415.46875 100.679688 415.921875 101.050781 C 416.375 101.421875 416.8125 101.816406 417.226562 102.230469 C 417.640625 102.644531 418.035156 103.078125 418.410156 103.53125 C 418.78125 103.984375 419.132812 104.457031 419.457031 104.945312 C 419.785156 105.433594 420.085938 105.933594 420.363281 106.453125 C 420.640625 106.96875 420.890625 107.5 421.113281 108.039062 C 421.339844 108.582031 421.539062 109.132812 421.707031 109.695312 C 421.878906 110.257812 422.019531 110.824219 422.136719 111.402344 C 422.25 111.976562 422.335938 112.554688 422.394531 113.140625 C 422.453125 113.722656 422.480469 114.308594 422.480469 114.894531 Z M 422.480469 114.894531 " fill-opacity="1" fill-rule="nonzero"/><path fill="#231d93" d="M 404.542969 134.09375 C 393.941406 134.09375 385.316406 125.480469 385.316406 114.894531 C 385.316406 104.308594 393.941406 95.695312 404.542969 95.695312 C 415.144531 95.695312 423.769531 104.308594 423.769531 114.894531 C 423.769531 125.480469 415.144531 134.09375 404.542969 134.09375 Z M 404.542969 98.273438 C 395.363281 98.273438 387.898438 105.730469 387.898438 114.894531 C 387.898438 124.058594 395.363281 131.515625 404.542969 131.515625 C 413.722656 131.515625 421.1875 124.058594 421.1875 114.894531 C 421.1875 105.730469 413.722656 98.273438 404.542969 98.273438 Z M 404.542969 98.273438 " fill-opacity="1" fill-rule="nonzero"/><path fill="#ff9b80" d="M 404.542969 119.746094 C 407.222656 119.746094 409.402344 117.570312 409.402344 114.894531 C 409.402344 112.21875 407.222656 110.042969 404.542969 110.042969 C 401.863281 110.042969 399.6875 112.21875 399.6875 114.894531 C 399.6875 117.570312 401.863281 119.746094 404.542969 119.746094 Z M 404.542969 119.746094 " fill-opacity="1" fill-rule="nonzero"/><path fill="#231d93" d="M 404.542969 121.035156 C 401.152344 121.035156 398.394531 118.28125 398.394531 114.894531 C 398.394531 111.507812 401.152344 108.753906 404.542969 108.753906 C 407.933594 108.753906 410.691406 111.507812 410.691406 114.894531 C 410.691406 118.28125 407.933594 121.035156 404.542969 121.035156 Z M 404.542969 111.332031 C 402.578125 111.332031 400.976562 112.929688 400.976562 114.894531 C 400.976562 116.859375 402.578125 118.457031 404.542969 118.457031 C 406.511719 118.457031 408.109375 116.859375 408.109375 114.894531 C 408.109375 112.929688 406.511719 111.332031 404.542969 111.332031 Z M 404.542969 111.332031 " fill-opacity="1" fill-rule="nonzero"/><path fill="#ffffff" d="M 415.660156 53.820312 C 415.660156 54.382812 415.605469 54.9375 415.496094 55.484375 C 415.386719 56.035156 415.226562 56.566406 415.011719 57.082031 C 414.796875 57.601562 414.535156 58.089844 414.222656 58.554688 C 413.910156 59.019531 413.558594 59.453125 413.160156 59.847656 C 412.765625 60.242188 412.335938 60.597656 411.867188 60.90625 C 411.402344 61.21875 410.910156 61.480469 410.394531 61.695312 C 409.875 61.910156 409.34375 62.070312 408.792969 62.179688 C 408.242188 62.289062 407.6875 62.34375 407.128906 62.34375 C 406.566406 62.34375 406.011719 62.289062 405.464844 62.179688 C 404.914062 62.070312 404.378906 61.910156 403.863281 61.695312 C 403.34375 61.480469 402.851562 61.21875 402.386719 60.90625 C 401.921875 60.597656 401.492188 60.242188 401.09375 59.847656 C 400.699219 59.453125 400.34375 59.019531 400.03125 58.554688 C 399.722656 58.089844 399.457031 57.601562 399.246094 57.082031 C 399.03125 56.566406 398.867188 56.035156 398.757812 55.484375 C 398.648438 54.9375 398.59375 54.382812 398.59375 53.820312 C 398.59375 53.261719 398.648438 52.707031 398.757812 52.160156 C 398.867188 51.609375 399.03125 51.078125 399.246094 50.5625 C 399.457031 50.042969 399.722656 49.554688 400.03125 49.089844 C 400.34375 48.625 400.699219 48.191406 401.09375 47.796875 C 401.492188 47.402344 401.921875 47.046875 402.386719 46.738281 C 402.851562 46.425781 403.34375 46.164062 403.863281 45.949219 C 404.378906 45.734375 404.914062 45.574219 405.464844 45.464844 C 406.011719 45.355469 406.566406 45.300781 407.128906 45.300781 C 407.6875 45.300781 408.242188 45.355469 408.792969 45.464844 C 409.34375 45.574219 409.875 45.734375 410.394531 45.949219 C 410.910156 46.164062 411.402344 46.425781 411.867188 46.738281 C 412.335938 47.046875 412.765625 47.402344 413.160156 47.796875 C 413.558594 48.191406 413.910156 48.625 414.222656 49.089844 C 414.535156 49.554688 414.796875 50.042969 415.011719 50.5625 C 415.226562 51.078125 415.386719 51.609375 415.496094 52.160156 C 415.605469 52.707031 415.660156 53.261719 415.660156 53.820312 Z M 415.660156 53.820312 " fill-opacity="1" fill-rule="nonzero"/><path fill="#231d93" d="M 407.128906 63.632812 C 401.710938 63.632812 397.304688 59.230469 397.304688 53.820312 C 397.304688 48.414062 401.710938 44.011719 407.128906 44.011719 C 412.546875 44.011719 416.953125 48.414062 416.953125 53.820312 C 416.953125 59.230469 412.546875 63.632812 407.128906 63.632812 Z M 407.128906 46.589844 C 403.132812 46.589844 399.886719 49.835938 399.886719 53.824219 C 399.886719 57.808594 403.132812 61.054688 407.128906 61.054688 C 411.121094 61.054688 414.371094 57.808594 414.371094 53.824219 C 414.371094 49.835938 411.121094 46.589844 407.128906 46.589844 Z M 407.128906 46.589844 " fill-opacity="1" fill-rule="nonzero"/><path fill="#ffce78" d="M 419.609375 77.339844 L 433.113281 86.132812 L 425.101562 100.894531 C 424.03125 102.859375 424.761719 105.316406 426.722656 106.390625 L 435.679688 111.269531 L 439.863281 113.542969 C 438.105469 117.050781 439.4375 121.34375 442.921875 123.222656 L 450.136719 109.898438 L 443.8125 106.460938 L 434.144531 101.207031 L 440.75 89.035156 C 442.449219 88.746094 444.015625 87.773438 445.023438 86.21875 C 446.964844 83.253906 446.128906 79.277344 443.152344 77.34375 L 422.183594 63.695312 C 419.210938 61.765625 414.839844 62.382812 413.292969 65.566406 C 411.65625 68.925781 413.519531 83.316406 413.519531 83.316406 L 399.75 83.320312 C 396.53125 83.320312 393.960938 86.179688 393.960938 89.394531 L 416.566406 89.394531 C 418.242188 89.394531 419.609375 88.035156 419.609375 86.355469 L 419.609375 67.707031 Z M 419.609375 77.339844 " fill-opacity="1" fill-rule="nonzero"/><path fill="#231d93" d="M 442.921875 124.511719 C 442.714844 124.511719 442.503906 124.460938 442.308594 124.355469 C 440.328125 123.289062 438.867188 121.523438 438.195312 119.378906 C 437.652344 117.644531 437.667969 115.820312 438.230469 114.125 L 435.0625 112.398438 L 426.105469 107.523438 C 423.519531 106.109375 422.5625 102.859375 423.964844 100.28125 L 431.414062 86.5625 L 420.898438 79.71875 L 420.898438 86.355469 C 420.898438 88.742188 418.953125 90.683594 416.566406 90.683594 L 393.960938 90.683594 C 393.25 90.683594 392.671875 90.105469 392.671875 89.394531 C 392.671875 85.402344 395.914062 82.03125 399.75 82.03125 L 412.066406 82.027344 C 411.90625 80.589844 411.667969 78.257812 411.503906 75.785156 C 410.960938 67.410156 411.839844 65.597656 412.128906 65.003906 C 412.945312 63.332031 414.4375 62.117188 416.332031 61.59375 C 418.515625 60.988281 420.96875 61.367188 422.886719 62.617188 L 443.855469 76.265625 C 445.582031 77.386719 446.769531 79.113281 447.195312 81.128906 C 447.621094 83.144531 447.234375 85.203125 446.105469 86.925781 C 445.0625 88.53125 443.445312 89.6875 441.601562 90.167969 L 435.890625 100.6875 L 450.753906 108.765625 C 451.378906 109.105469 451.613281 109.886719 451.273438 110.511719 L 444.058594 123.835938 C 443.824219 124.265625 443.378906 124.511719 442.921875 124.511719 Z M 420.898438 76.640625 L 433.820312 85.050781 C 434.382812 85.417969 434.570312 86.15625 434.25 86.746094 L 426.234375 101.507812 C 425.507812 102.847656 426.003906 104.527344 427.34375 105.261719 L 436.296875 110.136719 L 440.480469 112.410156 C 441.09375 112.742188 441.332031 113.5 441.019531 114.121094 C 439.753906 116.644531 440.40625 119.597656 442.464844 121.355469 L 448.390625 110.414062 L 433.527344 102.335938 C 432.898438 101.996094 432.667969 101.214844 433.007812 100.589844 L 439.617188 88.421875 C 439.804688 88.074219 440.140625 87.832031 440.53125 87.765625 C 441.949219 87.523438 443.160156 86.726562 443.941406 85.519531 C 444.695312 84.367188 444.953125 83 444.667969 81.660156 C 444.386719 80.320312 443.597656 79.171875 442.449219 78.425781 L 421.480469 64.777344 C 420.171875 63.925781 418.503906 63.664062 417.023438 64.078125 C 416.195312 64.308594 415.074219 64.851562 414.453125 66.128906 C 413.386719 68.324219 414.101562 77.734375 414.800781 83.148438 C 414.847656 83.519531 414.738281 83.886719 414.492188 84.167969 C 414.246094 84.445312 413.894531 84.605469 413.523438 84.605469 L 399.753906 84.613281 C 397.730469 84.613281 395.96875 86.113281 395.425781 88.105469 L 416.566406 88.105469 C 417.53125 88.105469 418.316406 87.320312 418.316406 86.355469 L 418.316406 77.355469 C 418.316406 77.34375 418.316406 77.332031 418.316406 77.316406 L 418.316406 67.707031 C 418.316406 66.996094 418.894531 66.417969 419.609375 66.417969 C 420.320312 66.417969 420.898438 66.996094 420.898438 67.707031 Z M 420.898438 76.640625 " fill-opacity="1" fill-rule="nonzero"/><path fill="#ff9b80" d="M 441.445312 98.328125 L 453.003906 98.328125 L 453.003906 92.769531 L 438.722656 92.769531 Z M 441.445312 98.328125 " fill-opacity="1" fill-rule="nonzero"/><path fill="#231d93" d="M 453.003906 99.617188 L 441.445312 99.617188 C 440.734375 99.617188 440.15625 99.039062 440.15625 98.328125 C 440.15625 97.617188 440.734375 97.039062 441.445312 97.039062 L 451.714844 97.039062 L 451.714844 94.058594 L 438.722656 94.058594 C 438.007812 94.058594 437.429688 93.480469 437.429688 92.769531 C 437.429688 92.058594 438.007812 91.480469 438.722656 91.480469 L 453.003906 91.480469 C 453.71875 91.480469 454.296875 92.058594 454.296875 92.769531 L 454.296875 98.328125 C 454.296875 99.039062 453.71875 99.617188 453.003906 99.617188 Z M 453.003906 99.617188 " fill-opacity="1" fill-rule="nonzero"/><path fill="#231d93" d="M 404.542969 116.183594 C 404.296875 116.183594 404.042969 116.109375 403.820312 115.960938 C 403.230469 115.558594 403.078125 114.757812 403.476562 114.167969 L 406.203125 110.15625 L 413.539062 99.347656 L 418.421875 92.140625 C 418.429688 92.132812 418.433594 92.125 418.441406 92.113281 L 418.507812 92.019531 C 418.75 91.679688 419.144531 91.480469 419.558594 91.480469 L 429.507812 91.480469 C 430.222656 91.480469 430.800781 92.058594 430.800781 92.769531 C 430.800781 93.480469 430.222656 94.058594 429.507812 94.058594 L 420.242188 94.058594 L 415.679688 100.792969 L 408.339844 111.605469 L 405.613281 115.617188 C 405.363281 115.984375 404.957031 116.183594 404.542969 116.183594 Z M 404.542969 116.183594 " fill-opacity="1" fill-rule="nonzero"/><path fill="#231d93" d="M 409.9375 84.601562 C 409.605469 84.601562 409.277344 84.476562 409.023438 84.226562 L 404.894531 80.101562 L 396.65625 77.289062 C 395.980469 77.058594 395.621094 76.328125 395.851562 75.652344 C 396.082031 74.980469 396.816406 74.621094 397.492188 74.851562 L 406.011719 77.757812 C 406.199219 77.824219 406.367188 77.929688 406.507812 78.066406 L 410.847656 82.402344 C 411.351562 82.90625 411.351562 83.722656 410.847656 84.226562 C 410.597656 84.476562 410.265625 84.601562 409.9375 84.601562 Z M 409.9375 84.601562 " fill-opacity="1" fill-rule="nonzero"/><path fill="#231d93" d="M 425.984375 100.636719 C 425.65625 100.636719 425.324219 100.511719 425.074219 100.257812 L 415.105469 90.304688 C 414.597656 89.800781 414.597656 88.984375 415.105469 88.480469 C 415.609375 87.976562 416.425781 87.976562 416.929688 88.480469 L 426.898438 98.4375 C 427.402344 98.9375 427.402344 99.753906 426.898438 100.257812 C 426.644531 100.511719 426.316406 100.636719 425.984375 100.636719 Z M 425.984375 100.636719 " fill-opacity="1" fill-rule="nonzero"/><path fill="#ffce78" d="M 87.175781 100.058594 L 102.140625 100.035156 C 104.65625 100.035156 106.695312 102.0625 106.699219 104.558594 L 106.761719 121.292969 C 111.152344 121.429688 114.675781 125.03125 114.675781 129.453125 L 97.6875 129.453125 L 97.636719 109.097656 L 81.027344 109.117188 L 81.019531 109.117188 Z M 87.175781 100.058594 " fill-opacity="1" fill-rule="nonzero"/><path fill="#231d93" d="M 114.675781 130.742188 L 97.6875 130.742188 C 96.976562 130.742188 96.398438 130.167969 96.398438 129.457031 L 96.347656 110.386719 L 81.027344 110.40625 L 81.019531 109.117188 L 81.019531 107.828125 L 97.632812 107.804688 C 97.632812 107.804688 97.636719 107.804688 97.636719 107.804688 C 98.347656 107.804688 98.925781 108.382812 98.925781 109.09375 L 98.976562 128.164062 L 113.265625 128.164062 C 112.683594 125.042969 110.015625 122.683594 106.722656 122.582031 C 106.027344 122.5625 105.472656 121.992188 105.472656 121.296875 L 105.410156 104.5625 C 105.40625 102.777344 103.9375 101.324219 102.140625 101.324219 L 87.179688 101.347656 C 87.179688 101.347656 87.175781 101.347656 87.175781 101.347656 C 86.464844 101.347656 85.886719 100.773438 85.886719 100.0625 C 85.886719 99.347656 86.460938 98.769531 87.175781 98.769531 L 102.140625 98.746094 C 105.359375 98.746094 107.980469 101.351562 107.992188 104.554688 L 108.046875 120.125 C 110.035156 120.449219 111.867188 121.398438 113.292969 122.867188 C 115.015625 124.640625 115.96875 126.980469 115.96875 129.453125 C 115.964844 130.164062 115.390625 130.742188 114.675781 130.742188 Z M 114.675781 130.742188 " fill-opacity="1" fill-rule="nonzero"/><path fill="#ffce78" d="M 87.179688 100.058594 L 88.953125 78.417969 C 89.277344 74.59375 86.660156 71.03125 82.863281 70.472656 L 76.488281 70.472656 C 75.503906 70.472656 74.554688 70.855469 73.84375 71.53125 L 58.890625 85.742188 C 58.089844 86.480469 57.6875 87.566406 57.816406 88.65625 C 57.949219 89.742188 58.601562 90.699219 59.566406 91.226562 L 72.972656 98.578125 L 72.488281 104.839844 L 64.777344 112.492188 L 45 112.492188 L 45 129.457031 C 49.417969 129.457031 53.003906 125.964844 53.171875 121.605469 L 65.839844 121.621094 C 67.507812 121.632812 69.097656 120.972656 70.285156 119.804688 L 81.019531 109.121094 L 81.027344 109.121094 Z M 87.179688 100.058594 " fill-opacity="1" fill-rule="nonzero"/><path fill="#231d93" d="M 45 130.746094 C 44.289062 130.746094 43.710938 130.167969 43.710938 129.457031 L 43.710938 112.488281 C 43.710938 111.777344 44.289062 111.199219 45 111.199219 L 64.242188 111.199219 L 71.238281 104.265625 L 71.621094 99.308594 L 58.945312 92.355469 C 57.621094 91.632812 56.71875 90.308594 56.535156 88.8125 C 56.355469 87.320312 56.90625 85.824219 58.007812 84.804688 L 72.953125 70.597656 C 73.914062 69.683594 75.171875 69.183594 76.488281 69.183594 L 82.863281 69.183594 C 82.929688 69.183594 82.992188 69.1875 83.054688 69.195312 C 87.472656 69.847656 90.628906 73.949219 90.238281 78.527344 L 88.464844 100.164062 C 88.40625 100.875 87.78125 101.402344 87.074219 101.34375 C 86.363281 101.285156 85.832031 100.664062 85.890625 99.953125 L 87.667969 78.3125 C 87.9375 75.113281 85.789062 72.257812 82.765625 71.761719 L 76.488281 71.761719 C 75.84375 71.761719 75.207031 72.019531 74.730469 72.46875 L 59.78125 86.675781 C 59.777344 86.683594 59.769531 86.6875 59.765625 86.691406 C 59.265625 87.152344 59.019531 87.828125 59.101562 88.5 C 59.179688 89.171875 59.585938 89.769531 60.183594 90.09375 L 73.59375 97.449219 C 74.039062 97.691406 74.300781 98.171875 74.261719 98.675781 L 73.777344 104.941406 C 73.753906 105.25 73.617188 105.539062 73.398438 105.753906 L 65.6875 113.40625 C 65.445312 113.644531 65.117188 113.78125 64.777344 113.78125 L 46.292969 113.78125 L 46.292969 128.046875 C 49.394531 127.464844 51.753906 124.824219 51.882812 121.554688 C 51.90625 120.863281 52.476562 120.316406 53.171875 120.316406 L 65.839844 120.332031 C 65.851562 120.332031 65.859375 120.332031 65.867188 120.332031 C 67.1875 120.332031 68.429688 119.820312 69.378906 118.886719 L 80.109375 108.207031 C 80.351562 107.96875 80.679688 107.832031 81.019531 107.832031 C 81.734375 107.832031 82.316406 108.410156 82.316406 109.121094 C 82.316406 109.519531 82.136719 109.875 81.855469 110.109375 L 71.195312 120.71875 C 69.757812 122.136719 67.867188 122.910156 65.871094 122.910156 C 65.859375 122.910156 65.847656 122.910156 65.832031 122.910156 L 54.332031 122.894531 C 53.570312 127.386719 49.6875 130.746094 45 130.746094 Z M 45 130.746094 " fill-opacity="1" fill-rule="nonzero"/><path fill="#231d93" d="M 76.785156 101.460938 C 75.984375 101.460938 75.203125 101.261719 74.507812 100.886719 L 72.351562 99.707031 C 71.726562 99.367188 71.5 98.582031 71.839844 97.957031 C 72.183594 97.335938 72.964844 97.105469 73.59375 97.445312 L 75.746094 98.621094 C 76.097656 98.8125 76.488281 98.902344 76.90625 98.878906 C 77.636719 98.824219 78.277344 98.414062 78.621094 97.785156 C 79.183594 96.761719 78.804688 95.460938 77.78125 94.878906 L 72.917969 92.226562 L 66.378906 88.65625 C 66.015625 88.457031 65.769531 88.09375 65.71875 87.683594 C 65.667969 87.269531 65.816406 86.859375 66.121094 86.578125 L 73.457031 79.8125 L 78.203125 75.4375 C 78.726562 74.953125 79.542969 74.984375 80.027344 75.507812 C 80.511719 76.03125 80.476562 76.847656 79.953125 77.328125 L 69.195312 87.253906 L 74.15625 89.964844 L 79.03125 92.621094 C 79.035156 92.625 79.042969 92.628906 79.046875 92.632812 C 81.296875 93.902344 82.121094 96.769531 80.886719 99.019531 C 80.117188 100.429688 78.695312 101.335938 77.078125 101.449219 C 77.070312 101.453125 77.066406 101.453125 77.058594 101.453125 C 76.96875 101.457031 76.878906 101.460938 76.785156 101.460938 Z M 76.785156 101.460938 " fill-opacity="1" fill-rule="nonzero"/><path fill="#ffffff" d="M 84.929688 46.78125 C 85.570312 46.894531 86.195312 47.070312 86.804688 47.308594 C 87.410156 47.542969 87.988281 47.839844 88.539062 48.1875 C 89.085938 48.539062 89.597656 48.941406 90.066406 49.390625 C 90.535156 49.839844 90.957031 50.332031 91.332031 50.867188 C 91.703125 51.402344 92.023438 51.964844 92.285156 52.5625 C 92.546875 53.15625 92.746094 53.773438 92.886719 54.410156 C 93.027344 55.046875 93.101562 55.6875 93.117188 56.339844 C 93.128906 56.988281 93.078125 57.636719 92.964844 58.277344 C 92.851562 58.917969 92.675781 59.539062 92.4375 60.144531 C 92.199219 60.753906 91.90625 61.328125 91.554688 61.878906 C 91.203125 62.425781 90.804688 62.933594 90.351562 63.40625 C 89.902344 63.875 89.40625 64.296875 88.875 64.667969 C 88.339844 65.039062 87.773438 65.355469 87.175781 65.617188 C 86.578125 65.878906 85.960938 66.078125 85.328125 66.21875 C 84.691406 66.359375 84.046875 66.4375 83.394531 66.449219 C 82.742188 66.464844 82.097656 66.414062 81.453125 66.296875 C 80.8125 66.183594 80.1875 66.007812 79.582031 65.773438 C 78.972656 65.535156 78.394531 65.242188 77.847656 64.890625 C 77.296875 64.542969 76.789062 64.140625 76.316406 63.691406 C 75.847656 63.238281 75.425781 62.746094 75.054688 62.214844 C 74.679688 61.679688 74.363281 61.113281 74.101562 60.519531 C 73.839844 59.921875 73.636719 59.308594 73.5 58.671875 C 73.359375 58.035156 73.28125 57.390625 73.269531 56.742188 C 73.253906 56.089844 73.304688 55.445312 73.417969 54.804688 C 73.535156 54.164062 73.710938 53.539062 73.945312 52.933594 C 74.183594 52.328125 74.476562 51.75 74.828125 51.203125 C 75.179688 50.652344 75.582031 50.144531 76.03125 49.675781 C 76.484375 49.207031 76.976562 48.785156 77.511719 48.414062 C 78.046875 48.039062 78.609375 47.722656 79.207031 47.460938 C 79.804688 47.199219 80.421875 47 81.058594 46.859375 C 81.695312 46.722656 82.339844 46.644531 82.992188 46.632812 C 83.640625 46.617188 84.289062 46.667969 84.929688 46.78125 Z M 84.929688 46.78125 " fill-opacity="1" fill-rule="nonzero"/><path fill="#231d93" d="M 83.199219 67.730469 C 77.015625 67.730469 71.984375 62.703125 71.984375 56.527344 C 71.984375 50.351562 77.015625 45.328125 83.199219 45.328125 C 89.386719 45.328125 94.417969 50.351562 94.417969 56.527344 C 94.417969 62.703125 89.386719 67.730469 83.199219 67.730469 Z M 83.199219 47.90625 C 78.4375 47.90625 74.566406 51.773438 74.566406 56.527344 C 74.566406 61.28125 78.4375 65.152344 83.199219 65.152344 C 87.960938 65.152344 91.835938 61.28125 91.835938 56.527344 C 91.835938 51.773438 87.960938 47.90625 83.199219 47.90625 Z M 83.199219 47.90625 " fill-opacity="1" fill-rule="nonzero"/><path fill="#ffffff" d="M 211.8125 86.597656 C 211.8125 87.292969 211.746094 87.984375 211.609375 88.671875 C 211.472656 89.355469 211.269531 90.019531 211.003906 90.664062 C 210.734375 91.308594 210.40625 91.921875 210.019531 92.503906 C 209.632812 93.082031 209.191406 93.621094 208.695312 94.113281 C 208.203125 94.605469 207.664062 95.046875 207.082031 95.433594 C 206.5 95.824219 205.886719 96.148438 205.242188 96.417969 C 204.597656 96.683594 203.929688 96.886719 203.246094 97.023438 C 202.558594 97.15625 201.867188 97.226562 201.167969 97.226562 C 200.46875 97.226562 199.777344 97.15625 199.09375 97.023438 C 198.40625 96.886719 197.742188 96.683594 197.09375 96.417969 C 196.449219 96.148438 195.835938 95.824219 195.253906 95.433594 C 194.671875 95.046875 194.136719 94.605469 193.640625 94.113281 C 193.148438 93.621094 192.707031 93.082031 192.316406 92.503906 C 191.929688 91.921875 191.601562 91.308594 191.335938 90.664062 C 191.066406 90.019531 190.863281 89.355469 190.730469 88.671875 C 190.59375 87.984375 190.523438 87.292969 190.523438 86.597656 C 190.523438 85.898438 190.59375 85.207031 190.730469 84.523438 C 190.863281 83.839844 191.066406 83.175781 191.335938 82.53125 C 191.601562 81.882812 191.929688 81.273438 192.316406 80.691406 C 192.707031 80.113281 193.148438 79.574219 193.640625 79.082031 C 194.136719 78.585938 194.671875 78.148438 195.253906 77.757812 C 195.835938 77.371094 196.449219 77.042969 197.09375 76.777344 C 197.742188 76.511719 198.40625 76.308594 199.09375 76.171875 C 199.777344 76.035156 200.46875 75.96875 201.167969 75.96875 C 201.867188 75.96875 202.558594 76.035156 203.246094 76.171875 C 203.929688 76.308594 204.597656 76.511719 205.242188 76.777344 C 205.886719 77.042969 206.5 77.371094 207.082031 77.757812 C 207.664062 78.148438 208.203125 78.585938 208.695312 79.082031 C 209.191406 79.574219 209.632812 80.113281 210.019531 80.691406 C 210.40625 81.273438 210.734375 81.882812 211.003906 82.53125 C 211.269531 83.175781 211.472656 83.839844 211.609375 84.523438 C 211.746094 85.207031 211.8125 85.898438 211.8125 86.597656 Z M 211.8125 86.597656 " fill-opacity="1" fill-rule="nonzero"/><path fill="#231d93" d="M 201.167969 98.515625 C 194.585938 98.515625 189.234375 93.167969 189.234375 86.597656 C 189.234375 80.023438 194.585938 74.679688 201.167969 74.679688 C 207.75 74.679688 213.105469 80.023438 213.105469 86.597656 C 213.105469 93.167969 207.75 98.515625 201.167969 98.515625 Z M 201.167969 77.257812 C 196.011719 77.257812 191.816406 81.445312 191.816406 86.597656 C 191.816406 91.746094 196.011719 95.9375 201.167969 95.9375 C 206.328125 95.9375 210.523438 91.746094 210.523438 86.597656 C 210.523438 81.445312 206.328125 77.257812 201.167969 77.257812 Z M 201.167969 77.257812 " fill-opacity="1" fill-rule="nonzero"/><path fill="#9fabff" d="M 234.148438 119.210938 L 198.996094 119.210938 L 198.996094 102.738281 L 221.96875 102.738281 L 251.945312 72.8125 C 251.964844 72.796875 251.972656 72.789062 251.988281 72.78125 C 251.988281 72.773438 251.996094 72.773438 251.996094 72.773438 L 247.019531 91.964844 L 234.148438 104.816406 Z M 234.148438 119.210938 " fill-opacity="1" fill-rule="nonzero"/><path fill="#231d93" d="M 234.148438 120.5 L 198.996094 120.5 C 198.285156 120.5 197.707031 119.921875 197.707031 119.210938 L 197.707031 102.738281 C 197.707031 102.023438 198.285156 101.449219 198.996094 101.449219 L 221.4375 101.449219 L 251.035156 71.898438 C 251.066406 71.867188 251.132812 71.804688 251.230469 71.734375 C 251.445312 71.574219 251.710938 71.484375 251.996094 71.484375 C 252.394531 71.484375 252.769531 71.667969 253.015625 71.984375 C 253.261719 72.296875 253.34375 72.707031 253.246094 73.09375 L 248.269531 92.289062 C 248.210938 92.511719 248.097656 92.714844 247.933594 92.875 L 235.4375 105.351562 L 235.4375 109.140625 C 235.4375 109.851562 234.859375 110.429688 234.148438 110.429688 C 233.433594 110.429688 232.855469 109.851562 232.855469 109.140625 L 232.855469 104.816406 C 232.855469 104.476562 232.992188 104.148438 233.234375 103.90625 L 245.859375 91.300781 L 249.5625 77.015625 L 222.882812 103.648438 C 222.640625 103.890625 222.3125 104.027344 221.96875 104.027344 L 200.289062 104.027344 L 200.289062 117.921875 L 234.148438 117.921875 C 234.859375 117.921875 235.4375 118.496094 235.4375 119.210938 C 235.4375 119.921875 234.859375 120.5 234.148438 120.5 Z M 234.148438 120.5 " fill-opacity="1" fill-rule="nonzero"/><path fill="#ff9b80" d="M 264.835938 119.210938 C 269.273438 121.464844 274.296875 122.742188 279.617188 122.742188 C 297.648438 122.742188 312.261719 108.140625 312.261719 90.144531 C 312.261719 72.140625 297.648438 57.550781 279.617188 57.550781 C 267.988281 57.550781 257.777344 63.625 251.996094 72.773438 C 251.996094 72.773438 251.988281 72.773438 251.988281 72.78125 C 248.808594 77.8125 246.972656 83.757812 246.972656 90.144531 C 246.972656 90.761719 246.988281 91.367188 247.019531 91.964844 C 247.371094 98.351562 249.574219 104.25 253.097656 109.140625 Z M 264.835938 119.210938 " fill-opacity="1" fill-rule="nonzero"/><path fill="#231d93" d="M 279.617188 124.03125 C 274.214844 124.03125 269.042969 122.796875 264.25 120.359375 C 263.613281 120.035156 263.363281 119.257812 263.683594 118.625 C 264.007812 117.992188 264.785156 117.738281 265.421875 118.0625 C 269.851562 120.3125 274.625 121.453125 279.617188 121.453125 C 296.902344 121.453125 310.96875 107.410156 310.96875 90.144531 C 310.96875 72.882812 296.902344 58.839844 279.617188 58.839844 C 268.792969 58.839844 258.875 64.304688 253.085938 73.460938 C 253.074219 73.480469 253.058594 73.503906 253.042969 73.523438 C 249.914062 78.5 248.261719 84.246094 248.261719 90.144531 C 248.261719 90.734375 248.277344 91.324219 248.308594 91.894531 C 248.636719 97.839844 250.652344 103.542969 254.144531 108.386719 C 254.5625 108.964844 254.429688 109.769531 253.851562 110.1875 C 253.273438 110.601562 252.464844 110.46875 252.050781 109.890625 C 248.269531 104.648438 246.085938 98.472656 245.730469 92.035156 C 245.699219 91.414062 245.679688 90.78125 245.679688 90.144531 C 245.679688 83.734375 247.484375 77.492188 250.894531 72.09375 C 250.910156 72.070312 250.921875 72.050781 250.9375 72.03125 C 253.9375 67.304688 258.101562 63.355469 262.980469 60.609375 C 268.03125 57.765625 273.785156 56.261719 279.617188 56.261719 C 288.679688 56.261719 297.203125 59.785156 303.613281 66.183594 C 310.019531 72.585938 313.550781 81.09375 313.550781 90.144531 C 313.550781 99.195312 310.019531 107.703125 303.613281 114.105469 C 297.203125 120.503906 288.679688 124.03125 279.617188 124.03125 Z M 279.617188 124.03125 " fill-opacity="1" fill-rule="nonzero"/><path fill="#231d93" d="M 299.714844 90.097656 C 299 90.097656 298.421875 89.523438 298.421875 88.808594 C 298.421875 87.078125 298.171875 85.367188 297.679688 83.726562 C 297.128906 81.902344 296.285156 80.183594 295.171875 78.621094 C 291.867188 73.976562 286.492188 71.207031 280.792969 71.207031 C 280.082031 71.207031 279.503906 70.628906 279.503906 69.917969 C 279.503906 69.203125 280.082031 68.628906 280.792969 68.628906 C 287.324219 68.628906 293.488281 71.804688 297.277344 77.128906 C 298.550781 78.917969 299.519531 80.890625 300.148438 82.984375 C 300.71875 84.867188 301.003906 86.828125 301.003906 88.808594 C 301.003906 89.523438 300.425781 90.097656 299.714844 90.097656 Z M 299.714844 90.097656 " fill-opacity="1" fill-rule="nonzero"/><path fill="#9fabff" d="M 234.148438 109.140625 L 266.941406 109.140625 C 266.941406 104.195312 270.953125 100.191406 275.902344 100.191406 L 275.714844 119.210938 L 234.148438 119.210938 Z M 234.148438 109.140625 " fill-opacity="1" fill-rule="nonzero"/><path fill="#231d93" d="M 275.714844 120.5 L 234.148438 120.5 C 233.433594 120.5 232.855469 119.921875 232.855469 119.210938 C 232.855469 118.496094 233.433594 117.921875 234.148438 117.921875 L 274.4375 117.921875 L 274.597656 101.589844 C 270.988281 102.210938 268.234375 105.359375 268.234375 109.140625 C 268.234375 109.851562 267.65625 110.429688 266.941406 110.429688 L 234.148438 110.429688 C 233.433594 110.429688 232.855469 109.851562 232.855469 109.140625 C 232.855469 108.425781 233.433594 107.851562 234.148438 107.851562 L 265.730469 107.851562 C 266.367188 102.8125 270.6875 98.902344 275.90625 98.902344 C 276.25 98.902344 276.578125 99.039062 276.820312 99.28125 C 277.0625 99.527344 277.199219 99.859375 277.195312 100.203125 L 277.007812 119.222656 C 277 119.929688 276.425781 120.5 275.714844 120.5 Z M 275.714844 120.5 " fill-opacity="1" fill-rule="nonzero"/><path fill="#9fabff" d="M 222.089844 122.671875 L 195.402344 122.671875 C 193.421875 122.671875 191.808594 121.066406 191.808594 119.082031 L 191.808594 104.242188 C 191.808594 102.257812 193.421875 100.65625 195.402344 100.65625 C 197.390625 100.65625 198.996094 102.257812 198.996094 104.242188 L 198.996094 115.492188 L 215.253906 115.503906 C 217.824219 115.503906 220.039062 117.039062 221.203125 119.210938 C 221.769531 120.253906 222.089844 121.441406 222.089844 122.671875 Z M 222.089844 122.671875 " fill-opacity="1" fill-rule="nonzero"/><path fill="#231d93" d="M 222.089844 123.960938 L 195.402344 123.960938 C 192.710938 123.960938 190.519531 121.773438 190.519531 119.082031 L 190.519531 104.242188 C 190.519531 101.554688 192.710938 99.367188 195.402344 99.367188 C 198.097656 99.367188 200.289062 101.554688 200.289062 104.242188 L 200.289062 114.207031 L 215.253906 114.214844 C 218.171875 114.214844 220.886719 115.894531 222.339844 118.601562 C 223.019531 119.851562 223.382812 121.261719 223.382812 122.671875 C 223.382812 123.382812 222.804688 123.960938 222.089844 123.960938 Z M 195.402344 101.945312 C 194.132812 101.945312 193.101562 102.976562 193.101562 104.242188 L 193.101562 119.082031 C 193.101562 120.351562 194.132812 121.382812 195.402344 121.382812 L 220.65625 121.382812 C 220.535156 120.84375 220.335938 120.316406 220.070312 119.824219 C 219.0625 117.953125 217.21875 116.792969 215.253906 116.792969 L 198.996094 116.785156 C 198.285156 116.78125 197.707031 116.207031 197.707031 115.492188 L 197.707031 104.242188 C 197.707031 102.976562 196.671875 101.945312 195.402344 101.945312 Z M 195.402344 101.945312 " fill-opacity="1" fill-rule="nonzero"/></svg>