<svg xmlns="http://www.w3.org/2000/svg" xmlns:xlink="http://www.w3.org/1999/xlink" width="225" zoomAndPan="magnify" viewBox="0 0 168.75 38.249999" height="51" preserveAspectRatio="xMidYMid meet" version="1.0"><defs><filter x="0%" y="0%" width="100%" height="100%" id="e0360e1756"><feColorMatrix values="0 0 0 0 1 0 0 0 0 1 0 0 0 0 1 0 0 0 1 0" color-interpolation-filters="sRGB"/></filter><g/><clipPath id="9eb79186d0"><path d="M 1.5 0 L 167.003906 0 L 167.003906 37.515625 L 1.5 37.515625 Z M 1.5 0 " clip-rule="nonzero"/></clipPath><clipPath id="a048639fb5"><path d="M 73.457031 7.246094 L 144.3125 7.246094 L 144.3125 33.691406 L 73.457031 33.691406 Z M 73.457031 7.246094 " clip-rule="nonzero"/></clipPath><clipPath id="beb750254c"><path d="M 74.191406 7.246094 L 143.484375 7.246094 C 143.679688 7.246094 143.867188 7.324219 144.003906 7.464844 C 144.140625 7.601562 144.21875 7.789062 144.21875 7.984375 L 144.21875 32.953125 C 144.21875 33.148438 144.140625 33.335938 144.003906 33.476562 C 143.867188 33.613281 143.679688 33.691406 143.484375 33.691406 L 74.191406 33.691406 C 73.996094 33.691406 73.808594 33.613281 73.671875 33.476562 C 73.53125 33.335938 73.457031 33.148438 73.457031 32.953125 L 73.457031 7.984375 C 73.457031 7.789062 73.53125 7.601562 73.671875 7.464844 C 73.808594 7.324219 73.996094 7.246094 74.191406 7.246094 Z M 74.191406 7.246094 " clip-rule="nonzero"/></clipPath><clipPath id="b9601138dc"><path d="M 73.460938 7.246094 L 144.070312 7.246094 L 144.070312 33.726562 L 73.460938 33.726562 Z M 73.460938 7.246094 " clip-rule="nonzero"/></clipPath><clipPath id="24e306ff5f"><path d="M 74.195312 7.246094 L 143.46875 7.246094 C 143.664062 7.246094 143.847656 7.324219 143.988281 7.464844 C 144.125 7.601562 144.203125 7.789062 144.203125 7.984375 L 144.203125 32.945312 C 144.203125 33.140625 144.125 33.328125 143.988281 33.46875 C 143.847656 33.605469 143.664062 33.683594 143.46875 33.683594 L 74.195312 33.683594 C 74 33.683594 73.816406 33.605469 73.675781 33.46875 C 73.539062 33.328125 73.460938 33.140625 73.460938 32.945312 L 73.460938 7.984375 C 73.460938 7.789062 73.539062 7.601562 73.675781 7.464844 C 73.816406 7.324219 74 7.246094 74.195312 7.246094 Z M 74.195312 7.246094 " clip-rule="nonzero"/></clipPath><clipPath id="3ec0bb8fae"><path d="M 4.226562 0 L 166.988281 0 L 166.988281 35.429688 L 4.226562 35.429688 Z M 4.226562 0 " clip-rule="nonzero"/></clipPath><clipPath id="f2ace14c49"><path d="M 4.960938 0 L 166.242188 0 C 166.4375 0 166.625 0.078125 166.761719 0.214844 C 166.898438 0.351562 166.976562 0.539062 166.976562 0.734375 L 166.976562 34.695312 C 166.976562 34.890625 166.898438 35.078125 166.761719 35.214844 C 166.625 35.351562 166.4375 35.429688 166.242188 35.429688 L 4.960938 35.429688 C 4.765625 35.429688 4.578125 35.351562 4.441406 35.214844 C 4.304688 35.078125 4.226562 34.890625 4.226562 34.695312 L 4.226562 0.734375 C 4.226562 0.539062 4.304688 0.351562 4.441406 0.214844 C 4.578125 0.078125 4.765625 0 4.960938 0 Z M 4.960938 0 " clip-rule="nonzero"/></clipPath><clipPath id="1683da4c11"><path d="M 4.242188 0 L 166.789062 0 L 166.789062 35.308594 L 4.242188 35.308594 Z M 4.242188 0 " clip-rule="nonzero"/></clipPath><clipPath id="503ff925b5"><path d="M 4.980469 0 L 166.222656 0 C 166.414062 0 166.601562 0.078125 166.742188 0.214844 C 166.878906 0.351562 166.957031 0.539062 166.957031 0.734375 L 166.957031 34.6875 C 166.957031 34.882812 166.878906 35.070312 166.742188 35.207031 C 166.601562 35.34375 166.414062 35.421875 166.222656 35.421875 L 4.980469 35.421875 C 4.785156 35.421875 4.597656 35.34375 4.457031 35.207031 C 4.320312 35.070312 4.242188 34.882812 4.242188 34.6875 L 4.242188 0.734375 C 4.242188 0.539062 4.320312 0.351562 4.457031 0.214844 C 4.597656 0.078125 4.785156 0 4.980469 0 Z M 4.980469 0 " clip-rule="nonzero"/></clipPath><clipPath id="dec72e6b03"><path d="M 139.445312 0 L 155.210938 0 L 155.210938 19 L 139.445312 19 Z M 139.445312 0 " clip-rule="nonzero"/></clipPath><clipPath id="eda955b6a2"><path d="M 139.445312 8 L 149 8 L 149 24.273438 L 139.445312 24.273438 Z M 139.445312 8 " clip-rule="nonzero"/></clipPath><clipPath id="f932698972"><path d="M 139.445312 0 L 148 0 L 148 8 L 139.445312 8 Z M 139.445312 0 " clip-rule="nonzero"/></clipPath><clipPath id="26c527cf63"><path d="M 2.605469 -13.730469 L 13.085938 -13.730469 L 13.085938 1.960938 L 2.605469 1.960938 Z M 2.605469 -13.730469 " clip-rule="nonzero"/></clipPath><mask id="f3b77244b0"><g><g filter="url(#e0360e1756)"><g transform="matrix(1, 0, 0, 1, -0.000000000000000444, 0)"><g><g clip-path="url(#26c527cf63)"><path fill="#3b88c3" d="M 12.824219 0.476562 C 13 0.648438 13.085938 0.851562 13.085938 1.085938 C 13.085938 1.324219 13 1.527344 12.824219 1.699219 C 12.652344 1.875 12.441406 1.960938 12.195312 1.960938 L 3.492188 1.960938 C 3.25 1.960938 3.039062 1.875 2.867188 1.699219 C 2.691406 1.527344 2.605469 1.324219 2.605469 1.085938 C 2.605469 0.851562 2.691406 0.648438 2.867188 0.476562 C 3.039062 0.300781 3.25 0.214844 3.492188 0.214844 L 12.195312 0.214844 C 12.441406 0.214844 12.652344 0.300781 12.824219 0.476562 Z M 12.824219 -13.46875 C 13 -13.292969 13.085938 -13.089844 13.085938 -12.855469 C 13.085938 -12.621094 13 -12.417969 12.824219 -12.242188 C 12.652344 -12.070312 12.441406 -11.980469 12.195312 -11.980469 L 3.492188 -11.980469 C 3.25 -11.980469 3.039062 -12.070312 2.867188 -12.242188 C 2.691406 -12.417969 2.605469 -12.621094 2.605469 -12.855469 C 2.605469 -13.089844 2.691406 -13.292969 2.867188 -13.46875 C 3.039062 -13.640625 3.25 -13.730469 3.492188 -13.730469 L 12.195312 -13.730469 C 12.441406 -13.730469 12.652344 -13.640625 12.824219 -13.46875 Z M 12.824219 -13.46875 " fill-opacity="1" fill-rule="nonzero"/></g></g></g></g></g></mask><clipPath id="b12f9c3aa2"><path d="M 7 -13.730469 L 15.691406 -13.730469 L 15.691406 -7 L 7 -7 Z M 7 -13.730469 " clip-rule="nonzero"/></clipPath><mask id="295c2f89ab"><g><g filter="url(#e0360e1756)"><g transform="matrix(1, 0, 0, 1, 0, 0)"><g><g clip-path="url(#b12f9c3aa2)"><path fill="#3b88c3" d="M 10.910156 -13.730469 L 15.691406 -13.730469 L 10.726562 -7.691406 L 10.203125 -7.046875 L 7.84375 -10.234375 Z M 10.910156 -13.730469 " fill-opacity="1" fill-rule="nonzero"/></g></g></g></g></g></mask></defs><g clip-path="url(#9eb79186d0)"><path fill="#ffffff" d="M 1.5 0 L 167.003906 0 L 167.003906 37.515625 L 1.5 37.515625 Z M 1.5 0 " fill-opacity="1" fill-rule="nonzero"/></g><g clip-path="url(#a048639fb5)"><g clip-path="url(#beb750254c)"><path fill="#fefefe" d="M 73.457031 7.246094 L 144.210938 7.246094 L 144.210938 33.691406 L 73.457031 33.691406 Z M 73.457031 7.246094 " fill-opacity="1" fill-rule="nonzero"/></g></g><g clip-path="url(#b9601138dc)"><g clip-path="url(#24e306ff5f)"><path stroke-linecap="butt" transform="matrix(0.735577, 0, 0, 0.735577, 73.461179, 7.247532)" fill="none" stroke-linejoin="miter" d="M 0.998037 -0.00195536 L 95.173697 -0.00195536 C 95.43922 -0.00195536 95.688812 0.104254 95.879988 0.29543 C 96.065854 0.481296 96.172063 0.736198 96.172063 1.001721 L 96.172063 34.935547 C 96.172063 35.20107 96.065854 35.455972 95.879988 35.647148 C 95.688812 35.833014 95.43922 35.939224 95.173697 35.939224 L 0.998037 35.939224 C 0.732514 35.939224 0.482923 35.833014 0.291746 35.647148 C 0.10588 35.455972 -0.000328746 35.20107 -0.000328746 34.935547 L -0.000328746 1.001721 C -0.000328746 0.736198 0.10588 0.481296 0.291746 0.29543 C 0.482923 0.104254 0.732514 -0.00195536 0.998037 -0.00195536 Z M 0.998037 -0.00195536 " stroke="#737373" stroke-width="2" stroke-opacity="1" stroke-miterlimit="4"/></g></g><g fill="#000000" fill-opacity="1"><g transform="translate(80.648389, 25.736565)"><g><rect x="-1.1" width="1.2" height="1.2" y="-1.1" mask="url(#f3b77244b0)"/></g></g></g><g fill="#000000" fill-opacity="1"><g transform="translate(96.336865, 25.736565)"><g><path d="M 8.21875 -5.046875 C 8.21875 -4.222656 8.128906 -3.488281 7.953125 -2.84375 C 7.773438 -2.195312 7.515625 -1.648438 7.171875 -1.203125 C 6.828125 -0.753906 6.40625 -0.410156 5.90625 -0.171875 C 5.40625 0.0546875 4.835938 0.171875 4.203125 0.171875 C 3.648438 0.171875 3.140625 0.078125 2.671875 -0.109375 C 2.210938 -0.304688 1.8125 -0.613281 1.46875 -1.03125 C 1.132812 -1.445312 0.875 -1.976562 0.6875 -2.625 C 0.5 -3.269531 0.40625 -4.046875 0.40625 -4.953125 C 0.40625 -5.773438 0.492188 -6.507812 0.671875 -7.15625 C 0.859375 -7.8125 1.117188 -8.359375 1.453125 -8.796875 C 1.796875 -9.242188 2.21875 -9.585938 2.71875 -9.828125 C 3.226562 -10.066406 3.796875 -10.1875 4.421875 -10.1875 C 4.972656 -10.1875 5.484375 -10.085938 5.953125 -9.890625 C 6.421875 -9.691406 6.820312 -9.382812 7.15625 -8.96875 C 7.488281 -8.5625 7.75 -8.03125 7.9375 -7.375 C 8.125 -6.726562 8.21875 -5.953125 8.21875 -5.046875 Z M 2.296875 -5.015625 C 2.296875 -4.910156 2.296875 -4.8125 2.296875 -4.71875 C 2.296875 -4.632812 2.300781 -4.546875 2.3125 -4.453125 L 6.0625 -7.171875 C 5.882812 -7.671875 5.644531 -8.039062 5.34375 -8.28125 C 5.050781 -8.53125 4.707031 -8.65625 4.3125 -8.65625 C 4.03125 -8.65625 3.765625 -8.582031 3.515625 -8.4375 C 3.265625 -8.289062 3.050781 -8.066406 2.875 -7.765625 C 2.695312 -7.460938 2.554688 -7.082031 2.453125 -6.625 C 2.347656 -6.175781 2.296875 -5.640625 2.296875 -5.015625 Z M 6.328125 -4.984375 C 6.328125 -5.066406 6.320312 -5.15625 6.3125 -5.25 C 6.3125 -5.34375 6.3125 -5.425781 6.3125 -5.5 L 2.59375 -2.8125 C 2.75 -2.3125 2.972656 -1.941406 3.265625 -1.703125 C 3.566406 -1.460938 3.914062 -1.34375 4.3125 -1.34375 C 4.59375 -1.34375 4.859375 -1.414062 5.109375 -1.5625 C 5.359375 -1.71875 5.570312 -1.941406 5.75 -2.234375 C 5.9375 -2.535156 6.078125 -2.914062 6.171875 -3.375 C 6.273438 -3.832031 6.328125 -4.367188 6.328125 -4.984375 Z M 6.328125 -4.984375 "/></g></g></g><g fill="#000000" fill-opacity="1"><g transform="translate(104.962462, 25.736565)"><g><path d="M 4.3125 -7.859375 C 4.507812 -7.859375 4.691406 -7.820312 4.859375 -7.75 C 5.023438 -7.675781 5.171875 -7.578125 5.296875 -7.453125 C 5.421875 -7.328125 5.515625 -7.179688 5.578125 -7.015625 C 5.648438 -6.847656 5.6875 -6.671875 5.6875 -6.484375 C 5.6875 -6.285156 5.648438 -6.101562 5.578125 -5.9375 C 5.515625 -5.769531 5.421875 -5.625 5.296875 -5.5 C 5.171875 -5.375 5.023438 -5.273438 4.859375 -5.203125 C 4.691406 -5.128906 4.507812 -5.09375 4.3125 -5.09375 C 4.113281 -5.09375 3.929688 -5.128906 3.765625 -5.203125 C 3.609375 -5.273438 3.460938 -5.375 3.328125 -5.5 C 3.203125 -5.625 3.101562 -5.769531 3.03125 -5.9375 C 2.96875 -6.101562 2.9375 -6.285156 2.9375 -6.484375 C 2.9375 -6.671875 2.96875 -6.847656 3.03125 -7.015625 C 3.101562 -7.179688 3.203125 -7.328125 3.328125 -7.453125 C 3.460938 -7.578125 3.609375 -7.675781 3.765625 -7.75 C 3.929688 -7.820312 4.113281 -7.859375 4.3125 -7.859375 Z M 4.3125 -2.578125 C 4.507812 -2.578125 4.691406 -2.539062 4.859375 -2.46875 C 5.023438 -2.394531 5.171875 -2.296875 5.296875 -2.171875 C 5.421875 -2.054688 5.515625 -1.914062 5.578125 -1.75 C 5.648438 -1.582031 5.6875 -1.398438 5.6875 -1.203125 C 5.6875 -1.015625 5.648438 -0.832031 5.578125 -0.65625 C 5.515625 -0.488281 5.421875 -0.34375 5.296875 -0.21875 C 5.171875 -0.09375 5.023438 0 4.859375 0.0625 C 4.691406 0.132812 4.507812 0.171875 4.3125 0.171875 C 4.113281 0.171875 3.929688 0.132812 3.765625 0.0625 C 3.609375 0 3.460938 -0.09375 3.328125 -0.21875 C 3.203125 -0.34375 3.101562 -0.488281 3.03125 -0.65625 C 2.96875 -0.832031 2.9375 -1.015625 2.9375 -1.203125 C 2.9375 -1.398438 2.96875 -1.582031 3.03125 -1.75 C 3.101562 -1.914062 3.203125 -2.054688 3.328125 -2.171875 C 3.460938 -2.296875 3.609375 -2.394531 3.765625 -2.46875 C 3.929688 -2.539062 4.113281 -2.578125 4.3125 -2.578125 Z M 4.3125 -2.578125 "/></g></g></g><g fill="#000000" fill-opacity="1"><g transform="translate(113.58806, 25.736565)"><g><path d="M 6.78125 -2.03125 L 6.78125 0 L 4.953125 0 L 4.953125 -2.03125 L 0.296875 -2.03125 L 0.296875 -3.640625 L 4.203125 -10.015625 L 6.78125 -10.015625 L 6.78125 -3.6875 L 8.296875 -3.6875 L 8.296875 -2.03125 Z M 4.984375 -8.203125 L 2.125 -3.6875 L 4.984375 -3.6875 Z M 4.984375 -8.203125 "/></g></g></g><g fill="#000000" fill-opacity="1"><g transform="translate(122.213657, 25.736565)"><g><path d="M 5.96875 -5.296875 C 6.21875 -5.160156 6.457031 -5.007812 6.6875 -4.84375 C 6.914062 -4.675781 7.113281 -4.484375 7.28125 -4.265625 C 7.457031 -4.046875 7.59375 -3.800781 7.6875 -3.53125 C 7.789062 -3.257812 7.84375 -2.953125 7.84375 -2.609375 C 7.84375 -2.148438 7.75 -1.742188 7.5625 -1.390625 C 7.382812 -1.046875 7.128906 -0.753906 6.796875 -0.515625 C 6.472656 -0.285156 6.09375 -0.113281 5.65625 0 C 5.226562 0.113281 4.757812 0.171875 4.25 0.171875 C 3.6875 0.171875 3.1875 0.113281 2.75 0 C 2.320312 -0.125 1.960938 -0.296875 1.671875 -0.515625 C 1.378906 -0.734375 1.15625 -1 1 -1.3125 C 0.851562 -1.625 0.78125 -1.972656 0.78125 -2.359375 C 0.78125 -2.691406 0.828125 -2.992188 0.921875 -3.265625 C 1.023438 -3.535156 1.160156 -3.78125 1.328125 -4 C 1.503906 -4.21875 1.707031 -4.410156 1.9375 -4.578125 C 2.164062 -4.753906 2.410156 -4.921875 2.671875 -5.078125 C 2.441406 -5.203125 2.222656 -5.34375 2.015625 -5.5 C 1.816406 -5.664062 1.640625 -5.847656 1.484375 -6.046875 C 1.328125 -6.242188 1.203125 -6.460938 1.109375 -6.703125 C 1.023438 -6.953125 0.984375 -7.234375 0.984375 -7.546875 C 0.984375 -7.910156 1.050781 -8.25 1.1875 -8.5625 C 1.332031 -8.882812 1.546875 -9.164062 1.828125 -9.40625 C 2.109375 -9.644531 2.457031 -9.832031 2.875 -9.96875 C 3.300781 -10.113281 3.796875 -10.1875 4.359375 -10.1875 C 4.878906 -10.1875 5.34375 -10.128906 5.75 -10.015625 C 6.15625 -9.898438 6.5 -9.738281 6.78125 -9.53125 C 7.0625 -9.332031 7.273438 -9.09375 7.421875 -8.8125 C 7.566406 -8.53125 7.640625 -8.21875 7.640625 -7.875 C 7.640625 -7.5625 7.59375 -7.273438 7.5 -7.015625 C 7.414062 -6.765625 7.300781 -6.535156 7.15625 -6.328125 C 7.007812 -6.117188 6.832031 -5.929688 6.625 -5.765625 C 6.414062 -5.597656 6.195312 -5.441406 5.96875 -5.296875 Z M 4.5 -6.015625 C 4.6875 -6.117188 4.859375 -6.226562 5.015625 -6.34375 C 5.179688 -6.457031 5.320312 -6.582031 5.4375 -6.71875 C 5.550781 -6.863281 5.644531 -7.015625 5.71875 -7.171875 C 5.789062 -7.335938 5.828125 -7.519531 5.828125 -7.71875 C 5.828125 -8.050781 5.695312 -8.300781 5.4375 -8.46875 C 5.175781 -8.644531 4.800781 -8.734375 4.3125 -8.734375 C 3.832031 -8.734375 3.460938 -8.644531 3.203125 -8.46875 C 2.941406 -8.289062 2.8125 -8.023438 2.8125 -7.671875 C 2.8125 -7.472656 2.851562 -7.296875 2.9375 -7.140625 C 3.03125 -6.992188 3.148438 -6.851562 3.296875 -6.71875 C 3.453125 -6.59375 3.632812 -6.472656 3.84375 -6.359375 C 4.050781 -6.242188 4.269531 -6.128906 4.5 -6.015625 Z M 4.109375 -4.328125 C 3.910156 -4.222656 3.722656 -4.109375 3.546875 -3.984375 C 3.367188 -3.859375 3.210938 -3.722656 3.078125 -3.578125 C 2.953125 -3.429688 2.851562 -3.269531 2.78125 -3.09375 C 2.707031 -2.914062 2.671875 -2.71875 2.671875 -2.5 C 2.671875 -2.113281 2.816406 -1.816406 3.109375 -1.609375 C 3.410156 -1.398438 3.8125 -1.296875 4.3125 -1.296875 C 4.539062 -1.296875 4.753906 -1.316406 4.953125 -1.359375 C 5.148438 -1.410156 5.320312 -1.484375 5.46875 -1.578125 C 5.625 -1.679688 5.742188 -1.804688 5.828125 -1.953125 C 5.910156 -2.109375 5.953125 -2.289062 5.953125 -2.5 C 5.953125 -2.707031 5.90625 -2.894531 5.8125 -3.0625 C 5.71875 -3.238281 5.582031 -3.398438 5.40625 -3.546875 C 5.238281 -3.691406 5.039062 -3.828125 4.8125 -3.953125 C 4.59375 -4.078125 4.359375 -4.203125 4.109375 -4.328125 Z M 4.109375 -4.328125 "/></g></g></g><g fill="#000000" fill-opacity="1"><g transform="translate(11.953614, 25.736565)"><g><rect x="-1.1" width="1.2" height="1.2" y="-1.1" mask="url(#295c2f89ab)"/></g></g></g><g fill="#000000" fill-opacity="1"><g transform="translate(27.642089, 25.736565)"><g><path d="M 6.421875 -2.609375 L 6.171875 0 L 4.671875 0 L 4.9375 -2.609375 L 3.15625 -2.609375 L 2.890625 0 L 1.390625 0 L 1.65625 -2.609375 L 0.3125 -2.609375 L 0.3125 -4 L 1.796875 -4 L 2.015625 -6.203125 L 0.71875 -6.203125 L 0.71875 -7.609375 L 2.15625 -7.609375 L 2.40625 -10.015625 L 3.90625 -10.015625 L 3.65625 -7.609375 L 5.4375 -7.609375 L 5.671875 -10.015625 L 7.171875 -10.015625 L 6.9375 -7.609375 L 8.296875 -7.609375 L 8.296875 -6.203125 L 6.796875 -6.203125 L 6.578125 -4 L 7.890625 -4 L 7.890625 -2.609375 Z M 5.296875 -6.203125 L 3.53125 -6.203125 L 3.296875 -4 L 5.078125 -4 Z M 5.296875 -6.203125 "/></g></g></g><g fill="#000000" fill-opacity="1"><g transform="translate(36.267687, 25.736565)"><g><path d="M 7.703125 -3.203125 C 7.703125 -2.660156 7.585938 -2.179688 7.359375 -1.765625 C 7.140625 -1.359375 6.832031 -1.007812 6.4375 -0.71875 C 6.039062 -0.4375 5.570312 -0.21875 5.03125 -0.0625 C 4.488281 0.0820312 3.898438 0.15625 3.265625 0.15625 C 3.109375 0.15625 2.9375 0.148438 2.75 0.140625 C 2.570312 0.128906 2.390625 0.113281 2.203125 0.09375 C 2.023438 0.0820312 1.847656 0.0625 1.671875 0.03125 C 1.503906 0.0078125 1.34375 -0.0078125 1.1875 -0.03125 L 1.1875 -1.65625 C 1.476562 -1.59375 1.8125 -1.535156 2.1875 -1.484375 C 2.570312 -1.441406 2.960938 -1.421875 3.359375 -1.421875 C 4.117188 -1.421875 4.695312 -1.566406 5.09375 -1.859375 C 5.5 -2.160156 5.703125 -2.570312 5.703125 -3.09375 C 5.703125 -3.632812 5.515625 -4.035156 5.140625 -4.296875 C 4.773438 -4.554688 4.175781 -4.6875 3.34375 -4.6875 L 1.375 -4.6875 L 1.375 -10.015625 L 7.15625 -10.015625 L 7.15625 -8.25 L 3.125 -8.25 L 3.125 -6.21875 L 3.84375 -6.21875 C 4.351562 -6.21875 4.835938 -6.171875 5.296875 -6.078125 C 5.765625 -5.984375 6.175781 -5.820312 6.53125 -5.59375 C 6.882812 -5.363281 7.164062 -5.054688 7.375 -4.671875 C 7.59375 -4.285156 7.703125 -3.796875 7.703125 -3.203125 Z M 7.703125 -3.203125 "/></g></g></g><g clip-path="url(#3ec0bb8fae)"><g clip-path="url(#f2ace14c49)"><path fill="#000000" d="M 4.226562 0 L 166.988281 0 L 166.988281 35.429688 L 4.226562 35.429688 Z M 4.226562 0 " fill-opacity="1" fill-rule="nonzero"/></g></g><g clip-path="url(#1683da4c11)"><g clip-path="url(#503ff925b5)"><path stroke-linecap="butt" transform="matrix(0.735577, 0, 0, 0.735577, 4.243339, 0.000000000000010453)" fill="none" stroke-linejoin="miter" d="M 1.002111 -0.000000000000014211 L 220.207177 -0.000000000000014211 C 220.467389 -0.000000000000014211 220.722291 0.106209 220.913468 0.292075 C 221.099334 0.477941 221.205543 0.732843 221.205543 0.998366 L 221.205543 47.156863 C 221.205543 47.422386 221.099334 47.677288 220.913468 47.863154 C 220.722291 48.04902 220.467389 48.155229 220.207177 48.155229 L 1.002111 48.155229 C 0.736588 48.155229 0.481686 48.04902 0.29051 47.863154 C 0.104644 47.677288 -0.00156561 47.422386 -0.00156561 47.156863 L -0.00156561 0.998366 C -0.00156561 0.732843 0.104644 0.477941 0.29051 0.292075 C 0.481686 0.106209 0.736588 -0.000000000000014211 1.002111 -0.000000000000014211 Z M 1.002111 -0.000000000000014211 " stroke="#414042" stroke-width="2" stroke-opacity="1" stroke-miterlimit="4"/></g></g><g fill="#ffffff" fill-opacity="1"><g transform="translate(16.847442, 21.382584)"><g><path d="M 7.515625 -4.453125 L 9.3125 0 L 6.734375 0 L 5.21875 -4 L 3.25 -4 L 3.25 0 L 0.8125 0 L 0.8125 -10.390625 L 5.71875 -10.390625 C 6.351562 -10.390625 6.914062 -10.285156 7.40625 -10.078125 C 7.90625 -9.867188 8.296875 -9.535156 8.578125 -9.078125 C 8.859375 -8.617188 9 -8.007812 9 -7.25 C 9 -6.59375 8.863281 -6.023438 8.59375 -5.546875 C 8.320312 -5.078125 7.960938 -4.710938 7.515625 -4.453125 Z M 5.375 -8.203125 L 3.25 -8.203125 L 3.25 -6.109375 L 5.375 -6.109375 C 6.1875 -6.109375 6.59375 -6.460938 6.59375 -7.171875 C 6.59375 -7.859375 6.1875 -8.203125 5.375 -8.203125 Z M 5.375 -8.203125 "/></g></g></g><g fill="#ffffff" fill-opacity="1"><g transform="translate(26.482078, 21.382584)"><g><path d="M 4.46875 0.15625 C 3.644531 0.15625 2.929688 -0.015625 2.328125 -0.359375 C 1.722656 -0.703125 1.253906 -1.171875 0.921875 -1.765625 C 0.597656 -2.359375 0.4375 -3.035156 0.4375 -3.796875 C 0.4375 -4.285156 0.507812 -4.769531 0.65625 -5.25 C 0.8125 -5.726562 1.046875 -6.164062 1.359375 -6.5625 C 1.679688 -6.96875 2.09375 -7.285156 2.59375 -7.515625 C 3.09375 -7.753906 3.691406 -7.875 4.390625 -7.875 C 4.898438 -7.875 5.394531 -7.800781 5.875 -7.65625 C 6.351562 -7.507812 6.78125 -7.269531 7.15625 -6.9375 C 7.53125 -6.613281 7.828125 -6.191406 8.046875 -5.671875 C 8.273438 -5.148438 8.390625 -4.515625 8.390625 -3.765625 L 8.390625 -3.375 L 2.828125 -3.375 C 2.890625 -2.957031 3.019531 -2.625 3.21875 -2.375 C 3.382812 -2.175781 3.582031 -2.03125 3.8125 -1.9375 C 4.050781 -1.84375 4.3125 -1.796875 4.59375 -1.796875 C 4.9375 -1.796875 5.226562 -1.878906 5.46875 -2.046875 C 5.707031 -2.222656 5.867188 -2.429688 5.953125 -2.671875 L 8.265625 -2.671875 C 8.117188 -2.160156 7.882812 -1.6875 7.5625 -1.25 C 7.25 -0.820312 6.832031 -0.476562 6.3125 -0.21875 C 5.800781 0.03125 5.1875 0.15625 4.46875 0.15625 Z M 2.90625 -5 L 6.0625 -5 C 6.050781 -5.082031 6.019531 -5.1875 5.96875 -5.3125 C 5.914062 -5.445312 5.828125 -5.570312 5.703125 -5.6875 C 5.535156 -5.851562 5.347656 -5.96875 5.140625 -6.03125 C 4.929688 -6.101562 4.710938 -6.140625 4.484375 -6.140625 C 4.253906 -6.140625 4.03125 -6.101562 3.8125 -6.03125 C 3.601562 -5.96875 3.414062 -5.851562 3.25 -5.6875 C 3.125 -5.5625 3.035156 -5.4375 2.984375 -5.3125 C 2.941406 -5.1875 2.914062 -5.082031 2.90625 -5 Z M 2.90625 -5 "/></g></g></g><g fill="#ffffff" fill-opacity="1"><g transform="translate(35.300212, 21.382584)"><g><path d="M 9.109375 2.671875 L 7.5625 2.671875 C 7 2.671875 6.5625 2.535156 6.25 2.265625 C 5.945312 1.992188 5.796875 1.613281 5.796875 1.125 L 5.796875 -0.828125 C 5.546875 -0.441406 5.253906 -0.179688 4.921875 -0.046875 C 4.597656 0.0859375 4.234375 0.15625 3.828125 0.15625 C 3.171875 0.15625 2.585938 -0.0078125 2.078125 -0.34375 C 1.566406 -0.6875 1.171875 -1.160156 0.890625 -1.765625 C 0.609375 -2.378906 0.46875 -3.070312 0.46875 -3.84375 C 0.46875 -4.632812 0.609375 -5.332031 0.890625 -5.9375 C 1.171875 -6.550781 1.566406 -7.023438 2.078125 -7.359375 C 2.585938 -7.703125 3.171875 -7.875 3.828125 -7.875 C 4.234375 -7.875 4.597656 -7.804688 4.921875 -7.671875 C 5.253906 -7.535156 5.546875 -7.273438 5.796875 -6.890625 L 5.796875 -7.71875 L 8.078125 -7.71875 L 8.078125 0.328125 C 8.078125 0.554688 8.132812 0.691406 8.25 0.734375 C 8.375 0.773438 8.472656 0.796875 8.546875 0.796875 L 9.109375 0.796875 Z M 4.46875 -1.78125 C 4.96875 -1.78125 5.375 -1.96875 5.6875 -2.34375 C 6 -2.726562 6.15625 -3.226562 6.15625 -3.84375 C 6.15625 -4.476562 6 -4.984375 5.6875 -5.359375 C 5.375 -5.742188 4.96875 -5.9375 4.46875 -5.9375 C 3.957031 -5.9375 3.546875 -5.742188 3.234375 -5.359375 C 2.929688 -4.972656 2.78125 -4.46875 2.78125 -3.84375 C 2.78125 -3.238281 2.929688 -2.742188 3.234375 -2.359375 C 3.546875 -1.972656 3.957031 -1.78125 4.46875 -1.78125 Z M 4.46875 -1.78125 "/></g></g></g><g fill="#ffffff" fill-opacity="1"><g transform="translate(44.131961, 21.382584)"><g><path d="M 3.484375 0.15625 C 2.222656 0.15625 1.394531 -0.285156 1 -1.171875 C 0.914062 -1.347656 0.851562 -1.523438 0.8125 -1.703125 C 0.769531 -1.890625 0.738281 -2.113281 0.71875 -2.375 C 0.695312 -2.644531 0.6875 -2.988281 0.6875 -3.40625 L 0.6875 -7.71875 L 2.984375 -7.71875 L 2.984375 -3.375 C 2.984375 -2.988281 3.003906 -2.6875 3.046875 -2.46875 C 3.097656 -2.257812 3.1875 -2.085938 3.3125 -1.953125 C 3.488281 -1.765625 3.769531 -1.671875 4.15625 -1.671875 C 4.40625 -1.671875 4.609375 -1.703125 4.765625 -1.765625 C 4.929688 -1.835938 5.066406 -1.9375 5.171875 -2.0625 C 5.359375 -2.320312 5.453125 -2.757812 5.453125 -3.375 L 5.453125 -7.71875 L 7.75 -7.71875 L 7.75 0 L 5.453125 0 L 5.453125 -0.828125 C 5.222656 -0.484375 4.953125 -0.234375 4.640625 -0.078125 C 4.328125 0.078125 3.941406 0.15625 3.484375 0.15625 Z M 3.484375 0.15625 "/></g></g></g><g fill="#ffffff" fill-opacity="1"><g transform="translate(52.623499, 21.382584)"><g><path d="M 4.46875 0.15625 C 3.644531 0.15625 2.929688 -0.015625 2.328125 -0.359375 C 1.722656 -0.703125 1.253906 -1.171875 0.921875 -1.765625 C 0.597656 -2.359375 0.4375 -3.035156 0.4375 -3.796875 C 0.4375 -4.285156 0.507812 -4.769531 0.65625 -5.25 C 0.8125 -5.726562 1.046875 -6.164062 1.359375 -6.5625 C 1.679688 -6.96875 2.09375 -7.285156 2.59375 -7.515625 C 3.09375 -7.753906 3.691406 -7.875 4.390625 -7.875 C 4.898438 -7.875 5.394531 -7.800781 5.875 -7.65625 C 6.351562 -7.507812 6.78125 -7.269531 7.15625 -6.9375 C 7.53125 -6.613281 7.828125 -6.191406 8.046875 -5.671875 C 8.273438 -5.148438 8.390625 -4.515625 8.390625 -3.765625 L 8.390625 -3.375 L 2.828125 -3.375 C 2.890625 -2.957031 3.019531 -2.625 3.21875 -2.375 C 3.382812 -2.175781 3.582031 -2.03125 3.8125 -1.9375 C 4.050781 -1.84375 4.3125 -1.796875 4.59375 -1.796875 C 4.9375 -1.796875 5.226562 -1.878906 5.46875 -2.046875 C 5.707031 -2.222656 5.867188 -2.429688 5.953125 -2.671875 L 8.265625 -2.671875 C 8.117188 -2.160156 7.882812 -1.6875 7.5625 -1.25 C 7.25 -0.820312 6.832031 -0.476562 6.3125 -0.21875 C 5.800781 0.03125 5.1875 0.15625 4.46875 0.15625 Z M 2.90625 -5 L 6.0625 -5 C 6.050781 -5.082031 6.019531 -5.1875 5.96875 -5.3125 C 5.914062 -5.445312 5.828125 -5.570312 5.703125 -5.6875 C 5.535156 -5.851562 5.347656 -5.96875 5.140625 -6.03125 C 4.929688 -6.101562 4.710938 -6.140625 4.484375 -6.140625 C 4.253906 -6.140625 4.03125 -6.101562 3.8125 -6.03125 C 3.601562 -5.96875 3.414062 -5.851562 3.25 -5.6875 C 3.125 -5.5625 3.035156 -5.4375 2.984375 -5.3125 C 2.941406 -5.1875 2.914062 -5.082031 2.90625 -5 Z M 2.90625 -5 "/></g></g></g><g fill="#ffffff" fill-opacity="1"><g transform="translate(61.441633, 21.382584)"><g><path d="M 4.21875 0.15625 C 3.8125 0.15625 3.398438 0.109375 2.984375 0.015625 C 2.566406 -0.078125 2.171875 -0.234375 1.796875 -0.453125 C 1.421875 -0.671875 1.109375 -0.957031 0.859375 -1.3125 C 0.609375 -1.675781 0.453125 -2.128906 0.390625 -2.671875 L 2.609375 -2.671875 C 2.734375 -2.273438 2.945312 -1.988281 3.25 -1.8125 C 3.550781 -1.644531 3.863281 -1.5625 4.1875 -1.5625 C 4.5 -1.5625 4.757812 -1.625 4.96875 -1.75 C 5.175781 -1.875 5.28125 -2.046875 5.28125 -2.265625 C 5.28125 -2.523438 5.125 -2.707031 4.8125 -2.8125 C 4.5 -2.914062 4.125 -3.015625 3.6875 -3.109375 C 3.363281 -3.171875 3.023438 -3.242188 2.671875 -3.328125 C 2.328125 -3.421875 2.003906 -3.550781 1.703125 -3.71875 C 1.398438 -3.882812 1.15625 -4.113281 0.96875 -4.40625 C 0.789062 -4.695312 0.703125 -5.070312 0.703125 -5.53125 C 0.703125 -6.101562 0.847656 -6.5625 1.140625 -6.90625 C 1.441406 -7.25 1.828125 -7.492188 2.296875 -7.640625 C 2.765625 -7.796875 3.269531 -7.875 3.8125 -7.875 C 4.75 -7.875 5.535156 -7.640625 6.171875 -7.171875 C 6.804688 -6.710938 7.195312 -6.039062 7.34375 -5.15625 L 5.1875 -5.15625 C 5.070312 -5.53125 4.882812 -5.789062 4.625 -5.9375 C 4.363281 -6.09375 4.085938 -6.171875 3.796875 -6.171875 C 3.515625 -6.171875 3.289062 -6.117188 3.125 -6.015625 C 2.957031 -5.910156 2.875 -5.765625 2.875 -5.578125 C 2.875 -5.328125 3.03125 -5.148438 3.34375 -5.046875 C 3.664062 -4.941406 4.046875 -4.847656 4.484375 -4.765625 C 4.828125 -4.703125 5.175781 -4.625 5.53125 -4.53125 C 5.882812 -4.445312 6.210938 -4.320312 6.515625 -4.15625 C 6.816406 -4 7.0625 -3.78125 7.25 -3.5 C 7.4375 -3.226562 7.53125 -2.863281 7.53125 -2.40625 C 7.53125 -1.632812 7.234375 -1.015625 6.640625 -0.546875 C 6.046875 -0.078125 5.238281 0.15625 4.21875 0.15625 Z M 4.21875 0.15625 "/></g></g></g><g fill="#ffffff" fill-opacity="1"><g transform="translate(69.443276, 21.382584)"><g><path d="M 4.953125 0 L 3.125 0 C 2.5625 0 2.125 -0.128906 1.8125 -0.390625 C 1.5 -0.660156 1.34375 -1.039062 1.34375 -1.53125 L 1.34375 -5.9375 L 0.28125 -5.9375 L 0.28125 -7.71875 L 1.34375 -7.71875 L 1.34375 -10.390625 L 3.640625 -10.390625 L 3.640625 -7.71875 L 4.96875 -7.71875 L 4.96875 -5.9375 L 3.640625 -5.9375 L 3.640625 -2.3125 C 3.640625 -2.207031 3.664062 -2.101562 3.71875 -2 C 3.769531 -1.894531 3.894531 -1.84375 4.09375 -1.84375 L 4.953125 -1.84375 Z M 4.953125 0 "/></g></g></g><g fill="#ffffff" fill-opacity="1"><g transform="translate(74.859356, 21.382584)"><g/></g></g><g fill="#ffffff" fill-opacity="1"><g transform="translate(78.397501, 21.382584)"><g><path d="M 2.984375 0.15625 C 2.515625 0.15625 2.085938 0.0703125 1.703125 -0.09375 C 1.328125 -0.269531 1.023438 -0.53125 0.796875 -0.875 C 0.566406 -1.21875 0.453125 -1.644531 0.453125 -2.15625 C 0.453125 -2.625 0.539062 -3.003906 0.71875 -3.296875 C 0.90625 -3.597656 1.140625 -3.84375 1.421875 -4.03125 C 1.691406 -4.207031 1.988281 -4.335938 2.3125 -4.421875 C 2.632812 -4.515625 2.941406 -4.585938 3.234375 -4.640625 L 5.234375 -5 C 5.210938 -5.382812 5.109375 -5.679688 4.921875 -5.890625 C 4.753906 -6.078125 4.5 -6.171875 4.15625 -6.171875 C 3.882812 -6.171875 3.640625 -6.082031 3.421875 -5.90625 C 3.203125 -5.726562 3.0625 -5.472656 3 -5.140625 L 0.734375 -5.140625 C 0.835938 -5.785156 1.0625 -6.3125 1.40625 -6.71875 C 1.75 -7.125 2.164062 -7.414062 2.65625 -7.59375 C 3.144531 -7.78125 3.648438 -7.875 4.171875 -7.875 C 4.617188 -7.875 5.050781 -7.8125 5.46875 -7.6875 C 5.882812 -7.570312 6.25 -7.382812 6.5625 -7.125 C 6.875 -6.84375 7.097656 -6.523438 7.234375 -6.171875 C 7.367188 -5.816406 7.445312 -5.425781 7.46875 -5 C 7.5 -4.582031 7.515625 -4.132812 7.515625 -3.65625 L 7.515625 0 L 5.21875 0 L 5.21875 -0.9375 C 5.09375 -0.632812 4.914062 -0.40625 4.6875 -0.25 C 4.457031 -0.09375 4.191406 0.0078125 3.890625 0.0625 C 3.597656 0.125 3.296875 0.15625 2.984375 0.15625 Z M 3.640625 -1.5625 C 3.921875 -1.5625 4.203125 -1.625 4.484375 -1.75 C 4.796875 -1.894531 5.003906 -2.097656 5.109375 -2.359375 C 5.210938 -2.617188 5.269531 -2.957031 5.28125 -3.375 L 3.875 -3.109375 C 3.625 -3.054688 3.429688 -3.003906 3.296875 -2.953125 C 3.160156 -2.898438 3.039062 -2.828125 2.9375 -2.734375 C 2.875 -2.671875 2.820312 -2.597656 2.78125 -2.515625 C 2.75 -2.441406 2.734375 -2.351562 2.734375 -2.25 C 2.734375 -2 2.820312 -1.820312 3 -1.71875 C 3.1875 -1.613281 3.398438 -1.5625 3.640625 -1.5625 Z M 3.640625 -1.5625 "/></g></g></g><g fill="#ffffff" fill-opacity="1"><g transform="translate(86.576058, 21.382584)"><g/></g></g><g fill="#ffffff" fill-opacity="1"><g transform="translate(90.114203, 21.382584)"><g><path d="M 4.953125 0 L 3.125 0 C 2.5625 0 2.125 -0.128906 1.8125 -0.390625 C 1.5 -0.660156 1.34375 -1.039062 1.34375 -1.53125 L 1.34375 -5.9375 L 0.28125 -5.9375 L 0.28125 -7.71875 L 1.34375 -7.71875 L 1.34375 -10.390625 L 3.640625 -10.390625 L 3.640625 -7.71875 L 4.96875 -7.71875 L 4.96875 -5.9375 L 3.640625 -5.9375 L 3.640625 -2.3125 C 3.640625 -2.207031 3.664062 -2.101562 3.71875 -2 C 3.769531 -1.894531 3.894531 -1.84375 4.09375 -1.84375 L 4.953125 -1.84375 Z M 4.953125 0 "/></g></g></g><g fill="#ffffff" fill-opacity="1"><g transform="translate(95.530283, 21.382584)"><g><path d="M 4.484375 0.15625 C 3.691406 0.15625 2.988281 -0.0078125 2.375 -0.34375 C 1.757812 -0.675781 1.28125 -1.148438 0.9375 -1.765625 C 0.601562 -2.378906 0.4375 -3.09375 0.4375 -3.90625 C 0.4375 -4.695312 0.601562 -5.390625 0.9375 -5.984375 C 1.28125 -6.578125 1.753906 -7.039062 2.359375 -7.375 C 2.972656 -7.707031 3.679688 -7.875 4.484375 -7.875 C 5.296875 -7.875 6.003906 -7.707031 6.609375 -7.375 C 7.222656 -7.039062 7.695312 -6.578125 8.03125 -5.984375 C 8.375 -5.390625 8.546875 -4.695312 8.546875 -3.90625 C 8.546875 -3.09375 8.378906 -2.378906 8.046875 -1.765625 C 7.710938 -1.160156 7.238281 -0.6875 6.625 -0.34375 C 6.019531 -0.0078125 5.304688 0.15625 4.484375 0.15625 Z M 4.484375 -1.796875 C 5.003906 -1.796875 5.414062 -1.988281 5.71875 -2.375 C 6.019531 -2.757812 6.171875 -3.269531 6.171875 -3.90625 C 6.171875 -4.5 6.019531 -4.984375 5.71875 -5.359375 C 5.414062 -5.742188 5.003906 -5.9375 4.484375 -5.9375 C 3.984375 -5.9375 3.578125 -5.75 3.265625 -5.375 C 2.953125 -5 2.796875 -4.507812 2.796875 -3.90625 C 2.796875 -3.257812 2.953125 -2.742188 3.265625 -2.359375 C 3.578125 -1.984375 3.984375 -1.796875 4.484375 -1.796875 Z M 4.484375 -1.796875 "/></g></g></g><g fill="#ffffff" fill-opacity="1"><g transform="translate(104.511715, 21.382584)"><g><path d="M 5.015625 -7.875 C 5.671875 -7.875 6.25 -7.703125 6.75 -7.359375 C 7.257812 -7.023438 7.65625 -6.550781 7.9375 -5.9375 C 8.226562 -5.332031 8.375 -4.632812 8.375 -3.84375 C 8.375 -3.070312 8.226562 -2.378906 7.9375 -1.765625 C 7.65625 -1.160156 7.257812 -0.6875 6.75 -0.34375 C 6.25 -0.0078125 5.671875 0.15625 5.015625 0.15625 C 4.597656 0.15625 4.226562 0.0859375 3.90625 -0.046875 C 3.582031 -0.179688 3.289062 -0.441406 3.03125 -0.828125 L 3.03125 2.671875 L 0.75 2.671875 L 0.75 -7.71875 L 3.03125 -7.71875 L 3.03125 -6.890625 C 3.289062 -7.273438 3.582031 -7.535156 3.90625 -7.671875 C 4.226562 -7.804688 4.597656 -7.875 5.015625 -7.875 Z M 4.375 -5.9375 C 3.875 -5.9375 3.46875 -5.742188 3.15625 -5.359375 C 2.84375 -4.984375 2.6875 -4.476562 2.6875 -3.84375 C 2.6875 -3.226562 2.84375 -2.726562 3.15625 -2.34375 C 3.46875 -1.96875 3.875 -1.78125 4.375 -1.78125 C 4.875 -1.78125 5.28125 -1.972656 5.59375 -2.359375 C 5.90625 -2.742188 6.0625 -3.238281 6.0625 -3.84375 C 6.0625 -4.46875 5.90625 -4.972656 5.59375 -5.359375 C 5.28125 -5.742188 4.875 -5.9375 4.375 -5.9375 Z M 4.375 -5.9375 "/></g></g></g><g fill="#ffffff" fill-opacity="1"><g transform="translate(113.343464, 21.382584)"><g><path d="M 1.890625 -8.25 C 1.535156 -8.25 1.226562 -8.351562 0.96875 -8.5625 C 0.71875 -8.769531 0.59375 -9.054688 0.59375 -9.421875 C 0.59375 -9.785156 0.71875 -10.070312 0.96875 -10.28125 C 1.226562 -10.5 1.535156 -10.609375 1.890625 -10.609375 C 2.242188 -10.609375 2.546875 -10.5 2.796875 -10.28125 C 3.054688 -10.070312 3.1875 -9.785156 3.1875 -9.421875 C 3.1875 -9.054688 3.054688 -8.769531 2.796875 -8.5625 C 2.546875 -8.351562 2.242188 -8.25 1.890625 -8.25 Z M 3.03125 0 L 0.75 0 L 0.75 -7.71875 L 3.03125 -7.71875 Z M 3.03125 0 "/></g></g></g><g fill="#ffffff" fill-opacity="1"><g transform="translate(117.126551, 21.382584)"><g><path d="M 4.453125 0.15625 C 3.648438 0.15625 2.945312 -0.0078125 2.34375 -0.34375 C 1.738281 -0.675781 1.269531 -1.148438 0.9375 -1.765625 C 0.601562 -2.378906 0.4375 -3.09375 0.4375 -3.90625 C 0.4375 -4.695312 0.597656 -5.390625 0.921875 -5.984375 C 1.253906 -6.578125 1.722656 -7.039062 2.328125 -7.375 C 2.929688 -7.707031 3.640625 -7.875 4.453125 -7.875 C 5.421875 -7.875 6.242188 -7.625 6.921875 -7.125 C 7.597656 -6.632812 8.035156 -5.972656 8.234375 -5.140625 L 5.734375 -5.140625 C 5.535156 -5.753906 5.109375 -6.0625 4.453125 -6.0625 C 3.941406 -6.0625 3.535156 -5.867188 3.234375 -5.484375 C 2.941406 -5.097656 2.796875 -4.570312 2.796875 -3.90625 C 2.796875 -3.207031 2.941406 -2.65625 3.234375 -2.25 C 3.535156 -1.851562 3.941406 -1.65625 4.453125 -1.65625 C 4.835938 -1.65625 5.128906 -1.742188 5.328125 -1.921875 C 5.535156 -2.097656 5.675781 -2.347656 5.75 -2.671875 L 8.25 -2.671875 C 8.0625 -1.773438 7.625 -1.078125 6.9375 -0.578125 C 6.25 -0.0859375 5.421875 0.15625 4.453125 0.15625 Z M 4.453125 0.15625 "/></g></g></g><g fill="#ffffff" fill-opacity="1"><g transform="translate(125.740565, 21.382584)"><g><path d="M 2.9375 -3.25 L 1.015625 -3.25 C 0.984375 -3.800781 0.941406 -4.351562 0.890625 -4.90625 C 0.847656 -5.457031 0.828125 -6.007812 0.828125 -6.5625 L 0.828125 -10.390625 L 3.109375 -10.390625 L 3.109375 -6.5625 C 3.109375 -6.007812 3.085938 -5.457031 3.046875 -4.90625 C 3.015625 -4.351562 2.976562 -3.800781 2.9375 -3.25 Z M 1.984375 0.15625 C 1.617188 0.15625 1.3125 0.03125 1.0625 -0.21875 C 0.8125 -0.46875 0.6875 -0.769531 0.6875 -1.125 C 0.6875 -1.46875 0.8125 -1.765625 1.0625 -2.015625 C 1.320312 -2.265625 1.628906 -2.390625 1.984375 -2.390625 C 2.328125 -2.390625 2.625 -2.265625 2.875 -2.015625 C 3.125 -1.765625 3.25 -1.46875 3.25 -1.125 C 3.25 -0.769531 3.125 -0.46875 2.875 -0.21875 C 2.625 0.03125 2.328125 0.15625 1.984375 0.15625 Z M 1.984375 0.15625 "/></g></g></g><g clip-path="url(#dec72e6b03)"><path fill="#ffffff" d="M 154.558594 1.125 C 154.070312 3.167969 153.234375 5.199219 152.820312 7.242188 C 152.667969 8.011719 152.449219 8.824219 152.460938 9.605469 C 152.488281 12.808594 151.601562 16.558594 148.117188 18.230469 C 147.386719 18.578125 143.183594 17.265625 142.773438 16.828125 C 141.859375 15.851562 141.410156 13.679688 141.539062 12.355469 C 141.730469 10.390625 142.707031 8.605469 143.722656 6.996094 C 144.40625 5.878906 145.085938 4.699219 145.496094 3.4375 C 145.355469 2.640625 145.113281 1.882812 144.660156 1.203125 C 143.8125 0.0195312 142.527344 -0.816406 141.128906 -1.148438 C 139.136719 -1.496094 137.144531 -0.480469 135.523438 0.597656 C 131.628906 3.4375 128.097656 6.625 123.417969 7.449219 C 122.402344 8.773438 120.898438 9.683594 119.230469 8.953125 C 118.484375 8.628906 117.890625 8.050781 117.46875 7.359375 C 116.992188 7.292969 116.515625 7.214844 116.042969 7.125 C 115 7.960938 113.742188 8.679688 112.40625 8.308594 C 111.121094 7.9375 110.464844 6.625 110.066406 5.441406 C 109.140625 5.070312 108.253906 4.660156 107.457031 4.195312 C 105.117188 2.796875 103.191406 0.765625 101.800781 -1.585938 C 100.824219 -3.191406 100.105469 -4.953125 99.628906 -6.765625 C 99.527344 -7.113281 99.230469 -8.320312 99.105469 -9.4375 C 98.652344 -9.617188 98.230469 -9.835938 97.804688 -10.070312 C 96.226562 -10.917969 93.421875 -13.191406 95.375 -15.003906 C 96.570312 -15.941406 98.679688 -15.671875 100.132812 -15.824219 C 101.261719 -15.902344 102.378906 -16.03125 103.460938 -16.25 C 105.605469 -16.6875 107.625 -17.523438 109.601562 -18.433594 C 111.800781 -19.425781 114 -20.402344 116.324219 -21.042969 C 122.300781 -22.792969 128.457031 -20.964844 134.226562 -19.28125 C 136.605469 -18.652344 139.03125 -18.175781 141.4375 -17.664062 C 143.722656 -17.1875 146.074219 -16.699219 148.105469 -15.480469 C 151.085938 -13.707031 153.4375 -10.890625 154.480469 -7.5625 C 155.316406 -4.75 155.300781 -1.714844 154.558594 1.125 Z M 154.558594 1.125 " fill-opacity="1" fill-rule="nonzero"/></g><g clip-path="url(#eda955b6a2)"><path fill="#ec7944" d="M 126.269531 15.660156 C 126.144531 15.96875 125.679688 15.992188 125.410156 16.070312 C 124.949219 16.175781 124.472656 16.265625 124.023438 16.429688 C 123.300781 16.726562 122.582031 17.242188 122.378906 18.011719 C 122.210938 18.371094 122.261719 19.375 121.683594 19.234375 C 121.347656 19.105469 121.15625 18.769531 120.9375 18.488281 C 120.476562 17.820312 119.921875 17.113281 119.101562 16.878906 C 119.023438 16.855469 118.957031 16.84375 118.882812 16.816406 C 119.035156 16.933594 119.125 17.085938 119.085938 17.304688 C 118.945312 17.640625 118.457031 17.664062 118.175781 17.753906 C 117.671875 17.871094 117.171875 17.960938 116.695312 18.140625 C 115.925781 18.449219 115.15625 19 114.921875 19.835938 C 114.742188 20.222656 114.808594 21.289062 114.179688 21.148438 C 113.820312 21.007812 113.613281 20.644531 113.382812 20.351562 C 112.878906 19.632812 112.289062 18.871094 111.414062 18.628906 C 111.066406 18.527344 110.667969 18.449219 110.308594 18.4375 C 109.757812 18.347656 108.046875 18.742188 107.917969 18.089844 C 107.933594 17.613281 108.535156 17.445312 108.871094 17.214844 C 109.511719 16.84375 110.144531 16.429688 110.695312 15.941406 C 112.136719 14.683594 112.675781 12.910156 112.457031 11.035156 C 112.328125 10.054688 112.261719 9.042969 112.007812 8.089844 C 112.367188 8.269531 112.765625 8.359375 113.203125 8.359375 C 113.496094 8.359375 113.78125 8.308594 114.0625 8.21875 C 114.113281 8.707031 114.113281 9.195312 114.125 9.683594 C 114.152344 10.453125 114.179688 11.238281 114.242188 11.996094 C 114.382812 13.808594 115.140625 14.964844 116.441406 15.738281 C 116.554688 15.671875 116.660156 15.621094 116.75 15.558594 C 117.351562 15.210938 117.929688 14.835938 118.445312 14.363281 C 119.792969 13.191406 120.296875 11.535156 120.089844 9.785156 C 120.0625 9.566406 120.039062 9.351562 120.011719 9.132812 C 120.152344 9.15625 120.28125 9.15625 120.425781 9.15625 C 120.847656 9.15625 121.273438 9.054688 121.644531 8.863281 C 121.65625 9.464844 121.695312 10.082031 121.746094 10.6875 C 121.925781 13 123.1875 14.167969 125.320312 14.835938 C 125.65625 15.03125 126.359375 15.144531 126.269531 15.660156 Z M 147.757812 16.1875 C 146.757812 15.414062 145.394531 14.925781 144.132812 15.105469 C 143.75 15.160156 143.3125 15.144531 142.964844 15.351562 C 142.605469 15.570312 142.515625 15.980469 142.449219 16.367188 C 142.335938 17.023438 142.476562 17.640625 142.476562 18.292969 C 142.476562 18.949219 142.449219 19.617188 142.285156 20.246094 C 142.105469 20.992188 141.679688 21.621094 141.539062 22.394531 C 141.320312 23.269531 141.910156 24.308594 142.863281 24.347656 C 144.917969 24.464844 144.839844 21.917969 145.675781 20.621094 C 146.253906 19.605469 147.207031 18.859375 147.988281 17.984375 C 148.492188 17.382812 148.425781 16.648438 147.757812 16.1875 Z M 147.757812 16.1875 " fill-opacity="1" fill-rule="nonzero"/></g><path fill="#9c502c" d="M 143.863281 19.128906 C 143.878906 19.375 143.851562 20.335938 143.453125 20.234375 C 143.195312 20.144531 143.335938 19.886719 143.390625 19.722656 C 143.429688 19.527344 143.453125 19.375 143.441406 19.179688 C 143.402344 18.898438 143.828125 18.859375 143.863281 19.128906 Z M 144.621094 19.425781 C 144.480469 19.632812 144.058594 20.492188 144.441406 20.582031 C 144.714844 20.632812 144.714844 20.324219 144.75 20.171875 C 144.816406 19.976562 144.867188 19.835938 144.96875 19.683594 C 145.136719 19.449219 144.789062 19.207031 144.621094 19.425781 Z M 144.621094 19.425781 " fill-opacity="1" fill-rule="nonzero"/><path fill="#615b5b" d="M 144.40625 11.765625 C 144.496094 12.085938 144.46875 12.472656 144.390625 12.730469 C 144.277344 13.101562 143.992188 13.539062 143.542969 13.371094 C 143.273438 13.269531 143.195312 12.988281 143.171875 12.730469 C 143.132812 12.34375 143.09375 11.855469 143.300781 11.507812 C 143.414062 11.316406 143.609375 11.1875 143.863281 11.226562 C 144.160156 11.265625 144.328125 11.484375 144.40625 11.765625 Z M 149.867188 13.308594 C 149.621094 13.140625 149.351562 13.191406 149.109375 13.332031 C 148.824219 13.5 148.582031 13.808594 148.464844 14.066406 C 148.3125 14.414062 148.222656 14.941406 148.660156 15.105469 C 148.929688 15.210938 149.171875 15.054688 149.363281 14.875 C 149.648438 14.617188 150.007812 14.273438 150.085938 13.886719 C 150.136719 13.679688 150.085938 13.449219 149.867188 13.308594 Z M 149.867188 13.308594 " fill-opacity="1" fill-rule="nonzero"/><g clip-path="url(#f932698972)"><path fill="#b3a8a8" d="M 123.664062 7.410156 C 122.507812 7.691406 121.257812 7.78125 120.0625 7.691406 C 119.292969 7.613281 118.484375 7.539062 117.738281 7.332031 C 119.71875 7.292969 121.683594 7.359375 123.664062 7.410156 Z M 131.347656 -11.714844 C 130.71875 -11.316406 130.074219 -10.929688 129.417969 -10.570312 C 128.210938 -9.941406 126.914062 -9.464844 125.65625 -8.949219 C 123.585938 -8.140625 121.375 -7.292969 119.085938 -7.304688 C 117.660156 -7.316406 116.246094 -7.910156 115.207031 -8.898438 C 114.808594 -9.285156 114.628906 -9.824219 114.359375 -10.285156 C 114 -10.851562 113.238281 -10.761719 112.660156 -10.722656 C 111.828125 -10.699219 110.941406 -10.632812 110.144531 -10.980469 C 108.792969 -11.558594 109 -12.765625 110 -13.589844 C 110.207031 -13.691406 110.347656 -13.925781 110.207031 -14.128906 C 109.796875 -14.65625 109.089844 -13.652344 108.859375 -13.332031 C 107.90625 -11.894531 108.882812 -10.542969 110.386719 -10.160156 C 111.042969 -9.992188 111.722656 -9.992188 112.40625 -10.015625 C 112.714844 -10.03125 113.007812 -10.054688 113.316406 -10.054688 C 113.472656 -10.042969 113.675781 -10.054688 113.78125 -9.914062 C 114.035156 -9.4375 114.242188 -8.910156 114.628906 -8.511719 C 115.464844 -7.625 116.621094 -7.046875 117.789062 -6.753906 C 120.695312 -6.199219 123.558594 -7.410156 126.234375 -8.4375 C 128.136719 -9.167969 130.011719 -9.980469 131.71875 -11.121094 C 131.875 -11.226562 131.925781 -11.445312 131.824219 -11.597656 C 131.71875 -11.765625 131.515625 -11.816406 131.347656 -11.714844 Z M 145.5625 3.503906 C 146.730469 1.714844 147.191406 -0.480469 147.386719 -2.589844 C 146.640625 -0.621094 146.253906 1.496094 145.5625 3.503906 Z M 99.359375 -9.375 C 100.027344 -8.859375 100.929688 -8.679688 101.75 -8.578125 C 102.136719 -8.550781 102.546875 -8.550781 102.921875 -8.589844 C 101.980469 -8.730469 101.058594 -8.9375 100.117188 -9.128906 C 99.875 -9.195312 99.59375 -9.273438 99.359375 -9.375 Z M 99.359375 -9.375 " fill-opacity="1" fill-rule="nonzero"/></g></svg>