<svg xmlns="http://www.w3.org/2000/svg" xmlns:xlink="http://www.w3.org/1999/xlink" width="166" zoomAndPan="magnify" viewBox="0 0 124.5 124.499995" height="166" preserveAspectRatio="xMidYMid meet" version="1.0"><defs><clipPath id="ebf57357f9"><path d="M 0 0 L 124.003906 0 L 124.003906 124.003906 L 0 124.003906 Z M 0 0 " clip-rule="nonzero"/></clipPath></defs><path fill="#f3621d" d="M 3.875 3.875 L 120.125 3.875 L 120.125 120.125 L 3.875 120.125 Z M 3.875 3.875 " fill-opacity="1" fill-rule="nonzero"/><path fill="#000000" d="M 62 71.042969 C 60.652344 71.042969 59.40625 70.34375 58.699219 69.203125 L 38.03125 35.621094 C 36.917969 33.789062 37.480469 31.402344 39.296875 30.28125 C 41.132812 29.167969 43.507812 29.738281 44.628906 31.546875 L 62 59.773438 L 79.367188 31.546875 C 80.488281 29.734375 82.863281 29.167969 84.699219 30.28125 C 86.523438 31.402344 87.085938 33.789062 85.964844 35.613281 L 65.296875 69.199219 C 64.59375 70.34375 63.347656 71.042969 62 71.042969 Z M 62 71.042969 " fill-opacity="1" fill-rule="nonzero"/><path fill="#000000" d="M 62 99.460938 C 59.863281 99.460938 58.125 97.722656 58.125 95.585938 L 58.125 67.167969 C 58.125 65.027344 59.863281 63.292969 62 63.292969 C 64.140625 63.292969 65.875 65.027344 65.875 67.167969 L 65.875 95.585938 C 65.875 97.722656 64.140625 99.460938 62 99.460938 Z M 62 99.460938 " fill-opacity="1" fill-rule="nonzero"/><g clip-path="url(#ebf57357f9)"><path fill="#000000" d="M 120.125 124.003906 L 3.875 124.003906 C 1.734375 124.003906 0 122.265625 0 120.125 L 0 3.875 C 0 1.734375 1.734375 0 3.875 0 L 120.125 0 C 122.265625 0 124.003906 1.734375 124.003906 3.875 L 124.003906 120.125 C 124.003906 122.265625 122.265625 124.003906 120.125 124.003906 Z M 7.75 116.25 L 116.25 116.25 L 116.25 7.75 L 7.75 7.75 Z M 7.75 116.25 " fill-opacity="1" fill-rule="nonzero"/></g></svg>