<svg xmlns="http://www.w3.org/2000/svg" xmlns:xlink="http://www.w3.org/1999/xlink" width="388" zoomAndPan="magnify" viewBox="0 0 291 279.749983" height="373" preserveAspectRatio="xMidYMid meet" version="1.0"><defs><clipPath id="ee3efe3106"><path d="M 0.128906 25 L 290.867188 25 L 290.867188 275 L 0.128906 275 Z M 0.128906 25 " clip-rule="nonzero"/></clipPath></defs><path fill="#c86cff" d="M 250.984375 193.097656 C 266.921875 193.097656 278.28125 189.585938 284.820312 182.621094 C 289.15625 178.003906 290.800781 172.109375 289.445312 166.019531 C 287.398438 156.808594 278.320312 147.214844 261.691406 136.6875 C 257.355469 133.945312 252.742188 131.300781 248.238281 128.894531 C 266.648438 95.488281 269.820312 62.21875 248.664062 43.03125 C 201.210938 0.00390625 145.5 52.328125 145.5 52.328125 C 145.5 52.328125 89.789062 0.00390625 42.335938 43.03125 C 21.179688 62.21875 24.351562 95.488281 42.761719 128.894531 C 38.257812 131.300781 33.644531 133.945312 29.308594 136.6875 C 12.679688 147.214844 3.601562 156.808594 1.554688 166.019531 C 0.199219 172.109375 1.84375 178.003906 6.179688 182.621094 C 12.71875 189.585938 24.078125 193.097656 40.015625 193.097656 C 43.015625 193.097656 46.175781 192.972656 49.496094 192.722656 C 57.882812 192.09375 66.855469 190.667969 75.820312 188.585938 C 70.574219 192.402344 65.421875 196.640625 60.738281 201.0625 C 49.234375 211.921875 35.796875 228.304688 37.121094 244.6875 C 37.851562 253.75 42.898438 260.589844 49.847656 265.363281 L 44.21875 271.269531 C 50.644531 273.625 57.117188 273.324219 63.210938 271.5625 C 68.8125 273.210938 74.65625 273.972656 80.011719 273.878906 C 101.625 273.496094 123.382812 267.980469 144.316406 263.070312 C 144.707031 262.980469 145.105469 262.882812 145.5 262.789062 C 145.894531 262.882812 146.292969 262.980469 146.683594 263.070312 C 147.945312 263.367188 149.210938 263.664062 150.480469 263.964844 C 151.480469 264.199219 152.484375 264.4375 153.488281 264.675781 C 153.925781 264.777344 154.363281 264.878906 154.800781 264.984375 C 155.996094 265.265625 157.195312 265.546875 158.394531 265.824219 C 158.585938 265.871094 158.777344 265.914062 158.96875 265.957031 C 159.960938 266.191406 160.957031 266.417969 161.953125 266.648438 C 162.324219 266.730469 162.695312 266.816406 163.070312 266.902344 C 163.984375 267.109375 164.902344 267.316406 165.820312 267.519531 C 166.128906 267.589844 166.4375 267.65625 166.742188 267.726562 C 167.925781 267.988281 169.109375 268.242188 170.292969 268.496094 C 170.570312 268.554688 170.851562 268.613281 171.132812 268.671875 C 172.0625 268.871094 172.996094 269.0625 173.925781 269.253906 C 174.304688 269.332031 174.683594 269.40625 175.058594 269.484375 C 176.046875 269.679688 177.03125 269.875 178.015625 270.0625 C 178.25 270.109375 178.484375 270.152344 178.714844 270.199219 C 179.902344 270.421875 181.089844 270.640625 182.277344 270.847656 C 182.609375 270.90625 182.941406 270.960938 183.273438 271.019531 C 184.179688 271.175781 185.085938 271.328125 185.992188 271.472656 C 186.363281 271.535156 186.730469 271.59375 187.097656 271.652344 C 188.25 271.832031 189.402344 272.003906 190.554688 272.167969 C 190.613281 272.175781 190.675781 272.1875 190.738281 272.195312 C 191.734375 272.335938 192.730469 272.46875 193.730469 272.59375 L 193.730469 272.585938 C 199.480469 273.304688 205.238281 273.777344 210.988281 273.878906 C 216.34375 273.972656 222.183594 273.210938 227.789062 271.5625 C 233.878906 273.328125 240.355469 273.625 246.78125 271.269531 L 241.152344 265.367188 C 248.101562 260.589844 253.148438 253.75 253.878906 244.6875 C 255.203125 228.304688 241.765625 211.921875 230.261719 201.0625 C 225.578125 196.640625 220.425781 192.402344 215.179688 188.585938 C 224.144531 190.667969 233.117188 192.09375 241.503906 192.722656 C 244.824219 192.972656 247.984375 193.097656 250.984375 193.097656 Z M 251.832031 153.398438 C 265.070312 161.851562 269.445312 167.546875 270.332031 169.6875 C 267.300781 172.40625 259.285156 173.894531 248.414062 173.632812 C 248.414062 173.628906 248.414062 173.628906 248.414062 173.628906 C 239.796875 173.417969 229.375 172.097656 218.222656 169.421875 C 225.546875 161.683594 232.160156 153.597656 237.925781 145.375 C 242.570312 147.820312 247.394531 150.5625 251.832031 153.398438 Z M 39.167969 153.398438 C 43.605469 150.5625 48.429688 147.820312 53.074219 145.375 C 58.839844 153.59375 65.453125 161.683594 72.777344 169.421875 C 61.625 172.097656 51.207031 173.417969 42.585938 173.628906 C 42.585938 173.628906 42.585938 173.628906 42.585938 173.632812 C 31.714844 173.894531 23.699219 172.40625 20.667969 169.6875 C 21.554688 167.546875 25.929688 161.851562 39.167969 153.398438 Z M 99.363281 249.960938 C 97.425781 250.3125 95.46875 250.675781 93.503906 251.007812 C 95.078125 249.316406 95.949219 248.242188 95.949219 248.242188 C 97.304688 248.613281 98.960938 249.105469 100.855469 249.683594 C 100.359375 249.777344 99.859375 249.871094 99.363281 249.960938 Z M 192.433594 250.109375 C 192.167969 250.058594 191.902344 250.011719 191.636719 249.960938 C 191.140625 249.871094 190.644531 249.777344 190.144531 249.683594 C 192.039062 249.105469 193.695312 248.613281 195.050781 248.242188 C 195.050781 248.242188 195.921875 249.316406 197.496094 251.007812 C 196.429688 250.828125 195.359375 250.636719 194.296875 250.445312 C 193.675781 250.332031 193.054688 250.21875 192.433594 250.109375 Z M 225.945312 249.414062 L 201.71875 224.003906 C 201.71875 224.003906 195.457031 225.777344 195.453125 225.78125 C 184.273438 228.949219 173.066406 232.03125 161.847656 235.0625 C 156.410156 236.527344 150.960938 237.992188 145.5 239.417969 C 140.039062 237.992188 134.589844 236.527344 129.152344 235.0625 C 117.933594 232.03125 106.726562 228.949219 95.546875 225.78125 C 95.542969 225.777344 89.28125 224.003906 89.28125 224.003906 L 65.054688 249.414062 C 49.671875 240.671875 66.917969 224.863281 75.550781 216.714844 C 84.046875 208.695312 94.839844 201.035156 103.617188 196.628906 C 116.585938 206.136719 130.691406 214.335938 145.5 220.550781 C 160.308594 214.335938 174.414062 206.140625 187.382812 196.628906 C 196.160156 201.035156 206.957031 208.695312 215.449219 216.714844 C 224.082031 224.863281 241.328125 240.671875 225.945312 249.414062 Z M 225.945312 249.414062 " fill-opacity="1" fill-rule="nonzero"/><g clip-path="url(#ee3efe3106)"><path fill="#000000" d="M 133.988281 100.566406 C 134.351562 100.09375 135.027344 100.003906 135.5 100.363281 C 138.394531 102.566406 141.851562 103.734375 145.5 103.734375 C 149.144531 103.734375 152.601562 102.566406 155.5 100.363281 C 155.972656 100.003906 156.648438 100.09375 157.011719 100.566406 C 157.371094 101.039062 157.277344 101.714844 156.804688 102.078125 C 153.53125 104.570312 149.621094 105.886719 145.5 105.886719 C 141.378906 105.886719 137.46875 104.570312 134.191406 102.078125 C 133.71875 101.714844 133.628906 101.039062 133.988281 100.566406 Z M 93.59375 86.863281 C 98.230469 89.292969 103.753906 90.574219 109.570312 90.574219 C 115.386719 90.574219 120.914062 89.292969 125.546875 86.863281 C 126.074219 86.585938 126.277344 85.933594 126 85.410156 C 125.726562 84.878906 125.070312 84.679688 124.546875 84.957031 C 120.21875 87.222656 115.039062 88.421875 109.570312 88.421875 C 104.101562 88.421875 98.921875 87.222656 94.59375 84.957031 C 94.066406 84.679688 93.414062 84.878906 93.140625 85.410156 C 92.863281 85.933594 93.066406 86.585938 93.59375 86.863281 Z M 165.453125 86.863281 C 170.085938 89.289062 175.613281 90.574219 181.429688 90.574219 C 187.246094 90.574219 192.769531 89.292969 197.40625 86.863281 C 197.933594 86.585938 198.136719 85.933594 197.859375 85.410156 C 197.585938 84.882812 196.933594 84.679688 196.40625 84.957031 C 192.078125 87.222656 186.898438 88.421875 181.429688 88.421875 C 175.960938 88.421875 170.78125 87.222656 166.453125 84.957031 C 165.925781 84.679688 165.273438 84.878906 165 85.410156 C 164.722656 85.933594 164.925781 86.585938 165.453125 86.863281 Z M 289.917969 175.203125 L 289.921875 175.203125 C 289.898438 175.285156 289.867188 175.367188 289.84375 175.449219 C 289.761719 175.714844 289.679688 175.976562 289.589844 176.238281 C 289.542969 176.371094 289.488281 176.496094 289.441406 176.625 C 289.359375 176.84375 289.277344 177.066406 289.183594 177.28125 C 289.105469 177.46875 289.019531 177.648438 288.933594 177.832031 C 288.859375 177.992188 288.792969 178.148438 288.714844 178.304688 C 288.597656 178.542969 288.46875 178.777344 288.335938 179.015625 C 288.285156 179.113281 288.234375 179.210938 288.179688 179.308594 C 288.023438 179.582031 287.851562 179.851562 287.679688 180.121094 C 287.644531 180.179688 287.609375 180.238281 287.574219 180.296875 C 287.382812 180.582031 287.183594 180.867188 286.980469 181.144531 C 286.949219 181.183594 286.925781 181.222656 286.898438 181.261719 C 286.683594 181.546875 286.460938 181.832031 286.226562 182.109375 C 286.203125 182.140625 286.179688 182.171875 286.152344 182.203125 C 285.894531 182.511719 285.625 182.816406 285.347656 183.113281 C 284.929688 183.558594 284.492188 183.988281 284.039062 184.402344 C 279.035156 188.984375 271.726562 191.90625 262.222656 193.140625 C 260.492188 193.363281 258.691406 193.53125 256.820312 193.644531 C 254.945312 193.757812 253 193.8125 250.984375 193.8125 C 247.984375 193.8125 244.777344 193.6875 241.453125 193.4375 C 234.058594 192.886719 226.210938 191.710938 218.3125 190.019531 C 222.640625 193.3125 226.859375 196.863281 230.753906 200.539062 C 242.371094 211.503906 255.941406 228.078125 254.597656 244.746094 C 253.890625 253.515625 249.074219 260.457031 242.210938 265.433594 L 248.058594 271.566406 L 247.03125 271.941406 C 243.890625 273.097656 240.566406 273.679688 237.164062 273.679688 C 233.96875 273.679688 230.832031 273.175781 227.789062 272.320312 C 222.628906 273.828125 217.183594 274.605469 211.890625 274.605469 C 211.582031 274.605469 211.28125 274.601562 210.976562 274.597656 C 205.199219 274.496094 199.414062 274.019531 193.640625 273.296875 L 193.640625 273.304688 C 193.355469 273.269531 193.070312 273.226562 192.785156 273.191406 C 192.378906 273.136719 191.972656 273.085938 191.566406 273.03125 C 190.730469 272.917969 189.894531 272.796875 189.0625 272.675781 C 188.675781 272.617188 188.285156 272.5625 187.894531 272.5 C 186.988281 272.363281 186.078125 272.21875 185.167969 272.066406 C 184.695312 271.988281 184.222656 271.910156 183.75 271.828125 C 183.113281 271.71875 182.480469 271.609375 181.84375 271.496094 C 181.363281 271.410156 180.878906 271.328125 180.398438 271.238281 C 179.441406 271.0625 178.488281 270.886719 177.535156 270.703125 C 176.988281 270.597656 176.445312 270.488281 175.902344 270.378906 C 175.371094 270.273438 174.839844 270.167969 174.308594 270.0625 C 173.730469 269.945312 173.15625 269.828125 172.578125 269.707031 C 172.074219 269.605469 171.574219 269.496094 171.070312 269.390625 C 170.042969 269.175781 169.019531 268.957031 167.996094 268.730469 C 167.5625 268.636719 167.128906 268.542969 166.695312 268.449219 C 166.050781 268.304688 165.410156 268.164062 164.765625 268.019531 C 164.371094 267.929688 163.972656 267.839844 163.578125 267.75 C 161.21875 267.214844 158.867188 266.671875 156.523438 266.125 C 156.457031 266.109375 156.390625 266.09375 156.324219 266.078125 C 154.613281 265.675781 152.90625 265.277344 151.207031 264.875 L 146.519531 263.769531 C 146.183594 263.691406 145.839844 263.605469 145.503906 263.527344 C 145.164062 263.609375 144.820312 263.691406 144.480469 263.769531 L 139.792969 264.875 C 120.285156 269.480469 100.109375 274.242188 80.023438 274.597656 C 79.722656 274.601562 79.417969 274.605469 79.113281 274.605469 C 73.816406 274.605469 68.371094 273.828125 63.210938 272.320312 C 60.171875 273.175781 57.03125 273.679688 53.839844 273.679688 C 51.316406 273.679688 48.84375 273.359375 46.457031 272.722656 C 46.441406 272.722656 46.429688 272.71875 46.414062 272.714844 C 45.589844 272.492188 44.773438 272.238281 43.96875 271.941406 L 42.941406 271.566406 L 48.789062 265.433594 C 41.929688 260.457031 37.113281 253.519531 36.40625 244.746094 C 35.0625 228.078125 48.628906 211.507812 60.25 200.539062 C 64.144531 196.863281 68.359375 193.3125 72.691406 190.019531 C 64.792969 191.710938 56.941406 192.886719 49.550781 193.4375 C 49.464844 193.445312 49.382812 193.449219 49.296875 193.457031 C 47.832031 193.5625 46.386719 193.644531 44.972656 193.707031 C 43.273438 193.777344 41.613281 193.816406 40.015625 193.816406 C 23.882812 193.816406 12.324219 190.214844 5.65625 183.113281 C 5.378906 182.816406 5.109375 182.515625 4.851562 182.207031 C 4.796875 182.144531 4.75 182.078125 4.695312 182.011719 C 4.496094 181.765625 4.296875 181.519531 4.109375 181.269531 C 4.054688 181.195312 4.007812 181.117188 3.953125 181.042969 C 3.773438 180.800781 3.597656 180.554688 3.433594 180.304688 C 3.375 180.210938 3.320312 180.113281 3.261719 180.019531 C 3.113281 179.789062 2.964844 179.554688 2.828125 179.316406 C 2.753906 179.183594 2.683594 179.046875 2.613281 178.914062 C 2.503906 178.714844 2.390625 178.515625 2.292969 178.3125 C 2.199219 178.128906 2.117188 177.9375 2.03125 177.746094 C 1.960938 177.59375 1.886719 177.445312 1.820312 177.289062 C 1.71875 177.050781 1.628906 176.808594 1.539062 176.566406 C 1.5 176.460938 1.453125 176.355469 1.417969 176.246094 C 1.320312 175.972656 1.234375 175.695312 1.152344 175.421875 C 1.128906 175.347656 1.101562 175.277344 1.082031 175.203125 L 1.085938 175.203125 C 0.234375 172.238281 0.140625 169.078125 0.855469 165.863281 C 2.945312 156.457031 12.128906 146.714844 28.925781 136.082031 C 33.066406 133.464844 37.453125 130.9375 41.761719 128.621094 C 34.8125 115.875 30.132812 103.238281 28.097656 91.367188 C 24.5625 70.765625 29.320312 53.867188 41.859375 42.5 C 54.414062 31.109375 68.710938 25.335938 84.335938 25.335938 C 115.03125 25.335938 141.589844 47.882812 145.5 51.359375 C 149.410156 47.882812 175.964844 25.335938 206.664062 25.335938 C 222.289062 25.335938 236.585938 31.109375 249.144531 42.503906 C 261.679688 53.867188 266.4375 70.765625 262.90625 91.367188 C 260.867188 103.238281 256.191406 115.875 249.242188 128.621094 C 253.550781 130.941406 257.9375 133.464844 262.074219 136.082031 C 278.875 146.714844 288.058594 156.457031 290.148438 165.863281 C 290.863281 169.078125 290.769531 172.238281 289.917969 175.203125 Z M 73.089844 168.640625 C 80.304688 166.878906 87.855469 164.53125 95.480469 161.519531 C 114.46875 154.019531 123.722656 146.039062 126.105469 141 C 125.996094 139.714844 125.945312 138.324219 125.957031 136.863281 C 126.011719 128.703125 129.34375 120.070312 134.054688 115.867188 C 136.199219 113.957031 138.515625 113.074219 140.75 113.3125 C 142.917969 113.546875 144.480469 114.144531 145.5 115.136719 C 146.523438 114.144531 148.082031 113.546875 150.25 113.3125 C 152.488281 113.074219 154.800781 113.957031 156.945312 115.867188 C 161.660156 120.070312 164.988281 128.703125 165.046875 136.863281 C 165.054688 138.324219 165.003906 139.714844 164.894531 141 C 167.277344 146.039062 176.535156 154.019531 195.519531 161.519531 C 203.144531 164.53125 210.695312 166.878906 217.910156 168.644531 C 240.757812 144.53125 257.105469 116.675781 261.488281 91.125 C 264.933594 71.03125 260.332031 54.585938 248.179688 43.566406 C 235.890625 32.421875 221.921875 26.769531 206.664062 26.769531 C 174.148438 26.769531 146.269531 52.589844 145.992188 52.851562 C 145.714844 53.109375 145.285156 53.109375 145.007812 52.851562 C 144.730469 52.589844 116.847656 26.769531 84.339844 26.769531 C 69.078125 26.769531 55.109375 32.421875 42.820312 43.566406 C 30.667969 54.585938 26.066406 71.03125 29.511719 91.125 C 33.894531 116.675781 50.246094 144.53125 73.089844 168.640625 Z M 224.003906 164.167969 C 222.5625 165.796875 221.097656 167.40625 219.609375 168.996094 C 230.542969 171.539062 241.375 172.945312 250.847656 172.945312 C 259.214844 172.945312 265.628906 171.847656 268.824219 169.902344 C 268.84375 169.894531 268.859375 169.882812 268.875 169.871094 C 269.054688 169.761719 269.21875 169.648438 269.378906 169.53125 C 269.398438 169.519531 269.417969 169.503906 269.4375 169.492188 C 268.542969 167.871094 264.828125 162.550781 251.441406 154.003906 C 247.203125 151.296875 242.613281 148.675781 238.164062 146.3125 C 233.90625 152.332031 229.175781 158.304688 224.003906 164.167969 Z M 67 164.164062 C 61.824219 158.304688 57.09375 152.332031 52.835938 146.3125 C 48.386719 148.671875 43.796875 151.292969 39.558594 154.003906 C 26.171875 162.546875 22.460938 167.871094 21.5625 169.488281 C 21.585938 169.507812 21.609375 169.523438 21.628906 169.539062 C 21.78125 169.648438 21.941406 169.757812 22.113281 169.867188 C 22.136719 169.878906 22.15625 169.894531 22.179688 169.90625 C 25.378906 171.851562 31.789062 172.945312 40.152344 172.945312 C 49.785156 172.945312 60.535156 171.566406 71.417969 169.027344 C 69.921875 167.425781 68.445312 165.804688 67 164.164062 Z M 102.621094 179.542969 C 122.179688 171.816406 135.855469 162.253906 142.160156 151.886719 L 142.265625 151.714844 L 142.445312 151.621094 C 143.316406 151.171875 144.027344 150.582031 144.609375 149.894531 C 141.269531 144.71875 143.042969 136.359375 143.523438 134.410156 C 143.851562 133.066406 143.84375 131.289062 143.832031 129.570312 C 143.816406 127.375 143.804688 125.296875 144.414062 123.738281 C 144.394531 123.523438 144.367188 123.3125 144.34375 123.097656 C 144.175781 122.996094 143.996094 122.914062 143.792969 122.863281 C 142.597656 122.574219 141.625 122.699219 140.820312 123.242188 C 138.617188 124.730469 137.988281 129.074219 137.484375 132.566406 C 137.378906 133.277344 137.28125 133.949219 137.179688 134.558594 C 137.117188 134.90625 136.8125 135.152344 136.46875 135.152344 C 136.429688 135.152344 136.390625 135.148438 136.347656 135.140625 C 135.957031 135.074219 135.695312 134.703125 135.761719 134.3125 C 135.863281 133.71875 135.960938 133.054688 136.058594 132.359375 C 136.605469 128.589844 137.285156 123.898438 140.015625 122.050781 C 141.15625 121.28125 142.539062 121.085938 144.128906 121.46875 C 144.140625 121.46875 144.148438 121.472656 144.160156 121.476562 C 143.957031 119.636719 143.867188 117.804688 144.628906 116.3125 C 143.863281 115.46875 142.546875 114.949219 140.597656 114.742188 C 138.773438 114.550781 136.84375 115.304688 135.011719 116.9375 C 130.582031 120.890625 127.445312 129.089844 127.394531 136.875 C 127.382812 138.359375 127.4375 139.765625 127.554688 141.058594 L 127.574219 141.246094 L 127.496094 141.417969 C 125.125 146.703125 115.609375 155.113281 96.011719 162.855469 C 80.464844 168.996094 63.441406 172.984375 48.074219 174.085938 C 35.101562 175.015625 25.054688 173.757812 20.820312 170.722656 C 20.796875 170.707031 20.773438 170.6875 20.75 170.671875 C 20.546875 170.523438 20.359375 170.375 20.183594 170.21875 C 19.957031 170.015625 19.882812 169.691406 20 169.410156 C 20.4375 168.359375 23.394531 162.617188 38.78125 152.792969 C 41.242188 151.222656 43.820312 149.679688 46.421875 148.199219 C 42.164062 144 38.945312 138.839844 35.558594 133.738281 C 33.574219 134.898438 31.605469 136.085938 29.691406 137.296875 C 13.234375 147.710938 4.257812 157.15625 2.253906 166.175781 C 1.523438 169.460938 1.703125 172.695312 2.742188 175.679688 C 2.742188 175.683594 2.742188 175.6875 2.742188 175.6875 C 3.550781 178.011719 4.878906 180.191406 6.703125 182.132812 C 12.839844 188.667969 23.445312 192.097656 38.214844 192.355469 C 38.8125 192.363281 39.40625 192.378906 40.015625 192.378906 C 42.980469 192.378906 46.152344 192.253906 49.441406 192.007812 C 66.402344 190.738281 85.785156 186.195312 102.621094 179.542969 Z M 200.382812 185.296875 C 196.105469 183.953125 191.902344 182.480469 187.851562 180.878906 C 168.101562 173.078125 154.230469 163.371094 147.714844 152.800781 C 146.839844 152.328125 146.113281 151.734375 145.5 151.058594 C 144.886719 151.734375 144.160156 152.328125 143.285156 152.800781 C 136.769531 163.371094 122.898438 173.078125 103.148438 180.878906 C 99.097656 182.480469 94.894531 183.953125 90.617188 185.296875 C 107.230469 199.515625 126.019531 211.554688 145.5 219.769531 C 164.980469 211.554688 183.765625 199.515625 200.382812 185.296875 Z M 145.777344 221.210938 C 145.6875 221.25 145.59375 221.265625 145.5 221.265625 C 145.40625 221.265625 145.3125 221.25 145.222656 221.210938 C 130.925781 215.210938 116.828125 207.136719 103.5625 197.460938 C 94.921875 201.859375 84.375 209.371094 76.046875 217.234375 L 75.539062 217.714844 C 69.132812 223.75 58.417969 233.855469 59.722656 241.808594 C 60.152344 244.417969 61.898438 246.660156 64.925781 248.503906 L 89.058594 223.195312 L 89.476562 223.3125 C 89.476562 223.3125 95.667969 225.066406 95.738281 225.085938 C 106.136719 228.035156 117.128906 231.070312 129.339844 234.367188 C 134.847656 235.851562 140.21875 237.292969 145.503906 238.675781 C 150.785156 237.292969 156.15625 235.855469 161.660156 234.367188 C 173.871094 231.074219 184.863281 228.039062 195.261719 225.089844 C 195.335938 225.070312 201.523438 223.3125 201.523438 223.3125 L 201.941406 223.195312 L 226.070312 248.503906 C 229.101562 246.660156 230.847656 244.417969 231.277344 241.808594 C 232.582031 233.855469 221.863281 223.75 215.460938 217.710938 L 214.953125 217.234375 C 206.625 209.371094 196.082031 201.859375 187.441406 197.460938 C 174.175781 207.136719 160.074219 215.210938 145.777344 221.210938 Z M 49.78125 264.390625 L 63.917969 249.566406 C 60.679688 247.523438 58.792969 245.003906 58.304688 242.039062 C 56.875 233.335938 67.941406 222.902344 74.550781 216.667969 L 75.058594 216.191406 C 79.925781 211.59375 85.550781 207.121094 91.125 203.296875 C 89.480469 202.3125 87.84375 201.304688 86.226562 200.257812 C 81.84375 197.414062 77.582031 194.402344 73.386719 191.292969 C 69.160156 194.515625 65.042969 197.988281 61.234375 201.582031 C 49.84375 212.335938 36.539062 228.53125 37.835938 244.628906 C 38.511719 253.007812 43.15625 259.636719 49.78125 264.390625 Z M 142.445312 262.773438 C 130.714844 259.816406 118.078125 255.839844 108.582031 252.847656 C 105.734375 251.953125 103.109375 251.125 100.8125 250.421875 C 100.371094 250.503906 99.933594 250.585938 99.496094 250.667969 L 98.417969 250.863281 C 96.902344 251.140625 95.375 251.417969 93.839844 251.679688 C 89.046875 256.777344 78.277344 267.015625 65.589844 271.488281 C 70.019531 272.597656 74.621094 273.167969 79.113281 273.167969 C 79.40625 273.167969 79.703125 273.164062 79.996094 273.160156 C 99.929688 272.808594 120.023438 268.0625 139.460938 263.476562 Z M 97.800781 249.515625 C 97.238281 249.351562 96.695312 249.195312 96.207031 249.058594 C 96.023438 249.273438 95.765625 249.574219 95.445312 249.941406 C 96.234375 249.800781 97.019531 249.660156 97.800781 249.515625 Z M 193.730469 272.585938 L 193.726562 272.59375 C 193.726562 272.59375 193.726562 272.59375 193.730469 272.59375 Z M 225.265625 271.523438 C 212.519531 267.058594 201.855469 256.789062 197.113281 251.671875 C 196.214844 251.515625 195.324219 251.359375 194.433594 251.199219 L 194.457031 250.476562 L 194.332031 251.179688 L 191.503906 250.667969 C 170.9375 246.933594 151.011719 241.703125 128.964844 235.753906 C 116.746094 232.457031 105.75 229.417969 95.347656 226.46875 C 95.347656 226.46875 95.160156 226.417969 89.5 224.8125 L 45.511719 270.953125 C 69.886719 278.769531 95.132812 248.105469 95.390625 247.789062 L 95.683594 247.425781 L 96.136719 247.550781 C 99.167969 248.378906 103.730469 249.816406 109.011719 251.480469 C 119.601562 254.8125 134.101562 259.382812 146.847656 262.371094 L 151.535156 263.476562 C 165.308594 266.726562 179.550781 270.089844 193.753906 271.871094 L 193.753906 271.863281 C 199.503906 272.582031 205.257812 273.058594 211.003906 273.160156 C 211.296875 273.164062 211.59375 273.167969 211.886719 273.167969 C 216.332031 273.167969 220.882812 272.609375 225.265625 271.523438 Z M 193.832031 249.632812 C 194.40625 249.734375 194.976562 249.839844 195.550781 249.941406 C 195.234375 249.574219 194.976562 249.273438 194.796875 249.058594 C 194.304688 249.195312 193.765625 249.351562 193.203125 249.515625 Z M 201.5 224.8125 C 195.644531 226.472656 195.644531 226.472656 195.628906 226.476562 C 185.25 229.417969 174.253906 232.457031 162.035156 235.753906 C 157.382812 237.007812 152.828125 238.230469 148.335938 239.414062 C 162.578125 243.109375 176.21875 246.363281 190.105469 248.945312 C 191.9375 248.386719 193.542969 247.910156 194.863281 247.546875 L 195.316406 247.425781 L 195.609375 247.789062 C 195.808594 248.03125 215.707031 272.242188 237.160156 272.242188 C 240.023438 272.242188 242.820312 271.808594 245.488281 270.953125 Z M 218.078125 191.652344 C 212.1875 195.761719 205.941406 199.363281 199.855469 203.28125 C 205.4375 207.113281 211.066406 211.589844 215.941406 216.191406 L 216.449219 216.671875 C 223.0625 222.902344 234.125 233.335938 232.695312 242.042969 C 232.210938 245.003906 230.324219 247.523438 227.082031 249.566406 L 241.21875 264.394531 C 247.84375 259.636719 252.488281 253.011719 253.164062 244.632812 C 254.460938 228.53125 241.15625 212.335938 229.765625 201.582031 C 226.097656 198.121094 222.140625 194.769531 218.078125 191.652344 Z M 288.746094 166.175781 C 286.742188 157.15625 277.765625 147.710938 261.304688 137.296875 C 258.96875 135.816406 256.550781 134.371094 254.113281 132.972656 C 252.230469 138.699219 248.742188 143.59375 245.21875 148.566406 C 247.601562 149.933594 249.960938 151.351562 252.21875 152.792969 C 267.605469 162.617188 270.5625 168.359375 271 169.410156 C 271.117188 169.691406 271.042969 170.015625 270.816406 170.21875 C 270.640625 170.375 270.449219 170.527344 270.246094 170.675781 C 270.226562 170.691406 270.203125 170.707031 270.183594 170.722656 C 265.953125 173.757812 255.902344 175.015625 242.925781 174.085938 C 227.558594 172.984375 210.535156 168.996094 194.992188 162.855469 C 175.390625 155.113281 165.875 146.707031 163.503906 141.417969 L 163.429688 141.246094 L 163.445312 141.058594 C 163.5625 139.769531 163.617188 138.359375 163.609375 136.875 C 163.554688 129.089844 160.421875 120.890625 155.988281 116.9375 C 154.15625 115.304688 152.222656 114.550781 150.40625 114.742188 C 148.34375 114.960938 146.984375 115.523438 146.238281 116.453125 C 145.191406 117.769531 145.410156 119.828125 145.671875 122.019531 C 146.019531 121.761719 146.417969 121.578125 146.871094 121.46875 C 148.460938 121.085938 149.84375 121.28125 150.984375 122.050781 C 153.714844 123.898438 154.394531 128.589844 154.941406 132.359375 C 155.039062 133.054688 155.136719 133.71875 155.238281 134.3125 C 155.304688 134.703125 155.042969 135.074219 154.652344 135.140625 C 154.609375 135.148438 154.570312 135.152344 154.53125 135.152344 C 154.1875 135.152344 153.882812 134.90625 153.824219 134.558594 C 153.71875 133.949219 153.621094 133.277344 153.515625 132.566406 C 153.011719 129.074219 152.382812 124.730469 150.179688 123.242188 C 149.375 122.699219 148.402344 122.574219 147.207031 122.863281 C 146.582031 123.015625 146.148438 123.398438 145.84375 124.050781 L 145.808594 124.132812 C 145.246094 125.429688 145.257812 127.527344 145.269531 129.5625 C 145.28125 131.367188 145.292969 133.234375 144.917969 134.753906 C 144.371094 136.976562 141.980469 148.226562 148.554688 151.625 L 148.734375 151.714844 L 148.839844 151.886719 C 155.148438 162.253906 168.820312 171.820312 188.382812 179.546875 C 205.214844 186.195312 224.597656 190.738281 241.558594 192.007812 C 244.847656 192.253906 248.019531 192.378906 250.984375 192.378906 C 251.597656 192.378906 252.1875 192.363281 252.785156 192.355469 C 267.554688 192.097656 278.160156 188.667969 284.296875 182.132812 C 288.464844 177.691406 290.042969 172.027344 288.746094 166.175781 Z M 288.746094 166.175781 " fill-opacity="1" fill-rule="nonzero"/></g><path fill="#f66c72" d="M 88.160156 94.214844 C 88.335938 97.527344 85.125 100.386719 80.988281 100.609375 C 76.851562 100.828125 73.351562 98.324219 73.175781 95.011719 C 73 91.703125 76.210938 88.839844 80.347656 88.621094 C 84.488281 88.402344 87.984375 90.90625 88.160156 94.214844 Z M 210.019531 88.617188 C 205.882812 88.839844 202.671875 91.699219 202.847656 95.011719 C 203.023438 98.320312 206.523438 100.824219 210.660156 100.605469 C 214.796875 100.386719 218.007812 97.523438 217.832031 94.214844 C 217.65625 90.902344 214.15625 88.398438 210.019531 88.617188 Z M 210.019531 88.617188 " fill-opacity="1" fill-rule="nonzero"/></svg>